<?xml version="1.0" encoding="utf-8"?>
<!-- Generator: Adobe Illustrator 27.7.0, SVG Export Plug-In . SVG Version: 6.00 Build 0)  -->
<svg version="1.1" id="Capa_1" xmlns="http://www.w3.org/2000/svg" xmlns:xlink="http://www.w3.org/1999/xlink" x="0px" y="0px"
	 viewBox="0 0 4744.4 6468.4" style="enable-background:new 0 0 4744.4 6468.4;" xml:space="preserve">

<g xmlns="http://www.w3.org/2000/svg" id="nopointer_1_">
	<image style="overflow: visible; transform: matrix(1.34, 0, 0, 1.34, -885, -208)" id="nopointer_2_" xmlns:xlink="http://www.w3.org/1999/xlink" xlink:href="maps_coordilleras/coordilleras.webp"></image>
</g>
<g id="landmarks-departments">
	<path id="oriental" class="st0" d="M958.9,4426.6l3.9,10.7l6.8,2l15.6-5.9l15.6-5.9l3.9,2l2.9,5.9l8.8-1l11.7-7.8l8.8,2l2.9,5.9h11.7l5.8-6.8h4.9
		v5.9l11.7,9.8l5.8,4.9l8.8-8.8l-5.8-6.8l1-5.9l5.8,2.9l5.8-4.9l-4.9-12.7l-10.7-7.8l-4.9-7.8l3.9-7.8l11.7,8.8l1-14.6l-4.9-7.8
		l7.8-11.7l8.8-1l3.9,13.7l8.8-1l8.8-5.9l-1.9-9.8l8.8-6.8l4.9-11.7l7.8-7.8l5.8,5.9h10.7l12.7-4.9l11.7-7.8l14.6-6.8v-6.8l8.8,2.9
		l9.7,4.9l6.8-8.8l7.8-8.8l3.9-10.7l11.7-16.6v-8.8l4.9-16.6l4.9,6.8l4.9,16.6h8.8l1-12.7l4.9-16.6l11.7-10.7l3.9-12.7l5.8,10.7h10.7
		l10.7-7.8l10.7-11.7l-7.8-10.7l4.9-14.6l13.6,15.6l8.8-1l1-14.6l7.8-18.5l8.8,5.9l7.8,19.5l8.8,1l10.7-9.8l16.6-10.7l8.8-13.7
		l-2.9-19.5l-1.9-18.5l1-10.7l5.8,5.9l6.8,9.8l12.7-2.9l4.9-6.8h14.6l18.5-10.7l7.8-11.7l1-12.7v-18.5l5.8,5.9l6.8,8.8l10.7-3.9
		l7.8-10.7l-1-15.6l4.9-6.8l1,9.8l7.8,2l7.8,19.5v19.5l12.7,8.8l7.8-18.5l9.7-7.8h13.6l3.9,7.8l-9.7,30.3l-1,16.6l12.7,26.3
		l17.5,20.5l15.6,1l16.6-10.7l13.6-7.8V4129l-7.8-13.7l-7.8-22.4l-6.8-19.5l-3.9-22.4l-10.7-14.6v-16.6l7.8,8.8l11.7,5.9l11.7-4.9
		l10.7-12.7l-10.7-11.7l-9.7-2.9l-9.7-14.6l12.7-4.9l5.8,6.8l17.5-7.8l7.8-7.8l4.9,9.8l1,16.6l11.7,6.8l1.9-15.6l-4.9-10.7l3.9-14.6
		l6.8-9.8l5.8-2l10.7,19.5l13.6,18.5l10.7-7.8l-3.9-14.6l-10.7-16.6l-6.8-15.6l8.8-2.9l14.6,12.7l15.6,3.9l6.8-7.8l-15.6-11.7
		l-2.9-16.6h8.8l5.8,10.7h24.3l3.9-8.8l-1.9-13.7l-13.6-2.9l-10.7-7.8l1.9-12.7l13.6-5.9l15.6-18.5l1.9-26.3l-10.7-21.5l-13.6-26.3
		l-12.7-23.4l-7.8-17.6l2.9-10.7h7.8l4.9-7.8v-16.6l6.8,2l1.9,7.8l15.6,3.9l6.8-7.8l-10.7-13.7l2.9-5.9h11.7l10.7,6.8l19.5,3.9v-8.8
		l-4.9-7.8h8.8l4.9,9.8l6.8,3.9l1-9.8l-8.8-10.7l-9.7-10.7l-1-9.8l10.7,5.9l1,8.8l25.3,32.2l2.9,15.6l12.7,10.7l9.7,2.9l-1-22.4
		l-9.7-15.6v-14.6l5.8-9.8l15.6,7.8l6.8,8.8l9.7-7.8l4.9-6.8h9.7l-1.9,9.8l-10.7,6.8l-6.8,9.8l1,16.6l15.6,17.6l12.7,24.4l1.9,15.6
		l4.9,17.6l16.6,18.5l10.7,11.7l11.7,8.8l10.7,11.7l3.9,15.6l1,14.6v15.6l3.9,13.7v32.2l8.8,11.7l8.8,7.8l6.8,9.8l8.8,3.9l8.8-9.8
		l8.8-2l10.7-16.6l-8.8-14.6v-16.6l12.7-14.6l2.9-20.5l6.8-20.5l-10.7-14.6l-5.8-9.8l4.9-3.9l2.9-13.7l-1-16.6l-6.8-5.9v-18.5
		l7.8-17.6v-7.8l-11.7-10.7l-1-9.8l-6.8-10.7l2.9-13.7l4.9-8.8l-1.9-17.6l-12.7-13.7l-12.7-16.6l-1.9-9.8l-14.6-10.7l-5.8-13.7
		l3.9-17.6l-7.8-10.7l-7.8-14.6l-10.7-2l-12.7,1l-10.7,15.6l-14.6,17.6l-8.8-2l-1.9-12.7l11.7-2.9l10.7-11.7l7.8-9.8v-6.8l6.8-2
		l15.6-10.7l1.9-9.8l9.7-2.9l5.8-9.8l4.9-4.9h8.8l2.9-6.8l-5.8-5.9l5.8-5.9l5.8,10.7h7.8l2.9-9.8l-10.7-8.8l-6.8-1l8.8-4.9l6.8-2
		l-5.8-10.7l-14.6-8.8l-5.8,4.9l-6.8-5.9l6.8-3.9l4.9-2.9v-6.8l-10.7-2.9l-1-5.9l11.7,1l5.8-5.9l1.9-8.8l-9.7-5.9l5.8-3.9l6.8-5.9
		l-7.8-11.7l-15.6-9.8l-6.8-4.9l1-9.8h12.7l12.7-2.9l1.9-4.9l12.7-6.8h4.9l9.7-5.9v5.9l11.7,1.9l9.7-8.8l-1.9-10.7l-6.8-17.6
		l4.9-10.7v-19.5l7.8-2.9l11.7-21.5v-14.6l9.7-16.6l10.7-8.8l-3.9-12.7l4.9-2.9l9.7,4.9l7.8-6.8l5.8-5.9l-1.9-14.6v-8.8l9.7-10.7
		l10.7,5.9l6.8-4.9l-1.9-6.8l6.8-5.9l2.9-5.9l10.7-6.8l3.9,5.9l16.6,2l-1.9-14.6l-7.8-4.9l-7.8-6.8l1-5.9l6.8,1l8.8-4.9v-6.8l-1-11.7
		h13.6l4.9-7.8v-9.8l5.8-6.8l10.7-4.9l1-5.9l2-12.7l5.8,3.9l6.8,11.7l2.9,5.9c0,0-1,4.9-1,8.8s3.9,4.9,3.9,4.9h9.7v6.8l-3.9,8.8
		l-14.6,14.6l-8.8,10.7l1,6.8l10.7,4.9l14.6-8.8l6.8-11.7l11.7-17.6l7.8-11.7l14.6-11.7l-1-7.8l11.7-8.8l8.8-9.8l-8.8-5.9l-11.7,6.8
		l-12.7,17.6l-11.7,6.8l-1.9-5.9l10.7-12.7l-1-10.7l-10.7,1l-7.8-6.8l-9.7-2l-3.9,7.8l-13.6-2l1-7.8l12.7-6.8l-10.7-5.9h-5.8v-12.7
		l8.8-5.9l4.9,2l8.8-2l4.9,3.9l5.8,8.8l1.9,9.8l14.6-2.9l4.9,4.9l7.8,2l7.8-7.8l6.8-6.8l-6.8-8.8l5.8-9.8v-8.8l-7.8-4.9l-7.8,6.8
		l-6.8,6.8l-14.6-5.9l-7.8-1l-2.9-6.8l8.8-8.8v-7.8l5.8,2.9l9.7-3.9h31.2l1-4.9l7.8-6.8l6.8-2l3.9,11.7v13.7l12.7,1h10.7l6.8-8.8
		l1.9-13.7l7.8-7.8l12.7-10.7l8.8-3.9v4.9l-4.9,14.6l3.9,11.7l6.8,6.8l9.7-1l1-13.7l7.8-13.7l8.8-13.7l-4.9-6.8l-6.8-7.8l6.8-5.9h5.8
		l11.7-5.9l-5.8-13.7l-5.8-4.9l1.9-9.8l8.8-2l5.8-10.7l2.9-6.8l7.8,7.8l5.8,2.9l8.8-9.8l-3.9-8.8l7.8-8.8l11.7,7.8l5.8,4.9l3.9,6.8
		l3.9-8.8l10.7-3.9l-4.9-11.7l-5.8-2.9l-8.8-9.8l8.8-5.9v-9.8l10.7-8.8l2.9,8.8l-7.8,3.9l4.9,11.7l13.6,4.9l2.9-16.6l12.7-1
		l-7.8-10.7l-1.9-10.7l2.9-6.8l-8.8-7.8l6.8-2l6.8,7.8h18.5l4.9-8.8l1.9-14.6l-4.9-11.7l6.8-11.7l11.7,1l9.7-6.8l8.8-3.9l6.8-3.9
		l1.9-14.6l4.9-8.8v-11.7l8.8-4.9l10.7-5.9v-12.7l10.7-2.9l1.9-13.7l1-10.7l6.8-5.9v-9.8l7.8-4.9l9.7,5.9l9.7,2.9v-8.8l10.7-10.7
		l5.8-4.9l18.5,7.8l4.9,5.9l6.8-11.7l10.7-12.7l-5.8-6.8l11.7-11.7l-6.8-7.8l-18.5-6.8v4.9l-13.6-7.8l-9.7-2.9l1-5.9l6.8-4.9l6.8,3.9
		l11.7,1l4.9-2.9l9.7-3.9l8.8,2l7.8-9.8c0,0,1.9-9.8,5.8-9.8s13.6-5.9,13.6-5.9l5.8-16.6l12.7-10.7l-1.9-11.7l-5.8-5.9l-11.7,2
		l-26.3,2l-6.8,10.7l-12.7-2l-8.8,4.9l-8.8-2l-10.7-7.8l7.8-6.8h10.7l8.8-8.8l1-9.8l-11.7-2.9l-4.9-5.9l11.7-6.8l1-7.8l13.6,7.8h16.6
		l-6.8-11.7h12.7l5.8-2.9l-4.9-13.7l12.7-10.7l15.6,5.9l11.7-4.9l2.9-12.7l1.9-12.7l-4.9-12.7l-7.8-1l-10.7-8.8l11.7-8.8v-8.8
		l12.7-7.8l-1-16.6l4.9-9.8l-1.9-15.6l-9.7-8.8v-10.7l1-12.7l-7.8-11.7l-4.9-8.8v-19.5l-12.7-8.8l-8.8,1l-7.8-1l-7.8-9.8l-13.6-8.8
		l-9.7-9.8l1-19.5l-13.6-11.7l-7.8,14.6l-6.8,6.8l-4.9-7.8l1-7.8l-4.9-2l1.9-13.7l-10.2-0.9l-12.8-8.9l5.7-11.8l14.8,5.2l8.9-6.2
		l6.8-8.8l-35.9-62.9l0.3-12.1l-1.3-19.3l-3.3-1.7l-2.1-14.6l-10.5-7.9h-14.6l-5,4.2H2620l-1.4,2.2l-34.3-4l-10.6-3.5l-4.7-6.5v-17.7
		l-10.6-8.3l-0.8-17.7l-4.1-0.5v-5l4.8-4.4l-0.2-12.1l-3.8-2.1l0.2-9.4l-4.6-3.8l-0.3-18.8l-24.5-14.6l-12.4,5.9l-7.6,14.8
		l-10.7,21.7l-8.6-4.5l-6.2-23.5h-23.1l-7.2,8.3l-7.6,2.8l-11.4,3.1l-6.2-9l8.6-8.6l0.7-17.6l-7.2-26.9l-11.4-1.7l-2.4-18.3
		l10.3-11.7l10.7-15.2l11.7-24.8l5.9-12.1l2.1-15.2l-6.9-6.9l-7.9,0.7l-6.9,0.3l-5.9-12.1l-11-4.1l-20.7-24.5l-0.7-8.3l-4.8-5.9
		l-5.2,3.1h-5.9l-2.8-9l9.6-9l6-16.7l-3.8-19l-11-9.2l6.1-17.8l-0.5-18.9l-15.7,4.3l-11.4-13.9l-10.4-5l-26.2-11.2l-13.2-8.6
		l13.5-18.8l8.7-18.1l4-18.3l-13.8-16.5l-8.4-22.9l-34-4.5l-1.3-24.3l-16.6-20l-9-17.5l-10.7-8.6l-7.9-23.1l-5.5-7.2l8.7-18.6
		l1.1-21.3l-0.3-3.3l-13.1-1.7l0.7-8.4l11-12.2l5-12.9l13.9-28.9l4.6-12.9l2.9-3.7l3.6-8.2l16-12.1l3-15.1l4.4-3.4l1.5-8.9l20.6-21.2
		l14.6-1.3l0.2-2.1l2.3-13.4v-6.7l5.7-11.4l3.3-12.9l4.8-6l6.8-11.9l5-5.5l7.8-21.2l14.8-19l-1.3-2.5l-12.7-8.7l-2.6-2.7l3.8-3.9
		l-1.9-2.7l-1.5-11.3l4-12.6l7-14.6l2.7-19l10.1-15.7l5-8.6l-0.8-19.5l2.6-6.4l0.7-12.7l2.3-0.9l1-1.2l-1.3-15.3l1.1-17.2l-0.2-25.5
		l6-13.6l-2.1-23.5l1.6-1.9l16.4-13.3l0.8-6.4l1-12.3l5.4-11.2l9.1-6.2l6-11.2l10.4-7.7l8.1-12.6l9-16.1l1.8-17.1l10.1-8.7l4.2-18
		l3.3-7.1l10.7-20.2l8,0.4l5.9-5.5l13.1-12.4L2534,578l6.2-10.5l10.8-12l-4.8-12.3l19.9-16.3l1.4,5.4l26.7-10.6l12-5l-12.8-4.7
		l-8.9-5.2l-13.4,5.9l-21.7,5.2l-11.4,12.4l-12.7,17.2l-12.7,16.9l-6.5,20l-17.2,5.5l-12,6.9l-10,16.5l-16.1,17.1l-13.1,8.3
		l-6.8,12.2l-11.7,17.6l-11.2,12.7l-9.7,17.1l-3.9,12.7l-14.1,12.7l-20.4,16.6l-13.6,10.2l-11.2,14.1l-7.8,13.7l-6.3,16.1l-12.7,16.1
		l-3.9,6.8l2.4,4.9l-5.4,9.8l1,7.8l-4.4,13.7l-1,11.7l-7.3,11.2l-3.9,11.2l-3.4,27.3l-4.9,3.9l-4.9,8.3l3.9,7.3l3.4,2.4l2.9,9.3
		l-6.3,3.9v7.3l1.9,7.3l5.8,8.3h3.4l0.5,9.3v7.8l-5.8,4.4l1.9,5.4l9.3,1l-1.9,6.8l-6.3,3.4l-2.4,9.8l-5.4,6.3l2.9,5.9l-4.9,7.3
		l2.4,5.4l7.3,9.3l6.3,12.2l-1,9.8l-5.8,11.2l-0.5,14.6l7.3,4.9l-4.4,5.4l-8.3,2.4l-18,18.1l-10.2,10.2l-9.7,16.6l-8.3,13.7
		l-9.7,12.7l-3.9,11.7l-1.5,9.3l0.5,8.3l-9.3,11.2l-7.8,15.6l-10.7,7.3l-12.2,1.5l-8.3,7.8l-1.5,11.7l5.4,4.9l6.8,7.3l-5.8,5.4
		l-5.4,5.4l0.5,10.7l3.9,6.3l-2.9,15.6l-9.7,10.7l-13.1,4.9l-11.2,1l-5.4,9.8l6.8,5.4l-4.4,6.8l7.3,5.9l7.3,11.2l-4.9,8.8l1,9.3
		l4.4,3.4l-0.5,14.1l4.9,13.2l1,7.8l1,19l1.5,13.2l5.8,3.9l-0.5,16.1l7.8,5.4l4.4,15.1l-1,7.3l-9.3-5.4l-13.6-2.9l-8.3,0.5l-5.4,5.9
		l-5.8,2l-1.5,6.8l1.9,6.3l3.4,6.3l1.9,4.4l-3.9,2l-0.5,9.3l-5.4,7.3l-1,13.7l8.8,6.3l8.8,19.5v9.8l2.9,7.8l1,13.7l6.3,5.4l10.2,4.9
		l6.3,4.4l1,11.2l4.4,2.9l2.4,8.8v10.7l1,5.9l7.8,16.1l2.9,10.7l5.8,7.3v8.3l5.4,4.9l2.9,19l-4.9,8.3v11.7l1.5,8.3l4.9,3.4v8.8
		l6.8,4.9l12.7,4.9l1.5,9.8l4.9,8.8l-5.8,5.9l2.4,12.2v10.2l6.3,7.8l5.4,7.8l8.8,3.4l4.4,6.3l-5.4,8.3l-1,6.3l-5.8,0.5l-2.9,8.3
		l4.4,3.4v11.7l-4.4,9.3v8.3l5.4,3.4v10.2l-2.4,14.1l-7.8,9.3l0.5,6.8l7.8,0.5l14.6-2.9l8.8-0.5l-1.9,6.8l-8.3,1l-5.4,5.9l4.4,5.9
		l5.8,6.3l5.4-4.9l0.5,16.1l-8.3,5.4l-1.9,4.4l-8.8,2.9l-8.8-2.4l-6.3,4.9l-1,14.1l-13.6,11.7l-5.4,10.7l-7.3,9.3l2.4,10.7l11.2,10.2
		l5.4,1.5l4.4,11.2l10.2,7.8h4.9l-1.9,7.8l-11.7,3.4l-3.4,10.7l-5.8,1l-7.3,5.9l-5.8,7.3l-6.8,8.3l-4.4-2.4l4.4-6.8l0.5-9.3l2.9-19.5
		v-12.2l-7.8-1l-10.2,12.2l-10.7,4.9l-1.5,12.2l-10.7-2v-19l-6.3-3.4l-5.4,11.2l-3.4,7.8l2.9,14.1l-3.4,15.1l4.9,7.3l6.8-6.8h5.4
		l4.9,8.3l-5.8,5.9l2.4,8.3l-9.2,22.4l-1.5,7.8l-2.9,9.8h-6.3l-4.9-7.3l-5.4-3.4l-2.9,12.7l4.9,6.3l1,6.3l-1.5,12.7l-1.9-7.8
		l-4.9-2.9l-2.4-6.3l-5.8,9.3l6.3,11.7l-1.9,24.9l-6.3-0.5l-4.4-6.8l3.4-12.7l-3.9-5.4l-8.8,7.3l-11.7,14.6l-0.5,10.2l4.4,7.8
		l-10.2,3.9l-5.8-3.9l-11.2,3.9l-6.3,4.4l13.1,3.4l5.8,3.9l8.3,2.9l1.9,3.9h9.7l7.3-7.8l9.3-1l-1.9,3.9l-5.8,1.5v5.9l-3.4,1.5v3.9
		l10.2,3.4l3.4,7.3l-0.5,8.3l-12.7,2.9l-6.8,5.4l2.4,7.3l-2.9,10.7l-3.9-4.9l-12.7-0.5l-2.9-14.6l-7.8-7.8l-15.1,2.4l-5.4-4.9
		l-0.5-11.2l-4.4-7.8l-9.7-4.4l-3.9,3.9l-4.4-2l-0.5-7.3l-14.6-2.9l-3.4,3.9l1.5,6.8l-8.3,5.9l-4.9,5.4l-7.3,2.9l1,8.3l10.2,3.4
		l3.4-5.4l7.8,2.4l3.4-6.8l6.8-0.5l3.4,8.3l-6.3,2l1,7.3l0.5,12.2l-7.8,1l-4.4,5.4l-11.7,12.7l0.5,8.3l-6.3,2.9v5.9l5.4,5.4l1.9,7.8
		h4.9l11.2,2.9l4.4,2.9l-3.4,2.4l-8.8,1l-2.9-3.9l-8.8,0.5l-5.4-7.8l-7.3-3.9l-1-8.8l-4.4-5.4l-6.3-1l-1.9,7.3l-4.9,4.4l6.8,5.9
		l1.9,6.8l4.9,4.4l3.9,4.9l-1.9,3.9l-7.3-8.8l-6.8-1.5l-1.9-11.2l-4.4-2.9l-7.3,4.4l-2.4,7.8l-11.7,2.4l-3.4,6.3l3.4,7.8l7.3-2.4
		l2.4,3.4l5.4,7.8l6.8-3.9l12.7,5.4l5.4,2.4l6.3,6.8l5.4,4.4l4.9,3.4l1.5,5.9l5.4,1l0.5,3.4l-9.7,3.9l-4.9,5.9l-3.9-7.3l3.4-8.8
		l-8.3-4.9l-6.8-5.9l-9.2-1.5l-8.3,8.3l-7.3,2.9l-4.9,7.3l-1.5,4.4l-4.9,9.3l-10.7,4.9l-2.9,7.8l-12.7,10.7l-4.9-5.4l7.8-4.4l1-12.2
		l-6.8-4.4l-6.8,1.5l-2.4,8.8l-7.3,5.4l-1,9.8l-3.9,3.9l-4.9-7.8l6.8-7.8l-2.9-10.2l-8.3-2l-4.4,8.3l-13.6,2.4l-8.3,1l1.9,9.3
		l-4.4,4.9l-6.8,6.3l-0.5,12.2l1.5,13.7l4.9,7.8l-2.9,5.4l-2.4,6.8h-5.4l-3.4,6.8l-13.6-0.5l-10.7-1l-4.9,6.8l12.7,3.9l2.4,4.4
		l19-3.4l4.9,9.3l-9.7,10.2l-1,10.7l-7.3,5.9l-1.9,8.8l-10.2,3.4l-4.9,5.4l-6.3,8.3l3.9,6.3l1.5,10.7l-5.4-5.9l-7.8-3.4l0.5-5.4
		l-6.3,2.4l1.9,9.8l-4.4,5.4l-7.3,8.3l-7.8,4.9l-4.9,5.4l2.9,5.9l2.9,3.9h5.8v3.4h-5.8l-2.9,3.4v4.9l2.9,0.5l3.9,8.3l-3.4,2.4
		l-3.9-7.3l-5.8-1l-5.4,4.4l-8.8,9.3v7.3l-9.2,0.5l-0.5,6.8l2.4,6.3l4.9,5.4l3.9-2l3.4,4.9l1.9,9.3l-0.5,19h-4.9v10.7l-1.5,14.1
		l-1.5,8.3l-4.4,14.1l-4.9-4.4l2.4-8.3v-14.6l0.5-7.3l1.5-10.7l1-6.8h2.9l3.4-4.4l0.5-6.3l-6.8-6.8l-4.4-4.9h-4.4l-4.9,10.7l0.5,8.3
		l-6.8,5.9l-2.4-8.3l2.4-3.9v-13.7l-6.3-2.9l-5.8,12.7l-8.8,12.2l0.5,8.8l-5.8,11.7l1.5,4.4l7.8,1l4.4-4.4l7.8,2.9l-3.9,4.9l-5.4,5.9
		l-3.9,1.9l5.8,5.4l0.5,6.3l-4.9,22.4l-1.9,6.3l-4.9,5.9l1.5,14.6l4.9,4.9l1.9,10.2l-0.5,13.7l-4.4,7.3l-0.5,5.4l-3.4,7.3l-1.5,3.9
		l-0.5,5.4l9.7,2.4l2.9,6.8l-6.8,2.4l-4.9-5.9l-5.4,0.5l-2.4,11.2l1.5,6.8l-3.4,12.2l3.4,3.9l3.9-2.4l7.3,3.4l-3.4,3.9l-4.4,4.4
		l2,7.8l-8.3,4.9l-8.3,5.4l-4.9,11.2v9.8l-4.9,3.4l-1.9,9.8l-0.5,13.2l3.9,3.4l0.5,7.3l-4.9,7.3l-3.4,6.8l-2.9,4.9l1,3.9l8.8,2.4
		l7.8-2.4l7.3,0.5l2.4-7.8l6.3-7.8v-7.3l3.4-4.4l3.9-9.3l4.4-6.3l1.9-7.3l1,8.3l4.4,7.3l2.4,4.4l-2.4,6.8l3.9,1.5l-4.4,6.3l-0.5,7.3
		v6.8l-10.2,7.3l-4.9,4.4l-3.4,8.3l-9.2,8.3l2.4-9.8l-5.8-5.4l-9.7,7.8l-8.3,0.5v21l-5.8,13.2l-1.5,9.8l-6.8,4.4v7.3l-5.8,8.8
		l-3.4,8.3l-1.5,5.9l8.3,0.5l4.9-7.8h3.4l2.9-9.8v-8.3l11.2-5.9l11.7-8.3l4.4-0.5l4.9-12.7h8.8l9.7-13.7l1.5-12.2l10.2-1.5l3.9-7.8
		l10.2-2.9l6.3-8.8l6.8-9.3l8.3-3.4l0.5-5.9l6.3,2.4l-0.5,10.2l-3.4,6.8l6.8,3.4l2.4,13.7l-4.9,6.8l2.4,9.8l-1,12.2v10.7l-8.3,1
		l-6.8,6.8l-6.3,1.5l-3.9-6.3l-6.3-7.8l-5.4,2.4v10.7l-7.3,4.9l1.5,10.2l-4.4,3.4l-10.7,4.9l-0.5,8.3l7.8,1l1.9-3.9l7.8,2.4l6.3-6.3
		l10.7,1l-5.8,5.9l-6.8,5.4l-1,5.9l-7.8,5.9l-4.9,6.3l-8.3,0.5l-4.4,10.2l1,4.4h10.2l4.4,5.9l5.4-3.4l10.2-8.3l2.9,6.3l-6.3,5.4
		l0.5,3.4l-8.3,5.4l-5.4,6.3v10.7l-6.3,7.8l-3.9-5.4l-13.1-2.4l-3.9,5.4l-11.7,19l-7.3,4.9l-13.1,3.9l-0.5,9.3l-6.3,2.9l-1.5,10.2
		l-4.4,10.2l0.5,14.1l-6.8,5.9l-0.5,9.3l-5.4,4.9l-3.4,9.3l-6.8,5.4l-4.4,7.8l-3.9,8.3l0.5,11.7l10.7-1.5v-5.9l9.7-5.4l1.5-9.8
		l7.3-6.3l3.4-9.3l5.8-11.7v-14.6l9.2-5.4l5.4-9.3l5.4-8.3l14.1-6.3l3.4-8.8l9.3-7.8l10.2-8.8l7.8-6.8l2.4,5.9l-5.4,4.4v5.4l-8.3,2.9
		l-3.9,4.9l-7.3,8.8l-7.8,6.8l-8.8,2l-4.4,8.8l-4.4,3.9l1.5,6.3h8.3l1.9-6.8l10.2,1.5l-5.8,3.9l-4.9,1l0.5,3.9l-6.3,1.5l-3.9,6.8
		l-0.5,15.6l-6.3,3.9l-5.4,5.4l-3.4,12.2l-4.9,3.4l-3.4,6.3l1,25.9l-4.4,4.9l-6.8,2l-5.4,5.9l-3.9-0.5l-3.4-3.9h-10.2l-11.7,14.6
		l-10.2,3.4l-5.8,7.3l-9.7,5.4l-6.3,5.4l-1,8.8l-6.3,6.3l-2.4,9.8l-5.8,3.9v9.3l-3.4,6.8l-8.3,3.9l1.9,7.3l4.4,1l-1.9,7.8l-2.4,5.4
		l-7.8,5.4l5.8,11.7l-2.9,5.9l-7.8,7.3l-10.7,22l-10.2,12.2l-5.4,11.7l-5.8,5.9l1.5,16.1l-6.3,9.8l1.9,4.4l7.8,5.4l3.9,20l-7.3,2
		l-3.9,6.8l1,11.7l-4.9,8.8l-9.7,7.8l-5.8,8.3l2.9,20.5l3.4,0.5v5.9l-5.8,6.8l0.5,12.7l-6.8,7.3l-4.9,10.2l-7.3,4.4l-3.9,6.8l3.9,9.3
		l-5.8,8.8l-5.8,7.8l-26.3,16.6c0,0-8.3,6.3-8.3,6.3c-8.1,14-11.9,28.2-23.1,40.4c-12.3,13.4-27.7,23.7-40.1,37
		c-38.3,41.3-41.1,105.7-75.8,150c-17.1,21.8-40.8,37.3-62.8,54.2c-60,46.1-109.7,105.6-144.5,172.8c-9.3,18-18.6,37.6-36.1,47.8
		c-10.1,5.9-22.3,8.1-31.1,15.7c-5.6,4.8-9.5,11.4-13.2,17.8C982.6,4368.7,945.7,4417.5,958.9,4426.6z"/>
	<path id="occidental" class="st0" d="M1021.7,2837.5c-2.6,0.5-5.3,1.1-5.3,1.1l-1,4.9l-6.8,2.4v11.2l3.9,0.5l1.5,6.8l6.3,1v5.9l2.4,5.4l-2.4,2
		l-4.9,5.4h-10.2l-6.3,2l-13.6,4.4l0.5,4.9l3.4,4.4l4.4,5.4l2.4,9.8h5.8l6.8,2.4l8.8,6.8l-1,6.8h-5.8l-1,3.9l-9.7,4.4l-3.4,4.4
		l-3.4,6.3l-7.8,3.4l-4.9,4.4H976l-2.4,5.4l-4.4,11.2l-2.4,7.8l2.4,7.8l-0.5,8.8l1,11.2v8.8h5.4l2.4,5.4h3.9l7.3,2.4l3.4,3.4l1.5,4.9
		l5.8,0.5l3.4,5.9l-4.9,2l-0.5,3.9l-5.4,2l-6.3,6.3l-5.4,2l-1.5,12.2v6.8l-3.4,9.8l2.4,6.3l-3.4,4.9v4.9l3.9,5.4l4.4,2.9l4.4,7.3
		l-11.7-1l-2.9,6.3l-1,5.4l5.8,8.3l-3.4,4.4l3.4,10.2l-8.8,2l-2.4,5.4l-2.4,6.8l-1,2.9l-4.4,1l-1,5.4l-4.9,4.4h-6.8l-4.4,3.4l0.5,5.4
		v3.9h2.4l0.5,4.9l-4.4,1l-1.5,4.9l-5.4-2.4l-6.3,3.9l1.9,6.3l3.4,4.9l-6.3,2.4l-1,4.4l-3.4,3.4l4.4,3.4l5.4,2.9l-7.3,6.3l-5.8,0.5
		l-1.9,3.4l-8.8,4.9l-8.3,4.9l0.5,5.9l3.9,3.9l4.4,9.3l-1,5.4l-1,3.4l4.9,1l2.9,4.4l7.8,5.4l-1.5,6.8l5.4,3.4l8.8,6.3l-1.5,4.4
		l9.3,4.9l-2.9,4.9l-10.7-5.9l-3.9,2.9l-9.2-1.5l-10.2-0.5v3.9l-8.3,5.4l-2.4,6.3l-7.8,1l-4.4,5.9l4.4,9.3l8.3-2l1.5,6.8l3.9,6.8
		l7.8,5.9l3.9,7.3l3.4,0.5l4.9,3.4h10.7l6.8,3.4v3.4h-5.8l-0.5,5.4h-6.3l-13.6,2.4l-2.9,11.2l-3.9,2.9l-1.5-4.9l0.5-5.9l-8.3-5.4
		l-4.4-4.9l-2.4,6.8l-4.9,6.3l3.9,5.9l-1.5,14.1l-3.4,12.7l5.4,6.3l3.4,11.7l1.5,6.3l-4.4,6.8v16.1l4.9,3.4l1.9,7.8l3.9,5.4l-2.9,1.5
		l-7.3-3.9l-4.9,5.9l-12.7-1h-9.3l-2.4,6.3l6.3,1.5l1.9,7.3l-3.9,3.9l-3.4-0.5l-3.9,6.3l-8.8,1l-14.6-2.9l-0.5,8.3l2.9,9.8l4.4,3.9
		l5.4-0.5l3.9,4.4l4.4,4.9l1.5,4.9h4.9l4.9,3.4l3.9,2.9l-1.9,6.3l-7.3-2.9l-5.4,2l-2.4,3.9l-8.8,2.4v3.4l1.5,5.4l6.8,1.5l-0.5,5.9
		l-3.9,4.4l-7.8,2l-1.9,7.8l-2.9,3.4h-10.2l-7.8,5.4l-6.3,5.4l2.9,7.3l-1.5,5.4l-1,3.4l-6.3-3.9l-4.9,2.4l-5.8,1l-7.8,2l0.5,5.4
		l5.8,0.5l1,6.3l-3.9,2l2.4,3.9v9.3l-10.2-3.4l-6.3,0.5v3.9l4.4,1l4.4,5.9l2.4,5.9h-4.9l-2.4-3.4l-4.9,4.9l-4.4,2.4l3.4,3.9l3.9-1.5
		l0.5,7.8l4.9,8.8l-2.4,8.3l4.9,4.9l4.9,3.9l-1.9,9.3l-3.9,0.5l1.5,8.3l-4.4,5.9l-4.4,1v7.8l-2.9,2l0.5,6.3l3.4,7.3h5.8l2.4,6.8h7.3
		l2.4,4.4l-6.3,5.9l-0.5,5.9l-3.9,1l-4.4,3.4l-3.9-6.8h-7.8l-4.4,3.9l-6.8,1.5l-6.3,10.7l2.4,3.4h2.9l3.4,7.8l2.9,8.8l-8.8-1.5
		l-5.4,3.9l-3.4-5.4l-10.2-1l-3.9,6.8l-5.4-4.9l-6.3,4.9l-5.8,4.9l-8.3-8.3l5.4-7.3l-1-10.2l-7.8-3.9l-0.5-6.8l-6.8,3.9
		c0,0-1.9,8.8-4.4,8.8c-2.4,0-5.4,0.5-5.4,0.5l-1,7.3l3.9,7.3l-4.9,5.4v9.3l-1,11.2l-4.9,12.7l3.4,6.8l-6.8,5.4l-5.8,4.4l-5.8,18.5
		l5.4,5.4l3.9,9.8l-5.4,3.4l1,9.3l-7.3-4.9h-5.4l-0.5-7.3l-6.3-5.4l-5.4,8.3l-2.4,5.4l1,4.4l4.9-1.5l1.9,4.9l-3.4,3.9l-3.4-4.4
		l-4.9-2l-3.9,2.4l-0.5,8.8l6.3,0.5v6.3l-8.3-0.5l-7.3-7.8l-6.3,2l-4.9-4.4h-9.7l-5.4,7.3l-7.3,2.4l4.9,7.3l7.3-2l3.9,6.8h5.8l1,2.9
		v6.3h-2.9l-1.5,5.9l-8.3-1l-11.2,2.9l-3.9,4.4v3.9h5.4l4.9,6.8l-1.9,4.9l-3.4-2l-5.8,5.4l-10.2-2.9l-6.8,0.5l-3.9,5.4l-4.9,2
		l4.9,7.8l6.8,0.5l1.5,4.9l6.8,4.4l-0.5,4.4l-6.8-4.9l-5.4,2.9l-7.8,2.4l-5.4,1.9l-0.5,9.3l2.4,8.3l-9.2,5.9l-2.9,5.4l-5.8,1.5
		l-2.9,6.3l-7.8,5.4l-1,7.8l-4.9,4.9l2.4,6.3l5.4,1.5l9.7,6.8l3.9,4.9h8.3l5.8,7.8l11.7,5.9l5.8-2.4l5.4-3.4l11.7,2h9.7l8.3,3.4
		l4.4,2l-1,5.9l4.9,7.8l2.4,4.9l3.9,8.3l-0.5,13.2c0,0,2.1,3.3,3.4,5.3c6.6,6.3,9.5,15.8,15.2,23c3.1,3.9,6.3,7.9,10.6,10.5
		c12.3,7.7,28.3,2,41.6-3.9c14.7-6.5,29.5-13.4,41.6-24.1c7.1-6.3,13.2-13.7,18.6-21.5c19.7-28.5,31-61.7,44.7-93.5
		c13.7-31.8,30.9-63.5,58.6-84.3c6-4.5,12.5-8.5,18.3-13.2c11.3-9.2,20.3-21.4,25.6-35c18.1-46,39.5-90.9,59.3-136.1
		c9.3-21.2,18.6-42.5,29.6-62.9c13.9-25.7,30.5-50,44.4-75.8c54.2-100.7,64.1-218.3,75.4-332.1c1.1-11.3,2.3-22.7,5.4-33.6
		c7.4-26,25.2-47.6,37.1-71.8c10.3-21.2,16.1-44.6,16.9-68.1c1.8-57.6,55.4-96.2,71-151.6c3.9-14,5.4-28.8,11.6-42
		c5.6-11.9,14.6-21.7,23-31.8c58.2-70.1,90.4-163.4,78.5-253.8c-1.3-10.1-3.2-20.3-8-29.3c-4.1-7.8-10.2-14.3-16.1-20.9
		c-19.6-21.9-37.9-45.1-54.5-69.3c-15-21.9-29.2-46-29.9-72.5c-0.7-25.4,11-49.2,17.7-73.6c9.4-34,9.3-70.5-0.3-104.5
		c-5.4-19.3-14-38.3-13.3-58.3c0.6-17.8,8.3-34.5,15.9-50.6c11-23.4,22.3-47.1,39.3-66.5c17-19.4,40.9-34.4,66.8-34.7
		c2.9,0,4.9-2.8,6.9-4.8c0.7-0.7,2.3-1.5,3.3-1.2c3.6-1.8,6.6-4.7,8.5-8.3c1.1-2,1.8-4.3,3.4-5.9c1.2-1.1,2.8-1.8,4.1-2.8
		c4.2-3.4,4.1-9.9,7.3-14.1c2.6-3.4,6.8-5,10.4-7.2c4.2-2.7,8.1-6.7,10.4-11.1l2-5.4h3.9l1.5-8.3l-5.8-2.9l-1.9-7.3l1.5-3.4l7.3,4.4
		l13.6-13.2v-6.8l-2.9-7.3l-8.3,3.9l-2.9-3.9l4.9-9.3l-9.3-4.4l-5.4-10.7l-4.4-6.8l0.5-11.2l-5.8-3.4l-4.4,5.4l-9.3,6.8l-0.5,6.8
		l-7.3,2l-7.3-1.5l-3.9-6.3l6.3-1.5l4.9-6.3l-1.9-8.3l-6.8-5.4l-4.9,6.8l-7.3,2.9l-3.9,8.8l-6.8,5.4l1-6.8l3.9-4.9v-10.7l-0.5-11.7
		l-4.4-8.3l4.9-4.4h5.4l3.4-5.4l-5.4-7.8l-6.3-3.4l-5.8-7.3l-7.3-4.9l-6.3,2l-1.9-8.3l7.8-8.8l4.9-4.9l-7.3-6.3l-13.6-3.9l-5.8,7.3
		l-7.3,2.4l-2.9,6.3l-4.4,4.9l-2.4,7.3l1,10.2l-1.5,9.3l-5.8-0.5l-5.4,3.9l-4.4,6.3l1.5,11.7l-5.8-1.5l-2.9-4.4l2.9-9.3l-5.4-3.9
		h-9.3l-5.4,5.9l0.5,7.8l-0.5,15.1l-4.9,2l-1-7.8l-9.3-5.9l-3.4-6.3l-7.8,3.9l-6.8,4.4l-5.8,7.3l2.4,6.8l-5.8,6.3l-1.9,6.3l-8.8-2.4
		l-4.9,6.3l-3.4-7.8c0,0-1.9-8.8,0-8.8c1.9,0,8.8-0.5,8.8-0.5l3.4-12.2l-0.5-11.2l4.9-2.4l0.5-10.7l6.8-7.3l8.8-6.8l2.4-7.3l1.9-9.8
		l-2.4-8.3l-5.8,0.5l-4.9,13.2h-5.4l-5.4-4.9l5.8-5.4l-1.5-7.3l-5.8-4.9l0.5-7.3l8.8-10.2l4.9-2.4v-10.2l0.5-8.8l-4.9-5.9l-1.9-10.2
		l-8.3-3.4v-7.3l3.9-2l3.9-7.8l1.5,3.4v6.8h5.4l4.4,2l5.4-2.9l3.9-2.9l-4.9-11.2l-4.9-6.8l5.4-5.9l-6.3-10.2l-9.7-8.3l-4.9-6.3
		l-5.4-4.9l-5.4,5.9l-5.8,0.5l-3.4,5.9l-3.9-5.9l-11.7,0.5l-1.9,7.3l-8.8-3.9h-11.2l-7.3,4.4l2.9,6.8l-5.4,4.4l-4.9-2.9l-5.4,3.9
		h-5.8l-3.4,3.4l-8.3,3.4l-3.9,4.9l-3.4,4.9l3.9,6.8l4.9-0.5l2.4,3.9v4.4l-4.9-3.9l-4.4,2.9c0,0,1.5,6.8-0.5,6.8
		c-1.9,0-9.3-2.4-9.3-2.4l-2.4,5.4l1.9,7.3l8.8,1.5v6.8l2.9,2.9l5.8,7.8l-4.9,2.9l7.3,6.3l4.4,6.3l-0.5,6.8l1.5,3.4l2.9,7.8l7.8,5.4
		l4.4,9.3l2.4,2.9l12.7,10.2l6.8,3.4l-2.4,5.9l-6.3,4.4l-0.5,9.8l4.9,5.9l0.5,9.3l3.9,2.9l5.4,8.8l-2.4,6.8l-5.8,4.9v5.9l-4.4,2.9
		l-0.5,13.7l-4.9,2.9l3.9,12.7l0.5,12.2h-3.4l-6.3-2l-4.4,5.9l-9.7,5.4l-1.9-11.7l-5.8-3.4l3.4-12.7l-5.8-13.2l-2.4-11.7v-11.7
		l-8.3-5.9l-4.4,2.9l-1.5,17.6l4.4,9.3v15.1l-18.5-4.4l-1.9-12.2l-5.8-4.9l0.5-14.1l-2.4-16.6l-7.3-6.8l-5.4,4.9l-3.4-6.8l-5.4-2.4
		l1.9-8.8v-15.1l-3.4-7.3l-7.3,7.8l-2.4,12.2l4.4,4.4l-2.9,8.8l-1,10.2l3.9,3.4l5.4,8.8l7.8,7.8l5.4,2.9l4.9,8.8l-1.9,7.8l3.9,7.8
		l-4.4,10.2l-2.4,4.9l-9.2-2.9l-7.8,2.4l-3.9-9.8l-7.8-10.7l2.9-8.8l-10.2-8.3l-5.4-7.8l-5.4-3.4v-15.1l-7.8-10.2l-6.8-22l1.9-20
		l-2.9-11.2l5.8-11.7l-0.5-11.2l-0.5-15.6l1.9-4.4l3.9-13.2l-4.4-7.3l2-9.8l1.9-22.4l-0.5-11.2l-6.8-7.3l0.5-12.2l-2.4-10.7l-6.3-7.8
		l-11.2-5.9l-4.4,6.8l-9.2,4.4l4.9,10.2l7.3,11.7l-7.3,6.3v8.8l-3.4,12.2l5.4,8.3l-5.8,13.2l4.4,9.3l1.5,11.2l6.8,5.4l2.9,6.8
		l-1.9,10.2v8.8l-0.5,9.8v8.3l-3.4,20l-4.9,2.9l-2.4,10.2l-4.4,3.9l1.5,8.3l7.3,6.3l2.9,12.7v19l-0.5,10.2l6.8,5.4l0.5,7.3l7.8,11.7
		l5.8,3.4l4.9,2.9l6.3,5.4l4.4,7.3l-6.8,2l-2.9,5.4l-3.9,7.8l6.3,2.9l5.8,9.8l2.9,2.9l4.4,8.8l3.9-2.4l4.4,3.4l4.9,6.8l-2.9,2.9
		l4.4,2.9l3.4,4.4l6.8,17.1l-6.8,3.4l1,7.3l-2.4,15.6l0.5,12.7l-2.4,6.8l1,3.9l9.3-0.5l6.8,8.3l10.7,6.8l11.7,2.9l3.9,4.9l9.3,3.9
		v3.9l-4.4,6.3l-7.8-3.4h-3.9l-8.8-3.9l-3.4-4.9h-12.2l-2.4-5.4l-4.4-2h-17l-2.9,6.3l-6.3,0.5l-3.4,6.3l1,6.3l-6.8,8.3l4.9,12.2
		l-10.2,2l-4.9-10.2l4.4-3.9V2138l-5.4-3.9l0.5-10.2l11.7-3.9l-1-13.2l-4.9-11.2l-7.3-2v-6.3l10.2,1.5l1.5-3.4l-4.4-6.8l-11.2-10.2
		l-7.8,7.3l-9.7,14.6l-4.9,8.3l-4.4,3.4l1,8.3l1.9,10.7l-3.9,5.9l1,8.8l-1.5,24.9l-5.8,1.5l-2.9,11.7l-5.8-2.9l1-7.3l-1.9-2.9
		l-6.3,5.4l-8.8,5.4l-0.5,5.9l-1.9,5.9l4.4,5.9l2.9,4.9l5.4-2.9l4.4,3.4v5.9l1.5,5.4h-6.8l-3.4,5.9l-5.8-2.9l-4.4,2.9l1.5,7.3
		l5.4,0.5l1,4.4l-1,10.2l1.5,10.7l-1.9,6.3l3.4,4.4l3.4,5.4l2.9,11.7l1.5,5.4l6.3,0.5l2.4-3.9l6.8,0.5l2.4-5.4l-2.4-8.3l3.4-3.9
		l2.4-3.4l-1-8.3l4.4-2.9l3.4-4.4l3.9,4.4l-3.4,3.4l-1,7.8l3.9,4.4l1.5,4.9l1,8.8l4.9,2.4l4.4,6.3l-3.4,0.5l-4.9,5.9l4.4,7.8l5.4,2.9
		l3.9,4.4l4.9-4.9l-1-4.9l6.8-4.4l3.4-5.4l-4.4-9.8l3.9-2.4l2.4-8.3l2.9-8.8l0.5-7.3l4.9-7.3l3.4,6.3l-1.9,10.7l2.9,12.2l1,4.9
		l9.7,8.8c0,0-3.9,3.4-1,7.3c2.9,3.9,8.3,12.2,8.3,12.2l5.8,5.4l-2.9,8.3l-4.9,3.9l0.5,4.9l-10.2,4.9l-5.8-7.8l-5.8-3.9l-4.9-8.8
		l-4.9,5.4l-3.9,4.4l4.9,7.3l-2.9,5.9l1,7.3l4.4,7.8l-1.9,3.9l-3.9-3.4l-4.9,0.5l-9.7-3.9l-6.3-6.8l-7.8-2l-2.4-7.3l-5.8-5.4
		l-2.9-9.8l-3.9-7.8l-5.8,7.3l-5.4-0.5l-4.4,2.9l-8.8-0.5l-5.4,3.4l-4.4,8.3l2.9,5.9l-3.4,4.4l7.3,7.3v11.2l-4.9,9.8l2.9,9.3l6.3,8.8
		l3.9,3.9l2.4,9.3l8.8,7.3l1.9,7.3l2.9,5.9l9.7,5.4l7.3,3.9l4.4-6.8h6.8l-4.4-9.8l-1-9.8l1.5-10.2l4.4-1l-0.5,8.8l6.8,6.8l5.4,3.9
		l5.8,0.5l3.4,5.4l4.9,2l5.8,7.3l-3.9,3.4l-10.2-1.5l-5.8,5.9l-8.3,2.4l-5.8,5.4l0.5,5.4l5.8,1l2.9,4.9l15.1-2l3.9,1.5v5.9h7.3
		l2.4,4.4l-9.2,1.5l-2.4,2.9l-6.8,1l-3.9,2.9l-7.8,0.5l-7.3,2.4l-3.4,4.9l-3.4,3.9l7.3,6.3l5.4-4.9l6.8,1l5.4-4.4h5.8l3.4,2l2.9-5.4
		l12.2-2.9l7.8-3.4l-2.4,5.4l-8.3,1v2.4c0,2.4-5.8,4.9-5.8,4.9l-4.9,2l-2.9,2.9l-6.3-2.4l-5.8,4.9l-1.5,6.3v9.3l-5.4,2.9l-2.4,4.4
		l-9.7-1.5l-2.4,4.4l2.4,5.9l6.3,4.9l2.4-4.9h8.8l0.5,4.9h-8.3l0.5,5.4c0,0-3.9-0.5-3.9,1.5c0,2-0.5,0,1,4.4c1,3,2.2,5.9,3.4,8.8
		l1.5,5.9l2.9,3.4l3.9-2.9l9.2,2.9l7.8-1.5l-3.9,3.9l-5.4,4.4h-3.9v6.3l5.4,4.4l-3.9,5.4l-3.4,2.9l2.4,4.9l3.4,4.4l6.3,1l6.8,5.4
		h-9.2l-1,4.4l-6.3,1l-0.5,6.3l1.9,6.8l7.3,8.3l3.4-3.9l7.8,2.4l3.9-3.4l5.4,2.4l4.9,5.9l-8.8,6.3l-5.8,3.4l4.9,4.4l1,3.9l2.4,3.9
		l4.4-2.9l7.8,3.9l10.2-0.5l7.3-0.5l4.4,4.9l-3.4,3.9l1.5,3.9l6.8,2v4.9l-5.4,1.5l-1,3.9l-6.8,2.4l-4.4,2l-3.4,5.4l-7.8,0.5l-2.4,6.3
		l-1,4.9v5.4l-4.9,1.5l-3.4,2.9l-0.5,4.4l3.4,3.9l5.8-2.4l2.9,2l6.8-2.9l8.8-5.4l2.9-5.9l4.4-2.9l3.9,6.8l7.3,3.4l4.9,3.4l6.8-3.9
		l3.9,4.4l8.3,2.4l2.9-2.9l6.3,1.5l8.3-2l3.4,2.4l-7.3,4.4l-1,4.9l-10.2,9.8l-5.4,7.8l-5.4,6.3l-6.8,5.4l-0.5,4.9h-8.8l-1,6.3
		l-2.4,16.1v7.8l-4.9,6.8l1.5,6.8l-2.9,7.8l-4.4,7.3l-7.3-2.9l-7.3,1l-8.8-3.9l-4.4,6.3l-10.2,4.4l-1.9,3.4l0.5,5.9l-7.8,6.3
		l-4.4,4.4C1026.1,2836.6,1024,2837,1021.7,2837.5z"/>
	<path id="central" class="st0" d="M1677.2,2093.7c1.8,0.4,3.8,0.9,3.8,0.9l2.9,4.9l3.4-1.5l-1.9-7.8l-2.9-2.9l-3.4-3.9v-6.3h-4.9l-4.9-5.9
		l6.3-2.9l2.9-4.4l9.7,0.5l7.3,2.4l2.4,3.4l4.4-3.9l8.3,4.4l-1.9,5.9v9.8h-4.9l0.5,4.4l6.8,2.4l3.4-3.9l4.4-1l6.8-6.8l2.9,1l3.9,12.2
		l1.5,7.3l-2.9,2.4v4.4l-4.4,0.5l-2.4,10.7h5.8l8.3,4.9l3.4-8.3l2.4-8.3l5.4-11.2l-7.8-5.9l-2.4-5.4l4.4-6.3v-7.8l-4.9-7.3v-8.3
		l-1-9.3l-3.9-5.9l1.5-13.7l-2.9-6.3l1.5-6.8l-4.9-4.9l-4.9-5.4l-2.4,2l-3.9-3.4l2.9-4.4l1.5-6.3l6.3-4.4l4.9-3.4l4.4,2.9l4.4-2.4
		l-0.5-9.3l1.9-3.9l-4.4-6.8l-3.9,2.4l-10.2-5.4l-3.4,2l-5.8-5.9l-0.5-4.9l5.4-4.9v-6.8l5.4-6.3l3.4-8.3l-3.4-7.8l-5.4-3.4l3.4-7.8
		l3.4-4.4l1.9-9.8l10.2-3.4l-3.4-6.3l-7.3-2.9l-2.9-8.3l6.3-7.8l-1.5-8.8l7.8-5.9l2.4-7.8l1-2.4l5.8-2.9l2.4-8.8h4.9l3.9,9.8l2.9,5.4
		l1.9-6.3l-1.9-6.3l-2.9-6.3l-5.4-5.9v-9.8l-4.4-7.8l2.9-4.9l2.9-9.3l10.2,2l9.3,4.9l2.9-4.9l3.9-9.3l-4.4-9.8l5.8-6.3l6.8,5.4
		l3.9,8.3l8.8,4.4l3.4,8.8l-4.4,5.9l1,6.8l5.4-4.4l5.8-8.3v-11.7l0.5-7.8l3.9-2v-9.8l4.4-8.3l7.3-4.9v-7.3l6.8-4.9l-1.9-5.4h-5.8
		l-1.5,3.4l-3.4,4.4l-6.3,0.5l-1.9-7.3l-6.3-4.4l-1.5-7.8l10.7-13.2h5.4l-0.5-7.3l7.3-7.3l-5.4-4.9h-9.2v4.4l-3.9,0.5l-5.8-9.8v-7.3
		l1.5-8.8l5.8-3.9l6.3-5.9l4.9-4.9l-1.5-8.3l6.3-2l-3.9-12.7l-1-5.4l-4.9-1.5l0.5-5.4l9.7-3.4l8.3-1l8.3-2.4l5.4-6.8l4.9-8.3
		l10.7-6.3l6.3-7.3l1.5-4.9l3.9-4.4l2.9-6.3l13.1-4.9l3.9-10.2l9.2,1l0.5,9.8l-1.5,9.8l-9.3,7.8l-5.4,3.9l-10.7,20.5h-12.2l-0.5,6.8
		l-12.2,7.8l-1.5,8.3l-7.3-0.5l3.4,7.3l6.8,2.4l4.9-4.4l5.8-2.9l7.8-2l6.3-6.3l4.9-3.4l4.4,2.4l3.9-3.4l5.4-6.3h5.4l4.4-4.4l3.9-2.9
		l10.2,1l10.2-3.9l13.1,2.9l10.2-9.8l5.4,4.4l7.3,10.7l-3.9,4.4l-5.8,8.3h-10.2l-1.9,5.9l-7.3,4.9l-5.4,7.8l-6.8,1.5l4.4,5.4h4.9
		l4.9-4.9l3.9-3.4l5.4-2l5.4-5.4l6.3-1l6.8-5.4l10.2,3.9l4.4,5.4l-7.8,3.9l-4.4,5.4l-5.8-2l-6.3,2l-2.9,5.9l-4.9-3.9l-4.9,5.4
		c0,0,4.9,1,5.8,2.9c1,2,5.8,0,5.8,0l2.9-4.4l8.8,2v6.3l-3.4,2.4l-5.4,10.7l-5.4,4.4l-3.9,4.9h-4.9l1.9,5.9l6.3,6.8l4.9,2l3.9,6.8
		l5.8,0.5l1.5,7.3l-4.4,0.5l-0.5,4.9l-6.3,5.4l-5.4,3.9l6.8,4.4l0.5,7.3l-4.9,2.9l-1.9,3.4l-4.9,4.9l-2.4-3.9l-5.4,3.9l6.3,4.9l5.8,1
		l-1.9,4.4l-0.5,5.9l-3.9,5.9v6.3l-8.3,4.9l-4.9-2.4l-5.4,4.9l-0.5,4.9l5.4,2.9l3.9,3.9l4.9,8.3l-5.4,7.3l3.9,3.4v14.6l-6.8,6.3
		l-0.5,4.9l-6.3-1.5l-12.2,7.3l-2.9,4.9l-6.8,1l-7.3,4.4l-7.8-1.5l-1,4.4l-12.2,2.9l-7.8,2.4l-4.4-1.5l-2.4,7.3l-5.8,1.9l-1.5,5.9
		l3.4,1l2.9-3.4l5.8,1l2.9-3.4l8.3-6.3l2.9-2.9l11.7-1l5.8-1h8.3l9.3,2.9l6.8-4.4l2.9,6.3l-3.4,5.4l-6.3,3.4l1.5,6.3l-6.8,4.4l-1,7.3
		l-5.8,0.5l1.9,5.9l-0.5,8.3l-4.9,2.9l2.9,2.9l3.9-0.5l2.9-7.3h4.4l0.5-5.9l4.9-4.9h7.3l2.9,5.9l-4.4,3.9l1.9,3.4l-3.9,5.4l-5.8,3.9
		l-1.9,7.3l-5.8,0.5l2.4,6.8l0.5,5.4l-4.9,2.9l-0.5,5.9l3.9-1l7.3-3.9l4.4,5.9l4.9,5.4l-8.3,8.3l-4.9,2.9l-7.8-3.4l2.9,8.3l10.7,2
		l10.2,1.5l5.4,6.8l-5.8,4.4l-6.3,6.3l-6.3,4.9l3.9,2.9l5.4-4.4l6.8-2l7.3-6.8l-0.5,6.3l0.5,7.8l-8.8,7.8l-11.2-0.5l-6.8-0.5
		l-13.6,1.5l-6.8-1.5l-2.4,4.4l7.3,2.9l5.4,8.3l9.7,4.4l4.9,4.9c0,0-3.4,7.3-5.8,8.8c-2.4,1.5-4.4-2.9-4.4-2.9l-8.3,2l-3.4,8.8
		l-6.8,4.9l7.8,3.4l4.4-4.4h3.9l1.9,6.3l-3.4,7.3l-9.2,2l-12.2,4.9l-8.8-3.4l-5.8,3.4l-10.2-7.8l-2.9-9.3l-7.8-2.4l1,10.7l-1.5,6.3
		l-5.4,10.7l-7.8,0.5v8.8l-7.3-1l0.5-11.7l4.4-10.7v-17.1l4.9-2.9v-11.7h-4.9l-4.4,11.2l-3.9,4.4l3.4,6.8l-5.8,6.3l-6.3,2.4l-4.9-3.9
		l-7.3,2l-3.4,7.3l3.9,8.8l3.4,6.8l-5.4,7.3v5.4l-4.4,6.3l-8.3,4.9l-0.5,3.4l-4.4,8.3l-10.7,5.4l-2.9,8.3l6.8,5.9l-1,10.7l-6.8,3.9
		l-5.8-6.3l-3.4,7.8l6.3,5.4l0.5,6.8l-8.8-0.5l-10.2,2l-1.5,9.3l-7.3-3.9l-3.4,5.4l4.4,3.4l4.9,2.9l8.3-1l7.3-0.5l1.9,8.3l2.4,12.7
		l12.7,4.4l-2.4,4.4l-7.3,5.9l-9.2,6.8l-0.5,5.4l-9.2-2l-3.4,7.8l-6.8-1.9l1.5-2.4l-1.9-6.8l-3.4-5.9l-5.8-2.4v5.9l-4.4,7.8l5.8,10.7
		l-2.9,6.8l-4.4,9.8l-4.4,13.2l-7.8,2.9l4.4,10.7l-4.4,24.9l1.9,9.8l-6.3,4.9l3.4,8.3l2.9,5.4l8.8-2.9l6.8,8.8l-4.4,1l2.9,5.4
		l-2.9,6.8l-2.4,7.3l-1.5,9.3l-5.4,8.8l-8.8,3.4l-9.7-6.3l-3.9,7.8l-6.3,7.3l7.3,6.8l-4.4,7.3l-8.8,2.4l-2.9,4.9l-13.1-11.2
		l-6.3-14.6l-15.6-6.8l-7.3-1.5l-1.5-5.4l-5.4-2l1,13.2l11.7,5.9l17.5,16.1l6.3,9.8l3.9,7.3l-9.7,11.7l-9.7,5.9l2.4,9.3l-7.3,5.4
		l-1,19l-7.3,10.7h-10.2l-15.1,9.3l-10.2,5.4v15.6l-6.3,11.7l-7.8,8.3l-9.7,5.4l-9.7-3.4l-5.8-1.9l-6.8,3.4l0.5,8.3l2.9,3.9l15.1-4.9
		l5.8,3.9l13.6,4.4l3.4-7.3l6.3-7.8l1-11.7l8.3-3.4l2-9.3l5.4-9.8l4.9-7.8l8.8-2.9l8.8-2l3.4-6.3l6.3-6.8l9.3-4.4l-0.5,9.8l0.5,9.3
		l-8.3,6.3l-2.4,8.8l-5.8,4.9l1.5,9.3l-2.9,9.3l-5.8,3.4v15.6l-9.7,5.9v10.2l-7.8,4.9l2.4,10.2l14.6,9.8l6.8,5.9l-2.4,7.3h-5.4
		l0.5,4.9l8.3,2l6.8,9.3l-12.7,7.3l-1,4.4l-5.4,2v9.3l-8.8,1l-4.4,5.4l-8.8-2l1.9,10.2l11.2-0.5l3.9-6.8h7.8l-1.5,11.2l0.5,7.8
		l-3.9,6.8l-9.3,3.9l-10.7,2l-2.4,6.3l-5.4-0.5l-1,6.3l-2.9,6.8l-8.3,2.9l7.8,2l5.8,4.4l-1,14.6l-2.4,11.7l3.9,3.9l-2.9,7.3l-4.4,1.5
		v5.9l1.9,5.4l7.8-1v-7.3l4.4-9.8l-4.4-6.8v-14.1h2.4l2.9-8.8l4.4-5.9l-4.9-3.4l-1-7.8l5.4-7.3l4.9,6.3l4.9,5.9v18.1l-5.8,4.4
		l-2.9,11.2l1.9,13.2l6.8,11.7l-13.6,20.5l2.4,2l-0.5,12.7l2.4,9.3l2.4,5.4l-4.4,1.5l-1.9,4.9l-2.4,4.4l3.4,6.3l-2.4,8.8l-3.4,1
		l-2.4,5.9l-1.5,9.8l4.4,6.8l-3.9,10.2l-2.9,10.2l-2.4,7.8l-6.3,4.4l4.9,2.4l5.4,6.3v9.8l-4.4,2l-3.4,3.4v5.9l4.4,2.9l1,5.9l-4.4,4.4
		l2.9,7.3l0.5,10.7l-2.9,11.2l-6.8,8.8l3.9,3.9l1,6.3l9.3,2.4l3.9,9.3l-3.4,3.9l-7.3,2h-6.8l-1.9,3.4l5.8,3.4l4.4,9.8l1,7.3l-7.8,1
		l-1.9,7.3l-5.4,2.4l2.9,9.8v11.7l-6.3,2l-1,12.7l-4.4,0.5l0.5,6.8l5.4,7.8l4.4,2.4l1.5,4.9h7.8l8.8-8.3l5.8,1.5v5.9l-6.8,5.9
		l-6.3,2.9l5.4,5.4c0,0,9.2-3.9,9.2-5.9c0-2,4.4-3.9,4.4-3.9l13.2-13.2h5.4l6.8,4.9l-1,4.9l-6.8,11.2l3.9,5.9l-2.9,7.8l-8.3,7.8
		l-7.3-2.4l-1-4.4l-4.4,2l4.9,6.8l-0.5,7.8l4.4,3.4l2.9,5.4l-1,7.8l-8.3,6.8l-0.5,7.8l-3.9-1.5l-8.8-5.4l-3.9,4.4l-11.7,0.5l-4.4,4.9
		l-8.8-3.9l-12.7-0.5l-1.9,3.9l-8.8,3.4l0.5,4.9l4.9,1l2.9,6.3l4.9,2.9l5.4,9.3l-4.9,15.6l-3.9,5.9l-9.7,5.4l-7.3,5.9l-15.6,15.6
		l-14.1,2.4l-9.7,7.8l4.4,5.9l-4.9,7.3l-4.9-1l-6.8-3.4l-4.9,7.3l1.5,6.8l11.2,7.8l-11.7,10.2l-10.2-2l-4.9-3.9l-4.9,3.4l-3.9,6.3
		l-7.8,10.7l1.5,6.3l5.8,4.4l0.5,9.8l-6.3,7.8l-7.8,2l1,7.8l-7.8,7.3l-5.4,7.8l-7.3-1.5l-1.9,7.3l-9.2,3.9l-6.8-1l-1,5.4l5.8,1.5
		l4.9,2.4h12.7l2.4-3.4l8.3-2l3.4-6.3l5.8-2.4l3.4,5.9l6.3,1.5l2.9,11.2l-4.4,8.3l-7.8,3.9l-2,7.3l-5.4,7.8l-11.7,3.4l-5.8-1.5
		l-8.3-1.5l-4.9,4.4l-11.7,2.4l1.9,8.3l6.8-3.9l10.7,2.9l-1,11.2h-4.9l-4.9,4.9l-1,9.8l-3.4,9.8l7.8,11.7l8.3-8.8l7.8-13.7l8.8-9.3
		l7.8-12.2l8.3-10.2l8.3-5.4l15.1-1l7.8-10.2l4.9-1.5l5.8,7.8l9.2,8.8l10.2,2.4l5.8,13.2l-6.8,9.8l-3.9,12.7l4.9,5.9l0.5,11.7
		l-13.6,15.6l-5.8,14.1l-6.8,0.5l-6.3,14.6l-9.2,10.2l2.4,10.7l-10.7,10.7l-7.3,9.3h-7.3l-9.7,8.3l2.4,11.7l-1.9,33.7l-4.9,14.1
		l-7.8,4.4l-0.5,14.1l-4.9,17.1l-5.8,8.8l-9.7,4.4l1.5,13.2l6.8,7.3l4.9-10.2l8.3-9.8l2.4-12.7l8.3-3.4l7.8-8.8l8.8,2.4l4.4,8.3
		l-5.4,6.3l-10.2,8.8l-8.8,18.5l-3.9,10.7l3.4,9.3l-9.2,13.7l4.9,4.9v19l-1,9.3l-6.8,1l-8.8,3.9l-4.9,6.3l-7.8,1l-6.3,5.9l-4.4-1
		l-7.3,8.3l4.9,9.8l-1.5,7.3l-2.9,6.3l7.8,3.9l8.8,9.8c0,0,0.2,0.2,0.3,0.4c-5.2,10.8-9.4,21.4-18.1,30.8
		c-12.3,13.4-27.7,23.7-40.1,37c-38.3,41.3-41.1,105.7-75.8,150c-17.1,21.8-40.8,37.3-62.8,54.2c-60,46.1-109.7,105.6-144.5,172.8
		c-9.3,18-18.6,37.6-36.1,47.8c-10.1,5.9-22.3,8.1-31.1,15.7c-5.6,4.8-9.5,11.4-13.2,17.8c-5.2,8.9-27.8,39.3-32.4,57.3
		c-2.6,2.4-4.8,4.4-4.8,4.4l-12.7,11.7l-8.8,11.7l1,11.7l1.9,9.8l-3.9,4.9l-11.7-2v11.7l-5.8,17.6l-5.8-2l-9.7-4.9l-9.7,7.8l6.8,11.7
		l3.9,11.7l-2.9,16.6h-8.8l-7.8,6.8l16.6,3.9l-4.9,8.8H881l-2.9,7.8l8.8,10.7l3.9,17.6l-10.7,13.7l-11.7,8.8h-17.5l-10.7-1.9
		l-2.9,6.8l8.8,14.6v19.5l-8.8,12.7l-9.7,9.8l-8.8,8.8l-9.7-3.9l-1.9-6.8l-4.9,2.9l-1.9,10.7l-9.7,8.8l-5.8-3.9v-4.4l-10.2-2
		l-1.9-7.3h-6.8l-2.4,5.4l-8.8-2l-4.4,5.9l2.4,5.4l-7.3,4.4l-10.1,5.4l-10.1,8.2l-1.3,1.1l-2.4,2.3l-1.7,0.6l-11,2.7l-10.4,2.1
		l-7.3-2.5l-11-2.6l-9-3.5l-10.7-2.9l-8.6-2.3l-1.5-0.1l-5.4-1.6l-9.9-11.6l2.1-4.5l-4.1-0.8l-8.3,1.2l-4.1,4.5l-18.2,7.4l-3.7,3.3
		l-0.8-6.6l2.5-2.9l-2.9-26.4c0,0,3.7,0.4,3.7-2.9c0-3.3-1.2-16.1-1.2-16.1l5.8-14.9l5-1.7l4.5-12.8l-2.9-14l-14.5-1.7l-3.3,3.3
		l-15.7,0.8l-8.7-12.4l-20.6-11.1h-8.3l-4.5-13.2l-3.7-0.8l2.9-11.6l5-1.7l5-16.5l-9.5-2.1l-4.5-9.1l-11.3-1.4l-1.9-0.1l-7.7,3.8
		l-8.9,0.2l-2.3-0.7l-6.2,2.2l-8.1,1.5l-3.7,5.1l-1.6,0.9l-10.9,3.7l-1.7,0.2l-8.3-1.5l-12.5-1.3l-12-2l-12-2.5l-4.1-9.1l-12-3.7
		l0.8-2.5l-7.8-6.6l-15.3-0.4l-8.3-7l0.4-4.5l-9.1-8.7l-7.8-0.8l-2.5,5.8l-8.3-0.8l-2.5-3.3H340l-6.2-7.4h2.9l1.2-14.5l-6.6-3.3
		l-4.5-5l-14-5l-0.8-5.4l-12-6.2l3.7-2.1l1.6-7.4l6.6-1.7l-0.8-5.4l-6.2-2.5l-5-9.1v-6.6l-3.7-4.1l5-3.7l-6.6-2.5l-0.4-5.4l-8.3-0.4
		l-4.5,2.9l-10.3-0.8l-6.3,5.5l-2.5-3.5l-6.3-17.6l9.2-3.4h10.7l2.4-7.8l5.8-2l11.2,0.5v-9.8l-5.4-0.5l-1-6.8l-7.8-2.4l-1.5-7.8
		l8.3-5.9l6.3-4.9l8.3,3.4l-0.5-4.4l-6.3-2l6.3-8.3h13.6l3.9,4.4h6.3l1.5-4.9l7.3-1.5l-4.9-7.8l-4.4-4.4l-6.8-1.5l-6.3-6.3h-2.9
		l-2.9-7.8l-1-12.7l4.4-8.3l11.2,0.5h12.2l5.4-7.3l13.1-2.4l5.4-6.8l14.6-2l9.7-8.8l5.8-1l4.9,14.1l6.8,8.8l7.3,9.3l10.7-0.5l6.8-5.4
		l10.7,3.4l5.8-7.3h6.8l5.8,5.9l5.8,10.2l-3.4,8.3l4.4,6.3l5.8,6.3h4.9l1.9-9.3v-5.9l5.4-2.4l1-7.3l9.7-6.3l4.9-6.3l8.8,2.9l2.9-5.9
		l-8.3-5.9l-7.3-4.9h-7.3l-1.9-7.3l-8.3-3.9l-0.5-7.3l8.3-2l2.9-1l10.2-2l0.5-2.9l-1.5-2.4l-6.8,2.9l-7.3-2.9h-5.8l-1.5-3.4l-0.5-3.9
		l-8.3-2.4l-1.9-5.9l-0.5-4.4l9.3,1l8.3-5.4l8.8-2l2.9-6.3l7.3-0.5l1.9-7.3l7.8-2.4l-0.5-6.3l-7.8-5.9l-9.7,1.5l-3.4-11.2l5.8-9.3
		l16.6-3.4l14.6-11.2l4.4-4.9l14.1,1.5l5.4-7.3l11.2,3.4l12.7,2.4l17.5-4.4l7.8-3.4l10.7,3.9l9.2,7.8l1.9,15.1
		c9.6,8.1,15.6,19.4,23.4,29.3c3.1,3.9,6.3,7.9,10.6,10.5c12.3,7.7,28.3,2,41.6-3.9c14.7-6.5,29.5-13.4,41.6-24.1
		c7.1-6.3,13.2-13.7,18.6-21.5c19.7-28.5,31-61.7,44.7-93.5c13.7-31.8,30.9-63.5,58.6-84.3c6-4.5,12.5-8.5,18.3-13.2
		c11.3-9.2,20.3-21.4,25.6-35c18.1-46,39.5-90.9,59.3-136.1c9.3-21.2,18.6-42.5,29.6-62.9c13.9-25.7,30.5-50,44.4-75.8
		c54.2-100.7,64.1-218.3,75.4-332.1c1.1-11.3,2.3-22.7,5.4-33.6c7.4-26,25.2-47.6,37.1-71.8c10.3-21.2,16.1-44.6,16.9-68.1
		c1.8-57.6,55.4-96.2,71-151.6c3.9-14,5.4-28.8,11.6-42c5.6-11.9,14.6-21.7,23-31.8c58.2-70.1,90.4-163.4,78.5-253.8
		c-1.3-10.1-3.2-20.3-8-29.3c-4.1-7.8-10.2-14.3-16.1-20.9c-19.6-21.9-37.9-45.1-54.5-69.3c-15-21.9-29.2-46-29.9-72.5
		c-0.7-25.4,11-49.2,17.7-73.6c9.4-34,9.3-70.5-0.3-104.5c-5.4-19.3-14-38.3-13.3-58.3c0.6-17.8,8.3-34.5,15.9-50.6
		c11-23.4,22.3-47.1,39.3-66.5c17-19.4,40.9-34.4,66.8-34.7c2.9,0,4.9-2.8,6.9-4.8c0.7-0.7,2.3-1.5,3.3-1.2c3.6-1.8,6.6-4.7,8.5-8.3
		c1.1-2,1.8-4.3,3.4-5.9c1.2-1.1,2.8-1.8,4.1-2.8c4.2-3.4,4.1-9.9,7.3-14.1c2.6-3.4,6.8-5,10.4-7.2c4.2-2.7,8.1-6.7,10.4-11.1
		l3.4,4.4l5.4-5.9l7.3-5.4l6.3,5.9l13.1-5.9l1.5,2.9l6.8-5.9l3.9-8.8l8.8-9.8l4.9-0.5v-5.9l4.4-7.3v-8.3l5.8-4.9v-6.8l0.5-7.8
		l3.4-4.4l0.5-5.4l3.9-3.9l-1-12.2v-5.4l5.4-2l-1.9-6.8l4.9-6.3l2.9,5.9l4.9,4.4l-1.5,5.9h3.4l3.9,4.9l3.9-3.9l6.3-4.4l6.3,0.5
		l1.5,5.4l3.4,3.9v7.8l-3.4,4.9v4.9l-5.8,1.5l-0.5,3.9l-9.7-0.5l-4.9,3.4l-1,13.7l3.4,3.9h8.3l2.4,4.4l-6.3,6.8l-13.1,0.5l-1.5,6.3
		l-7.8,0.5l4.4,7.8l3.9-2.4l9.7,2.4l9.3,4.4l5.8-8.3l7.3,3.9l7.8,4.9l0.5,7.3l2.9,6.8l5.8-2.9l7.8-7.3l8.3-1.5l4.4,7.3l-0.5,11.7
		l6.3,4.4l1.9,13.7l-6.8,5.9l-1,8.3l-6.8,5.9l2,10.2l-4.4,6.8l-2.9,7.8v7.8l-7.1,7.3l-5.6,9.3l-0.3,9.4l-6.2,11.3l2.8,3.2l5.4-2.5
		l5-10.7l1.9-7l2.8-5.7l5.8-2.9l0.5-7.8l0.5-4.9l3.9-6.3v-6.3l1.9-3.4l5.4-2.4l1-7.8l4.9-1.5l0.5,8.8l8.8,6.8l-2.9,10.7l4.4-0.5
		l4.9-4.4l4.4-3.4l-4.9-7.8v-4.9l5.8-2.9l1-6.8l6.3-2.9l2.9-8.3l3.9,1.5l2.4,8.3l-1,8.8l-5.8,6.3v4.4l0.5,5.9l-2.4,2.9l6.3,1l1.9-5.9
		l0.5-6.8l4.4-6.8l2.4,2v6.3l5.4,6.3l-1.9,5.4v3.9l-4.9,1.5l2.4,4.9v7.3l-4.9-0.5v3.4l5.4,4.4l-1,8.3v7.3l4.4,3.9l-1,8.8l4.9,1
		l2.9-8.8l-0.5-9.3l1-3.4l-5.4-2.9v-7.8l-1-8.8l3.9-6.8l4.4-1.5l1.5-9.8h3.9l8.8,0.5v4.9l8.3,4.9
		C1674.6,2093.1,1675.8,2093.4,1677.2,2093.7z"/>
	<path id="maquira" class="st0" d="M3007.1,153.8l-20.9-5.9l-15.6,1l-20.4-8.8
		l4.9-16.1l-7.8-11.2l-1-9.3l8.8-6.3l5.8,7.3l6.8,11.7l7.8-1l6.8,9.3l19,7.8l14.1,7.8l-1,8.3L3007.1,153.8z M2892.7,113.3h-18
		l-0.5-5.4l12.7-0.5c0,0-1.5-7.8,1-8.8c2.4-1,9.3-1.5,9.3-1.5l-9.3-4.4h-5.4l-2.9,4.4h-7.8l-9.7,3.4h-14.1l-6.8,4.4l-6.3,8.3l6.8,8.3
		l8.3-3.9l5.4,10.7l14.1,12.7l0.5,10.7l11.7-3.9l9.3,8.8l11.7,5.9l11.2,0.5l7.8,6.8h9.3l0.5-7.8l-12.2-6.8l-0.5-11.7l7.8-4.9
		l-6.3-9.3l-1.5-6.3l-9.7,1.5l-2.9-5.9l-5.8-2.9L2892.7,113.3z"/>
	<polygon id="darien" class="st0" points="644.6,1558.5 655.3,1568.8 668.9,1595.9 666,1605 668.1,1614.4 676.3,1630.9 675.1,1635 682.4,1639.5 
		682.4,1646.9 684.9,1654.7 692.7,1660 697.2,1659.6 705.1,1669.1 706.7,1679.8 703.8,1683.1 707.1,1684.3 709.6,1690.4 
		707.5,1697.8 709.6,1702.4 714.1,1705.2 712.9,1715.5 708.8,1723.7 712.5,1731.1 717,1733.2 717,1737.7 725.6,1741.4 730.6,1751.2 
		740.7,1750.1 743.8,1754.2 748.2,1749.4 755.1,1747.3 749.6,1739.8 743.1,1732.2 744.1,1729.1 739.6,1726 744.4,1725.6 
		746.9,1719.4 747.2,1713.2 740.7,1708.7 736.2,1702.2 739.6,1698.7 744.1,1700.1 744.4,1691.1 750.6,1689 750.6,1682.1 
		744.1,1682.1 739.3,1688.4 735.5,1675.2 729.3,1669.4 732.7,1666.6 738.9,1666.6 739.3,1654.5 731.4,1651.4 724.5,1644.2 
		716.2,1644.9 721,1635.6 714.2,1631.8 704.5,1628 707.6,1622.8 714.8,1618 712.1,1604.5 702.1,1604.5 695.6,1606.9 696.2,1594.5 
		689.4,1592.8 682.1,1591.8 679,1584.2 680.1,1575.2 670.1,1573.5 665.6,1568.6 665.6,1558.3 656.3,1546.2 652.9,1543.5 
		643.7,1546.4 638.9,1558.9 "/>
	<polygon id="baudo" class="st0" points="722.3,2267.2 716,2263.3 719.4,2252.1 712.6,2246.8 712.1,2241.9 719.4,2244.3 719.4,2229.2 
		713.1,2224.8 708.2,2226.3 701.4,2221.9 690.7,2220.9 690.2,2217.5 700.9,2217.5 703.8,2214.6 714.5,2211.6 708.7,2205.8 
		695.6,2205.3 688.7,2213.1 675.1,2213.6 671.7,2215 664.4,2209.2 656.1,2214.6 650.8,2225.3 658.6,2238.5 660.5,2247.7 
		666.8,2248.7 670.7,2256.5 677.1,2271.1 681.9,2274.6 688.7,2288.2 698,2300.9 695.1,2310.7 690.7,2328.2 686.3,2361.4 
		687.8,2373.6 685.3,2380.4 686.3,2383.8 698.5,2384.3 693.1,2389.7 690.7,2395.6 688.7,2398 682.9,2403.4 683.4,2414.6 
		681.4,2421.9 682.9,2429.2 690.7,2427.3 692.1,2432.6 702.9,2433.6 708.7,2438 719.4,2442.9 725.2,2452.2 711.1,2452.6 
		704.3,2450.7 698,2455.6 704.8,2456.5 708.2,2461.4 701.4,2464.3 695.6,2470.2 690.7,2471.2 690.2,2479.5 690.2,2486.3 
		694.6,2496.1 703.3,2502.9 703.8,2511.2 701.4,2523.4 705.3,2528.7 708.7,2538 713.6,2547.8 719.9,2552.7 719.9,2562.9 
		724.8,2567.8 729.6,2576.1 735,2580.5 742.3,2585.8 738.4,2590.7 732.6,2595.6 732.6,2604.9 733,2611.7 735.5,2621 732.6,2627.8 
		732.6,2636.6 728.7,2646.3 722.3,2652.2 725.7,2655.6 723.8,2661 722.8,2667.3 730.1,2669.3 736.9,2672.7 736.9,2663.9 
		747.6,2663.9 752,2659 766.6,2651.7 774.9,2650.2 771,2642.4 768.6,2626.8 768.1,2614.6 762.7,2605.8 763.2,2599 767.1,2597 
		766.1,2582.9 771.5,2579 763.7,2573.1 757.9,2575.1 751.1,2568.3 742.8,2562.4 747.2,2556.6 741.3,2548.8 738.4,2539 743.7,2538.5 
		749.6,2530.7 747.6,2514.6 741.3,2503.9 747.6,2500.5 752.5,2503.9 756.9,2518 763.2,2521.9 764.7,2527.8 773,2531.2 775.4,2523.9 
		782.2,2523.9 782.2,2519 785.1,2512.6 776.4,2511.7 780.3,2507.3 778.8,2500.9 775.4,2498 776.9,2490.7 772,2486.8 773,2477.5 
		767.6,2472.6 763.7,2460 760.8,2453.1 757.4,2462.9 752.5,2454.6 757.4,2452.1 760.8,2446.3 763.2,2440.9 761.8,2434.1 
		754.5,2435.1 744.7,2428.2 736.9,2430.2 731.1,2426.8 726.2,2421.9 724.8,2416.5 731.1,2419.9 731.6,2410.2 739.9,2410.2 
		744.7,2407.8 747.2,2399.5 749.6,2399.5 744.7,2391.2 746.2,2385.8 738.9,2381.9 737.9,2373.6 732.1,2371.2 725.2,2364.3 
		724.8,2359 717.5,2355.1 720.9,2351.2 727.7,2357 737.4,2359.5 738.9,2364.8 747.2,2364.3 750.6,2366.3 755.9,2362.4 747.6,2353.6 
		751.1,2348.2 750.6,2341.4 753.5,2341.4 747.6,2336 742.3,2332.1 739.9,2326.3 732.1,2327.7 732.1,2322.9 724.8,2322.4 
		721.8,2326.3 720.9,2319 725.7,2316.5 729.1,2319.4 731.6,2316 731.6,2306.3 729.1,2300.4 722.3,2300.9 720.9,2292.6 725.7,2289.7 
		725.2,2282.9 729.6,2282.9 736.4,2279.4 741.8,2277 733.5,2271.1 729.6,2275.1 "/>
	<g id="chiribiquete">
		<polygon class="st0" points="2422.4,4340.7 2413.6,4346.6 2410.7,4351.4 2402,4365.1 2388.3,4365.1 2376.6,4355.3 2376.6,4344.6 
			2371.8,4328 2365,4317.3 2366.9,4299.7 2372.7,4294.8 2372.7,4284.1 2365,4267.5 2361.1,4259.7 2362,4246.1 2370.8,4246.1 
			2374.7,4258.7 2386.4,4267.5 2402,4278.3 2410.7,4284.1 2417.5,4291.9 2429.2,4296.8 2428.2,4306.6 2425.3,4313.4 2434.1,4315.3 
			2437,4322.2 2435.1,4332.9 	"/>
		<polygon class="st0" points="2495.4,4367.1 2483.7,4355.3 2482.8,4340.7 2473,4335.8 2463.3,4306.6 2459.4,4287 2447.7,4279.2 
			2435.1,4267.5 2427.3,4258.7 2415.6,4247 2406.8,4227.5 2414.6,4208 2425.3,4202.1 2434.1,4212.9 2447.7,4222.6 2467.2,4235.3 
			2479.8,4247 2480.8,4263.6 2491.5,4277.3 2513.9,4286.1 2516.8,4296.8 2526.6,4313.4 2544.1,4326.1 2555.8,4342.7 2555.8,4359.2 
			2549,4373.9 2549,4391.4 2535.3,4394.4 2523.7,4387.5 2510,4386.6 2501.3,4376.8 	"/>
		<path class="st0" d="M2492.5,4406.1l-16.6-13.7l-8.8,1l-9.7,13.7h-10.7c0,0-4.9-6.8-8.8-8.8c-3.9-2-10.7-3.9-10.7-3.9l-9.7,9.8
			l-2,12.7v26.3l9.7-5.9l6.8,2.9l-5.8,7.8v10.7l-7.8,10.7l-6.8,9.8l5.8,19.5l3.9,17.6h6.8l9.7,16.6v16.6l-1,8.8l8.8,14.6l7.8,6.8
			l7.8,2l4.9-9.8l-9.7-5.9l-2.9-11.7l6.8-7.8l-4.9-13.7l10.7-7.8l14.6-2l3.9-10.7v-10.7l-4.9-17.6l5.8-10.7l1.9-22.4l10.7-5.9
			l15.6-9.8l-3.9-7.8l-15.6-2L2492.5,4406.1z"/>
		<path class="st0" d="M2429.2,4691l-14.6,2l-6.8-6.8l6.8-9.8l1.9-7.8l-6.8-4.9l-8.8-8.8v-16.6l1.9-15.6l-1.9-8.8l-10.7,3.9l-10.7-2
			l-6.8-8.8l-10.7,1l-1.9,7.8l-6.8,10.7l-10.7,12.7l-8.8,5.9l-1.9,10.7l1,14.6l2.9,17.6l-8.8,6.8l-9.7-8.8l-5.8-13.7l-6.8,3.9
			l3.9,6.8v18.5l2.9,12.7l-1.9,15.6l-1.9,5.9c0,0-11.7-5.9-17.5,0c-5.8,5.9-8.8,4.9-8.8,4.9l-1-7.8l-11.7-3.9l-4.9-12.7l-4.9-13.7
			v-9.8l-2.9-15.6l3.9-6.8l1.9-7.8l-8.8-5.9l-10.7-9.8l-2-22.4l6.8-13.7v-12.7l-1-11.7l6.8-15.6l4.9-7.8h10.7l8.8,4.9h21.4l3.9-6.8
			l7.8-4.9l4.9,3.9l11.7,11.7l2.9,6.8h5.8l6.8,8.8l1.9,7.8l7.8-3.9l-2.9-5.9l-3.9-9.8l10.7-8.8l7.8-13.7l10.7-2.9l11.7-8.8l8.8,1
			l1,7.8l1,2.9l11.7,10.7l1,7.8l8.8,6.8l10.7,2l12.7,15.6l8.8,10.7l-5.8,5.9l-13.6-2l-1.9-8.8l-7.8,2v9.8l4.9,17.6v10.7l11.7,9.8
			l3.9,14.6v12.7l-4.9,2L2429.2,4691z"/>
	</g>
	<polygon id="sierra_nevada_santa_marta" class="st0" points="2103.9,535.1 2093.6,530.3 2095,518.5 2086,513 2081.2,515.8 2077.7,526.8 2059.8,530.9 2059.8,542 
		2053.6,542.7 2050.2,554.4 2048.1,541.3 2049.5,531.6 2046.8,522.7 2059.2,521.3 2061.9,514.4 2055,508.9 2044.7,510.9 
		2031.6,511.6 2026.1,519.9 2019.9,531.6 2011,537.2 1999.2,537.8 1997.9,534.4 2006.1,532.3 2008.2,528.9 2017.2,527.5 
		2017.2,519.9 2022,513 2024,504 2015.1,499.9 1999.9,499.9 1994.4,504 1994.4,517.1 1989.6,516.5 1982,526.1 1981.3,521.3 
		1985.5,508.9 1988.2,499.2 1995.8,499.2 2000.6,492.3 1995.1,485.4 1978.6,481.3 1973.8,479.9 1961.4,479.2 1953.1,473.7 
		1946.9,479.9 1939.3,475.1 1933.8,475.1 1936.6,486.8 1926.3,502 1915.2,510.3 1902.9,514.4 1898,511.6 1893.9,516.5 1893.2,530.3 
		1898.7,544.7 1911.1,548.9 1906.3,553.7 1910.4,562 1918,565.4 1915.2,568.9 1909.1,573 1907.7,580.6 1915.9,586.1 1907.7,588.2 
		1913.9,598.6 1918.7,596.5 1927.6,599.3 1931.1,605.5 1925.6,612.4 1924.9,625.5 1927.6,644.1 1938,657.2 1942.8,667.6 
		1938.7,673.1 1938.7,686.2 1943.5,690.3 1949.7,695.2 1949,701.4 1942.8,708.3 1944.9,716.5 1950.4,720 1955.9,715.9 1963.4,720 
		1957.2,720.7 1953.8,725.5 1946.9,726.9 1946.9,735.2 1951.1,742.8 1959.3,746.9 1966.9,753.8 1965.5,762.1 1958.6,759.3 
		1954.5,764.2 1954.5,780 1966.2,782.1 1971,773.8 1975.8,778.6 1975.8,791.1 1971,798 1972.4,820 1978.6,822.8 1982,818.7 
		1993,813.8 2000.6,804.9 2015.1,804.2 2022,808.3 2014.4,813.1 2002.7,813.1 1991.7,824.9 1984.8,833.2 1989.6,845.6 1995.8,845.6 
		2005.4,842.8 2008.9,836.6 2019.9,833.2 2024.7,829 2030.9,833.2 2027.5,842.8 2020.6,850.4 2011,858.7 2008.2,868.3 2001.3,879.4 
		2009.6,885.6 2005.4,890.4 1996.5,890.4 2002,899.4 2010.9,899.4 2010.9,905.6 2019.2,911.1 2031.6,911.8 2035,907.7 2040.6,904.9 
		2040.6,900.1 2035.7,897.3 2037.8,889 2041.2,885.6 2050.2,891.1 2063.3,893.2 2058.5,880.8 2063.3,875.2 2065.3,862.8 
		2070.9,861.4 2070.9,874.6 2073.6,878.7 2076.4,886.3 2088.1,881.4 2082.6,875.9 2086,865.6 2088.1,860.1 2088.8,869 2091.5,875.2 
		2097,878.7 2099.1,873.9 2106.7,871.8 2106.7,857.3 2108,848.3 2114.9,848.3 2114.9,855.9 2125.9,855.9 2145.2,853.2 2154.9,846.3 
		2159,834.5 2150.7,826.3 2161.7,821.4 2164.5,814.5 2157.6,810.4 2164.5,803.5 2174.8,811.1 2183.1,806.2 2194.1,797.3 
		2185.8,789.7 2187.2,780.7 2194.1,782.8 2201,771.1 2207.2,766.2 2214.1,780 2219.6,787.6 2220.9,778 2227.1,773.1 2227.1,766.2 
		2214.7,765.5 2214.7,757.3 2205.8,749 2208.6,742.8 2213.4,750.4 2224.4,750.4 2231.3,752.4 2232,760.7 2239.5,760.7 2243.7,751.7 
		2247.1,733.8 2237.5,728.3 2240.9,723.4 2253.3,717.2 2252.6,706.2 2245,699.3 2236.8,698.6 2230.6,691.7 2239.5,686.2 
		2249.9,690.3 2256.7,684.1 2269.1,680 2274.6,670.3 2266.4,663.4 2270.5,655.8 2282.9,655.8 2297.4,655.1 2300.8,647.6 
		2307.7,643.4 2300.8,626.2 2289.8,620 2297.4,616.5 2305.6,617.2 2313.2,626.9 2320.8,634.4 2332.5,638.6 2335.2,632.4 
		2342.1,635.1 2348.3,622 2341.4,616.5 2333.9,622.7 2324.2,619.3 2337.3,613.7 2331.1,610.3 2315.3,609.6 2310.5,597.9 
		2313.9,590.3 2306.3,584.8 2313.9,584.1 2323.5,592.4 2338,599.3 2351.1,595.1 2358,599.3 2373.8,599.9 2382.7,595.1 2385.5,587.5 
		2382.7,575.1 2397.2,571 2406.8,564.8 2415.1,557.2 2418.5,548.9 2430.3,542 2440.6,539.9 2440.6,524.7 2448.2,517.8 2457.8,515.1 
		2462.6,506.8 2451.6,503.4 2439.2,504 2427.5,509.6 2412.3,514.4 2410.3,519.2 2382.1,519.2 2382.1,524 2386.2,528.9 2384.8,533 
		2377.9,534.4 2372.4,542 2366.2,544.7 2362.1,539.9 2355.2,540.6 2349.7,546.8 2353.1,552.3 2346.3,558.5 2339.4,559.2 
		2331.1,558.5 2325.6,563.4 2314.6,564.1 2310.5,568.2 2298.7,567.5 2292.6,565.4 2301.5,556.5 2307.7,556.5 2311.1,548.2 
		2318,542.7 2311.8,536.5 2300.8,542 2291.9,538.5 2290.5,528.9 2288.4,514.4 2278.8,515.1 2277.4,521.3 2274,511.6 2267.8,511.6 
		2265.7,515.1 2258.1,507.5 2249.2,506.8 2244.4,511.6 2238.2,517.8 2229.9,511.6 2220.3,511.6 2217.5,506.1 2203.7,506.1 
		2198.9,511.6 2187.9,515.8 2187.9,523.4 2185.1,528.2 2180.3,520.6 2171.4,515.8 2165.9,519.9 2166.6,527.5 2171.4,530.9 
		2170,535.8 2166.6,538.5 2160.4,524.7 2150.7,515.1 2135.6,515.1 2129.4,518.5 2119,516.5 2108.7,517.1 2108.7,528.9 "/>
	<path id="macarena" class="st0" d="M1950.2,3598.2l14.6-17.6l10.7-15.6l12.7-1l10.7,2l7.8,14.6l7.8,10.7l-3.9,17.6l5.8,13.7l14.6,10.7l1.9,9.8
		l12.7,16.6l12.7,13.7l1.9,17.6l-4.9,8.8l-2.9,13.7l6.8,10.7l1,9.8l11.7,10.7v7.8l-7.8,17.6v18.5l6.8,5.9l1,16.6l-2.9,13.7l-4.9,3.9
		l5.8,9.8l10.7,14.6l-6.8,20.5l-2.9,20.5l-12.7,14.6v16.6l8.8,14.6l-10.7,16.6l-8.8,2l-8.8,9.8l-8.8-3.9l-6.8-9.8l-8.8-7.8l-8.8-11.7
		v-32.2l-3.9-13.7v-15.6l-1-14.6l-3.9-15.6l-10.7-11.7l-11.7-8.8l-10.7-11.7l-16.6-18.5l-4.9-17.6l-1.9-15.6l-12.7-24.4l-15.6-17.6
		l-1-16.6l6.8-9.8l10.7-6.8l1.9-9.8c0.3-13.2-2.5-34,5.2-44.7c3.5-4.8,7.9-9,11-14C1950,3610.5,1952.7,3603.6,1950.2,3598.2z"/>
	<path id="montes_maria" class="st0" d="M1686.3,1124.5l-0.9-3.4c0-0.1,0-0.1-0.1-0.2l-1.7-2.1c-0.1-0.1-0.3-0.2-0.5-0.2l-2.7,0.4l-4.6-0.7l-1.9-2l0-3
		c0,0,0,0,0,0l0.2-12.8c0-0.1,0-0.2-0.1-0.2l-2.3-4.7c-0.1-0.2-0.3-0.3-0.6-0.3l-3.7,0.9c-0.1,0-0.2,0.1-0.3,0.2l-2.8,3.5l-4.1-1.3
		l-4.5-5.5l-0.7-5.4l1.1-5.6l4.4-1.9c0.1,0,0.2-0.1,0.3-0.2l4.4-9.2c0-0.1,0.1-0.1,0-0.2l-0.2-9.6c0-0.1,0-0.2-0.1-0.3l-10.2-11.9
		c0,0-0.1-0.1-0.1-0.1l-7.2-4.6l-3.3-3.3l-4.3-4.9l-2-4.2l-0.5-1c0,0,0-0.1,0-0.1l-1.7-4l0.2-5.4l1.8-6.7l2.6-4.8
		c0-0.1,0.1-0.1,0.1-0.2l0.4-13l6.8-6l10.5-3.4c0.1,0,0.1-0.1,0.2-0.1l4.8-4.8c0,0,0.1-0.1,0.1-0.2l1.6-4.2l6.8-4
		c0.1,0,0.1-0.1,0.2-0.2l2.3-3.7c0.1-0.1,0.1-0.3,0.1-0.4l-1.7-5.7c0-0.1-0.1-0.2-0.2-0.2l-9.7-8l-1.9-4.5l-1.2-3.7
		c0-0.1-0.1-0.2-0.1-0.2l-8.1-7.1l-6.2-5c0,0-0.1-0.1-0.1-0.1l-7.8-3l-2.1-2.8c-0.1-0.1-0.2-0.2-0.4-0.2l-6.5-0.3c-0.1,0-0.1,0-0.2,0
		l-7,1.9l-5-2.4l-2.9-3.6c-0.2-0.2-0.4-0.2-0.6-0.1l-1.8,1l-4.3,0.1l-2.3-2.7c-0.1-0.1-0.2-0.2-0.3-0.2l-1.3-0.2
		c-0.2,0-0.4,0.1-0.5,0.2l-1.7,2.6l-3.6,2.9l-1-1.2c-0.1-0.1-0.3-0.2-0.4-0.2c-0.2,0-0.3,0.1-0.4,0.3l-0.7,1.4l-6.1,4.3h-3.7
		l-0.3-1.5c0-0.2-0.2-0.4-0.4-0.4l-1.2-0.2c-0.2,0-0.3,0-0.5,0.2l-4.2,4.6l-3.1-0.6l-0.3-1.4c0-0.2-0.2-0.3-0.3-0.4l-2.8-1.1l-0.8-3
		c0-0.1-0.1-0.2-0.2-0.3l-4.6-3.3c-0.2-0.1-0.4-0.1-0.5,0l-3.2,1.9l-9.9,0.9l-3.1-1.7c-0.1-0.1-0.3-0.1-0.4,0s-0.2,0.1-0.3,0.2
		l-2.1,4.1c0,0,0,0.1,0,0.1l-0.7,3.3l-3.3,0.3l-2.8-1.9l1.7-3.3c0.1-0.1,0.1-0.3,0-0.4l-0.4-1.2c-0.1-0.2-0.3-0.4-0.5-0.3l-1.7,0.2
		c-0.1,0-0.3,0.1-0.3,0.2l-1.1,1.4l-1.8-0.8c-0.2-0.1-0.4-0.1-0.5,0.1l-1.5,1.3c-0.1,0.1-0.1,0.2-0.2,0.3l-0.4,2.4l-1.7,3.5h-2.8
		l-0.4-0.9c-0.1-0.2-0.2-0.3-0.4-0.3c-0.2,0-0.3,0.1-0.4,0.2l-1.9,2.7c-0.1,0.1-0.1,0.2-0.1,0.3l0.2,5.7l-0.3,1.8l-2.3-0.3l-3.2-2.4
		c-0.1-0.1-0.2-0.1-0.3-0.1h-2.8l-1.7-0.4c-0.2,0-0.4,0-0.5,0.1c-0.1,0.1-0.2,0.3-0.1,0.5l1.3,4.4c0,0.1,0.1,0.2,0.2,0.3l2.3,1.4
		l0.6,1.6l-1.9,1.9l-1.7-0.3c-0.2,0-0.4,0-0.5,0.2l-1.9,2.3c-0.1,0.1-0.1,0.1-0.1,0.2l-0.7,4h-1.6l-0.4-1c-0.1-0.2-0.3-0.3-0.5-0.3
		l-1.6,0l-2.9,0.4c-0.1,0-0.1,0-0.2,0.1l-2.6,1.5l-3.2-1.8c0,0-0.1,0-0.2-0.1l-3.1-0.5l-1.7-2.4l2.8-1.9c0.1-0.1,0.1-0.1,0.2-0.2
		l0.5-1.2l3.1-1.3c0.1,0,0.2-0.1,0.2-0.2l1.1-1.9c0.1-0.2,0.1-0.4,0-0.5l-2.4-4.1c-0.1-0.1-0.1-0.2-0.2-0.2l-3.5-1.4
		c-0.1,0-0.2,0-0.3,0l-2.4,0.8c-0.2,0.1-0.3,0.2-0.3,0.3l-0.7,2.7l-3.7,1.5l-5.2-1.8l-3.7-3.5c-0.1-0.1-0.2-0.1-0.3-0.1h-1.5
		l-1.4-0.8c0.1-0.1,0.1-0.2,0.1-0.3c0-0.1-0.1-0.2-0.2-0.3l-2.3-1.6c-0.1-0.1-0.2-0.1-0.3-0.1l-10.4,0.2l-2.7-1.5
		c-0.1,0-0.2-0.1-0.3-0.1l-13.4,0.7c-0.1,0-0.1,0-0.2,0l-5.9,2.4c-0.1,0-0.1,0.1-0.2,0.1l-3.9,3.7l-2.1-0.8c-0.1,0-0.3,0-0.4,0
		c-0.1,0.1-0.2,0.2-0.3,0.3l-0.8,2.7l-3.8,2.1c-0.1,0.1-0.2,0.2-0.2,0.3l-1.2,4h-2.5c-0.3,0-0.5,0.2-0.5,0.5l-0.2,4v2.4l-3.5,2.2
		l-2.6,1l-2.4-1.4c-0.2-0.1-0.4-0.1-0.6,0.1l-1.8,1.8c-0.1,0.1-0.2,0.3-0.1,0.5l0.6,1.9l-3.6-1.3v-4c0-0.1-0.1-0.3-0.2-0.4l-2.2-2
		c-0.1-0.1-0.2-0.1-0.3-0.1l-6-0.6l-0.5-0.4c-0.1-0.1-0.2-0.1-0.4-0.1s-0.2,0.1-0.3,0.2l-1.3,1.9c0,0.1-0.1,0.1-0.1,0.2l-1.2,6.5
		c0,0,0,0.1,0,0.1l0.4,3.5l1.3,4.4v4c0,0.1,0,0.1,0,0.2l1.4,3c0,0.1,0.1,0.2,0.2,0.2l1.6,1l1.4,4.8l-1.5,1.2
		c-0.1,0.1-0.2,0.2-0.2,0.3l-1,5.1l-2.1,2c0,0-0.1,0.1-0.1,0.1l-1.6,3.2c-0.1,0.1-0.1,0.3,0,0.4l1.4,2.7l-1.6,4.5c0,0.1,0,0.1,0,0.2
		l0.1,2.5c0,0.2,0.1,0.4,0.3,0.4c0.2,0.1,0.4,0.1,0.5-0.1l3.9-3l3.1-0.1l-1.4,3c-0.1,0.1-0.1,0.3,0,0.4l1,2c0.1,0.1,0.2,0.2,0.3,0.2
		l4.2,1.2c0.1,0,0.2,0,0.2,0l2-0.3l5.4,1.2l3,2.6c0,0,0.1,0.1,0.1,0.1l4,1.8c0.1,0,0.2,0.1,0.3,0l6-1.3l4.3,2l5.8,3.5
		c0.1,0,0.2,0.1,0.3,0.1c0,0,0,0,0,0l3.8-0.1c0.2,0,0.3-0.1,0.4-0.3l1.9-3.5c0.1-0.1,0.1-0.3,0-0.4l-1.1-3.8l1.2-0.1l1.9,2.2
		c0,0,0.1,0.1,0.1,0.1l6,3.3c0,0,0.1,0,0.1,0.1l5.6,1.1l0,2.4l-3.6,2c-0.1,0.1-0.2,0.2-0.2,0.3l-1.9,5.1c-0.1,0.2,0,0.4,0.2,0.6
		l1.7,1.3l-2.4,3.3l-2.2,4.4c0,0.1,0,0.1-0.1,0.2l-0.4,3.5l-2.7,1.7c-0.2,0.1-0.3,0.4-0.2,0.6l1.4,3.1c0.1,0.2,0.2,0.3,0.4,0.3
		l4.3,0.6l-0.5,2.7l-2.5,5.5c0,0.1-0.1,0.2,0,0.3l0.6,3.9l-2.4,5.6c0,0.1,0,0.1,0,0.2l-0.2,5.6l-5.6,4.2c-0.1,0.1-0.2,0.2-0.2,0.4
		v2.3c0,0,0,0.1,0,0.1l1.9,6.5l-1.3,1.6c-0.1,0.1-0.1,0.3-0.1,0.5l0.8,2.5l-1.5,0.5c-0.1,0-0.2,0.1-0.2,0.1l-4.1,4.4
		c-0.1,0.1-0.1,0.2-0.1,0.3l-0.3,4.5l-0.6,1.9c0,0.1,0,0.2,0,0.2l1.1,6.8l-0.6,6.3c0,0.3,0.2,0.5,0.4,0.5l2.9,0.3
		c0.2,0,0.4-0.1,0.5-0.2l2-3c0,0,0.1-0.1,0.1-0.2l1.3-5.2h1.7l2.6,4c0,0,0.1,0.1,0.1,0.1l4.9,3.9l-0.6,3.2c0,0.2,0,0.4,0.2,0.5l2.6,2
		c0.1,0.1,0.3,0.1,0.4,0.1c0.1,0,0.3-0.1,0.3-0.3l1.2-2.3c0,0,0-0.1,0-0.1l2.4-10l6.6-2.8c0.2-0.1,0.3-0.2,0.3-0.4l0.3-4l2.8-3.1h2
		c0.2,0,0.3-0.1,0.4-0.2l2.5-3.7l2.4-0.6l1.4-0.5l0.7,5.1c0,0.1,0,0.1,0.1,0.2l0.9,1.7l-0.8,1.9c-0.1,0.1-0.1,0.3,0,0.4
		c0,0.1,0.1,0.2,0.3,0.3l1.1,0.5c0.2,0.1,0.4,0,0.6-0.1l2.3-2.5l0.3,1.7c0,0.1,0,0.1,0,0.1l1.7,3.3c0.1,0.2,0.2,0.3,0.4,0.3l4.3,0.4
		l3.1,3.5c0.1,0.1,0.3,0.2,0.5,0.2c0.2,0,0.3-0.1,0.4-0.3l0.9-1.9l3.2-0.2l3.6,2.9c0.1,0.1,0.2,0.1,0.4,0.1s0.3-0.1,0.3-0.2l0.8-1.2
		l2-0.1l9.3,3c0.1,0,0.2,0,0.4,0l3.5-1.6c0,0,0.1-0.1,0.1-0.1l1.1-1l1.2,0.8l-0.6,1.6l-6.6,4.2l-1.6-0.7c-0.1-0.1-0.3-0.1-0.4,0
		c-0.1,0.1-0.2,0.2-0.3,0.3l-0.8,1.9c-0.1,0.2,0,0.3,0.1,0.5l2.3,3.4l-1.2,2.7c-0.1,0.1-0.1,0.3,0,0.4l1.2,2.5
		c0.1,0.1,0.2,0.2,0.3,0.3c0.1,0,0.3,0,0.4-0.1l2.6-1.8l2.3-2.1l2,0.7l1.7,4.3c0.1,0.2,0.3,0.3,0.5,0.3l8.2-0.2l1.8,2.1l-0.9,5
		c0,0.2,0,0.3,0.1,0.4l1.2,1.2c0.1,0.1,0.2,0.1,0.4,0.1h3.8l2,3.9c0.1,0.1,0.2,0.2,0.3,0.3l4.2,0.9l2.2,2.5l5.2,4.7l-0.4,1.9
		c0,0.2,0,0.3,0.1,0.4l2.8,3c0.1,0.1,0.2,0.2,0.4,0.2l3.2-0.1l3.3-0.6l2.9,0.6c0.2,0,0.3,0,0.5-0.1l3.2-3.4l4.5,1.7l2.8,3.1
		c0.1,0.1,0.3,0.2,0.4,0.2l6-0.4l-0.9,2.1l-1.9,0.1c-0.1,0-0.2,0-0.3,0.1l-3.9,3.3c-0.2,0.1-0.2,0.4-0.1,0.5l1,2.8l-0.7,3.2
		c0,0.1,0,0.2,0,0.3l0.9,1.7l-1.3,0.6c-0.1,0.1-0.3,0.2-0.3,0.3l-0.5,2.3l-2.1,4.7c-0.1,0.2,0,0.4,0.1,0.5l3.3,3.9
		c0.1,0.1,0.2,0.1,0.3,0.2l4.4,0.8l1.8,1.9l4.9,3.9c0.1,0.1,0.2,0.1,0.3,0.1h4.5l1.8,1.6c0.1,0.1,0.3,0.1,0.4,0.1l4.9-1
		c0.1,0,0.2-0.1,0.3-0.2l3.8-4.8l4.8-4.6l2,1.1l-4.5,5.3c-0.1,0.2-0.2,0.4,0,0.6c0.1,0.2,0.3,0.3,0.6,0.2l4.4-1.3l1.3,3
		c0.1,0.2,0.4,0.4,0.6,0.3l2.7-0.9l1.3,0.5l1.8,1.8c0.1,0.1,0.1,0.1,0.2,0.1l2.7,0.8l2.1,3.4c0.1,0.1,0.2,0.2,0.4,0.2l6.8,0.6
		l0.8,1.4l-3.4,2.6h-2.2c0,0-0.1,0-0.1,0l-4.5,1.1c-0.2,0-0.3,0.2-0.4,0.4l-1.1,4.3l-2.8,4.4c-0.1,0.2-0.1,0.5,0.1,0.6l1.8,1.8
		l0.8,1.7c0.1,0.2,0.3,0.3,0.4,0.3c0,0,0,0,0,0l1.8-0.1c0.2,0,0.3-0.1,0.4-0.2l1.4-2l0.6-1.2l1.5,0.6c0.2,0.1,0.3,0.1,0.5,0l5.4-3.5
		c0,0,0.1-0.1,0.1-0.1l1.6-1.8l0.8-0.4v1.1c0,0.2,0.1,0.3,0.2,0.4l2.7,2.2c0.1,0.1,0.2,0.1,0.4,0.1l5.6-0.8c0.2,0,0.3-0.1,0.4-0.2
		l1.9-3.3c0,0,0-0.1,0-0.1l1.2-4.4l2.3,0.5c0.1,0,0.3,0,0.4-0.1l2.5-1.7l3,1.3c0.2,0.1,0.5,0,0.6-0.2l1.7-2.7l3.5,0.3
		c0.1,0,0.3,0,0.3-0.1l5.6-4.5c0.1-0.1,0.2-0.3,0.2-0.5l-0.4-2.3l-0.4,0.1l0.3-0.2l-3-5.3l2.3-3.3l5.7-5.5l5.7-6.4
		c0.1-0.1,0.1-0.2,0.1-0.4l-0.6-4.8c0-0.1-0.1-0.2-0.2-0.3l-2.7-2.3l-3.3-5.7c-0.1-0.1-0.2-0.2-0.3-0.2c-1.7-0.3-3.4-1-3.6-1.3
		c0-1-0.4-4.1-0.4-4.7l0.9-3.7l2.8-3.3l3.6-2.5c0,0,0.1,0,0.1-0.1l3.4-3.8l4.4-2c0.1,0,0.1-0.1,0.2-0.1l2.2-2.9
		c0.1-0.1,0.1-0.2,0.1-0.2l0.5-4.4l0.6-3.8l0.9-1.5C1686.3,1124.7,1686.3,1124.6,1686.3,1124.5z"/>
	</g>
</svg>
