<?xml version="1.0" encoding="utf-8"?>
<!-- Generator: Adobe Illustrator 27.7.0, SVG Export Plug-In . SVG Version: 6.00 Build 0)  -->
<svg version="1.1" id="Capa_1" xmlns="http://www.w3.org/2000/svg" xmlns:xlink="http://www.w3.org/1999/xlink" x="0px" y="0px"
	 viewBox="0 0 1920 1080" style="enable-background:new 0 0 1920 1080;" xml:space="preserve">
<style type="text/css">
	.st0{fill:none;stroke:#5E5858;stroke-width:3;stroke-linejoin:round;stroke-miterlimit:10;}
	.st1{fill:url(#SVGID_1_);}
	.st2{fill:url(#SVGID_00000033364638295426148950000011020094281757551291_);}
	.st3{fill:url(#SVGID_00000106849626173481773710000008777489771440319648_);}
	.st4{fill:url(#SVGID_00000041260491887130293880000002073637980787880870_);}
	.st5{opacity:0.3;}
	.st6{fill:#79C1ED;}
	.st7{fill:#9BE0F8;}
	.st8{fill:#AE592B;}
	.st9{fill:#003961;}
	.st10{fill:#893D20;}
	.st11{fill:#FFB239;}
	.st12{fill:#FF989C;}
	.st13{fill:#FF6776;}
	.st14{fill:#004F87;}
	.st15{fill:#F52314;}
	.st16{fill:#CC0000;}
	.st17{fill:#FFDB88;}
	.st18{fill:url(#SVGID_00000070840972368596124980000007849065599823295882_);}
	.st19{fill:url(#SVGID_00000077307217269702625730000008033043682122649741_);}
	.st20{fill:#D8C09B;}
	.st21{fill:#AA987B;}
	.st22{fill:#665B4A;}
	.st23{fill:#83755F;}
	.st24{fill:#80432D;}
	.st25{fill:url(#SVGID_00000047054401871248473140000009835434101895185582_);}
	.st26{fill:url(#SVGID_00000098199679079127273100000002282910829247973000_);}
	.st27{fill:#E9E9EC;}
	.st28{fill:#CCCCCC;}
	.st29{opacity:0.65;fill:#B3B3BD;}
	.st30{fill:url(#SVGID_00000121251030396907999750000005129780380140436148_);}
	.st31{fill:url(#SVGID_00000093898157898987932480000006896088967210079654_);}
	.st32{fill:#FA5244;}
	.st33{fill:#C2C0C0;}
	.st34{fill:#DADADA;}
	.st35{fill:#5A5550;}
	.st36{fill:#A8A8A8;}
	
		.st37{clip-path:url(#SVGID_00000086687436348044260950000008775731598214044090_);fill:url(#SVGID_00000036955109695319411450000007761876872515916421_);}
	.st38{opacity:0.5;clip-path:url(#SVGID_00000086687436348044260950000008775731598214044090_);}
	.st39{fill:#D7E8EF;}
	.st40{fill:#F7FAFB;}
	.st41{clip-path:url(#SVGID_00000086687436348044260950000008775731598214044090_);}
	.st42{opacity:0.5;fill:#3AA9B0;}
	.st43{fill:url(#SVGID_00000066513635722529714570000004642296773294841235_);}
	.st44{fill:#3AA9B0;}
	.st45{fill:url(#SVGID_00000129201790279264697460000013576134544947918248_);}
	.st46{fill:#F9CA48;}
	.st47{fill:url(#SVGID_00000098920425692974059760000010954360798412404404_);}
	.st48{filter:url(#Adobe_OpacityMaskFilter);}
	.st49{clip-path:url(#SVGID_00000062158661826239948120000017756575186374869683_);}
	
		.st50{clip-path:url(#SVGID_00000060729399229772559810000016435138307134775738_);fill:url(#SVGID_00000174584385880864312620000007041565947751810717_);}
	
		.st51{mask:url(#SVGID_00000002375264402813647970000013764692710138581142_);fill:url(#SVGID_00000105401502934681029820000005974840539128711866_);}
	.st52{opacity:0.53;fill:url(#SVGID_00000133528080801034007340000011101263254866470280_);enable-background:new    ;}
	.st53{opacity:0.39;}
	.st54{fill:url(#SVGID_00000145775097650956182120000008299210286883297175_);}
	.st55{fill:url(#SVGID_00000008830136269097403720000012248349082078544569_);}
	.st56{opacity:0.21;}
	.st57{fill:url(#SVGID_00000124159080925196086340000008084330858067321008_);}
	.st58{fill:url(#SVGID_00000023241529844835530390000009757154039800755353_);}
	.st59{fill:url(#SVGID_00000012449381393136494170000016421247808938731436_);}
	.st60{fill:url(#SVGID_00000039105937856047443990000010854735876695650225_);}
	.st61{fill:url(#SVGID_00000140003248686885124030000005440784062934904243_);}
	.st62{fill:url(#SVGID_00000149361334240129639090000015432822079776471468_);}
	.st63{fill:url(#SVGID_00000119116659848661692940000012805392484194279579_);}
	.st64{fill:url(#SVGID_00000050636648651855542390000017007891649156338563_);}
	.st65{fill:url(#SVGID_00000145047917126565260780000012773499239929640126_);}
	.st66{fill:url(#SVGID_00000179636638502406553040000008148297322544046226_);}
	.st67{fill:url(#SVGID_00000072240100545783373110000011990981885893978043_);}
	.st68{fill:url(#SVGID_00000111911672233114441010000004334362325277303195_);}
	.st69{fill:url(#SVGID_00000135666101765016291140000002421968306270004398_);}
	.st70{fill:url(#SVGID_00000145018463432406308680000008797349807098503860_);}
	.st71{opacity:0.52;fill:url(#SVGID_00000147179187921919209210000018177537827824633740_);enable-background:new    ;}
	.st72{opacity:0.52;fill:url(#SVGID_00000146469460805963235070000006488057589520176052_);enable-background:new    ;}
	.st73{fill:#D58C1D;}
	.st74{fill:#99CD00;}
	.st75{opacity:0.31;fill:#B4E000;enable-background:new    ;}
	.st76{opacity:0.29;fill:#854A00;enable-background:new    ;}
	.st77{opacity:0.29;}
	.st78{opacity:0.56;fill:#854A00;enable-background:new    ;}
	.st79{opacity:0.18;fill:#469500;enable-background:new    ;}
	.st80{fill:#DCEC00;}
	.st81{opacity:0.18;}
	.st82{fill:#469500;}
	.st83{opacity:0.54;fill:#A7CE00;enable-background:new    ;}
	.st84{fill:#9A8667;}
	.st85{fill:#CFB389;}
	.st86{fill:#7E6E54;}
	.st87{fill:#2A2A29;}
	.st88{fill:#202020;}
	.st89{fill:#161616;}
	.st90{opacity:0.2;}
	.st91{fill:#1D1D1B;}
	.st92{fill:#895850;}
	.st93{fill:#66382F;}
	.st94{fill:#724438;}
	.st95{fill:#9B6762;}
	.st96{fill:#D39275;}
	.st97{fill:#FFF03B;}
	.st98{fill:#DA7122;}
	.st99{opacity:0.2;fill:#1D1D1B;}
	.st100{fill:#938C8E;}
	.st101{fill:#9E989D;}
	.st102{fill:#BFB8BE;}
	.st103{fill:#E8DAA0;}
	.st104{fill:#FFF4C5;}
	.st105{fill:#D86A4C;}
	.st106{fill:#847C7F;}
	.st107{fill:#D69C7F;}
	.st108{fill:#C68467;}
	.st109{fill:url(#SVGID_00000049914136612824519580000005296539819225185982_);}
	.st110{filter:url(#Adobe_OpacityMaskFilter_00000075872584853436256820000016295972537666560682_);}
	.st111{clip-path:url(#SVGID_00000150813227434523968830000011994963308629083010_);}
	
		.st112{clip-path:url(#SVGID_00000119807221902460746150000011259449813311525050_);fill:url(#SVGID_00000021121115621989133180000011251991501463876535_);}
	
		.st113{mask:url(#SVGID_00000137127847867911890410000006216573589530310038_);fill:url(#SVGID_00000015318088342088234070000017744662945766853788_);}
	.st114{opacity:0.53;fill:url(#SVGID_00000144300933302144969550000016221044121951388571_);enable-background:new    ;}
	.st115{fill:url(#SVGID_00000139972116188782346590000013446239362192422068_);}
	.st116{fill:url(#SVGID_00000069395038745305118040000004418169102888285108_);}
	.st117{fill:url(#SVGID_00000171683373419540177600000013935343125595272833_);}
	.st118{fill:url(#SVGID_00000115475348467875363990000005971147016851277195_);}
	.st119{fill:url(#SVGID_00000016036290291389916130000000795576339821742494_);}
	.st120{fill:url(#SVGID_00000151534764192183969730000016180592396969109933_);}
	.st121{fill:url(#SVGID_00000132080345818239074680000018119715403251846558_);}
	.st122{fill:url(#SVGID_00000053528593691986741690000016823637172513621936_);}
	.st123{fill:url(#SVGID_00000178919739700232882740000005597487189481007488_);}
	.st124{fill:url(#SVGID_00000013910609839722271840000011188948125838461359_);}
	.st125{fill:url(#SVGID_00000027570628858574504050000012352901589122251681_);}
	.st126{fill:url(#SVGID_00000018205860478903716480000017923546883447634102_);}
	.st127{fill:url(#SVGID_00000021117026572009488680000014242594164935393190_);}
	.st128{fill:url(#SVGID_00000129904495814290365920000007110763451002930817_);}
	.st129{fill:url(#SVGID_00000080889444807447776030000006874941671489316736_);}
	.st130{fill:url(#SVGID_00000130614866093275792760000006524482003484690869_);}
	.st131{opacity:0.52;fill:url(#SVGID_00000090978502488073387310000011485352313033169809_);enable-background:new    ;}
	.st132{opacity:0.52;fill:url(#SVGID_00000155144439807006395010000014020594032699241614_);enable-background:new    ;}
	.st133{fill:#A54C1E;}
	.st134{fill:#9A3B32;}
	.st135{fill:#803028;}
	.st136{fill:#FF9A56;}
	.st137{fill:#FC8413;}
	.st138{fill:#B84430;}
	.st139{fill:#FFD372;}
	.st140{fill:#FFEFBB;}
	.st141{opacity:0.63;fill:#B84430;}
	.st142{opacity:0.33;fill:#A54C1E;}
	.st143{fill:#F8B845;}
	.st144{fill:#FFDEAE;}
	.st145{opacity:0.5;fill:#803028;}
	.st146{fill:#FFF8D3;}
	.st147{fill:#CF6437;}
	.st148{fill:#FFC67B;}
	.st149{fill:#FAFAFE;}
	.st150{fill:#E6E6EC;}
	.st151{fill:#3B1F1F;}
	.st152{fill:#7F6364;}
	.st153{opacity:0.5;fill:#7F6364;}
	.st154{fill:#ECA866;}
	.st155{fill:#A17D7E;}
	.st156{fill:#B6CDF4;}
	.st157{fill:#9D696B;}
	.st158{fill:#FF9226;}
	.st159{opacity:0.2;fill:#9D696B;}
	.st160{fill:#939EB1;}
	.st161{fill:#A6AFBF;}
	.st162{fill:#888DAA;}
	.st163{fill:#585D6C;}
	.st164{opacity:0.4;fill:#A6AFBF;}
	.st165{fill:url(#SVGID_00000102506028510527078910000017419377489679037594_);}
	.st166{filter:url(#Adobe_OpacityMaskFilter_00000052812038511034738560000017825561545130539190_);}
	.st167{clip-path:url(#SVGID_00000098206486511186334350000014894464773098705540_);}
	
		.st168{clip-path:url(#SVGID_00000062914300946372223010000009178559070975232897_);fill:url(#SVGID_00000160166755435437350560000004765666049935925902_);}
	
		.st169{mask:url(#SVGID_00000016050979478862952790000011675291304390602132_);fill:url(#SVGID_00000084509466967354794950000012761421839789846161_);}
	.st170{opacity:0.53;fill:url(#SVGID_00000176724402122979337330000016277345535911636671_);enable-background:new    ;}
	.st171{fill:url(#SVGID_00000031207970554568644640000000071130389458251148_);}
	.st172{fill:url(#SVGID_00000057834782221755311060000001730514105537180351_);}
	.st173{fill:url(#SVGID_00000124855897536306447810000011147149888909764535_);}
	.st174{fill:url(#SVGID_00000032634944694487881510000017857370159724814485_);}
	.st175{fill:url(#SVGID_00000183930996470841311540000015761146368417575595_);}
	.st176{fill:url(#SVGID_00000153698448465285052910000012655547679582421155_);}
	.st177{fill:url(#SVGID_00000134208547218469357600000014799394308226293658_);}
	.st178{fill:url(#SVGID_00000011013768407124454890000005909105324402473604_);}
	.st179{fill:url(#SVGID_00000008871177228006549730000001051266342474272902_);}
	.st180{fill:url(#SVGID_00000174595937120721492590000011599260635893926064_);}
	.st181{fill:url(#SVGID_00000075141887474743819620000006684775812532748982_);}
	.st182{fill:url(#SVGID_00000150818668240569752610000004167282241050456749_);}
	.st183{fill:url(#SVGID_00000029740698109310041580000014245998772091191719_);}
	.st184{fill:url(#SVGID_00000013191652697002073470000001034886638459609493_);}
	.st185{fill:url(#SVGID_00000116198582524491471130000000315979096712457910_);}
	.st186{fill:url(#SVGID_00000179617122140176311240000016096712207117284242_);}
	.st187{opacity:0.52;fill:url(#SVGID_00000086682702305969094050000013522149448006366603_);enable-background:new    ;}
	.st188{opacity:0.52;fill:url(#SVGID_00000051374223929025452530000005255755506238974615_);enable-background:new    ;}
	.st189{fill:#FF8DA0;}
	.st190{fill:#FFD79C;}
	.st191{fill:#F9DDD2;}
	.st192{fill:#EDC7B2;}
	.st193{fill:#724139;}
	.st194{fill:#EF5252;}
	.st195{fill:#D3404E;}
	.st196{fill:#B06B00;}
	.st197{fill:#DBAA91;}
	.st198{fill:#683226;}
	.st199{fill:#B22B3B;}
	.st200{fill:#EAD3D7;}
	.st201{fill:#C9A9AF;}
	.st202{fill:#DDBFC3;}
	.st203{fill:#B78A92;}
	.st204{fill:#B27F6B;}
	.st205{fill:#92DBF4;}
	.st206{fill:#56251D;}
	.st207{fill:#EABDA9;}
	.st208{fill:#CE9B84;}
	.st209{fill:#B5745D;}
	.st210{fill:#6B3B2C;}
	.st211{fill:#C18A74;}
	.st212{fill:#CC9881;}
	.st213{fill:#FF5F5F;}
	.st214{fill:#AA725E;}
	.st215{fill:#932134;}
	.st216{fill:#F4D5C6;}
	.st217{fill:#FFC064;}
	.st218{fill:#51231B;}
	.st219{fill:#824634;}
	.st220{fill:#7F3F32;}
	.st221{fill:#F4B54E;}
	.st222{fill:#5185A5;}
	.st223{fill:#E5C3BE;}
	.st224{opacity:0.5;fill:#BC5642;}
	.st225{fill:#8CAAA7;}
	.st226{fill:#CCE5E2;}
	.st227{fill:#A5C4BF;}
	.st228{fill:#B2CCCA;}
	.st229{opacity:0.6;fill:#535E5D;}
	.st230{fill:#DCE6E4;}
	.st231{fill:#B0CCC6;}
	.st232{fill:#96A8A6;}
	.st233{fill:#5B325B;}
	.st234{fill:#8E4221;}
	.st235{fill:#AF6837;}
	.st236{fill:#A85248;}
	.st237{fill:#965326;}
	.st238{fill:#703B18;}
	.st239{fill:#BF703A;}
	.st240{fill:#CC8656;}
	.st241{fill:#6D442D;}
	.st242{fill:#DB9565;}
	.st243{fill:#E8A070;}
	.st244{opacity:0.5;}
	.st245{fill:#BC5642;}
	.st246{fill:#7F4426;}
	.st247{fill:#93532F;}
	.st248{fill:#B5619F;}
	.st249{fill:#9B4E8B;}
	.st250{fill:#CE814D;}
	.st251{fill:#A55925;}
	.st252{fill:#6D351D;}
	.st253{fill:#E089CE;}
	.st254{fill:#663036;}
	.st255{fill:#DB97A1;}
	.st256{fill:#5E3636;}
	.st257{fill:#CCDFDD;}
	.st258{fill:#C1DBD9;}
	.st259{fill:#A2AAA9;}
	.st260{fill:#778986;}
	.st261{fill:#B6CECA;}
	.st262{fill:#DDEDEB;}
	.st263{fill:#A7C1BF;}
	.st264{fill:#DFEFED;}
	.st265{fill:#8C9997;}
	.st266{fill:#455653;}
	.st267{fill:#5A6B68;}
	.st268{fill:#C5DDDA;}
	.st269{fill:#725D61;}
	.st270{fill:#49383B;}
	.st271{fill:#B699C9;}
	.st272{fill:#BFD8D5;}
	.st273{fill:#3F4745;}
	.st274{fill:#88A5A2;}
	.st275{fill:#749692;}
	.st276{fill:#ADC9C7;}
	.st277{fill:#A5C4C1;}
	.st278{fill:#9F80B7;}
	.st279{fill:#E0CEED;}
	.st280{fill:#84699E;}
	.st281{fill:#F0FFFD;}
	.st282{fill:#96B2AF;}
	.st283{fill:#65726F;}
	.st284{fill:#BF6F2E;}
	.st285{fill:#CC8652;}
	.st286{fill:#C4916A;}
	.st287{fill:#A55C25;}
	.st288{fill:#F2E2D5;}
	.st289{fill:#998576;}
	.st290{opacity:0.5;fill:#934F21;enable-background:new    ;}
	.st291{opacity:0.13;}
	.st292{fill:#934F21;}
	.st293{opacity:0.3;fill:#934F21;enable-background:new    ;}
	.st294{fill:#A25722;}
	.st295{fill:#754C29;}
	.st296{opacity:0.12;fill:#934F21;enable-background:new    ;}
	.st297{fill:#B5682D;}
	.st298{fill:#C47D47;}
	.st299{fill:#FFD738;}
	.st300{fill:#82412D;}
	.st301{fill:#8F4933;}
	.st302{fill:#DEB833;}
	.st303{fill:#FFFFFF;}
	.st304{fill:#8C5D43;}
	.st305{opacity:0.5;fill:#775441;}
	.st306{fill:#C6CED1;}
	.st307{fill:#F2F2F2;}
	.st308{fill:#775441;}
	.st309{fill:#8C634D;}
	.st310{fill:#996C54;}
	.st311{fill:#A67C52;}
	.st312{fill:#42210B;}
	.st313{fill:url(#SVGID_00000047028944933202108140000012623400785927695022_);}
	.st314{filter:url(#Adobe_OpacityMaskFilter_00000036246754077713592080000008967956953449403792_);}
	.st315{clip-path:url(#SVGID_00000138535446442940011320000011108555223970830497_);}
	
		.st316{clip-path:url(#SVGID_00000013898102876376499220000016064942606459957652_);fill:url(#SVGID_00000018942729991824754430000015214953130309292470_);}
	
		.st317{mask:url(#SVGID_00000137813382216759616570000001312105963458556579_);fill:url(#SVGID_00000133491776966315064520000010069530080538088590_);}
	.st318{opacity:0.53;fill:url(#SVGID_00000116216048194708790330000003655858606865679522_);enable-background:new    ;}
	.st319{fill:url(#SVGID_00000170265903344463969200000003112975455688191616_);}
	.st320{fill:url(#SVGID_00000089565037620975366680000010080962632383688594_);}
	.st321{fill:url(#SVGID_00000019650629591242749780000002727892480736542109_);}
	.st322{fill:url(#SVGID_00000173146059923549552600000002543177589049555600_);}
	.st323{fill:url(#SVGID_00000132788135927747143340000004085630974290620079_);}
	.st324{fill:url(#SVGID_00000046335376432852438260000012859834461433130900_);}
	.st325{fill:url(#SVGID_00000170996989322405187400000011048543474728880527_);}
	.st326{fill:url(#SVGID_00000023260879168232296920000000267415638989615278_);}
	.st327{fill:url(#SVGID_00000180360459731281460820000016474667032861148577_);}
	.st328{fill:url(#SVGID_00000014612157289737002950000010171242099637919931_);}
	.st329{fill:url(#SVGID_00000047059859522295488870000015078894487461769361_);}
	.st330{fill:url(#SVGID_00000065759122646039350780000008820227578912970430_);}
	.st331{fill:url(#SVGID_00000183957572919695388190000012212488949902341812_);}
	.st332{fill:url(#SVGID_00000054972016351788427310000007410449110659498923_);}
	.st333{fill:url(#SVGID_00000153679980151325095460000008134443684847073723_);}
	.st334{fill:url(#SVGID_00000165212440315129504940000007755686660064175507_);}
	.st335{opacity:0.52;fill:url(#SVGID_00000022532608629966612760000016173075652105972647_);enable-background:new    ;}
	.st336{opacity:0.52;fill:url(#SVGID_00000127758141905755776220000014993130265786640054_);enable-background:new    ;}
	.st337{fill-rule:evenodd;clip-rule:evenodd;fill:#ECBE6C;}
	.st338{fill-rule:evenodd;clip-rule:evenodd;fill:url(#SVGID_00000003809983132736222980000008948445788273426836_);}
	.st339{fill-rule:evenodd;clip-rule:evenodd;fill:url(#SVGID_00000035508304245885585730000017840615927929272732_);}
	.st340{fill-rule:evenodd;clip-rule:evenodd;fill:#ECCE8D;}
	.st341{fill-rule:evenodd;clip-rule:evenodd;fill:#EC763B;}
	.st342{fill-rule:evenodd;clip-rule:evenodd;fill:url(#SVGID_00000059290987604274444400000008734709403913391497_);}
	.st343{fill-rule:evenodd;clip-rule:evenodd;fill:url(#SVGID_00000143584675826969683520000013215392098458847620_);}
	.st344{fill-rule:evenodd;clip-rule:evenodd;fill:url(#SVGID_00000088107244361115631240000011821973936878869410_);}
	.st345{fill-rule:evenodd;clip-rule:evenodd;fill:url(#SVGID_00000042729656991945415170000007998427455927661199_);}
	.st346{fill-rule:evenodd;clip-rule:evenodd;fill:#96372B;}
	.st347{fill-rule:evenodd;clip-rule:evenodd;fill:url(#SVGID_00000174562248683804135000000005876426762406548898_);}
	.st348{fill-rule:evenodd;clip-rule:evenodd;fill:url(#SVGID_00000016787094947651862630000011996359742586288541_);}
	.st349{fill-rule:evenodd;clip-rule:evenodd;fill:url(#SVGID_00000177445172545939225540000002512556928804765591_);}
	.st350{fill-rule:evenodd;clip-rule:evenodd;fill:url(#SVGID_00000041289147230254840140000011769822916965799315_);}
	.st351{fill-rule:evenodd;clip-rule:evenodd;fill:url(#SVGID_00000084508459147950462050000004882179534478577291_);}
	.st352{fill-rule:evenodd;clip-rule:evenodd;fill:url(#SVGID_00000088838780267100518110000017900234668803464631_);}
	.st353{fill-rule:evenodd;clip-rule:evenodd;fill:#5A1828;}
	.st354{fill-rule:evenodd;clip-rule:evenodd;fill:url(#SVGID_00000141417995120808659650000010056812383325398449_);}
	.st355{fill-rule:evenodd;clip-rule:evenodd;fill:url(#SVGID_00000009577764549296162790000004343798510206125742_);}
	.st356{fill-rule:evenodd;clip-rule:evenodd;fill:url(#SVGID_00000015340308476912119080000012710116881463922878_);}
	.st357{opacity:0.2;fill-rule:evenodd;clip-rule:evenodd;fill:url(#SVGID_00000029738035449811042910000001040513509636983477_);}
	.st358{fill-rule:evenodd;clip-rule:evenodd;fill:#EC903B;}
	.st359{fill-rule:evenodd;clip-rule:evenodd;fill:#ECA950;}
	.st360{fill-rule:evenodd;clip-rule:evenodd;fill:url(#SVGID_00000108311517928253195830000004927973949804797331_);}
	.st361{fill-rule:evenodd;clip-rule:evenodd;fill:url(#SVGID_00000023269504972299145920000006188600813317354920_);}
	.st362{fill-rule:evenodd;clip-rule:evenodd;fill:url(#SVGID_00000176033883727687835600000006557318901714659713_);}
	.st363{fill-rule:evenodd;clip-rule:evenodd;fill:url(#SVGID_00000169523559965831184650000002927871868842173862_);}
	.st364{fill-rule:evenodd;clip-rule:evenodd;fill:url(#SVGID_00000070097846436712323000000004812464043882517635_);}
	.st365{fill-rule:evenodd;clip-rule:evenodd;fill:url(#SVGID_00000167383346293698839370000005464801252028068027_);}
	.st366{fill-rule:evenodd;clip-rule:evenodd;fill:url(#SVGID_00000063594491758765621110000003275101458672062094_);}
	.st367{fill-rule:evenodd;clip-rule:evenodd;fill:url(#SVGID_00000062873803165384170610000016545176880791272603_);}
	.st368{fill-rule:evenodd;clip-rule:evenodd;fill:url(#SVGID_00000047769804234293837480000002013543811430738326_);}
	.st369{fill-rule:evenodd;clip-rule:evenodd;fill:url(#SVGID_00000181071043429006822770000016071024157088022676_);}
	.st370{fill-rule:evenodd;clip-rule:evenodd;fill:url(#SVGID_00000029768360715664473100000003536053972649531305_);}
	.st371{fill-rule:evenodd;clip-rule:evenodd;fill:url(#SVGID_00000079447671273953178410000003735924159775476661_);}
	.st372{fill-rule:evenodd;clip-rule:evenodd;fill:url(#SVGID_00000166637200791036014310000006316248485622025129_);}
	.st373{fill-rule:evenodd;clip-rule:evenodd;fill:url(#SVGID_00000003801557285807074100000002271920688532113337_);}
	.st374{fill:#544224;}
	.st375{fill:#9E7C42;}
	.st376{fill:#CFA256;}
	.st377{fill:#82502A;}
	.st378{fill:#5E3A1E;}
	.st379{fill:#FFECCC;}
	.st380{fill:#53A4BD;}
	.st381{clip-path:url(#SVGID_00000060007202404863436160000003592392925382731932_);}
	.st382{fill:#73D2F0;}
	.st383{fill:#A3E9FF;}
	.st384{fill:#453314;}
	.st385{fill:#FFD999;}
	.st386{fill:#BF3E26;}
	.st387{fill:#50947A;}
	.st388{fill:#4A2A15;}
	.st389{fill:#FCB3A6;}
	.st390{fill:#9C582D;}
	.st391{fill:#0B4B61;}
	.st392{fill:#1A7591;}
	.st393{fill:#75201C;}
	.st394{fill:#125063;}
	.st395{fill:#9E5549;}
	.st396{fill:#8C541A;}
	.st397{fill:#DE842A;}
	.st398{fill:#4D2E17;}
	.st399{fill:#D4A44F;}
	.st400{fill:#5C1916;}
	.st401{fill:#7D4C34;}
	.st402{fill-rule:evenodd;clip-rule:evenodd;fill:#9A5700;}
	.st403{fill-rule:evenodd;clip-rule:evenodd;fill:#381D00;}
	.st404{fill-rule:evenodd;clip-rule:evenodd;fill:#623500;}
	.st405{fill-rule:evenodd;clip-rule:evenodd;fill:#7E4500;}
	.st406{fill-rule:evenodd;clip-rule:evenodd;fill:#DC7C00;}
	.st407{fill-rule:evenodd;clip-rule:evenodd;fill:#BA6900;}
	.st408{fill-rule:evenodd;clip-rule:evenodd;fill:#FFBA61;}
	.st409{fill:#EBE9E8;}
	.st410{fill:#C4C1C0;}
	.st411{fill:#66392C;}
	.st412{fill:#A3A2A2;}
	.st413{fill:#855141;}
	.st414{fill:#E6CFC8;}
	.st415{fill:#BA7059;}
	.st416{fill:#DE9078;}
	.st417{fill:#D4A090;}
	.st418{fill:#704031;}
	.st419{fill:#D48F7B;}
	.st420{opacity:0.4196;fill:#702711;}
	.st421{fill:#A17B4D;}
	.st422{fill:#733E2E;}
	.st423{fill:#AD865E;}
	.st424{fill:#857F7F;}
	.st425{fill:none;stroke:#B0997B;stroke-width:5;stroke-linecap:round;stroke-linejoin:round;stroke-miterlimit:10;}
	.st426{fill:#B0997B;}
	.st427{fill:#9E553F;}
	.st428{fill:#AB5F48;}
	.st429{fill:#BFB1AC;}
	.st430{fill:#8C432D;}
	.st431{fill:#944E38;}
	.st432{fill:#A65A42;}
	.st433{fill:#C49C6A;}
	.st434{fill:#D4A87D;}
	.st435{opacity:0.2706;fill:#702711;}
	.st436{fill:#702711;}
	.st437{fill:#9E8F8A;}
	.st438{fill:#918B89;}
	.st439{fill:none;stroke:#69645F;stroke-width:4;stroke-miterlimit:10;}
	.st440{fill:#DECFCA;}
	.st441{opacity:0.4314;fill:#633424;}
	.st442{opacity:0.549;fill:#613325;}
	.st443{fill:#BFA686;}
	.st444{fill:url(#SVGID_00000013181196176960241830000004188220401666839478_);}
	.st445{filter:url(#Adobe_OpacityMaskFilter_00000178903413083797050920000011080873843712989863_);}
	.st446{clip-path:url(#SVGID_00000129169942625305062890000013642513698836728226_);}
	
		.st447{clip-path:url(#SVGID_00000070097226240059738760000014038759038282349494_);fill:url(#SVGID_00000072996240891060413290000007780199497895403683_);}
	
		.st448{mask:url(#SVGID_00000055693467661917087100000009182849623202566801_);fill:url(#SVGID_00000051341187973823011290000015250142804993181080_);}
	.st449{opacity:0.53;fill:url(#SVGID_00000160171417683190885830000000259449714337770943_);enable-background:new    ;}
	.st450{fill:url(#SVGID_00000024002285134201539310000007688678996846320523_);}
	.st451{fill:url(#SVGID_00000087377098556739508100000015951617795522926013_);}
	.st452{fill:url(#SVGID_00000029758058869817058030000014160706725686498469_);}
	.st453{fill:url(#SVGID_00000170961931955455420240000014263515257293254791_);}
	.st454{fill:url(#SVGID_00000132089961369328438950000012000459951846041001_);}
	.st455{fill:url(#SVGID_00000159428900743475651490000014301629790461026982_);}
	.st456{fill:url(#SVGID_00000067935843941409566560000001268463929782967445_);}
	.st457{fill:url(#SVGID_00000096053084633436027500000005406253904717446553_);}
	.st458{fill:url(#SVGID_00000019646221015830625440000011989314815071654816_);}
	.st459{fill:url(#SVGID_00000016790360330580391860000002958753107920635326_);}
	.st460{fill:url(#SVGID_00000153699554151519055650000001917683527363484309_);}
	.st461{fill:url(#SVGID_00000142169631426584186790000014174994609256690864_);}
	.st462{fill:url(#SVGID_00000018214830548833166150000002631844769287057303_);}
	.st463{fill:url(#SVGID_00000090999808320975668590000010353123036766261384_);}
	.st464{fill:url(#SVGID_00000043451733107543443930000009508450491364435389_);}
	.st465{fill:url(#SVGID_00000066517450768157023580000003118886308872159931_);}
	.st466{opacity:0.52;fill:url(#SVGID_00000036248594535095135230000018223318476773930681_);enable-background:new    ;}
	.st467{opacity:0.52;fill:url(#SVGID_00000119096722238127661230000013090838420296284575_);enable-background:new    ;}
	.st468{fill-rule:evenodd;clip-rule:evenodd;fill:#BEC8D4;}
	.st469{fill-rule:evenodd;clip-rule:evenodd;fill:#A4ACBB;}
	.st470{fill-rule:evenodd;clip-rule:evenodd;fill:#FACA64;}
	.st471{fill-rule:evenodd;clip-rule:evenodd;fill:#D4A258;}
	.st472{fill-rule:evenodd;clip-rule:evenodd;fill:#3D4558;}
	.st473{fill-rule:evenodd;clip-rule:evenodd;fill:#4D5568;}
	.st474{fill-rule:evenodd;clip-rule:evenodd;fill:#989FB1;}
	.st475{fill-rule:evenodd;clip-rule:evenodd;fill:#A5A5A5;}
	.st476{fill-rule:evenodd;clip-rule:evenodd;fill:#BEBDB9;}
	.st477{fill-rule:evenodd;clip-rule:evenodd;fill:#D1D1C9;}
	.st478{fill-rule:evenodd;clip-rule:evenodd;fill:#E8E7E3;}
	.st479{fill-rule:evenodd;clip-rule:evenodd;fill:#7F8698;}
	.st480{fill:#606060;}
	.st481{fill:#222222;}
	.st482{fill:#3D46A2;}
	.st483{fill:#F4F4F4;}
	.st484{opacity:0.4;fill:#D5D5D5;}
	.st485{fill:#919191;}
	.st486{fill:#797979;}
	.st487{fill:#424242;}
	.st488{clip-path:url(#SVGID_00000111163289168206734510000015583535695353473177_);fill:#A8A8A8;}
	.st489{clip-path:url(#SVGID_00000111163289168206734510000015583535695353473177_);fill:#424242;}
	.st490{clip-path:url(#SVGID_00000111163289168206734510000015583535695353473177_);fill:#919191;}
	.st491{clip-path:url(#SVGID_00000111163289168206734510000015583535695353473177_);fill:#D5D5D5;}
	.st492{fill:#C8D5DB;}
	.st493{fill:url(#SVGID_00000165193174288056000720000002808267892622379697_);}
	.st494{opacity:0.18;fill:#FFFFFF;}
	.st495{fill:#BFBFBF;}
	.st496{fill:url(#SVGID_00000005249173363299064290000009368956007849465226_);}
	.st497{fill:#F9A326;}
	.st498{opacity:0.5;fill:#7A44A1;}
	.st499{fill:#F2352F;}
	.st500{fill:#FCBC4B;}
	.st501{fill:#42BD5C;}
	.st502{fill:#94AFBD;}
	.st503{fill:none;stroke:#A9D7EE;stroke-width:0.8094;stroke-miterlimit:10;}
	.st504{fill:#FCA326;}
	.st505{fill:#FBE56F;}
	.st506{fill:#002265;}
	.st507{opacity:0.26;fill:#FFFFFF;}
	.st508{fill:#003798;}
	.st509{opacity:0.6;}
	.st510{opacity:0.6;fill:#FFFFFF;}
	.st511{fill:url(#SVGID_00000136380146393357347890000018348396731949291445_);}
	.st512{fill:url(#SVGID_00000106106790693905078530000002364587937714517178_);}
	.st513{fill:url(#SVGID_00000067947433166742719680000015899285842674491802_);}
	.st514{fill:url(#SVGID_00000120521278706885180080000017056337003179687615_);}
	.st515{fill:#D2530D;}
	.st516{fill:#F5712E;}
	.st517{fill:#E17D32;}
	.st518{fill:#D27E5A;}
	.st519{fill:url(#SVGID_00000003820028535954266560000003758561054284639131_);}
	.st520{fill:url(#SVGID_00000098186711829258862340000013583220107329141395_);}
	.st521{fill:url(#SVGID_00000096029670302519842450000009151763128048438163_);}
	.st522{fill:url(#SVGID_00000062905543755345016380000008130708771447132571_);}
	.st523{fill:#364766;}
	.st524{fill:url(#SVGID_00000152972319240376352700000004408241459733239170_);}
	.st525{fill:url(#SVGID_00000132074375885448030780000008214789366546482077_);}
	.st526{fill:url(#SVGID_00000021817380918188456200000010853726242090486919_);}
	.st527{fill:#ABB3C4;}
	.st528{fill:url(#SVGID_00000169542227190741053060000016671210521987668662_);}
	.st529{fill:url(#SVGID_00000181073744237580805560000012722852644995832755_);}
	.st530{fill:#50658B;}
	.st531{fill:url(#SVGID_00000027584984654204856400000007443551661653287585_);}
	.st532{fill:url(#SVGID_00000158735008032866840790000013408232546351841954_);}
	.st533{fill:url(#SVGID_00000151543342124633417680000007225949718351426473_);}
	.st534{fill:url(#SVGID_00000016794762461394683170000009851735855785229228_);}
	.st535{opacity:0.68;}
	.st536{filter:url(#Adobe_OpacityMaskFilter_00000064341480670927524670000006838223747020374425_);}
	.st537{mask:url(#SVGID_00000034770461199630740100000003118469637433785022_);}
	.st538{filter:url(#Adobe_OpacityMaskFilter_00000162334064996854006380000016733361941091073161_);}
	.st539{mask:url(#SVGID_00000067926183294092365000000009086233784804975235_);}
	.st540{filter:url(#Adobe_OpacityMaskFilter_00000058557867277760524730000017302005103666097575_);}
	.st541{mask:url(#SVGID_00000026155467442944178870000012997900271417167538_);}
	.st542{filter:url(#Adobe_OpacityMaskFilter_00000099645738040191010550000001885594641623122319_);}
	.st543{mask:url(#SVGID_00000014625667055482619820000016286898734782192279_);}
	.st544{filter:url(#Adobe_OpacityMaskFilter_00000111876812851526207450000005355112427401223559_);}
	.st545{mask:url(#SVGID_00000055671558063168743270000013337253502962215862_);}
	.st546{filter:url(#Adobe_OpacityMaskFilter_00000119095883181199478420000004331908939056174725_);}
	.st547{mask:url(#SVGID_00000080195078147713684150000012454989003767474819_);}
	.st548{filter:url(#Adobe_OpacityMaskFilter_00000114778959484122387170000000064670481855743380_);}
	.st549{mask:url(#SVGID_00000019653076438669404960000016032224285342610861_);}
	.st550{filter:url(#Adobe_OpacityMaskFilter_00000174597078337040884910000017110482764386470300_);}
	.st551{mask:url(#SVGID_00000026132380632970976700000008820466060913934492_);}
	.st552{filter:url(#Adobe_OpacityMaskFilter_00000067932989137664720110000010763809517179361421_);}
	.st553{mask:url(#SVGID_00000005978098586932143800000008683260158605106857_);}
	.st554{filter:url(#Adobe_OpacityMaskFilter_00000031166212651925829050000017754415055623693224_);}
	.st555{mask:url(#SVGID_00000132773561413744177150000001757072638010036153_);}
	.st556{opacity:0.74;}
	.st557{opacity:0.43;}
	.st558{filter:url(#Adobe_OpacityMaskFilter_00000123413850825860564510000001552034015210717615_);}
	.st559{mask:url(#SVGID_00000129924943440565189970000006042131303347689110_);}
	.st560{filter:url(#Adobe_OpacityMaskFilter_00000100357076228937588710000018367581667779985821_);}
	.st561{mask:url(#SVGID_00000122001134695115925720000003547312826367943309_);}
	.st562{filter:url(#Adobe_OpacityMaskFilter_00000127743651932787048470000014166519046387321021_);}
	.st563{mask:url(#SVGID_00000009556771422949528000000009558160707364501905_);}
	.st564{filter:url(#Adobe_OpacityMaskFilter_00000176757487879239199730000002635664772309128067_);}
	.st565{mask:url(#SVGID_00000136376995951718025070000015696887219092831920_);}
	.st566{filter:url(#Adobe_OpacityMaskFilter_00000165931353284029202170000010824774805054919080_);}
	.st567{mask:url(#SVGID_00000036232318772354468370000015204633749439356556_);}
	.st568{filter:url(#Adobe_OpacityMaskFilter_00000170250408893119837780000007002231475257890698_);}
	.st569{mask:url(#SVGID_00000180335652323930893810000015888587606529779855_);}
	.st570{filter:url(#Adobe_OpacityMaskFilter_00000024723053329215273700000014278081826274841774_);}
	.st571{opacity:0.26;mask:url(#SVGID_00000024000037055859359910000010862227221519119538_);}
	.st572{filter:url(#Adobe_OpacityMaskFilter_00000096768600609074018470000003911335532839575202_);}
	.st573{opacity:0.68;mask:url(#SVGID_00000036230491167922026510000007555434003913868210_);}
	.st574{filter:url(#Adobe_OpacityMaskFilter_00000057869932959128794260000006984524418393560970_);}
	.st575{opacity:0.68;mask:url(#SVGID_00000148630443914544361960000006363963008325732278_);}
	.st576{filter:url(#Adobe_OpacityMaskFilter_00000158746272741917272130000016786895085006165674_);}
	.st577{opacity:0.68;mask:url(#SVGID_00000129890844501274643250000013437815965053428910_);}
	.st578{filter:url(#Adobe_OpacityMaskFilter_00000048491000401898255330000004218934510792312466_);}
	.st579{mask:url(#SVGID_00000080917206964352907550000006713230886644184711_);}
	.st580{filter:url(#Adobe_OpacityMaskFilter_00000009579183419615654120000011846309352480044681_);}
	.st581{mask:url(#SVGID_00000125587950761113165120000002777877373910597306_);}
	.st582{filter:url(#Adobe_OpacityMaskFilter_00000101803786476623978130000009214416633809797795_);}
	.st583{mask:url(#SVGID_00000129917610087448857470000004119058179019480223_);}
	.st584{filter:url(#Adobe_OpacityMaskFilter_00000143586379626190961030000013568548824931837100_);}
	.st585{mask:url(#SVGID_00000011723761284633145040000001704396099968264885_);}
	.st586{filter:url(#Adobe_OpacityMaskFilter_00000010311182211890484190000009292085407532825234_);}
	.st587{opacity:0.68;mask:url(#SVGID_00000113314154961682788720000013176786559628895403_);}
	.st588{filter:url(#Adobe_OpacityMaskFilter_00000155105997499579797050000003634315688169895864_);}
	.st589{opacity:0.68;mask:url(#SVGID_00000124843419717939439920000010994555582396413105_);}
	.st590{filter:url(#Adobe_OpacityMaskFilter_00000178896034900151029140000017850401261244404361_);}
	.st591{filter:url(#Adobe_OpacityMaskFilter_00000085211981274497453320000009648880868306458545_);}
	.st592{filter:url(#Adobe_OpacityMaskFilter_00000054959057764820556600000003635929263591338668_);}
	.st593{filter:url(#Adobe_OpacityMaskFilter_00000078024895052070912970000017993161977019165366_);}
	.st594{filter:url(#Adobe_OpacityMaskFilter_00000160887977756457427520000001776903167370039196_);}
	.st595{filter:url(#Adobe_OpacityMaskFilter_00000030474110347103298560000008650499744912184223_);}
	.st596{filter:url(#Adobe_OpacityMaskFilter_00000103240810717229230680000005095873499959149982_);}
	.st597{mask:url(#SVGID_00000136370214674791635670000015606211666186126734_);}
	.st598{filter:url(#Adobe_OpacityMaskFilter_00000089571964596337751650000005870606800963332507_);}
	.st599{mask:url(#SVGID_00000032608082374354265350000010807337013152188601_);}
	.st600{filter:url(#Adobe_OpacityMaskFilter_00000067952076371051601470000016034332418129555841_);}
	.st601{mask:url(#SVGID_00000126310540564661430350000000817831886074788266_);}
	.st602{filter:url(#Adobe_OpacityMaskFilter_00000132067815018176346260000012121805105304796844_);}
	.st603{mask:url(#SVGID_00000165194083459875704260000015734604770224508838_);}
	.st604{filter:url(#Adobe_OpacityMaskFilter_00000001643294279702337890000013472268072063606454_);}
	.st605{mask:url(#SVGID_00000088843651617048208600000007205690185463565754_);}
	.st606{filter:url(#Adobe_OpacityMaskFilter_00000085973472080578384510000012708162517298482105_);}
	.st607{mask:url(#SVGID_00000125574667199337589350000010768908945425723294_);}
	.st608{filter:url(#Adobe_OpacityMaskFilter_00000085237724812715493990000002432295833831884441_);}
	.st609{mask:url(#SVGID_00000055673122819651421650000016387983237901629857_);}
	.st610{filter:url(#Adobe_OpacityMaskFilter_00000177475217778592771680000008173941855234630535_);}
	.st611{mask:url(#SVGID_00000158708269162043345550000016952269865014278324_);}
	.st612{filter:url(#Adobe_OpacityMaskFilter_00000039106145243742196170000003109527263209211839_);}
	.st613{mask:url(#SVGID_00000135667732000831967810000011452215276377810070_);}
	.st614{filter:url(#Adobe_OpacityMaskFilter_00000173873453712470920710000008646223880096453510_);}
	.st615{mask:url(#SVGID_00000098936213294167475880000013684431053667494039_);}
	.st616{filter:url(#Adobe_OpacityMaskFilter_00000041288324084754690860000016668532809298270100_);}
	.st617{mask:url(#SVGID_00000016044527234669950860000005887582029815084184_);}
	.st618{filter:url(#Adobe_OpacityMaskFilter_00000083056351723947861390000007428742165984106136_);}
	.st619{mask:url(#SVGID_00000178183664920149046230000017836011952789341059_);}
	.st620{filter:url(#Adobe_OpacityMaskFilter_00000044887296863974088560000016325978841112053900_);}
	.st621{mask:url(#SVGID_00000183942585417299872090000002939671149508842655_);}
	.st622{filter:url(#Adobe_OpacityMaskFilter_00000036233136353484432200000011099422195880181930_);}
	.st623{mask:url(#SVGID_00000096040034938887050560000008171714471752968078_);}
	.st624{filter:url(#Adobe_OpacityMaskFilter_00000067220034975242870520000014124104392190118327_);}
	.st625{mask:url(#SVGID_00000154405175087058899760000001591862985818915724_);}
	.st626{filter:url(#Adobe_OpacityMaskFilter_00000167393579547542049010000001068799308467111041_);}
	.st627{mask:url(#SVGID_00000150088662381022325810000007456809285932052920_);}
	.st628{filter:url(#Adobe_OpacityMaskFilter_00000074417554980954953320000008990159760772069543_);}
	.st629{opacity:0.26;mask:url(#SVGID_00000146475517611999823190000015496210071317585583_);}
	.st630{filter:url(#Adobe_OpacityMaskFilter_00000095320822422904601000000009343301159703392667_);}
	.st631{opacity:0.68;mask:url(#SVGID_00000055688244264029621790000009814961556930497961_);}
	.st632{filter:url(#Adobe_OpacityMaskFilter_00000098905216533535263420000009500191263722631560_);}
	.st633{opacity:0.68;mask:url(#SVGID_00000152952252720050073110000010012396411347805375_);}
	.st634{filter:url(#Adobe_OpacityMaskFilter_00000119112627446482456800000008550736230425268898_);}
	.st635{opacity:0.68;mask:url(#SVGID_00000134213435977923828290000014043113870035238319_);}
	.st636{filter:url(#Adobe_OpacityMaskFilter_00000157289109662745235150000013235004112080330683_);}
	.st637{mask:url(#SVGID_00000163033537285974344350000010213003203991399091_);}
	.st638{filter:url(#Adobe_OpacityMaskFilter_00000112599433624357446770000003473690769739840940_);}
	.st639{mask:url(#SVGID_00000107583422488469035720000017180067911015264645_);}
	.st640{filter:url(#Adobe_OpacityMaskFilter_00000105428115308110197210000008083278591667699594_);}
	.st641{mask:url(#SVGID_00000063617134231032483370000002895967873106872726_);}
	.st642{filter:url(#Adobe_OpacityMaskFilter_00000106126548216469374040000003101382820432543628_);}
	.st643{mask:url(#SVGID_00000027601491706200221860000009278173982868746149_);}
	.st644{filter:url(#Adobe_OpacityMaskFilter_00000013910370187980060580000013980127756260106371_);}
	.st645{opacity:0.68;mask:url(#SVGID_00000168828779485304796420000011300106868098844340_);}
	.st646{filter:url(#Adobe_OpacityMaskFilter_00000152981687732272111870000016981513407014175646_);}
	.st647{opacity:0.68;mask:url(#SVGID_00000015336719103527443080000014248652636680117126_);}
	.st648{filter:url(#Adobe_OpacityMaskFilter_00000051381776159904490940000012095897050354035643_);}
	.st649{filter:url(#Adobe_OpacityMaskFilter_00000001625920076435818590000016576819659956631424_);}
	.st650{filter:url(#Adobe_OpacityMaskFilter_00000124141708189828118090000015928542812235941040_);}
	.st651{filter:url(#Adobe_OpacityMaskFilter_00000044142030037355255850000017253113938447719319_);}
	.st652{filter:url(#Adobe_OpacityMaskFilter_00000161593878767062298010000013930809293456810392_);}
	.st653{filter:url(#Adobe_OpacityMaskFilter_00000155827384275632754280000008314900783726395016_);}
	.st654{fill:#FEEC6F;}
	.st655{fill:#D7E2F3;}
	.st656{fill:#E4C644;}
	.st657{fill:#F8E363;}
	.st658{fill:#F6DF5E;}
	.st659{fill:#2E4C78;}
	.st660{fill:#E7CC49;}
	.st661{fill:#F2DA52;}
	.st662{fill:#D5B339;}
	.st663{fill:#E8CE4A;}
	.st664{fill:#3A6191;}
	.st665{fill:#4974AB;}
	.st666{fill:#2F4D79;}
	.st667{fill:#30507D;}
	.st668{fill:#EED64F;}
	.st669{fill:#F3DB50;}
	.st670{fill:#25436B;}
	.st671{fill:#304D7D;}
	.st672{fill:#26446A;}
	.st673{fill:#2E4C7B;}
	.st674{fill:#354F90;}
	.st675{fill:#D3DEEE;}
	.st676{fill:#334E8F;}
	.st677{fill:#FEED6F;}
	.st678{fill:#E1C23F;}
	.st679{fill:#EDD551;}
	.st680{fill:#FCE868;}
	.st681{fill:#E5C945;}
	.st682{fill:#CB9F29;}
	.st683{fill:#091B40;}
	.st684{fill:#385685;}
	.st685{fill:#304E7A;}
	.st686{fill:#A8BFE1;}
	.st687{fill:#466EA5;}
	.st688{fill:#20497F;}
	.st689{fill:#E1C341;}
	.st690{fill:#F5DE55;}
	.st691{fill:#F1D94F;}
	.st692{fill:#FCE86A;}
	.st693{fill:#ECD44E;}
	.st694{fill:#FDEF6B;}
	.st695{fill:#E2C442;}
	.st696{fill:#E5CA43;}
	.st697{fill:none;stroke:#5E5858;stroke-width:3;stroke-linecap:round;stroke-linejoin:round;stroke-miterlimit:10;}
	.st698{fill-rule:evenodd;clip-rule:evenodd;fill:none;stroke:#5E5858;stroke-width:3;stroke-linejoin:round;stroke-miterlimit:10;}
	.st699{opacity:0.15;fill:#4F4F4F;}
</style>
<path class="st0" d="M1858.5,315.3l-0.7-3.1l0,0l-4.1-17.1l-3.3-4.4l-1.2-22.3l2.5,1.7l0-5.5l-2.9-2.1l-0.7-13.1l2.3,1.9l0.1-15.2
	l-3.2-3l-0.6-10.2l0.7-13.3l8.8,8.2l6.3-4.1l-1-12.5l-39.7-43.8l-57.6-45l-126.8-55.7l-33.6-6.4l-22.1,4.1l-0.1,13.5l5.6-0.8
	l-24.6,30.8l-39.2,85.5l-9.5,1.2l-25.2,9.6l-7.8,11.7l0,10.1l0,0l0,10.7l4.5,7.1l-3.4,59.5l-1.3,16.2l-28.9,3.7l-1.8,8.9h0
	l-3.3,16.7l0.8,1l0,0l6.1,7.3l0.3,0l-0.1,1.4l-12.5-0.1l2.7-25.6l-15.7-2.1l-25.2-0.1l-1,28.7l-22.7,1l-3.6-25.1l0,0l-1-6.8l0,0l0,0
	l-110.1,10.6l-3.3,0.3l-87.2,11.1l-115.7,33.8l-0.5,0.2l-31.9,12.8l0,0l-9.1,3.6l-12.3,4.9l-11.3,11.1l0,0l-4.2,4.1l-2.5,2.4
	l-0.1,0.6l-0.4,4.4l0,0l-3.9,40.8l0.8,48.9l-3.3,43.4l-3.2,0.8l-6.3,9.8l2.8,4.8l0,0l2.4,4.1l3-1.5l-3.3,71.6l3,31.2l0,0l0,0
	l5.8-0.2v0l9.4-0.3v0l2.5-0.1l24.6-0.9v0l6.1-0.2v0l21-0.8v0l5.3-0.2l4.2-0.2l0,0l9.4-0.4l0,0l23.3-0.9l0,0l0.2,0l7.8-0.3l0,0h0l0,0
	l13.8-0.5c0,0,0,0,0,0l17.7-0.7l0,0l3.3-0.1l0,0l6.4-0.3l0,0l3.5-0.1l0,0l25.9-1l8-0.7v0l6.6-0.6l0,0l3-0.3l1.1-0.1l-0.2,3.8h0v0
	l4.2-0.1l23.5-0.5l0,0l28.2-0.6l53.2-1.1l0.1,0l29-3.3l-1,2.7l75.6-3.1l106.7-1.3l0,0l4.7-0.1l11.8-0.1l12.6-0.1l0,0l25.1-0.3l0,0
	l32.3-0.3v0l19.8-0.2l38.9-0.4l0,0l4.9-0.1l5.7-0.1l3.6,0v0l12.4,0.1l0,0l17.3,0.1l0,0l6.9,0.1l35.7,0.3l0,0l22.1,0.2v0l18.3,0.2
	l13.3,0.1l0,0l16.3,0.1v0l15.4,0.1l0,0l11,0.1l5.3-79.7l1.8-28.9l4,1.2l3.2-21l0,0l2.6-17l-7.3-2.4l4.8-78l0.7-7.2l0.8,1l4.3-11.1
	l2.2-15.9l-4.9-5.2l-0.2-57.2l2.6,3.5l4.3-4.8l0,0l0.6-0.7L1858.5,315.3z"/>
<path class="st0" d="M649.1,208.3c13-9,55.1-17.5,95.5-10.5c40.4,6.9,50.9-9.9,95.3-5.7c-11.8-5.7-38.3-2.1-38.3-2.1
	c15.7-9.6,38-7.2,38-7.2s-11.8-7.2-54.3,4.2c-42.5,11.5-79.2-20.3-136.2,4.7C651.1,195,650.4,200.6,649.1,208.3z"/>
<path class="st0" d="M0,651.5h17.5h11.5h21.1h8.4h18.8h7.6h6.6h1.4h0H103h15.7h0.9h18.8h23.7h39h7.6h9.1h7.9h4.7h3.9h23.3h4.1h14.7
	h4.9l0,3.5c-1.3,0.8-3.1,2.5-4.4,3.8c-2.8,0.3-4.3,0.7-4.3,1.1c0,1.3,17.5,2.4,39.1,2.4s39.1-1.1,39.1-2.4c0-0.5-2.3-0.9-6.3-1.3
	l11.1-58.5c8.7,0.9,17.3,1.8,26,2.7c0,0,0,0,0.1,0c0.2,0,0.3,0,0.5,0c0.3,0,0.5,0.1,0.8,0.1c0.2,0,0.3,0,0.5,0.1
	c15.8,1.7,31.6,3.6,47.4,5.6c-2.4,21.3-2.8,41.8-2.8,41.8c0.2,0.2,0.5,0.5,0.8,0.7c2.1,1.8,4.3,3.4,6.7,4.7c-0.1,0.5-0.1,1-0.2,1.5
	c-0.6,0.2-1.4,0.5-2.4,1c-7.1,0.4-11.4,1-11.4,1.7c0,1.3,17.5,2.4,39.1,2.4s39.1-1.1,39.1-2.4c0-0.3-1.1-0.7-3.1-1
	c-3.9-4.8-8.3-23.9-12.9-43.3c58.5,8.3,116.4,18.3,173.6,30.2h0c40.4-7.8,77-13.6,107.8-16.7c25.8-0.3,57.5,2.7,93.4,8.1
	L732.1,536.6l-54.3-20.5l0,0v0l-11.4-0.7l-5.1-66.5l8.8-9.4v-1.2v-24.8v-5.8h7.5h2.7l-25-36.3l13.9-14.8v-0.5v-38.4v-3.3v-1.7h4.5
	l-2.4-13.6h-4.1v-5h8.4l-6.5-8.6h-0.8L651,224.9h1.1l-1.5-8.7h-1.5V188h-1.6v28.2H646l-1.5,8.7h1.1l-17.3,60.7l-0.8,0l-6.5,8.6h7.9
	v5h-3.5l-2.4,13.6h4.5v2.3h-20.1h-55.8v-0.6v-1.7h4.5l-2.4-13.6h-4.1v-5h8.4l-6.5-8.6h-0.8l-17.3-60.7h1.1l-1.5-8.7h-1.5v-35.4
	c10.1-5.5,39.1-10.1,66.8-5.4c28.6,4.8,36.1-5.9,67.5-2.9c-8.3-3.8-27.1-1.7-27.1-1.7c11.1-6,26.9-4.3,26.9-4.3s-8.3-4.7-38.5,2.3
	c-29.9,6.9-55.8-13.3-95.7,1.6v-4.8h-1.6v50.6h-1.5l-1.5,8.7h1.1l-17.3,60.7l-0.8,0l-6.5,8.6h7.9v5h-3.5l-2.4,13.6h4.5v4.9v39
	l0.8,0.9H489h-7.3h-8.9H471v-3.8h8.9v-3.9l-14.7-20.4l3-3.2v-0.5v-38.4V284v-1.7h4.5l-2.4-13.6h-4.1v-5h8.4l-6.5-8.6h-0.8
	l-17.3-60.7h1.1l-1.5-8.7h-1.5v-15.5c32.7-13.6,70.2-7.4,70.2-7.4s-4.6-2.8-14.3-5c-16.4-2.7-34-5.1-55.9,3.1v-3.3h-1.6v28.2h-1.5
	l-1.5,8.7h1.1l-17.3,60.7l-0.8,0l-6.5,8.6h7.9v5h-3.5l-0.6,3.3l-0.8-1h-42.1v-19.3v-10.2h6.3l1.9-19h0l0.5-4.9
	c2.6-0.5,4.5-2.8,4.5-5.6v-13.3c0-1.8-0.9-3.5-2.2-4.5l0.1-1.2h-3.6h-4.5v-10.1H382v-4.7h10.4l-8-10.5h-1l-15.9-55.8
	c10.4-2.3,21.1-5,38.5-1.4c-9.1-6.9-29.7-4.5-29.7-4.5c12.2-9.5,29.5-5.6,29.5-5.6s-9-8.3-41.2,1.1l-4.9-17.2V50
	c10.7-8.8,42.8-15.1,73.6-5.4c31.4,9.9,39.6-7.8,74-0.7c-9.1-6.9-29.7-4.5-29.7-4.5c12.2-9.5,29.5-5.6,29.5-5.6s-9.1-8.5-42.2,1.4
	C432,45.1,403.6,9,359.7,32.1v-2.2h-1.6v54.4l-5.5,19.2c-28.5,0.8-55.3-25.4-94.3-4.8v-2.2h-1.6v55.1H256L231.9,236h-1l-8,10.5h10.3
	v4.7h-3.1v10.1H227h-3.6l0,0.1c-1.2,0.3-2.1,1.4-2.1,2.8v2.8v13.3v2.8c0,1.6,1.3,2.9,2.9,2.9h1.7l0.3,2.7h0l2.1,21.1h3.4v49.4h-6v39
	c-17.2,0.9-38,2-59.5,3.4c-0.7-0.3-1.5-0.5-2.2-0.7c-1.2-0.6-3.3-0.7-5.8-0.3c-2.5-0.6-7.3,0-11.2,2.2c-2.8,0.2-5.6,0.4-8.4,0.6
	l-0.2-6.6c0,0,0,0,0,0l-0.3-8.1l2.7-0.1l2.1-6.9l-2,0.1l1.5-18.3l0.7,0.1l2-5.5l-13.3-1c0.9-1.1,1.4-2.6,1.2-3.7
	c1.6,0.1,3.4-0.5,4.1-1.8c-1,2.8,4.4,0.6,5.5-0.2c1.4-1.1,4.3-3.1,4.9-0.1c0.2,1-0.7,2.8-0.6,4.1c0.1,1.5,0.4,2.8,0.5,4.3
	c0.2,4,3,8,7,5.4c0.7,5.2,4.7,5.2,9.3,5c2.1-0.1,4.5-0.4,6.5-1.4c-0.3,2.1,0.8,4.5,2.6,6c3.9,3.1,8.5,1.2,12.5-0.2
	c2.2-0.8,4.4-0.5,6.4-1.8c2.6-1.7,4.8-4.4,6.3-7.1c2.2-3.7,2.7-7.3-2-7.6c2.5-3.7,6.5-8.5,4.4-13.6c-1.5-3.7-8.1-6.3-11.8-6.2
	c0.8-0.5,1.4-1.2,1.3-2.2c-1.9-0.3-4.4-0.3-6.2,0.6c0.2-0.1,0.3-0.3,0.5-0.5c0,0,0.1-0.1,0.1-0.1c0.1-0.2,0.3-0.4,0.4-0.6
	c0,0,0-0.1,0-0.1c0.1-0.2,0.2-0.4,0.3-0.6c0-0.1,0.1-0.2,0.1-0.2c0.1-0.2,0.2-0.5,0.2-0.7c0-0.1,0.1-0.2,0.1-0.4
	c0-0.1,0.1-0.3,0.1-0.4c0.2-1,0.4-2,0.4-2.7c0-2.7-1.1-5.1-3.8-6c-1.7-0.6-2.5,0.3-3.2-1.1c-0.8-1.6,0.2-4.9-0.6-6.9
	c-3.1-7.4-14-10.7-20.7-12.4c-8.8-2.2-18.9-3-27.8-1c-4.5,1-10.7,3.4-11,9c-0.1,1.7,0.6,3.2,0.7,4.8c-4,0.5-10.5-1-13.5,2.7
	c-1.9,2.4-0.3,4.1-0.3,6.6c0,1.5,0.6,0.3-0.7,1.8c-1.1,1.2-3.4,1.4-3.9,3.2c-0.5,1.7,1,2.9,1.5,4.4c0.5,1.6,0.8,3.8-0.5,5
	c0.1,0.3,0.2,0.6,0.4,0.9c-3.8-0.1-8,1.6-10.1,4.8c0,0.1-0.1,0.1-0.1,0.2c-0.2,0.3-0.3,0.6-0.5,0.8c0,0.1-0.1,0.1-0.1,0.2
	c-0.1,0.3-0.2,0.6-0.3,1c0,0,0,0.1,0,0.1c-0.1,0.4-0.2,0.8-0.2,1.2c0,0,0,0,0,0c0,0,0,0,0,0c0,0.4-0.1,0.9,0,1.4
	c0.1,1.6,1.1,4.4,2.6,7l-13.7,1.2l1.2,3l0.6,0l3.7,24.3l-0.8,0.1l1.1,3l5.4-0.1l0.4,1.9l1.1,13.5c0,0,0,0,0,0l0.2,2.3
	c-25.2,2.3-45.9,4.9-55.9,7.7c-6.5,1.8-12.4,5.5-17.8,10.6c-6.6,5.3-13,12.4-18.7,21L0,651.5z M359.7,45.2V34.5
	C360.2,37.3,360.1,40.8,359.7,45.2z M258.4,111.7V101C259,103.7,258.8,107.3,258.4,111.7z M279.5,246.6h10.3l-8-10.5h-1l-22.5-79.1
	v-40.5c10.7-8.8,42.8-15.1,73.6-5.4c6.8,2.1,12.5,3,17.6,3.1l-15.2,53.5h-1l-8,10.5h10.3v4.7h-3v10.1h-3.3h-2.8h-0.8l0,0.1
	c-1.2,0.3-2.1,1.4-2.1,2.8v2.8V212v2.8c0,1.6,1.3,2.9,2.9,2.9h1.7l0.3,2.7h0l2.1,21.1h3.9V271h-21.6l0.1,0.1h-4.9l-2.8,4.8h-0.7
	l-1.8,4.4l-21.3,37.4v-7.8h3.4l2.3-23.9c2.6-0.5,4.5-2.8,4.5-5.6v-13.3c0-1.8-0.9-3.5-2.2-4.5l0.1-1.2h-3.6h-4.5v-10.1h-2.1V246.6z
	 M342.4,658.2c-1.5-1.1-3.2-2.2-4.4-2.8c-4.8-21-8.2-35.2-7.6-39.1c0.1-0.6,0-1.7-0.2-3.2c0,0,0,0,0,0c0,0,0-0.1,0-0.1
	c0-0.1,0-0.2,0-0.3c0-0.1,0-0.3-0.1-0.4c0-0.1,0-0.3,0-0.4c0-0.1,0-0.3-0.1-0.4c0-0.1,0-0.3-0.1-0.4c0-0.1,0-0.3-0.1-0.4
	c-0.1-0.6-0.2-1.2-0.3-1.9c0-0.1,0-0.2,0-0.3c0-0.2-0.1-0.4-0.1-0.6c0-0.1,0-0.2,0-0.3c0-0.1,0-0.2-0.1-0.4c0.4-0.2,0.8-0.3,0.9-0.5
	c0.2,0,0.4,0,0.5,0l0.2-2.7c-0.2,0-0.5,0-0.7,0c-0.3-1.6-0.8-3.9-1.3-6.5c8.2,0.8,16.4,1.6,24.6,2.4L342.4,658.2z"/>
<path class="st0" d="M1595.9,527.4c0.1-0.2,0.2-0.4,0.3-0.5C1596.1,527,1596,527.2,1595.9,527.4z"/>
<path class="st0" d="M1596.2,526.9C1596.3,526.7,1596.3,526.7,1596.2,526.9L1596.2,526.9z"/>
<path class="st0" d="M1595.7,527.8c0-0.1,0.1-0.1,0.1-0.2C1595.8,527.7,1595.7,527.7,1595.7,527.8z"/>
<path class="st0" d="M1595.8,527.6c0-0.1,0.1-0.1,0.1-0.2C1595.9,527.5,1595.8,527.6,1595.8,527.6z"/>
<path class="st0" d="M1595.6,527.9c0,0,0.1-0.1,0.1-0.1C1595.7,527.8,1595.6,527.9,1595.6,527.9z"/>
<path class="st0" d="M1594.8,529.4c0.3-0.6,0.6-1.1,0.8-1.4C1595.4,528.4,1595.1,528.9,1594.8,529.4z"/>
<path class="st0" d="M1672,633.3c3.3-0.8,5.9-3.3,7.4-6.8c2.6-1.7,6.2-4,11.2-7c4.1-2.4,6.4-4.9,7.7-7.1c14.3,6,28.3,13.6,41.1,21.6
	c1.7,2.4,4.7,5.8,9.3,9.5c25,32.4,53.6,57.4,83,44.7c8-3.5,15.4-18.5,21.1-33.6c7,11.8,9.1,22.2,9.1,22.2
	c47.9-58.2,11.8-114.9,11.8-114.9c-5.1,5.5-14.4,9.8-26.4,12.5c0.3-0.2,0.5-0.5,0.8-0.7c0.1-0.1,0.2-0.2,0.3-0.3
	c0.3-0.3,0.6-0.6,0.9-0.8c0.1-0.1,0.2-0.2,0.3-0.3c0.3-0.3,0.6-0.5,0.8-0.8c0.1-0.1,0.2-0.2,0.2-0.2c0.3-0.3,0.6-0.7,0.9-1
	c0.1-0.1,0.1-0.1,0.2-0.2c0.2-0.3,0.5-0.5,0.7-0.8c0.1-0.1,0.2-0.2,0.2-0.3c0.2-0.2,0.4-0.5,0.5-0.7c0.1-0.1,0.1-0.2,0.2-0.2
	c0.2-0.3,0.4-0.6,0.6-0.8c0,0,0-0.1,0.1-0.1c0.2-0.2,0.3-0.5,0.4-0.7c0-0.1,0.1-0.2,0.1-0.2c0.1-0.2,0.2-0.3,0.3-0.5
	c0-0.1,0.1-0.1,0.1-0.2c0.1-0.2,0.2-0.4,0.2-0.6l31.2-139.8c0,0-0.1,0-0.2,0.1c0,0-0.1,0-0.1,0.1c-0.1,0-0.1,0.1-0.2,0.2
	c0,0-0.1,0.1-0.1,0.1c-0.1,0.1-0.2,0.2-0.3,0.3c0,0,0,0-0.1,0.1c-0.2,0.1-0.3,0.3-0.5,0.4c-0.1,0.1-0.2,0.1-0.2,0.2
	c-0.1,0.1-0.2,0.2-0.3,0.3c-1.5,1.3-3.7,3.3-6.5,5.6c0,0,0,0-0.1,0c-1.3,1.1-2.8,2.3-4.3,3.5c0,0,0,0-0.1,0c-1.6,1.2-3.2,2.5-5,3.7
	c0,0,0,0-0.1,0c-1.8,1.3-3.6,2.5-5.5,3.7c0,0,0,0-0.1,0c-0.6,0.4-1.3,0.8-1.9,1.2c0,0,0,0,0,0c-1.3,0.8-2.6,1.5-4,2.3c0,0,0,0,0,0
	c-0.7,0.3-1.3,0.7-2,1c0,0-0.1,0-0.1,0.1c-1.4,0.7-2.7,1.3-4.1,1.9c0,0,0,0,0,0c-0.7,0.3-1.3,0.5-2,0.8c-0.1,0-0.1,0-0.2,0.1
	c-1.4,0.5-2.8,1-4.2,1.4c0,0,0,0,0,0c-0.7,0.2-1.3,0.4-2,0.5c-0.1,0-0.2,0-0.3,0.1c-1.4,0.3-2.8,0.6-4.2,0.7l0,0
	c-11.9,1.3-23.4-3.7-31-21.6c-4.3-10.1-10-18.2-16.6-24.7c0,0-0.1-0.1-0.1-0.1c-0.6-0.5-1.1-1.1-1.7-1.6c-0.1-0.1-0.2-0.1-0.2-0.2
	c-1.7-1.6-3.5-3-5.3-4.4c-0.1-0.1-0.2-0.1-0.3-0.2c-0.5-0.4-1.1-0.8-1.6-1.2c-0.2-0.1-0.4-0.3-0.5-0.4c-0.5-0.4-1.1-0.7-1.6-1.1
	c-0.1-0.1-0.2-0.1-0.3-0.2c-33.3-21.5-79.9-14.6-100.6-10c3.2-2,5.3-5.5,5.5-9.6c0.2-6.5-4.9-12-11.4-12.2
	c-6.5-0.2-12,4.9-12.2,11.4c-0.1,2.8,0.8,5.5,2.4,7.6L1615.3,489l-6.3,11.9c0,0,0.4-0.1,1-0.2l-12.6,28.1l-2.8,0.8
	c0-0.1,0.1-0.2,0.1-0.2c0,0.1-0.1,0.2-0.1,0.2l-2,0.6l-5.8,15.5l0.3,0.3c-0.1,0.3-0.1,0.6-0.2,0.9c-1.8,3.5-3.4,8-4.7,12.9
	c-9.6-10.4-20.8-28.4-43-44.8c-30.6-22.6-47.1,4.4-52.5,16.3c-2.1-3.9-8.9-14.5-19.9-13.7c0,0-0.7,15.4,4.9,22.1
	c-3.7-3.3-11.9-10-17.2-10.9c0,0,0,0,0,0.1c0,0,0,0,0,0c0,0.1,0,0.1,0,0.2c0,0,0,0,0,0c0,0.1,0,0.2,0,0.4c0,0,0,0,0,0
	c0,0.2,0,0.3,0,0.5c0,0,0,0,0,0c0,0.2,0,0.4,0,0.6c0,0,0,0,0,0c0.1,2.6,0.5,7.5,1.8,12.2c0,0,0,0,0,0l0,0
	c1.6,5.8,4.7,11.3,10.5,11.6c0,0-2.5,2.8-4.8,6.7c-2.6,4.3-4.7,10-2.4,14.3c0.1,0.3,0.3,0.6,0.4,0.9c0,0,0,0,0,0.1
	c0.1,0.3,0.2,0.7,0.3,1c0,0,0,0.1,0,0.1c0.1,0.4,0.1,0.8,0.2,1.2c0,0,0,0.1,0,0.1c0.1,0.4,0.1,0.9,0.1,1.3c0,0,0,0.1,0,0.1
	c0,0.5,0.1,1,0.1,1.5c0,0,0,0.1,0,0.1c0,1.1,0,2.3-0.1,3.6c0,0,0,0,0,0c0,0.6-0.1,1.3-0.1,2c0,0,0,0.1,0,0.1c0,0.7-0.1,1.3-0.2,2
	c0,0,0,0,0,0.1c-0.1,0.7-0.1,1.4-0.2,2.1c0,0,0,0,0,0c-0.2,1.9-0.5,3.9-0.8,5.9l0,0c-0.2,1-0.3,2.1-0.5,3.1l0,0
	c-0.2,1.5-0.5,3-0.7,4.4l0,0c-1.8,10-3.8,18.6-3.8,18.6s17.6,22.7,33-3.6l2.3,1.2c0,0,0.1-0.2,0.3-0.6c0.8-1.4,2.7-4.9,4.3-8.7
	c0.2-0.5,0.5-1.1,0.7-1.7c0.2-0.6,0.4-1.1,0.6-1.7c0.1-0.3,0.2-0.6,0.3-0.8c0.2-0.6,0.3-1.1,0.5-1.6c0.5-1.9,0.7-3.6,0.5-5l7.9,0.4
	l0,0.1c-1.8,14.9,0.1,27.8,2.9,41.1l-24.7,5.2l-1.1-0.6c0,0-9.6-9.9-20,1.2c-1.2,1.3-2.2,2.8-3.1,4.4l-3.8,0.8l-11.5-4.9l-15.8,6.7
	l-4.7-1.4l-4.7-1.6c-0.8-0.3-1.7-0.6-2.5-0.8l-3.5-1.2l-1.8,0.5v-3.4l2.1-1.3l3.1-21c0.4-2.4-0.6-4.8-2.3-6.3c0-0.3,0-0.6,0-1
	c0-10.7-7.6-19.6-17.7-21.6c-0.3-0.5-0.6-1-0.7-1.6c-0.1-0.2-0.1-0.4-0.1-0.5c0-0.1,0-0.2,0-0.3c0-0.2,0-0.4,0-0.5
	c0-0.2,0-0.3,0-0.5c0.1-0.3,0.2-0.7,0.4-1c0.4-0.5,1-1,1.9-1.4c0.1-0.1,0.3-0.1,0.4-0.2c3.2-1.1,9.8-1.2,22.3,1.3
	c29.6,5.8,33.2-18,33.3-29.5c0-3.5-0.3-5.9-0.3-5.9l0,0c0,0,0,0,0,0s0,0,0,0c-3.8,6.6-7.6,11.1-11.5,14.1c-0.4,0.3-0.8,0.6-1.2,0.8
	c-3.1,2.1-6.2,3.3-9.3,3.9c-0.4,0.1-0.8,0.1-1.2,0.2c-0.8,0.1-1.5,0.1-2.3,0.2c-0.8,0-1.5,0-2.3,0s-1.5-0.1-2.3-0.2
	s-1.5-0.2-2.3-0.4c-0.8-0.1-1.5-0.3-2.3-0.5c-0.8-0.2-1.5-0.4-2.3-0.6c-0.7-0.2-1.5-0.4-2.2-0.7c-1.9-0.6-3.7-1.2-5.5-1.8
	c-0.7-0.2-1.4-0.5-2.2-0.7c-0.4-0.1-0.7-0.2-1.1-0.3c-0.7-0.2-1.4-0.4-2.1-0.6c-7-1.9-13.6-2.4-19.3,3.2
	c-10.1,9.7-5.1,18.9,0.2,24.6c-4.3,1.6-8,4.6-10.6,8.4l-0.5-3l0,0l-4.5-28.8c-0.2,0.2-0.4,0.3-0.6,0.5c-0.1,0-0.1,0.1-0.2,0.1
	c-0.1,0.1-0.3,0.2-0.4,0.3c-0.1,0-0.2,0.1-0.2,0.1c-0.1,0.1-0.2,0.1-0.4,0.2c-0.1,0-0.2,0.1-0.3,0.1c-0.1,0.1-0.2,0.1-0.4,0.2
	c-0.1,0-0.2,0.1-0.3,0.1c-0.1,0-0.2,0.1-0.4,0.1c-0.1,0-0.2,0.1-0.3,0.1c-0.1,0-0.2,0.1-0.4,0.1c-0.1,0-0.2,0.1-0.3,0.1
	c-0.1,0-0.2,0.1-0.4,0.1c-0.1,0-0.2,0-0.3,0.1c-0.1,0-0.2,0-0.4,0.1c-0.1,0-0.2,0-0.3,0c-0.1,0-0.2,0-0.4,0c-0.1,0-0.2,0-0.3,0
	c-0.1,0-0.2,0-0.4,0c-0.1,0-0.2,0-0.3,0c-0.1,0-0.3,0-0.4,0c-0.1,0-0.2,0-0.3,0c-0.2,0-0.4,0-0.6,0c-0.1,0-0.2,0-0.3,0
	c-0.1,0-0.2,0-0.4,0c-0.1,0-0.2,0-0.4,0c-0.1,0-0.2,0-0.3,0c-0.1,0-0.2,0-0.4-0.1c-0.1,0-0.2,0-0.3-0.1c-0.1,0-0.3-0.1-0.4-0.1
	c-0.1,0-0.2,0-0.3-0.1c-0.1,0-0.3-0.1-0.4-0.1c-0.1,0-0.2,0-0.3-0.1c-0.1,0-0.3-0.1-0.4-0.1c-0.1,0-0.2,0-0.2-0.1
	c-0.2,0-0.3-0.1-0.5-0.1c-0.1,0-0.1,0-0.2-0.1c-0.2,0-0.3-0.1-0.5-0.2c0,0-0.1,0-0.1,0c-3.1-0.9-6.4-2.2-9.8-3.1c0,0,0,0,0,0l0,0
	c-2.4-0.6-4.8-1-7.2-0.9c0,0,0,0-0.1,0c-0.6,0-1.1,0.1-1.7,0.1c0,0-0.1,0-0.1,0c-4.1,0.6-8.4,2.7-12.6,7.5c-0.1,0.1-0.1,0.1-0.2,0.2
	c-0.3,0.4-0.7,0.8-1,1.2c-0.5,0.6-1,1.2-1.5,1.7c-0.1,0.1-0.3,0.3-0.4,0.4c-0.5,0.5-0.9,1-1.4,1.5c-0.1,0.1-0.3,0.2-0.4,0.4
	c-0.4,0.3-0.7,0.7-1.1,1c-0.2,0.2-0.4,0.4-0.7,0.6c-0.3,0.2-0.6,0.5-0.9,0.7c-0.4,0.3-0.8,0.6-1.3,0.9c-0.2,0.1-0.4,0.2-0.5,0.4
	c-0.3,0.2-0.7,0.4-1,0.6c-12.6,7.6-26.7,4.2-32.5,2.2l-0.3-2c2.2-1.4,3.6-4,3.1-6.7c-0.6-3.7-4-6.2-7.6-5.6c-3.7,0.6-6.2,4-5.6,7.6
	c0.4,2.8,2.6,4.9,5.2,5.5l13.5,91.3l-6,3.1l2,9.4c0.8,3.6,3.5,6.4,6.9,7.3l31,209.7c0.2,1.4,1.5,2.3,2.9,2.1
	c1.4-0.2,2.3-1.5,2.1-2.8l-30.8-208.3l10.7,1.2c0.3,0.3,0.6,0.6,1,1l5.7,6.8l0.4-1.1c8.2,7.4,20.7,17.1,31.3,18.3l0,0c0,0,0,0,0,0
	c0.3,0,0.7,0.1,1,0.1c0,0,0,0,0,0c0.3,0,0.7,0,1,0c0,0,0,0,0.1,0c0.3,0,0.6,0,0.9,0c0,0,0.1,0,0.1,0c0.3,0,0.6,0,0.9-0.1
	c0,0,0.1,0,0.1,0c0.3,0,0.6-0.1,0.8-0.1c0.1,0,0.1,0,0.2,0c0.3-0.1,0.5-0.1,0.8-0.2c0.1,0,0.1,0,0.2-0.1c0.2-0.1,0.5-0.1,0.7-0.2
	c0.1,0,0.1-0.1,0.2-0.1c0.2-0.1,0.5-0.2,0.7-0.3c0.1,0,0.2-0.1,0.2-0.1c0.2-0.1,0.4-0.2,0.6-0.3c0.1,0,0.2-0.1,0.3-0.2
	c0.2-0.1,0.4-0.2,0.6-0.3c0.1-0.1,0.2-0.1,0.3-0.2c0.2-0.1,0.4-0.2,0.5-0.4c0.1-0.1,0.2-0.2,0.3-0.3c0.1-0.1,0.2-0.2,0.3-0.2
	l-3.3,13.2l0.1,0.4l0,0h0l3,8.5h0l3,8.4l-6.1,72.1h7.1c-0.5,1.3-1,2.6-1.5,3.8l0,0l0,0c0.4-0.2,0.7-0.4,1.1-0.6
	c0.1,0,0.1-0.1,0.2-0.1c0.3-0.1,0.5-0.2,0.8-0.3l-0.8,12.5c-0.9,0.8-1.7,1.7-2.3,2.6c-2,2.6-3.2,5.9-3.2,9.5c0,3.9,1.4,7.4,3.7,10.2
	l-1.4,23h0l-1,17.2l-24.1,11.4l-0.4,1.3c-25.1,1.8-41.4,4.6-41.4,7.9c0,5.4,45,9.7,100.5,9.7s100.5-4.4,100.5-9.7
	c0-3.5-19.3-6.6-48.2-8.3l-2.2-3.1l-1.1-12.5l-7.4-38.5c1.2-2.2,1.9-4.8,1.9-7.5c0-4.7-2-8.9-5.3-11.7l-0.8-4.8
	c2.2,1.4,4.5,2.7,6.6,3.8c0,0,0.1,0,0.1,0.1c0.9,0.4,1.7,0.9,2.6,1.2c0,0,0,0,0,0c0.4,0.2,0.8,0.3,1.2,0.5c0.1,0,0.1,0,0.2,0.1
	c0.4,0.2,0.8,0.3,1.2,0.4c0,0,0,0,0,0c0,0,0,0,0,0c0.2,0.1,0.4,0.1,0.6,0.2c0.1,0,0.2,0.1,0.3,0.1c0.2,0.1,0.4,0.1,0.5,0.2
	c0.1,0,0.2,0,0.3,0.1c0.2,0,0.4,0.1,0.5,0.1c0.1,0,0.2,0,0.2,0.1c0.2,0,0.4,0.1,0.6,0.1c0.1,0,0.1,0,0.2,0c1.2,0.2,2.3,0.2,3.4,0
	c0,0,0,0,0.1,0c0.2,0,0.4-0.1,0.6-0.1c0,0,0,0,0,0c1.5-0.4,2.8-1.2,4-2.7c0,0,0,0,0,0c0.2-0.2,0.3-0.4,0.5-0.6c0,0,0-0.1,0.1-0.1
	c0.1-0.2,0.3-0.4,0.4-0.7c0-0.1,0.1-0.1,0.1-0.2c0.1-0.2,0.2-0.4,0.4-0.7c0-0.1,0.1-0.2,0.1-0.3c0.1-0.2,0.2-0.4,0.3-0.7
	c0.1-0.1,0.1-0.3,0.2-0.4c0.1-0.2,0.2-0.4,0.2-0.6c0.1-0.2,0.1-0.4,0.2-0.6c0.1-0.2,0.1-0.3,0.2-0.5c0.1-0.4,0.2-0.8,0.3-1.3
	c0.1-0.5,0.3-1.1,0.5-1.6c0.1-0.2,0.1-0.3,0.2-0.5c0.1-0.3,0.3-0.7,0.4-1c0.1-0.2,0.2-0.4,0.2-0.6c0.1-0.3,0.3-0.6,0.5-0.9
	c0.1-0.2,0.2-0.3,0.3-0.5c0.2-0.4,0.5-0.8,0.7-1.2c0.2-0.2,0.3-0.4,0.5-0.7c0.1-0.2,0.3-0.3,0.4-0.5c0.2-0.2,0.4-0.4,0.6-0.7
	c0.1-0.1,0.2-0.3,0.4-0.4c0.2-0.2,0.4-0.5,0.7-0.7c0.5-0.5,1.1-0.9,1.6-1.4c0.1-0.1,0.1-0.1,0.2-0.2c1.2-0.9,2.5-1.6,3.8-2.3
	c0,0,0.1,0,0.1-0.1c0.6-0.3,1.3-0.6,1.9-0.9c0.1,0,0.2-0.1,0.4-0.1c0.7-0.3,1.4-0.5,2.2-0.8c0,0,0,0,0,0c0.8-0.2,1.6-0.5,2.3-0.7
	c0.1,0,0.3-0.1,0.4-0.1c0.7-0.2,1.3-0.3,2-0.4c0.2,0,0.4-0.1,0.5-0.1c0.8-0.1,1.6-0.3,2.4-0.4c1.2-0.2,2.4-0.3,3.7-0.4
	c0.1,0,0.1,0,0.2,0c1.2-0.1,2.4-0.2,3.6-0.2c0.1,0,0.2,0,0.4,0c1.2,0,2.4-0.1,3.6,0c0.1,0,0.3,0,0.4,0c1.2,0,2.4,0,3.5,0.1
	c0.2,0,0.3,0,0.5,0c1.2,0.1,2.3,0.1,3.5,0.2c0.2,0,0.3,0,0.5,0c1.2,0.1,2.3,0.2,3.4,0.3c0.1,0,0.3,0,0.4,0c1.2,0.1,2.3,0.3,3.4,0.4
	c0.1,0,0.2,0,0.2,0c1.2,0.1,2.3,0.3,3.4,0.5c-12.7-6.3-24.2-20-34.2-37c1.9-2.3,3.8-4.7,5.8-7.3l8.7,18.9c0,0,20.5-4.4,22.5-11.4
	l0.7-8c0.1-1.5-1.1-2.9-2.7-2.8l-1,0.1c0.6-3-0.4-6.9-2.7-8.8c-2-1.6-4.7-9.5-7.2-17.9c3.4-7.1,6.2-14.2,8.3-21.4
	c14.6,1.9,36.6,4.1,48.4,1.9c15.9,9.6,35,18.4,54.8,24.1l12,35.1l-15.6,14.5l-10.7,10.2c-2.3,3.1,0.6,7.5,4.3,6.5l41.3-11.2
	c0.7-0.2,1.2-0.5,1.7-0.9c0.8-0.7,1.3-1.7,1.4-2.8c0.1-2.2-1.3-4.7-2.6-7.7c-0.1-0.3-0.3-0.7-0.4-1c-0.3-0.7-0.5-1.4-0.8-2.1
	c-0.5-1.4-0.8-3-0.8-4.6c0-1.4-0.1-2.8-0.1-4.2c0-0.4,0-0.8,0-1.1c0-1.1-0.1-2.3-0.1-3.4c0-0.2,0-0.5,0-0.7
	c-0.1-1.3-0.1-2.6-0.2-3.8c0-0.3,0-0.6-0.1-1c-0.1-1-0.1-2-0.2-2.9c0-0.3-0.1-0.6-0.1-0.9c-0.1-1.2-0.2-2.4-0.3-3.5
	c0-0.2,0-0.4-0.1-0.7c-0.1-0.9-0.2-1.9-0.3-2.8c0-0.3-0.1-0.6-0.1-1c-0.1-1-0.2-2-0.4-3c0-0.1,0-0.2,0-0.3c-0.1-0.4-0.1-0.8-0.2-1.2
	c3.2,0.4,6.5,0.6,9.7,0.8c0,0.3,0.1,0.6,0.1,0.9c0,0.2,0.1,0.3,0.1,0.5c0.1,0.6,0.2,1.2,0.4,1.8c0.7-0.6,2.3-1.3,4.4-1.9
	c0.5-0.1,1-0.3,1.5-0.4c0.8-0.2,1.6-0.4,2.5-0.6c3.7,39.1,15.6,86.2,15.6,86.2c3.8,16.1-38.2,31.3-38.2,31.3
	c-5.1,2.2-8.2,5.7-10.2,9c-78.7,0.8-139.9,7.3-139.9,15.1c0,8.4,70.2,15.2,156.8,15.2c86.6,0,156.8-6.8,156.8-15.2
	c0-5.3-28-10-70.5-12.7c7.5-13.8,17.4-29.8,24.7-33.3c12.1-5.7,7.7-29.3-2-31.4c-5.4-1.2-3.9-17.8-1.5-32.2c0.8,0.1,1.6,0.2,2.4,0.3
	c1.5,0.2,3,0.3,4.4,0.3c0.7,0,1.4,0,2.1,0c0,0-1.1-3.2-1.5-7.2c-0.1-0.6-0.1-1.2-0.2-1.8c0-0.3,0-0.6,0-0.9s0-0.6,0-0.9
	c0-0.3,0-0.6,0-0.9c0-0.3,0-0.6,0.1-0.9c0.3-3.7,1.5-7.4,4.8-9.4c10.3-6.6,17.4-14.4,21.6-23.1c0-0.1,0.1-0.2,0.1-0.3
	c0.4-0.8,0.7-1.6,1.1-2.4c0.1-0.2,0.1-0.3,0.2-0.5c0.3-0.8,0.7-1.7,0.9-2.6c0-0.1,0-0.1,0.1-0.2c0.3-1,0.6-1.9,0.9-2.9
	c0-0.1,0-0.2,0.1-0.2c0.2-0.9,0.4-1.7,0.6-2.6c0-0.2,0.1-0.4,0.1-0.6c0.2-0.8,0.3-1.7,0.4-2.5c0-0.1,0-0.2,0.1-0.4
	c0.1-1,0.2-2,0.3-3c0-0.1,0-0.2,0-0.3c0.1-0.9,0.1-1.8,0.1-2.7c0-0.2,0-0.5,0-0.7c0-0.8,0-1.6,0-2.5c0-0.2,0-0.4,0-0.6
	c0-1-0.1-2-0.2-3.1c0-0.1,0-0.2,0-0.3c-0.1-0.9-0.2-1.9-0.3-2.8c0-0.3-0.1-0.6-0.1-0.9c-0.1-0.8-0.3-1.6-0.4-2.4
	c0-0.3-0.1-0.5-0.1-0.8c-0.2-1-0.4-2.1-0.7-3.1c0-0.1,0-0.2-0.1-0.2c0-0.2-0.1-0.3-0.1-0.5c4.5,4.6,6.6,15.2,0.9,37.9
	c-14,55.5,55,99.7,55,99.7s-28-21-13-80.6c15-59.6-22.2-77.7-43.1-70.3c-1.3,0.5-2.5,0.9-3.7,1.2c-0.1-0.3-0.3-0.7-0.4-1
	c-0.1-0.3-0.3-0.7-0.4-1c-0.3-0.7-0.5-1.3-0.8-2c-0.2-0.4-0.3-0.8-0.5-1.1c-0.3-0.6-0.5-1.1-0.8-1.7c-0.2-0.4-0.4-0.8-0.6-1.2
	c-0.3-0.5-0.5-1-0.8-1.5c-0.2-0.4-0.4-0.8-0.6-1.1c-0.3-0.5-0.5-1-0.8-1.4c-0.2-0.4-0.4-0.7-0.6-1.1c-0.3-0.5-0.6-0.9-0.9-1.4
	c-0.2-0.3-0.4-0.7-0.6-1c-0.3-0.5-0.7-1-1.1-1.5c-1.1-1.5-2.2-2.9-3.3-4.3c0,0,0,0,0,0c0,0,0,0,0,0c-0.2-0.2-0.3-0.4-0.5-0.6
	c-0.4-0.5-0.9-1-1.3-1.4c0,0,0,0,0,0c0,0,0,0,0,0c-0.1-0.1-0.3-0.3-0.4-0.5c0,0,0,0,0,0s0,0,0,0c-0.5-0.5-1-1-1.4-1.5c0,0,0,0,0,0
	c0,0,0,0,0,0c-0.1-0.1-0.2-0.2-0.3-0.3c0,0,0,0,0,0c0,0,0,0,0,0c-0.5-0.5-1-1-1.6-1.5c0,0,0,0,0,0c0,0,0,0,0,0
	c-0.1-0.1-0.1-0.1-0.2-0.2c-0.6-0.5-1.1-1-1.7-1.5c0,0,0,0,0,0c0,0,0,0,0,0c0,0-0.1-0.1-0.1-0.1c-0.6-0.5-1.2-1-1.8-1.4c0,0,0,0,0,0
	c0,0,0,0,0,0c0,0,0,0,0,0c0,0,0,0,0,0c0,0,0,0,0,0c-0.6-0.5-1.3-0.9-1.9-1.4c0,0,0,0,0,0l0,0c-6-4.2-12.5-6.9-19.2-8.6
	c0,0-0.1,0-0.1,0c-2.1-0.5-4.2-1-6.3-1.3c0,0,0,0,0,0c-1-0.2-2-0.3-3-0.4c-0.1,0-0.2,0-0.2,0c-2-0.2-4-0.4-6-0.5c-0.1,0-0.3,0-0.4,0
	c-0.9,0-1.9-0.1-2.8-0.1c0,0-0.1,0-0.1,0c-1,0-2,0-2.9,0c-0.1,0-0.3,0-0.4,0c-0.8,0-1.6,0.1-2.4,0.1c-0.2,0-0.4,0-0.5,0
	c-0.9,0.1-1.9,0.1-2.8,0.2c0,0,0,0,0,0c0,0,0,0,0,0c-0.8,0.1-1.5,0.1-2.3,0.2c-0.2,0-0.3,0-0.5,0.1c-0.6,0.1-1.2,0.1-1.8,0.2
	c-0.2,0-0.4,0.1-0.6,0.1c-0.6,0.1-1.1,0.1-1.7,0.2c-0.2,0-0.4,0.1-0.6,0.1c-0.6,0.1-1.1,0.2-1.7,0.3c-0.2,0-0.3,0.1-0.5,0.1
	c-0.6,0.1-1.2,0.2-1.8,0.3c-0.1,0-0.2,0-0.3,0.1c-2.2,0.4-4.3,0.8-6.3,1.3c0,0,0,0,0,0c0,0,0,0,0,0c-0.7,0.2-1.3,0.3-2,0.5
	c-0.1,0-0.1,0-0.2,0c-0.6,0.2-1.2,0.3-1.8,0.5c0,0-0.1,0-0.1,0c-6.1,1.6-10.9,3.2-13.7,4.1c-0.1,0-0.2,0.1-0.2,0.1
	c-3.5-10.1-7.6-17.6-10.4-22c1.3-0.4,2.3-1.5,2.5-2.9c0.2-1.9-1.1-3.6-3-3.8l-1.1-0.1c0.3-0.5,0.7-1.1,1.1-1.7
	C1665.6,633.1,1668.9,634,1672,633.3z"/>
<path class="st0" d="M396.4,899.3c-2.6-1.7-5.2-3.3-6-3.9c-0.3-0.2-0.2-0.6-0.2-0.7v-3.6v-3.6c0-11.1,0-22.3,0-33.4
	c2.8,0.2,5.6-0.1,8.3-0.3c1.9-0.1,4.8,0.8,5.1-1.5c0.2-1.6,0.2-8.7-0.1-10.1c-0.1-0.4-0.3-0.8-0.6-1c-0.7-0.6-4.6-2.2-5.7-2.8
	c-7-3.4-14.2-6.3-21.4-9.2V722.6c2.3,0,6.3,0.4,8.3,0c2-0.4,0.8-3.1,0.8-4.4c0-1.7,0.3-9.1-0.3-9.9c-0.3-0.4-0.7-0.4-1.2-0.5
	c-2.1-0.3-5.4,0-7.7,0c-0.3-2.8,0.4-6.3,0-9c-0.1-0.6-0.1-1-0.7-1.3c-4.5,0.1-10.1-0.7-14.6-0.2c-0.6,0.1-1.6,0.3-1.8,1
	c-0.6,2.4,0.4,6.8,0,9.5c-23.4,0-46.9-0.1-70.3,0c-0.3-2.7,0.5-6.5,0-9c-0.1-0.6-0.5-1-1-1.3c-4.4,0.1-9.9-0.7-14.2-0.2
	c-0.6,0.1-1.6,0.3-1.8,1c-0.5,2,0.1,5.5,0.1,8.1c0,0.5-0.1,0.9-0.1,1.4c-0.1,0-0.2,0-0.3,0c-2.4,0.3-5.6-0.3-8,0
	c-0.5,0.1-1,0.1-1.3,0.7c-0.5,1-0.1,7.9-0.1,9.7c0,1.4-1.1,3.2,0.3,4.1c0.3,0.2,0.3,0.3,0.8,0.3c2.5,0.3,6.1,0,8.7,0
	c-0.1,13.9,0.1,27.7,0,41.6c-1.6,0.2-3-0.1-4.6-0.3c-6.4-1-13-3.2-19.2-5c-4.6-11.1-7-23.2-11.2-34.5c-2.7-7.1-6.6-11.5-14.1-13.8
	c-0.8-0.2-0.6-0.1-1,0.5c-0.9-1.9-2.6-1.4-3.9-2.9c6.8-1.6,10.3-8.7,11.6-15c0.5-2.5,0.8-8.6,1.8-10.5c0.1-0.1,0.8-0.5,1-1.1
	c1.2-2.5,3.6-6.8,1.9-9.4c0.9-0.2,3.7-1.6,4.4-2.3c4.8-4.7-2.8-10.8-6.6-13c-10.3-6.2-29-9.2-39-1.2c-3.3,2.6-6.7,8.9-3.3,12.6
	c0.6,0.6,1.1,0.6,1.2,0.6c0,0,0,0,0.1,0c0.1,0.2-0.6,2.4-0.7,3.1c-0.1,1.9-0.1,4.5,0.3,6.4c-2.3,4.2-0.1,9.5,4.6,10.5l0.3,5.6
	c-0.6,2.4-1.3,6-1.6,8.5c-1.4-0.1-2.5-0.1-3.7,0.7c-0.4,0.2-0.4,0.7-0.8,0.9c-0.6,0.3-2.2,0.4-3,0.7c-1.8,0.5-3.7,0.8-5.6,1.3
	c-9.9,2.8-17.4,4.8-21.7,15.1c-4.8,11.2-8.6,41.6-3.9,52.7c1.7,4.1,6.1,7.9,10.6,7.9c0,0.2-0.3,0.3-0.3,0.3c-0.8,2.3,0,5.2-0.3,7.5
	c-0.3,2.4-1.9,6.1-2.5,8.8c-3.7,17.5-3.2,36.7-5.1,54.5c0,0.3-0.1,0.6,0.2,0.8c0.7,0.5,4.8,0.8,6,1.1c0.6,0.1,1.1,0,1,0.8l-3.6,55
	c0.3,0.1,0.9,1,1,1l-0.8,6.2c-13.4,1.6-22,4-22,6.7c0,4.8,27.8,8.8,62,8.8c34.3,0,62-3.9,62-8.8c0-2.7-8.9-5.2-22.8-6.8
	c-4.3-1.9-9.5-2.8-12.4-6.4c0.2-0.1,0.3,0,0.3-0.3c1,0.2,0.6-0.5,0.6-1.1c1.6-14.8,1.9-29.8,3-44.7c1.2-0.3,2.5-0.4,3.8-1
	c1.8-0.8,2.2-0.7,2.1-2.8c-0.8-14.1-2.5-29-3.9-43.2c-1.1-11.1-2.5-22.1-3.6-33.2c0.2-0.2,0.9-1.3,1-1.6c0.5-0.1,1.2,0.1,1.6,0
	c1.3-0.3,2.4-1.4,2.9-2.6c1.9-0.2,3.7-0.3,5.6-0.3c0.3,0.8,1.5,0.8,2.2,0.9c5.9,0.9,12.3,1,18.2,0.7c4-0.2,6.3,0.4,9-3.3
	c0.2,0,0.4,0,0.7,0v35.7h-12.1c-0.3-0.5-1.2-0.3-1.8-0.3c-1.2,0-5.5-0.3-6.1,0.3c-0.3,0.3-0.3,0.3-0.3,0.8c-0.3,2.6-0.1,6.8,0,9.5
	c0,0.6-0.3,1.3,0.7,1.1c0.4,0.5,8.1,3.9,9.5,4.6c0,13.9,0,27.7,0,41.6v11.1v2.9c0,0,0.1,0.6-0.2,0.7c-2.1,0.6-6.1-0.7-8.3,0.3
	c-0.3,0.1-0.7,0.4-0.8,0.7c-0.3,0.7-0.3,8.4-0.2,9.7c0.1,0.7,0.3,1.3,0.8,1.8c1.3,0.8,2.5,1.7,3.8,2.5c-6,2.4-9.4,5.2-9.4,8.2
	c0,9.8,37.5,17.7,83.8,17.7s83.8-7.9,83.8-17.7C414.6,906.2,407.8,902.4,396.4,899.3z"/>
<path class="st0" d="M959.7,1001.7l0.1-18l0.1-20.9c-0.1,0-0.1,0-0.2,0l0.4-166.4l0.2-93.1c1.6,0.1,3.4,0.2,5.1-0.2
	c0.2,0,0.4-0.1,0.5-0.1c0.2,0,0.4-0.1,0.6-0.1c1.4-0.4,2.7-1.1,3.7-2.6c0.3-0.4,0.4-0.8,0.4-1.1c0-0.4,0-0.7,0-1.1
	c-0.1-0.7-0.2-1.5,0.2-2.2c0.4-0.8,1-1.7,1.5-2.7c0.5-1,0.9-2,0.8-3c-0.1-0.7-0.3-1.5-0.4-2.2c-0.1-0.8-0.1-1.5,0.2-2.1
	c0.5-0.8,1.1-1.4,1.6-2.1c0.4-0.7,0.7-1.4,0.3-2.5c-0.3-0.8-0.7-1.4-1-2c-0.3-0.7-0.4-1.3-0.1-2.2c0.5-1.2,0.9-2.6,0.9-3.9
	c0-0.6-0.1-1.1-0.3-1.6c-0.1-0.3-0.3-0.6-0.5-0.9c-0.1-0.2-0.3-0.4-0.5-0.6c0,0,0-0.1-0.1-0.1c-0.1-0.1-0.3-0.3-0.4-0.4
	c-1.8-1.4-5.1-2.3-8.5-2.5c-0.5-0.7-1.2-1.3-2.1-1.6c-0.1,0-0.2-0.1-0.3-0.1c-0.1,0-0.2-0.1-0.3-0.1c-0.4-0.1-0.7-0.1-1.1-0.2
	l0.1-64.6c0.2,0.3,0.4,0.6,0.5,1c0.2,0.4,0.4,0.8,0.6,1.2c0,0,0,0,0,0s0,0,0,0v0v0c0,0,0,0.1,0.1,0.1s0,0.1,0.1,0.1
	c0.5,0.6,1.3,0.8,2.2,0.8c0.9,0,1.8-0.1,2.5-0.1c0.5,0,1.6,0.1,2.7,0.2s2.1,0.1,2.4,0c0.1,0,0.2-0.1,0.3-0.2
	c0.1-0.1,0.2-0.2,0.3-0.3c0.4-0.4,0.4-0.8,0.3-1.2c-0.1-0.4-0.4-0.8-0.7-1.2c-0.1-0.2-0.3-0.3-0.4-0.5s-0.2-0.4-0.1-0.6
	c0-0.2,0.1-0.3,0.2-0.5c0.1-0.2,0.2-0.3,0.2-0.5c0-0.2-0.1-0.3-0.2-0.3c-0.1-0.1-0.3-0.1-0.4-0.1c-0.2,0-0.4,0-0.7,0
	c-0.2,0-0.4,0-0.7,0c-0.3,0-0.6,0-0.9,0c-0.3,0-0.6,0-0.9,0c-0.4,0-0.7,0-1.1,0s-0.7,0.1-1.1,0.1c-0.3,0-0.6,0-0.9,0.1
	c-0.3,0.1-0.5,0.2-0.6,0.6c-0.1,0.2-0.1,0.5-0.2,0.7c-0.1,0.2-0.2,0.4-0.5,0.5c-0.2,0.1-0.3,0-0.5-0.2c-0.1-0.1-0.2-0.3-0.3-0.5
	c-0.1-0.2-0.3-0.3-0.4-0.5c-0.1-0.2-0.3-0.4-0.4-0.6c0-0.1-0.1-0.2-0.2-0.3c-0.1-0.1-0.1-0.2-0.2-0.2c-0.1-0.1-0.1-0.3-0.2-0.4
	c0-0.1,0-0.3,0-0.4c0-0.1,0.1-0.4,0.1-0.5c0.1-0.2,0.1-0.4,0.3-0.4c0.2-0.1,0.4-0.2,0.7-0.2s0.5,0,0.7,0c0.2,0,0.3,0,0.4,0.1
	c0.1,0,0.1,0.1,0.2,0.2c0,0,0,0.1,0.1,0.1s0,0.1,0.1,0.1c0.3,0.5,0.7,0.8,1.1,0.9c0.5,0.1,1,0,1.5,0h2h2c0.1,0,0.3,0,0.4,0
	c0.2,0,0.3,0,0.4-0.1c0.1-0.1,0.1-0.3,0-0.5c-0.1-0.2-0.2-0.4-0.2-0.5c-0.1-0.2-0.1-0.3-0.2-0.5s-0.1-0.4-0.2-0.5
	c-0.1-0.2-0.2-0.4-0.3-0.6c-0.1-0.2-0.2-0.4-0.4-0.5c-0.2-0.1-0.3-0.2-0.4-0.3c-0.1-0.1-0.2-0.2-0.3-0.3c0,0,0-0.1,0-0.1
	c0,0,0-0.1,0-0.1c-0.1-0.4,0.1-1,0.2-1.5c0.2-0.5,0.4-1,0.6-1.3c0.1-0.1,0.1-0.2,0.2-0.3c0.1-0.1,0.1-0.2,0.1-0.3
	c0-0.1,0.1-0.2,0-0.3c0-0.1,0-0.2-0.1-0.4c-0.2-0.3-0.4-0.6-0.6-1s-0.3-0.7-0.2-1.1c0.1-0.4,0.4-0.6,0.7-0.9
	c0.3-0.2,0.6-0.5,0.7-0.8c0.1-0.5,0.1-0.9-0.1-1.4s-0.5-0.9-0.7-1.2c-0.2-0.2-0.3-0.4-0.5-0.5s-0.4-0.3-0.5-0.5
	c-0.1-0.2-0.2-0.4-0.3-0.6c-0.1-0.2-0.1-0.5-0.2-0.7c-0.1-0.5-0.2-1-0.3-1.5c-0.1-0.5-0.3-1-0.6-1.4c-0.4-0.6-0.9-1.1-1.4-1.5
	c-0.5-0.5-1.1-0.9-1.7-1.3c-0.7-0.5-2.2-0.8-3.5-1s-2.7-0.3-3-0.3c-0.6,0-2.5,0.5-4.4,1.2s-3.8,1.3-4.6,1.7
	c-1.3,0.6-2.6,1.6-3.6,2.8s-1.8,2.5-2.2,3.9c-0.1,0.3-0.2,0.7-0.3,1.1c-0.1,0.4-0.2,0.8-0.3,1.1c-0.3,1.5-0.4,2.9-0.2,4.2
	c0.2,1.4,0.6,2.7,1.3,4c0.6,1.1,1.6,1.5,2.8,1.7c1.1,0.3,2.4,0.4,3.3,1.1l0,8.3l0,9.8l0.1,49.8c-0.4,0-0.8,0-1.1,0.1
	c-1.6,0.2-3.2,0.5-4.6,1c-1.8,0.7-3.6,2.1-4.8,3.9c0,0,0,0.1-0.1,0.1c-0.4,0.4-0.9,0.7-1.4,1c0-0.1,0-0.3-0.1-0.4
	c-0.1-0.2-0.2-0.3-0.4-0.4c-0.2-0.1-0.4,0-0.6,0s-0.3,0.2-0.4,0.4c0,0.1-0.1,0.3-0.1,0.4c-0.6-0.5-1.3-0.7-2-0.6
	c-0.9,0.1-1.8,0.5-2.6,0.7c-0.2,0.1-0.5,0.1-0.7,0.2c0,0,0-0.1,0-0.1c0-0.2-0.1-0.4-0.3-0.5c-0.1-0.1-0.3-0.2-0.6-0.2
	c-0.2,0-0.3,0.1-0.5,0.2c-0.1-0.2-0.3-0.3-0.5-0.3c-0.2,0-0.4,0-0.6,0.1c-0.2,0.1-0.3,0.3-0.3,0.5c-0.4-0.2-0.8-0.4-1.4-0.6
	c-0.7-0.2-8.7-1.9-16.7-3.4c-8-1.5-16-2.8-16.6-2.2c-0.5,0.4-0.9,1-1.4,1.6c-0.1,0.1-0.1,0.2-0.2,0.3c-0.7-0.1-1.5-0.3-2.3-0.4
	c-2-0.3-4.1-0.6-4.9-0.5c-0.7,0.1-1.2,0.4-1.7,0.7c-0.5,0.3-0.9,0.7-1.5,0.9c-1,0.4-1.3,0-1.3-0.6s0.1-1.5,0-2.1
	c-0.2-0.7-0.4-1.2-0.8-1.5c-0.4-0.3-0.9-0.5-1.6-0.6c-0.6-0.1-1.3,0-1.8,0c-0.5-0.1-0.9-0.3-1.1-1c-0.2-0.8,0-1.6,0.1-2.3
	s0.3-1.6,0.2-2.3c-0.1-0.7-0.2-1.4-0.4-2.2c-0.2-0.7-0.4-1.4-0.6-2.1c-0.4-1.4-0.8-2.8-1.2-4.2s-0.8-2.8-1.2-4.2
	c-1.6-5.5-3.3-11.1-4.9-16.7c-1.6-5.6-3.1-11.2-4.5-16.7c-0.1-0.5-0.3-1.1-0.4-1.6c0.7-0.6,1.6-1.6,2.4-2.8c0.8-1.2,1.3-2.5,1.1-3.4
	c-0.1-0.6-0.7-1.1-1.4-1.5c-0.6-0.4-1.4-0.8-1.8-1.2c-1.1-1-2.2-2-3.3-3.1c-1.1-1.1-2.2-2.2-3.1-3.3c-3.9-4.6-7.4-8.2-11.2-11.3
	c-3.8-3.1-7.9-5.8-13.2-8.8c-1.5-0.8-3-1.6-4.4-2.4c0.1-0.1,0.2-0.1,0.3-0.2c0.4-0.2,0.7-0.3,1.1-0.5c0.2,0,0.4,0.1,0.6,0.1
	c3.9,0,7.8-0.2,11.7-0.5s7.9-0.5,11.8-0.5c2.6,0,5.2,0,7.8,0c2.6,0,5.2,0,7.8,0c3.9,0,7.3-0.1,10.6,0.3c3.3,0.4,6.6,1.3,10.1,3.3
	c1.2,0.7,3.8,2.1,6.5,3.3s5.3,2,6.4,1.5c-0.4-2.3-1.2-4.6-2.1-6.8c-0.4-1-0.9-2-1.5-3c0,0,0,0,0,0s0-0.3,0-0.7c0-0.4,0-0.8-0.1-1
	c-0.2-0.6-0.5-1.1-0.7-1.7c-0.3-0.6-0.5-1.1-0.8-1.7c-0.3-0.7-0.6-1.3-1-2c-0.3-0.6-0.7-1.3-1.1-1.9c-0.3-0.5-0.6-1-1-1.5
	c-0.3-0.5-0.7-1-1.1-1.4c-1.7-1.6-4.9-3.6-7.9-5.2c-3-1.6-5.6-2.8-6-3c-0.4-0.1-0.7-0.3-1.1-0.4s-0.7-0.2-1.1-0.4
	c-0.3-0.1-0.7-0.2-1-0.2c-0.3,0-0.6,0.1-0.9,0.4c0,0-0.1,0.2-0.1,0.2c0,0.1-0.1,0.2-0.1,0.2l0,0c-4-1.5-8.8-3.1-13.6-4.7
	c-10.8-3.6-22.2-6.9-27.1-8.1c0.1-1.4-0.1-2.7-0.5-4h20.7c4.1,0,8.4-0.1,12.1-0.7c3.7-0.6,6.9-1.6,8.8-3.5c0.2-0.2,0.3-0.5,0.3-0.7
	s-0.1-0.5-0.3-0.8c-0.2-0.2-0.5-0.3-0.7-0.3c-0.2,0-0.5,0.1-0.7,0.2c-0.4-0.2-1-0.3-1.7-0.4c-1.1-0.1-2.2,0.1-2.8,0.1
	c-0.7,0-2.4-0.1-4.2-0.2c-1.8-0.1-3.6-0.3-4.4-0.4c-1.6-0.3-3.3-0.6-4.9-0.9c-1.6-0.3-3.2-0.7-4.8-1.2c-0.8-0.3-2.6-0.8-4.4-1.2
	c-1.8-0.5-3.6-0.9-4.3-1.1c-0.8-0.2-2.9-0.7-5.1-1.1c-1.6-0.3-3.3-0.7-4.4-0.9c0.1-0.8,0.1-1.6,0.1-2.3c0-0.4,0-0.9,0-1.3
	c0-0.9,0-1.7,0-2.6c0-0.9,0.1-1.7,0.2-2.5c0-0.2,0.1-0.5,0.1-0.8c0-0.3,0.1-0.5,0.1-0.8h0c0.1-0.5,0.1-0.9,0.2-1.4s0.1-0.9,0.2-1.4
	c0.2-1,0.4-2,0.7-3c0.3-1,0.6-1.9,1.1-2.8c-2.1-1-4.7-1.3-7.3-1.4c-2.6-0.1-5.3,0.1-7.6,0.1c-3.6,0-7.1,0-10.7,0
	c-3.6,0-7.1,0-10.7,0c-1.9,0-3.8,0-5.8,0c-1.9,0-3.8-0.1-5.8-0.1c-1.4,0-3-0.1-4.6,0s-3,0.5-4.2,1.4c-0.1,0.1-0.2,0.1-0.3,0.2
	c-0.1,0.1-0.2,0.2-0.2,0.3c0,0.1,0.1,0.2,0.3,0.3c0.1,0.1,0.3,0.2,0.4,0.3c0.1,0.1,0.2,0.2,0.2,0.3c0.1,0.1,0.1,0.2,0.2,0.3
	c0.2,0.3,0.3,0.5,0.5,0.8c0.1,0.3,0.3,0.5,0.4,0.8c0.2,0.5,0.4,0.9,0.6,1.4c0.2,0.5,0.4,0.9,0.6,1.4c0,0,0,0.1,0,0.1s0,0.1,0,0.1
	c0.2,0.6,0.4,1.2,0.5,1.8c0.2,0.6,0.3,1.3,0.4,1.9c0.3,1.7,0.5,3.5,0.6,5.2c0.1,1,0.1,1.9,0.1,2.8c-0.3,0-0.6,0.1-0.9,0.1
	c-3.1,0.5-10,2.3-16.6,4c-6.6,1.7-13,3.3-15.2,3.5c-0.8,0.1-2.7-0.1-4.3,0c-0.9,0.1-1.7,0.3-2.1,0.7c-0.1-0.1-0.1-0.2-0.2-0.2
	c-0.2-0.2-0.5-0.2-0.8-0.2c-0.3,0-0.5,0.2-0.7,0.4c-0.2,0.2-0.2,0.5-0.2,0.8c0.3,1.9,2,2.9,4.2,3.5c2.2,0.6,4.7,0.7,6.6,0.7
	c1.3,0,5.4,0,10.8,0.1c5.4,0.1,12,0.1,18.6,0.2c-0.2,0.5-0.4,1.1-0.6,1.6c-0.3,0.8-0.5,1.6-0.8,2.4c-0.5,0.1-0.8,0.5-0.9,0.9
	c-0.2,0.6-0.2,1.3-0.2,2c0,0.1,0,0.1,0,0.2c0,0.1,0,0.1,0,0.2c0,0.8-0.2,2.8-0.1,4.7c0,1.8,0.3,3.5,1,3.7c0,0.1,0,0.1,0,0.2
	c0.2,1.8,0.1,3.7,0.1,5.6s-0.1,3.7,0.1,5.5c0.2,1.6,0.7,3.2,1.2,4.8c0.1,0.3,0.2,0.5,0.3,0.8c-0.3,0.1-0.6,0.1-0.8,0.2
	c-4.6,1.2-9,2.7-13.4,4.6c-4.4,1.8-8.6,4-12.7,6.3c-2,1.2-4,2.4-5.9,3.7c-1.9,1.3-3.8,2.6-5.7,3.9c-0.7,0.5-2.9,1.8-5.1,3.1
	c-2.2,1.3-4.5,2.6-5.6,3.2c-0.6,0.3-1.3,0.6-1.9,0.9c-0.6,0.3-1.3,0.5-1.9,0.8c-0.8,0.3-1.5,0.5-2,0.9c-0.4,0.4-0.6,0.9-0.3,1.9
	c0.4,1.5,1.3,2.8,2.4,3.9c-0.2,0.2-0.4,0.4-0.6,0.6c-3.6,3.7-11.9,11.9-19.4,20.4c-7.5,8.5-14.3,17.3-14.8,21.9
	c-0.2,1.5,0.1,3.5,0.4,5.4s0.7,4,0.7,5.7c0,1.1,0,2.3,0,3.4c0,1.1,0,2.3,0,3.4c0,3.5-0.4,9.2-0.3,15c-0.4,0.2-0.7,0.4-0.9,0.7
	c0,0,0,0,0,0c-0.5,0.8-0.7,1.2-0.9,1.4c-0.1,0.2-0.1,0.2-0.1,0.2l0,0h0c-0.3,0.6-0.4,1.4-0.5,2c0,0.6,0.1,1.1,0.1,1.1
	c0.6,4.4,2.2,11.8,3.9,18.8c1.8,6.9,3.6,13.3,4.6,15.6c0,0,0,0,0,0.1c0,0-0.1,0-0.1,0c-0.2,0-0.4,0-0.6,0.1
	c-0.2,0.1-0.3,0.3-0.3,0.5c0,0.2,0,0.4,0.1,0.6c0.1,0.2,0.3,0.3,0.5,0.3c0.2,0,0.3,0.1,0.5,0.1c-0.1,0.1-0.3,0.2-0.3,0.3
	c-0.1,0.2-0.1,0.4-0.1,0.6c0.1,0.2,0.2,0.4,0.4,0.5c0.3,0.2,0.5,0.3,0.8,0.4c0.1,0.6,0.2,1.2,0.2,1.9c-0.2,0-0.3,0.1-0.5,0.2
	c-0.2,0.1-0.3,0.3-0.3,0.5c0,0.2,0,0.4,0.2,0.6c0.1,0.2,0.3,0.3,0.5,0.3c0.1,0,0.1,0,0.2,0c0,1.1-0.2,2.1-0.5,3.1
	c-0.3,1.1-0.7,2.2-0.8,3.4c-0.1,1.3-0.2,2.6-0.3,3.9c-0.1,1.3-0.2,2.6-0.3,3.9c0,0.7,0,1.9,0,3.3c0,0,0,0-0.1,0
	c-1.9-0.3-4,0.1-5.3,1.5c-0.7,0.8-1.3,1.8-1.5,3c-0.2,1.2,0,2.4,0.6,3.4c0.5,0.8,1.2,1.3,2,1.6c0,0.1,0,0.2,0,0.3
	c0.1,1.4,0.2,2.8,0.1,3.2c-0.1,1.3-0.2,2.6-0.3,3.6c-0.1,1-0.2,2-0.3,2.8c-9.6-0.4-17.5-0.7-18.4-0.6c-1.5,0.1-2.4,0.5-3,1.3
	c-0.6,0.8-0.8,2-0.8,3.7c-0.2,0.2-0.4,0.4-0.6,0.6c-1.2,1.3-2.3,2.8-3.2,4.3c-0.9,1.5-1.7,3-2.4,4.6c-0.3,0.8-0.7,1.5-1.1,2.1
	c-0.4,0.6-0.9,1.1-1.4,1.4c-0.5,0.3-1,0.6-1.5,0.9c-0.5,0.3-1,0.6-1.6,0.9c-1.4,0.8-2.8,1.5-4.1,2.5s-2.4,2.2-3.3,3.8
	c-3.1,5.7-5.2,12.3-6.5,19.3c-1.2,7-1.4,14.4-0.6,21.5c0.3,2.8,1.4,4.8,2.8,6.3s3.2,2.6,5,3.4c0.7,0.3,2,0.8,3.6,1.1
	c1.6,0.3,3.5,0.6,5.3,0.6c1.2,0,2.4-0.1,3.4-0.4c0.5-0.2,1-0.4,1.4-0.6c1.4,0.3,2.8,0.6,4.3,0.7c2.2,0.2,4.4,0.3,6.6,0.3
	s4.4,0,6.6,0c4.3,0,8.5,0.1,12.8,0.2c4.3,0.1,8.5,0.2,12.8,0.3c1.4,0,2.7,0,4.1,0c1.4,0,2.7,0,4.1,0.1c0.8,0,1.7,0.1,2.6,0.1
	c0.1,0,0.3,0.1,0.4,0.1c0,0,0.1,0.1,0.1,0.1c0.5,0.6,1,1,1.5,1.2s1,0.4,1.4,0.6c0.2,0.1,0.4,0.1,0.6,0.1c0.2,0,0.4,0.1,0.5,0.1
	c0.6,0.1,1.2,0.2,1.9,0.3c0.6,0.1,1.2,0.1,1.8,0.1c0.3,0,0.6,0,0.9,0c-1.1,13.2-2.3,26.3-4.1,39.6c-1.2,9-2.3,18.7-3.2,28.5
	c-0.9,9.8-1.6,19.7-2,28.9c-0.2,3.6-1,9-1.2,14.2s0.4,10.2,3.2,12.9c2,2,14.4,3.7,28.3,5c-1,2.7-1,6.3-1,10c0,4.2,0.1,8.6-0.8,11.7
	c-0.9,3-1.5,6.4-1.3,9.7c-33.8,2.5-55.6,6.5-55.6,10.9c0,7.6,63.8,13.8,142.4,13.8s142.4-6.2,142.4-13.8
	C979.9,1006.2,972.6,1003.8,959.7,1001.7z"/>
</svg>
