<?xml version="1.0" encoding="utf-8"?>
<!-- Generator: Adobe Illustrator 27.7.0, SVG Export Plug-In . SVG Version: 6.00 Build 0)  -->
<svg version="1.1" id="Capa_1" xmlns="http://www.w3.org/2000/svg" xmlns:xlink="http://www.w3.org/1999/xlink" x="0px" y="0px"
	 viewBox="0 0 4744.4 6468.4" style="enable-background:new 0 0 4744.4 6468.4;" xml:space="preserve">
<style type="text/css">
	.st0{fill:none;stroke:#000000;stroke-width:7;stroke-linecap:round;stroke-linejoin:round;stroke-miterlimit:10;}
</style>
	<g xmlns="http://www.w3.org/2000/svg" id="nopointer_1_">
		<image style="overflow: visible; transform: matrix(2, 0, 0, 2, -864, -191);" id="nopointer_2_" xmlns:xlink="http://www.w3.org/1999/xlink" xlink:href="maps_vertientes/vertientes.webp"></image>
	</g>
	<g id="landmarks-departments">
		<path id="caribe" class="st0" d="M2216.7,1282.9l0.7-8.4l11-12.2l5-12.9l13.9-28.9l4.6-12.9l2.9-3.7l3.6-8.2l16-12.1l3-15.1l4.4-3.3l1.5-8.9
			l20.5-21.2l14.6-1.3l0.2-2.1l2.3-13.3v-6.6l5.7-11.4l3.3-12.9l4.8-5.9l6.8-11.8l5-5.5l7.8-21.2l14.8-19l-1.3-2.5l-12.7-8.7l-2.6-2.7
			l3.8-3.9l-1.9-2.7l-1.5-11.2l4-12.6l7-14.5l2.7-19l10.1-15.6l5-8.5l-0.8-19.5l2.6-6.4l0.7-12.6l2.3-0.9l1-1.2l-1.3-15.3l1.1-17.2
			l-0.2-25.4l6-13.6l-2.1-23.5l1.6-1.9l16.3-13.3l0.8-6.4l1-12.3l5.4-11.1l9.1-6.1l6-11.2l10.4-7.6l8.1-12.5l9-16.1l1.7-17.1l10.1-8.6
			l4.2-18l3.3-7l10.6-20.1l8,0.4l4.9-5.7l14.2-12.2l15.4-25.3l6.2-10.5l10.8-11.9l-4.8-12.3l19.8-16.3l1.4,5.4l26.6-10.6l12-5l4.3,4.3
			l29.1-0.2l49.6-91.4l56.1-105.2l18.8-4.9l71.3-17.6l45.1-15.5l43.7-12.2l45.1-15.1l-3-5l15-7.1l3.8-2.8l4.4,1l0.6-8.5l4.7-4.1
			l2.9-4.1l-2.9-2.4l-7.1,4.8l-5.9-1.8l-4.1-3l0.6-4.7l5.9,1.8l4.7-3.6v3.6h9.5l1.7,4.1l3.6-2.3l3.6-3.6v-5.3l11.8-11.2l15.4-5.4
			l7.1-7.6l16.6-4.1l4.7-9.4l4.1-3.6v-10l-4.8-16.6l-16.5-24.8l-14.1-23.6l-10.7-27.7l-19.5-13.7l-4.7-4.7l-15.4-1.8l-16.6-10
			l-17.7-1.8L2913,19.1l-21.2-4.1l-13.6,2.5l-12.4-4.8l-1.8-2.9h-14.1l-8.9,2.9l-2.4,3.6l-4.8,0.6l-4.7,7.1l-2.9,0.7V28h7.1l1.2,4.7
			l3.5-0.6l-2.4-7.6h7.1l3.6-8.9h2.9l-4,8.9h2.3l5.3-3.6h5.9l0.6-4.1l4.1,3l-8.3,5.3l2.4,2.9l7.7,0.7l5.3-3.6l-5.3,7.1l-8.3-1.1
			l-4.7-1.8v5.3h-10.1l-1.1,3.6l3.5,1.8l7.7,3.5l-7.1,2.4h-3.6v-2.9h-7.1l-0.7-6.5l-2.9-5.3l-3.5,2.9l-4.8,0.6l-4.7,4.7h4.7v3.6l3,0.6
			l1.1,8.3l-7.6,0.6l-4.1,7.7l-8.9,1.8l-3.6,4.7h-10.6v-4.7l-4-1.8V54l7.1-3.5l5.8-8.3l-3.5-2.4l-8.9,8.2h-11.8l-11.9,16l-8.9,5.3
			l-7.6,5.3l-4.7,7.7l4.7,2.9v-2.9l7.1-1.2l10.6,0.7l0.6,4.1l11.2,8.2h-5.9v4.1l5.9,4.1l5.9,1.2l-7.1,1.1v2.9l4.7,4.8l-6.5,1.1
			l-14.2,0.6l-5.8,5.4l0.6,8.9l-9.4,0.6l-3.6,4.7l-1.2-5.8L2730,129l7.2-4.7l-3-5.3l-3.5-1.8l-4.1-3.6l0.6-3.5l7.7-4.8l0.6-4.7
			l4.7-1.8V88.3h-11.2l-19.5,7.6h-34.9l-4.1-4.7l-5.3,5.3h-4.1l-7.1,10.1l4.7,1.1l10.6-0.6v34.3l2.4,0.6l1.8,6.5l-8.3,20.1l-10.1,14.8
			l-11.2,30l-14.1,17.1v5.4l3.5,2.4l-4.7,1.7l-2.9-6.4l-5.9,0.6l-15.9,13.6l-23,10l-27.2,14.2l-20.1,3.6H2521l9.4,1.7l-3.6,4.7
			l-4.7,0.7l-3.5,7.6h-4.8l7.2-11.8l-10.6,7.6h-14.2l-17,11.9l-23.1,6.5l-11.2,0.6l-14.8,5.3l-17,14.8l-8.3,4.1l-27.1,31.8l-16.6,5.4
			l-30.7,19.5l-5.3,1.1l-17.2,22.4l-11.8,5.9l10-2.4l-1.1,2.9l-3,1.8v5.3l4.7,3.6l-7.1,2.9v-4l-5.8-1.8l1.1-5.9l-13,1.8l0.6,5.9
			l-8.2,7.1h-7.2l-3.5,5.3l2.9,2.4l-8.3,6.5l-21.7,17.7l-15.4,5.4l-18.4,5.8l-55.5,1.2l-15.4,3.5l-13-5.8l-11.8-2.4l-6.5,4.7
			l-33.1-0.6l-10.6-4.8l-8.3,4.8l-10.5,0.6l-17.2-7.7l-15.4-2.9l-5.9-8.9l-15.4-2.9l-5.3-6.5l-11.9-3.6h-7.1l-2.4-4.1h-8.9l-1.1,4.7
			l-4.8-5.3h-9.4l6.5,3.6l-0.6,5.3h-6.5l-2.9-4.1l-4.8-0.6l4.8,5.3v3h-10.6l0.6-13l-3.6,7.6l-4.7,2.9l-1.1,3.6l-1.8-6.5h-6.5l-1.8,5.9
			l4.7,2.4v6.5l-7.1,2.4l-3.5-10.1l-3.6,3.6l-4.1,0.6v6.5l-5.9,5.4h3.6l4.1,3.5l-7.1,3.6h-5.4v5.8h-2.9v7.2l-5.4,1.1v3.6l5.4,2.9
			l-0.6,3l-4.1,1.7v5.9l3.5,3.6l0.7,21.2l2.9,2.4l0.6,16l4.1,1.7l-6.5,4.7l-2.9,7.7l-18.9,12.4l-2.4,1.1l-6.5,3.6l-15.9,1.8l-17.7,2.9
			h-11.2l-31.3-6.5l-40.1-10.7l-37.9-15.4l-30.7-14.1l-22.4-3l-5.3-2.9l-2.4-4.7v6.5l6.5,4.1l-4.1,4.1l-4.3-4.3l-1.7,5.9l4.1,0.7
			l-1.1,7.6l2.4,4.7h3.5v6.5l-7.6,2.4v-6.5h-6.5l6.5-5.3l-4.7-4.7l-1.2-3.6l-2.4,5.9l-4.7,0.6l-7.7,10.7h-6.5l-1.7,9.4l-18.4,11.9
			l-1.7,8.2h-11.3l-9.4,7.2v9.4l-4.7,12.3l-15.9,3.6l-8.3,10.7l-16.5,2.9l-4.1,11.2h-8.9l-4.8,4.1h-5.3v-5.3h-3.6l-2.9,7.6v5.9
			l-7.1,14.8l-2.4,12.3l-20.1,3.6l-10.1,7.1l-10.6,1.2l-14.1,15.9l-9.4,4.7l-3.6,13.6l-14.1,0.6l-8.9,7.7v2.9l9.4,0.6l5.9,4.1
			l-7.7,2.4v3.6l3.6,0.6v6.5l6.5,4.7v3h-4.1v2.9l-5.4,1.7l6.6,1.8l-2.5,8.2l3.2,5.9l4.6,0.6l-4.3,6.3l-8.4,0.3l-5.9-3.5l6.8-9.6
			l-2.9,0.2l0-7.3l-2.4,1.2l-2.9,6.5l-13.3,7.7l-1.5,8.8l-3.6,0.6v3.6h11.2l2.1,6.7l3.2-4.9l4.7,2.9l-3.6,4.7l1.8,7.7l3,1.1l-1.8,18.4
			l-7.2,4.1l-3.5,4.7h-8.3l-2.9,4.1l-4.7-2.5v-12.9l-3.6,5.8v7.1l-5.3,5.9h-3l-5.3,3l4.7,0.6l-1.2,6.5l2.5,4.1l1.1,6.5l-5.9,2.9
			l-4.7,7.1l-8.9,5.9l-8.9,2.9l-2.9,2.4l-3.6,3.6l1.8,4.7l3.6-0.6l4.7,1.7l2.4-4.7l8.3-0.6l0.6-6.5l14.1-13.6h5.9l3.6-11.2h9.4
			l6.5-8.9l5.9,1.1l-1.8,5.9l2.9,22.4h4.7l1.2,3l-7.7,5.8l-5.3-4.7l-2.4,5.4l-5.4,5.8l-4,4.7l-5.4-5.8l-5.3,3.5l7.1,1.8l-2.4,15.4
			l7.1,5.9l7.1-2.4v6.5l7.1,5.8l3,4.7h3.5v7.2l-1.7,4l-5.9-0.6l0.6-7.1h-4.7l-0.6-8.3h-7.7l-6.5-9.4v5.3l-4.7,0.7v8.2l7.7-3.5l4.7,1.8
			l-1.2,4l-4.7,5.4l-6.5,3.5l1.2,7.7l4.1,3.6l0.6-7.2l2.9-4.1l6.5-5.3l4.1,0.6v6.5l-5.9,3.6l-5.8,14.8h-4.7l-4.8-7.2l-1.1,3.6l6.5,7.6
			h-5.4l-1.7,8.9l5.3,4.1l-4.7,3l-2.4,6.5l-8.3,7.1v2.4h2.9l1.2,8.3l-3.6,2.4l-0.6,16.5l-6.5,5.4v10l-13.6,8.3l-5.9,5.3l-4.1,9.5
			l5.4-4.8h16.5l5.4,7.2l3.5,0.6l4.1-4.1l4.7,8.3l1.2,5.9l7.6,4v10.1l4.8,1.8v22.4l-7.7,14.8l-4.1,15.4l-6.5,8.2l-8.3,13l-11.8,4.7
			l-2.4,3h-6.5l-1.1-3l-11.9-0.6l-2.4-4.7l-6-0.1l-0.5,2.2l-4.9,0.1l-2.8,4l-6.8,1.8l-0.7,4.8l-5.8,0.4l-0.5-1.4l-4.5-0.4l1.2-3.6
			l-1.5,0.7l-5.9,0.5l-1.9,2.4l-1.4-0.2l0.7-3.1l5-2.1l1.7-4.5l6.4,2.9l-0.2,3.3l2.6-1l1.2-4.7l-2.1-4.5l-8.8-0.7l-5.5,2.1l-17.4-0.2
			l-5.3,2.1l-7-2.9l-1.9-5.8l-4.8-0.5l-9.4,5.6l-3.6,9l3.1,2.7l0.5,5.8l-5.6,2.7l-14.8,5.8l-7.9,5.9l-9.5,2.3l-2.9-1.2l-5.9,2.1
			l-1.7,5.9l-10.9,8.6l-3.3-0.2v2.1l3.3,2.9l-1.6,3.6l6.1,0.6l-5.9,9.4l-19.5,7.2l-5.7,5.8l1.8,8l-3.3,5.7l3.7,6.3l-2.3,0.3l-0.7,12.7
			l-3.7,12l-3,1l-13.3,10.3l-1.3,5.7l-3.3-2l-4,3v8.3l-5.7,16.7l-4.7,3l-12.7,9.7l-1.7,7l-4,7.7l-6.7,2.3l-1,3.3l-9.7,4.7l-7.3-1
			l-9.2,2.2l-8,3.1l7.7,1.2v7.1l-5.9,7.1l-20.6,10.1l-11.8,11.8l-3,9.4l-14.1,4.7l-9.5,7.2l-19.4,2.4l-3.6,6.5l1.8,11.2l-4.7,8.3
			l-19.5,3.5l-34.3,7.1l-7.1,4.1h-27.1l-10.7,15.4l-14.1,10.7l-3,9.4l3.6,5.9l-1.2-6.5l5.4-6.5l3.5,4.1l-1.7,4.7l6.4,2.4l5.9-0.6
			l14.8,7.1l11.8,4.7l7.7,20.1l5.8,10.6l11.2,8.3l1.2,5.3l-4.1,4.1v7.7l3.6,1.7l0.6,11.3l-4.1,4.7l-0.6,7.6l-3,3.6v3.5l3.6,1.8
			l0.6,8.3l4.8,14.8l1.1,4.1l1.2,49l3.5,5.8v-11.8l1.8,4.1h5.9l-0.7,8.3l-4,2.4l-3,7.6l-1.1,20.7l-6.5,3.5v3h4.1v10.5l-8.3,7.2
			l-14.8,1.1l-4.2,4.1h-17.1l-10.5-4.1h-5.9l-7.6-7.6h-2.5l-1.1-24.2l4.1-1.2l3.5-11.8l-7.1,2.9l3-5.9l4,0.7v-3.6h9.5v3.6l4.7,1.1
			l0.6,7.7l3.6-0.7v-4.7h10v-2.9h-5.8l-5.4-5.3v-7.2l-3.5-2.4h4.7l1.1,4.7h5.4l3.5,2.4v-3.5l-7.1-1.8l-1.8-4.7l5.4,0.6l2.4-2.9
			l4.7-0.6l1.1-4.8h-4.7l-3.5-5.3l-4.1,5.9v-8.9l-0.7-3l8.3-2.4l-0.6-4.1h-8.3l-2.4,3.6h-12.3l2.4,5.9l-3.6,1.1l-0.6,3.6h-6.5v-3.6
			h-8.3l-2.9-4.7l1.1-14.8l5.9,1.2l4.1-7.1v-4.7l-5.4,7.1l-2.4-4.7l-4.7-0.7l-1.1-4h4.1l3.5-5.9l-5.9-1.2v-5.8l-4.7-1.2l-1.1-4.1h6.5
			l1.1-6.5l-10.7-0.6l-4,5.3l-3.6-6.5h-2.9l-4.1,5.9l-7.1-1.8l-10.1-18.3l-12.4-10l-10.5-27.8l-12.4-9.4l-10.6-10.1l-14.1-2.4l-13-9.4
			l-0.6-4.7l-9.5-3v-6.5l4.1-2.4v-5.8l-7.6-7.7l-4.8-14.8l-10-13.6l-6.5-1.1l-7.7-10.7l-1.1-5.9l-3.6-1.8l-1.1-14.1l-0.7-0.6l-3,12.7
			l0.8,7.4h-3.3l-8.2,4.9l-8.6,16.8l0.4,4.5l-6.2,4.1l-4.5,14.4l-4.1,5.7l6.6,2.9l2,6.6l-2.9,7l2.5,2.5l11.5-0.8l10.7,10.3l13.5,27.1
			l-2.9,9l2.1,9.4l8.2,16.4l-1.2,4.1l7.4,4.5v7.4l2.5,7.8l7.8,5.3l4.5-0.4l7.8,9.4l1.6,10.7l-2.9,3.3l3.3,1.2l2.5,6.2l-2.1,7.4l2,4.5
			l4.5,2.9l-1.2,10.3l-4.1,8.2l3.7,7.4l4.5,2.1v4.5l8.6,3.7l4.9,9.8l-0.4,4.9l0.8,3.7l4.5,1.6v7l-9.8,2.5l-4.9-1.2l-10.7,1.2
			l-18.9,4.1l-9.4,1.6l-4.5-1.2l-8.6,11.9v7l-2.9,6.6l5.3,12.7l5.3,4.9l4.1,13.1l-0.8,9.4l-7.4,2.9l-8.6-2.5l-6.6,2.9l-15.2,1.6
			l-7.4,7.8l-2.5,13.5l-7.4,5.3h-3.3l-4.1,4.1l-1.6,11.1l-9.8,13.5l-4.9-0.8l-6.6,5.7l-3.3,10.7l-6.6,9l-8.2,0.4l-12.3-12.7
			l-11.5-38.2l-12.7-22.2l-20.5-12.3l-6.6,4.5l-4.9,14.8l1.6,22.2l9.4,28.3c15.7,18.2,25.9,34.4,23.9,60.1
			c-1.2,15.5-6.6,32.8,2.4,45.5c3.6,5.1,9.1,8.6,13.6,13c12.9,12.6,19.9,34.2,37.8,36.9c-11.4,17.8-0.5,40.7,2.5,61.6
			c1.1,7.7,1.1,15.6,1.2,23.4c0.4,24,4.3,51.3,24.1,64.9c-1.2-8.8,4.9-17.4,12.9-21.1c8-3.7,17.4-3.4,26-1.5
			c10.2,2.2,21.1,7.9,23.4,18c1.9,8.2-2.4,16.3-5.8,24c-4.6,10.3-8.1,21.4-7.3,32.6s6.4,22.6,16.2,28.1c4.8,2.7,11.1,4.8,12,10.1
			c1,5.8-5,10.1-7.9,15.2c-7.4,13,6.3,27.7,8.2,42.5c1.4,10.5-3.4,20.6-5.2,31c-1.9,10.4,0.8,23.5,10.7,27c3,1.1,6.2,1.1,9.1,2.4
			c4.4,2,7,6.5,9.4,10.8c3.2,5.9,6.6,12.3,6,19c-0.5,5.8-4,10.8-6.7,16c-7,13.3-9.8,28.8-7.8,43.7c10.1,3.8,20.8-3,31.5-4.1
			c14.7-1.5,29.7,9.9,32.2,24.5c14.8,7,27.4,22.7,32,38.4c5.5,18.5,2,40,13.2,55.7c5,7,12.7,12.5,14.7,20.9c1.8,7.5-1.6,15.2-4.6,22.4
			c-3.9,9.4-7.4,19.1-7.9,29.3c-0.4,10.2,2.5,20.9,9.7,28c2.1-6.9,4.3-13.9,8.5-19.9c4.2-5.9,10.7-10.6,17.9-10.7
			c2.8,5.1,2.9,11.6,0.2,16.7c-2.7,5.1-8,10.8-4.9,15.7c2.6,4.1,8.7,3.2,13.6,3.4c14.2,0.6,25,17.7,19.4,30.8c-1.9,4.5-5.3,8.3-8,12.4
			c-9.3,14.4-9.4,34.2-0.2,48.6c2.4,3.8,5.7,7.5,10,8.9c5.3,1.8,11.1,0,16.8-0.5s12.5,1.3,14.1,6.7c0.4,1.3,0.4,2.7,1.2,3.8
			c1.2,1.9,3.9,2.2,6.1,2.2c20-0.1,39.5-11.5,49.4-28.8c3.4-5.9,5.8-12.5,10.5-17.4c8.7-9.1,22.6-9.8,35-12.2
			c11.2-2.2,21.9-6.1,32.6-10.1c19.2-7.1,38.4-14.1,57.5-21.2c12.3-4.5,25.8-10.1,31.4-21.9c1.8-3.9,2.7-8.2,5.4-11.6
			c5.1-6.3,14.9-6.9,20.4-12.9c4.2-4.6,4.9-11.3,7.2-17s8.4-11.3,14.1-8.9c6.3,21.5,28.3,39.9,50.7,38.8c-1.8,21.5-4.3,42.9-7.6,64.3
			c-1.3,8.5-2.8,17.4-7.8,24.4c-4,5.6-9.7,9.5-14.5,14.4c-5.5,5.7-9.5,12.6-13.4,19.5c-16.3,29.1-30.4,59.4-42,90.7
			c-8.1,21.7-14.2,48.9,1.5,65.9c2.9,3.1,6.5,5.9,8,9.9c2.4,6.2-1,12.9-4.1,18.8c-12.5,23.4-22.2,48.4-28.9,74.1
			c-2,7.8-4,16.1-9.4,22.1c-12.2,13.4-38.8,12.3-43.4,29.8c-2.2,8.4,2,18.6-3.7,25.2c-2.6,3-6.6,4.3-10.4,5.5
			c-13.3,4.3-26.8,10.6-34.9,22c-5.8,8.1-8.3,17.9-10.6,27.6c-3.7,14.9-7.4,29.8-11,44.6c6.5,4,16.1,1.9,20.2-4.6
			c14.1,2.9,21.6,22.3,13.2,33.9c-2.4,3.3-5.7,5.9-8.1,9.3c-8.1,11.6-2.5,27.4-4.4,41.4c-3.8,27.2-34.8,42.4-44.3,68.1
			c-3.5,9.5-3.8,19.9-6.7,29.6c-6.4,21.2-24.1,36.8-41,51.1c-12.5,10.6-13.5,29.4-20.6,44.1c-7.6,15.7-15.2,31.4-21,47.9
			c-10,28.4-14.4,58.7-12.9,88.7c-20.7,4.7-34.2,29.5-26.9,49.4c3.9,10.8,12.8,20.2,12.3,31.7c-0.4,7.5-4.8,14.1-8.7,20.5
			c-13.3,22.2-21.2,47.7-22.6,73.6c9.8,2.4,12.3,14.7,17.3,23.4c14.6,25.3,52.1,20.6,79,31.9c42.2,17.8,53,74.5,41.7,118.9
			c-7.2,28.3-19.7,61.4-1,83.8c11.5,13.8,30.7,17.5,47.1,24.6c16.4,7.2,32.8,23.6,27.3,40.6c14.5-6.7,31.7,0.7,44.2,10.7
			c12.5,10,23.1,22.9,37.7,29.3c35.4,15.6,73.9-12.1,102.7-38c36.5-32.9,73.5-66.4,99.7-108c16-25.4,31-56.2,60.1-63.6
			c4.8-1.2,10.3-2,13.2-6.1c5-6.9-1.7-16.2-1.6-24.7c0.1-10.6,10.4-17.8,19.2-23.7c50.7-33.9,87.6-87.9,100.8-147.4
			c1.5-6.9,2.8-13.9,6.3-20c3.6-6.3,9.2-11.1,14.5-16.1c36.6-34.8,57.9-83.3,94.7-118c23.1-21.8,52.6-38.7,65.8-67.5
			c11.7-25.3,8.2-55,15.2-82c11.8-45.4,51-77.4,85.5-109.3c34.5-31.9,68.5-72.8,64.5-119.6c-2.1-24,3.5-47.7,6.3-71.6
			c1-8,2-16.3,6-23.4c4.3-7.6,11.6-12.9,17.3-19.4c7.6-8.5,12.5-18.9,17.7-29c22.5-44.1,50.2-85.6,82.3-123.3
			c16.8-19.7,35-38.6,48.7-60.6c17.8-28.6,28.2-62.6,52.4-86.1c8.4-8.1,18.3-15,24.1-25.1c16.3-28.6-8.5-66.5,3.9-97
			c6.8-16.7,23.8-27.5,41.4-31.6c17.6-4.1,35.9-2.4,53.9-0.7c41.7,3.9,83.3,7.8,125,11.6c-2.7-22,17.4-40.1,37.2-50.2
			c19.8-10.1,42.6-17.5,55.1-35.9c9.5-14,11.2-31.9,18.1-47.4c8.9-20,26-34.8,41.6-50.2c31.4-31.2,58.5-67.9,72.6-109.9
			c5-15,9.1-31.7,21.4-41.7c9.2-7.5,23-11,29.8-21.1c4.9-7.4,0.9-11.6-3.2-18.5c-5.1-8.5-10.2-17-15.4-25.6
			c-3.9-6.5-7.9-13.1-12.1-19.5c-7.3-11.1-15.4-21.7-23.4-32.3c-6.8-9-13.8-18.1-23-24.5c-2.2-1.5-4.6-2.9-7.2-3.4
			c-4.3-0.8-8.6,1-12.6,2.7c-5,2.1-10.1,4.3-15.1,6.4c-2.5,1.1-5.2,2.2-7.9,2.2c-4.5,0-8.6-3-11.1-6.7c-2.5-3.8-3.6-8.3-4.4-12.7
			c-2.1-10.7-3-21.7-2.9-32.6c0.1-5.7,0.5-11.6-1.4-17c-1.2-3.5-3.3-6.7-5.4-9.7c-7.3-10.9-14.5-21.7-21.8-32.6
			c-15.3-22.9-46.8-30.4-72.1-41.2c-5.4-2.3-11.1-4.6-15-9.1c-6.5-7.5-6-18.9-2.4-28.1c3.6-9.2,9.6-17.3,13.6-26.3
			c2-4.4,3.5-9.2,6.7-12.8c5.7-6.3,15.1-7.4,22.6-11.4c1.1-0.6,2.3-1.3,2.9-2.4c0.6-1,0.7-2.2,0.8-3.4c0.6-7.8,1-16.3-3.8-22.5
			c-3-3.9-7.6-6.1-11-9.7c-8.1-8.4-7.6-21.6-11.9-32.5c-4-10.3-12.6-18.6-23-22.3c-4.5-1.6-10.2-3.4-10.7-8.1c-0.2-1.6,0.3-3.2,1-4.7
			c1.6-3.6,3.9-6.8,6.9-9.3c8.9-28,1.4-58.7-18.6-80.2c-1.5-1.6-3-3.1-4.9-4.1c-4.9-2.5-10.7-1-16.1,0.2c-15.9,3.4-34.7,1.5-45-11
			c-5.6-6.7-7.8-15.5-11.4-23.5c-5.5-12.4-14.2-23.2-19.1-35.9c-3.1-8-4.7-16.6-7.3-24.7c-9.4-29.2-32.4-52.9-39.7-82.7
			c-3.5-14.5-3.1-29.6-2.6-44.5c1-34.4,2.1-68.7,3.1-103.1c0.4-12.3,0.7-24.8-2.9-36.6c-3.7-12.1-11.6-23.9-8.9-36.2
			c2.2-9.9-0.1-17.7-1-27.8c-0.7-7.1-1.3-14.2-0.2-21.2c1.9-12.3,8.9-23.2,11.9-35.3C2211,1316.9,2208.7,1298.6,2216.7,1282.9z"/>
		<path id="pacifico" class="st0" d="M336.6,3819.1c3.4-1.1,9.5-3.1,9.5-3.1l-12.7-3.4l0.4-7.1l3.8-0.8l-6.7-2.1l-1.2-3.7l-3.8,0.3v-2.5l20.6,1.2
			l-0.4-3.7l4.6-0.5l1.7-3.4h7.1l1.2-3.7l2.9-0.9v10.4l2.6,0.9v7.1l-2.9,0.4v5.8l-5,2v11.8l1.7-8.4l4.1-2l0.8-6.7l5.5-2.1l-0.4,16.4
			l6.3,2l2.1,5.8l6.6-2.9l-4.9-3.7v-4.1l-3.4-1.3l0.3-12.9l3.4-0.4v3.8l7.2,1.2l0.3,11.3h8.4l-2.1-7.6l5-4.1l5.8-0.3l3.4-7.2l1.7,3.8
			l-2.6,13.8l-5.8,2l-2,6.3l-5-4.1l-3.4,0.8l4.1,4.3l-5.4,2.5v5.4l-4.6-6.3l-5.4,3.4l3.7,0.9v4.1l4.1,0.4v2.5l1.5,4.1l5-4.7l11.2,0.8
			l7.2,7.1l-4.1-8.2l-9.5-3l-3.9-4.8l7.1-1.9l4.7-9l5.8-0.2l0.3-15.1l3.4-1.7l4.7-4.3l2.6,1.1l-0.3,5.6l-2.8,2.2l8.4,5.6v-6.2
			l-3.6-1.1v-6.2l4.7-0.8l1.7,7.8h2.6l1.1,2.8l9,2.8v7.5l3.9-6.7l-4.3-4.1l1.5-1.7l4.7-0.3l5.6,6.5l-0.3,3.6l4.8-2.5l-4.5-4.8l-3.9-5
			l1.7-2.5l5.8,1.9l3.4-2.2l-2.2-1.7l-7.5-0.2l-3.1-3.1l3.9-3.4l8.7,0.6l8.6,6.5l-4.5-7.6l-6.7-2.1l5.4-5.4l2.2-5l5.8,2.8l0.6,5.9
			l5.6,0.2l1.5,3.1l10.3,1l4.1,5.9v6.7l2.8-3.9l4.5,0.8l3.4-4.1l-7.3,0.2v-6.4l-6.4-0.6l-10.3-1.9l-3.9-4.5l-2.2,0.2l0.8-4.1l11.4,1.1
			l1.1,5.6l2.6,0.8v-6.2l4.5-1.3l2.2,10.1l3-5.6l3.1-0.6l4.5-3.7h7.3l-11-0.2l-5.6,3.6l-1.7-4.1l-4.1-3.1l3.4-4.1l6.9-0.6l0.6-4.3
			l7.8-0.6l3.4-4.7l-0.6-1.7l-6.2,5.8l-2.5-6.7l-8.4,0.9l-5,5.3l-1.1-3.9l10.6-5l9.5,2.8l5-4.1l13.1-0.9l-4.3-1.6v-3.1l7.3-0.6
			l4.5,6.9l1.5-4.9l-4.8-3.9h-24l0.2-3.4l6.7-3.4l6.7-7.6l2.8,4.8l0.2,3h2.6l4.7-6.2l-4.7,2l-3.7-5l4.5-1.1l0.6-7.3l6.2-2.8l4.3,0.6
			l1.1,2.5h5.3l2.8-6.4l8.2-0.3v-4.7l-9.3,3.1l-4.5,4.4l-6.4-3.4l-0.3-4.1l-4.7-1.9v-4.3l7.8-0.2l-4.3-3.7v-6.9h3.7l1.3-3.7l2,0.3v7.3
			l2.5-4.5h6.2l-0.8-7.8l-4.8-3.9l-3.4-1.1v-5.6h10.7l-2.5-2.5H546l-2.6-3.7l-6.4,2.8l-2.8,9l-3.7-0.3l-0.6-4.7l10.1-8.6l-2.5-6.2
			l4.5-2.2l0.2-8.2l5.4-4.5l6.8,0.6l9.1-15.5l7.2-3.8l0.8-8.3l9.2-4.6l7.5-12.6l-0.3-7.5l9.1-8.4h5.1l0.9,5l3.7,1.2v5l-10,5.8v4.6
			l2.9,1.7v6.3l4.1,3.7v5l-8,3.8l-1.7,12.4l-6.6,5.5l-11.3-1.2l-4.6,5.4l-4.9-3.4l-5,4.1l-8.4,0.9l-0.8-2.5l-3.4,3.2l7.5,5.5l0.4-3.4
			l6.6-0.4l3.4-3.4l6.3,2.1l7.5-1.7l-2.5-2.5H590l5.5-4.6l4.9,1.2l0.4,7.1l2.9-2.5l-0.4-6.3l-5.4-3.7v-10.9l9.2-3.8v-7.5l-3.8-2.5
			l3.8-7.5H603l-3.4-3.4l6.6-2.5l3.8-9.6h4.6v5l3.4,2v8.9l-9.2,3.7l4.1,0.9v4.1l3.4,2l1.7,6.3l6.6,1.7l-2-5.4l-4.3-1.7l-2.5-6.3
			l2.5-3.4l3.8-3.7l-0.4-8.9l-3.4-1.6l5.5-4.3l-7.5-5.4v-4.6l8.3-0.5l2.1-6.6h5.4l8.4-6.3l5.8,8.3l-0.4,5.5h7.5l-4.9-5l-1.3-9.6
			l3-11.2h-3l-6.2,7.8l-14.2,5.5l-4.6,10l-7.1-1.2l-0.9-4.1l-15.5-0.9l-2,4.6l-2.1,0.4v-11.2l10.9-6.3l8.7-13.8l7.2-3.8l2.9,6.7
			l3.2-3.4l10.4,0.4l4.3,5.4l6.3,0.9l-3.4-3.4l-13.3-7.2l-5.9,1.3l-4.5-5.8l3.7-4.3l7.1,1.2l4.3-4.6l2.5-5.4h3.7v7.5l4.3,1.7l4.9,8v8
			h2.9l-0.8-14.7l-8-5.4v-5.8l6.7-1.3l0.4-12.9l5.4-8l2.1-3.7l2.9-0.5l0.8-6.3h2.1l0.4,15.9l-3.8,2l0.8,7.2l3.8,2l-3.4-6.6l10.1-2.1
			l-0.9-4.6h-3.4l-0.3-2.9l5.8-10l2.5-0.9v-2.9l-6.7-4.6h-7.1l-0.4-2.9l3-2.5l1.2-5l11.7-2.9l-0.4-4.1h3.8l2,4.6l5,0.8v13.8l-5,5
			l0.4,3.7l2.9,2.5l1.7-9.1l5.8-3.8v-3.8l-3.4-0.8l1.3-6.7l4.9-1.6l-0.8-2.6l-6.7,1.7l-3.4-5l9.6-0.8l1.2-5l-5.8,2.9l-9.5-1.2v3.4
			l-3-2.5l7.2-5l1.7-8.7l3.7,2.9l0.9,4.1l10,1.2l9.2,8l0.4,7.1h3.3l1.7-7.1l-12.1-9.2l-10-2.5v-3.8l3.4-0.4l2.5-5.4h11.3l0.8,3.7
			l5-0.8l-3.8-4.1l6.3-5.8l5.8-5l0.4-6.3l7.5-1.2l-5.8-2.1v-7.8l5-0.9l-10.1-0.8v-5.9l3.4-1.2v-30.8l3.8-1.3l0.3,4.3l8.4,2l0.8,5.9
			l6.7,2l-0.9,4.1h-11.2l-2.9,10.4l4.9,3l-0.3,8.3l0.8,4.1l5.5-0.8l2.5,2.9l5.4-2.9l-1.2-7.5l-4.1,5.8l-5.4-0.8v-10.9l-4.6-3.4
			l1.6-6.3h13.8l2.9,7.1h2.1l-1.2-8.3l4.6-2.1l-3.8-10l-4.6,10.4h-2v-6.3l-5.8-0.8v-5.5l-5.5-2.9v-3.4l17.6,0.9l-3.4-3.8l-3.8-2.5
			l0.9-4.1l-5,4.9h-7.5l-0.8-11.2h3.7l0.9-4.1l4.9,0.3l3.8,8.4l4.9-2.1l8,1.2v-4.1h-11.2l-2.1-3.4l6.3-4.1l7.5,0.8l3.4,2.6l3.4-3.4
			l-9.2-3.4v-3.4h4.6l4.6-7.1l0.8,6.7l2.1-5.8h7.5l-3.8-3.8l6.3-1.7l5.4,1.7l1.5-3.4l-7.1-2.1l0.2-2.5h9.2l1.7-2.9h-10.1l-6.2,3.4
			l-5.5,0.4v-2.6l5.8-1.7l0.4-3.7l9.2,0.4l6.3-3.8l-23,0.9l-0.8-6.7h-9.2l-8,7.1l2,2.9l6.7-6.5l4.1-0.2l-0.8,8.1l4.1,2l-2.9,3.8v3.3
			l-11.7-0.8l-6.3,8l-12.6,3.7l-0.4,7.5l-2.9-4.9h-19.9l-4.6,4.6h-3l-0.8-3.8l-7.1-0.4l-4.6-4.1v-3.7l-4.6-2.1v-3.8l3.7-0.3l2.6-2.9
			l4.6-0.4l0.3-5.8h-3.7l0.4-4.6l-4.6,5l-6.7-1.3l0.8-3.7h-3.2v-5.8h5.8v-4.9l4.4,0.3l-0.2-3.5l-6.5-0.4l-1.5-4.5h6.3l1.7,2.6l2.1-0.9
			l-2.9-8l7.5-0.3l2.9-4.3l8.3-0.8l1.7,5h-4.6l-1.7,3.7l-8,2.9h6.3v5l3.4-5.5h6.3l1.2-3.3l3.4-0.4l1.2-3.4h3.4l3.7,12.6v-8l3.4-1.2
			v-2.5l-3.7-0.4l-1.2-2.9H719l-0.4-3.4h-4.6l7.2-0.8l0.8-3.4h3.4v-6.7l7.5-5l-3.7-0.3v-5.8l8.7-0.4l4.1-2.9h-16.3l-0.9-4.1h-6.3
			l-0.3,4.6l-4.6-4.3v-7.8l-2.6-1.3v-5.4l-6.3-2.5l-5.8,2.9h7.5l-2.5,4.6h4.1l-0.8,5.4l-6.3,0.4l-3.4,3.7h-8.3l4.1,2.1v3.7l-8.4,2.1
			l-3.2,28.4l-10.5,10.9l-0.8,6.3h-6.3v-3.7l-3.4-0.5l-1.2-13.3l-3.4-8v6.6l-7.1,2.1l-0.4-7.5l-10-4.6l-0.4-6.3l-7.1-4.1v-7.5h2.5
			l1.7,4.1l13.3,0.4l0.9,3.7h2l0.4-6.3l8.4-1.2l7.1-7.8l-9.6,4.9l-1.7,2.1l-13.8,1.2v-3.7l-5.4-3.8l-3.4,0.4v-2.6l6.3-6.2l-1.2-7.2
			l-5.8-3.4l-1.7,5.5l5,1.7l-2.6,4.6l-4.1-0.4l-5,4.6l0.9,7.1l-5-3.7l-3.4-11.3l-8-8l-2.5-0.3v-5l5.5,0.4l1.2-5h4.9l3.8-6.3h4.1
			l1.2,5.5l5.5,5.4v3.4h2.5v-7.2l-5-3.2v-2.9l8-0.4l-0.8-2.1h-10.1v-2.9l8-7.1l-2.9-1.2l-10,10.8h-7.5l-2.6,3.4l-7.1,0.4l-2.1,4.6
			l0.4-20.8l15.5-1.2l2.5-5h6.3v-6.7h-3.4l-4.6,4.6l-8.3,0.4l-1.2-4.1l-1.3,9.2l-9.1,1.7l-1.3-6.7l4.3-1.7l0.8-20.4l5.8-3l0.9-4.5h2.9
			v4.5l4.9,3.8l0.4,3.4l-9.2,0.8v2.6h10.9l1.2,3.7l4.6-3.7h2.9v3.2h13.3v-2.9h-7.1l-3.7-3.7v-4.1l11.2-3v-3.7h5l-1.2-2.9h-8l-4.1,6.6
			l-8.4,3.4v-1.7l5-3.7l-1.7-6.3l10-2.9l-0.3-5.8l6.3-6.3v-5.5l8.3-8.7l0.4,5.8h4.9l2.1-7.1l-2.9-2.1l9.6-8.3l9.5-0.9l-4.9-2l-1.7-8.7
			l0.3-25.1l7.2-4.6l0.4-6.3l-3.8-2.5v-8l8-4.6v-2l-4.6-0.9l-0.4-25.9h4.6l2.5-2.9l-3.7-4.1l1.2-2.5h6.3v-2.6h-5.8l-5,2.6v-24.7
			l7.5-1.2l5.5,4.6l5.3,2.8l0.9,9.4l3-3.5l0.6-7.3l-18.6-12.8l3.4-1.7v-6.6h-6.3l-2-2.6l0.8-4.6l3.4-0.8l1.2-7.5l-8.7,5.8h-3.4
			l0.8,3.7h-4.5l0.3-24.5l2.9-2.6l0.9,5l4.1,6.3l-2.5-7.2l1.7-5.8l-2.6-4.6v-6.6l-2.9,2l-0.8,7.2l-4.6-2.9v-13l-6.3-3.7v-10.9
			l-3.8-1.2l-0.3-40.6l-2.6-2.9l-0.8-19.2h3.4l2.5-9.2h2.9l0.4-5.4h4.1l2.5,7.5l1.3-13.8l7.5-6.3v-4.1l-10.9,5.8l1.7,2l-4.6,7.2
			l-11.3,1.7l1.7-6.7l3.7-0.4l-4.9-5.8l0.4-27.1l3.3-3.4v7.1l4.3,4.3v-5.5l-2.6-2.5l0.5-5l2.9-3.7l-1.2-5.5l-5.8-7.1h-8l-2.1-3.4
			l5-1.7v-4.9l-4.1-8l-4.3-0.9v-8.7l5.5-1.7v-5.4l-4.6-1.7l-1.2-5l4.9-0.8v-7.2h-3.2v-3.7l-7.5-0.9l-9.2-11.2l-3.4-3.4h-2.1v3.8
			l-8,0.3l-2.5,7.5l-2.9-4.1l-0.4-2.9h-14.1l-1.2-3.4l4.5-3.4l3.4-10.8l4.3-1.7v-16.7l6.6-8.4v-2.9h5.5l2.9,3.4h4.9l1.7-2.9l9.2-4.6
			v-2.5l7.5-1.7l2.6-2.9l8.7-0.4v3.4l-1.7,2.5l5.4,2.5v3.4h5.5l0.3-3.4l11.3-4.6v-9.2l6.3-4.6l-0.4-3.7h8.4l4.9-3.8l2.9-15l7.2-2.9
			l0.8-5.4l4.6-3.4v-6.7l2.1-1.2l0.4-15l-2.6,10.1l-3.7-4.6l-0.9-4.3l-8.7-9.5l-1.2-8.4l-5-2.5l-4.1-23.8l-7.1-8.4L673,2521l-1.7-1.7
			v-10l9.6,0.3v-2.5l-3.7-1.2l-0.4-10.9l-5.5-15.5l-2.9,0.4l3.8,8.7l1.2,14.6l-4.1,0.4l-2.1-12.1l-9.5-12.1l-9.6-5.4l-1.7-6.7
			l-10.4-11.7l-4.6-3.4l-2.9-13.3l-4.1-4.1l-0.4-11.3l4.1-2.1v-30l2.1-0.4l2.9,11.8l9.2,0.3l6.3,10.1l6.6,0.8l1.2,3.4h4.3l-3.4-8
			l3.7-7.1h2.9l-0.8-24.2l-4.6-7.5h-8.3l-2.6-8h-3.4l-2,4.1v-6.3l13.8-2.5l3.7,2.1h4.1v-7.2l-6.2-4.6l-0.9-3.7h4.6l2.5-10.4h3l1.2-6.7
			l-3.4-1.7v-5.8l6.6-5l3.4-12.9h3.4v-7.5l-9.2-6.3l-8.3-0.8l-5-3.4h5l-0.9-6.7l-3.7-4.1h-5.5l-4.9-4.6l4.6-3.4l-7.2-2v-3.4l8-2.6
			v-2.5l-3.8-0.8l-2.5-10.1l-5-0.3l-4.6,4.1l0.4-7.2h-16.3l-5,4.3v8.7l4.1,1.2l-7.5,4.6h-3.3l-1.7,4.1h-2.6l-1.7-4.1l-2-3.4l4.6-0.3
			l-1.7-7.2l-3.4-1.2l0.4-3.4l5-1.2l-1.7-5.8l-6.7-3.4l-1.2-10.9l-11.3-20.9l-17-18.8h-5.5l-10.9-6.2l-1.7-3.8h-6.2l-0.9,10.4
			l-3.4,0.9v7.1l-3.7-2.9l-0.4-3.8l-4.1-3.2l4.9-2.6v-5.4l-4.6-3.4v-10.9l4.6-1.7v-4.6l-3.2-1.7v-2.9l6.6-0.8l2.9-5.5l5,2.1l-1.7-4.1
			l4.1,0.4l0.4-10.1l-3.7-2.1l0.3-9.1l-10.9-8l3.4-6.3l-7.5-0.4l-5.4-7.1l-13-10.4h-6.6l-3.8-15.5l-17.2-7.1l-7.5-13.8l-11.2-2.9
			l-0.4-8l-10-4l25.9-74l2.1-18.1l11.9-7.4l3.3,2.5l4.9,1.2l3.7-4.9l12.7-1.2c0,0,7.1-13.6,8.7-16.6c9.8,13.8,15.5,27.9,13.9,47.6
			c-1.2,15.5-6.6,32.8,2.4,45.5c3.6,5.1,9.1,8.6,13.6,13c12.9,12.6,19.9,34.2,37.8,36.9c-11.4,17.8-0.5,40.7,2.5,61.6
			c1.1,7.7,1.1,15.6,1.2,23.4c0.4,24,4.3,51.3,24.1,64.9c-1.2-8.8,4.9-17.4,12.9-21.1c8-3.7,17.4-3.4,26-1.5
			c10.2,2.2,21.1,7.9,23.4,18c1.9,8.2-2.4,16.3-5.8,24c-4.6,10.3-8.1,21.4-7.3,32.6s6.4,22.6,16.2,28.1c4.8,2.7,11.1,4.8,12,10.1
			c1,5.8-5,10.1-7.9,15.2c-7.4,13,6.3,27.7,8.2,42.5c1.4,10.5-3.4,20.6-5.2,31c-1.9,10.4,0.8,23.5,10.7,27c3,1.1,6.2,1.1,9.1,2.4
			c4.4,2,7,6.5,9.4,10.8c3.2,5.9,6.6,12.3,6,19c-0.5,5.8-4,10.8-6.7,16c-7,13.3-9.8,28.8-7.8,43.7c10.1,3.8,20.8-3,31.5-4.1
			c14.7-1.5,29.7,9.9,32.2,24.5c14.8,7,27.4,22.7,32,38.4c5.5,18.5,2,40,13.2,55.7c5,7,12.7,12.5,14.7,20.9c1.8,7.5-1.6,15.2-4.6,22.4
			c-3.9,9.4-7.4,19.1-7.9,29.3c-0.4,10.2,2.5,20.9,9.7,28c2.1-6.9,4.3-13.9,8.5-19.9c4.2-5.9,10.7-10.6,17.9-10.7
			c2.8,5.1,2.9,11.6,0.2,16.7c-2.7,5.1-8,10.8-4.9,15.7c2.6,4.1,8.7,3.2,13.6,3.4c14.2,0.6,25,17.7,19.4,30.8c-1.9,4.5-5.3,8.3-8,12.4
			c-9.3,14.4-9.4,34.2-0.2,48.6c2.4,3.8,5.7,7.5,10,8.9c5.3,1.8,11.1,0,16.8-0.5s12.5,1.3,14.1,6.7c0.4,1.3,0.4,2.7,1.2,3.8
			c1.2,1.9,3.9,2.2,6.1,2.2c20-0.1,39.5-11.5,49.4-28.8c3.4-5.9,5.8-12.5,10.5-17.4c8.7-9.1,22.6-9.8,35-12.2
			c11.2-2.2,21.9-6.1,32.6-10.1c19.2-7.1,38.4-14.1,57.5-21.2c12.3-4.5,25.8-10.1,31.4-21.9c1.8-3.9,2.7-8.2,5.4-11.6
			c5.1-6.3,14.9-6.9,20.4-12.9c4.2-4.6,4.9-11.3,7.2-17s8.4-11.3,14.1-8.9c6.3,21.5,28.3,39.9,50.7,38.8c-1.8,21.5-4.3,42.9-7.6,64.3
			c-1.3,8.5-2.8,17.4-7.8,24.4c-4,5.6-9.7,9.5-14.5,14.4c-5.5,5.7-9.5,12.6-13.4,19.5c-16.3,29.1-30.4,59.4-42,90.7
			c-8.1,21.7-14.2,48.9,1.5,65.9c2.9,3.1,6.5,5.9,8,9.9c2.4,6.2-1,12.9-4.1,18.8c-12.5,23.4-22.2,48.4-28.9,74.1
			c-2,7.8-4,16.1-9.4,22.1c-12.2,13.4-38.8,12.3-43.4,29.8c-2.2,8.4,2,18.6-3.7,25.2c-2.6,3-6.6,4.3-10.4,5.5
			c-13.3,4.3-26.8,10.6-34.9,22c-5.8,8.1-8.3,17.9-10.6,27.6c-3.7,14.9-7.4,29.8-11,44.6c6.5,4,16.1,1.9,20.2-4.6
			c14.1,2.9,21.6,22.3,13.2,33.9c-2.4,3.3-5.7,5.9-8.1,9.3c-8.1,11.6-2.5,27.4-4.4,41.4c-3.8,27.2-34.8,42.4-44.3,68.1
			c-3.5,9.5-3.8,19.9-6.7,29.6c-6.4,21.2-24.1,36.8-41,51.1c-12.5,10.6-13.5,29.4-20.6,44.1c-7.6,15.7-15.2,31.4-21,47.9
			c-10,28.4-14.4,58.7-12.9,88.7c-20.7,4.7-34.2,29.5-26.9,49.4c3.9,10.8,12.8,20.2,12.3,31.7c-0.4,7.5-4.8,14.1-8.7,20.5
			c-13.3,22.2-21.2,47.7-22.6,73.6c9.8,2.4,12.3,14.7,17.3,23.4c14.6,25.3,52.1,20.6,79,31.9c42.2,17.8,53,74.5,41.7,118.9
			c-3,11.8-6.9,24.5-9.1,36.8c-3.6,0.1-6.4,2.9-9.7,3.9c-1.1,0.3-2.2,0.4-3.3,0.9c-2.4,1-3.9,3.3-5.6,5.3c-1.8,2.3-4.1,4.7-6.5,6.5
			c-5.4-2.1-11.2,2.6-13.4,8s-2.4,11.4-4.8,16.6c-3,6.6-9.1,11.4-12.5,17.7c-4,7.4-4.1,16.2-5.4,24.5c-1.3,8.3-4.6,17.3-12.1,21.1
			c-2.5,1.3-5.5,1.9-7.3,4.1c-1.7,1.9-2,4.6-2.7,7c-2.2,7.3-8.4,12.8-10.9,20c-2.3,6.8-1.1,14.2-0.8,21.4c0.3,7.2-0.8,15.2-6.4,19.8
			c-3,2.5-7,3.6-10.4,5.6c-13.6,7.9-15.1,26.9-13.4,42.6c1.7,15.7,4.6,33.2-4.9,45.9c-7.6,10.2-21,13.9-31,21.8
			c-7.9,6.2-14.2,15.3-23.9,17.7c-6.5,1.6-13.3-0.2-20,0.4c-15.1,1.2-27.9,16-23.5,30.4c-3.1,13.3-7.7,28-19.8,34.3
			c-2.9,1.6-6.2,2.5-9.1,4.1c-3.7,2.1-6.7,5.1-9.6,8.1c-10.5,10.8-21.5,22.2-25.4,36.7c-1.2,4.4-1.9,9.3-5.2,12.3
			c-2.7,2.4-6.4,3.2-9.6,5c-7.7,4.6-9.8,14.8-16,21.3c-8.1,8.6-21.4,9.2-32.4,13.6c-14.4,5.8-26,18.9-41.4,20.3
			c-5.4,0.5-10.8-0.5-16.1-1.5c-9-1.7-17.3-5.4-26.1-7.3l2.9-11.5l4.9-1.6l4.9-16.5l-9.5-2.1l-4.5-9.1l-11.3-1.4l-1.9-0.1l-7.7,3.8
			l-8.9,0.2l-2.3-0.7l-6.1,2.2l-8.1,1.5l-3.7,5.1l-1.6,0.9l-10.8,3.7l-1.8,0.2l-8.3-1.5l-12.4-1.3l-12-2l-12-2.5l-4.1-9.1l-12-3.7
			l0.8-2.5l-7.8-6.6l-15.3-0.4l-8.2-7l0.4-4.5l-9.1-8.7l-7.8-0.8l-2.5,5.8l-8.2-0.8l-2.5-3.3h-6.2l-6.2-7.4h2.9l1.2-14.4l-6.6-3.3
			l-4.5-4.9l-14-4.9l-0.8-5.4l-12-6.2l3.7-2.1l1.6-7.4l6.6-1.6l-0.8-5.4l-6.2-2.5l-4.9-9.1v-6.6l-3.7-4.1l4.9-3.7l-6.6-2.5l-0.4-5.4
			l-8.2-0.4l-4.5,2.9l-10.3-0.8l-13.2,11.5l-7.8-2.9l-4.9,6.2l-3.3-7.8l4.5-5.8l-3.7-3.3l-8.2,3.7l-5.4-2.9l-9.9-0.4v-4.5l-6.6-0.4
			l0.4-6.6l-7.4-2.9l-9.9-11.5l-17.7-0.4l-3.7,4.1l-10.7-4.9l-6.6-9.5l1.2-9.9l-4.1-6.2l-8.7-0.4l-5.4-4.1v-4.5l-10.7-2.5l-8.2-7.9
			l1.2-8.3l-4.7-4.8l-3.9-0.2l-9.5-8.7l-1.9-3.9l-5-2.5v-2.6l6.4-4.7l-7.3,0.8l-1.9-2.7l-3.7,2.7l-5-1.1l-4.1-5.5l-6.7-1.5l-0.6-6.2
			l4.1-1.9v-5.6l-6.1-3.9l-1.7-7.3l-3.9-3.7h-3.9l-3.1,4.3h-4.7l-5.9-6.7l-6.2-1.3l-10-6.7l-7.8-4.5l-4.8-5.4l-6.4-0.2l-2.6-3.9
			l-4.1-2v-4.7H15l1.3-4.3l4.8-0.6v-2.2l-9.3-0.8l3.4-2.5v-4.5l6.7-7.1v-3.6l10.6-8.7l1.5-9.2l10.3-11.2l2.5-0.8l2-7.1l8.4-2.8
			l4.7-5.8l5.6-1.1l5-4.8l0.6-6.4l9.5-0.6l7-5.8l11-6.2l6.7-0.3l-0.9,2.2l-8.6,1.5l-3.4,5l12,0.2l3.9,3.9l11.8-0.6l0.8-5.8l6.7-4.5
			l2.6,2.8l-5,3l-1.1,8.6l2.8,2.2l0.2,5.6l1.5-5.8l4.5-2.2l1.3,4.1h9.5l1.5,3.1l3.8-3.7l0.6-3.9l3.7,0.3l2.8,6.9l3.4-3l0.2-2.8
			l16.8-1.5l-2.8,2l0.3,5.3l3.4,2l0.6,2.8h5.3l-5.6,3v7.6l2-4.8h7.2l4.8-3.4l0.2-9l3.7-5.3l6.2-1.5l0.6-5.3l-2.6-2.5l-0.6-4.5l3.9-2.6
			l3.1-8.2l-8.5-3.2l-0.2-5.8l-12.2-0.7l-2.8-13.7l2.6-8.4l6.8-3.4l-3-2.8l-0.3-4.7l4.5-1.5l-0.6-9.5l-8.3-8.1l-5.4,0.3l-1.9-2.2v8.1
			l-5.6,1.3l-2,3.9h-5l-1.1-10.5l3.7-0.3v-13.1l-3.4-2v-2.5l4.5-1.1l0.2-9.5l-5-2.2l-0.2-12l-2.8-2v-2.5l5.3,1.3l1.5-4.5l-3.4-1.9
			v-5.6l-4.5,3.6h-2.2l-1.1,3.9l-4.3-3.4l2.2-3.6l-2.2-7.1l4.8-1.9v-9.2l3.9-0.9v-5.3l4.7-4.5l5.4-2.2l-3.4-3.1v-9.2l6.9-8.4l-0.2-9.8
			l5.3-3.4h5.6l-2.8-4.5l3.4-6.5l4.5-0.2l1.9-3.7H190l-0.2-5.8l3.9-1.3l1.1-9.5l5.6-3.7l0.6,10.6l6.4,7l0.3,7.3l4.8,3.8l6.6-3.5v-4.8
			l-2.5,3.9h-4.8v-4.5l-5.3-5.3l1.3-5.8l-3.9-0.9l-1.1-3.6l3.9-2.8l2,2.8l4.1-1.7l0.3-7.3l6.2,0.8h2.2l0.6,3.4l9.4,0.3l1.1-2.8
			l4.8-0.6l3.9-11l2.8-1.7v-5.6l-2.6-1.1l0.3-9.2l9.1,1l5.2,2.5l-1.3,9.2l3.8,9l3.1-3.6l7.1-0.6l2.6,2.4l2.4-1.8l-7-3.4l-7.6-1.2
			l0.8-2.1l4-1l1-7.4l-4-2.8l-2.4-4.6l0.3-0.2v-8.4l9-1.5l0.8-2.9l-5.8-5.8l4.6-2.1l2-8.7l4.6-0.8l6.7-6.7l5.4-1.2l1.7-2.5l-9.2,2.5
			l-3.4,5l-7.8,3.7v4.6l-6.3-0.4l-3.4,2.6l3.4,3.7l-1.2,2.1l4.5,1.2l-0.8,3.8h-3.4l-6.3,4.9v8l-4.6,0.4l-3.3-2.5l-6.3,4.1l-1.7,11.2
			l2.9,2.6l0.4,2.9l-7.5,3.7l-2.9,9.6h-6.3l-8-5.4l-4.6,0.3l-5,7.5h-5l-0.8-4.9l10-9.6l10.1-12.6l8-1.2l3.2-4.1l2.6-7.5l3.7-2.1
			l1.2-5.8l5-1.7l6.7,0.8l2.5-3.3h-7.1v-8h7.5l0.4-7.1l4.9-3.8l5.5,1.2l4.6-4.9l7.1-5l0.8-2.1h7.5l0.9-3.7l3.4-0.5v10l4.1,3.4l2.9-3.7
			h3.4l-3.8-3.8v-6.3l10.1,1.2l1.7-3.7l10-0.4l0.4-3.7h3.4v7.5l2.5,4.6l-4.6,4.9l-7.5-4.1l-2.9,2.9l-6.7,0.9l10.4,1.7l1.2,5.4l6.3-3.8
			l5.8-3.3l4.6,3.3l-6.6,1.3l-0.9,5.8l2.1,2l-3.7,2.1l-5-3.7v2.5l-5.5,4.6l-0.8-4.1v-4.3l-6.7-1.7l-2-4.6l-2.9,0.9l-5,3.7v5.9l2.5,1.2
			l5.8-6.3l6.7,5.4l-4.6,5.5h-5l-2,3.7l-2.9-4.9l-4.6,2.5l-0.5,5.4h-4.1l-0.9,4.6l-8.7,3.8l2.5,5l5-5.5l2.9,3.4l-1.7,5.4v5.8l-7.5-0.8
			l6.7,5.8l4.1-0.8l-1.2-5l5-1.2l0.8-5.5l-3.7-3.2l5.4-3.8l2.5,2.5l5-3.7l-6.3-1.7l-2-3.8l4.9-0.8l4.6-5l6.3,2.1l7.1-2.5l2.6-6.3
			l10.9,3.7l-1.3,5l-4.1,0.4l-7.1,2.5l-3.8-0.4v4.3l-0.8,4.6l-5.8-4.6l-0.4,4.6l7.1,2l-1.2,5l-5,3.4l3.1,3.6l0.6,4.5l2.5,1.9
			l-0.6-12.3l3.1-1.7l0.8-10.1l4.3-0.8l0.2-3.1h15.1v2l-4.1,3l2.8,11.5v-8.4l11.1-1.7l1.2-2.2l-5.4-1.7l4.6-4.6l-5-2.5l-5.8,1.2
			l-3.4-3.4l3.7-6.7l-5-4.5l3.4-3.8C334.4,3819.9,335.3,3819.6,336.6,3819.1z"/>
		<path id="amazonas" class="st0" d="M4401.4,3688.4l-46.4,43.7l-0.4,16.9l8.1-6.3l19.4,0.6l3.8-4.6l6.5-0.2l3.8,8.8l18.2,6.7h16.5l6.5-6.9l7.3,0.6
			l7.5,9.2l-0.8,6.3l5.4,13.8l8.3,7.9l-0.8,9l-5.2,4.8l2.5,10.6h5l5.8-6.3h8.1l2.1,2.7l6.1,1l23.4,28.8l8.6,3.3l6.3,10.9l19,13.1
			l3.6,13.2l13.8,21.5l12.3,1.3l14,18.2l13.4,9.4l0.4,10.9l-8.8,9.4l-5.2-0.2l-0.6,2.7l5.6,5l-0.8,6.9l-4.4,2.9l0.8,8.1l4,0.4l4.6,7.3
			l2.5,19.8l7.1,2.7l6.1,15.9h6.1l3.8-4.8l4-0.2l5.8,5v15.9l5.8,2.3l-0.2,11.7l-3.8,2.7l-2.7,16.9l-6.3,4.6l1,4l9.4,4l13.4,20
			l2.5,15.7l11.1,13.4l-1,4.4l-3.3,2.3v4l4.2,4l0.8,11.3l8.1,9.6l6.3,26.3l4.8,3.3l2.1,13.8l6.7,5.2l1.3,5l-6.3,5.4l1.9,4l5.2,1.5
			l0.8,5.8l5.6,4l5.2,18.6l8.6,5l1.3,12.1l-4.2,4l-0.4,7.7l4,7.9l16.3,13.6l1.9,12.1l3.1,2.1v4.2l-3.6,3.1v3.3l-5.4,8.8l0.2,24.4
			l4.4,4.2l-0.4,8.6l-72.9,19.8l2.1-7.3l-5.1-6.4l2.3-6.9v-4.6l-6.9-5.7l-5.2-20l-6.9-6.3l-3.4-15.5l5.2-13.2l6.9-1.1l4.6-4.6l5.2-1.7
			l-0.6-6.3l-4-3.4l-0.6-10.3l5.2-6.3l-2.3-6.3l-22.6-15.7l-2.3-8.6l-5.7-3.4l5.7-5.2l0.6-16.6l-2.9-2.9l2.9-5.7l-1.1-5.2l-14.3-10.9
			l-3.6-11.9l6-9.2l-1.4-22.5l-6.4-12.9h-5l-2.8-2.3l-6.4-2.3l-1.4,3.7l-11-1.4l-23.9-17.9l-1.4-7.3l-11-12.9l1.8-8.7l-1.8-6l-6.4-3.2
			l-0.5-9.2l-2.8-0.9l7.8-4.6l-0.9-10.1l5.5-5.5l-0.5-2.8l-15.6-10.1l-0.9-8.3l4.6-1.4l3.7-6.4l-5.5-3.2l-3.7-8.7l0.5-15.6l-14.7-7.3
			l-13.3,5.5l1.4,10.6l-7.3,10.1l-14.7,0.9l-14.7,16.1l0.5,8.3l-6,13.8l-15.1,13.3l-16.1,2.3l-9.6-2.8h-16.1l-7.3,12.4l-13.8,2.8
			l-5,4.6l-12.4,12.6l-19.8,9.4l-4.2,7.7l-10.2,3.6l0.2,4.8l7.7,5.6l-0.2,7.7l5,5l-0.8,5.2l-2.5,1.9l-2.3,14.6l-14.8,0.4l-35.3-18.4
			l-25.5-26.1l-1.3-8.1l-17.5-19.6l-10-2.7l-15.9-14.6l-11.3,0.2l-4.4,11.5l-10.4,13.4l-0.2,11.5l-3.8,6.9l-7.9,5.2l0.4,4.8l17.1,1
			l-0.2,10.2l-4,2.1v9h6.9l3.8-4.4l10.9,0.4l1,5.6l2.1,1.9l0.2,5.2l7.5,2.3l-0.4,10.6h-458.6l-5.8-5.8l-9.2,0.2l-6.7-7.7l-14.6-1.3
			l-4-2.7h-10.4l-2.1-2.9l-15.7-4.6l-3.6-2.7l-9.4,0.2l-4.4,5.6l-12.5,3.3l-10.4,11.5h-23.2l-5-4.8l-9.8,1.5l-4,3.6h-6.7l-7.7,7.1
			l-21,0.7l0.2,244.7l3.7,2.8l3.8-2.1l-1.6-4.1l11.7-10.5l8.4,0.1l2.8-4.1l16.2-0.1l1.8,7.1l-4,2.8l-0.6,4.3h6.5l2.5,4.9l3.7,0.6
			l0.4-4.6l7.5-3.8l7.4,0.9l2.4-4.9l8.9,0.3l5.2,7.5h6.9l7.1,5.2l14.5-1l4.7-3.8l17.3-0.7l3.5,4.7l6.8-1.3l1.3,9l6.5,4l0.9-5.3l5-0.9
			l6.9-10.3l16.8,0.6l1.9-3l2.5-0.7l3.8,8l5.3,3.5l5.6-0.3l1.3,3.5l13.4,0.4l3,3.4l-0.1,4.4l8.7,4l4.1,5l-0.1,8l-4,1.6l-0.4,7.1
			l6.1-0.4l1.6,4l6.8,0.3l4.9,4l0.3,3.5l-10.9,3.7v4.4l6.5,4.7l0.9,5.8l4.6,3.7l9.1-1l0.2,11.4l-7.4,0.1l-4.1,3.8l-0.3,10.5l3.8,0.3
			l0.7,5.2l4,1.2l-0.1,15.2l-6.1,1.2l-3.8-2.7l-5.6,5.9v10.9l5.3-1l1.6,4.7l9.9,2.8l3.4,13.6l9.3,6.8l-4.9,7.5l-4.6-5l-7.7,0.3
			l-2.2-4.7h-9.9l-4.7,6.2l1.5,5.9l-11.7,11.2l-5.8,0.3l-1.5-3.2l-17-1.2l-0.3-4l3-2.5v-9.3l-4.6-2.8l-6.5,8.9h-5.2l-1.9-5.3l-3.8,1
			l-0.7,7.4l-4.3,4.4l-4.4-0.1l1.8-9l-20.2-14l-10.9-12.1l0.1-6.5l-14.5-7.5l-2.7,4.3l-10.9,4.4l-8.1,14.2l-7.2,4.1l-4.9-1.3l-7.2,7.5
			l-4.9,0.7l4.9,3.4l-8.4,9.7l-5.2-0.9l0.4-4.6l-8.7-3.4l0.1-4.4l-16.1-4.4l-1.3,5.2l-10.9,7.4l-4.4,8.9l-17.7,5.9l-5.8,6.6l-11.2,1.2
			l-3.4-5.2h-5.2l-10.5,4.4l-17.9-2.7l-6.9,10l-7.7,0.4l-6.1-9.6l-9.7,4.9l4.6,3.4l-4.7,4.7l-7.8-0.3l-4,4.3v259.2l6.9,9l-0.3,5.3
			l-4,4.4v7.5l4.9,4.1l4,10.6l16.1,17.6l9.6,3.8l11.2,14l24.1,3.4l7.7,11.4l19,7.5l22.4,19.9l18.6,9.4l13.6,3.4l4.1,7.8l4.7,1.5
			l3.1,3.8l-4.3,2.5l0.6,4.3l7.8,5.5l0.3,10.6l-4.9,2.8l0.9,4.1l13.3,9.6l0.7,11.8l-4.6,3l-0.1,5.5l-9.7,8.3v10.8l-11.4,9l2.1,3.8
			l7.4,1l8.9,16.4l10.9,8.9l-0.3,9l11.7,8.1v4.7l5.2,2.5l-1,5.5l-4.9,1.8l0.9,4.6l10.3,14.3l8.9,0.7l7.8,15.5l7.5-2.1l6.8,5.3l-1.6,4
			l-6.9,3.4l1.3,3.5l5.8,1.2v6l4.9,4l-3.9,6.8l1,5l4.9,2.1l9.3,11.5l-1.5,4l-3,0.7l-6.9,8.4l-1,18.9l-6.5,1.6l0.9,6.9l3.7,2.7
			l-0.4,7.2l6.6,5.3l0.4,24.9l4.3,3.1l-2.2,9.4l-5.6,0.6l-4.6,5.6l-2.1,31l-8.7,6.3l4.3,11.7l2.5,1.9l-191.9,1040l-10-11.4l-3.4-3.7
			l-5.5,4.6l-4.3-3.5l-1.2-7.8l-5.2-3.8l2.1-5.6l0.6-3l-11.4-12.1l-0.9-8l-6.3-3.7l-1.6-6.5l-12.8-14l-6.8-1.8l-13.3-16.8l-2.2-8.3
			l-7.1-10.3l-3.1-2.2l-2.5,1.3l-5-3.2l-2.2-6.2l-9.3-5.2l-6.5-8.9l-6.6-1.6l0.1-5l-4.7-0.7l-6.1,5.5l-16.4-2.1l-9.9,10.8h-3.8v15.5
			l-6.5,0.4l-1.8-5.9h-14l-6.9-4.7l-3.1-4.7l-27.8-1.5l-1.3-2.4l-6.2-0.1l-2.1,0.7l-2.1,7.4l-7.7-0.4l-5.3-4.7l-4.6-0.3l-0.7-9.4
			l-1.2-3l-1.9,5.5l-6.9,0.3l-0.9-5.6l-5.2-0.9l-9.3-15.2l-6.5-2.8l-8.9,2.8l246.4-400.5l-5.7-4.1l0.2-7.3l4.4-1.5l1.5-6.7l-4.4-1.7
			l3.8-6.3l-11.3-10.2l-1.5,8.1l-6.5,5.6l-5.6,12.1l-10,2.5l-0.6-5l-6.5-5.4l3.8-5l0.4-7.5l3.6-3.1l-8.6-7.3l-6.3,5.6l0.4,3.3
			l-7.5,3.3l-6.3-4.4l2.7-3.6l-4.4-4.6l0.4-22.3l-13.8-11.5l-18.4,15l-14.8-1.9l-3.3-9l11.5-6.7l11.5,0.2l4.6-6.9l-10.4-8.4l-7.1,4.4
			l-5-1l-6.3-5.8l-7.7,2.3l-3.1,6.9l-9.4,6.1l-9-0.4l-5.4-5l2.1-14.2l-5.4-9.2l-5.8,0.4l-4.6,9.6l-9.2-2.1l-8.4-18l-10.8-4.2
			l-11.7,1.7l1.3,2.5l12.5,5.4l5,6.7l-1.7,5.8l-9.6,2.5l-4.2,2.9h-6.3l-12.5-10l-0.4-9.2l5.8-2.5l-0.8-15.9h-2.9l-1.7,7.1l-11.7,0.8
			l-5.4-3.3l-0.8-7.1l7.5-2.1l2.5-7.5l-7.1-6.7l-8.3,1.7l-4.6-4.6h-12.9l-12.5-19.6h-4.6l-5,5.8l-7.9-0.8l-9.6-10.4l1.7-10l-9.6-10
			l-13.8,0.8l-12.1,11.3l-9.2-1.3l-6.7-14.2l-13.8,1.3l-4.2,7.9l11.3,10.9l2.5,9.6l-6.7,7.5l-16.7-16.7l-22.1,2.5l-5.8,6.7l-7.9,3.8
			l-1.3,5l5.4,3.8l0.4,6.3l7.9,5.4l0.4,10l-11.3,10.4l-6.7,0.4l-6.3,3.8l-4.6-2.1l-0.8-7.5l5.4-5.8l-1.3-1.7l-10,2.5l-8.8-7.9l-1.3-5
			h-6.3l-11.3,18.8l-6.7,0.8l-1.3-4.2l4.6-5l0.4-11.3l-4.2-2.5l-6.7,7.5l-4.6,10l-12.5,3.3l-4.6-6.3l-1.3,2.1l0.8,5l-10.4,7.1l-5-2.5
			v-10l3.8-1.7V5740l-14.2-5.4l-12.5-21.7h-7.1l-5,5l1.7,18.4l4.2,4.2l-0.8,5.8l-7.5,1.7l-3.8-9.6l-6.7-4.2l0.4-3.3l5.4-4.2l2.1-16.7
			l-7.1-7.5l-17.9,0.8l-14.6-7.5l-11.7-3.3l-4.2-6.7l-8.3,0.8l-18,11.7l-5.4-0.4l-3.3-12.5l4.6-2.5l4.2-12.9l-7.1-6.7l-9.6,5l-4.6,9.6
			l-10.4,5l-2.1,7.5l-3.8,0.4l-3.8-7.9h-4.2l-4.2,16.3l-8.3,14.6l-3.8,16.7l-8.8,1.7l-4.2-4.2l-4.6,4.2h-3.8l-2.5,10l8.3,8.3l0.8,7.9
			l-7.5,1.7l-2.9-9.6l-5.4-2.9l-10,7.9l-11.3-1.3l-10.4-13.8l-7.1,1.3l-12.5,16.7l-20.9,13.8l-1.3,5.8l5.4,3.3l0.4,7.9l-7.9,7.5
			l-5.8-1.3v-16.3l-4.6-2.9l-1.7,8.3l-15,3.8l-2.9-2.9l4.2-4.6l-11.3-1.7l-4.6,8.3l5.8,8.8l-2.1,5l-7.5,0.4l1.7-6.7l-7.1-7.1h-3.3
			l0.4,8.8l-21.3,2.9l-4.6,4.2h-5.8l1.7-6.3l-5.4-14.2l-3.3-0.4l-3.3-8.4h-5.4l-6.7,10h-3.8l-6.3-7.5h-9.6l-7.1,12.1l-3.3-0.8l-2.1-10
			l-26.3,1.7l-14.6-20l-3.3,4.2l-5.4,0.8v12.9l-10.4,7.5l-2.5,12.5l-9.2,1.3l-5-4.6l5-2.5v-12.5l-9.6-8.3l-9.6,4.2l3.8,3.8l-0.8,10.4
			l-8.8,2.1v-10.9l-9.2-9.6l-2.9,3.3l2.5,5l-27.6,16.7l-18.4,0.4l-12.5,12.5l-3.3-3.3l0.4-7.5l5.4-4.2l-0.4-6.3l-13.4-7.9l-3.3-10
			l5.8-4.6l-0.4-7.1l-10.9,2.9l-6.3,7.1h-4.6l-6.3-18.8h-5.8v17.1l-5.8,5l-5.4-7.1l3.8-6.3l-4.6-11.3l-1.7,7.5l-15,4.6l-6.3-5v-3.8
			h4.6l4.6-7.1l-15.4-15l-7.9-2.5l-0.4-15l-2.5-1.3l-0.4-5.4l11.3-5.8h9.2l2.1-18.4l11.3-9.6l6.3,0.8l1.3-12.5l-10.9,1.3l-7.1-6.3
			l0.8-5.8h3.3l5-6.3l-5-6.3h-6.7l-6.7-11.3l1.3-5.8l5,1.3l4.2-7.1v-13.8l-5.8-2.9v-3.8l5-2.1l1.3-5.4l-7.5-9.6l-4.6,2.9l-6.3-4.6
			v-9.6l3.3-2.1l0.4-10.9l-7.5-4.2l-5.8,5h-5.8l-0.4-10l-11.3-13.8l-6.3,6.7l4.2,2.9v9.6l-5.8,5l-6.3-0.4l2.1-8.8l-8.8-4.2l-8.3,0.4
			l-5,3.8l-0.8,7.9l4.6,0.8v7.9l-7.1,2.5l-1.3-6.7l-6.3-3.8l-6.7-8.8l-6.7,3.3l-5.4-7.5h-5.4l-0.4,4.6l-7.1,4.2l-6.3-5l1.3-7.9
			l-8.8-10h-19.2l-13.8-12.5l0.4-5l3.3-1.3l7.5-10v-5.4l-4.6-2.5l-0.4-3.8l4.6-0.4l10.4-13.8l7.9-3.8v-8.8l-2.9-0.4l-4.6,5.4h-3.8
			v-3.8l-3.8-2.1l0.4-7.1h7.1l0.4-11.3l-6.7-1.3l-1.7-2.5l6.7-5.8l-2.9-7.1h-5l-5.4,4.6l-8.3-5.4l4.6-4.2l-4.6-13.8l-16.7,0.8
			l-3.8-4.6l5-4.6l4.2,2.1l5.4-0.8l2.9-6.3l-7.5-7.5l-3.3,1.7l-4.6-4.2l4.6-3.3l0.4-19.2h-2.9l-5.4,9.2h-3.8l-1.7-10.9l-6.7-3.3
			l3.3-16.7l-4.2-1.3l-4.6,6.3h-9.2l-5.8-16.3h-4.2v4.2l-6.7,5.8h-9.2l-1.7-15.4l-7.5-9.2l2.5,8.8l-6.7,17.5l-6.3,1.3l-4.6-8.8h-2.1
			l-2.9,3.8l-6.3,0.4l-5-8.8h-15.9l0.9-9.2l-3.9-13l-5.8-3.3V5285l-8.8-5.8l-5.8,0.8v2.9l-7.9,5l-5.4-3.3l0.4-7.1l6.7-2.9v-5l-7.9-5
			l-7.9,5.4l4.2,4.2l-5.8,7.5h-2.9l-3.3-7.1l-5.4-4.2l-5.8-10.9l7.5-11.3l-3.8-5.4l1.3-7.5h-2.9l-9.2,7.9l4.2,7.9l-6.7,8.8l-12.9,0.8
			l-12.5-12.9l-10-1.7l-3.8-7.5h-9.6l-4.6,5l-10.4,0.4l-9.6-13.8l-7.9-0.4l-2.9-7.9l4.6-2.9l0.8-15l-9.2-8.8h-9.6l-3.8-5l5.4-6.3
			l7.5-0.4l7.5,6.7l5.8-3.3l-4.2-3.8v-7.5l7.5-2.5l1.7-7.9l-5.8-3.3l-4.6,6.3l-6.3,2.1l-3.8-9.6l3.3-3.8l0.4-3.8l5-1.7l-6.3-5
			l-4.6,7.1h-5.8l-2.5-4.6l4.2-3.3v-6.3h-14.2L1816,5128l3.6-7.9l7.9,0.8l5.4-3.3l0.8-7.7l-8.3-1l-6.9-10.2l-0.4-8.8l5.6-1.3l-0.2-8.6
			l-12.3-6.1l-0.8-6.7l4.6-0.8l-0.5-8.2l-2.6-5h-3.6l-4.2,8.3l-2.7-0.2l-0.4-3.1l-4.2-3.3l-0.2-7.5l5-3.1l-1.5-10l-15.7,1.7l-2.9-8.6
			l-5.8,1.7v5l-4.2-1.7l-1.3-12.7l-4.6,1.7l-3.1,6.1l-4.2-2.3l-1-10.6l-8.6-7.3l-1.3-8.8l-11.5-7.1l-9.4,0.2l-0.6-3.3l4.6-3.3v-4.8
			l-8.1-0.2l-6.9,2.9l-1,6.5l-5.8,0.4l-1.7-3.6l-6.7-3.3l0.6-3.3l5.4-4l-1.9-6.9l-9,4.4l-2.9,7.7l-4.4-0.8l-0.8-3.6l-5.6-2.5l-0.8-5.4
			l5.4-3.8v-5.4l-10-6.3l0.6-12.1l-5-4.4l-1.3-9.2l-6.1-9.2l-8.6-3.1l-4-8.8l-6.3,3.3l-1.9,7.7l-9.4,6.1l-0.6,8.6l-9,0.6l-3.3-5
			l-2.9-0.2l-4.4-10.6l-8.3,0.6l-0.8,4.6h-2.7l-4.2-4.8l-1-7.9l-3.3-2.3l-6.1,0.2l-3.8-11.7l-12.1-0.8l-10-10.9l-8.8-0.8v-7.7
			l-3.1-5.2l-8.1-0.8l-2.3-2.9l-13.4-0.2l-11.3-5l-3.6-6.7l-11.9-1.3l-9,6.7l-3.8,13.6l-6.7,4.4l-1.5,6.3l-14.2,0.2l-2.1-4.4l-4.2-0.6
			l-5.4,1.5l-6.5-0.4l-5.6-7.9l-12.3,0.6l-2.1,5l-3.6,0.2l-10.6-7.3l-4-6.1l-9.2-7.7l-18.8-5l-5-8.8l-7.9-4.6l-9.4,1.5l-18.6-19.2
			l0.2-6.3l-4-1.9l-6.5,4.4l0.2,6.1l-27.1-1.9l-3.8,4.6l-9.4-0.2l-4.2-5.4l-21.7-4.8l-15-20.9l-7.7,0.4l-3.3-4.8l-14.8-4.4l-13.8-14.4
			l-1.9-11.1l-10.6-10.2l-3.8-7.1l-8.8-3.3v-2.9l4.6-2.9l0.6-4.2L1178,4717l-9.8,0.8l-6.3-8.1l-0.6-5.6l-13.4,3.1l-1.7,5.6l-6.9,0.2
			l-0.4-7.5l4.4-2.5l-9-12.3h-6.9l-2.3-5.2l-5.6,5.2v5l-8.6-0.4l0.2-4l-5.2-4l-2.3,6.3l-5.4-2.7l-0.2-11.9l-7.7,0.8l0.8,4.2l-5.4,4.2
			l-10-8.8l1.3-5.4l-11.5-2.7l-7.7,7.5l-0.6,12.7l-7.7-0.4l-2.7-4.8l-7.7,1.3l-3.1,4l-5.8-1.6l-0.5,7.1l-0.4,10.2l1.7,26l0.2,14.9
			l-2.2,2.2l-9.1,0.6l-3.3-5.3l-1.8-0.8l-3.5,3.5l-11.3,0.6l-8.3,1.5l-1.3,0l-8.8-3.5l-4.3-0.4l-2.1-0.2l-1.8,0.4l-3.7,0.9l-15.2,8.6
			l-4.7-2.6l-5.1-2.7l-0.8-0.7l-2-4.3l-6.5-2.4l-3.9,2.9l-1.1-0.2l-1-0.8l-4.3-5.7l-1.9-0.3l-7.7-1.8l-10.9-1.7l-2.1-0.3l-11.4,4.3
			l-0.9,1.7l2.4,2.4l0.6,1.5l-0.8,1.6l-12,1l-0.5-2l-3.1-1.4l-3.2-1.1l-4.8,1.1l-4,2.9l-0.9-0.2l-1.7,0.5l-3.9,4.7l-3.5-0.4l-6.5-1
			l-1.9-0.8l-6.4-0.3l-6.3-0.1l-7.6-2.2l-5-2.6l-8.9-2.3l-11.4-0.4l-9.2-5.1l-2.2,0.5l-6.5,2.4l-7-4.6l-2,0.2l-8.9-1.9l-1.9-3.1
			l1.8-5.2l-0.9-2.4l-3.7-3.9l-6-11.4l-4.4-5.6l-2.6-1.5l-9.5-0.7l-12.9,0.5l-1.2,1.2l-2.4,2.3l-1.7,0.6l-11,2.7l-10.3,2.1l-7.3-2.5
			l-11-2.6l-9-3.5l-10.7-2.9l-8.6-2.3l-1.5-0.1l-5.4-1.6l-9.9-11.5l2.1-4.5l-4.1-0.8l-8.2,1.2l-4.1,4.5l-18.1,7.4l-3.7,3.3l-0.8-6.6
			l2.5-2.9l-2.9-26.4c0,0,3.7,0.4,3.7-2.9c0-3.3-1.2-16.1-1.2-16.1l5.8-14.8l4.9-1.6l4.5-12.8l-2.9-14l-14.4-1.6l-3.3,3.3l-15.7,0.8
			l-8.7-12.4l-20.6-11.1h-8.2c0,0-4-11.7-4.5-13.1c7.4,2,14.6,4.9,22.3,6.4c5.3,1,10.7,2,16.1,1.5c15.4-1.4,27-14.5,41.4-20.3
			c11-4.4,24.2-5,32.4-13.6c6.2-6.5,8.3-16.7,16-21.3c3.1-1.8,6.9-2.6,9.6-5c3.3-3.1,4-8,5.2-12.3c3.9-14.5,14.9-26,25.4-36.7
			c3-3,6-6.1,9.6-8.1c2.9-1.6,6.1-2.6,9.1-4.1c12.1-6.4,16.6-21.1,19.8-34.3c-4.4-14.5,8.5-29.3,23.5-30.4c6.7-0.5,13.5,1.2,20-0.4
			c9.7-2.4,16.1-11.5,23.9-17.7c10-7.9,23.4-11.6,31-21.8c9.4-12.6,6.6-30.2,4.9-45.9c-1.7-15.7-0.2-34.7,13.4-42.6
			c3.4-2,7.4-3.1,10.4-5.6c5.5-4.6,6.6-12.6,6.4-19.8c-0.3-7.2-1.5-14.6,0.8-21.4c2.5-7.2,8.7-12.7,10.9-20c0.7-2.4,1.1-5.1,2.7-7
			c1.8-2.1,4.8-2.8,7.3-4.1c7.5-3.8,10.8-12.7,12.1-21.1c1.3-8.3,1.4-17.1,5.4-24.5c3.5-6.4,9.6-11.1,12.5-17.7
			c2.4-5.3,2.5-11.3,4.8-16.6s8.1-10.1,13.4-8c2.3-1.8,4.6-4.2,6.5-6.5c1.6-2,3.1-4.3,5.6-5.3c1-0.4,2.2-0.5,3.3-0.9
			c3.4-1,6.1-3.8,9.7-3.9c-3.1,17.3-2.8,34,8.1,47c11.5,13.8,30.7,17.5,47.1,24.6c16.4,7.2,32.8,23.6,27.3,40.6
			c14.5-6.7,31.7,0.7,44.2,10.7c12.5,10,23.1,22.9,37.7,29.3c35.4,15.6,73.9-12.1,102.7-38c36.5-32.9,73.5-66.4,99.7-108
			c16-25.4,31-56.2,60.1-63.6c4.8-1.2,10.3-2,13.2-6.1c5-6.9-1.7-16.2-1.6-24.7c0.1-10.6,10.4-17.8,19.2-23.7
			c50.7-33.9,87.6-87.9,100.8-147.4c1.5-6.9,2.8-13.9,6.3-20c3.6-6.3,9.2-11.1,14.5-16.1c18.6-17.6,33.2-38.7,47.8-59.8
			c8,0.1,15.7,0.4,22.8-3.4c2.4-1.3,4.6-3.1,7.1-4.4c5.6-3.1,12.3-3.7,18.7-3.9c5.5-0.2,11.8,0.3,15.1,4.7c2,2.6,2.4,6,3.8,8.9
			c2.8,5.7,9.7,9.2,15.9,7.9c5.1-1,9.3-4.7,14-6.9c4.7-2.2,11.4-2.4,14.1,2.1c0.9,1.5,1.2,3.2,1.5,4.9c2.5,14.4,5.9,28.6,10.3,42.5
			c3.6,11.5,8,22.9,15.1,32.6c2.4,3.2,5.2,6.8,4.7,10.7c-0.4,3.1-2.8,5.5-5,7.6c-6.5,6.3-12.9,12.6-19.4,18.9c-5,4.9-10.4,11-9.2,17.9
			c1.1,6.1,7.2,10.1,9.6,15.9c0.3,0.7,0.5,1.6,0.4,2.3c-0.3,1.6-1.9,2.6-3.2,3.6s-2.2,3.2-1,4.3c-11.6,22.2-23.5,48.3-38,68.8
			c35.1,0,66.7,33,65,68.1c21.2-7.6,43.2,6.7,64.7,13.5c5.8,1.8,11.7,3.1,17.4,5.2c7.8,2.9,14.9,7.1,22.3,10.9
			c38.8,19.7,83.3,23.9,126.5,27.8c21.3,1.9,43.7,3.7,63.4-4.9c11.9-5.2,21.9-13.9,33.3-20.2c23.5-13,52.8-15.1,77.9-5.5
			c3.7,1.4,7.5,3.1,11.5,2.8c4.1-0.3,7.7-2.8,11.3-4.8c19.2-10.6,44.4-8.8,61.9,4.2c2.7,2,5.3,4.3,8.6,4.8c8.5,1.4,15.4-9.4,23.9-8.1
			c6.5,1,9.7,8.3,12.6,14.2s9.6,12,15.3,8.8c0-5.7,0-11.5,0.1-17.2c0-2.4,0.4-5.4,2.6-6.3c1.4-0.6,2.9-0.1,4.4,0.4
			c19.2,5.6,41.7-7.4,46.5-26.9c1.2-4.8,1.4-10,3.5-14.5c4.9-10.5,18.8-15.3,22.2-26.4c1.4-4.6,0.9-10,3.7-13.9
			c2.8-3.9,7.9-5.1,12.6-6c10.4-2,21.1-4,31.4-1.7s20.2,10.1,21.5,20.6c13.5,2.9,23.5,10.8,30.8,22.5c1.6,2.6,3,5.4,5.4,7.3
			c5.1,4.3,12.6,3.3,19.2,2.6c6.6-0.7,14.6-0.2,18,5.5c1.8,3,1.9,6.8,3.6,9.9c2.5,4.3,7.6,6,12.3,7.5c13.4,4.3,26.8,9.4,37.8,18.2
			c10.7,8.7,18.5,20.4,26,32c5.1,8,10.3,15.9,15.3,23.9c1,1.5,2,3.1,3.3,4.3c2.7,2.4,6.4,3.2,9.9,4.1c12.3,3.2,25.1,10.8,27.4,23.3
			c0.8,4.6,0.2,9.4,1.6,13.8c1.1,3.5,3.4,6.4,5.7,9.3c4.6,5.8,9.7,11.9,16.8,14.2c6.8,2.2,14.2,0.4,21.3,0.2c7.1-0.2,15.5,2.2,17.9,9
			c8.9,0.8,17,2.5,25.3-0.7c6.2,8.4,12.8,17.2,22.2,22c9.3,4.8,22.3,4.2,28.7-4.1c6.8-8.8,4.2-22.7,12.1-30.5
			c8.9-8.8,23.9-3.6,36.2-6.2c14-2.9,25.2-16.4,39.5-15.7c15.1,0.7,25.8,17,40.8,18.3c7.3,0.7,15.2-2.2,21.6,1.4
			c12.4,6.9,6.2,30,18.9,36.3c3.8,1.9,8.4,1.5,12.5,2.8c15.7,5,16,29.8,30.9,36.9c9.8,4.6,21.1-0.6,30.6-5.6
			c10.7-5.7,21.3-11.4,32-17.1c28.2-15.1,57.1-30.4,88.7-34.8c8.8-1.2,18.1-1.7,25.9-6.1c4.7-2.7,8.5-6.7,13.2-9.1
			c11.4-6,25.2-2.3,37.9-0.1c35.4,6.1,73.1-1.4,103.5-20.6c6.8-4.3,13.4-9.4,16.7-16.7c3.7-8.1,2.8-18,7.9-25.3
			c7.8-11.1,24.6-9.9,36.3-16.8c10.5-6.2,18.6-19.6,30.7-18.2c4.8,0.6,8.9,3.4,12.9,5.9c9.2,5.6,19.7,9.7,30.4,8.6
			c10.7-1.1,21.1-8.6,23.1-19.1c0.7-4,0.5-8.7,3.7-11.2c3.1-2.4,7.5-1.3,11.4-1.8c13-1.7,15.1-19.3,21.7-30.7
			c4.9-8.4,14-14.4,23.7-15.4c34.6-3.9,55.1-42.6,74.5-71.5c5.5-8.2,11.1-17.2,20.1-21.1c6.9-3,14.7-2.7,21.8-5
			c8.3-2.7,15-8.9,22.9-12.7c26.2-12.4,57,4.4,85.8,0.9c30-3.6,56.1-29,86.1-25.4c12.8,1.5,25.5,8.4,38.1,5.4
			c10.4-2.5,18-11.3,24.6-19.7c16.6-21.3,33.9-45.2,60-52c5.4-1.4,11.3-2.1,16-5.1c8.5-5.5,10.8-17,18.2-24
			c13.8-13.1,41.5-7.3,49.8-24.4c2.7-5.6,2.6-12.9,7.4-16.9c3.8-3.2,9.5-3.1,13.4-6.1c5.6-4.3,7.4-14.6,14.5-14.6
			c3.7,0,6.6,3.2,10.1,4.3c13.3,4.4,19.4-18.7,32.8-22.6c8.4-2.5,17.1,3.3,25.8,2.2c11.4-1.5,20.1-14.5,31.4-12.5
			c12.4,2.2,16.8,20.7,29.3,22.1c3.5,0.4,7-0.8,10.3-2c24.5-9.3,46.3-24.7,70.8-34c24.5-9.3,54.4-11.3,74.9,5.1
			C4394.2,3684.3,4397.3,3687.7,4401.4,3688.4z"/>
		<path id="catatumbo" class="st0" d="M2243.1,1287.6c-3.4-1.1-6.7-2.1-6.7-2.1l-19.7-2.7c-8,15.8-5.7,34-9.8,51.2c-2.9,12.1-10,23-11.9,35.3
			c-1.1,7-0.4,14.2,0.2,21.2c0.9,10.1,3.2,17.9,1,27.8c-2.7,12.3,5.2,24.1,8.9,36.2c3.6,11.7,3.3,24.3,2.9,36.6
			c-1,34.4-2.1,68.7-3.1,103.1c-0.4,14.9-0.9,30,2.6,44.5c7.2,29.8,30.3,53.5,39.7,82.7c2.6,8.2,4.2,16.7,7.3,24.7
			c4.9,12.6,13.7,23.5,19.1,35.9c3.5,8,5.8,16.8,11.4,23.5c10.3,12.5,29.1,14.4,45,11c5.4-1.1,11.2-2.7,16.1-0.2
			c1.9,1,3.4,2.5,4.9,4.1c20,21.5,27.5,52.2,18.6,80.2c-2.9,2.6-5.3,5.8-6.9,9.3c-0.6,1.5-1.2,3.1-1,4.7c0.6,4.7,6.3,6.5,10.7,8.1
			c10.4,3.7,19,12,23,22.3c4.2,10.9,3.8,24.1,11.9,32.5c3.4,3.5,8,5.8,11,9.7c4.8,6.2,4.4,14.7,3.8,22.5c-0.1,1.2-0.2,2.4-0.8,3.4
			c-0.7,1.1-1.8,1.8-2.9,2.4c5.5,6.8,13.9,13.3,22.6,12.7c8.7-0.7,17-5.8,21.4-13.4c0.9-1.5,1.6-3,1.6-4.7c0-1.3-0.3-2.5-0.4-3.8
			c-0.6-7.6,7.9-13.1,15.6-13.5c7.7-0.3,15.1,2.5,22.8,2.7c3.3,0.1,6.9-0.5,9.3-2.7c3.8-3.5,3.5-9.5,2.8-14.7
			c-0.6-4.7-1.2-9.4-1.7-14.1c-0.2-1.7-0.5-3.5-1.6-4.8c-1.7-1.9-4.8-2.1-6.3-4.1c-2.1-2.9,0.7-7.1,4.1-8.3s7.2-0.7,10.6-1.7
			c6.3-1.8,11.1-8.4,17.7-8.3c7.2,0.1,11.4,7.9,14.2,14.5c2.8,6.6,7.3,14.1,14.5,13.7v-17.7l-10.6-8.3l-0.8-17.7l-4.1-0.5v-5l4.8-4.4
			l-0.2-12.1l-3.8-2.1l0.2-9.4l-4.6-3.8l-0.8-44.3l5.6-4.4l-0.6-21.9l7.3-7.5l0.4-20l-3.8-8.8l-5.4-4.2l1.2-11l9.1-1.8l-0.3-2.2
			l0.4-1.2l1.1-0.2l1.3-1.1l-0.1-4.2l8.9-6.2l-0.5-4.5l1.4-10.5l14.9,3.2l6.8,9.4l0.5-1.6l1.9-1l0.6-1.4l0.7-10.9l0.4-1.8l-1.6-15.9
			l-1.1-1.7l-7.6-7.5l5.1-5.9l-1.3-9.6l-3.3-18.2l1.2-2l-0.1-1.2l-6.4-18l-1.9-1.3l1.2-13.6l1.2-2.6l1.2-8.8l-4.3-2.7l-1-15l-3,0.2
			l-3.9-5.1l0.4-2.2l-1.1-1.9l-1.9-0.9l-1.9,2.6l-71.1-81.9l-4.1-2.2l-0.9-2.9l-2.2-0.3l-0.7-2l-5.1,0.4l-44-182.5l-0.4-1.9l-1.5-3.4
			l-1.2-1.5l-1-0.9l-0.1-1.1l1.5-1.1l-3.5-3.8l-2.3,0.2l-2.8,2.7l-1.1-0.3l-4.7-5.1l-0.8-1.5l0.9-2.7l-4.6-3.9l-0.7,0.8l-0.5,5.6
			l-1,0.2l-19-3.5l-2,0.2l-1.3,2.2l-7.1,11.3l-5.6,1.7l-2.5,3.2l-2.3,0.5l-5.8-3.3l-0.9-2.2l0.9-2.2l-0.4-1.1l-14.5-14.3l-0.8-1.2
			l8.7-16.9l-2.5-9.2l-5.6-3.6l-3-0.3l-0.7-0.8l2.5-2.5l0.5-9.2l-3.2-2.5l0-5.7l-2.7-1l-0.9-1.3l1-1.4l-0.1-1.3l-3.8-1.7l-5.6,3.6
			l-1-0.6l-1.3,0.2l-1.4,1.2l-13.4,8.6l-1.1,1.2l-0.8,6.3l-3.2,0.8l-1.4,2.9l-15.9-0.1l-1.4,4.2l-4.7,4l-10.3,6.4l-3.3,5.5l-12.5-0.8
			l-13.7,8.4l-3.4-0.8C2250.5,1289.9,2246.7,1288.8,2243.1,1287.6z"/>
		<path id="orinoco" class="st0" d="M2418.4,2015.5c-7.6,3.9-16.9,5-22.6,11.4c-3.3,3.6-4.8,8.4-6.7,12.8c-4,9-10.1,17.1-13.6,26.3
			c-3.6,9.2-4.1,20.6,2.4,28.1c3.9,4.5,9.6,6.8,15,9.1c25.3,10.8,56.8,18.3,72.1,41.2c7.3,10.9,14.5,21.7,21.8,32.6
			c2.1,3.1,4.2,6.2,5.4,9.7c1.8,5.4,1.5,11.3,1.4,17c-0.2,10.9,0.8,21.9,2.9,32.6c0.9,4.4,1.9,8.9,4.4,12.7c2.5,3.8,6.6,6.8,11.1,6.7
			c2.8,0,5.4-1.1,7.9-2.2c5-2.1,10.1-4.3,15.1-6.4c4-1.7,8.3-3.4,12.6-2.7c2.6,0.5,5,1.9,7.2,3.4c9.2,6.4,16.2,15.6,23,24.5
			c8.1,10.6,16.1,21.2,23.4,32.3c4.2,6.4,8.1,12.9,12.1,19.5c5.1,8.5,10.2,17,15.4,25.6c4.1,6.9,8.1,11.1,3.2,18.5
			c-6.8,10.2-20.6,13.7-29.8,21.1c-12.3,10-16.3,26.7-21.4,41.7c-14.1,42-41.1,78.7-72.6,109.9c-15.5,15.4-32.6,30.2-41.6,50.2
			c-6.9,15.5-8.5,33.4-18.1,47.4c-12.5,18.4-35.3,25.8-55.1,35.9c-19.8,10.1-39.8,28.1-37.2,50.2c-41.7-3.9-83.3-7.8-125-11.6
			c-18-1.7-36.3-3.3-53.9,0.7c-17.6,4.1-34.6,14.9-41.4,31.6c-12.4,30.5,12.4,68.4-3.9,97c-5.8,10.1-15.8,17-24.1,25.1
			c-24.2,23.5-34.5,57.4-52.4,86.1c-13.7,22-31.9,40.9-48.7,60.6c-32.1,37.7-59.8,79.2-82.3,123.3c-5.2,10.1-10.1,20.5-17.7,29
			c-5.8,6.5-13,11.8-17.3,19.4c-4,7-5,15.3-6,23.4c-2.8,24-8.4,47.6-6.3,71.6c4,46.8-30,87.7-64.5,119.6
			c-34.5,31.9-73.6,63.9-85.5,109.3c-7,27-3.6,56.6-15.2,82c-13.2,28.8-42.8,45.7-65.8,67.5c-18.1,17.1-32.5,37.6-46.8,58.2
			c8,0.1,15.7,0.4,22.8-3.4c2.4-1.3,4.6-3.1,7.1-4.4c5.6-3.1,12.3-3.7,18.7-3.9c5.5-0.2,11.8,0.3,15.1,4.7c2,2.6,2.4,6,3.8,8.9
			c2.8,5.7,9.7,9.2,15.9,7.9c5.1-1,9.3-4.7,14-6.9c4.7-2.2,11.4-2.4,14.1,2.1c0.9,1.5,1.2,3.2,1.5,4.9c2.5,14.4,5.9,28.6,10.3,42.5
			c3.6,11.5,8,22.9,15.1,32.6c2.4,3.2,5.2,6.8,4.7,10.7c-0.4,3.1-2.8,5.5-5,7.6c-6.5,6.3-12.9,12.6-19.4,18.9c-5,4.9-10.4,11-9.2,17.9
			c1.1,6.1,7.2,10.1,9.6,15.9c0.3,0.7,0.5,1.6,0.4,2.3c-0.3,1.6-1.9,2.6-3.2,3.6s-2.2,3.2-1,4.3c-11.6,22.2-23.5,48.3-38,68.8
			c35.1,0,66.7,33,65,68.1c21.2-7.6,43.2,6.7,64.7,13.5c5.8,1.8,11.7,3.1,17.4,5.2c7.8,2.9,14.9,7.1,22.3,10.9
			c38.8,19.7,83.3,23.9,126.5,27.8c21.3,1.9,43.7,3.7,63.4-4.9c11.9-5.2,21.9-13.9,33.3-20.2c23.5-13,52.8-15.1,77.9-5.5
			c3.7,1.4,7.5,3.1,11.5,2.8c4.1-0.3,7.7-2.8,11.3-4.8c19.2-10.6,44.4-8.8,61.9,4.2c2.7,2,5.3,4.3,8.6,4.8c8.5,1.4,15.4-9.4,23.9-8.1
			c6.5,1,9.7,8.3,12.6,14.2s9.6,12,15.3,8.8c0-5.7,0-11.5,0.1-17.2c0-2.4,0.4-5.4,2.6-6.3c1.4-0.6,2.9-0.1,4.4,0.4
			c19.2,5.6,41.7-7.4,46.5-26.9c1.2-4.8,1.4-10,3.5-14.5c4.9-10.5,18.8-15.3,22.2-26.4c1.4-4.6,0.9-10,3.7-13.9
			c2.8-3.9,7.9-5.1,12.6-6c10.4-2,21.1-4,31.4-1.7s20.2,10.1,21.5,20.6c13.5,2.9,23.5,10.8,30.8,22.5c1.6,2.6,3,5.4,5.4,7.3
			c5.1,4.3,12.6,3.3,19.2,2.6c6.6-0.7,14.6-0.2,18,5.5c1.8,3,1.9,6.8,3.6,9.9c2.5,4.3,7.6,6,12.3,7.5c13.4,4.3,26.8,9.4,37.8,18.2
			c10.7,8.7,18.5,20.4,26,32c5.1,8,10.3,15.9,15.3,23.9c1,1.5,2,3.1,3.3,4.3c2.7,2.4,6.4,3.2,9.9,4.1c12.3,3.2,25.1,10.8,27.4,23.3
			c0.8,4.6,0.2,9.4,1.6,13.8c1.1,3.5,3.4,6.4,5.7,9.3c4.6,5.8,9.7,11.9,16.8,14.2c6.8,2.2,14.2,0.4,21.3,0.2c7.1-0.2,15.5,2.2,17.9,9
			c8.9,0.8,17,2.5,25.3-0.7c6.2,8.4,12.8,17.2,22.2,22c9.3,4.8,22.3,4.2,28.7-4.1c6.8-8.8,4.2-22.7,12.1-30.5
			c8.9-8.8,23.9-3.6,36.2-6.2c14-2.9,25.2-16.4,39.5-15.7c15.1,0.7,25.8,17,40.8,18.3c7.3,0.7,15.2-2.2,21.6,1.4
			c12.4,6.9,6.2,30,18.9,36.3c3.8,1.9,8.4,1.5,12.5,2.8c15.7,5,16,29.8,30.9,36.9c9.8,4.6,21.1-0.6,30.6-5.6
			c10.7-5.7,21.3-11.4,32-17.1c28.2-15.1,57.1-30.4,88.7-34.8c8.8-1.2,18.1-1.7,25.9-6.1c4.7-2.7,8.5-6.7,13.2-9.1
			c11.4-6,25.2-2.3,37.9-0.1c35.4,6.1,73.1-1.4,103.5-20.6c6.8-4.3,13.4-9.4,16.7-16.7c3.7-8.1,2.8-18,7.9-25.3
			c7.8-11.1,24.6-9.9,36.3-16.8c10.5-6.2,18.6-19.6,30.7-18.2c4.8,0.6,8.9,3.4,12.9,5.9c9.2,5.6,19.7,9.7,30.4,8.6
			c10.7-1.1,21.1-8.6,23.1-19.1c0.7-4,0.5-8.7,3.7-11.2c3.1-2.4,7.5-1.3,11.4-1.8c13-1.7,15.1-19.3,21.7-30.7
			c4.9-8.4,14-14.4,23.7-15.4c34.6-3.9,55.1-42.6,74.5-71.5c5.5-8.2,11.1-17.2,20.1-21.1c6.9-3,14.7-2.7,21.8-5
			c8.3-2.7,15-8.9,22.9-12.7c26.2-12.4,57,4.4,85.8,0.9c30-3.6,56.1-29,86.1-25.4c12.8,1.5,25.5,8.4,38.1,5.4
			c10.4-2.5,18-11.3,24.6-19.7c16.6-21.3,33.9-45.2,60-52c5.4-1.4,11.3-2.1,16-5.1c8.5-5.5,10.8-17,18.2-24
			c13.8-13.1,41.5-7.3,49.8-24.4c2.7-5.6,2.6-12.9,7.4-16.9c3.8-3.2,9.5-3.1,13.4-6.1c5.6-4.3,7.4-14.6,14.5-14.6
			c3.7,0,6.6,3.2,10.1,4.3c13.3,4.4,19.4-18.7,32.8-22.6c8.4-2.5,17.1,3.3,25.8,2.2c11.4-1.5,20.1-14.5,31.4-12.5
			c12.4,2.2,16.8,20.7,29.3,22.1c3.5,0.4,7-0.8,10.3-2c24.5-9.3,46.3-24.7,70.8-34c24.5-9.3,54.4-11.3,74.9,5.1
			c3.3,2.6,6.3,6,10.4,6.7l117.6-110.6l14.6-3.3l-1.5-12.3l5.2-6.9l9.4-3.8l6.3-7.5l0.4-11.3l6.7-4.6l0.2-10.2l-8.1-7.9l-4-11.5
			l-11.1-6.7l-11.5-1.3l-5.2-8.3l0.4-15.4l-8.1-11.7l-0.2-7.1l-6.3-3.3l-1.9-6.9l4.6-4l0.6-11.3l-5.4-3.6l-0.2-9.4l-14.6-15.9
			l-1.5-16.1l-6.1-4l-1.3-5l-6.7,1l-3.1,8.6l-9.6,1.5l-2.9,4.6l-4.8,1l-3.1-5.4l-8.8-0.4l-11.5-18.2h-3.6l-0.4-9.2l3.3-1.7l2.1-6.7
			l-3.3-2.1l-5.2-12.5l-8.1-7.1l-2.3-13.8l-6.5-9.6l-0.2-4.2l2.9-2.7l0.8-19l-6.4-3l0.1-8.9l-4.4-3.2l-2.7-21.3l-22.4-21.5l-1.8-15.9
			l-3.8-4.7l0.8-16.8l5.1-24.5l5.3-3.2l-0.9-21.6l-10.9-11.8l-3.2-18.6l-28.3-20.4l-0.3-13.6l-3.5-4.7l0.6-15.4l5-4.7l3.8-25.1
			l10.6-26.3v-13l-7.1-28.3l-0.6-18.6l13.9-13.3l1.8-23.9l-4.4-5.3v-7.7l6.2-5l0.6-8.6l-8.9-2.7l3.2-5v-7.1l-11-10.7l2.1-7.7l1.3-13.2
			l3.7-2.4l0.3-12.1l-4.3-3.8v-6.8l-7.1-3.8l1.2-10.9l4.7-1.2l-0.3-10l8.3-7.1l0.3-6.5l14.8-3.5l6.5-10l16.5-4.1l7.1-12.1l31-21.3
			v-15.6l10-5.9l0.6-9.4l-13-9.4l4.4-7.4l-5-6.8l4.7-1.8v-4.7l-8-6.2l0.9-16.2l8.6-4.1l2.7-7.4l-6.2-5v-5l6.8-5.9l-0.9-20.4l12.1-17.1
			l5,1.8l1.8-3l-1.5-3.8l11.5-9.7l10.6-4.1l3.8-10.9l21-18.3l3.4-5.4l2.6-10.9l-6.6-12.9l-17.4-9.4l0.6-19.8l-5.3-7.7l3.8-8l9.4-3
			l-1.8-10.6l-7.4-2.1l0.3-13.9l-5-0.3l-10,7.4l-13.6-18.9l-12.7,1.2l-8.3-6.2l-15.1,0.9l-3.5-4.4h-10.6l-8.9,7.7l-5-0.6l-3.2-6.5
			l-7.1,0.3l-3.2,5.9l-9.7-11.5h-6.5l-5,4.4l-13.3,0.3l-7.7,9.4l-7.1-1.2l-16.2,18h-4.4l-17.7,18h-5.3l-4.1-6.5l-22.1-0.6l-16.2-9.7
			h-9.2l-17.4,11.5l-12.7-3l-6.2,4.7l-6.5-1.2l-15.6,15.1l-22.4-0.6l-5.9-4.4l-18,0.6l-7.1-9.4h-4.1l-0.6,7.7l-24.2,4.7l-6.5-2.4
			l-10.6,17.1l-5.3-2.4l-5.3-9.4h-11.8l-17.1,15.9l-13.6-3l-13,4.1l-13.3-18.2l-22-1.5l-2.5,7.3l-6.5-8.9l-10.6-0.6l-7.1,6.5h-13
			l-3.5-4.7l-5.3,0.6l-4.7,4.7l-19.5-15.4h-7.1l-11.2,6.5l-8.9-3l-4.7-5.9l-17.1-0.6l-5.3,7.7h-3l-8.3,21.3h-11.2l-13.6,21.8
			l-11.8,0.6l-6.5,6.5h-8.9l-4.1-9.4l-7.1-1.8l-4.1-13l-9.4-6.5l-10.6,14.8l-14.2-0.4l-269.8-335.9l-16.5,0.6l-13,2.8l-11.3-1
			l-28.6,18l-10.4,0.2l-6.9-7.9l-22.5-16.1l-9.2,2.3l-10-8.1l-23.4,1.7l-14.4-13.8l-0.4-9l-5.6-5h-7.5l-4.6,4.4l-23-0.2l-15.2-14.6
			h-5.2l-7.1,7.7l-10.2-0.6l-7.3,3.8l-17-0.4l-3.8,4.7l-4.4-0.4l-3.3-5.6h-4.4l-4.2,11.5l-3.8,0.2l-4.4-5.8l-12.9,12.1l-19.2,7.3
			l-19,16.9l-12.5,0.6l-3.3-3.6h-18.4l-13.4-18.6l-7.9-1.2l-4.4,3.3h-20.7l-4.8,4.8l-5,0.4l-5.6-9.4h-5l-4.8,5.4h-11.3l-4.4,3.8
			l-19,0.2l-10-12.5l-6.1,0.6l-1,6.1l-15.2,9.6l-3.3-0.4l0.6-13.4l-3.3-0.8l-4.5,6.9l-3.5,0.3l-2.9-4.1l-22.2-2.2l-5.4,7h-4.4l-2.9-14
			l-10.5,4.4l-6.7-6.7l-5.1,0.3l-6.3,15.5h-2.9l-1.3-4.8h-14.6l-6-10.1h-3.2l-3.8,4.4l-7.3-7.3l-7.6,1.6l-17.1,15.8l-10.8-0.6
			l-5.1,4.1h-5.7l-3.5-4.8h-6l-3.2,5.7l-13.6-0.6l-20-1.6l-15.3-8.5l-45.8-80.2l0.3-12.1l-1.3-19.3l-3.3-1.7l-2.1-14.6l-10.4-7.9
			h-14.6l-5,4.2h-15.9l-1.4,2.2l-34.2-4l-10.6-3.6l-4.7-6.5c-7.2,0.3-11.7-7.1-14.5-13.7c-2.8-6.6-7-14.3-14.2-14.5
			c-6.6-0.1-11.4,6.4-17.7,8.3c-3.5,1-7.2,0.5-10.6,1.7s-6.2,5.4-4.1,8.3c1.5,2,4.6,2.2,6.3,4.1c1.1,1.3,1.4,3.1,1.6,4.8
			c0.6,4.7,1.2,9.4,1.7,14.1c0.6,5.1,1,11.2-2.8,14.7c-2.4,2.3-6,2.8-9.3,2.7c-7.7-0.1-15.1-3-22.8-2.7c-7.7,0.3-16.2,5.8-15.6,13.5
			c0.1,1.3,0.5,2.5,0.4,3.8c0,1.7-0.8,3.3-1.6,4.7c-4.4,7.5-12.7,12.7-21.4,13.4C2432.3,2028.8,2423.9,2022.3,2418.4,2015.5z"/>
	</g>
</svg>
