<?xml version="1.0" encoding="utf-8"?>
<!-- Generator: Adobe Illustrator 27.7.0, SVG Export Plug-In . SVG Version: 6.00 Build 0)  -->
<svg version="1.1" id="Capa_1" xmlns="http://www.w3.org/2000/svg" xmlns:xlink="http://www.w3.org/1999/xlink" x="0px" y="0px"
	 viewBox="0 0 4744.4 6468.4" style="enable-background:new 0 0 4744.4 6468.4;" xml:space="preserve">

<g xmlns="http://www.w3.org/2000/svg" id="nopointer_1_">
	<image style="overflow: visible; transform: matrix(1.331, 0, 0, 1.331, -878, -178)" id="nopointer_2_" xmlns:xlink="http://www.w3.org/1999/xlink" xlink:href="maps_parques/parques_naturales.webp"></image>
</g>
<g style="transform: translate(-885px, -184px) !important;" id="landmarks-departments">
	<path class="st0" d="M2488.1,678.7c4.6-0.2,9.3-0.9,13.7-2.3c-0.8,2.6-0.7,5.5,0.1,8.1c0.5,1.5,1.2,2.8,1.8,4.2
		c4.1,9.3,4.6,20.1,10.3,28.4c0.2,0.3,0.5,0.7,0.3,1.1c-0.1,0.3-0.3,0.4-0.6,0.6c-1.7,1.1-3.4,2.8-5.4,3.5c-0.7,0.2-1.4,0.2-2.1,0.3
		c-1.1,0.3-2.1,1-3.2,1.3c-1.5,0.4-3.1,0.5-4.7,0.5c-9.4,0.2-18.8,0.1-28.2-0.3c-2.3-0.1-4.6-0.2-7-0.3c-1.2-0.1-4.4-0.7-5.2,0.6
		c-0.8,1.1,0.7,4.9,1,6.3c1,4.8,2,9.7,3,14.5c0.4,2.1,0.9,4.2,1.3,6.3c1.8,9,3.7,18,5.7,26.9h131l9.4-51.1l-42.2-5.6
		c-1.7-1.2-4-2-6-2.5c-4.2-1-8.6-0.3-12.7-1.4c-0.8-0.2-1.6-0.5-2.2-1.1c-0.6-0.5-0.9-1.1-1.3-1.7c-0.8-1.4-1.6-2.8-2-4.4
		c-0.7-2.5-0.6-5.2-1.4-7.6c-0.6-1.7-1.6-3.2-2.2-4.9c-1-2.9-0.6-6.2-1.7-9.1c-0.3-0.9-0.8-1.8-0.9-2.8c-0.2-1.8,1.1-3.5,2.5-4.6
		c1.4-1.1,3.1-1.9,4.5-3.1c1.5-1.4,2.5-3.2,3.8-4.8c2-2.4,4.6-4.2,6.6-6.7c1.1-1.4,1.9-3,3.2-4.1c0.8-0.7,1.7-1.1,2.6-1.6
		c2-1.1,4.1-2.1,6.1-3.2c2.6-1.3,3.4-4,5.4-6c0.6-0.6,1.4-1.1,2-1.7c1.4-1.3,2.6-2.8,3.7-4.4c0.9-1.2,1.8-2.5,2.7-3.7
		c2.3-3.1,4.5-6.2,5.8-9.9c0.5-1.4,0.8-2.8,1.1-4.2c0.9-4.2,1.7-8.6,0.7-12.7c1.7-0.6,3.2-0.9,4.9-1.1c-0.5-1.1-1.1-2.2-1.7-3.2
		c0.6,0.1,1.2,0.2,1.8,0.4c0.3,0.1,0.7,0.1,0.9-0.1c0.3-0.3,0-0.9-0.3-1.2c-0.4-0.4-0.7-0.8-1.1-1.1c0.8,0,1.6,0.1,2.4-0.1
		c-0.2-0.4-0.4-0.9-0.5-1.3c-0.3-1.5-0.9-3-1.6-4.4c0,0-14.8-21.5-16.2-25.2c-1.4-3.7-6.1-9.6-2.3-12.7c0,0,4.1-1.3,4.8-0.2
		c0,0-1.9-5.9-7.5-7l0.1-3.6c0,0,3.8-0.5,5.5,1c1.7,1.5,8.7,0.6,10.9-1.1s3-4.5,5.4-3c2.4,1.5,3.1,1.8,2.9,3.5c0,0,1.6-1.6,1.1-6
		c-0.5-4.5-5.1-7.6-8.2-8.3s-6.4,0.9-9.9-0.3c-3.5-1.2-4.1-3.1-3.5-5.4c0.6-2.3-1.4-20.5-27-21.8c-25.6-1.3-30.4,20.9-30.5,25.3
		c-0.1,4.4,1.9,11.7,6.4,21.9c4.5,10.1,5.2,11.3,0.5,14.3c0,0-1.2,1.6,3.2,2.5c0,0-0.9,3.3-2.9,6c-2,2.7-17.5,10.1-37.2,27.2
		s-15.5,16.4-20.4,17.5s-7.6,0.5-6.3,4.9c0,0-18.7,4-18,8.9c0,0-20.3,6.7-19.5,8.3c0.8,1.6,8.5,1.5,8.7,2.5c0.1,1.1-7.2,2.4-9.5,3.3
		s-42.5,14.9-45.2,15.3c-2.7,0.4,0.3,2.3,6.7,2.3c6.4,0,13.5-2.3,13.5-2.3s-5.3,4.7-8.3,6.7s8.7,0.3,18.5,0.4
		c9.9,0.1,19.2-0.8,21.9-3.6c0,0,0,3.5-1.5,4.1c0,0,8.9-0.9,15.7-3.1c6.8-2.1-1.3,1.9,11.5-2c12.8-3.9,15.3-6.5,19.1-4.3
		s1.5,5.5,6.3,6.8C2485.6,677.7,2488.1,678.7,2488.1,678.7z"/>
	<path class="st0" d="M2752.6,684.7c1.6-5.9-1.2-12.4,0.5-18.3c0.1-0.4,0.3-0.8,0.2-1.2c-0.1-0.4-0.4-0.7-0.7-0.9
		c-2.5-2.3-5.4-4.2-7.1-7.1c-0.2-0.3-0.3-0.6-0.4-0.9c-0.1-0.6,0.3-1.2,0.6-1.8c2.7-4.5,5-9.3,5.9-14.4c0.2-1.2,0.3-2.3,0.6-3.5
		c0.7-3.4,2.5-6.6,5-9.1c2.4-2.4,5.7-4.3,7-7.5c-0.8,0-1.5-0.8-2.1-1.3c-2.3-1.6-4.9-3.6-5.2-6.5c0-0.3,0-0.7,0.1-1
		c0.1-0.3,0.3-0.6,0.5-0.8c1.7-2.3,3.6-4.6,5.6-6.6c0.5-0.5,0.9-0.9,1.3-1.5c0.4-0.6,0.6-1.3,0.7-2c0.4-3.2,1.3-6.1,2.9-8.9
		c0.7-1.3,1.5-2.6,2.4-3.8c1.3-1.6,3-2.9,4.5-4.3c2.8-2.6,5.3-5.5,7.8-8.4c0,0,25.4-24.2,31.6-32.6c6.1-8.4,18.4-20.9,18.4-20.9
		s-0.3-9.3,1.2-9.6c1.5-0.3,5.1,6,6,8.4s33.6,41.6,39.1,48c5.5,6.4,11.6,6.8,14.4,10.9c2.8,4.1,14,17.7,14,17.7l1.1-5.5h2.4v2.7
		l27.6-0.5v-4.8c0,0-2.3,0-7.6-7.6c-5.3-7.6-8.7-4.8-7.1-14.7c1.6-9.9,9.3-21.7,13.7-27.5s7.1-8.1,7.1-8.1c-2.7-0.8-5.1-1.5-7.9-1.7
		c-0.8-0.1-1.6-0.1-2.3-0.4s-1.3-1-1.3-1.8c0-1,1-1.6,1.7-2.3c0.7-0.7,1.3-1.9,0.6-2.5c-0.4-0.4-1.2-0.4-1.6-0.9
		c-0.4-0.6,0.1-1.4,0.4-2.1c0.5-1.3,0.1-2.7-0.2-4.1c-0.2-0.6-0.4-1.3-0.8-1.8c-0.3-0.4-0.8-0.8-1.2-1.1c-0.8-0.7-1.6-1.5-1.7-2.6
		s1.1-2.2,2-1.7c0.7-1.6-1.8-3.2-1.2-4.8c0.4-1.1,1.9-1.2,3-1.6c0.7-0.3,1.3-0.8,1.9-1.3c2.3-2.2,3.6-5.4,3.4-8.6
		c0-0.3,0-0.6,0.1-0.9c0.2-0.3,0.6-0.4,0.9-0.5c1.1-0.4,1.8-1.2,2.6-2.1c0.9-1,1.7-2,2.3-3.1c0.5-1.2,0.7-2.6,0.1-3.7
		c1.2,0.2,2.7,0.3,3.4-0.8c0.2-0.3,0.3-0.7,0.3-1.1c0.2-1.5-0.1-3.1-0.8-4.4c1.3-0.5,2.7-0.2,3.8,0.7c1.2-1.1-0.3-3.7,1-4.6
		c1-0.6,2.5,0.4,3.3-0.4c0.3-0.3,0.4-0.7,0.5-1.1c0.4-1.5,1.5-2.7,2.9-3.3c1.1,2,4.5,2.3,5.8,0.3c0.5-0.8,0.9-1.9,1.8-1.8
		c0.4,0,0.8,0.4,1.2,0.6c1.2,0.7,2.9-0.2,3.1-1.5c1.3,2,2.7,4,4,5.9c-0.1-4.2,1.4-8.3,4.3-11.4c2.2-2.4,5.1-4,8-5.6
		c1-0.6,2.2-1.2,3.4-1c0.4,0.1,0.8,0.3,1.3,0.3c1.6,0,2.1-2.1,2.8-3.5c1.8-3.2,6.4-3.2,10-2.7c0.6-2,1.2-4.1,1.9-6.1
		c3.4,1.1,7.3,0.3,10-2c0.9-0.1,1.7-0.2,2.6-0.3c-0.7-2.9,2.5-5.9,5.3-4.9c-0.9-5.4,3.9-11.1,9.4-11c0.8,0,1.6,0.1,2.4,0.4
		c3,1,4.9,4.5,4.2,7.5c0.8-3,2.1-6.6,5.2-7.1c1-0.2,2.1,0.1,3-0.3c1.1-0.5,1.7-1.7,2.6-2.5c1-0.8,2.2-1.1,3.5-1.4
		c3.4-0.8,7.2-1.5,10.2,0.1c1.3,0.7,2.5,1.9,4,2.1c0.7,0.1,1.5-0.1,2.2,0.2c1.6,0.6,1.8,3,3.3,4c2.9,1.9,6-3.5,9.4-3
		c-0.1,0.9,0.6,1.8,1.5,1.9c0.6-1.2,1.3-2.6,2.7-2.9c2-0.4,3.3,1.9,4.2,3.7c0.9,1.8,2.9,3.8,4.6,2.6c0.7,1.6,3.1,2.4,4.9,2.6
		c1.8,0.2,3.6-0.1,5.4-0.3c2.5-0.2,4.9-0.1,7.4,0.3c1.6,0.3,3.4,1,3.8,2.6c0.6,3.3-5.8,4.8-4.9,8c0.3,1.2,1.7,1.9,3,1.8
		c1.3-0.1,2.4-0.7,3.5-1.3c0.5,1,1.8,1,2.9,1c3-0.1,6,0.7,8.7,2.2c0.5,0.3,1.1,0.6,1.6,0.5c0.9-0.1,1.3-1.1,2.1-1.4
		c1.5-0.7,3.1,0.8,3.6,2.4c0.5,1.6,0.5,3.4,1.6,4.6c1.1,1.3,2.9,1.5,4.4,2.3c3.1,1.7,4.5,5.6,7.7,6.9c0.7,0.3,1.4,0.4,2.1,0.2
		c0.5-0.2,1-0.6,1.4-0.9c2.1-1.5,4.8-1.6,7.4-1.6c0.5,0,1.1,0,1.5,0.2c0.6,0.3,0.9,0.9,1.1,1.5c0.8,2.4,0.3,5.3,1.5,7.5
		c0.6,1.1,1.5,2,2.2,3c0.7,1,1.1,2.4,0.5,3.5c-0.4,0.7-1.3,1.4-1,2.2c0.3,0.8,1.3,0.9,2.2,0.8c1.9-0.1,4.2,0.5,4.8,2.3
		c0.4,1.1,0,2.4,0.4,3.5c0.4,1.4,1.8,2.2,2.7,3.3c0.9,1.1,1.3,3,0.1,3.8c-0.9,0.5-2.3,0-3.1,0.7c-0.7,0.6-0.5,1.7,0,2.4
		s1.3,1.2,2,1.8c1.7,1.5,2.6,4,2.2,6.2c1.9-0.2,3.8,1.7,3.6,3.6c0,0.4-0.1,0.8-0.1,1.2c0.3,1.4,2.3,1.4,3.6,1.9
		c1.7,0.7,2.4,2.9,2.1,4.7c-0.3,1.8-1.4,3.4-2.5,4.9c2.4,3.8-4.6,9.1-2.4,12.9c-1.5,1.2-4.4-0.8-5.5,0.8c-0.8,1.3,0.9,2.6,2,3.7
		c1.7,1.5,2.3,4,1.7,6.2c-1.4,0.5-3.1,0.1-4.2-0.9c0.7,2.8,1.3,5.5,2,8.3c-2.7,0-5.4,0-8.1-0.1c0.6,2.1,1.2,4.2,1.8,6.3
		c0.4,1.3,0.8,2.6,1.9,3.4c0.7,0.5,1.8,0.7,2.2,1.5c0.3,0.7,0,1.5-0.3,2.1c-1.3,2.8-3,6-6,6.9c-1.7,0.5-3.5,0.3-5.2,0.9
		c-3,1.1-4.5,4.6-7.4,6c-1.9,0.9-4,0.8-6.1,1.2c-2,0.4-4.2,1.6-4.5,3.7c-0.1,0.9,0.2,1.8-0.2,2.6c-0.4,1-1.7,1.6-2,2.6
		c-0.3,1.2,0.8,2.4,0.8,3.7c0,2.2-2.8,3.1-5,2.9c-2.2-0.2-4.7-0.7-6.2,0.8c-0.5,0.5-0.8,1.1-1.3,1.6c-0.7,0.6-1.7,0.8-2.6,0.9
		c-2.6,0.4-5.1,0.7-7.7,1.1c-0.9,0.1-1.8,0.3-2.5,0.8c-0.7,0.5-1.2,1.3-1.6,2.1c-0.9,1.6-1.8,3.3-2.7,4.9c-0.8,1.4-1.7,3-3.3,3.4
		c-1,0.3-2,0-3-0.1c-4.8-0.4-9.6,3.5-10.2,8.3c-2.8,1.6-6.6-0.4-9.4,1.2c-0.8,0.5-1.5,1.3-2.3,1.7c-1.8,1-4.1,0.3-6.1,0.7
		c-3.3,0.6-6.4,3.9-9.3,2.3c1-1.6-1.1-3.9-2.8-3.1c-1.1,0.5-1.5,1.8-2.2,2.8s-2.1,1.9-3,1.1c-1.5,18.3,5.3,36.4,4.5,54.8
		c-0.1,2.4-0.3,4.8,0.3,7.1c0.7,2.8,2.6,5.2,4.2,7.7c8.5,12.7,11.9,27.9,15.6,42.7c1.2,5,2.7,10.3,6.3,14c1.9,1.9,4.3,3.3,6.7,4.5
		c5.7,2.9,11.7,5.3,17.9,7.3c0.7,2.2,0.6,4.5-1.3,6c-0.7,0.5-1.5,0.7-2.3,0.9c-8,1.3-15.8-2.9-23.8-3.4c-1.7-0.1-3.4,0-5-0.6
		c-1.4-0.5-2.6-1.5-3.9-2.2c-4.6-2.8-10.4-3.3-15.4-1.4c-3.9,1.5-7.1,4.3-11,5.7c-3.2,1.1-6.8,1.2-9.5,3.3c-1,0.8-1.8,1.8-3,2.2
		c-1.5,0.5-3.1,0-4.7,0.1c-1.9,0.2-3.9,1.4-5.7,0.6c-1.9-0.8-2.3-3.2-2.4-5.2c-0.1-2.1-0.2-4.2-0.2-6.3c0-2.7,0-5.4,0.9-8
		c1.3-3.9,4.1-7,7-9.9c-3.9,1.3-7.5,2.6-10.8,5c-0.6,0.5-1.2,1-2,1.2c-1,0.3-2.3,0-3.1,0.7c-1.1,0.9-0.8,2.9-1.9,3.9
		c-0.6,0.5-1.4,0.6-2.2,0.7c-3.3,0.3-6.7,0.5-9.8-0.6c-1-0.4-1.9-0.9-3-1.1c-1.2-0.3-2.4-0.3-3.7-0.3c-6.1,0-12.2,0-18.3,0.1
		c-1.4,0-2.9,0-4.3-0.4c-2.6-0.7-4.6-2.7-6.6-4.5c-0.8-0.8-1.6-2.1-0.9-2.9c0.2-0.3,0.6-0.4,0.9-0.5c4.9-1.7,9.8-3.4,14.7-5.1
		c3.9-1.3,7.8-2.7,11.8-3.5c1.8-0.4,3.7-0.7,5.4-1.3c2.6-0.9,4.9-2.5,7-4.3c7-5.8,12.4-13.3,15.7-21.7c-11.3,2.1-22.7,2.1-34.2,1.2
		c-3.1-0.3-6.2-0.6-9.3-1c-4.3-0.5-8.6-1-12.9-1.5c-2.9-0.3-5.7-0.7-8.5-1.4c-5.9-1.5-11.4-4.6-17.3-5.9c-2.6-0.6-5.3-0.8-7.7-2
		c-1.6-0.8-3-2.1-4.6-3c-1.3-0.8-2.8-1.4-4.3-2c-4.2-1.7-8.4-3.3-12.7-5c-0.2,0.8-0.4,1.8-0.3,2.7c0.6-0.3,1.4,0.2,1.7,0.8
		c0.3,0.6,0.3,1.3,0.3,2c0,1.2,0,2.4-0.1,3.6c0,0.4,0,0.8-0.2,1.1c-0.2,0.4-0.6,0.6-1,0.7c-2.6,1.1-5.5,1.7-8.4,1.8
		c-3.5,0.1-7.2-0.9-9.5-3.5s-2.5-7.2,0.3-9.3c0.8-0.6,1.8-1,2.7-1.6s1.6-1.6,1.4-2.6c-0.2-1-1.1-1.7-1.9-2.2c-2.2-1.5-4.4-3-6.6-4.5
		c-0.2-0.1-0.4-0.3-0.6-0.3c-0.3,0-0.5,0.2-0.7,0.5c-1.1,1.4-1.1,3.2-1.2,5c0,1.3,0,2.6-0.1,3.9c0,0.8,0,1.6-0.5,2.2
		c-0.4,0.6-1.1,1-1.8,1.2c-1.8,0.8-3.8,1.3-5.8,1.2c-2.5-0.1-4.8-1.1-7-2.2c-1.4-0.7-3-1.5-3.6-2.9c-0.9-2.4,1.4-5.1,0.6-7.5
		c-0.9,0.3-1.7,0.9-2.5,1.5c-3.4,2.7-6.9,5.2-10.5,7.6c-2.1,1.4-4.4,2.7-6.7,3.6c-3.8,1.5-7.9,1.8-11.9,2.2c-0.7,2-0.9,4.4-0.5,6.6
		c0.1,0.9,0.4,1.7,0.8,2.5c0.3,0.5,0.6,0.9,0.9,1.4c2.1,2.8,4.1,5.6,5.7,8.6c0.7,1.2,1.3,2.6,1.2,4c-0.8-0.1-1.5-0.4-2.1-1
		c-0.4-0.4-0.7-0.9-1-1.5c-1.1-1.9-2.5-3.8-4.1-5.4c-0.2-0.2-0.4-0.4-0.6-0.4c-0.6-0.1-1.1,0.4-1.1,1c-0.1,0.6,0.1,1.1,0,1.7
		c-0.1,1.2-1.1,2-2,2.8c-0.2,0.1-0.3,0.3-0.5,0.3c-0.5,0.1-1-0.4-1.1-0.9c-0.5-1.7,1-3.5,0.3-5.1c0-0.1-0.1-0.2-0.2-0.3
		c-0.1,0-0.2,0-0.3,0c-0.9,0.3-1.3,1.3-2.1,1.9c-0.6,0.4-1.4,0.5-2.2,0.7c-0.9,0.2-1.9,0.6-2.7,1.1c-0.5,0.3-0.9,0.7-1.5,0.9
		c-0.7,0.3-1.5,0.5-2.2,0.6c-2.7,0.4-5.4,0.9-8.1,1.3c0-0.6,0.3-1.1,0.8-1.4c0.5-0.3,1-0.5,1.5-0.7c2.6-0.9,5.2-1.8,7.8-2.7
		c1.1-0.4,2.2-0.8,3.1-1.6c0.5-0.6,0.9-1.3,1.4-1.9c1.1-1.3,2.9-2.1,3.5-3.7c0.3-0.7,0.2-1.5,0.2-2.2c-0.1-1.7-0.1-3.5-0.2-5.2
		c-2,1.3-4.4,1-6.7,1c-7.5-0.1-15-0.1-22.5-0.2c-1.5,0-3.1,0-4.6,0.5c-1.4,0.5-2.5,1.5-3.5,2.5c-2.8,2.5-5.8,5-9.3,6.5
		c-1.4-5.5-1.5-11-1.3-16.7c-1.9,4.9-4.7,9.6-8.1,13.6c-0.9,1.1-2,2.2-2.4,3.6c-0.5,1.5-0.3,3.1-0.2,4.7c0.1,1.3-0.2,2.9-1.4,3.5
		c-0.8,0.4-1.9,0.1-2.6-0.5c-0.7-0.6-1.3-1.4-1.8-2.1c-2.3-3.3-5.5-5.9-9.1-7.6c-0.1,1.4-0.2,2.9-0.3,4.3c-1.2,0.2-2.4,0.2-3.6,0.1
		c-0.4,0-0.8-0.1-1.1-0.3c-0.7-0.5-0.7-1.5-0.7-2.3c0.1-2.2,0.2-4.3,0.3-6.5c0-0.5,0-1-0.3-1.4c-0.4-0.4-1-0.5-1.6-0.3
		s-1,0.5-1.5,0.8c-1.3,0.7-2.9,0.7-4.3,0.7c-0.4,0-0.8,0-1.2-0.2c-0.4-0.2-0.7-0.5-0.9-0.8C2750.6,692,2751.7,688.1,2752.6,684.7z"/>
	<path class="st0" d="M3544.5,414.3c-3.2,2-14.4,0.2-17-2.5c-2.6-2.7-3-7.3-1-10.5c1.2-1.9,3.1-3.1,4.9-4.5
		c6.5-5.3,10.8-12.8,15-20.1c8.5-14.9,17.1-29.8,25.6-44.8c2.9-5.2,6-10.4,10.5-14.3c2.6-2.2,5.6-4,7.6-6.7c1.6-2.1,2.4-4.6,3.7-6.8
		c5.3-9.2,17.1-12.5,27.7-12.2c10.6,0.3,21,3.4,31.6,3.5c11.7,0.1,23.1-3.5,34.8-4.7c11.8-1.2,23.6,0,35.4,1.2
		c19.8,2.1,39.7,4.1,59.5,6.2c6,0.6,12.1,1.3,17.6,3.9c7,3.3,12.1,9.5,17.8,14.9s12.6,10.2,20.3,9.9c-0.6-5.4-1.2-10.7-1.9-16.1
		c4.2,4.1,7.2,9.3,8.5,15c1.4,1,2.8-1.3,3-3.1c0.4-3.1,0.7-6.2,1.1-9.3c0.5-3.9,0.9-8.1-0.4-11.9c-0.6-1.8-1.5-3.4-3.1-4.4
		c-1.8-1.1-3-2.9-4.4-4.4c-1.2-1.3-2.6-2.5-4.1-3.4c-1.5-1-3.2-1.7-4.4-3c-0.8-0.9-2.4-3.7-0.7-4.5c1.1-0.5,2.4,0,3.4,0.5
		c0.5,0.3,1.1,0.6,1.5,0.9c0.3,0.2,0.4,0.3,0.8,0c0.3-0.2,0.5-0.5,0.6-0.8c0.3-0.7,0.3-1.6,0.3-2.4c0-1.2,0-2.5,0.4-3.7
		c0.1-0.3,0.2-0.5,0.4-0.8c0.3-0.5,0.9-0.7,1.5-0.6s1.1,0.3,1.5,0.7c1,0.8,1.6,2.1,2.2,3.3c0.5,1.1,0.9,2.1,1.2,3.2
		c0.4,1.3,0.5,2.8,0.9,4.1c0.2,0.6,0.4,1.2,0.6,1.7c0.2,0.5,0.9,1.4,1.4,0.8c0.3-0.3,0.3-0.8,0.3-1.1c0-0.9,0-1.7-0.1-2.6
		c-0.1-2.2,0.5-4.5,0-6.6c-0.6-2.4-1.1-4.7-1.3-7.2c-0.3-4.9,0.4-9.8,1.4-14.7c0.3-1.7,0.9-3.6,2.5-4.2c1-0.4,2.2,0,3.1,0.7
		c0.9,0.7,1.4,1.7,1.9,2.7c3.5,6.8,3.7,14.2,4.5,21.6c0,0.5,0.2,1.1,0.7,1.2c0.5,0,0.8-0.4,0.9-0.9c1-2.3,2-4.5,3-6.8
		c0.8-1.9,1.7-3.8,3.1-5.4c0.3-0.4,0.7-0.7,1.1-0.8c0.6-0.2,1.3,0.2,1.7,0.7c0.4,0.5,0.5,1.2,0.6,1.8c0.4,3.8-1.3,7.4-2.9,10.9
		c-0.1,0.3-0.3,0.5-0.4,0.8c-2,4.2-4,8.5-7.1,12c0,0,4.5,28.8-2.8,47.5c0,0,0.5,2,5.3-2.4s6.5-3.1,6.5-11.8c0-8.7-2.5-14.5,1.9-15.5
		c4.4-1,7.4,2.2,5.9,9.1c-1.5,6.9,0.4,17.1-5.5,22c-5.9,4.9-11.7,7.3-11.7,7.3s9.6,8.3,12.2,13.1c2.6,4.8,4.4,10.5,7,12.4
		c2.6,1.9,7.9,3.4,7.1,5.4c-0.8,2-2.8,3.5-4.9,3.6s-6,0.6-8.3,0s-5.8-1.7-10.6-1.7c-4.8,0-9.8-0.6-15.7-1.3l-23.6-2.8
		c0,0,19.5,7.2,18.7,26.4l-0.5,9.6L3544.5,414.3z"/>
	<path class="st0" d="M3110.5,802.7l1.4-59c0,0-24.2,10-27.8,16.6c-3.6,6.6-6.6-8.3,2-13.8c8.6-5.5,18.6-6.4,18.2-8.8
		c-0.4-2.4-14-2.8-19.6,0c-5.6,2.8-12,6.8-12,6.8s3-11.6,9.2-16.4c6.2-4.8,16.8-1.4,16.8-1.4s-7-8.8-16.4-8.4c-9.4,0.4-10.8,0-10.8,0
		s9.4-7.6,21-6.6s19.4,14,19.4,14s-0.6-24.6,12.8-31c13.4-6.4-4.2,9.6-2.8,19.6c1.4,10,1.4,10,1.4,10s5.8-10.8,13.8-10.8
		s19.4,0.4,20,0.4c0.6,0-12.4,6-17.6,11.2c0,0,20,2.8,23.2,10c0,0-31.4,0.2-35.8,4.2c0,0,23.4,9.8,18.2,21.4c0,0-4.4-1-10.2-6.8
		c-5.8-5.8-15.8-7.6-15.8-7.6l-0.2,56.4l30-1.6c0-2.1-0.2-3.9-0.2-6c0-0.5,0-1-0.2-1.4c-0.3-0.5-0.8-0.8-1.2-1.2
		c-1.1-1-1.3-2.7-1.1-4.2s0.8-2.9,1.1-4.4c0.9-4.7-1.4-9.8,0.4-14.1c0.9-2.3,2.9-4,3.6-6.3c0.7-2.4,0-5.1,0.9-7.4
		c0.7-1.9,2.5-3.3,3.3-5.2c1.4-3,0.4-7,2.5-9.5c2.5,2.6,1.8,6.8,3.1,10.2c1.3,3.3,4.5,6.1,3.9,9.5c-0.3,1.3-1.1,2.6-0.7,3.9
		c0.3,0.9,1.1,1.5,1.8,2.1c2.8,2.7,3.5,6.9,3.9,10.7c0.6,5.2,1.3,10.5,1.9,15.7c-0.9,0.4-2,0.6-3,0.4c-0.4,2.8-0.7,5.6-0.8,8.4
		c0,0,42.2,0.4,54.4,3c12.2,2.6,12.6,8.2,12.6,8.2h3.6l1.4-52.4c0,0-17.2,3.8-26.4,14.8c0,0-6.4,2.4-1.6-6.2
		c4.8-8.6,14.4-13.4,19.8-13.8c5.4-0.4,0.2-4.9-9.6-2.5s-15.6-0.1-20,6.7c0,0,1.2-13.4,11.2-16.2c10-2.8,15,0.2,15,0.2
		s-10.8-9.4-17.8-8.6s-9.4,0.4-9.4,0.4s5.2-8,17.6-8c12.4,0,21.2,14.4,21.2,14.4s0.2-16,3.4-20.4c3.2-4.4,10.4-10.4,12.2-9.8
		c1.8,0.6-1.6,6.2-3.8,16.6c-2.2,10.4,0,12,0,12s6.2-10.8,19-11c12.8-0.2,15.8,2.2,15.8,2.2s-17.2,6.8-17.8,9.8
		c0,0,21.6,0.8,20.4,9.8c0,0-35.2,2.2-35.2,5.4c0,0,28,9.2,18.4,21.8c0,0-6-7.2-13.8-10.4c-7.8-3.2-11.4-5.6-11.4-5.6v52.8
		c0,0,35.8,0.4,34.2,12.6c0,0,4.9-10.4,15.7-7.4c0,0-3-5.1-11.8-4.9s-5.1-2.5-0.9-3.9c4.1-1.4,13.7-4.3,20.7,7.8
		c0,0,0.2-15.7,6.6-18.6c6.4-2.9,4,3,2.3,5.2s-1.7,12.4-1.7,12.4s5.3-11,21.6-6.6c0,0-1.9,4.2-7.6,5.7c-5.7,1.5-1.9,2.5-1.3,2.5
		c0.6,0,12.8,1.3,12.3,6.7c0,0-21.7-0.7-22.5,1.8c0,0,15.2,7.9,11.1,13.5c0,0-8.6-7.9-16.4-9l0.7,32.8c0,0,8.9,17.5-7.8,38.9
		c0,0,22.3,11.9,15.2,24.7c-7.1,12.8-16.4,20.8-27.2,23.2c-10.8,2.4-15.6,5.6-21.8,7.8c-6.2,2.2-23.5-2-23.5-2l0.2,7.5l-8.9,0.5
		l-0.4-10.9l-27.7,0.8c-0.2,1,0.5,1.7,0.6,2.7c0.1,1-0.4,2-1.1,2.7s-1.6,1.2-2.5,1.7c-0.3,0.1-0.5,0.3-0.7,0.5
		c-0.2,0.3-0.2,0.6-0.2,0.9c-0.1,1.5,0,3,0.2,4.5c0.2,1.1,0.4,2.3-0.3,3.2c-0.1,0.2-0.3,0.3-0.4,0.5c-0.1,0.2-0.1,0.5-0.1,0.7
		c0,5.3,0,10.6,0,15.9c0.7,0.3,1.4,0.6,1.8,1.2s0.5,1.6-0.2,2c-0.3,0.2-0.8,0.2-1.2,0.2c-1.2,0-2.4-0.1-3.5-0.6
		c-0.9-0.5-1.7-1.3-2.8-1.4c-1.1-0.1-2.1,0.6-3,1.2c-0.7,0.5-1.3,1-1.7,1.7c-0.2,0.4-0.3,0.8-0.6,1.2c-0.6,0.7-1.8,0.7-2.6,0.3
		s-1.6-1-2.5-1.3c-0.5-0.2-1.1-0.3-1.1-0.8c-0.1-0.4,0.3-0.7,0.5-1.1c0.5-0.9-0.1-2-0.4-3.1c-0.7-2.2,0.1-4.6,0.5-6.9
		c0.6-3.1,0.6-6.3,0-9.3c-0.1-0.4-0.1-0.7-0.3-1.1c-0.2-0.3-0.4-0.6-0.6-0.8c-0.5-0.9-0.4-2.1,0-3.1s0.9-1.9,1.1-3
		c0.2-1.3-0.1-2.7-0.5-4c-0.2-0.7-0.4-1.4-0.9-2c-0.5-0.5-1.4-0.8-2-0.5c0,0-9.1-1-11.6,0.7c-2.5,1.7-11.4,6.8-18.4,6.5
		c-7-0.3-27.1-7.4-33.3-16.7s-10.8-16.3-13.4-16.1c-2.6,0.2-3.1,3.9-6,2.9c-2.9-1-15.1-7-15.1-7l-0.1,11.5l-12.2,0.4l2-49.4
		c0,0-20-9.5-24.5-14.2c0,0-7.3,3.2-9,7.2c0,0-2.3-6.7,1.2-10.8c0,0-8.8-9-9-10.9l-3.1,2.5c0,0-3-5,1.2-8.9
		c4.2-3.9,7.1-11.7,16.4-12.2l-0.6-7.7c0,0-8.6-3.2-17.7-1.8c0,0,5.1-7.5,17.7-8.3l0.5-14.6c0,0-9.1-0.1-18,9.7c0,0-1.9-6,3.6-9.8
		c5.4-3.8,9.3-3.8,9.3-3.8s-4-3.2-12.2-1c-8.2,2.1-7.3,4.8-7.3,4.8s-1.4-8.3,6.3-10.7c7.8-2.3,9.9-1.3,9.9-1.3s-5.2-5.6-17.2-5.7
		c0,0,8.5-6.9,16.9-2.6c8.4,4.3,8.2,7.7,8.2,7.7s1.2-17.1,7.6-18.7c6.4-1.6-2,8.1-0.5,16.3c0,0,4-9.9,22.8-4.7c0,0-10.7,2.8-10.9,6.7
		c0,0,12.8,2.1,12,6.1s-19.3-0.3-21.9,3.3l15.6,11.2c0,0,9.7-13.1,14.5-14.1C3092.6,804.2,3110.5,802.7,3110.5,802.7z"/>
	<path class="st0" d="M2024,984.9c0,0-34.7-31.5-107.7,10.1c0,0-28.3,18.7-38.4,33.1c-10.1,14.4-12.5,8.8-12.5,8.8s-0.8,5,11.6,7.8
		c0,0-2.4,3.8-17.8,5.2s-3.1,47.8-3.1,47.8s-2.6,6.4-4.6,6.4c-1.6,0.7-2.9-1.6-3.4-3.4c-0.4-1.7-0.2-3.6-0.9-5.3
		c-1-2.4-3.7-3.6-6.2-4.2c-2.6-0.7-5.7-0.9-7.5,1.1c-1.5,1.7-1.5,4.4-3.3,5.8c-1.4,1.2-3.5,1-5.3,0.8c-3.7-0.3-7.5-0.2-11.2,0.3
		c-0.8,0.1-1.6,0.2-2.1,0.8c-0.6,0.7-0.7,1.7-1.2,2.5c-0.7,1.3-2.3,1.8-3.7,2.4c-1.4,0.6-2.8,1.8-2.6,3.3c0.1,0.9,0.8,1.5,1.4,2.3
		c2.6,3.5,1.7,8.5,0.7,12.7c-0.3,1-0.6,2.2-1.5,2.7c-0.7,0.4-1.6,0.3-2.4,0.3c-4.1-0.4-8.2-0.7-12.3-1.1c-0.9-0.1-1.8-0.2-2.7,0.2
		c-1.5,0.5-2.3,2.1-3.4,3.3c-2,2.3-4.9,3.5-7,5.7c-3.1,3.2-4,8.3-2.1,12.4c1.7,3.6,5.2,6,8,8.8c2.8,2.8,5.2,7,3.7,10.7
		c1.3,7.2,1.8,15.4,1.7,22.8c0,2.6-0.1,5.2,0.7,7.6c0.6,1.7,1.5,3.3,2.5,4.9c4.7,7.3,9.7,14.3,15,21.2c1.6,2,3.2,4,5.1,5.6
		c5.6,4.5,13.3,5,20.5,5.4c-3.3,4.8-3.5,11.5-0.5,16.5c4.1,6.9,12.6,9.6,18.6,14.9c4,3.5,6.8,8.2,10.7,11.8c5,4.7,11.4,7.6,17.7,10.3
		c11.6,5,23.2,10,35,14.8c7.6,3.1,15.3,6.2,23.4,7.3c11.5,1.6,23.3-0.8,34.7,1.1c8.4,1.4,16.1,1.4,24.6,0.5c5-0.6,9.9-1.5,14.9-2.5
		c6.1-1.2,12.4-2.4,17.9-5.3c3.1-1.6,5.9-3.6,8.9-5.3c4.5-2.6,9.5-4.5,13.6-7.8c5.1-4.1,8.3-10.1,12.7-15
		c9.8-10.8,24.8-15.6,35.2-25.9c4.4-4.3,7.8-9.5,12.7-13.3c3.5-2.7,7.6-4.4,11.5-6.4c4.3-2.2,8.5-4.8,12.7-7.3
		c2.3-1.4,4.8-3.1,5.7-5.7c0.5-1.6,0.3-3.4,0.1-5.1c-0.7-5.3-1.4-10.7-2.1-16c-0.3-1.9-0.6-4-1.8-5.5c-1.1-1.3-2.7-2.1-4.3-2.7
		c-3.2-1.2-6.8-1.8-10.2-1.5c-0.6,0-1.5,0-2.1,0.2c-0.6,0.3-1.2,1.2-1.5,1.8c-1,1.4-1.7,2.8-2.8,4.1c-0.7,0.8-1.5,1.5-2,2.5
		c-0.5,0.8-0.7,1.8-0.9,2.7c-0.5,2.6-1.1,5.1-1.2,7.7c0,1.3,0.1,2.6,0,3.9c-0.3,3.4-1.9,6.6-1.5,10c-0.5,0.1-1-0.4-1.1-0.9
		c-0.5-2.1-0.4-4.3-0.3-6.5c0.5-8.2,2.3-16.5,0.8-24.5c-0.2-1-0.4-1.9-0.9-2.8c-0.7-1.2-2-2.1-3.2-2.9c-1.8-1.2-3.7-2.4-5.8-2.9
		s-4.6-0.1-6,1.5c-0.9,1-1.4,2.4-1.6,3.8c-0.5,2.9-0.2,6-0.2,9s-0.3,6.1-2,8.6c-1.2-0.5-1.4-2.1-1.3-3.5c0.1-4.3,0.2-8.6,0.2-12.9
		c0-2.2,0.1-4.3,0.3-6.5c0.2-2,0.6-4.1,1.1-6c1.3-5.1-0.7-10.6-1.4-15.9c-0.7-6-1.5-12.1-2.2-18.1c-0.3-2.2-0.5-4.3-1-6.4
		c-0.7-3.3-2-6.4-3.3-9.4c-0.4-0.9-0.8-1.8-1.6-2.4c-0.8-0.6-1.9-0.7-2.9-0.8c-2.9-0.2-5.9-0.4-8.8,0.3c-1.4,0.3-2.8,0.9-4.3,1.2
		c-4.2,0.8-8.8-0.5-12.5,1.5c-4,2.2-5.2,7.2-5.7,11.7c-1.1,10.4-0.3,21,2.2,31.2c0.6,2.5,1.4,5,2,7.5c0.6,2.4,1.2,4.8,1.7,7.2
		c1.3,5.6,2.6,11.3,3.9,16.9c-0.8-0.7-1.6-1.4-2.3-2.1c-1-0.9-2-1.8-2.7-2.9c-1-1.8-1.1-3.9-1.3-5.9c-0.6-6.4-2.5-12.7-5.4-18.5
		c-1-1.9-2.4-4-4.6-4.1c-1.2-0.1-2.3,0.5-3.3,1c-2.2,1.2-4.5,2.4-6.3,4.1c-1.8,1.8-3,4.3-2.7,6.8c0,0-25.7-12.8-48.4-13.9s-24,4-24,4
		c-0.3-1.1-0.6-1.9-0.2-2.9c0.3-0.6,0.7-1.2,0.9-1.9c0.2-0.7,0.2-1.5-0.3-2c-0.3-0.3-0.8-0.5-1.2-0.6c-1.6-0.7-2.8-2-3.4-3.7
		c-0.2-0.5-0.3-1-0.1-1.5c0.2-0.5,0.6-0.9,1.1-0.8c0,0,36.5-13.5,52.2-30.1c15.7-16.5,25.3-27.7,29.6-43.2c0,0-0.5,20.8-7.2,33.1
		c-6.7,12.3-2.9,18.1,1.1,18.1s31.5-29.1,37.9-49.3c6.4-20.3,12.3-35.5,3.5-50.9s-28-12.8-28-12.8s6.1-4.7,13.1-5.2
		s26.1-14.8,27.5-20.7c1.3-5.9-1.2-19.1-1.9-22c-0.7-2.9,0-8.3-7.5-10.9c-7.5-2.7-11.1-0.3-14.8,0
		C2055,958.1,2031.8,964.8,2024,984.9z"/>
	<path id="catatumbo" class="st0" d="M2581.8,1538c0,0,41.1-58.7,52.8-78.9c11.7-20.3,44.3-70.9,60.3-93.3c16-22.4,37.3-41.1,36.8-54.4
		c0,0,25.1,9.6,41.6,10.7c16.5,1.1,59.2,4.8,86.9,10.7c27.7,5.9,34.1,11.2,51.2,11.7s34.1,6.4,42.1,8.5s12.8,2.7,30.9,2.7
		s9.6,5.9,39.5,11.7c29.9,5.9,37.3,16.5,43.7,25.6c6.4,9.1,40.5,59.7,50.7,71.5c10.1,11.7,43.2,65.6,35.7,70.4
		c-7.5,4.8-54.9-0.5-71.5,0.5c-16.5,1.1-23.5-0.5-29.9,2.7c-6.4,3.2-28.3,6.9-54.4,6.4s-47.5-0.4-65.1,0.1
		c-17.6,0.5-70.4-2.2-86.9-2.2c-16.5,0-36.3,3.2-47.5,0c-11.2-3.2-32,2.4-40.5,2.2c-8.5-0.1-25.5,1.6-43.1,0c-17.6-1.6-28,2.1-42,0.7
		s-40-5.5-47.6-5.5C2618.1,1539.7,2592,1550.6,2581.8,1538z"/>
	<path class="st0" d="M1543.7,2012.6c0,0,7.7-14.7,6.9-39.5c-0.8-24.8,2.9-36.3,2.1-55.5c-0.8-19.2,15.2-44,15.2-44
		c-5-1.8-11-3.3-16.2-2.7c0.9-6.3-5.8-11.1-7.1-17.3c-0.3-1.6-0.3-3.3-0.6-5c-0.3-1.6-0.9-3.1-1.5-4.6c-2.2-5.3-4.4-10.7-6.5-16
		c-0.3-0.8-0.6-1.6-0.5-2.4c0.3-2.1,2.9-2.8,5-3c0-3.8-0.1-7.7-0.1-11.5c8.8,0.8,13.5-12.1,22.3-12.6c0.5,0,1,0,1.4,0.2
		c1.7,0.8,1.1,3.7,2.6,4.9c1.6,1.3,4-0.5,4.6-2.5s0.5-4.2,1.7-5.9c2.7-3.6,8.6-0.7,13-1.8c2.3-0.6,4.4-2.4,6.8-2.3
		c2.9,0.1,5.3,2.8,8.1,2.5c2.3-0.2,4.1-2.4,4.5-4.7c0.5-2.3-0.1-4.7-0.6-6.9c3.3-1.3,7.2-1.3,10.5,0c1.6,0.6,3.2,1.6,4.9,1.6
		c2,0.1,3.8-1.1,5.8-1.6c5.3-1.5,12,0.9,15.7-3.1c2.3,1.6,4.7,3.3,7,4.9c0.6,0.5,1.3,0.9,2.1,1.1c0.9,0.2,1.9,0,2.8-0.2
		c0.5-0.1,1-0.2,1.5-0.3c2.1-0.4,4.4-0.9,6.5-0.1c2,0.8,3.6,3.3,2.5,5.2c4.2-2.2,8.5-4.4,12.7-6.6c0.9-0.5,1.8-0.9,2.8-0.9
		c2.5,0,4,2.6,5.9,4.1c5.3,4.2,15.3,1.1,18.3,7.1c0.6,1.3,0.8,2.8,1.6,4c0.7,1,1.8,1.7,2.9,2.3c4.1,2.3,8.1,4.7,12.6,6.2
		c2.3,0.8,4.6,1.4,6.6,2.7c3.1,2.1,4.6,5.8,6,9.3c1.9,4.8,3.8,10.4,1.4,15.1c-2,3.9-6.4,5.8-10.5,7.3c-0.8,0.3-1.6,0.6-2.4,0.9
		c-0.6,0.2-1.3,0.5-1.7,1c-0.7,0.8-0.8,2-1.1,3c-1.8,5.8-12.2,6.4-12.1,12.5c0,0,4.1-2.4,12.6-2.6c8.5-0.3,49.3,7.5,89.6,5.6
		c40.3-1.9,67.5-1.1,69.6,1.9c2.1,2.9,16,17.3,19.7,21.9c3.7,4.5,2.7,9.3,2.7,9.3s15.2-2.4,21.6,0.3c6.4,2.7,11.5,18.1,15.5,22.1
		s14.4,10.9,13.9,18.4c0,0,10.1-3.5,12,6.9c1.9,10.4,5.6,11.2,8.8,19.2c3.2,8,14.1,22.1,12.5,38.9c-1.6,16.8-2.7,21.6-8.8,27.7
		s-16.5,12.3-23.7,14.1c-7.2,1.9-143.7,3.5-183.7,4.5c-40,1.1-61.1,2.9-113.6,0c-52.5-2.9-68.5-8.3-85.6-10.4
		C1552.8,2033.7,1537.8,2033.1,1543.7,2012.6z"/>
	<path class="st0" d="M2054.1,2084.1c0,0-16-20.2-2-36.3c14-16.1,28.4-4.1,28,1.9c-0.4,6,0,12.2,0,12.2s17.2-7,22-17
		c4.8-10,6.4-0.8,6.4-0.8s22.4-28.4,46.8-44.4c0,0,18.4-6.4,24-9.5c5.6-3.1,43.3-20.1,48.5-21.5c5.2-1.3,48.4-12.3,74.7-9.2
		c0,0,12.3-7.3,12.4-21.6c0.1-14.3-2.3-21.1-13.3-28.1s-20.7-4-29.5,2.3c-8.8,6.3-6.7,14.8-15.5,17.6c-8.8,2.8-11.9-4.1-6.4-12.7
		c5.5-8.5,15.2-18.9,20.4-22.3c5.2-3.3,16.4-10,35.3-5.1c18.9,4.9,28.4,22.3,29.3,26.8s5.2,21.6,3.3,29.9c-1.9,8.3-5.6,25.2-8.1,26.8
		c0,0,9.6,13.7,12.2,29.3c0,0,4,13.4,9,18.2c5,4.8,10,11,8,19.8c0,0,17,6.4,21,9c4,2.6,7.2,8,7.2,12.2s1.4,65.2,1.4,65.2
		s-4.6,5.8-17.4,5.8c-12.8,0-27.8-7-23-15.8c4.8-8.8,12-9,12-9s1.2,1,1.4-6.6c0.2-7.6,2-19.6,0-21c-2-1.4-19.6-9-26.2-10
		c-6.6-1-25.8-3-31-8.2c-5.2-5.2-10-13-10-13s2.2,21,4.6,25.2c2.4,4.2-0.4,21.6-0.4,21.6s14.4-1.4,19.4,5.2c5,6.6,10.8,7.2,11.6,9.4
		s9.8,2.8,9.8,2.8s0.2,4.2,2.8,6.4c2.6,2.2,5,5.8,0.6,6.8s-6.4,1.2-11.4,6.2s-14.4,9.2-21,11c-6.6,1.8-13.8,0.8-20.4,2.2
		c-6.6,1.4-13.8-3.6-16.6,0c-2.8,3.6-10.2,1-12.2-1.6c-2-2.6-15.4-3.4-15.4-3.4s3.8,17.6-0.2,22.4s-13.2,3.2-13.2,3.2
		s-2.4,4.8-11.6,1.6c0,0-19.8,6-19.2-7.2c0.6-13.2,7.6-9.4,7.6-9.4s-1-3.8,1.6-8.4c2.6-4.6,0-8.4-1.8-12.4s-6.8-9.6-4.6-16
		c2.2-6.4-1.8-10-1.8-10s-12.8,15.6-57.8,12.2l-9.4,5.2c0,0-0.2,10.6-3.8,12.8c-3.6,2.2-9.4-0.4-9.4-0.4s-4.2,5.6-8.8,5.6
		c-4.6,0-12-0.4-12-0.4l-7.8,12.8c0,0,2.6,13.2-8.8,20.6c-11.4,7.4-23.4-6.8-23.4-6.8s-12.7,2.2-15.7-6.6s-1.5-20.6,3.1-27
		c0,0-10.8-16.4-7.8-20.6c3-4.2,5.6-9,6-11.4C2048.1,2098.3,2047.5,2088.3,2054.1,2084.1z"/>
	<path id="tama" class="st0" d="M2830.9,2275c0,0-106.1-20.3-105.1-70.9c1.1-50.7,71.5-84.3,102.4-71.5c0,0,10.1-6.4,8-9.1
		s-49.9-14.3-56.5-27.3c0,0,19.8,3.6,29.4,4c0,0-37-18.4-38.8-34c0,0,27.6,7,47.4,21.4c0,0-19.2-21-18.8-31c0,0,15,2.6,22.8,12.4
		c0,0-29.2-35.8-29-47c0,0,23.8,19.4,26.6,24.4c0,0-11-28.2-9.8-40.4c0,0,16.6,11,24.6,23.4c0,0-6.4-34.4-4-41c0,0,14.6,19.2,15,20.4
		c0.4,1.2,7.4-42.4,14.6-45c0,0,10,47.4,6.8,68.4c0,0,8.4-32,14.6-41.4c0,0,12.2,35.6,10,45.8c0,0,10.6-22.4,19.2-24.6
		c0,0,4.8,37.2-7.2,54.8c0,0,25.2-17.6,28-20c0,0,0,27.2-12.4,37c0,0,16.4-15,18.4-20.2c0,0,2.4,21-6.2,31c0,0,28-9.8,39.2-10.6
		c0,0-12.8,25.6-33.4,29.6c0,0,8.6,4,29.8,2s52.8-4.8,68-3.6c15.2,1.2,32.4,3.2,41.6,4.8c9.2,1.6,22.8-0.8,28.8-0.8
		s29.2,9.2,35.6,6.8c6.4-2.4,16-0.9,23.2-3.4c7.2-2.6,11.6-9,17.6-3.4c6,5.6,3.6,10.4,10.8,6c7.2-4.4,16.8-5.6,19.6-5.6
		s4.4-4,15.6,0.4c11.2,4.4,25.6,2.6,25.6,2.6l12.4-62.2c0,0-33.2,10-59.6-10c0,0,15-2,19.1-5.7c0,0-33.2-9.1-39.8-32.9
		c0,0,31.7,8.3,39.8,12c0,0-11.6-16.1-5.8-32c0,0,12.3,19.6,18,20.6c0,0-9.4-19.7-10.8-26.9c-1.4-7.2-1.3-10.7-1.3-10.7
		s23.8,18.7,28.1,21c0,0-12.5-35.1-5.5-55.5c0,0,15.8,17.6,17.8,23.7c0,0,1.6-26.6,10.5-42.8c0,0,16.7,29.7,14.1,42.5
		c0,0,10.3-18.6,12-29c0,0,14.2,20.3,14.6,29c0,0,18.2-22.7,28.9-26.3c0,0,3.3,21.7-7.9,38.1c0,0,20.8-21.7,27.1-23.9
		c0,0-13.6,31.1-31.8,46.7c0,0,16.1-13.1,24.3-12.4c0,0-0.4,16.5-17.8,28.9c0,0,29.1-18.5,47.6-17.4c0,0-7,11.4-18.8,17.9
		c-11.8,6.5-23.3,13.9-23.3,13.9s30.3-3.7,32.3-3.4c2,0.3-32.2,21.4-46.9,23.7c-14.7,2.3-21.7,2.6-21.7,2.6s17.3,6.9,19.5,8.1
		c2.2,1.2-2.4,3.4-4.1,3c-1.7-0.4-14.4-2-14.4-2l6.9,27.1l4.1,36.2c0,0,24.3,1.6,49.1,12s40,33.1,56.8,38.7
		c16.8,5.6,20.5-0.8,5.9,24.5c-14.7,25.3-47.5,55.5-55.2,60.5c-7.7,5.1-59.5,15.2-82.1,15.2c-22.7,0-71.5-1.3-102.1-4
		c-30.7-2.7-68.5,12-88.5-1.9c0,0,11,8.8-20.6,11.7c-31.6,2.9-59.4,2.4-82.6-3.5c-23.2-5.9-20.5-8.5-30.9-5.6
		c-10.4,2.9-43.2,7.5-61.3,8.3s-40.8-3.2-44.3-1.6C2861,2277.4,2854.9,2290.2,2830.9,2275z"/>
	<path id="yarigues" class="st0" d="M2522.9,2596.9c0,0,29.6-76.8,59.2-85.6c0,0-2.4-100.8,49.6-120c0,0,10.7,18.9,24.3,17.6
		c13.6-1.3,12.3-8.8,21.6-12.3c9.3-3.5,18.4-22.1,30.1-26.4c11.7-4.3,54.9-4,73.3,6.7c18.4,10.7,22.4,15.5,22.4,15.5
		s6.9-18.4,20.3-23.2c13.3-4.8,17.1-12.5,22.9-12.3c5.9,0.3,30.7,5.9,37.1,9.6c6.4,3.7,31.5,16,39.2,15.5
		c7.7-0.5,16.8-10.1,25.3-11.7c8.5-1.6,34.1,2.7,46.1,7.7c12,5.1,30.9,19.5,58.1,25.3s33.6,7.5,35.2,8c1.6,0.5,30.7-3.5,41.9,5.6
		s37.6,41.3,39.2,53.9c1.6,12.5-11.5,33.1,20,56.3c31.5,23.2,35.5,73.6,35.5,73.6l-282.4,2.4c0,0-20.5-10.9-42.4-6.4
		c-21.9,4.5-25.6-2.9-47.2-1.3c-21.6,1.6-11.2,6.7-21.6,7.7c-10.4,1.1-7.5-10.4-26.9-1.9c-19.5,8.5-25.3,4-41.1,3.5
		c-15.7-0.5-27.7-9.9-46.4-6.9c-18.7,2.9-47.5,5.3-80.5,5.3l-112.8-0.8V2596.9z"/>
	<path id="orquideas" class="st0" d="M2110.9,2623.8c0,0,21.3-2.7,41.6,4.8c20.3,7.5,12.2,6.1-2.4,5.9c-14.6-0.2-23.2-0.4-37.4-1.4
		c-14.2-1-30.4-3.6-44.6-2.4c-14.2,1.2-33.2-4.6-33.2-4.6s-9,3.4-17.4,5.4s-18.4-0.4-22.8,2c-4.4,2.4-15.8,6-17.4,11
		c-1.6,5-10.6,15.8-21.6,14.6c-5.6-0.6-11.1-0.9-16.7-1.4c-1.2-0.1-2.5-0.2-3.4,0.6c-0.8,0.6-1,1.7-1.5,2.5c-1,1.6-2.9,2.4-4.7,2.5
		c-1.8,0.1-3.7-0.4-5.4-1c-8.9-3.1-17.4-8.4-26.9-8.5c-2.8,0-5.6,0.4-8.2-0.3c-3.5-0.9-6.4-3.6-9.9-4.6c-1.8-0.5-3.7-0.6-5.5-0.6
		c-4.3,0-8.6,0.5-12.9,0.8c-4.2,0.3-8.1,0.8-12-1.1c-4.2-2.1-8.3-4.3-12.3-6.6c4-0.6,7.4-1.5,11.5-2c2.1-0.3,4.2-0.6,6.3-1.2
		c3-0.9,5.7-2.6,8.4-4.2c2-1.2,4.1-2.5,5.8-4.2c5.6-6,4.7-15.8,9.5-22.4c2.2-3.1,5.6-5.3,9.1-6.9c4.2-1.9,8.9-3.3,12.1-6.6
		c1.7-1.7,2.9-3.9,4.5-5.7c1.6-1.8,4-3.2,6.4-2.7c0.5-2.3,1-4.9-0.3-6.8c-0.4-0.6-1-1.1-1.7-1.5c-1.4-0.8-3.3-1.2-4.6-0.1
		c-0.5,0.4-0.9,1-1.3,1.6c-1.2,1.6-3,2.7-5,3c-2,0.3-4.1-0.2-5.7-1.4c-1.1-0.8-2-1.9-2.9-3c-2.3-2.8-4.5-5.6-6.8-8.4
		c-0.6-0.8-1.7-2.2-2.8-2.1c-1.4,0-2.2,1.4-3.2,2.1c-1.2,0.9-2.9,1.3-4.3,1.8c-2,0.8-4.2,1.7-5.5,3.5c-1.2,1.6-1.5,3.8-2.6,5.5
		c-0.8,1.4-2.1,2.6-2.7,4.1c-0.3,0.8-0.4,1.7-0.6,2.6c-0.3,2.2-0.2,6.5-3.4,6.7c-0.8,0-1.6-0.4-2.3-0.8c-1.2-0.7-2.3-1.6-3.3-2.7
		c-1.7-1.7-2.9-3.8-4.2-5.9c-1-1.6-2-3.3-3-4.9c-2.5-4.1-5-8.1-7.5-12.2c-1-1.6-2.3-2.9-2.9-4.7c-0.6-1.9-0.8-3.8-0.8-5.8
		c0-1.3,0-2.7,0.2-4c0.6-4.3,2.9-8.1,5.1-11.8c-0.7-0.5-2-0.2-2.7,0.1c-0.8,0.3-1.5,0.9-2.2,1.3c-3,1.7-6.6,1.5-10,1.1
		c-2.5-0.3-4.9-0.6-7.3-1.4c-2.1-0.7-4.1-1.9-6-3c-1.3-0.8-2.6-1.5-3.9-2.4c-5.3-3.7-9.2-9-13-14.2c-1-1.3-2-2.7-2.8-4.1
		c-0.9-1.5-2-2.8-2.8-4.3c-2.1-3.6-4.1-7.2-6.6-10.5c-3.5-4.8-7.9-8.9-11.9-13.2c-1.4-1.5-2.9-3.2-3.7-5.1c-0.7-1.7-1-3.6-1.9-5.2
		c-0.6-1.2-1.5-2.2-2.1-3.4c-0.8-1.4-1.1-3-1.4-4.6c-0.6-3.3-0.9-6.7-1-10.1c0-1.5-0.4-3.7,0.1-5.1c0.3-1,1.4-1.7,1.8-2.8
		c1.1-2.8,3.2-5.2,5.8-6.6c1.7-1,3.6-1.6,5.5-2.1c4.5-1.4,8.9-2.9,13.4-4.4c5.6-2,11.2-4.1,16.3-7.2c1.4-0.9,2.7-1.8,3.9-2.9
		c0.7-0.7,1.4-1.5,2.1-2.2c1-1,2.1-1.8,3.1-2.7c1.9-1.5,3.8-3,5.8-4.6c1.8-1.4,3.6-2.8,5.5-4c2-1.2,4.1-2.1,6.3-2.9
		c3.6-1.5,7.3-3,11.1-2.9c0.1-1.7-0.2-3.5-1-5.1c-0.8-1.7-2.2-3.1-2.9-4.8c-0.4-0.9-0.7-1.9-0.9-2.9c-0.6-2.2-1.1-4.5-1.7-6.7
		c-0.3-1.4-0.7-2.7-0.9-4.1c-0.3-2.3-0.4-4.6-0.4-6.9c0-4.4,0.1-9,2.3-12.7c1.2-2,1.2-4.5,1.6-6.8c0.3-2,0.5-4,0-6
		c-0.3-1.3-0.9-2.4-1.5-3.6c-1.5-3.2-2.6-6.7-3.1-10.2c-0.4-2.7-1.3-7,0.6-9.4c1.1-1.4,3-1.8,4.7-1.9c0.6,0,1.3-0.1,1.9,0.1
		c0.4,0.1,0.8,0.3,1.2,0.6c1.7,1,2.6,2.4,3.7,4c1,1.5,2.5,2.7,3.6,4.2c2.7,3.5,5.3,7.2,7.6,10.9c0.7,1.2,1.5,2.4,2.6,3.2
		c1.5,1.1,3.6,1.1,5.4,1.2c3.9,0.2,7.9,0.5,11.5,2c7.5,3.1,12.2,10.3,16.5,17.1c1.7,2.7,3.4,5.5,5,8.3c0,0,8.2-4,8.5-9.8
		c0.3-5.8,1.5-17,9-21.6s16.9-3.6,21.6-0.2c4.7,3.4,13.1,5.1,16.4,5c3.3-0.1,18.7-6.6,27.1-0.3s9.6,10.1,9.6,10.1s3.4-6.8,10-7.3
		s14.9-2.3,18,6.4s0.6,14.5-2.8,19.3c-3.4,4.8-5.1,12.3-1.8,13.2c3.3,0.9,16.2,11.5,12,19c-4.2,7.5-15.2,24.1-15.2,24.1
		s24.9,4,29.8,27c0,0,1.1,15.7-11.7,20.2c0,0-1.3,8.3,18.4,25.6c19.7,17.3,37.1,33.9,43.2,46.1c6.1,12.3,24,39.5,22.7,59.2
		L2110.9,2623.8z"/>
	<path class="st0" d="M958.4,2814.3c-7.6,5.7-12.1,15.2-11.8,24.7c34.6,1.3,69.1,2.5,103.7,3.8c14.3,0.5,28.7,1,42.8-1.6
		c8.9-1.6,17.6-4.5,26.6-4.6c7.9,0,15.7,2.2,23.5,3.5c25.4,4.3,51.5-0.5,77.3,0.6c14.7,0.6,29.2,3.1,43.9,3.2c23.2,0.3,46-5.1,69-7.7
		c69.4-8,140.3,9.1,209.2-2.7c-7.4-2.7-14.6-5.6-21.2-10c-0.4-0.8,0.7-1.4,1.5-1.9c1.6-1.1,1.9-3.4,2.1-5.3c0.2-3.3,0.4-6.8-1.5-9.5
		c-0.9-1.4-2.3-2.4-3.7-3.2c-2.4-1.4-5-2.2-7.8-2.5c-0.8-0.1-1.6-0.1-2.3-0.6c-1.8-1.2-0.9-4.1,0.6-5.7c1.5-1.6,3.5-3,3.7-5.2
		c0.1-1.3-0.5-2.5-1.1-3.6c-3.2-5.4-8.3-10.3-8.2-16.6c0.1-3.8,2.3-7.3,5.4-9.5s7-3.1,10.7-3c0.9,0,2,0.1,2.8-0.4
		c1.9-1.2,1.2-4.1,0.2-6.1c-2.7-5.2-6.1-10.4-11.2-13.3s-12.2-3-16.4,1.1c-0.8,0.8-1.5,1.7-1.7,2.8c-0.3,1.6,0.4,3.2,0.8,4.7
		c0.9,3,1.1,6.2,0.4,9.2c-1.2,0.4-2.4-0.7-3.3-1.7c-3-3.6-6-7.2-9-10.8c-0.4-0.5-0.8-1-1-1.6c-0.4-1.6,1-3.1,1.4-4.7
		c0.6-2.2-0.8-4.4-2.1-6.3c-1.6-2.3-3.4-4.5-5.7-6.1c-2.3-1.6-5.3-2.4-8-1.7c-0.4,0.1-1.2,0.4-1.5,0.1c0.3-2,3.2-2.4,4.3-4.2
		c1.1-1.7,0-4-1.1-5.7c-2.2-3.4-4.7-6.7-6-10.6c-1.6-4.5-1.5-9.6-3.9-13.8c-0.7-1.2-1.6-2.6-1.2-4c0.2-0.6,0.6-1.1,1-1.6
		c3.7-4.4,7.4-8.7,11.2-13.1c1.9-2.3,4-4.6,6.9-5.5c1.3-0.4,2.6-0.5,3.8-0.9c3.7-1.2,6-5.5,5.3-9.3c-0.7-3.8-4.1-6.9-8-7.5
		c-0.7-0.1-1.4-0.2-2.1-0.4c-1.7-0.6-2.8-2.7-2.2-4.5c0.3-0.8,0.8-1.5,1-2.3c0.4-1.5-0.5-3.2-1.7-4.2c-1.3-1-2.9-1.3-4.5-1.6
		c-4.8-0.9-9.8-1.1-14.6-0.7c-0.7,1.5,0.5,3.5,2.1,3.6c-0.3,1.8-2.6,2.3-4.4,2.6c-1.8,0.3-4,1.5-3.5,3.3c0.1,0.5,0.5,1,0.9,1.4
		c3.4,4.4,2.1,11.6-2.6,14.5c-0.3,0.2-0.7,0.4-0.8,0.8c-0.1,0.4,0.2,0.7,0.3,1c0.5,1.3-0.6,2.7-1.7,3.7c-1.1,0.9-2.4,1.9-2.5,3.4
		c-2.7-1-3.4-4.6-3-7.4s1.7-5.7,1.1-8.6c-0.1-0.4-0.2-0.8-0.5-1.1c-0.4-0.4-1-0.5-1.6-0.5c-2,0-4,1.1-5,2.9c-1,1.7-1,4,0.1,5.7
		c1.3,2.1,4.1,3.9,3.5,6.3c0.1-0.4-2.2-2-2.6-2.2c-1-0.8-2.1-1.5-3.2-2.1c-0.8-0.4-2.1-1.3-3.1-1.4c-1,0-2.5,1.3-3.3,1.9
		c-0.4,0.2-0.8,0.5-1,0.9c0.9-1.2,1.6-2.5,2.1-3.9c1.3-3.5,1.6-7.3,2.8-10.9c0.4-1,0.8-2,1.5-2.8c0.6-0.6,1.3-1.1,2.1-1.5
		c2.3-1.4,4.7-2.8,7.2-3.9c1.7-0.7,3.5-1.3,4.9-2.4c1.5-1.1,2.7-2.8,2.6-4.6c-0.1-0.8-0.3-1.6-0.6-2.3c-0.8-2.1-1.7-4.3-3.6-5.6
		c-2-1.4-5-1.7-6.1-3.9c-0.3-0.6-0.5-1.3-1-1.7c-0.8-0.4-1.7,0.2-2.5,0.7c-1,0.6-2.1,0.9-3.3,0.9c0-2.1,2.7-3.3,2.8-5.4
		c0-1.4-1.1-2.5-2.4-2.9c-1.3-0.4-2.7-0.4-4-0.4c-2.6,0-5.2-0.4-7.7-1.2c-1.4-0.4-2.8-1-4.2-0.9s-3,1-3.2,2.4c1.4,0.2,2.8,1,3.5,2.3
		c-1.7,0.3-3.5,0.5-5,1.4c-1.5,0.9-2.7,2.5-2.5,4.3c1.6,0.2,3.1,0.4,4.7,0.6c1.1,0.1,2.4,0.4,2.9,1.4c0.5,1-0.1,2.3-1,3
		c-0.9,0.7-2,1.1-3,1.7c-1.8,1.1-3.1,3.2-5.1,3.7c-0.7,0.2-1.5,0.2-1.9,0.8c-0.2,0.4-0.1,1,0.1,1.4c1.2,2.1,4.2,2.2,6.5,3.1
		c1,0.4,2.1,1.6,1.4,2.4c-0.2,0.2-0.5,0.3-0.8,0.4c-1.7,0.6-3.4,1.3-5,1.9c-1.4,0.5-3.2,0.9-4-0.2c-0.5-0.7-0.4-1.6-0.5-2.5
		c0-0.8-0.4-1.8-1.2-2.1c-0.8-0.2-1.6,0.4-2.4,0.9c-1.1,0.6-2.4,0.8-3.6,0.5c-0.8-0.2-1.8-0.6-2.3,0c-0.3,0.3-0.3,0.8-0.5,1.1
		c-0.6,1.1-2.3,0.6-3.2-0.3s-1.4-2.2-2.5-2.7c-1.9-0.8-3.9,0.9-6,0.6c-0.7-0.1-1.4-0.5-2.1-0.6c-0.9-0.1-1.8,0.1-2.5,0.7
		c-0.6,0.5-1,1.2-1.6,1.7c-0.4,0.3-1,0.5-1.5,0.6c-2.6,0.8-5,2.1-7.2,3.6c-0.5,0.3-0.9,0.7-1.2,1.2c-0.5,0.9-0.2,2,0.1,3
		c0.3,1,0.6,2,1.3,2.7c0.3,0.4,0.7,0.7,1,1.1c0.4,0.8,0.3,1.8-0.1,2.7c-0.6,1.4-1.6,2.6-2.9,3.5c0.2-1.2-0.8-1.7-1.5-2.6
		c-0.8-0.9-1.8-1.5-2.9-2c-5.7-2.6-12.8-1.6-17.5,2.4c-2.1,1.8-5.9,1.9-8.4,0.8c-1-0.4-1.9-1.1-3-1.2c-1.1-0.1-2.2,0.3-3.2,0
		c-0.7-0.2-1.3-0.7-2-1.1c-2.1-1.3-5-1.4-7.2-0.1c-0.7,0.4-1.4,1-2.2,0.7c-0.8-0.2-1.1-1.3-1.3-2.1c-0.2-1.4-0.5-2.7-0.7-4.1
		c2.5,0.1,5,0.2,7.4-0.4s4.7-2.2,5.5-4.5c1-2.7-0.1-5.9-2.1-8c-2-2.1-4.7-3.5-7.3-4.7c-4.3-2.1-8.6-4.2-12.9-6.3
		c-2.2-1.1-4.6-2.2-7-1.9c-1.3,0.2-2.6,0.7-3.9,0.8c-4.7,0.2-7.8-5.8-12.6-6.1c-1.4-0.1-2.8,0.4-4.1,0c-0.9-0.2-1.6-0.8-2.4-1.4
		c-4.7-3.6-10-6.7-15.7-8.1c-5.8-1.4-12.2-1-17.3,1.9c-3.6,2.1-6.7,5.3-10.8,5.9c2.7-3.2,4.2-6.6,5.4-10.7c0.7-2.2,1.1-4.5,2.1-6.5
		c3.3-6.4,11.8-8.3,16-14.2c1.2-1.8,2-3.8,3.5-5.4c2.3-2.5,6-3.3,8.3-5.7c3.4-3.6,2.4-10.4-1.9-12.8c-0.6-0.3-1.3-0.6-1.8-1
		c-0.7-0.5-1.1-1.3-1.6-2c-0.8-1.3-1.6-2.7-2.4-4c-0.5-0.8-0.9-1.6-0.8-2.5c0.1-0.9,0.8-1.7,0.9-2.7c0.1-1.9-2.4-2.7-4.3-3
		c-4.1-0.5-8.1-0.9-12.2-1.4c-1.2-0.1-2.7-0.2-3.4,0.8c-0.9,1.3,0.1,3.1-0.4,4.5c-0.9,2.3-5.3,2.5-5,4.9c0.1,0.7,0.5,1.3,0.9,1.9
		c1.7,2.9,0.6,6.6-0.8,9.7c-2,4.2-4.6,8.2-7.8,11.6c4,0.1,7.8,3,9,6.8c1.5,4.9-1,9.9-3.4,14.4c-2.1,3.9-4.2,7.9-6.3,11.8
		c-1.4,2.6-3.8,5.6-6.6,4.7c-2.2-0.7-2.8-3.6-2.3-5.9c0.6-2.2,2-4.2,2.7-6.4c0.8-2.7,0.4-5.6,1.3-8.2c0.8-2.4,2.5-4.4,3.4-6.8
		c0.8-2.2,0.8-4.6,0.8-6.9c0-5.1,0-10.2,0-15.3c0-1.6-0.2-3.5-1.6-4.2c-1.5-0.7-3.3,0.6-4.1,2.1s-1.1,3.3-2.2,4.5
		c-0.4,0.5-1,0.9-1.2,1.5c-0.9,2,1.5,3.9,1.9,6c0.4,1.9-1,3.8-1,5.8c0,2,1.4,3.8,1.9,5.7c1.1,3.9-1.2,7.8-3.3,11.2
		c-0.3-6.5-2.5-13-6.4-18.3c-1-1.3-2-2.7-2.1-4.3c0-1,0.4-2,0.8-2.9c2.3-5.5,4.6-11,6.9-16.5c0.4-0.9,0.8-1.8,1.4-2.4
		c2.1-2,5.5-0.6,8.3-1.3c3-0.7,5-3.9,5.1-7c0.1-3.1-1.2-6.1-2.8-8.7c-1.4-2.4-3.3-4.8-5.9-5.9c-1.2-0.5-2.6-0.7-3.5-1.6
		c-1.3-1.1-1.5-3-2.7-4.2c-1-1.1-2.5-1.5-4-1.7c-3.7-0.7-7.7-0.6-11.2,1c-3.4,1.6-6.2,5-6.3,8.8c1.9,0.5,3.9,0.9,5.8,1.4
		c-2.9,4.2-7.1,7.4-11.9,9c0.4,2,1.9,3.7,2.3,5.7c0.5,2-1.1,4.7-3,3.9c-0.5-1.7-0.9-3.4-1.4-5.2c-0.1-0.4-0.3-0.9-0.7-1.2
		c-0.8-0.5-1.6,0.4-2.3,1c-3.1,3.1-8.3,1.6-12.3,0s-9.5-2.6-12.1,0.8c-1.1,1.4-1.5,3.4-2.9,4.4c-0.7,0.4-1.5,0.6-2.1,1.1
		c-2,1.5-1.6,4.5-1.4,7c0.2,3.7-0.8,7.5-2.8,10.7c-1,1.6-2.1,2.8-3.6,3.9c-1.3,1-2.7,1.7-2.4,3.8c0.4,2.8,3.6,4,6.4,4.6
		c1.2,0.3,2.5,0.6,3.7,0.9c1.3,0.3,2.6,0.6,3.9,0.7c1.1,0.1,2.2,0,3.2,0.3c1.4,0.4,2.6,1.3,3.8,2.2c2.3,1.6,4.8,2.8,7.5,3.5
		c3.2,0.9,7.1,1.6,8.4,4.6c-3.7,0-7.5-0.1-11.2-0.1c-0.9,0-1.8,0-2.5,0.3c-0.8,0.4-1.3,1-1.9,1.7c-3.4,4.1-6.7,8.3-9.8,12.6
		c-1.1,1.5-2.2,3.1-2.7,4.9c-1.1,3.5-0.2,7.7-2.5,10.4c-1.1,1.3-4.8-2-5.5-2.9c-1.7-2.4-1.9-5.6-3.4-8.2c-2.7-4.4-7.9-6.4-12.7-7.9
		c-1.4-0.5-2.9-0.9-4.4-0.8c-1.8,0.1-3.5,0.9-5.1,1.8c-1.4,0.7-2.7,1.4-4.1,2.1c-1,0.5-2,1-2.7,1.9c-1.1,1.3-1.4,3.1-1.6,4.8
		c-0.2,2-0.4,4.1-0.2,6.1c0.3,2,1.2,4,2.7,5.3c0.9,0.7,1.9,1.1,2.9,1.8c0.9,0.6,1.8,1.5,1.9,2.6c0.1,0.6-0.1,1.2-0.3,1.8
		c-0.2,0.8-0.5,1.6-0.9,2.4c-0.7,1.3-2,2.1-3,3.2c-1,1.1-1.7,2.7-1.1,4c0.2,0.4,0.5,0.7,0.8,1.1c1.5,2,1.7,4.5,1.8,7
		c0,0.6,0.1,1.3-0.2,1.9c-0.2,0.5-0.6,1-1,1.4c-4,3.9-10.5,5-15.6,2.6c-4.7,1.1-10.7,1.8-15.4,2.9c-0.9,0.2-1.8,0.4-2.7,0.9
		c-1.3,0.8-2.3,2.1-3.8,2.6c-1,0.3-2.1,0-3.2,0c-7.1-0.3-14.1,5.6-19.7,9.2c-0.6,0.4-1.3,0.9-1.7,1.5c-0.3,0.5-0.4,1.2-0.4,1.8
		c-0.2,3.8,1.3,7.8,4.1,10.5c1.5,1.4,3.3,2.5,4.7,4.1c2.8,3.1,3.4,8.1,1.5,11.8c-0.3,0.5-0.6,1.1-0.6,1.7c0.1,1.2,1.5,1.8,2.5,2.5
		c1.3,1,2,2.6,2.6,4.1c1.6,4.3,2.9,8.7,3.9,13.2c-2.4,0.2-4.5-1.5-5.9-3.5c-1.4-2-2.3-4.3-4-6c-2.4-2.4-5.9-3.2-9.2-3.7
		c-3.4-0.4-6.8-0.6-9.9-1.9c-1.9-0.8-3.7-2-5.7-1.9c-1.1,0.1-2.1,0.6-3.1,1.1c-3.6,1.8-7.1,3.9-10.5,6c-0.9,0.6-1.7,1.1-2.3,2
		c-0.5,0.8-0.8,1.7-0.9,2.7c-0.8,4.1-1.1,8.3-0.9,12.4c0.1,1.3-0.1,3-1.4,3.3c-1.3,0.3-2.1-1.3-2.5-2.5c-2.2-7.9-2-16.4,0.5-24.1
		c0.4-1.1,0.8-2.3,1.7-2.9c1.6-1.2,4-0.5,5.7,0.6c1.7,1.1,3.3,2.6,5.3,2.9c0.4,0.1,0.8,0.1,1.1-0.2c0.2-0.2,0.2-0.6,0.2-0.9
		c-0.1-3.8-0.7-7.6-1.8-11.2c2.5,0,4.5,2,5.9,4.1c1.4,2.1,2.4,4.5,4.4,6c2,1.5,5.3,1.6,6.6-0.6c0.5-1,0.6-2.3,1.5-2.9
		c0.5-0.3,1-0.3,1.5-0.4c1.6,0,3.3,0.1,4.8-0.2s3.2-1.4,3.5-3c0.5-2.4-1.9-4.3-3.7-6.1c-2.1-2.1-3.4-4.9-3.8-7.9
		c-0.1-1-0.1-2-0.6-2.9c-1.1-2.3-4.3-3-5.4-5.3c-0.7-1.5-0.4-3.2-0.3-4.8s-0.1-3.5-1.5-4.4c-0.8-0.5-1.7-0.6-2.6-0.6
		c-3.6,0-7.5,0.9-10.7-0.9c-0.4-0.3-0.9-0.7-0.8-1.2c0.1-0.5,0.6-0.7,1-0.9c2.7-1.1,5.7-1.6,8.6-1.5c1.9,0,3.9,0.3,5.8-0.2
		c2.5-0.7,4.3-2.6,6.1-4.4c0.9-0.9,1.7-1.9,2-3.1c0.2-1.1-0.1-2.1-0.5-3.1c-1.2-2.6-3.3-4.9-5.8-6.2c-1.1,0.6-3-1.1-3.2-2.3
		c-0.2-1.2,0.2-2.5,0.4-3.7c0.1-1.2-0.2-2.7-1.4-3.2c-0.8-0.3-1.8,0-2.7-0.1c-1.5-0.2-2.8-1.7-4.2-1.1c-1.6,0.6-1.7,3.5-3.4,3.4
		c-0.4,0-0.8-0.3-1.2-0.5c-3-1.9-6-3.7-8.9-5.6c-1.2-0.8-2.4-1.5-3.2-2.7c-0.8-1.2-1.1-2.8-0.4-4c-3.9-0.8-8-1.4-11.8-0.4
		s-7.4,4.3-7.5,8.2c0,1.5,0.5,3.1,1.7,4c0.7,0.5,1.6,1.3,1,1.8c-2.7-0.2-6,0-7.3,2.3c-0.4,0.8-0.6,1.7-0.9,2.6c-0.7,1.8-2.5,3-4.1,4
		c-1.7,1.1-3.5,2.3-5.2,3.4c-0.8,0.5-1.7,1.1-2.6,1.5c-0.9,0.4-1.9,0.5-2.8,1c-1.7,0.9-2.7,2.7-3.1,4.6s-0.3,3.8-0.3,5.7
		c0,0.7,0,1.4-0.5,1.9c-0.3,0.3-0.6,0.5-1,0.6c-1.5,0.5-3.1,0.6-4.6,1c-1.5,0.5-3,1.5-3.2,3c-0.3,1.8,1.2,3.4,2.7,4.5
		c1.5,1.1,3.2,2.3,3.5,4.1c0.3,1.6-0.5,3.4,0.2,4.8c1,2,4.3,2.2,5,4.4c0.3,1.2-0.4,2.4-1.3,3.2s-2,1.4-3,2.2
		c-1.9,1.6-2.8,4.2-2.9,6.7s0.4,5,1,7.4c0.3,1.5,0.7,3,1.8,4.1c1.6,1.6,4.2,1.6,6.5,1.4c3.1-0.2,9.7,0.7,11-2.9
		c0.6-1.7,0.5-3.7,1.1-5.4c1.1-3,4.3-4.7,7.5-4.7c3.1-0.1,6.1,1.2,8.9,2.8c1,0.6,2,1.2,2.6,2.1c1,1.3,1.3,3,1.3,4.7
		c0,5.7-3.1,11-3.1,16.7c-1.7,1-3.9,0.2-5.5-0.9c-1.6-1.1-3.2-2.5-5.1-2.8c-0.5-0.1-1-0.1-1.4,0.1c-0.8,0.3-1.2,1.1-1.7,1.8
		c-1.6,2.3-4.1,4-6.8,4.5c-1.6,2.7-4,4.9-6.3,6.9c-3.9,3.4-8.9,5.9-11.7,10.3c-2.5,3.9-3,8.7-2.8,13.3c0.2,6.1,1.2,12.2,3.2,18
		c0.4,1.3,0.9,2.6,1.7,3.7c1.6,2.2,4.2,3.3,6.1,5.2c0.9,0.9,1.6,1.9,2.7,2.6c2.7,1.8,6.3,0.9,9.2,2.2c3.9,1.8,5,6.6,7.5,10
		c0.3,0.5,0.7,0.9,0.8,1.5c0.2,0.8-0.3,1.7-0.7,2.4c-1.5,2.4-3.3,4.6-5.4,6.5c-1.5,1.3-3.2,2.8-3.3,4.8c-2.8,0.2-5.5-0.8-8.2-1.4
		C968.8,2812.4,964.3,2813.9,958.4,2814.3z"/>
	<path id="cocuy" class="st0" d="M3242.1,2676.9c0,0,13.6-2.4,37.6-24.8c24-22.4,18.4-19.2,35.2-31.2c16.8-12,30.4-24.8,49.6-44
		c19.2-19.2,11.2-3.2,32-31.2s30.4-64.8,59.2-87.2s40-45.6,40-45.6s2.4-8,3.5-19.2s-8-2.7-5.3-17.1c2.7-14.4,11.7-11.7,20-14.7
		c8.3-2.9,23.2-2.9,23.2-2.9s-3.5-33.9-2.4-45.1c1.1-11.2-4.3-13.3-4-24.5s5.1-10.4,4.5-24.3c-0.5-13.9-8.3-26.4,4.8-29.9
		c13.1-3.5,28.3-11.7,36.3-11.5c8,0.3,0.8,9.9,13.3,3.5c12.5-6.4,2.9-7.7,15.5-10.7c12.5-2.9,32-7.2,40.3-8.3s22.9,5.1,31.7,4.8
		c8.8-0.3,8.5,3.2,14.9,1.1c6.4-2.1,5.6-2.6,17.6-6s23.7-2.3,29.9-6c6.1-3.7,7.2-5.6,14.1-6.1c6.9-0.5,9.6,0.5,17.1,0
		c7.5-0.5,24-2.9,27.5,10.7c3.5,13.6,0.3,21.3,0,26.1c-0.3,4.8-2.9,10.1,1.6,13.6c4.5,3.5,2.1,11.2,2.1,11.2s12-4,9.3,10.9
		c-2.7,14.9,2.4,17.1,0.4,24.5c-2,7.5-1.2,15.5,9.5,15.5c10.7,0,9.9,6.4,29.6,8.3c19.7,1.9,81.6-3.7,94.1,1.9
		c12.5,5.6,8,14.4,27.5,12.3c19.5-2.1,52-12,63.5-20.5c11.5-8.5,50.4-26.1,92.3-17.6c0,0,17.6-2.9,27.5,2.1
		c9.9,5.1,12.3,13.1,19.7,19.7c7.5,6.7,13.6,1.9,26.7,7.7c13.1,5.9,14.1,13.1,14.1,13.1s18.4,0.5,27.7,3.7c9.3,3.2,18.7,7.5,18.7,7.5
		s20-2.9,22.9-6.4c2.9-3.5,23.2-9.3,27.7-8.5c4.5,0.8,34.7,13.1,49.9,33.9c15.2,20.8,45.6,34.4,64.8,51.2
		c19.2,16.8,72,112,76.8,126.4c4.8,14.4,88.8,112.8,96.8,133.6c8,20.8-197.1,15.7-225.3,22.1c-28.3,6.4-162.1-5.3-182.4-6.9
		c-20.3-1.6-75.7-14.4-173.3-8.5s-136.5-15.5-158.9-14.4c-22.4,1.1-171.7-5.9-220.8,2.1s-191.5-1.1-224,2.7
		C3384,2677.7,3258.6,2688.9,3242.1,2676.9z"/>
	<path id="tatama" class="st0" d="M1665.5,2842.7c0,0-35.7-22.6-60.2,6.7s-15.5,35.7-19.2,48.5c-3.7,12.8-18.7,37.3-22.9,71.5
		c-4.3,34.1,9.1,29.9,4.8,54.4c-4.3,24.5,1.1,44.3,1.1,44.3s-19.7,40.5,10.1,61.3c29.9,20.8,61.3,19.7,79.5,30.4
		c18.1,10.7,42.7,13.9,51.2,5.9c0,0,14.1,7.3,19.9,5.1c5.7-2.3-4.5-10.7-4.5-10.7s5.7,6.1,9.3,5.9c3.6-0.3,21.2-1.6,22.5-5.1
		c0,0,0.9,4,5.3-0.4c0,0-0.7,6,1.3,6.8s8.5-7.7,8.5-7.7s4.9,5.2,6.3,0.9c0,0,3.3,13.5,6.4,13.1s2.1-12.4,2.1-12.4l2.7,0.1
		c0,0-0.8,12.7,1.3,14.1c2.1,1.5,6-9.1,5.9-12.4l4-1.3c0,0,2.1,12.5,6.1,13.3c4,0.8,3.1-15.6,3.1-15.6s4.4,2.4,6.3,1.6
		c0,0,13.5,10.8,15.3,8.5c1.9-2.3-0.7-9.1-0.7-9.1s-0.1-6.9-2.7-10.8s-27.2-20.1-27.2-20.1s3.6-25.2-7.5-41.3c0,0,18.9,2.1,25.5-4.1
		c0,0,24.8,13.9,44.8,2c0,0,7.6-6.4,11.1-5.9c3.5,0.5,9.7,6,17.5,4c0,0,0.3,5.6,11.5,7.2c0,0,11.1,3.2,13.7,2.7
		c2.7-0.5,0.7-3.5,2.9-5.1c2.3-1.6,3.1,1.2,4.9-4.5s-13.3-21.5-13.3-21.5s-8-2.5-12.4-3.9c-4.4-1.3-7.1-2.4-6.1-9.5
		c0.9-7.1-11.3-37.3-16.1-42.5c-4.8-5.2-8-6.8-8.8-12.4c-0.8-5.6-38.9-40.5-46.1-45.1c-7.2-4.5-28.5-28.5-44.3-25.1
		c0,0,2.1-16.8-1.9-30.1s-23.6-26.2-23.6-26.2s8.6-14.4,3.8-29.8c-4.8-15.4-23-12.8-28.8-5.8c-5.8,7-11.8,10.4-9.8,15.6
		c0,0-16.4-9.4-25-9.8S1665.5,2842.7,1665.5,2842.7z"/>
	<path class="st0" id="los_nevados" d="M1938.1,3183.8c0,0,33.1-20.8,51.7-52.8c18.7-32,36.8-64,45.3-71.5c8.5-7.5,17.6-13.3,27.7-13.9
		c10.1-0.5,44.8-12.8,59.2-20.8c14.4-8,34.1-12.8,34.1-12.8s11.2-15.5,38.4-28.8c0,0,11.2-4.8,16.5-11.2c5.3-6.4,24-16.5,31.5-18.7
		c7.5-2.1,34.7-19.7,56-30.4c21.3-10.7,29.3-12.3,43.7-14.9c14.4-2.7,38.4,0.3,50.7,0c12.3-0.3,41.9-4.1,51.5-1.1
		c9.6,3,41.1,16.9,41.9,19.3c0.8,2.4,32.8,14.4,36.8,18.4s40,24.5,45.6,25.1c5.6,0.5,14.9,1.9,17.1,2.4c2.1,0.5,20.3,16,34.4,18.1
		s30.1,1.9,40.8,18.9c0,0,24.5,10.7,30.4,18.4c0,0,28,6.9,44,20.8s65.1,86.5,66.7,104.1c1.6,17.6-97.2,24-110.8,26.4
		c-13.6,2.4-54.4-1.3-69.2,4.9c-14.8,6.3-19.2,7.1-50,5.5c-30.8-1.6-10,0.4-42.8,3.6c-32.8,3.2-39.2-6.8-64.4,2.4
		c-25.2,9.2-12.8,21.6-30.8,9.6s-33.2-0.1-56,5c-22.8,5-36,0.2-52.8,0c-16.8-0.2-28.8-12.6-53.2-7c-24.4,5.6-32.4,12.8-54.8,12.8
		c-22.4,0-46-6.8-62.8,0s-23.6,0-41.2,0c-17.6,0-42-5.2-64.4-5.2c-22.4,0-39.6-3.2-54.8-6.8
		C1978.9,3200.1,1938.1,3183.8,1938.1,3183.8z"/>
	<path class="st0" d="M2864,3218.7c0,0,98.1,8.3,150.4,4.6s201.1,3.7,242.1,3.7s205.3,9.6,249.6,3.7c44.3-5.9,110.4,0,150.9-7.5
		c40.5-7.5,100.8-25.1,103.5-31.5c2.7-6.4-0.5-15.5-14.4-17.1c-13.9-1.6-1.3-6.4-53.9-25.6c0,0-20.3-4.5-32.8-15.2
		c-12.5-10.7-39.5-37.6-39.5-37.6s-2.1-20.8-28.8-28c0,0-20.5-14.7-34.4-17.9c0,0-8.8-12.3-19.7-13.9c0,0-11.2-9.9-28.3-10.9
		s-35.5,0-35.5,0s-15.2-5.9-23.2-1.9s-17.5,5.6-17.5,5.6c-1.8,0.7-4.6-1.4-4.8-3.4c-0.1-0.8,0.1-1.5,0.1-2.3c-0.1-0.9-0.5-1.7-1-2.4
		c-0.3-0.6-0.7-1.3-1.3-1.7c-0.6-0.4-1.5-0.5-2,0.1c-0.3,0.3-0.4,0.7-0.6,1c-0.7,1-2.5,1-3,2.1c-0.2,0.5-0.2,1-0.5,1.4
		c-0.8,1-2.5-0.1-3.5,0.7c0.5,0.5,0.1,1.4-0.5,1.7c-0.6,0.3-1.3,0.3-1.9,0.6c-0.6,0.3-1.2,0.9-0.9,1.6c0.2,0.4,0.6,0.6,0.9,0.9
		c0.4,0.4,0.6,1,0.7,1.6c0.3,1.4,0.6,2.8,0,4.1c-1,2-3.6,2.4-5.6,3.4c-2.7,1.4-4.7,4.3-7.6,5.1c0.1-1.9,0.1-3.8-0.2-5.7
		c-0.1-1-0.8-2.2-1.7-1.9c-0.6,0.2-0.9,0.9-1,1.6c-0.2,0.9-0.4,1.8-0.5,2.7c-0.2,1.2-0.5,2.4-1.1,3.5c-1.3,2.1-4,2.9-6.4,3.5
		c-0.5,0.1-1.1,0.3-1.6,0.1c-0.8-0.3-1.1-1.4-1.2-2.3c-0.4-2.9-0.9-6-3-8c0.4-0.8,1.4-1,2.2-1.5c2.1-1.2,3.1-4,2.2-6.2
		c-1.2,0.3-2.6-0.3-3.1-1.4c-0.2-0.4-0.3-0.8-0.6-1.1c-0.5-0.4-1.4-0.2-1.8,0.3c-0.5,0.5-0.7,1.1-1.1,1.7c-0.9,1.3-2.7,2.2-2.8,3.8
		c-0.5,0.4-1.3,0.1-1.8-0.4c-0.4-0.5-0.7-1.1-1-1.7c-1.1-1.6-3.5-2.1-5.4-1.3s-3.2,2.5-3.9,4.3c-0.1,0.2-0.2,0.5-0.1,0.7
		c0.1,0.3,0.3,0.4,0.6,0.6c2.1,1.3,4.9,2.2,5.6,4.6c0.4,1.2,0.2,2.5,0.9,3.5c0.5,0.6,1.2,0.9,1.7,1.5c1.2,1.2,1.2,3.2,1.1,4.9
		c0,0.4,0,0.7-0.2,1c-0.5,0.8-1.7,0.7-2.4,0c-0.6-0.7-0.8-1.6-0.9-2.5s-0.3-1.9-0.9-2.6c-0.3-0.3-0.9-0.6-1.2-0.2
		c-0.1,0.1-0.1,0.3-0.1,0.4c-0.5,3.3-1.7,6.5-3.6,9.3c-0.4,0.6-1.3,1.4-1.9,1.8c-2.5,1.4-5.4-0.8-8.2-0.8c0,1.1,0,2.3,0,3.4
		c0,0.4,0,0.7-0.2,1c-0.3,0.4-0.8,0.6-1.3,0.7c-5.6,1.2-11.3,1.5-17,0.8c-4.8-0.5-9.6-1.7-14.5-1.5c-2.6,0.1-5.9,0.4-7.3-1.9
		c0.1-1.2-1-2.2-2.2-2.2c-1.2,0-2.3,0.6-3.2,1.4c-0.9,0.7-1.7,1.6-2.8,2.2c-0.8,0.4-1.7,0.7-2.6,1.1c-1,0.5-1.8,1.4-2.8,2
		c-2.9,1.9-6.9,1.4-10,2.8c-1.7,0.8-3,2.1-4.7,2.9c-1.7,0.8-3.9,1-5.1-0.4c0-1,2-0.8,2.2-1.7c0.1-0.2,0-0.4,0-0.6
		c-0.3-1.6-1.1-3.2-2.5-4s-3.5-0.6-4.4,0.7c-0.4,0.6-0.5,1.3-0.9,1.9c-0.3,0.6-1,1.2-1.7,1c-0.4-0.1-0.7-0.4-1-0.6
		c-2-1.5-4.9-1.6-7-0.2c0,0-21.2-2.6-31-1.9c-9.9,0.7-19.1,9.7-21.2,11.3c-2.1,1.6-4.7,7.1-14.5,7.5c0.2-0.8,0.1-1.6-0.1-2.4
		c-0.2-0.8-0.7-1.6-1.5-1.8c-0.7-0.2-1.4,0.1-2-0.3c-0.4-0.3-0.6-0.8-1-1.1c-0.5-0.4-1.3-0.3-1.9,0s-0.9,1-1.2,1.6
		c-0.1,0.2-0.2,0.5-0.4,0.7c-0.7,0.8-2.2,0.2-3,0.9c-0.3,0.3-0.4,0.8-0.7,1.1c-0.5,0.7-1.7,1-1.9,1.9c-0.1,0.4,0.1,0.9,0.4,1.2
		c0.4,0.6,1,1,1.7,1.2c0,0.8-0.3,1.4-0.3,2.1c0,0.2,0,0.4-0.1,0.6c-0.3,0.7-1.3,0.5-2,0.4c-1.6-0.2-3.2,0.6-4.7,1.5s-2.7,1.9-4.3,2.5
		c-0.3,0.1-0.6,0.2-0.8,0.1c-1-0.2-1-1.9-1.9-2.2c-0.7-0.2-1.4,0.5-1.6,1.2s-0.3,1.5-0.7,2.1c-0.4,0.6-1.1,0.9-1.8,1.2
		c-2,0.9-4,1.7-6,2.6c-0.2,0.1-0.3,0.1-0.5,0c-0.1-0.1-0.2-0.3-0.2-0.4c0-0.4,0-0.7-0.1-1.1c0-0.8-0.1-1.6-0.5-2.3
		c-0.4-0.7-1.3-1.2-2-0.9c-0.7,0.3-1.1,1.1-1.1,1.9c0,0.8,0.1,1.6-0.1,2.3s-1,1.4-1.7,1.2c-0.1-0.9-0.1-1.7-0.1-2.6
		c-0.5-0.1-1-0.3-1.1-0.7c-0.2-0.6,0.4-1.3,1-1.5c0.6-0.3,1.3-0.5,1.7-1c0.2-0.3,0.2-0.7,0.4-1.1c0.6-1.6,2.9-1.7,4-2.9
		c1-1.1,0.9-2.6,0.8-4.1c-1.4-0.2-2.5-1.4-3.9-1.5c-1.6-0.1-3,1.5-2.7,3.1c0.1,0.6,0.4,1.2,0,1.6c-0.6,0.7-2.1-0.1-2.5,0.7
		c-0.1,0.3,0,0.7-0.3,0.9c-0.3,0.2-0.7-0.1-0.9-0.4c-0.5-0.7-0.8-1.6-0.9-2.4c-0.1-0.6-0.1-1.2-0.3-1.8c-0.2-0.6-0.7-1.1-1.3-1.1
		c-0.7,0-1.2,0.7-1.8,1c-0.7,0.3-1.7,0.1-2.1,0.8c-0.3,0.5-0.2,1.1,0.1,1.7c0.4,0.9,1.1,1.7,1.9,2.3c0.8,0.6,1.9,1.1,2.1,2.1
		c0.1,0.4-0.1,0.9,0.1,1.3c0.2,0.4,0.6,0.6,0.9,0.9c0.6,0.7,0.4,1.7,0.8,2.6c0.2,0.5,0.6,1,1,1.5c0.8,1.2,1,2.7,0.5,4.1
		c-0.1,0.2-0.1,0.3-0.3,0.5c-0.5,0.4-1.2-0.2-1.5-0.8c-0.7-1.2-1.4-2.5-2.1-3.7c-0.2-0.4-0.5-0.8-0.9-0.7c-0.3,0-0.6,0.3-0.6,0.7
		s0,0.7,0,1c0.1,2.4-2.3,4.5-1.9,7c0.1,0.8-1,1.1-1.7,1.1c-6.6-0.2-12.3-4.9-18.8-6c-1.8-0.3-3.6-0.3-5.4-0.3
		c-5.4-0.1-10.8-0.1-16.2,0.8c-3.6,0.6-7,1.7-10.4,3c-0.5,1-1.9,1.6-2.9,2c-3.1,1.2-6.2,2.4-9.2,3.6c-1.9,0.8-3.9,1.5-5.6,2.6
		c-0.5,0.3-1,0.6-1.5,0.8c-0.6,0.1-1.2,0-1.5-0.5c-0.2-0.3-0.2-0.6-0.4-0.9c-0.5-0.5-1.4-0.1-1.9-0.6c-0.4-0.4-0.3-1-0.2-1.6
		c0.1-0.8-0.2-1.7-0.8-2.3c-0.6-0.6-1.6-0.8-2.3-0.5c-0.9,0.4-1.3,1.3-2.1,1.8c-1.1,0.7-2.8,0.6-3.3,1.8c-0.4,1,0.4,2,1.4,2.5
		s2,0.5,3,0.9c0.9,0.5,1.7,1.6,1.2,2.5c-0.4,0.7-1.2,0.9-2,1.1c-1.7,0.4-3.7,0.6-5.1-0.5c-0.3-0.2-0.5-0.5-0.8-0.7
		c-0.4-0.3-1-0.3-1.5-0.3c-1.5-0.1-2.9-0.2-4.4-0.2c-1-0.1-2-0.1-3,0c-1.9,0.2-3.6,0.9-5.1,2.1c-0.6,0.5-1.1,1-1.7,1.4
		c-0.6,0.4-1.5,0.5-2.1,0.2s-1-1.3-0.5-1.9c1.6-0.5,3-1.8,3.5-3.4c0.2-0.8,0.2-1.8-0.5-2.2c-0.9-0.5-2.6-0.2-3.5,0.1
		c-0.4,0.1-0.7,0.3-1,0.6c-0.4,0.6-0.2,1.3-0.3,2c-0.2,1-1.3,1.8-2.3,1.6c-0.4-0.1-0.8-0.3-1.2-0.5c-1-0.6-2-1.2-3.1-1.8
		c-0.2-0.1-0.4-0.2-0.5-0.4c-0.2-0.2-0.2-0.5-0.3-0.8c-0.2-0.5-0.8-0.8-1.3-1c-0.3-0.1-0.5-0.2-0.8-0.2c-0.4,0-0.7,0.2-1,0.4
		c-1.5,0.9-3.3,1.2-5,0.8c0,0-6.3-3.5-25.1-2.3c0,0-9.7,2.1-19.7,8s-18.8,4.8-22.3,5.7c-3.5,0.9-19.9,11.5-26,17.3
		s-12.4,8.8-17.5,12.5c-5.1,3.7-11.5,7.3-16.3,14.4s-20.5,21.5-21.5,23.1C2879,3192.1,2859.7,3211.1,2864,3218.7z"/>
	<path class="st0" d="M4220.6,2940.9c-3.7-6-3.1-13.6,1.4-19c13.4-16.1,47.3-54.8,85.7-81.6c49.6-34.7,79.5-50.7,131.7-61.3
		c52.3-10.7,121.4-3.7,138.1-3.7c4.8,0,16.5,7.5,42.1,5.3c25.6-2.1,44.8,12.3,58.1,8.5c13.3-3.7,42.7-11.9,50.1-16.1
		c7.5-4.2,10.7-10.1,21.9-11.7c11.2-1.6,14.1-1.9,16.5-4.5c2.4-2.7,15.5-5.3,17.6-7.5s15.5,1.3,15.5,1.3s-1.6-2.7-6.4-4
		c-4.8-1.3-32-10.9-50.4-21.3s-30.4-19.5-35.2-34.1c0,0-26.4-16.5-26.4-37.1c0,0-0.3-3.2,4.3-8.3c4.5-5.1,5.9-2.9,7.5-8.8
		s4.5-7.2,20.3-11.2s16.5-7.7,25.1-9.9c8.5-2.1,40.3-3.5,50.9-2.4c0,0,31.7-13.3,94.1-5.1c62.4,8.3,97.9,30.4,109.1,36.3
		c11.2,5.9,42.7,15.2,50.4,24.5s25.1,28.8,25.3,55.7s-19.7,39.5-28.8,44c-9.1,4.5-44.5,12.3-44.5,12.3l11.2,6.1
		c0,0,28.5-0.5,49.6-1.6c21.1-1.1,33.3,8.8,44.8,15.7s30.7,16.3,30.7,16.3s18.4-10.1,46.9-12.8c28.5-2.7,46.1,15.5,46.1,15.5
		s-10.7,8.5-24.3,4.8c0,0-10.1,5.3-15.2,3.7c0,0,11.5,12.3,3.2,16.3c-8.3,4-43.2,0.8-43.2,0.8s14.9,7.7,14.7,12.3
		c0,0-16.8,8.5-42.4,10.7s-82.1-5.9-82.1-5.9s11.2,7.2-4.8,9.3s-34.7-7.2-36.8-7.2s-11.7,7.7-28,6.7s-34.1,3.2-53.6,1.9
		c-19.5-1.3-49.9-2.4-57.3-1.9c-7.5,0.5-24.5-0.8-24.5-0.8s20,14.9,21.3,15.5c1.3,0.5,30.7,6.1,31.2,16c0,0,56.8-12,86.9,7.5
		c0,0,18.7,10.1,14.9,24c0,0-11.7,4-27.5,3.7c-15.7-0.3-19.5,6.9-38.1,5.3c-18.7-1.6-38.4-0.3-52.5-2.9s-44.3-3.5-52.5-0.8
		c-8.3,2.7-28.5,8-41.6,11.5c-13.1,3.5-35.7,5.9-53.9,2.9c-18.1-2.9-39.2,2.1-44.5,2.9c-5.3,0.8-43.2,4-50.9,0s-21.6-26.9-12-45.1
		s77.6-28.8,77.6-28.8s-26.7,0-34.1,0c-7.5,0-27.7,2.9-41.6,6.4c-13.9,3.5-33.1,7.2-55.7,4.5c-22.7-2.7-74.4,7.7-93.9,10.4
		s-66.1,9.9-76.5,9.9s-40.5,6.4-56,8.5s-28,4.3-43.7,9.1c-15.7,4.8-10.7,0.5-26.9,6.4c-16.3,5.9-33.9,10.7-38.7,2.9
		C4220.7,2941.1,4220.7,2941,4220.6,2940.9z"/>
	<g>
		<path class="st0" d="M1140.1,3418.9c0,0-32-4-54.8-19.2c-22.8-15.2-35.2-20-44-23.2c-8.8-3.2-49.2-12-46.8-48
			c0,0-0.8-18.8,27.6-18.8c28.4,0,46.4,4.4,56,3.2c9.6-1.2,40-2.4,56,1.6c0,0,5.6-8.3,2.9-17.9c-2.7-9.6-5.4-14.5-0.9-19.6
			s2-14,1.4-18.9c-0.6-4.9,5.3-22.6,14.2-21.5c8.9,1.1,8.4,23.7,10.9,31.7s-1.6,13.6,7.7,30.5c9.3,16.9,8.8,31.4,8.8,31.4
			s31.3,15.2,35,19.8c0,0,23.6-11.9,31.4-16.5s9.3,2.4,13.8,0.8c4.5-1.6,10.1-6.7,13.9-6.6c3.8,0.2,7.7,4.7,13.5,2.5
			c5.8-2.2,6.3-6.9,13-7.5c6.7-0.6,8.6,3.4,16.2,3.1s7.6-5.9,15.7-4.8s23,6.4,19.6,12.8c-3.4,6.4-11.2,13.3-28,15.4
			c-16.8,2.1-10.8,1.2-22.5,8.1c-11.7,6.9-22,12.1-29.6,15.5c-7.6,3.4-20.3,2.9-20,3.1c0.3,0.2,14,12.7,21,15.1s25.1,13.5,30.7,19.1
			c5.6,5.6,20.9,20.3,29.2,43.8s6.1,51,7.9,58.4c1.8,7.4,7.6,20,14.4,24c6.8,4,33.2,14.8,37.6,20.2s14.4,23.2,8.6,33.4
			c0,0-0.8,0-13.2-6.6c-12.4-6.6-20.2,2.2-28.4-2.4c-8.2-4.6-14-15.6-14-15.6s-1.4,22.2-15.4,30.2s-30.2,4.4-35.4,17.8
			c0,0-6.2-27-3-39.4c3.2-12.4,18.6-30.6,21.4-36.4s-3.6-28-6.2-33.4c-2.6-5.4-5-19.6-28.2-38.4c-23.2-18.8-35.8-25.2-55.2-30
			s-40.2-7-50.4-9.4C1162.3,3423.9,1140.1,3418.9,1140.1,3418.9z"/>
		<path class="st0" d="M1041.7,3662.5c0,0-3.6-22.2-6.8-27.8c-3.2-5.6-6-28.6,1-47.2s12-31.4,21.6-36.4s14-0.8,26.6-5.4
			c12.6-4.6,35.2-16.8,42.8-39.6c0,0-4.2,6.6-21-2.2c-16.8-8.8-22-9.6-33-6.4s-15.2,7.6-15.2,7.6s5.4-9.8-0.6-20.4
			c-6-10.6-18.4-13.8-20.4-36c0,0-17,10.2-18.6,21.6c-1.6,11.4-2.6,21.8,8.8,39.6c11.4,17.8-14,47.6-14,47.6s-26.4,28.2-32.4,53.6
			c-6,25.4-5.8,46,2.4,53.6C991.1,3672.3,1041.7,3662.5,1041.7,3662.5z"/>
	</g>
	<path class="st0" d="M1777.3,3726.5c3.8,5.1,8.6,10.6,15,10.6c2.8,0,5.5-1.1,8.2-1.3c4.5-0.2,8.7,2.2,11.8,5.5c3,3.3,5.1,7.4,7,11.4
		c0.8,1.7,1.7,3.5,1.9,5.4c7.4,2.7,14.8,5.3,22.2,8c2.8,1,5.6,2,8.1,3.7c7.5,5,10.4,15.8,6.4,23.9c0,0-2.4,5.6-33.4,4
		c-30.9-1.6-33.6-0.5-76.8,0.3c-43.2,0.8-78.9-6.7-100.3-4.6s-29.9,6.6-47.5,4.6c-17.6-1.9-38.9-19.5-60.8-16.9
		c-21.9,2.7-60.8,3.7-67.2-4.3c0,0,32.7-27.3,37.3-32.4c4.7-5.1,13.1-20.4,30.9-20.5c0,0,14.8-1.3,13.2-20.7c0,0-0.7-9.1,12.7-11.7
		c13.3-2.7,14.4-3.2,16.3-10.1c1.9-6.9,22.4-41.3,38.9-44.8c16.5-3.5,28.5-6.4,60.5,11.2c32,17.6,45.3,31.5,54.1,35.7
		S1777.3,3726.5,1777.3,3726.5z"/>
	<path id="nevado_huila" class="st0" d="M1728.8,3886.1c9.6-9.7,19.2-19.4,28.8-29.2c3.8-3.8,7.5-7.6,11.4-11.4c5.7-5.7,11.6-11.2,17.5-16.7
		c7.2,0.7,13.3-4.9,18.7-9.8c18.8-17.1,40.8-30.2,62.6-43.2c12.1-7.2,24.2-14.4,36.3-21.5c1.9-1.2,4.1-2.4,6.3-2.2
		c3.5,0.3,5.8,3.8,9,5.3c10,4.7,19.5-11,30.4-9.3c2.8,0.4,5.4,2.1,8.3,2.4c4.1,0.4,7.9-1.8,11.3-4.1c16.5-11.2,31-25.4,42.6-41.8
		c1.6-2.3,3.3-4.7,5.6-6.3c3.2-2.2,7.4-2.5,11.3-2.8c8.5-0.6,17-1.1,25.5-1.7c2.9-0.2,5.9-0.3,8.4,0.9c3.3,1.6,5,5.2,6.8,8.3
		c11.4,19.3,33.3,29.1,53.9,37.9c20.8,8.8,41.5,17.6,62.3,26.3c2.9,6.1,9.9,9.3,16.4,11.5c6.4,2.2,13.3,3.8,18.6,8
		c3.2,2.5,5.7,5.8,8.4,8.8c6.8,7.5,15.2,13.3,23.1,19.4c4,3.1,7.9,6.3,11.5,9.8c3.3,3.2,5.2,7.3,9.2,9.7c12.3,7.3,23.8,16,34.2,25.9
		c8.3,7.8,15.9,16.4,24.3,24.2c6.7,6.2,13.8,11.8,20.7,17.6c11.5,9.6,22.8,20,30.1,33.1c0,0-11.4,19.6-30.2,18
		c-18.8-1.6-44.4,4.4-56.4,9.6c-12,5.2-40.8,16-62.8,11.6s-36.4-5.6-56.4-4.4c-20,1.2-20,8-66.8,10.4s-70.4-2.4-92.4-11.2
		s-55.2,1.2-81.6,1.2c-26.4,0-34.4-3.6-60.4-3.2c-26,0.4-54-3.6-70-7.2c-16-3.6-50.4-12.8-60.8-15.6s-62-10.4-62-10.4L1728.8,3886.1z
		"/>
	<path class="st0" d="M1731.7,3566.5c0,0,4.5-24.8,31.2-24.8c5.6,0-3.2-25.6,66.4-44c0,0,32-48,50.4-60.8
		c18.4-12.8,71.2-50.4,79.2-56.8c0,0,2.4-22.4,17.6-28c15.2-5.6,27.2-12.8,37.6-33.6c0,0,2.9-0.5,15.7-7.5
		c12.8-6.9,59.5-41.1,68.5-41.3s13.9-1.9,20.8-4s56.8,2.1,86.4,10.1s38.7-1.3,53.3,1.3c14.7,2.7,19.7,5.9,19.7,5.9
		s11.5-9.3,66.4-16.3c0,0,17.1,0,32-6.9c14.9-6.9,34.4-12.8,41.1-11.2c6.7,1.6,40.5,10.4,52.3,12.8s47.5,0.3,62.4,5.6
		c14.9,5.3,24.5,8,43.2,9.6c18.7,1.6,59.2,2.7,84.3,11.2c0,0,13.9,3.7,29.3,1.6c15.5-2.1,22.4,3.2,22.4,3.2s6.9-10.1,23.5-10.1
		c16.5,0,31.2,0.3,44.5-9.9c0,0,14.1-2.9,24.3,0.5c10.1,3.5,13.6,6.9,13.6,6.9s13.9-6.7,18.4-6.7c4.5,0,6.7,2.4,24.5,1.6
		c17.9-0.8,20.8,2.4,25.9-1.6s26.7,1.9,33.3-1.6c6.7-3.5,12-7.7,20.3-4.3c8.3,3.5,34.4,12.3,52.8,12c18.4-0.3,22.7-1.3,30.4,0.3
		c7.7,1.6,13.1,10.7,13.1,10.7s18.7-3.7,37.3-4.3c18.7-0.5,36.3,0.3,50.7-6.1c14.4-6.4,16.8-6.7,24.3-6.4
		c7.5,0.3,37.6,11.7,42.7,15.2c5.1,3.5,15.2,3.2,24.5,3.2c9.3,0,7.5-2.1,14.9,1.9c7.5,4,6.1,2.7,11.2,2.7s12.8-2.1,20.5-1.3
		s16.3,5.6,21.9,12c5.6,6.4,21.6,12.8,24,13.9s-1.9,4.8,1.3,6.7c3.2,1.9,16.3,14.9,29.1,25.9c12.8,10.9,27.5,19.7,28,29.3
		c0.5,9.6,4.8,8.8,9.9,11.5s17.6,6.9,18.4,28.5c0,0,12.3,2.1,20.8,13.9c8.5,11.7,6.4,14.9,10.1,14.9c3.7,0,6.7,5.3,18.4,8.3
		s8.3,7.5,14.9,16.3s32,23.2,37.1,27.5c5.1,4.3-1.3,7.5-6.1,8.5s-13.9-1.9-21.1-0.3c-7.2,1.6-8.5,2.9-14.9,1.1
		c-6.4-1.9-9.6-1.6-9.6-1.6l9.6,12h-8c0,0,7.7,6.1,6.1,6.1s-21.1-1.6-41.9-3.5s-47.5,0.8-55.2,4.8s-55.7-3.7-96.5,5.9
		c-40.8,9.6-42.4,6.4-71.2,2.4s-45.6-5.6-76.8-11.2c-31.2-5.6-119.2-11.2-164.8-11.2c-45.6,0-86.4-10.4-97.6-15.2
		c0,0-56.5,0-84.8-11.7c0,0-27.7-3.7-28.3-11.2l9.1-5.9c0,0-25.1,4.8-41.6-1.1c-16.5-5.9-46.9,0-62.4-2.1s-41.1,3.2-56,11.2
		s-36.3,5.3-56,5.3s-76.3-6.4-76.3-6.4s-24.5,22.9-4.8,21.9c0,0,18.7-0.5,22.4,10.7c3.7,11.2,2.1,17.6-9.6,19.2
		c-11.7,1.6-41.6-0.5-57.1,5.3c-15.5,5.9-38.9,5.3-59.7,6.4s-36.3,1.6-60.8-5.3c-24.5-6.9-64-3.7-76.8-3.7c-12.8,0-35.2,6.4-72,18.1
		c-36.8,11.7-56,18.1-104,14.1c-48-4-84.8,2.4-121.1,3.5c-36.3,1.1-49.1-5.3-77.3-3.2c-28.3,2.1-74.7,6.9-86.4,6.9
		C1733.3,3573.7,1731.7,3566.5,1731.7,3566.5z"/>
	<path id="nukak" class="st0" d="M4006.4,4083c0,0-18.1-38.9-5.3-76.8c12.8-37.9,49.1-34.1,59.2-31.5c10.1,2.7,16.3,14.1,22.1,16.5
		c5.8,2.4-2,5.2-2,5.2s13.2,2.6,10,21l-0.8,9c0,0-6.2-6.2-13.8-7.6c0,0-4,9,8.6,19.6c12.6,10.6,22.6,24.4,35.2,31.2
		s22.4,15.8,36,18.8s22.2,12.4,41.8,18.6c19.6,6.2,48.8,33.4,53.2,37.4s24.6,23.6,26.2,28.2c0,0-23-9.2-30.2-4.6
		c0,0,30.4,38.2,40.4,51.8s12,21,19.4,27.8c7.4,6.8,22.6,39.6,31.6,52.2s8.6,19.2,8.6,19.2l9,16.6l-12.2-9c0,0-2.8,8.2-6.8,0.4
		c-4-7.8-30.8-34.4-30.8-34.4s14.8,42.8,12.6,48.2c-2.2,5.4-26.2-20-26.2-20s6,19,13.6,25.4c7.6,6.4,19.4,28.6,17.8,33
		c-1.6,4.4-6.4,6-12.2,2.2c-5.8-3.8-34.2-23.2-36.4-23.2c-2.2,0-27-1.2-31.4-15.4c0,0-33.4,0-41.8-9.6c-8.4-9.6-23-22-23-22
		s-16.2,0.8-22.2,2c-6,1.2-1.8,4.4-4.8,4.2s-19.4-2.8-20.4-9.2c0,0,0.4,9.4-3.2,11.8s-8.8,1.2-8.8,1.2l-0.6,4.6c0,0,1.2,2,5.4,2.2
		c4.2,0.2,9.2-0.4,15.6-1.8c6.4-1.4,12.4-7,21.2,0.2c8.8,7.2,14.4,14.8,11.6,27c1.3,0.5,2.5,1.1,3.9,0.9c1.4-0.2,2.7-1.3,2.6-2.6
		c-0.1-1.9-2.6-3.1-2.2-4.9c1.6,1.6,3.2,3.2,4.8,4.8c1.5-5.4-0.7-11.1-0.4-16.6c0-0.4,0.1-0.8,0.4-1c0.7-0.5,1.4,0.5,1.6,1.3
		c1.4,5.2,2.7,10.4,4.1,15.6c0.8-1.3,1.5-2.7,1.9-4.2c0.4-1.3,0.6-2.8,1.4-3.9c0.8-1.2,2.3-2,3.6-1.4c1.8,0.8,1.6,3.5,0.5,5.1
		s-2.8,2.8-3.5,4.7c-0.5,1.3-0.3,2.8,0.4,4c0.2,0.4,0.5,0.7,1,0.8c1,0.2,1.6-1.2,1.8-2.2c0.3-1,1.4-2.2,2.2-1.4
		c0.1,0.2,0.2,0.4,0.3,0.6c0.7,2,1.4,4,2.2,6c1.4,0.1,2.3-1.4,2.9-2.6c2.1-4.2,4.8-8,8.1-11.2c0.9-0.9,2.1-1.8,3.3-1.5
		c1.1,0.3,1.7,1.4,1.8,2.5c0,1.1-0.4,2.2-0.8,3.2c-0.8,1.8-1.6,3.6-3,5c-0.7,0.6-1.4,1.2-2.1,1.8c-0.7,0.8-1.2,1.7-1.8,2.6
		c-1.4,2.5-2.7,4.9-4.1,7.4c1.3-0.3,2.6-0.8,3.7-1.6c0.4,0.9-0.2,2-0.6,3s-0.6,2.3,0.2,2.8c0.4,0.3,1,0.3,1.3,0.6
		c0.4,0.4,0.4,1,0.4,1.5c0,2.6-0.1,5.2-0.1,7.7c0,0.6,0,1.1,0,1.7c0,1.1,0,2.1-0.2,3.2c-0.3,2.6-1.3,5.1-1.7,7.7
		c0.9-0.3,1.3-1.4,1.6-2.3s1.1-1.9,2.1-1.7c0.7,0.1,1.2,0.8,1.8,0.8c0.8-0.1,1.2-1.3,2-1.4c0.4-0.1,0.7,0.1,1.1,0.1
		c1.5,0.2,2.8-1,3.3-2.4c0.5-1.4,0.6-2.9,0.9-4.3s1.3-2.9,2.8-3.1c1.3,3,0.3,6.6-1.6,9.3c-0.4,0.6-0.9,1.3-1.1,2
		c-0.2,0.7,0,1.6,0.6,2.1c0.4,0.3,1,0.3,1.4,0.6c1.3,0.8,0.7,2.7,0,4c1.2,0.1,2.4,0.5,3.5,1.1c-0.3,1.8-2.7,2.7-2.6,4.5
		c0,0.7,0.4,1.3,0.4,1.9c0,0.7-0.5,1.4-1.1,1.2c0,0-8.4,11-17.8,16.4c-9.4,5.4-14.4,0.4-21.8,3.6c-7.4,3.2-13.2,1.8-21.4,10.6
		s-17.6,8.8-21.6,3.6c-4-5.2-9.4-4.2-14-2.8c-4.6,1.4-14.4,6.7-28.8,6.3c0,0-12,5.1-19.6,2.5s-10.8,0-16.8-0.6s0.4-1.1-16,1.3
		c-16.4,2.5-20.6,1.9-30.4,1.1c-9.8-0.8-17.8,0.8-24-4.8s-11.6-6.4-11.6-6.4s-4.2-4.6-11.6-1.2c-7.4,3.4-7-2.6-12.6-5.8
		c-5.6-3.2-8.6-1.8-11-1.6c-2.4,0.2-27,7.8-35.2,4.4s-18,2.2-17.8-3.2c0.2-5.4,0-8.6,0-8.6c-2-2.1-4.9-4.7-6.5-7.2
		c2.3,0.9,4.6,1.7,7,2.6c-0.5,0.5-1.1-0.3-1.4-0.9c-1.2-3.3-2.5-6.7-3.7-10c-0.6-1.6-1.2-3.3-1-5.1c1.3,0.1,2.2-1.4,2.3-2.7
		c0.1-1.3-0.3-2.7,0-3.9c0.8,1.1,1.5,2.2,2.3,3.3c0.1,0.2,0.3,0.4,0.5,0.5c0.6,0.3,1.2-0.5,1.4-1.2c1.6-4.7,1.9-9.9,0.6-14.7
		c-0.7-2.7-1.8-5.8-0.1-8c1.1,0.8,1.3,2.5,1.4,3.9s0.7,3.1,2,3.4c0.4-2.5,0.6-5,1.6-7.4c1-2.3,3-4.4,5.5-4.7c0.2,3.5-0.8,7-2.8,9.8
		c-0.3,0.4-0.2,0.7-0.2,1.1c-0.3,2.4-0.6,4.9-1.2,7.3c0,0,13.6-12.4,32.2-12s27,14,27,14c6.6-11.5,9.8-24.7,8.3-37.9
		c-0.3-2.1-0.6-4.3-1.3-6.3c-1-3-2.5-5.8-4.6-8.2c-0.9-1.1-2-2.1-2.4-3.5c-0.3-0.8-0.3-1.7-0.4-2.5c-0.5-2.5-2.2-4.5-3.1-6.8
		c-0.7-1.9-0.8-3.9-0.8-5.8c0-4.1,0.1-8.2,0.6-12.3c0.5-4.4,1.5-9.1,4.9-11.9c1-0.8,2.7-1.3,3.3-0.2c0.2,0.3,0.2,0.6,0.3,0.9
		c0.7,5.2-2.7,10.2-3.1,15.5c-0.2,2.7,0.3,5.5,1.6,7.9c1.5,0.3,2.4-1.7,2.7-3.3c0.4-1.6,1.1-3.2,2-4.6c0.3-0.4,0.7-0.9,1.2-0.8
		c0.7,0.1,0.8,1,0.8,1.6c-0.1,4.5-0.4,9.1-1.7,13.5c-0.7,2.2-1.6,4.6-0.7,6.8c0.7,1.7,2.5,2.9,3,4.7c0.3,1.2,0,2.5-0.1,3.7
		c-0.1,1.3,0.1,2.7,1.2,3.4c1.3-1.7,2.1-3.8,2.3-5.9c0.5-0.6,1.2,0.5,1.3,1.3c0.3,6.5,0.6,13,1,19.6c0.1,1.8,0.2,3.7-0.1,5.5
		c-0.4,2.5-1.6,4.7-2.5,7c-1.1,2.9-1.8,5.9-2,8.9c-0.1,0.8,0,1.8,0.7,2.3c1.1,0.7,2.3-0.5,3-1.6c2-3.2,4.1-6.5,4.4-10.3
		c0.2-1.9-0.1-3.8,0.3-5.7c0.7-2.7,2.8-4.8,3.6-7.4c0.4-1.5,0.4-3.1,0.4-4.6c-0.1-4.3-0.1-8.5-0.2-12.8c0-1.3,0-2.9,1-3.8
		c0.6,0.4,1.1,0.9,1.4,1.6c-0.1-3,0.6-6,2-8.6c1.6,1.1,2.6,3.1,2.6,5.1c1.8,0.9,3.9-0.8,4.9-2.5c0.4-0.7,0.8-1.5,1-2.4
		c0.6-2.6-0.7-5.3-1.5-7.8c-1.7-5.3-1.6-11-3.3-16.4c-1.3-4.1-3.6-8.1-3.2-12.3c3.2,0.3,4.8,4,5.5,7.2c0.2,1.2,0.4,2.5,1.1,3.5
		s1.9,1.8,3.1,1.6c1-0.2,1.8-1.2,2.3-2.1c1.5-2.2,2.6-4.6,3.6-7.1c2.2,3.9,0.1,8.7-1.2,13c-1.1,3.5-1.6,7.2-1.6,10.8
		c0,3,0.4,6,1.2,8.8c0.6,2.1,1.5,4.1,2,6.3c1,4.4,0.3,9,0.6,13.5c-0.3-1.6,1.4-1.7,2.7-2.7c1.5-1.2,2.6-2.8,3.2-4.5
		c0.1-0.4,0.3-0.9,0.7-1.1c0.4-0.1,0.8,0.1,1.2,0.2c1.2,0.3,2.4-0.8,2.8-2c0.4-1.2,0.1-2.5-0.2-3.7c-1.4-5.7-3.4-11.3-5.9-16.6
		c-1.3-2.8-2.8-5.8-2.2-8.8c1.3-0.2,2.2,1.3,2.7,2.6c0.6,1.7,1.4,1.9,2.5,3c1.3,1.3,2.4,3.2,3.5,4.7c-0.3-6,0.1-12.3-0.1-18.3
		c-0.2-6-1-12.1-3.8-17.5c-1.2-2.4-2.8-4.6-5-6c-1.6-1-3.4-1.5-5.2-2c-4.7-1.4-9.5-2.7-14.2-4.1c-0.5-0.9,0.2-2.1,1.1-2.6
		s2-0.4,3-0.2c4.6,0.8,9,3.5,13.6,3.1c0.1-1.1-0.7-2.1-1.4-3c-2.9-3.7-5.8-7.5-8.7-11.2c-0.7-0.8-1.3-1.7-2.2-2.2
		c-1.3-0.8-3-0.8-4.5-0.8c-2.8,0-5.6,0-8.5,0.1c-2.9,0-5.8,0-8.4-1.3c-0.4-0.2-0.9-0.5-0.9-1c-0.1-0.8,0.9-1.3,1.7-1.4
		c6-1,12.5,1.4,18-1.3c-3.5-0.6-7.1-2.7-10-4.8c-10-7.1-21.3-12.4-33.2-15.7c0.1-1.1,1.4-1.5,2.4-1.7c2.8-0.6,5.5-1,8.3-1.3
		c1.4-0.2,2.8-0.3,4.1,0.1c1.6,0.4,2.9,1.5,4.2,2.5c7.2,5.8,15.3,10.6,23.8,14.1c-1.3-4.4-2.7-8.8-4-13.2c1.9-0.4,3.2,1.7,4.1,3.4
		c4.8,9.6,10.8,18.5,17.9,26.6c0.5-1.6,1-3.2,1.5-4.8c0.1-0.5,0.3-1,0.8-1.2c0.4-0.1,0.8,0.1,1.1,0.3c3.2,2.3,3.6,6.9,3.4,10.9
		c0,1-0.1,2.1,0.2,3c0.4,1.2,1.2,2.1,2,3c4.2,5.1,5.9,12.1,4.5,18.5c1.3-4.7,2.6-9.4,4.7-13.8c0.8,9.6-0.1,19.3-2.8,28.6
		c2.2,6.8,0.8,14.9-2.7,21.1c-0.5,0.9-1.1,1.8-1.1,2.9c0,1.1,0.6,2.2,1.7,2.7c1,0.5,2.3,0.3,3.2-0.4c0.2,1.3,0.4,2.6,1.2,3.6
		c0.8,1,2.3,1.6,3.4,0.9c0.6-0.4,0.9-1.1,1.2-1.8c0.4-1,0.9-1.9,1.3-2.9c0.6-1.3,1.7-2.8,3-2.2c0.6,0.3,0.9,1,1.1,1.6
		c1.3,4.4,0.7,9.2-0.1,13.7c-0.8,4.2-1.8,8.4-2.9,12.6c1,0.5,2.2-0.1,2.8-0.9c0.6-0.9,0.8-2,1.2-3c0.7-2.2,2.2-4.2,4-5.5
		c0,0,13.3-13.9,31.3-15.7c18-1.8,20.6-3.4,23.2-9c2.6-5.6,4.6-16,4.6-16s-14-8.6-34-23.4s-39.2-54-45-73.4s-26.8-35.8-26.6-42
		c0.2-6.2,3.4-6,3.4-8.4c0-2.4-6.4-32,6.2-35.4C4000.7,4121.3,3998.2,4088.4,4006.4,4083z"/>
	<path class="st0" d="M3013.8,4197.5c3.6-0.1,6.1-3.6,8-6.7c0.9-1.4,1.8-2.9,2.6-4.3c0.8-1.4,1.7-2.8,2-4.3c0.2-0.9,0.2-1.8,0.4-2.8
		c0.2-1.3,0.7-2.5,1.1-3.7c1.4-4.6,0.7-8.8-0.5-13.3c-0.2-0.8-0.6-1.8-1.5-1.9c-0.5,0-1,0.3-1.4,0.4c-0.7,0.2-1.5,0-2.2,0.4
		c-0.7,0.4-1,1.2-1.2,1.9c-0.5,1.6-0.7,3.2-1,4.8c-2.4,0-5.8-2.3-8.2-3.1c-2.7-0.9-5.5-1.5-8.3-2c-2.1-0.3-4.9-1.1-4.9-3.2
		c3.5,0.7,7.2,0.1,10.4-1.6c1.5-0.8,2.9-2.1,2.8-3.8c-0.2-2.2-2.8-3.2-4.9-3.7c-4.3-1-8.6-1.9-12.9-2.8c1.8-3.8,4.8-7,8.5-8.9
		c0.9-1.4-0.7-3.2-2.3-3.6s-3.5-0.3-4.8-1.2c-1.4-0.9-1.3-3.8,0.4-3.7c5.6,2.9,48,13,38.2-1.1c-2.3-3.3-3.3-5.8-5.6-9.1
		c10,0.1,19.9,0.2,29.9,0.4c3.9,0,7.8,0.1,11.7-0.5c4.4-0.7,8.6-2.1,12.8-3.6c11.9-4.1,23.7-8.2,35.6-12.3c1.8-0.6,3.7-1.3,5.6-1.2
		c2.3,0.1,4.3,1.1,6.4,2.2c6.2,3.1,12.3,6.3,18.5,9.4c2.3,1.2,5.1,2.3,7.3,1.1c2.3-1.3,2.8-4.3,3-6.9c0.1-1.5,0.6-3.1,0.7-4.6
		c8.7-1.5,17.6-2.1,26.5-1.8c0.1-2.1,0.2-4.2,0.3-6.2c0-0.8,0.1-1.7,0.6-2.3c0.4-0.5,1.1-0.7,1.8-0.9c6.1-1.8,12.1-3.5,18.2-5.3
		c4.9-1.4,10.1-0.9,9.4-7c-2.4,0.3-29.3-0.8-29.3-0.9c0.5-2.2-0.5-4.6-2.4-5.8c-1.5-1-3.3-1.1-5-1.3c-4-0.4-8.3-0.1-12.2-0.8
		c-4-0.7-7.7-3.9-11.4-5.4c-9.6-4-20.5-1.4-30.8-0.3c-17.7,1.9-35.6-0.7-53.5-0.1c-10.5,0.4-20.9,1.8-31,4.4
		c0.2-5.3,5.2-9.2,10.3-10.7c5.1-1.5,10.5-1.4,15.6-2.9c5.1-1.5,10.1-5.4,10.3-10.7c0-1.6-0.4-3.3,0.1-4.9c0.6-1.8,2.2-3,3.8-3.9
		c3.5-1.9,7.6-3,11.5-2.1c3.9,0.9,7.4,4,7.9,7.9c0.4,2.7-0.6,5.5,0.3,8c1.6,4.6,7.8,5.2,12.7,5.1c23.8-0.9,47.6-1.8,71.4-2.8
		c30.3-1.2,61-2.3,90.8,3.5c-0.2-1.7-0.4-3.4-0.6-5.2c31.2,1.6,66.9-11.3,95,2.2c1.2,0.6,2.5,1.2,3.7,1.8c-0.6,1.3,0.4,2.8,1.6,3.4
		c1.2,0.6,2.7,0.6,4.1,0.5c10.1-0.1,20,2.3,30.1,3.4c16.3,1.8,32.8,0.2,49.2,0.8c14.7,0.6,29.2,3,43.9,3.9c6.8,0.4,13.4-0.3,20-0.2
		c7.3,0.2,14.6,0.7,21.9,1.1c7.2,0.4,14.4,0.9,21.6,1.3c15.2,0.9,30.5,1.9,45.6,4.2c3.1,0.5,6.3,1,9.2,0c4.5-1.5,6.1-5.9,7-10.5
		c1.1-5.4,0.6-11.2-1.5-16.3c-0.2-0.5-0.5-1.1-0.4-1.6c0-0.8,0.5-1.5,1-2.2c1.4-2,2.5-4.3,2.8-6.7c0.3-2.4-0.4-5-2.2-6.7
		c-0.4-0.3-0.7-0.6-1.1-1c-0.8-0.8-1.2-1.9-1.6-3c-1.7-5.1-2.5-10.4-3.3-15.6c-0.5-3.4-1-6.8-1.5-10.2c-0.2-1.2-0.4-2.4-0.5-3.6
		c-0.8-5.5-1.6-10.9-2.8-16.3c-0.2-0.9-0.5-1.9-1.2-2.6c-0.7-0.6-2-0.7-2.5,0.1c0-3.3,2.2-6.4,2.2-9.7c0-4.6-5.6-8.8-9.9-7.1
		c1-2,0.1-4.5-1.6-5.9c-1.6-1.5-3.8-2.1-6-2.6c-25.7-6.4-52.6-1.7-79.1-1.2c-11.7,0.3-23.5-0.3-35.2-0.6c-28.1-0.8-56,1.2-84.1,3.2
		c-3.4,0.2-6.9,0-10.3-0.8c-1.8-0.4-3.5-1-4.9-2.1c-1.4-1.1-2.4-2.9-2.2-4.7c-2.2,0.1-3.6-2.2-4.3-4.3s-1.5-4.5-3.6-5.2
		c2.9-0.3,6-0.6,8.7-1.8c2.7-1.2,5.1-3.6,5.5-6.5c0.3-1.9-0.2-3.9-1-5.7c-1.2-2.8-3-5.6-5.8-7c-0.4-2-1-4-1.8-6
		c-0.4-0.9-0.8-1.7-1.6-2.2c-0.7-0.4-1.5-0.5-2.3-0.6c-4.2-0.3-8.4-0.4-12.6-0.3c-0.4-2.5,0-5,0.1-7.5c0.1-2.5-0.1-5.2-1.6-7.3
		s-4-4.2-6.2-2.8c-0.2-3.2-2.2-6.1-4.8-7.9s-5.7-2.8-8.8-3.5c-2.6-0.6-5.6-1.3-7.1-3.5c-0.8-1.2-1.1-2.8-2.2-3.9
		c-2.5-2.6-7.5-0.7-10.1-3.2c-1.2-1.1-1.5-2.8-2.2-4.3c-2.1-5-7.5-7.9-12.9-8.6c-5.4-0.7-10.8,0.4-16.1,1.2
		c-19.7,3.1-39.8,2.9-59.6,5.7c-15.9,2.2-31.6,7-47.6,5.2c-0.3-3.1-4.2-5.4-6.9-6.2c-2.7-0.8-5.6-0.8-8.5-0.8
		c-13.8,0-27.6,0-41.2,2.4c-9.3,1.6-18.2,2.8-27.7,3c-2.6,0.1-5.2,0.1-7.7,0.2c-11.7,0.3-23.4,0.5-35,0.8c-6,0.1-11.9,0.3-17.9,0.4
		c-2.5,0.1-5.5,0.6-7.9,0.1c-2.2-0.5-4.1-1.9-6.5-2.3c-1.7-0.2-3.4,0-5,0.1c-2.6,0.3-5.2,0.6-7.8,0.9c-1.4,0.2-3,0.5-3.5,1.8
		c-6.8-0.1-13.5-0.3-20.3-0.4c-3-0.1-6-0.1-8.9,0.6c-2.9,0.7-6.1,1.7-7.6,4.2c-6.4,0.5-12.8,1-19.1,1.6c-1,0.1-2.2,0.2-2.8,1
		c-0.7,0.8-0.8,2.1-1.7,2.5c-0.6,0.3-1.2,0.1-1.9,0c-6.9-1.5-14.4,0.1-20.2,4.2c-0.8,0.6-1.6,1.2-2.6,1.5c-0.9,0.3-1.8,0.3-2.7,0.3
		c-14.6-0.1-29.5-3.5-43.8-0.4c-1.5,0.3-3,0.7-4.3,1.6c-1.3,0.8-2.2,2.1-3.1,3.3c-1.7,2.2-2.5,4.1-4.1,6.3c-35-1-70.2,5.1-105.1,1.9
		c-5.2-0.5-10.4-1.2-15.6-0.7c-7.7,0.6-15.2,3.6-22.9,2.7c-3-0.4-6-1.4-9-1.4c-3,0-6.4,1.3-7.5,4.2c-1.4,3.5,1.1,8.2-1.4,11.1
		c-2.3,2.7-6.5,1.4-10,1.2c-4.5-0.3-9.1,1.8-11.5,5.6c-2.5,3.7-2.4,9,0.3,12.6c2.4,3.1,6.2,4.5,9.2,7c-7,5-15.6,7.8-24.3,7.7
		c3.8,3.5,7.5,6.9,11.3,10.5c-17.6,0.9-35.2,1-52.8,0.4c0.5,3.7,0.9,7.4,1.4,11.1c-3.1-1-5.9,2.1-7.7,4.9c-0.8,1.2-1.6,2.4-2.3,3.5
		c-4.4,6.7-8.9,13.6-11.8,21.1c-2.4,6.4-3.6,13.2-3.5,20c14.8,4.9,30.9,1.5,46.4,3.1c5.5,0.6,11,1.8,16.5,2.6
		c11.1,1.6,22.4,1.6,33.6,1.5c8.2,0,16.5-0.1,24.7-0.1c0.9,0,1.8,0,2.6-0.5c0.9-0.6,1.3-1.6,1.9-2.5c3.3-5.5,10.8-6.3,17.2-6.5
		c20.2-0.6,40.4-1.2,60.6-1.8c-0.7,2.7-2.2,5.3-4.2,7.2c-2.7,2.5-8.5,0.8-12.2,1c-17.7,1-34.5,11.4-43.3,26.9
		c11.2,0.8,22.4,1.6,33.6,2.4c13.3,1,27.9,1.6,38.7-6.2c2.3-1.6,4.5-4.2,3.9-6.9c-0.6-2.7-4-5-2.8-7.6c1.3-3.1,6.1-0.9,9.3-1.9
		c2.4-0.8,3.7-3.4,5.2-5.4c3.3-4.6,8.9-7.5,14.6-7.4c6.6,0,12.9,3.7,19.5,3.2c3.9-0.3,7.6-2.1,11.5-2.1c7.1,0,14.3,5.6,20.6,2.5
		c1.9,3.5,2.6,7.6,2.2,11.6c9.2,1.4,18.6,1.8,28,1.2c1,1.9,1.5,4,1.5,6.2c-4,0.5-6.5,4.4-8.5,7.9c-2.3,4.1-4.6,8.1-6.9,12.2
		c27.6,1.3,55.3,2.5,82.9,3.8c10.9,0.5,23.1,1.6,30,10c-5.5-2.7-11.9-3-18.1-3.2c-46.4-1.6-92.4-1.9-138.7-2.8
		c-5-0.1-10-0.2-15.1-0.3c-36-0.7-72-1.4-108-2.1c-66.3-1.3-132.9,5.9-199.2,4.4c-9.9-0.2-19.9-0.7-29.7,0.5
		c-23.1,2.9-43.9,14.9-63.9,26.8c-4,2.4-8.5,5.6-8.7,10.3c-0.1,2.4,1,4.6,2.1,6.7c2.7,5.4,5.5,11,9.8,15.3
		c5.3,5.2,16.2,10.2,16.7,18.6c0.4,5.4-2.6,12.7-4.1,17.8c-1.8,6-3.9,11.8-6.5,17.5c-1.7,3.8-3.6,7.9-2.7,12c0.9,4,4.3,6.9,7.6,9.4
		c3.7,2.9,7.5,5.9,12,7.4c6.8,2.3,14.3,0.8,21.5,1.2c28,1.4,54,0.3,82.1,0c17.3-0.2,34.7-0.7,51.4-5.3c17.2-4.7,33.9-13.8,51.7-12.4
		c9.1,0.7,18,2.9,27.2,3.6c9.9,0.8,19.8,1.4,29.7,1.9c20.1,1,40.3,1.4,60.5,1.2c3.6,0,7.2-0.1,10.7-1c2.2-0.5,4.3-1.4,6.4-2
		c17.8-5.3,36.8,4.7,55.2,2.2c2.2-0.3,4.4-0.8,6.6-0.6c3.5,0.2,6.7,2,10.1,3.1c4.8,1.5,9.9,1.6,15,1.8c16.6,0.7,33,3.7,48.8,8.9
		c10.7-2.4,19.5,6.1,30.4,7.1c3.6,0.3,7.5-0.1,10.1-2.6c1-0.9,1.8-2.1,2.5-3.3C3006.2,4207.6,3010.4,4202.9,3013.8,4197.5z"/>
	<path id="puinawai" class="st0" d="M3706.4,3946c5.5,0.8,10.7-2.4,15.3-5.4c0.8-0.5,1.6-1.1,2.1-1.9c0.6-1,0.7-2.2,0.8-3.3
		c0.8-10.9,1.5-22.1-2.3-32.3c-1.9-5.1-5.4-10.2-10.7-11.2c2,0.7,3.4,2.8,3.2,4.9c-0.9,0.1-1.7,0.1-2.6,0.2c1.2,2.1-2,5-3.9,3.5
		c-0.7,3.2,0.5,6.7,2.9,8.9c-0.6,1.5-2.7-1.4-4.2-1c-0.6,0.2-0.9,0.7-1.2,1.3c-1.2,2.3-2.3,4.6-3.5,6.9c-1.5-3.3-2-7.1-1.3-10.7
		c-2-1-4.5-0.9-6.4,0.2c0.3-1.3,1-2.5,2.1-3.3c-1.3-1-2.6-1.9-3.8-2.9c2.6,0.4,4.1-4.1,1.8-5.4c-1.1-0.6-2.9-1.5-2-2.3
		c1.2-0.1,2.4-0.1,3.5-0.2c0.2-2.4-0.6-4.8-2.2-6.6c4.8,0.6,9.7,0.6,14.4,0c-2.7-3.2-6-5.9-9.6-8c-2.9-1.8-7.6-4.8-7.4,0.8
		c0,1.6-0.5,3.7-2,3.7c-2.3-0.1-2.3-4.8-4.6-4.5c0.1,4.5-1.2,9-3.8,12.6c-0.6,0.9-1.4,1.8-1.5,2.9c-0.1,1,0.3,2.3-0.4,3
		c-0.8,0.7-2.2,0.1-2.6-0.9c-0.4-1-0.3-2.1-0.4-3.2c-0.1-1.1-0.7-2.3-1.7-2.4c-0.7-0.1-1.4,0.3-2.1,0.7c-1.3,0.8-2.7,1.6-4.2,1.6
		c-1.5,0-3.2-1.1-3.2-2.6c0-0.8,0.4-1.5,0.6-2.3c0.5-1.9-0.6-3.8-1.4-5.6c-2-4.5-2.8-9.5-2.2-14.3c2.6,1.7,6.3,1.5,8.7-0.4
		c1.1-0.8,1.9-1.9,3.1-2.5c1.8-0.8,4.2-0.2,5.8-1.5c0.8-0.6,1.2-1.6,1.8-2.4c0.6-0.8,1.7-1.4,2.6-1c0.5,1.4,1,2.8,1.5,4.2
		c0.1-1,0.6-1.9,1.3-2.6c1.6-1.4,4.9-0.3,4.6,1.8c0.6-1.6,1.4-3.3,3.1-3.6c1.3-0.2,2.5,0.6,3.2,1.7s0.7,2.5,0.6,3.7
		c-0.1,1.6-0.4,3.1-0.9,4.6c-0.2,0.6-0.5,1.3-0.3,1.9c0.1,0.4,0.4,0.7,0.7,1c1.5,1.5,3.1,2.9,4.8,4.3c-0.1-2-0.7-3.9-1.7-5.6
		c1.8-0.4,3.7-1.1,4.8-2.6c1.1-1.5,1.2-3.9-0.3-5c-0.5-0.4-1.2-0.6-1.5-1.1c-1.1-2,3.7-4,2.2-5.7c-0.3-0.3-0.7-0.5-1-0.6
		c-3.3-1.2-6.4-3.2-8.9-5.7c-0.6-0.6-1.1-1.2-1.9-1.4c-1.6-0.6-3.4,0.5-4.3,1.9c-0.8,1.5-0.9,3.3-0.9,5c-1.1,1.1-3-0.1-3.6-1.6
		s-0.7-3.2-1.9-4.1c-1.6-1.3-4-0.3-5.5,1.1c-1.5,1.4-2.5,3.3-4.3,4.3c-1.6,0.9-3.8,1.1-4.7,2.6c-0.4,0.7-0.5,1.5-1,2.1
		c-1.4,1.7-4.1,0.2-5.6-1.4c-1.6-1.8-3.1-3.7-4.4-5.7c-0.5-0.9-1.1-1.8-1.1-2.8c0-0.9,0.3-1.8,0.6-2.7c0.7-1.8,1.4-3.7,2.1-5.5
		c0.6-1.6,1.2-3.5,0.3-4.9c-1.1-1.7-3.7-1.8-4.8-3.5c-1.8-2.7,1.9-6.4,0.8-9.5c1.2-0.6,2.6-0.1,3.9-0.4c3.5-0.7,4.3-6.3,7.8-7.1
		c2.9-0.7,6.2,2.2,8.6,0.5c2.8-1.9,0.5-7.4,3.4-9.2c0.8-0.5,1.8-0.8,2.5-1.2c1.1-0.5,2-1,3.2-0.8c0.7,0.1,1.4,0.4,2.1,0.2
		c1.6-0.3,1.8-2.4,1.8-4c-0.2-4.2-0.4-8.4-0.6-12.5c0.8-1.1,2.4,0.2,2.9,1.4c0.5,1.2,1.5,2.8,2.7,2.2c0.4-0.2,0.7-0.6,0.9-1
		c0.7-1.2,1.2-2.6,1.9-3.9c1.4-2.4,4-4.2,6.8-4.3s5.7,1.5,6.6,4.2c0.3,0.8,0.4,1.7,0.9,2.4c0.5,0.7,1.7,1.1,2.3,0.4
		c0.2-0.2,0.3-0.6,0.6-0.7c0.8-0.4,1.2,1,1.7,1.8c0.7,1.1,2.5,0.8,3.3-0.3c0.7-1,0.7-2.4,0.4-3.7s-0.7-2.5-0.6-3.8
		c0.2-3.3,3.7-5.4,7-6c3.3-0.6,6.8-0.3,9.8-1.8c2.3-1.1,4.1-3.1,6.1-4.8c0.3-0.3,0.7-0.5,1.1-0.6c0.5,0,0.9,0.2,1.3,0.5
		c2.5,1.7,4.7,3.9,7.5,4.9c0.7,0.2,1.5,0.4,2.1,0c1-0.8,0.3-2.5,0.9-3.7c0.7-1.2,2.3-1.1,3.7-0.8c2.6,0.5,5.6,1.3,6.5,3.8
		c0.2,0.6,0.3,1.3,0.7,1.8c1.1,1.7,4.5,1.7,4.3,3.7c-0.4,0-0.9,0.1-1.3,0.1c3.4,2.2,5.7,6.1,5.9,10.1c0,0.3,0,0.7-0.2,1
		c-0.3,0.4-0.9,0.4-1.4,0.3c-1.3-0.1-2.6-0.3-3.9-0.6c1.7,0.4,2.3,2.7,1.5,4.3c-0.8,1.5-2.6,2.3-4.3,2.7c1.2,0.6,2.3,1.3,3.2,2.3
		s1.2,2.5,0.7,3.7c-1,2-3.8,1.9-6.1,2.3c-2.7,0.4-5.1,1.8-6.8,3.9c1.1,5.3,0.6,10.8-1.3,15.9c1.4-0.6,2.6-1.7,3.3-3
		c0.7-1.3,1.7-3.1,3-2.4c0.6,0.4,0.7,1.2,1,1.9c0.2,0.7,0.8,1.4,1.5,1.2c0.2-1.9,0.4-3.8,0.6-5.8c0-0.4,0.1-0.8,0.4-1.1
		c0.3-0.2,0.7-0.2,1.1-0.2c1.2,0.1,2.4,0.3,3.6,0.4c-0.2-0.9,0-1.9,0.7-2.6c0.7-0.6,1.8-0.8,2.5-0.2c0.7,0.5,0.8,1.5,1.2,2.2
		c0.4,0.8,1.4,1.4,2,0.9c0.5-0.5,0.3-1.3,0.3-2c-0.1-1.9,1.7-3.6,3.6-3.4s3.4,2.1,3,4c1.6,0,2,1.3,3.5,2c2.3,1.1,3.6,3.8,5.9,5
		c1.7,0.8,3.1,1.7,3.7,3.4c0.1,0.4,0.2,0.8,0.6,1c0.2,0.1,0.5,0.1,0.8,0.1c1.5,0,3,0,4.5,0c0,0,22.1-13.3,40.3-30.7
		s18.7-30.4,45.9-36.8c27.2-6.4,39.7,1.3,46.7,5.9c6.9,4.5,30.7,22.1,47.5,22.1s28.5-2.4,38.4-10.9c9.9-8.5,20.8-14.4,25.3-22.1
		c4.5-7.7,4.3-10.4,16-14.7c11.7-4.3,28.5-29.9,34.4-44.8c5.9-14.9,28.5-61.1,37.9-74.1c9.3-13.1,17.9-10.4,27.5-22.7
		s28-21.6,38.1-23.5s32.8-2.7,47.5,10.9c14.7,13.6,9.6,16.5,28.3,29.1c18.7,12.5,30.1,17.9,34.7,33.1c4.5,15.2,8.3,20.8,16.8,26.4
		c8.5,5.6,21.9,31.5,21.9,31.5s9.6-34.7,21.3-55.7c11.7-21.1,21.3-40.8,23.2-45.1c1.9-4.3,16.8-16.5,20.3-25.3s23.7-17.9,28-21.6
		c4.3-3.7,17.6,2.4,20-2.7s27.7-24,39.5-33.6c11.7-9.6,6.1-7.2,13.9-14.4s15.5-10.7,22.7-19.2c7.2-8.5,11.2-12,20.3-12
		c9.1,0,33.1,0.3,42.9,11.5s17.3,18.9,21.1,25.3c3.7,6.4,4.5,8,4.5,8s10.1-9.6,29.3,1.1c19.2,10.7,32.3,10.9,36.3,25.1
		c4,14.1,9.9,22.1,17.6,32.3s13.6,13.6,15.7,20.8c2.1,7.2,14.9,16.8,17.6,24.3c2.7,7.5,14.7,29.9,24.3,38.1s13.3,11.5,18.9,24.3
		c5.6,12.8,9.3,17.6,12.3,20.8c2.9,3.2,4.7,5.5,4.7,5.5c0.3-1.8,0.5-3.5,0.8-5.3c0-0.2,0.1-0.5-0.1-0.7c-0.1-0.1-0.3-0.2-0.5-0.2
		c-0.8-0.2-1.6-0.5-2.5-0.7c-0.5-0.1-0.9-0.3-1.3-0.6c-0.3-0.3-0.5-0.9-0.1-1.3c0.4-0.5,1.2-0.2,1.8-0.3c0.1,0,0.2,0,0.3-0.1
		c0.2-0.1,0.1-0.4-0.1-0.6c-0.2-0.1-0.4-0.2-0.6-0.2c-0.8-0.2-1.6-0.6-2.2-1.2c-0.2-0.2-0.4-0.5-0.3-0.8c0.1-0.3,0.6-0.4,0.9-0.3
		c0.3,0.1,0.7,0.3,1,0.3c0.9,0,1.5-1.1,2.4-1.1c0.4,0,0.9,0.2,1.2-0.1c0.1-0.1,0.1-0.4,0.1-0.6c0-0.6,0-1.2,0-1.8
		c0-0.6,0.1-1.3,0.7-1.5c0.4-0.2,0.9,0.1,1.1,0.4c0.3,0.3,0.5,0.7,0.7,1.1c0,0.1,0.1,0.1,0.2,0.2c0.2,0.1,0.3-0.1,0.4-0.3
		c0.6-1.1,0.4-2.4,0.7-3.6c0.2-1.1,0.8-2,1.4-3c0.2-0.3,0.4-0.6,0.7-0.6c0.5-0.1,0.8,0.6,0.9,1.1c0.2,1.2,0.5,2.5,0.7,3.7
		c0,0.2,0.1,0.4,0.3,0.5c0.2,0.1,0.4-0.1,0.5-0.3c0.5-0.8,0.4-1.8,0.6-2.7c0.2-0.7,0.6-1.4,0.9-2.1c1-1.8,2-3.6,3.1-5.3
		c0.1-0.2,0.2-0.3,0.4-0.4c0.3-0.2,0.6,0,0.9-0.1c0.3-0.1,0.5-0.3,0.8-0.2c0.2,0,0.3,0.1,0.4,0.3c0.7,0.7,1,1.7,1.5,2.5
		c0.5,0.8,1.6,1.5,2.5,1c0,0,13.6-14.5,17.2-28.7s9.4-27.6,16.8-32.8s13.2-14.8,18.8-15.2c5.6-0.4,9,6.2,15.2,9.8
		c6.2,3.6,4,7.2,9.6,10.4s14.4,10.2,16.4,16.8s6.6,9.6,7.2,13s3.8,12,3.8,16.8s7.6,4,9,21.2c0,0,5.6,11.8,8.6,17.8s1.8,7.2,1.8,7.2
		c0.1,0.9,0.3,2.2,1.1,2.7c0.4,0.3,1,0.4,1.4,0.6c1.3,0.5,2,1.9,2.8,3.1c0.8,1.2,2.1,2.3,3.4,1.9c-0.2,1.1-0.4,2.1-0.5,3.2
		c-0.1,0.4-0.1,0.8-0.1,1.2c0.1,0.3,0.3,0.7,0.5,1c0.8,1.4,1.7,2.8,2.5,4.2c0.9,1.5,1.9,3,3.3,4.1s3.4,1.5,4.9,0.6
		c1.7-1,2.2-3.2,3.2-5s3.5-3.2,4.8-1.7c0.4,0.4,0.6,1,0.8,1.5c1.1,2,4,2.8,5.9,1.6c0.3-0.2,0.6-0.5,1-0.6c1.7-0.5,3.1,2,4.8,1.6
		c1.4-0.3,1.7-2.3,2.8-3c1-0.7,2.4-0.3,3.4,0.5c0.9,0.8,1.5,1.9,2.2,2.9c0.3,0.5,0.9,1,1.4,0.9c0.4-0.1,0.6-0.5,0.8-0.8
		c0.6-1,1.1-2,1.7-2.9c0.4-0.5,1.3-0.2,1.7,0.3c0.4,0.5,0.7,1.2,1.2,1.6c0.9,0.5,2-0.1,3.1-0.1c2.3-0.1,3.9,3.2,2.4,4.9
		c1.1,0.7,2.7,0.6,3.8-0.1c0.7-0.5,1.2-1.2,1.9-1.6c1.8-0.9,4.1,1.2,3.5,3c1.6,0.9,3.3-2.1,5.1-1.5c0.8,0.3,1.3,1.2,2.2,1.3
		c0.9,0.1,1.7-0.8,2.6-0.8c1,0,1.8,1.3,2.8,1.2c0.4,0,0.7-0.2,1-0.4c2.2-1.6,2.1-5.4-0.2-6.9c-2.3-1.5-6.1-0.8-7.4-3.2
		c-1.3-2.3,1.1-5,1-7.7c-0.1-2.2-2-4.9-0.3-6.3c0.9-0.8,2.3-0.5,3.3,0.2c1,0.7,1.6,1.8,2.3,2.7c1.2,1.4,2.6,2.6,4.3,3.4
		c1.4,0.7,3.2,1.3,3.5,2.8c0.1,0.5,0.1,1,0.4,1.4c0.7,1,2.3-0.2,2.6-1.3c0.3-1.2,0.4-2.6,1.4-3.2c0.4-0.2,0.9-0.2,1.2-0.4
		c0.6-0.3,1-1.1,1-1.8c0.3-2.4-1.9-4.6-1.5-7c0.3-2,2.3-3.8,1.5-5.6c1.8-0.4,3.7-0.7,5.5-0.4s3.7,1.4,4.3,3.1
		c1.4,3.6-2.6,7.8-0.9,11.2c0.3,0.6,0.7,1.2,0.5,1.8c1-0.6,2.4,0.3,2.7,1.4c0.4,1.1,0.1,2.3-0.2,3.4c1.7-0.4,0.1-3.6,1.5-4.6
		c1.2-0.9,2.5,1,3.9,1.6c1,0.5,2.2,0.2,2.9-0.6c0.1,2.3,0.3,4.6,0.4,7c1.3,1.4,3.7,0.2,4.5-1.5c0.8-1.7,0.6-3.7,1.2-5.5
		c3.5-1,7.2,1.9,10.4,0.4c1.2-0.6,2.1-1.8,3.4-2.1c1.1-0.3,2.4,0,3.3-0.6c0.8-0.6,1.3-1.8,2.3-1.7c1.1,0,1.5,1.6,1.3,2.7
		s-0.4,2.5,0.5,3.1c0.4,0.3,0.9,0.3,1.3,0.3c1.4,0.1,3.1,0.2,4.1-0.9c1-1.1,1-3,2.2-3.8c1.3-0.9,3.1,0,4.2,1.1c1.1,1.1,2,2.6,3.5,3.2
		c0.8,0.3,1.6,0.3,2.5,0.3c2.4,0,4.9,0.2,7.3-0.1c2.3-0.3,4.2-1.6,6.3-2.7c0.8-0.4,1.7-0.9,2.6-1c1.1-0.1,2.1,0.4,3.2,0.5
		c3.9,0.5,7.5-3.8,6.3-7.5c1.3-0.7,3-0.6,4.2,0.2c0.7,0.4,1.2,1.1,1.9,1.5c1.7,0.9,3.8-0.2,5.3-1.5s2.8-2.9,4.7-3.4
		c2.4-0.6,4.8,1,6.1,3.1c1.3,2.1,1.6,4.6,1.9,7c2.2,1.3,4.6,2.2,7.1,2.6c1,0.1,2,0.2,3,0.6c0.9,0.4,1.7,1,2.4,1.7
		c1.7,1.5,3.3,3.2,4.8,5c0.8,0.9,1.6,2,1.5,3.2c0,1.8-1.7,3.5-1,5.1c3.5-0.5,7.2,2,8.1,5.5c0.5,1.8,0.3,4,1.6,5.3
		c1.4,1.4,4.2,2,3.8,3.9c2.7,0,5.3-1.9,6.1-4.5c0.2-0.6,0.3-1.2,0.1-1.7c-0.4-1.1-1.8-1.5-2.7-2.3c-1.9-1.8-0.5-4.9-0.4-7.5
		c0.1-2.4-0.7-5.5,1.4-6.6c2-1.1,5.1,0.8,6.5-1c0.3-0.5,0.4-1.1,0.5-1.7c0.2-3-0.6-6.1,0.4-8.9c0.2-0.7,0.7-1.4,1.4-1.4
		c0.5,0,0.8,0.3,1.3,0.4c1.3,0.2,1.9-1.5,2.7-2.6c0.9-1.3,2.5-1.9,4-2.4c4-1.3,8.2-2.6,12.2-1.5c4.4,1.2,7.8,5.4,8,9.9
		c1.7-1.2,4.5-0.3,5.2,1.6c0.6,1.5,0.1,3.2-0.2,4.8c-0.8,4-0.1,8.2,1.8,11.8c-0.5,1.4,2,1.8,3.4,1.3c1.4-0.5,2.9-1.5,4.2-0.8
		c-1.4,5.8,3.6,11.6,2.5,17.5c-2.4,1-4.7,2.2-7,3.6c-0.8,0.4-1.5,1-1.9,1.7c-0.7,1.5,0.2,3.3-0.3,4.8c2.3-0.9,5.1-0.2,6.6,1.7
		c0.5,0.6,0.9,1.3,1.5,1.7c0.7,0.4,1.5,0.4,2.3,0.4c2.8,0,5.6,0,8.4,0c1,2.5-0.8,5.1-2.5,7.1c-1.7,2-3.5,4.6-2.8,7.1
		c0.2,0.8,0.8,1.5,1,2.4c0.2,0.8,0.1,1.9-0.7,2.3c-0.7,0.4-1.6,0-2.3,0.3c-1.8,0.6-1.1,3.9-2.8,4.7c-0.7,0.3-1.4,0.2-2.1,0
		c-2.7-0.6-5.4-1.3-8.1-2c-2.2-0.6-4.8-1.1-6.8,0.1c-2,1.2-2.7,3.8-3.1,6.1c0.7,1.1,2.4,0.4,3.1-0.6c0.7-1,1.1-2.4,2.1-3.1
		c1.3-0.8,3-0.3,4.3,0.6c1.2,0.9,2.3,2.1,3.7,2.7c1.9,0.9,4.3,0.4,5.8-1c0.4-0.4,0.7-0.8,1.2-0.9c1.4-0.4,2,1.7,2,3.2
		c1.3,0.6,2.7-0.5,3.8-1.4s2.7-1.9,3.8-1c1.4,1.5,0.3,4,0.9,5.9c0.4,1.3,1.7,2.2,2.9,2.9c1.2,0.7,2.5,1.4,3.3,2.6
		c0.8,1.2,0.8,3-0.4,3.7c-0.6,0.4-1.5,0.4-2.1,0.8c-1.6,1-0.9,3.5,0,5.1c1,1.6,2,3.8,0.7,5.2c-2.8-0.2-5.7-0.5-8.5-0.7
		c-0.6-0.1-1.2-0.1-1.7,0.3c-0.9,0.6-0.6,1.9-0.6,3c0.1,1.9-0.8,3.8-1.1,5.7c-0.3,1.9,0.4,4.3,2.3,4.8c1.1,0.3,2.4-0.3,3.5,0.1
		c1.3,0.5,1.9,2.2,1.5,3.5c-0.3,1.4-1.2,2.5-2.1,3.6c-0.5,0.7-1.1,1.6-0.7,2.3c0.2,0.4,0.5,0.7,0.9,0.9c2.4,1.9,4.2,4.6,4.9,7.5
		c0.4,1.7-0.6,4.2-2.3,4.5c-1.7,0.3-3.4-0.5-4.9-1.4c-2.1-1.1-4.1-2.2-6.2-3.3c-0.6-0.3-1.3-0.6-1.8-0.2c-0.3,0.3-0.4,0.7-0.4,1.1
		c-0.2,2-0.3,4.1-0.2,6.1c-1.9,0.3-3.3-1.7-4.2-3.4c-0.9-1.7-2.6-3.6-4.4-3c-0.1,1.4-0.2,2.9-1,4.1s-2.4,2-3.6,1.3
		c-0.5-0.3-0.9-0.8-1.2-1.3c-1.8-2.5-3.1-5.4-3.8-8.4c-2.6,2.2-4.9,4.7-6.9,7.4c-2.1,2.8-3.4,5.6-3.9,9c-0.5,3.1,0.3,6.1,0.6,9.2
		c0.8,6.7-0.5,13.7,1,20.3c0.5,2.3,1.4,4.7,3.3,6.1c2,1.5,4.7,1.6,7.2,1.9c4.9,0.6,9.7,2.1,14.1,4.4c0,0-240.6-4.6-287,1
		c-46.4,5.6-88.8-12.8-118.4-0.8c-29.6,12-32.8,6.4-52.8,9.6c-20,3.2-41.6-0.8-68.8-1.6c-27.2-0.8-44.8,0-66.4,4
		c-21.6,4-32.8-6.4-50.4-3.2c-17.6,3.2-28.8,4.8-68.8,3.2s-78.4,0.8-110.4,0.8s-72.8-0.8-77.6,1.6c-4.8,2.4-63.2,0-94.4,0
		c-31.2,0-17.6,4.8-75.2,4.8s-87.2,4.1-101.6,4.5c-14.4,0.3-76-6.1-109.6-6.1c-33.6,0-55-1.6-80.7,1.6s-53.7,4.1-72.9,4.5
		c-19.2,0.3-16.8,4.3-48,5.1C3730.9,3952.1,3706.4,3946,3706.4,3946z"/>
	<path id="chiribiquete" class="st0" d="M2703.7,4741.3c0,0,19.6-24,65.6-29.2c0,0,33.6-21.6,45.2-20.4c0,0,18-22,38.4-24.4c20.4-2.4,83.2-2,100.8-2
		c17.6,0,106.4,5.6,106.4,5.6s32.8,5.6,52.8,4.4c20-1.2,45.6,1.2,53.2,5.2c0,0,31.2-2,46.8,6.8c0,0,2.4-29.2,24-34
		c21.6-4.8,69.2,2.4,69.2,2.4s-0.8-15.6,52.4-24l44.8-5.2c0,0,6.4-6.8,18-6.8c11.6,0,45.6-2,66-2c20.4,0,61.2-1.2,81.2-3.6
		s28.8-4.4,52.8,2.4s101.2,3.6,101.2,3.6s60-4.8,77.6-2.8c17.6,2,65.2,4,65.2,4s46.4,1.6,53.6,5.2c7.2,3.6,29.2,8,34.8,8.4
		c5.6,0.4,33.6,0.4,39.6-8c0,0,37.6,1.6,53.2-0.4s48-1.6,52,0s16.8,16,20.8,38c0,0-2.8,7.2-3.6,22.4c-0.8,15.2-1.6,41.2-1.6,41.2
		s-16,5.6-27.2,11.2c-11.2,5.6-22.8-1.6-26.4,2c-3.6,3.6-18.8,21.6-27.2,19.2c-8.4-2.4-25.6-18.4-25.6-18.4s-0.8,8.1,5.5,11.2
		c6.3,3.1,9.6,5.5,7.7,11.6c0,0,20,6,18,24.3c0,0-0.3,4.1-3.3,8.4c0,0,5.2,4.3,4.8,9.9c-0.4,5.6-2.1,20.1-2.1,20.1
		s-15.2-1.3-22.4-0.5c-7.2,0.8-35.7-16.8-35.7-16.8s1.9,5.7-18.9,6.9c-20.8,1.2-31.3-18.4-31.3-18.4l-8.4-0.9c0,0,0.8,6.1-4.5,7.5
		c-5.3,1.3-38,3.1-38.1-13.6c0,0-29.2-13.3-28.5-24.4c0.7-11.1,0.1-12.5-3.2-13.2c-3.3-0.7-16.4-4.1-14.1-15.9
		c2.3-11.7-6.1-18.1-9.9-20.4c-3.7-2.3-18.5-7.5-28.5-6.9s-32.4,0.5-37.2,1.7s-6.8-3.5-12.1-2.7c-5.3,0.8-0.4,9.6,2,17.7
		c2.4,8.1,2.4,23.1,1.6,31.2s1.5,18.7,1.1,29.1c-0.4,10.4-9.9,24.7-27.7,20.1c-17.9-4.5-47.5-11.2-47.5-11.2s-3.2,40.8-2.9,51.7
		c0.3,10.9,4,18.1-15.7,19.7c-19.7,1.6-78.9-4.5-108.5-7.7s-71.2-6.7-83.7-1.9c-12.5,4.8-60,15.7-78.9,7.5s-37.3-33.1-37.3-33.1
		s10.7,21.1-16.5,29.9c-27.2,8.8-42.9-9.1-45.9-23.5c-2.9-14.4-45.6,5.6-60,8.3c-14.4,2.7-17.1,14.9-26.7,14.9
		c-9.6,0-39.5-7.5-57.6-34.7c-18.1-27.2-66.1-56-66.1-56l-8.8-10.4c0,0-44.3-5.1-51.2-2.1c-6.9,2.9-4.3,17.1-18.4,21.3
		s-22.4,3.7-22.4,3.7s0.3,17.9-4.3,21.3c-4.5,3.5-32.3,12-44,4.3s-26.1-16.8-32.5-26.1c-6.4-9.3-9.9-17.1-16.3-17.1
		c-6.4,0-27.7,6.1-40.3,3.5s-8.3-5.6-23.5-2.7c-15.2,2.9-25.3,9.3-52.8,9.3c-27.5,0-36.5-0.8-54.1-2.7
		C2688.5,4772.6,2685.8,4763.3,2703.7,4741.3z"/>
	<path class="st0" d="M940.5,3971.9c-0.8-1.5-1.1-1.8-0.2-3.3c0.7-1.2,1.5-2.4,2.4-3.5c0.7-0.8,1.4-1.5,1.9-2.4
		c2.5-4.5-2-11.2,1.5-15.1c0.6-0.6,1.4-1.1,1.7-1.9c0.4-0.9,0.3-2,0.7-2.9c1.1-2.3,5-1.5,6.7-3.3c0.6-0.6,0.9-1.5,1.5-2
		c1.2-1,2.9-0.6,4.4-0.4c1.5,0.2,3.5-0.1,3.8-1.6c0.7,1.4,2.7,1.2,4.3,1c1.5-0.3,3.6-0.2,4.1,1.3c-0.7-2.5,0.4-5.5,2.6-6.8
		c2.2-1.4,5.4-1.1,7.3,0.7c0.6,0.5,1.1,1.2,1.9,1.5c1.5,0.4,2.8-1,3.3-2.4c0.4-1.5,0.4-3.1,1-4.4c0.7-1.5,2.2-2.5,3.7-3.5
		c4-2.6,9-5.3,13.3-3.2c0.9,0.4,1.9,1.1,2.9,0.9c1.7-0.4,3-3,4.4-2c0-0.6,0-1.3,0-1.9c2.3,2.6,5.4,4.6,8.7,5.5
		c0.7,0.2,1.4,0.4,1.9,0.9c0.6,0.7,0.5,1.7,0.8,2.5c0.5,1.7,2.6,2.8,4.3,2.1c0.7-0.3,1.4-0.8,2.2-0.8c0.6,0,1.1,0.3,1.6,0.7
		c2,1.5,3.7,3.6,5.9,4.7s5.7,0.8,6.6-1.6c0.4-1.1,0.5-2.6,1.6-2.8c0.3-0.1,0.7,0,1-0.1c0.6-0.3,0.3-1.2,0.4-1.8
		c0.2-2.2,3.6-2,5.3-3.5c1.3-1.2,1.3-3.5,2.8-4.5c2-1.4,4.5,0.6,5.9,2.5c1.4,1.9,3.6,4.1,5.8,3.2c5.7,3.9,11.7,7.7,17,11.9
		c2.3,1.8,4.5,3.6,7.2,4.9c2.6,1.2,5.5,1.8,8,3.1c1.8,1,3.4,2.4,5,3.8c2.7,2.4,5.4,4.8,7.2,7.8c1,1.7,1.7,3.5,3,4.9
		c1.3,1.4,3.6,2.2,5.2,1.2c1.6-1,2.1-3.4,3.9-4c1.5-0.4,3,0.7,3.6,2c0.7,1.4,0.8,2.9,1.2,4.4c0.7,2.6,2.2,4.9,4.2,6.6
		c0.3,0.3,0.7,0.5,1.2,0.6c0.6,0,1.1-0.4,1.6-0.7c2.2-1.5,5-2,7.5-1.3c1.6,0.4,3,1.2,4.5,1.6c1.6,0.4,3.4,0.2,4.4-1
		c0.1,5.5,4,10.8,9.3,12.4c2.7,0.9,6.1,1.1,7.6,3.5c0.7,1.1,0.9,2.5,1.1,3.8c0.8,5.7,2.4,11.3,4.6,16.7c-1,2.1-2.9,3.5-4.6,5.1
		c-1.7,1.6-3.1,3.9-2.4,6.1c0.3,1.1,1.1,1.9,1.6,3c0.5,1.2,0.4,2.4,0.3,3.7c-0.2,3.4-0.4,6.9-1.6,10.2c-1.1,3-3.1,5.6-4.1,8.7
		c-0.6,1.9-0.8,3.9-0.6,5.9c0.3,2.5,1.3,5,3.4,6.5c2,1.5,5.2,1.5,6.9-0.3c0.7-0.8,1.2-1.9,2.2-2.3c0.6-0.3,1.4-0.3,2-0.5
		c1.5-0.7,1.7-2.8,1.4-4.4c-0.3-1.6-0.9-3.4-0.1-4.9c0.3-0.6,0.8-1.1,1.3-1.6c3.1-3.3,4.4-8.2,3.2-12.6c2.8,1.1,6.2-1.3,6.3-4.2
		c0-1.7-0.8-3.7,0.5-4.9c1-1,2.6-0.6,3.8,0.1c1.1,0.8,2.1,1.9,3.3,2.4c3.9,1.8,8.8-2.4,12.5-0.2c0.9,0.5,1.6,1.3,2.5,1.7
		c2,0.8,4.8-0.4,6.3,1.2c1.2,1.4,0.4,3.7,1.1,5.4c0.5,1.3,1.9,2,3.3,2.2s2.8-0.2,4.1-0.5c4.4-1.1,9.4-3.1,10.8-7.4
		c0.2-0.6,0.3-1.3,0.7-1.8c0.8-1,2.4-0.8,3.6-0.7c2.3,0.2,4.6-0.3,6.7-1.2c1.3-0.6,2.5-1.4,3.9-1.7c2.3-0.5,4.6,0.5,6.8,1.5
		c3.1,1.4,6.2,2.4,9.1,4.1c0.8,0.5,1.6,1,2.5,1.2c1.2,0.4,2.5,0.3,3.8,0.6c1.3,0.3,2.4,1.1,3.6,1.6c1.2,0.5,2.7,0.8,3.9,0.2
		c1.2-0.6,1.9-2,1.9-3.4c0.1-1.4-0.3-2.7-0.7-4c-1.5-4.9-3-9.8-3.1-14.9c0-1.3,0-2.5,0-3.8c-0.1-2.3-0.6-4.7-1.1-7
		c-1.4-7.3-2.4-14.6-2.8-22c-0.2-3.8-1.9-7.6-1.7-11.4c0.2-4.3,0.4-8.7,0.3-13c0-2-0.1-4.1-0.3-6.1c-0.6-5.5-2.5-11-1.7-16.4
		c0.2-1.6,0.2-3,0.3-4.5c1.1,1.3,1.7,2.8,2.8,4.1c1.4,1.7,2.8,3.4,4.7,4.4c1.4,0.8,2.9,1.2,4.3,1.8c1.4,0.6,2.9,1.4,3.7,2.7
		c3.9,6.1-0.1,14.5-0.2,21.7c0,3.9,0.4,7.7,0.9,11.6c2.7,19.8,8.5,39,11.8,58.8c3.2,19.1,3.9,38.7,8.9,57.5c4.4-1.3,8.8-2.2,13.3-2.9
		c2.1-0.3,4.2-0.7,6.4-0.7c6,0.1,11.7,3.1,16,7.2c1.7,1.6,3.4,3.6,3.6,5.9c0,0.1,0,0.2,0,0.3c-0.1,0.1-0.3,0.2-0.5,0.2
		c-2.7,0.1-5.6,0.2-7.8-1.3c-1.5-1-2.6-2.7-4.3-3.5c-0.8-0.4-1.6-0.5-2.4-0.7c-3-0.5-6-0.9-9-0.7c-3,0.2-6,1-8.6,2.6
		c5.9,1.8,10.5,6.8,16,9.6c3.3,1.7,7.1,2.8,10,5.1c1.4,1.1,2.6,2.5,4.1,3.5c1.5,1,3.3,1.6,5,2.3c2.2,1,4.2,2.2,6.1,3.6
		c4,2.7,7.8,5.7,11.3,8.9c1.8,1.7,3.6,3.4,5.4,5.2c0.5,0.5,1.6,2.2,2.3,2.3c1.2,0.1,0.4-1.4,0.1-2.1c-0.7-2.2-1-4.4-1.4-6.6
		c-0.8-5.2-1.6-10.4-2.5-15.5c-0.3-1.7-0.5-3.4-0.7-5.1c-0.1-1.1-0.2-2.2-0.4-3.3c-0.3-1.4-1-2.6-1.5-4c-1.4-3.8-1.7-7.9-3.4-11.6
		c-4.4-0.9-8.7-1.5-13-2.8c-0.9-0.3-1.9-0.6-2.7-1.1c-0.6-0.4-1.1-0.9-1.5-1.4c-3.4-3.8-6.3-8.2-9.9-11.8c-2.2-2.2-4.9-4.2-6.1-7.1
		c-0.7-1.8-0.9-3.7-1.1-5.6c-0.1-0.8-0.2-1.6-0.7-2.2c-0.3-0.4-0.8-0.7-1.3-0.9c-1.4-0.7-2.8-1.3-4.3-1.9c-1.8-0.7-3.8-1.3-5-2.9
		c-1.1-1.4-1.1-3.3-1.1-5.1c0-2.4-0.5-4.9-2-6.8c-1.5-1.8-3.5-3.2-5.3-4.8c-1.5-1.4-2.9-3.1-4.3-4.6c-0.9-0.9-1.8-1.7-2.3-2.8
		c-0.4-0.8-0.5-1.7-0.6-2.6c-0.6-5.4-1.3-10.8-1.9-16.2c-0.1-1.3-0.3-2.6,0-3.8c0.3-1.4,1.1-2.5,1.9-3.7c1.6-2.3,3.3-4.8,5.8-6.3
		c2.6-1.6,5.6-2,8.6-2.4c1.9-0.3,3.8-0.5,5.6-0.1c1.5,0.3,2.8,1.1,4.3,1.3c3.1,0.4,6.5-1.6,9.3-0.1c0.7,0.4,1.3,1,1.9,1.6
		c2.5,2.6,5,5.1,7.4,7.7c0.3,0.4,0.7,0.7,1.2,0.9c0.4,0.1,0.8,0,1.3,0c2.7-0.5,5.3-1,8-1.5c0.5-0.1,1-0.2,1.4-0.5
		c0.6-0.5,0.6-1.4,0.9-2.2c0.9-2.5,4.3-3.1,6.8-2.3s4.6,2.6,7.1,3.6c1.1,0.4,2.4,0.7,3.5,1.2c1.4,0.7,2.6,1.8,3.6,3
		c1.6,1.8,3,3.9,3.4,6.3c0.2,1.3,1.4,2,2.6,2.5c1.2,0.5,2.5,0.8,3.6,1.4c2.5,1.4,3.8,4.2,5,6.8c1,2.2,2,4.5,2.2,7
		c0.2,2.5-0.5,5-1.4,7.3c-2,5.6-5,11-5.6,17c-0.1,0.9-0.1,1.9-0.3,2.8c-0.6,3.1-2.6,5.8-4.6,8.2c-3,3.8-3.5,9.3-6.7,13
		c-1.4,1.7-3.1,3.3-3.7,5.4c-0.5,1.6-0.4,3.3-0.2,5c0.9,9.5,2.6,18.8,4.1,28.2c0.4,2.7,0.9,5.4,1,8.1c0.1,2.4,0,4.9,0.2,7.3
		c0.4,4,1.7,7.9,3.1,11.7c0.4,0.9,0.7,1.8,1.4,2.5c0.6,0.6,1.4,1,2.2,1.3c1.7,0.8,3.4,1.7,4.7,3s2.1,3.3,1.7,5.1
		c-0.2,0.7-0.5,1.4-0.7,2.2c-0.1,0.5-0.2,1-0.5,1.3c-0.3,0.3-0.7,0.3-1.1,0.3c-2.4,0-4.8-1.2-6.3-3.1c0.9,6.8,1.3,13.6,1.9,20.4
		c0.2,2.7,0.5,5.4,0.7,8.2c0,0.3,0.1,0.6,0.3,0.8c0.1,0.1,0.4,0.2,0.6,0.2c3.2,0.7,6.7,0.1,9.5-1.5c0.5-0.3,1-0.6,1.6-0.5
		c0.8,0.1,1.3,0.8,1.3,1.6s-0.4,1.5-1,2c1.3-0.9,2.6-1.9,4.1-2.2c1.5-0.4,3.3-0.1,4.3,1.2c0.3,0.4,0.5,0.9,0.9,1.2
		c0.8,0.7,1.9,0.5,2.9,0.3c0,1.6,0,3.2,0.1,4.7c0.1,4.5-0.8,9.8-0.5,14.3c5.2-1.2,10.6-2.4,15.7-1c3.2,0.9,6,2.8,9.2,3.7
		c8.7,2.4,17.4-3.1,26.2-5.4c2.5-0.6,5.1-1,7.6-0.7c6.5,0.8,11.7,6.2,13.7,12.5c2,6.2,1.2,13-0.7,19.3c-0.8,2.5-1.8,5-2,7.7
		c-0.4,4.8,1.6,9.6,1.7,14.5c0.1,5.3-2.1,10.5-4.2,15.4c-2.3,5.3-4.7,10.7-7.8,15.6c-6.4,10-16.2,18.5-18.1,30.2
		c-0.6,3.6-0.4,7.6-2.5,10.7c-1.7,2.5-4.5,3.8-7.2,5.1c-5.8,2.7-11.6,5.4-17.5,8.1c-50.7-1-102.4,0.8-153.1-0.2
		c-9-0.2-18-0.3-26.9-0.5c-34.1-0.5-68.1-0.7-102.2-0.8c-24.4-0.1-48.8-0.2-73.2-0.3c-2.3,0-4.7,0-6.6-1.2c-2.1-1.2-3.4-3.3-4.6-5.3
		c-6-10.1-12-20.2-18.1-30.3c-6-10.1-20.7-14.4-32.3-13c-11.6,1.4-22.1,9.9-25.8,21.1c-1.8,5.5-2.1,11.5-5,16.5
		c-4.3,7.4-13.3,10.6-21.7,12.6c-26.9,6.3-55.4,5.9-82-1.3c-9-2.4-17.8-5.6-27-7.1c-8.8-1.5-17.7-1.4-26.6-1.3
		c-24.4,0.2-48.7,0.3-73.1,0.5c-7.8,0.1-16.2-0.1-22.4-4.8c-6.4-4.8-8.8-13.2-10.8-21c-4.7-18.6-9.5-38.3-3.9-56.6
		c4.7-15.5,16.5-28.4,19.9-44.3c0.8-3.9,1.2-8,3.3-11.3c2-3,5.2-5,8.3-6.8c15.2-8.4,32-14,49.2-16.3c8.4-1.1,18.4-2.5,22.2-10
		c1.3-2.7,2-6.1,4.6-7.4c4.7-2.2,8.5,4.3,9.6,9.3c0,0.1,3-1.7,3.2-1.9c1.1-0.9,2.1-1.9,2.9-3.1c0.6-0.9,1.1-3.1,1.8-3.7
		c0.3-0.2,1.2-0.2,1.6-0.4c0.7-0.3,1.2-0.9,1.6-1.5c0.7-1,1-2.3,1.2-3.5c1.4-7.4,0.9-15,1.3-22.6c0.3-5.6,1.1-11.2,2.4-16.7
		c0.5-2.1-0.6-4.3-0.1-6.4c0.3-1.5,0.9-3,1.1-4.6c0.2-1,0.2-2.1,0.2-3.2c0-2.2,0.1-4.4,0.1-6.6c0.1-3.5-2.5-7.1-3.8-10.4
		c-0.7-1.7-1.3-3.3-1.6-5.1c-0.3-1.8-0.1-3.7-0.3-5.5c-0.3-2.8-1.6-5.4-2-8.2c-0.2-1.6-0.1-3.2-0.1-4.8c-0.1-6.3-2.2-12.5-2.6-18.8
		c-0.3-3.6,0.8-7.5,1.2-11.1c0.4-3.9,1.6-8.7,0.7-12.6c-1.9,2.2-4,4.2-5.8,6.4c-0.7,0.8-1.4,1.7-2.4,2.1c-1,0.5-2.3,0.4-3-0.4
		c-1-1.1-0.4-3.1-1.3-4.3c-0.5-0.7-1.4-0.9-2.1-1.3c-2.4-1.2-3.6-4-3.7-6.7s0.7-5.3,1.5-7.8c1.5-4.7,3-9.6,6-13.5
		c1.1-1.4,2.3-2.8,3.1-4.4s0.9-3.7-0.3-5.1c-1.1-1.4-3.1-1.7-4.8-1.4s-3.2,1.2-4.8,1.9c-5,2.3-10.6,3.1-16,3.9
		c-2.8,0.4-5.7,0.8-8.5,0.4c-3.9-0.6-7.3-2.8-10.7-4.9c-3.5-2.2-7.1-4.5-10.6-6.7c-2.1-1.3-4.2-2.6-6.1-4.1c-3.4-2.7-6.4-5.9-10.1-8
		c-0.9-0.5-2-1-2.6-1.9c-0.6-0.8-0.8-1.8-0.9-2.7c-0.4-2.3-0.9-4.7-0.5-7.1c0.3-2.4,1.6-4.7,3.7-5.8c1.8-0.9,4.1-0.9,5.3-2.6
		c1.1-1.6,0.3-3.9-1.1-5.2c-0.5-0.5-1.1-0.8-1.6-1.2c-0.7-0.6-1.1-1.3-1.6-2c-0.7-1.1-1.5-2.2-2.2-3.3c-1.1-1.6-2.3-3.6-1.5-5.5
		c0.3-0.7,0.8-1.2,1.3-1.8c1.6-1.8,3.2-3.5,4.8-5.3c1.2,0.6,2.1,1.8,3.1,2.7s2.5,1.6,3.7,1.1c1.5-0.6,1.9-2.5,3-3.7
		c0.8-0.8,1.9-1.4,2.3-2.4c0.8-2.1-1.9-3.9-2.1-6.2c-0.1-2.1,2.2-3.6,4.3-4s4.4-0.1,6.3-1.1c2.9,1.1,5.5,0.3,7.8-1.6
		c0.5-0.4,1-0.9,1.5-1.1c1.1-0.5,2.3-0.2,3.5-0.5c2.6-0.6,3.5-3.7,5.4-5.5c4.1-3.8,11.1-0.9,16.2-3.3c1.5-0.7,2.8-1.8,4.4-2.4
		c0.5-0.2,1.1-0.3,1.6-0.1c0.5,0.2,1,0.6,1.4,0.9c1.8,1.5,4.3,1.8,6.6,2.1c3.8,0.6,7.5,1.4,11.2,2.3c0.8,0.2,1.5,0.4,2.1,0.9
		c0.9,0.8,1.2,2.1,1,3.3c-0.1,1.2-0.6,2.4-0.7,3.6c-0.1,0.4-0.1,0.9,0.1,1.3c0.1,0.5,0.4,0.9,0.7,1.3c1.6,2.4,3.1,4.7,4.7,7.1
		c1.6,2.4,3.9,4.1,6.5,5.3c5.2,2.3,9.1,6.8,13.7,10.2c5.5,4,12,6.4,18.4,8.6c3.5,1.2,7,2.4,10.5,3.6c2.2,0.8,4.5,1.5,6.5,2.7
		c1.9,1.1,3.5,2.5,5.4,3.6c2.6,1.4,5.5,2.1,7.9,3.8c2,1.5,3.4,3.6,4.8,5.6C930.8,3952.5,937.7,3961.7,940.5,3971.9z"/>
	<path id="paya" class="st0" d="M1686.9,4772.6c0,0-2.7-17.1,2.7-26.1s51.2-54.9,65.1-67.2c13.9-12.3,43.7-44.8,66.7-62.4
		c22.9-17.6,34.4-29.6,50.8-44s12.8-22.4,26-36.8c13.2-14.4,21.2-22.8,27.6-31.2c6.4-8.4,15.6-18,22.4-28.4c6.8-10.4,13.6-16,16-29.6
		s20,10.4,21.2,17.2c1.2,6.8-0.8,15.2,7.6,32.4s21.6,26,27.2,34.8c5.6,8.8,13.2,26.4,17.6,28c4.4,1.6,13.2,14.4,18.4,16.8
		c5.2,2.4,8.8,18.4,14.4,21.6c5.6,3.2,8.8,9.6,17.6,20.4c8.8,10.8,27.2,30.4,37.2,33.6c10,3.2,16,13.6,34.4,35.2
		c18.4,21.6,32.8,31.6,45.6,40.8c12.8,9.2,20,25.9,18.8,44.9c-1.2,19.1,4.4,15.1-5.6,16.7c-10,1.6-9.2,0.8-19.6,0
		c-10.4-0.8-14,0.9-14,0.9v31.6h-2.7v58.7h1.6v18l-16.2,7.8v-8.8l-11.8,6.8v19.8l-1.8,2.4l90.5,29.9l73.7-18.4
		c0,0,31.7,8.7,40.8,12.4s51.1,23.5,51.1,23.5v16.7l-1.3,1.7v28.1l-22.4-6.9l-67.1,55.1l-1.2,33.6l-24.3-10.5l1.3-28.7l-71.5-28.3
		l-1.7,32.5l-22.8-10.9l2.9-30.7l-67.6-31.6l-2.5,31.5l-19.7-10.7l3.2-27.2c0,0-22.7-5.6-40.1-15.7c-17.5-10.1-36.3-19.1-36.3-19.1
		l0.7,18.1l-12.4,2c0,0,2,14.5-12,18.3s-36.9-1.6-42-5.6s-32-11.2-42-38.7s4.9-38,4.9-38s-70.8-3.7-78.5-5.3
		c-7.7-1.6-17.3-5.1-25.3-2.9s-52-4-52-4l0.5,41.3l-12.5-0.5l-8.7-2.1l0.4-42.1c0,0-12.7-0.4-18.9-5.5l-0.4,21.5l-13.9-1.9l3.2-28.3
		l1.7-99.3C1732,4779.7,1699.6,4781.6,1686.9,4772.6z"/>
	<path id="yaigoje" class="st0" d="M4335.3,5309.7c0,0-21.6-56.4,0-117.2c21.6-60.8,31.8-87.8,71.8-133.4c0,0-6.4-27.6,5.2-31.4
		c11.6-3.8,27.6,17,27.6,17s25.4-2.4,47.4,7.6c0,0,9.2-9.6,12.8-9.2s0,16.2,0,16.2s9.6,5.8,12.2,10c2.6,4.2,2.2,14.6,2.2,14.6
		s15,19.8,14.8,25.6c0,0,5.8,1.6,4.4,6c-1.4,4.4-6.2,8.2-6.2,8.2s-0.2,10.8-9.2,19.2s-9,10.6-16.8,11s-23-6.6-23-6.6l-11.8,9.2
		c0,0-1.4,17.2,6,23c7.4,5.8,15,13.8,22.4,16.8s29.8,16.2,35.6,18c5.8,1.8,30.6,17.4,37.8,26c7.2,8.6,18.2,15.2,27.6,30
		c9.4,14.8,8.6,16,16.4,22.8c7.8,6.8,9.4,25.6,9,31.6s-1.2,35-1.2,35s16.4-7.8,25.4-19.6c9-11.8,37.2-41.8,42.4-48.4
		c5.2-6.6,23.6-30.8,47.4-34c23.8-3.2,39,9.2,42.4,14.6c3.4,5.4,14.6,22,9,33.2s-10.4,21.2-21.6,21.6c-11.2,0.4-20-4.6-15.6-12
		c4.4-7.4,7.2-5.4,7.4-13.2c0.2-7.8-9.6-12.4-15-11.6c-5.4,0.8-18.4,13.4-26,19c-7.6,5.6-22,24.6-25.4,31.4
		c-3.4,6.8-18.6,24.2-21.8,29.6c-3.2,5.4-26,30-41.2,34.4c-15.2,4.4-26.8,6.4-26.8,6.4s-10.6,20.2-12.2,25.8c-1.6,5.6,4,8.4,6.2,10.8
		c2.2,2.4,6,11.8-1.6,17.2c-7.6,5.4-19.4,10.2-30.6,10.2c-11.2,0-16.6,9.8-22.8,10.8c-6.2,1-19.6,3.4-28.8-2.8
		c-9.2-6.2-15.6-7.8-12.4-19.4c3.2-11.6-16.4-3-18.8-1.8c-2.4,1.2-7,9.8-19.8,6.2c0,0-11,1.4-16.8-2.8c-5.8-4.2-15.6-8.4-13-18
		c0,0-5.6,5-6.2,10s-2.6,7.2-1.4,17.8c1.2,10.6-12,16.8-16.6,18.6c-4.6,1.8-17.4-1.2-17.4-1.2s-2.8,3-12.4,3
		c-9.6,0-14.2-5.8-14.2-5.8s-8.8,0-10.2-5.6c0,0-25.2,6.2-29.4-0.4c0,0-12.8,0.2-14.2-5c0,0-10-6-3.4-15.2s23.4-3.4,26.2-4.8
		c2.8-1.4,8.4-7.4,11.2-15.2c2.8-7.8,0.2-26.2,0.2-41.2s-3.2-27-4.4-34.6c-1.2-7.6-1.4-14.2-1.2-24.6
		C4337.1,5332.7,4335.3,5309.7,4335.3,5309.7z"/>
	<path id="rio_pure" class="st0" d="M4068.2,5795c0,0,97.6,2.7,143.5,0c45.9-2.7,99.7-4.3,99.7-4.3s-0.1-16.7,17.1-14.5l27.6-37.6
		c0,0,1.5-2.4,5.2,0.7c3.7,3.1-1.3,7.6-1.3,7.6l-23.5,33.2c0,0,3.2,0.9,3.2,8.7l28.1-2.1c0,0-3.7-10.1,1.5-12.5
		c5.2-2.4,6.9,10.9,6.9,10.9s56.5-4.7,69.9-6.7c13.3-2,64.8-9.2,64.8-9.2l27.6,24.7l25.7,24.4c0,0-22.9,32.5-31.3,38.3
		s-20.4,21-54.4,27s-71,15-71,15s8.2,21.9,1.6,23.8c-6.6,1.9-11.6-21.2-11.6-21.2s-24,3.3-33,5.1c-9,1.8-39.7,4.4-55.5,4.7
		c-15.8,0.3-69.5-1.4-78.5-1.8s-69.7-10.9-95.6-27.7c-25.9-16.8-48.3-37.9-58.1-61.1S4068.2,5795,4068.2,5795z"/>
	<path id="purace" class="st0" d="M1667.3,4427.3c0,0-31.6-8.8-29.6-34c2-25.2,33.4-52.8,42.4-55.4s50.4-9.6,61.8-12.2c11.4-2.6,33-3.2,49.2-3.2
		c16.2,0,29.4-0.4,34.8-2.6c5.4-2.2,25-4.2,48.4,1.6c0,0-4.6-6-1.2-12.8c3.4-6.8,9-12.4,17-14c8-1.6,28.2-3.2,34-3.2
		c5.8,0,37.2-2.4,54.6-5.4c17.4-3,26.8-3.4,42.2-5s31.2,1.8,36,2.8c4.8,1,8.8-6.6,15.8-6.4s7.8-1,16.4,0c8.6,1,10,3.8,16.2,2.4
		s6-2.8,18.6-2.8c12.6,0,22.6-0.6,36,5c13.4,5.6,12.6,6.6,5.6,10.6s4.2,5.4,7.8,5.4c3.6,0,12.8,3.8,27.8-1.8
		c15-5.6,56.2-0.6,66.6,0.4c10.4,1,22.6,5.2,34.8,8.6c12.2,3.4,28,11.6,28,14.4c0,2.8,1.4,7.8,0,10.4s4.2,5.6,4.2,8.4s1,6.6-7.6,6.8
		c-8.6,0.2-0.2,2.2,11,3.2c11.2,1,36.6,11.8,46.6,13s18.6,6.4,14.2,12c0,0,8.4,6.4,4.8,15.2c-3.6,8.8-5.4,17.2-12.8,19.4
		c-7.4,2.2-31.2,3.2-31.2,3.2s-1.6,5-5.6,7.2c0,0,2,4.8,5.2,7.6c3.2,2.8,2.8,9.4,1.4,14.8c-1.4,5.4,1,9.2,1,9.2s23.6-5.2,38.8-3.2
		s24.2,4.4,24.2,4.4s-3.2-16.6-1.6-22.4c1.6-5.8,11.6-17.4,19.2-19.6c7.6-2.2,13.6-4.8,13.6-4.8s-13.6,0.8-21.6,0.8
		s-16.4-5.2-16.2-15c0.2-9.8-3.8-16.8-2.4-22c1.4-5.2,8.8-7,15.2-9.8c6.4-2.8,21.6-7.6,33-12.6c11.4-5,17.6-2.6,25.6-2.4
		s21.2-3.2,28.2-3.2s22.2,5,28.6,7.2c6.4,2.2,19.2,1.8,24,2.8s16,4.8,16,18.6c0,13.8,1.4,9,3,13.2c1.6,4.2,3.2,9.6,1.2,12.2
		c-2,2.6-6.2,3.8-6.2,3.8s3.4,9.2-17.4,9.2c0,0,2.4,0.6,18.4,5.2s23.4,13.4,25.4,21.6c2,8.2-0.4,18-1,26.6c-0.6,8.6,0,10.8-5.4,12.6
		c-5.4,1.8-46.8,1.8-68.2,0c-21.4-1.8-38.8-1-38.8-1s19.8,7.8,32.4,10.4c12.6,2.6,28,4.8,39.6,13c11.6,8.2,10.8,7.6,21.6,20.6
		c10.8,13,13.4,13.8,13.4,25.6c0,11.8-0.4,11.2,1.2,20.8c1.6,9.6,0.6,23.4-8.4,26.6c0,0-4.4,2-5.6,9.8c-1.2,7.8-3,18.8-10.4,22.6
		c-7.4,3.8-19.2-5.6-30.4-4.6s-44.8-7.2-56.6-13.4c-11.8-6.2-51.2-16.6-71.6-19.2s-49.2-12.9-74-19.1c-24.8-6.1-65.1-16-76.5-23.5
		c-11.5-7.5-10.9-7.7-10.7-17.6s8.5-26.4,8.5-26.4s-15.5-1.6-38.4-1.1s-32.3-1.9-53.3-4.8c-21.1-2.9-79.5-16.8-86.9-27.5
		c0,0-2.4-34.7,1.1-44.8c3.5-10.1,60.8-25.1,60.8-25.1l-30.4-8v10.7l-31.2-0.3c0,0-16.5,10.1-48.5,10.1c-32,0-52.4-8.4-52.4-8.4
		s-34-4-35.6-14c0,0-7.6-9.2-5.2-18.4c2.4-9.2,0.8-13.6,16-16.8c15.2-3.2,26-7.2,26-7.2l-22.8,1.6c0,0-19.2,3.2-26.8-0.8
		s-28.8-9.6-28.8-9.6s22,6.4,18.8,27.6l-4.1-5.1c0,0,1.1,5.5-2.3,11.5s-15.3,3.8-19.5,3.8c-4.3,0-18.1-1.3-17.8,5.7
		c0.3,6.9,5.7,18.3-0.1,22.3c-5.9,4-14.7,2-28,7.3c-13.3,5.3-15.7,4.8-24,5.3c-8.3,0.5-29.6-3.7-40.5-0.5
		c-10.9,3.2-25.6,6.4-37.9,2.7c-12.3-3.7-26.4-6.1-26.4-6.1s-2.7,11.2-10.9,16.5S1682.5,4434.6,1667.3,4427.3z"/>
	<path id="cahuinari" class="st0" d="M3233.3,5764.1c0,0-22.1,2.7-20.5-9.6c1.6-12.3,2-21.9,9-33.1c7-11.2,23-19.2,29.4-30.9
		c6.4-11.7,31.5-29.9,43.2-38.9c11.7-9.1,25.1-14.4,32.5-29.3c7.5-14.9,44.3-35.2,44.3-35.2s14.4-22.4,26.7-27.7
		c0,0-4.8-2.7,13.9-18.7c18.7-16,12.8-18.7,33.6-36.8s39.5-37.3,63.5-54.9s38.4-36.8,51.5-46.7s22.9-19.5,22.9-19.5
		s39.2,22.9,66.9,45.9c27.7,22.9,62.9,48.5,73.6,60.8c10.7,12.3,28.3,27.7,46.4,38.9c18.1,11.2,47.8,44.8,63.8,51.7
		c16,6.9,37.6,35.8,50.4,46.6c12.8,10.8,7.8,18.6,20.2,22.2s30,26.4,48.8,42.8c18.8,16.4,38.4,29.2,39.6,41.6
		c1.2,12.4,6.4,17.2,6.4,17.2s1.2,8.8-5.2,9.6c-6.4,0.8-27.6-12.4-27.6-12.4l1.2,72.8c0,0,8,5.6-6.4,9.6c-14.4,4-31.2,5.2-73.6,6.4
		c-42.4,1.2-136.8,6-159.2,12s-46.8,6.4-78.4,7.6c-31.6,1.2-24.8-2.8-24.8-2.8l-9.2,6.4H3606h-26.3l-2.8-4c0,0-44.8,6.8-60.8,4
		c-16-2.8-46-8.8-67.6-6.4c-21.6,2.4-52.8,4.8-95.6,0.8c-42.8-4-71.6-13.6-94.4-19.6s-38.6-2.6-38-10.6s13.4-5.6,13.4-5.6
		L3233.3,5764.1z"/>
	<path  id="amacayacu" class="st0" d="M4128,6311.5c0,0,63.4-2.9,90.1-1.8c26.7,1.1,89.1,1.6,102.4,5.3s19.5,5.3,21.1,11.2c1.6,5.9,4,17.9,4,17.9
		l-2.9,1.9c0,0,12.3,0.5,30.7,0c18.4-0.5,109.1-1.1,127.2,0.2c0,0-4-9-1.6-14.9s7.2-8.1,9.7-8s7.3,6.8,7.3,6.8s2.8-13.3,12-16.5
		c9.2-3.2,8.5,3.9,8.5,3.9s4.3-6.9,5.9-6.9s6.9-1.5,7.7,4.7c0,0,3.3-6.4,10.4-4c7.1,2.4,11.1,8.3,9.7,11.6c0,0,5.1-1.6,9.5,2.5
		c4.4,4.1,9.7,14.3,7.2,20.1c0,0,6.1-3.2,16.1-2.8s12.1,6.1,12.5,9.6c0.4,3.5,0.9,11.1-12.5,12.5c0,0,4,1.9,12.7,2.1
		c8.7,0.3-2.4,10.7-8,10.7c0,0,0.5,2.7,4.1,4.7c3.6,2-4.1,2.8-4.1,2.8s2.7,1.9,1.9,4.9c-0.8,3.1-2.8,3.2-2.8,3.2s2.4-2,8.1,1.6
		s-2.7,9.2-7.7,13.3c-5.1,4.1-63.7,6.7-63.7,6.7h-157.7c0,0-15.9,3.7-10.3,5.3c5.6,1.6,24,0.8,44.3,2.4c20.3,1.6,61.9,10.4,68,21.3
		l0.4,8.9c0,0,8,8.6,3.8,17c-4.2,8.4-5.2,13.2-28.8,13.2s-43,2.4-67.8,4.4c-24.8,2-80.8,0-122.4,0s-64,2.4-88.4-4.4
		c-24.4-6.8-56-3.6-85.2-26.4c0,0,0.1-10.5,7.6-20.9c7.5-10.4,19.3-13.9,56.4-14.4c37.1-0.5,42.8-2.7,63.3-3.5
		c20.5-0.8,22.4-0.3,73.9,0.3c51.5,0.5,67.7,1.9,67.7,1.9v-5.6c0,0-39.7,0.3-54.1-3.2c-14.4-3.5-78.4-8.3-85.6-26.7l5.1-18.1
		c0,0-58.1-1.1-75.2-1.1c-17.1,0-29.7-0.1-46.3,0.7c-16.6,0.8-35-0.4-46.6-3s-26.4,1.6-29.8-10.2c0,0,0.2-5.4,4.2-5.4
		c-0.5-0.1-0.8-0.4-1-0.8c-0.2-0.4-0.4-0.8-0.3-1.2c0.1-0.5,0.6-0.9,1.1-1.1c0.5-0.2,1-0.3,1.5-0.6c0.4-0.3,0.8-0.9,0.6-1.4
		c-0.2-0.5-0.8-0.7-1.3-0.7c-0.5-0.1-0.9,0-1.4-0.1s-0.9-0.3-1.1-0.7s-0.2-1,0.2-1.2c0.2-0.1,0.3-0.1,0.5-0.1c0.6-0.1,1.3,0,1.9-0.1
		s1.2-0.7,1.1-1.4c-0.1-0.5-0.6-0.9-1.1-1c-0.5-0.1-1-0.1-1.6-0.2c-1.7-0.3-2.8-1.8-3.9-3.1c-0.6-0.8-1.3-1.7-1.5-2.7
		c-0.2-1,0.1-2.2,0.9-2.8c0.4-0.3,0.9-0.3,1.4-0.4c2.2-0.3,4.4-0.4,6.7-0.3c-1.1-0.7-2.2-1.6-3-2.6c-0.4-0.5-0.7-1.1-1.1-1.7
		c-1.2-1.8-3.1-3.3-3.3-5.5c-0.1-1,0.2-1.9,0.6-2.8c0.9-2,2.3-3.7,4-5c0.4-0.3,0.7-0.5,1.1-0.6c0.5-0.1,1-0.1,1.5-0.1
		c2.7,0,5.4,0,8.1,0.1c1.6,0,3.3,0.1,4.6,1c0.7,0.5,1.3,1.3,2.1,1.6c0.6-3.6,1.1-6.9,2.1-10.4c0.4-1.6,1-3.3,2.2-4.5
		c0.8-0.8,1.9-1.3,3-1.8c1.1-0.5,2.2-1,3.2-1.5c1.1-0.5,2.4-1,3.6-0.8c0,0,6.3-14.4,15.8-6.8c0,0,5.1-5.9,11.1,1.7c0,0,3.3-5.9,8.8-1
		c5.5,4.9,8.5,9.4,7.9,11.6c0,0,2.7-6.7,9-2.9C4130.5,6298.7,4128,6311.5,4128,6311.5z"/>
	<path id="pisba" class="st0" d="M2960.8,2970.5c6.4-15.9,12.9-31.9,22.4-46.1c5-7.4,10.7-14.2,15.8-21.5c8.2-11.8,14.7-25,17.6-39
	c0.7-3.3,1.2-6.7,3.1-9.4c1.6-2.2,3.9-3.8,5.9-5.7c6.2-6,7.9-14.7,9.9-22.8c1.8-7.4,5.8-17,10.4-23.1c3.2-4.2,8.5-7.3,13.8-6.4
	c3.5,0.6,6.5,2.8,9.8,3.8c2.6,0.9,6.3,0.8,8.4-1.3c1.2-1.2,0.9-2.5,1.5-3.9c0.7-1.6,1.9-3,3-4.3c5.1-5.9,12.1-10.3,19.7-12.3
	c1.8-0.5,3.6-0.8,5.1-1.8c2.5-1.6,3.7-4.6,5.6-6.8c2.4-2.8,5.9-4.3,8.7-6.7c5-4.3,7.3-11.1,11.7-16.1c2.7-3.1,6.3-5.5,9-8.7
	c1.5-1.7,2.7-3.6,4-5.4c3.3-5,6.7-10,10-15c4.8-7.2,10.7-11.7,17.2-17.4c4.2-3.7,7-8.8,11.4-12.3c4.4-3.5,11.4-4.9,15.2-0.8
	c1.6,1.7,2.3,4,4,5.6c6.6,6.1,18.6-5,25.8,0.4c1.3,0.9,2.1,2.3,3.1,3.5c4.2,5,10.5,7.6,16.5,10c12.6,5,25.3,10.1,38.3,13.9
	c18.9,5.4,38.5,8.1,58.2,9c14.2,0.6,28.6,0.4,42.4-3.2c18-4.6,34.6-14.7,46.8-28.7c0.7-0.8,1.6-1.1,2.6-1.4c0.3-0.1,0.7-0.2,1-0.4
	c0.2-0.1,0.3-0.3,0.5-0.4c0.2-0.1,0.4-0.1,0.6-0.1c0.9,0,1.7,0,2.6,0c0.3,0,0.7,0,1,0.1c0.4,0.1,0.7,0.4,1,0.7
	c1.1,0.9,2.4,1.7,3.7,2.3c1.2-2,1.9-3.5,3.1-5.5c1.6-2.6,4.6-5.2,6-7.8c0.8-1.6,1.4-3.4,2.8-4.5c3.6-2.6,6.2-5.7,10.6-5.8
	c6.4-0.3,12.4,3.7,16.4,8.8c1,1.3,2,2.6,3.1,3.8c1.1,1.1,2.5,2.1,3.8,3c3.2,2.2,6.3,4.4,9.5,6.6c2.5,1.8,5.9,4.4,9.1,4.1
	c4-0.4,7.5-1.8,11.4-0.2c2.4,1,4.3,2.9,6.6,4.2c1.2,0.7,2.5,1.2,3.8,1.9c3.1,1.6,6.1,4,8.4,6.6c1.5,1.6,2.6,3.6,4.2,5.1
	c1.6,1.5,3.9,0.9,6,0.9c1.9,0,3.4-0.6,5.2-0.6c1.3,0,2.5,0,3.7,0.4c3.1,1.1,5.6,4.2,8,6.3c2.9,2.5,6.8,3.9,10.6,3.6
	c2.2-0.2,4.4-0.9,6.5-0.2c1.6,0.6,2.8,1.9,4.1,3c3.6,3,8.3,4.5,12.8,5.8c8.1,2.3,16.3,4.5,24.4,7.1c6.2,2,12.2,4.2,18.2,6.7
	c2.5,1,4.7,2.3,7.4,3.1c3.1,0.9,6.1,1.9,8.9,3.4c2,1.1,3.8,2.4,5.7,3.5c5.5,2.9,11.8,3.6,17.6,6c1.6,0.6,3.1,1.4,4.6,2.1
	c8,3.5,17.1,4.7,24.2,9.7c2.2,1.6,4.5,3.5,7.2,3.6c3.8,0.1,6.9-3,9.5-5.9c2-2.2,3.6-5.1,6.4-6.1c2.1-0.8,4.4-0.5,6.4,0.5
	c2,0.9,3.7,2.4,5.3,4c1,0.9,1.9,1.9,2.3,3.2c0.3,1.2,0.1,2.4,0.4,3.6c0.4,1.5,1.5,2.7,2.7,3.7c1.2,1,2.6,1.8,3.7,2.9
	c1.4,1.4,2.4,3.1,3.3,4.9c2.3,4.1,4.8,8.1,7.4,12.1c0,0,4.8,5.6,12.1,9.5c7.3,3.9,12.3,11.1,12.1,19.7c-0.1,8.7-6.8,32.1-1.3,44.9
	c5.5,12.8,29.1,58.7,35.5,72.5c6.4,13.9-9.1,33.9-25.3,32.3c-16.3-1.6-25.6-6.1-38.7-3.7c-13.1,2.4-22.9,8.5-42.4,6.1
	c-19.5-2.4-34.9,7.5-48.3-0.5s-49.9-6.1-69.6-2.7c-19.7,3.5-40.8,4.8-70.4,8.5s-33.9,4.5-82.9,2.4s-50.4-3.5-72.8-2.4
	c-22.4,1.1-44.5,2.4-66.4,2.4s-62.4,0.7-69.9,1.2c-7.5,0.4-125.1-10-149.9-11.8c-24.8-1.9-53.3-5.1-77.3-4s-35.7,4.3-43.5,0.3
	C2963.2,2976.4,2960.8,2970.5,2960.8,2970.5z"/>
</g>
</svg>
