<?xml version="1.0" encoding="utf-8"?>
<!-- Generator: Adobe Illustrator 27.7.0, SVG Export Plug-In . SVG Version: 6.00 Build 0)  -->
<svg version="1.1" id="Capa_1" xmlns="http://www.w3.org/2000/svg" xmlns:xlink="http://www.w3.org/1999/xlink" x="0px" y="0px"
	 viewBox="0 0 4744.4 6468.4" style="enable-background:new 0 0 4744.4 6468.4;" xml:space="preserve">

<g xmlns="http://www.w3.org/2000/svg" id="nopointer_1_">
	<image style="overflow: visible; transform: matrix(1.331, 0, 0, 1.331, -880, 3)" id="nopointer_2_" xmlns:xlink="http://www.w3.org/1999/xlink" xlink:href="maps_etnias/etnias.webp"></image>
</g>
<g style="transform: translate(-885px, 0px) !important;" id="landmarks-departments">
	<path id="wayuus" class="st0" d="M3278.7,533.2c0.2-6.7,0.1-13.3-0.2-20c-0.1-2.2-0.2-4.4-0.8-6.4c-0.6-2-1.6-3.8-2.1-5.8
		c-0.1-0.6-0.2-1.2-0.5-1.7c-0.3-0.5-1-0.8-1.5-0.5c-0.5,0.3-0.6,0.9-0.8,1.4c-0.7,2.1-3.2,3-5.3,2.9c-2.2-0.1-4.2-1-6.4-1.4
		c-1.4-0.3-2.8-0.4-4.2-0.7c-2.7-0.5-5.2-1.4-7.8-2c-2.6-0.6-5.4-0.8-8,0c-0.3,0.1-0.5,0.2-0.7,0.4c-0.3,0.3-0.4,0.8-0.5,1.3
		c-0.3,1.2-0.9,2.4-1.7,3.3c-0.7,0.8-1.5,1.1-2.6,1.1c-1.5,0-2.9-0.6-4-1.6s-2-2.2-2.9-3.4c-0.7-0.9-1.3-1.8-2-2.8
		c-0.5-0.8-1.1-1.5-1.4-2.4c-0.3-0.9-0.2-2-0.8-2.8c-0.5-0.7-1.4-1.2-1.4-2.1c0-0.8-0.1-1.4-0.5-2s-0.7-1.3-0.9-2.1
		c-0.3-1.1-0.1-2.3,0.3-3.4c0.4-1.1,1.1-2.1,1.8-3c1-1.4,2-2.8,3.1-4c0.9-0.9,1.8-1.7,2.4-2.8c0.2-0.4,0.3-0.8,0.5-1.2
		c0.6-1.8,1.1-3.6,1.5-5.4c0.5-1.9,1.8-3.7,2.7-5.4c0.6-1.2,1.2-2.3,2.1-3.3c1-1.2,2.3-2,3.5-3c1.6-1.3,3.2-2.7,4.8-4
		c2.8-2.5,5.6-5,7.9-7.9c1.5-1.9,2.8-3.9,4.4-5.8c1.2-1.5,2.6-2.9,3.9-4.4c0.9-1.2,1.8-2.5,2.5-3.8c3.3-5.4,6.2-11.2,11.1-15.3
		c0.9-0.7,1.8-1.4,2.3-2.4c0.8-1.6,0-2.6-0.9-4c-1-1.6-1.9-3.3-2.9-4.9c-0.9-1.5-1.8-3.1-2.7-4.6c-0.7-1.2-1.2-2-0.6-3.3
		c0.6-1.3,1.3-2.5,2.1-3.6c1.4-1.8,3-3.3,4.7-4.7c0.9-0.7,1.7-1.5,2.7-2.1c0.9-0.6,1.2-1.1,1.8-2c0.5-0.7,0.9-1.5,1.5-2.1
		c1.1-1.2,2.6-2,3.9-3c2.2-1.8,3.6-4.3,5.6-6.3c1.6-1.6,3.6-2.8,5.8-3.6c3.3-1.1,5.7-4.2,8.6-6.1c1-0.7,2.1-1.4,2.8-2.4
		c0.3-0.5,0.6-1,1-1.5c0.4-0.5,0.9-0.8,1.4-1.1c1.9-1.1,4-1.8,6.2-2.1l15.5-17c0,0-1.1-2.7,0.7-4.8c1.7-2.1,5.1-5.7,6.8-8.7
		c1.7-3,5.9-9.1,9.6-12.9c3.7-3.7,14.6-12.5,16-15.7c1.4-3.2,7.5-11.3,11.8-16.5s13.9-15.1,13.9-15.1s-22.8-4.5-48-22.1
		s-20.1-35.7-20.1-35.7s-3.3-9.2,30.3-18.8c33.6-9.6,36.1-5.3,36.1-5.3s-2.7-12.3,5.9-19.2c0,0-3.6-4.8,6.1-15.3c0,0-1.6-2.5,1.4-3.9
		c3-1.4,5.4-1.5,5.4-3.6c0.1-2.1,0.3-11.3,2.3-15.2c2-3.9,3.5-8.3,8.2-13.2s12.8-7.8,17.1-9.8s13.3-3.2,16.1-3.8s15.9-1.5,27.3-1.2
		c11.3,0.3,26.3-0.5,44,15.2s16.5,37.7,15.6,41.3c-0.9,3.6,3.1,6.9,5.5,9.9c2.4,2.9,4.7,7.9,2.7,10.4c-2,2.5-4,2-0.3,6.9
		c3.7,4.9,2,11.3,2,11.3s13.7,4.3,19.1,5.1c5.3,0.8,12.4-0.5,16.3,1.9s9.9,2.8,15.6,7.5c5.7,4.7,9.9,12.5,9.9,19.3s0.9,12-16.8,27.5
		c-17.7,15.5-35.6,16.5-40.8,18.8S3530,274,3530,274s8.7,2.3,15.3,9.9c6.7,7.6,12.7,2.9,21.6,0.3c0,0,6-0.5,6.7,2.4
		c0.7,2.9,4.7-0.3,9.5-1.4c4.8-1.1,12.4-1.9,15.4,0.2c3,2.1,5.6,4.8,5,13.3s8.3,18,11.9,22.5c3.6,4.5,9.2,3.9,18.7,18.4
		s18.8,21.8,21.9,24.7c3.1,2.9,4.5,7.6,4.6,10.6c0.1,3,2,17.1,4.3,22c2.3,4.9,4,11,4.5,17.3c0.5,6.3,2.3,14.7,4.6,22
		c2.3,7.3,2.6,6.9,4.1,7.5s2.4,4.3,1.4,12.5c-1,8.2-0.5,17.8,4.7,24.7c5.2,6.9,8.3,18.2,8.4,18.8c0.1,0.6-26.7,9.6-35.5,9
		c-8.8-0.6-52.4,3.9-75.6-6s-30.2-26.6-30.2-26.6s-7.1,10.3-32.5,4.1c0,0-12.3,19.6-43.2,16.7c0,0-17.8,22.4-28.1,20.4
		s-34.6-29.3-50.1-23c0,0-15.9,16.2-23.3,20.4c-7.4,4.3-30.5-6.5-35.3-6.9c-4.7-0.4-11.5-3.9-17.5-0.7s-22.1,20.1-30,22.5
		S3278.7,533.2,3278.7,533.2z"/>
	<path id="arhuacos" class="st0" d="M2702.9,805.7c0,0-40.3-14.1-47.2-45.6c0,0-2.7-7.1,7.9-32.4c10.5-25.3,19.1-43.9,24-58.9s17.7-55.1,30.1-76.9
		c0,0-12.2,8.4-19.2,4.8c-7-3.6-15.6-8.8-15.2-14.2c0,0-13.4-10-14.8-13s4.4-7,4.4-7s-10.4-9.4-1.8-17.2c0,0-36.6-24.4-36.8-28.2
		c-0.2-3.8,4.2-3.2,5.4,0c1.2,3.2,3.8,5.4,7.8,5.4s7,3.4,13,5.2s15.5,8.8,15.5,8.8s2.5-7,12.9-3.6c10.4,3.4,16.6,8.8,23.4,11.4
		c6.8,2.6,16.2,15.2,16.2,15.2s3-3,2.6-11.8c-0.4-8.8-6.8-42.6-4-55.4c2.8-12.8,12.2-45.4,23.2-62.4s10.2-8.2,14.8-21.6
		c4.6-13.4,6-16,6-29.4s-1.8-66.8,14-85c0,0-0.4-23.6,0-33.6c0.4-10,1.2-31.8,17.8-47.4c16.6-15.6,34.4-12.8,42.6-11
		c8.2,1.8,15.4,4.2,27.2,21.4s12.8,24.6,13.4,31.2c0.6,6.6,10.8,19,8.8,29.4c0,0,14.2,8.4,23.6,32.2c0,0,12.8,13.8,16.2,33.2
		c3.4,19.4,6.6,38.8,6.6,38.8s37.2-0.6,45.8,7c8.6,7.6,15.2,22,12.6,33.4c-2.6,11.4,4.8,17.6,2.8,25.6s-10.6,60-11.8,70.6
		c-1.2,10.6-10.6,59-10,71.6c0.6,12.6-1,28.8-5.6,31.4c-4.6,2.6-17.2,0.6-17.2,0.6s2,30.8,3.4,38.2c1.4,7.4,4,80.8-1.8,94.6
		c0,0-25.2-22.2-37.8-22.4c-12.6-0.2-7.2,7-25.8,7.2c-18.6,0.2-29.4,10.2-34.8,14.8c-5.4,4.6-25.8-4.2-38.8,15c0,0-20.2,8-31.2,8.4
		c-11,0.4-29.8-9.4-43-6.6C2734.9,780.3,2732.5,774.5,2702.9,805.7z"/>
	<path id="kankuamos" class="st0" d="M2912.8,1294c0,0-1.2-1.6-1.9-19.3c0,0-4.1-8.5-2.8-23.6c1.3-15.1,4.9-27.5,3.6-44.4
		c-1.3-16.9-5.3-46.4-6.8-60.4c-1.5-14-8.9-21.3-8.5-36.7c0.4-15.3,5.9-31.5,5.9-42.1s0.3-14.4,0.3-14.4s-3.6-3.6-6.1-26.5
		c0,0-7.1-11.9-4.5-29.3c2.5-17.5,11.2-32.1,11.3-38.9s0.1-16.8,8.9-30.5c8.8-13.7,14.1-28.1,17.7-32.4c3.6-4.3,22.4-19.1,30.4-21.7
		c0,0,0.5-3.3,18.8-22.7c0,0-14.7-41.3,17.6-78.9c0,0,2.7-22.9,24.8-38.1c22.1-15.2,30-11.5,30-11.5s11.3-11.3,28.7-1.3
		c17.3,10,25.5,28,26.3,28.7c0.8,0.7,9.1,1.1,18,27.5c8.9,26.4,26.9,49.6,26.9,49.6s-8-5.2-11.6-13.6c-3.6-8.4,1.7,15.9,9.2,27.6
		c7.5,11.7,6.8,23.2,7.3,26.8c0.5,3.6,4.4,13.9,16,13.3c0,0-10.4,5.7-15.2-4c0,0-3.9,10.7,0.4,20.5c4.3,9.9,2.4,16.9,2.4,16.9
		s3.5,18.5,13.5,27.9c0,0,1.1,0.4,4.1,16.1c3.1,15.7,3.9,21.7,9.9,31.1c6,9.3,18,21.5,16.4,28c-1.6,6.5-16,25.5-24.3,32
		c0,0,6.5,58.1,0.7,76.8c0,0,1.3,35.9,0.3,49.6c-1.1,13.7,0.8,22.4,0.8,32.9c0,10.5,3.5,32.1,3.3,33.1c0,0-10.4-4.3-15.6-12.4
		c-5.2-8.1-22.1-13.6-30.9-11.7c-8.8,1.9-13.2,7.3-28.4,10.3s-19.6,12.4-37.9,13.2c-18.3,0.8-25.3,7.1-29.9,12.7
		c-4.5,5.6-34.1,10.5-43.6,4.4c-9.5-6.1-29.7-6.1-40.5-0.4c-10.8,5.7-20.8,23.6-29.1,28.5S2912.8,1294,2912.8,1294z"/>
	<path id="mokana" class="st0" d="M2289.3,1053.2c0,0,14.9-90.9,19.7-111.5c4.8-20.5,13.3-57.1,13.6-64.5s2.1-72.3,3.2-82.4
		c1.1-10.1-5.1-51.7-6.4-62.4c0,0-15.2,42.9-17.6,59.5c-2.4,16.5-1.9,33.3-4.5,41.9c-2.7,8.5-24.5,57.9-25.6,70.1s-1.6,15.7,2.7,26.9
		s6.4,29.3,7.2,37.9c0.8,8.5,2.5,15.5-5.4,17.7c-7.9,2.2-8.2-7.3-8.5-15.1s-3.5-17.1-5.9-18.3c-2.4-1.2-6.2,8-4,15.5
		s3.5,15.1,8.7,21.2c5.2,6.1,6.8,15.6,3.4,17c-3.4,1.4-12.4,3.3-19.5-6.8c-7.1-10.1-9.7-7.3-12.2-23.7c-2.5-16.4-2.3-27.3,0.6-34.4
		c2.9-7.1,2-10.3,0.6-13.6c-1.4-3.3-4.1-4.6-0.7-14.1c3.4-9.5,6.1-15.1,6.1-20.2c0-5.1-1.2-53.2-0.3-63.4c0.9-10.2,5.3-19.5,6-25.7
		s3.2-28.5,11-43.2c0,0,3.6-5.3,2.5-10.6c-1.1-5.3,6.7-27,7-27.6c0.3-0.6,1.5-28.4,5.9-47.2c4.4-18.8,7.6-26,7.2-36
		c-0.4-10,12.4-18,34.4-23.6c0,0,25.4-13.5,34.7-14.8s5.9-7.1,9.2-8.9c3.3-1.8,5.3,1.5,5.3,1.5s1.4-5.7,5.7-3.2c0,0,5.9-3,6.9-6.3
		c0,0-14.1-10.8-18.4-31.8c0,0-8.4-10.7-9.9-22.5s-0.7-15.8,4.6-13.6c5.3,2.2-3.5-4.3-5.9-15.8c0,0-9.2-2.4-7-11.7
		c2.2-9.3,6.3-7.3,6.3-7.3s0.5-10.6,4.8-13.6c0,0,0.1-39.2,10.5-58c10.4-18.8,9-29.4,9-29.4s3.8,8.6,6,12.6s3.2,7,3.2,7
		s7-15.6,10.8-25.4c3.8-9.8,7.2,12.8,7.2,12.8s5.2-11.6,3.8-21c-1.4-9.4,12,11,12.6,15c0.6,4,2.8,15,2.8,15s7.8-15.6,9.2-18.8
		c1.4-3.2,5.2,8,5.8,12c0.6,4,3.6,16.8,3.6,16.8s5-17.7,14-19.8c0,0-2.5,8,0,13.3c2.5,5.3,8.5,42.4,2.8,51.8c0,0,10,13.9,7,21.9
		c0,0,8.8,3.5,6,11.4c-2.8,7.9-4.5,5.4-4.5,5.4l1.6,13.5c0,0,3.3-1.1,4.9,5.9c1.6,7,1.6,15.8,0,19.9c-1.6,4.1-8.1,13.3-13.6,16.2
		c0,0-1.6,7.2-3.7,11.8c0,0-0.7,8.9,4.8,19.6s27.7,21.2,31.2,22s15.4,4.6,32.4,14s16.1,5.1,28.8,22.9c12.7,17.8,8.2,26.8,13.7,38.7
		c5.5,11.9,17.4,62.1,21.7,71.2s6.7,26.4,10.4,32.3c3.7,5.9,19.7,33.3,17.1,64.5c-2.7,31.2-4.5,35.5-0.8,50.1
		c3.7,14.7,1.6,21.1,4,28.3c2.4,7.2,9.6,45.9,2.4,61.9s-6.7,19.5-32.5,20c0,0-13.3-4.7-11.9-10c1.5-5.3,12.3-11.2,12.5-15.6
		s-0.8-7.2-5.1-7.2s-1.6,8.1-6,10.8c-4.4,2.7-2.1,9.9-13.2,6.3c-11.1-3.6,2.1-16.1,1.6-19.7c-0.5-3.6,1.6-13.3,3.6-18.5
		c2-5.2,14-16.4,15.1-24c1.1-7.6-6.9-32.7-7.6-37.3c-0.7-4.7-14.4-51.9-15.6-59.2c-1.2-7.3-6.8-40.7-11.3-46.3
		c-4.5-5.6-4.3-17.9-6.7-22.4c-2.4-4.5-5.3-17.3-16.5-27.2c0,0-4.1,15.9-7.1,17.5c0,0,2.4,2.1,2,3.5c-0.4,1.4-3.2,1.5-3.2,1.5
		s-1.3,9.7-0.9,9.7c0.4,0,6.6,1.6,6.3,3.6c-0.3,2-4.7,6-7.5,4.7l-1.1,2.6c0,0,5.1,4,2.2,4.6c-2.9,0.6-4.5-0.3-4.5-0.3
		s-3.2,9.6-4.7,18.4c-1.5,8.8,5.9,38.4,3.2,49.1s-7.6,26.9-7.6,26.9l0.4,4.3c0,0,2.9,3.2,3.7,12.4c0.8,9.2,8,32.5,8,42.9
		s1.7,48.4,1.1,50.9c-0.7,2.5-3.4,8.3-14.8,8.1c-11.4-0.3-7.7-4.2-13.4-1.9c-5.7,2.3-15.1,2.3-22.8,5.2c-7.7,2.9-5.2,6.7-15.4,11.1
		c-10.2,4.4-21,1.2-29,5.8c-8,4.6-12.4,17.2-25.4,15.6s-22.8,5.2-32.8-1c-10-6.2-17-7.4-23.6-4.8c-6.6,2.6-11,1.6-21.8,7.4
		c-10.8,5.8-15.8,14.6-19,17.8C2294.9,1052.1,2289.3,1053.2,2289.3,1053.2z"/>
	<path id="zenu" class="st0" d="M1953.3,1813.7c0,0-2.9-25.1-2.9-38.4c0-13.3,1.1-51.5,0-70.7c-1.1-19.2-6.7-81.9-6.7-85.3
		c0,0-18-10.3-19.1-19.2s8.9-24.1,9.6-38.1c0.7-14,14.1-38.9,16.1-50.1c2-11.2,15.1-30.7,17.2-41.3s26.3-45.2,29.1-48.5
		c2.8-3.3,28.4-18.9,43.1-21.6c14.7-2.7,18.4-3.2,25.5-7.5c7.1-4.3,27.7-13.7,27.7-13.7s-35.9-10.3-57.5-27.5
		c-21.6-17.2-44.8-41.7-51.6-56.1c-6.8-14.4-11.9-20.5-8.3-36.7s14-19.5,27.3-19.7c13.3-0.3,12.3-4.3,26.9-6
		c14.7-1.7,45.1-7.5,55.1-6.5c0,0-4-22.9,20.5-35.1c24.5-12.1,52.8-10.3,60-8.4c7.2,1.9,34.1,9.5,38.1,21.9l1.7,10
		c0,0,30.1,2.5,48.3-0.5s32.3-4.1,42.3,0.7c10,4.8,23.2,18.9,22.9,28.1c-0.3,9.2,0.5,34.5-8.5,44.4c-9.1,9.9-13.6,29.9-25.3,41.9
		c-11.7,12-26.4,25.5-32.5,29.3s-5.3,6.8-15.1,11.1c-9.7,4.3-21.1,9.7-21.1,9.7l13.1,5.6c0,0,1.5-3.3,7.9,0c6.4,3.3,6.4,4.8,6.4,4.8
		s-0.4-3.1,4-0.5s4.5,2.7,6.1,1.3c1.6-1.3,7.9,1.3,18.8,8.4c10.9,7.1,22.7,10.8,29.5,18c6.8,7.2,25.1,19.1,32.8,33.6
		c7.7,14.5,12.3,6.9,18,24.1c5.7,17.2,16.5,29.2,28.7,58s24.5,44,24.9,52c0.4,8-0.3,17.1-13.2,27.3c0,0-4.4,17.9-4.3,24.4
		c0.1,6.5-3.5,38.1-3.5,43.1s0.7,4.8,0.7,16c0,11.2-2.9,48.7-4.1,57.5c-1.2,8.8,0.3,31.7-0.4,40.7s-1.9,28.9-1.9,28.9
		s-4.3,3.3-6.9-2.3c-2.7-5.6-7.7-17.1-36.5-16c0,0-25.6-27.7-80-20.5c0,0-14.1,7.2-23.7-15.5c-1.2-2.9-3.2-5.7-5.8-7.4
		c-2.6-1.7-5.6-2.7-8.3-4.3c-7.1-3.9-12.1-10.8-18.2-16.1c-1.3-1.1-2.7-2.2-4.3-2.9c-1.9-0.8-4.1-0.9-6.2-1.2c-7-1-13.5-4-20.3-5.7
		c-10.1-2.5-20.7-2.3-31.1-1.2c-4.5,0.5-8.9,1.1-13.2,2.5c-5.1,1.7-9.7,4.4-14.3,7.1c-9.3,5.5-18.5,11-27.8,16.5
		c-4.3,2.6-8.6,5.1-12.4,8.4c-2.5,2.1-4.8,4.6-7.4,6.6c-4.2,3.2-9.3,5.3-14.5,5.9c-1.2,0.1-2.5,0.2-3.7-0.2c-1.5-0.5-2.7-1.6-4.1-2.5
		c-3.9-2.6-8.8-3.1-13.5-3.5c-6.4-0.5-13.4-0.9-18.4,3.1c-1.8,1.4-4.3,0.3-6.5,0.8c-4.3,1-8.7,2.2-12.7,4c-4,1.9-7.8,4.5-10.4,8.2
		c-1,1.4-1.8,2.9-2.6,4.3c-1.1,2.1-2.3,4.1-3.4,6.2c-0.7,1.3-1.4,2.6-2.5,3.6c-0.8,0.7-1.7,1.2-2.6,1.9c-2.4,1.9-3.8,4.8-6,7
		C1960,1811.9,1956.5,1813.7,1953.3,1813.7z"/>
	<path id="bari" class="st0" d="M3013.3,1880.9c0,0,11.2-67.7,11.2-89.1c0-21.3,0-61.3,0-90.7c0-29.3,10.7-50.1,25.1-72
		c14.4-21.9,52.3-20.8,74.1-30.9c21.9-10.1,28.3-4.5,36.5-36.3l-2.4-28.5c0,0-26.4-26.1-30.1-39.2c0,0-4.8,4.8-10.4-2.7
		c-5.6-7.5-11.5-10.7-11.4-15.6c0.1-4.9-4.2-21.9,1.3-27.7c5.5-5.8,9.6-3.9,9.6-3.9s-1-20.7-0.7-24.1c0.3-3.4,11.6-22.4,11.6-22.4
		s-0.6-13.4,2.4-20.4s0.1-17.6,5-23.2c4.9-5.6,12.5-11.5,12.5-11.5l2.7,10.5c1.1-0.8,1.3-2.4,1.6-3.7c0.5-2.8,1-5.5,2-8.1
		c1-2.6,2.5-5,4.7-6.8c0.8-0.6,1.9-1.2,2.8-0.8c0.6,0.3,0.9,1,1.2,1.7c2.2,5.2,4.3,10.4,6.5,15.6c0.5-0.9,0.5-1.9,0.6-2.9
		c0.4-5.5,2.6-10.7,5-15.6c0.2-0.3,0.4-0.7,0.8-0.7c0.2,0,0.4,0.2,0.5,0.4c1.2,1.8,1.8,4.1,3.3,5.7c0.5,0.6,1.2,1.1,1.8,1.6
		c1.5,1.4,2.7,3,3.4,4.9c4.5-10.3,4.7-22.5,8.5-33c0.5-1.3,1-2.7,1.2-4.1c0.2-1.4-0.1-2.9,0-4.3c0.1-1.4,0.6-3,1.8-3.7
		c1.9-1.1,4.3,0.2,5.4,2.1c1.1,1.9,1.3,4.1,1.9,6.2c2.2,7.1,9.7,12.1,10.2,19.5c-2.2,0.2-4,2.2-4,4.3s1.7,4.2,3.9,4.5
		c0.2,0,0.4,0,0.6,0c0.6-0.2,0.7-0.9,0.7-1.5c0.4-5.9,2.4-11.6,5.8-16.4c0.2-0.2,0.4-0.5,0.6-0.6c0.8-0.4,1.6,0.7,1.8,1.6
		c0.4,2,0.2,4.1,0.5,6.2c0.2,1.8,0.8,3.6,1.5,5.4c3.6,10,8,19.8,9.9,30.3c0.4,2.2,1.2,4.9,3.4,5.2c1.9,0.2,3.2-1.6,4.2-3.2
		c1.6-2.5,3.4-5,5.9-6.5c1.7-1,3.6-1.5,5.1-2.7c1.8-1.3,2.9-3.4,4.8-4.5c1.3-0.7,2.9-0.9,4.3-1.3s2.9-1.3,3.3-2.7
		c0.2-0.7,0.2-1.5,0.8-1.8c0.7-0.4,1.5,0.3,2.1,0.9c1.4,1.7,2.8,3.3,4.2,5c-1.7,7.7-2.4,15.3-2,23.1c0.1,1.5,0.2,3,0.8,4.4
		c0.5,1.1,1.3,2,1.8,3c1.2,2.4,1,5.3,0.9,8c-0.1,6.6,1.1,13.3,3.1,19.6c0.9,2.9,2,5.8,2.6,8.8c1.7,7.6,0.4,15.8-3.4,22.6
		c-0.3,0.5-0.2,0.6-0.1,1.1c1.2,0.6,2.8-0.6,4,0.1c0.9,0.5,1,1.7,1.7,2.4c0.4,0.5,1,0.7,1.5,1.1c0.5,0.4,0.8,1,1.1,1.6
		c2.2,4.3,3.6,9,3.4,13.8c-0.2,4.8-2.2,9.6-5.9,12.7c-0.3,0.2-0.6,0.5-0.7,0.8c-0.2,0.4-0.1,0.8-0.1,1.2c0.3,2.5,0.4,4.9,0.2,7.4
		c0,0.4-0.1,0.8-0.3,1.1c-0.2,0.3-0.5,0.4-0.8,0.6c-3.8,2.1-8.1,4.2-12.4,3.4c-0.3,4.2-3.2,8.1-4.8,12c-0.5,1.3-0.9,2.6-1.4,3.9
		c-1.4,3.6-3.4,6.9-5.5,10.1c-1.7,2.7-3.5,5.5-5.2,8.2c-1.6,2.6-3.3,5.2-5.5,7.3c-2.5,2.4-5.6,4.1-8.7,5.8c-2,12-2.7,24.1-2.8,36.3
		c0,1.7,0,3.4,0.6,5c0.8,2.1,2.4,3.7,4.2,4.9c3.7,2.6,8.2,3.8,12.5,5.1c5.2,1.5,10.4,3,15.6,4.4c3.4,1,6.7,1.9,10.1,2.8
		c18.7,4.6,38.5,5.9,56,13.9c2.2,1,4.8,1.5,7,2.6c1.8,0.9,3.5,2.1,5.3,3.1c4,2.2,7.7,4.8,11.2,7.8c7,6,12.7,13.5,16.6,21.9
		c1.1,2.3,2.1,4.8,2.5,7.3c0.6,3.1,0.4,6.2,0.5,9.3c0.4,14.7,6.2,28.7,9.1,43.2c1.8,9.1,2.4,18.3,3.1,27.5c1.5,21.3,3.8,42.2,6,63.4
		c0.7,6.7,1.5,13.3,2.3,19.9c0.6,4.9,1.2,9.8,1.8,14.7c2.6,21.1,5.2,42.1,7.8,63.2c-3-2.4-6-4-8.9-6.4c-2.8-2.3-5.7-4.6-7.9-7.4
		c-2.4-2.9-4.1-6.4-6.4-9.4c-3-4.1-6.9-7.4-10.8-10.6c-3.4-2.9-6.9-5.8-10.9-8c-5.5-3-11.9-4.5-16.9-8.4c-1.7-1.3-3.2-2.9-5-4.2
		c-2.1-1.5-4.6-2.6-7-3.6c-4.2-1.8-8.3-3.5-12.5-5.3c-6.6-2.8-13.4-5.6-20.6-5.8c-13.3-0.4-26.1,9.4-29.3,22.3
		c-17.4-0.7-34.9,3.3-49.8,12.4c-1.4,0.9-2.9,1.8-4.6,1.6c-1.8-0.2-3.2-1.6-4.6-2.7c-9.7-8.2-24.4-7.6-35.9-2.2
		c-1.5,0.7-3.2,1.5-4.8,1.3c-1.2-0.2-2.3-0.9-3.4-1.6c-7.3-4.4-16.6-3.9-24.9-2.1c-8.3,1.8-16.4,4.9-25,5.6
		c-11.8,0.9-23.4-3-35.2-4.6c-11.8-1.6-25.2-0.1-32.9,8.9c-1.6,1.9-2.9,4-5.1,5.2c-1.1,0.6-2.3,0.8-3.4,1.4c-3.4,1.9-4.3,6.4-7.3,8.8
		C3028.6,1879.5,3017.3,1875.3,3013.3,1880.9z"/>
	<path id="palenqueros" class="st0" d="M2650.4,2261.2c0,0-22.9,5.6-34.1-12c0,0,8.3,21.9-16,23.7c-24.3,1.9-29.6-18.4-29.6-18.4s-50.4-1.6-27.2-44.3
		c0,0-42.1-17.6,4-43.7c0,0-8-41.6,32-34.1c0,0,8.8-12.8,10.1-3.2l9.3-13.3h-4c0,0-2.5,7.7-7.6,6.9c0,0,1.3-13.6,4.3-23.5
		s15.9-20.4,15.9-20.4s-2-23.2-0.1-32.3c0,0-107.6-57.3-119.6-65.7s-28-16-18.8-48.8c0,0,5.2-14.8,26.4-28.4
		c21.2-13.6,30.8-22,30.8-22s-1.2-13.6,30.4-28.8c31.6-15.2,50.8-16.4,50.8-16.4s7.6-10.8,55.2-18.4c0,0,8.4-0.5,17.7-7.3
		c0,0-6.8-8.5,2.1-12c0,0,3.1-2.3,4.8,0c0,0,1.2-24.1,0-33.5c0,0-12.3,15.5-23.9,0c0,0-7.2,6-18.7-3.9c-11.5-9.9-5.3-12.5-5.3-12.5
		s-21.7-5.2-7.6-19.9c0,0-18.9-26.5,0-24.4c0,0-6.5-8.8-0.1-16.8s14.8,0,14.8,0s0.6-6.6,6-9.3c0,0-9.5-18.8-0.9-31.9
		c0,0-31-2.3-39.6-10.9c-8.6-8.6-5.8-12.6-12.6-25.6s-24.4-48.6-24.4-48.6l-8-7.6c0,0-3.7-2-7.5-3.2c-3.8-1.2-5.7-5.5-1.7-8.1
		s0.2-6.9,0.2-6.9s-8.6-22.2-7.2-40.4l2.4-15c0,0-53.8-9.4-66.2-39h28c0,0-14.6-11.2-15.8-21c0,0,31.2-0.2,62,26.4
		c0,0-24.6-39.4-21.8-72.6c0,0,16.2,11.4,25.4,22.2c0,0-0.8-13.2,4.2-23.6c0,0,17.4,24,19.2,36.8c0,0,9.4-26,12-29
		c0,0,17.6,34.2,2.6,74.8c0,0,14.2,5,18.4,7.6c0,0,13.4-17.8,42.8-33.4c29.4-15.6,65-25,95.4-22.2c30.4,2.8,24,8.8,32.4,28.8
		c0,0,1.4,2.8,3.2-10c1.8-12.8,4.8-8.8,4.8-8.8s11,14.6,16.6,18.8c5.6,4.2,18.2,15.4,32,19.6c13.8,4.2,36.4,3.2,44.8-1
		c8.4-4.2,12-9,15.8-5c3.8,4,5,16-24.8,37.4c0,0,31.6,15.2,67.4-10.4c0,0,8.4-3,8,8.2c-0.4,11.2-22.6,44.2-57.8,46.4
		c0,0,33.8,7,31.2,14.6c-2.6,7.6-21.6,7.8-23.4,13c0,0,8.4,22,9.8,29.2c1.4,7.2,5.2,33.4-4,49.2c-9.2,15.8-3.6,16.4-2,22.4
		c1.6,6,27.2,76,32.8,103.8c5.6,27.8,15,50.9,13.4,59.4c-1.6,8.4-5.8,10-11.4,13c-5.6,3-60.2,30.8-66.2,34
		c-6,3.2-39.6,18.6-39.6,18.6s22.2,13.6,19,28.8c-3.2,15.2-15.6,20.6-18.4,26.2c-2.8,5.6-1.8,24.4-4.4,27s2.4,11.4,1.4,19
		s-0.4,34.8-9.8,44c-9.4,9.2-18,16-18,16l2.8,87c0,0,20-7.6,27.6,10.8c7.6,18.4-2.6,29.2-2.6,29.2s26.6,12.6,16.2,31.2
		c-10.4,18.6-22,11.4-22,11.4s16,12.8,0.2,30.6s-32.4,6.4-32.4,6.4s-11.8,19-27.2,14c-15.4-5-23.2-8-18.8-26.4c0,0-12.4,8-17.6,4.6
		c0,0-1,26.4-38.4,17.6C2699.9,2265.9,2668.8,2299.6,2650.4,2261.2z"/>
	<path id="embera-chami" class="st0" d="M2089.1,2568.9c0,0-3.2-20.8,0-33.2c3.2-12.4-1.4-36-1.4-50.8c0-14.8-3.2-86.7,2.5-123.5
		c5.7-36.8,7.3-14.9,26-69.3c18.7-54.4,37.3-62.9,49.6-69.9c12.3-6.9,37.9-39.3,37.9-39.3s-1.2-6.8,8.8-10.4s10.8-7.2,10.8-7.2
		s-24.8-26.4-26-46.8s4-43.6,4-43.6s-9.2-13.2-7.3-37.9c0,0-7.7-6.9-7.2-17.1c0.5-10.1,2.5-13.9,6-22.4c3.5-8.5,12-8,12-8l-4.7-8.8
		l12.4,4l5.1-14.5l3.1,9.2c0,0,8.7-13.7,26.7-18.4s16.5-9.1,16.5-9.1l2.1,6.9c0,0,8.3-4,12-9.1c3.7-5.1,4.5,2.8,4.5,2.8
		s4.7-6.3,16-0.9c11.3,5.3,19.1,5.1,22,4.5c2.9-0.5,24.3,1.9,35.2,15.1c10.9,13.2,10.8,15.9,10.8,15.9s20,33.1,15.3,44l4.7,12
		c0,0,4,0.9,5.9,6.4c1.9,5.5-3.5,3.6-3.5,3.6s-0.1,20.7,1.6,24c1.7,3.3,11.7,12.7,10.3,18.8c-1.5,6.1-5.7,17.7-5.6,25.9
		s3.9,15.9,3.3,24.3c-0.5,8.4-8.7,26.7-8.7,26.7s3.1,12.7-0.5,18.8c-3.6,6.1-20.1,10.1-20.1,10.1s14.1,8.8,20.9,22.8
		c0,0,10.4,8.5,18.8,17.5c8.4,8.9,11.5,15.3,17.7,29.6s13.6,28.1,21.5,41.2c7.9,13.1,15.7,35.9,20.3,48.7
		c4.5,12.8,18.5,44.3,23.7,55.5c5.2,11.2,28.4,49.2,28.6,85.8c0.2,36.6,12.2,47.8,16.6,91.2c0.1,1.3,0.7,2.2,0.9,3.5
		c-19.3,0.9-38.6,2-56.1,10.3c-6.8,3.2-13.2,7.4-20.3,9.9s-15.4,3-21.8-0.9c-2.2-1.3-4.1-3.1-6.4-4c-2.2-0.9-4.7-0.9-7.1-1
		c-12.1-0.2-24.2-0.4-36.3-0.6c-9.4-0.1-19-0.3-28.1,2.1c-5.2,1.4-10.7,3.6-15.7,1.7c-2-0.7-3.6-2-5.4-3.1
		c-12.2-7.1-28.7-1.4-41.1-8.1c-4.4-2.3-7.8-5.9-11.6-9.1c-10.6-8.9-23.9-14.5-37.6-15.8c-6.7-0.6-13.4-5.1-20.1-5.8
		c-4.4-0.4-8.8-0.2-13.1-1c-6.1-1.1-11.8-4.1-16.2-8.5c-1.9-1.9-3.5-4.1-5.7-5.6c-2.6-1.8-5.8-2.5-8.8-3.3c-10-2.7-19.5-7-29.3-10.3
		s-20.3-5.5-30.5-3.8c-3,0.5-6.1,1.4-8.7,3c-2.3,1.4-4.2,3.4-6.1,5.4c-4.8,5-9.7,10-14.5,15C2095.5,2566.1,2092,2568.9,2089.1,2568.9
		z"/>
	<path id="uwa" class="st0" d="M3261,2724.1c0.4-0.1,0.7-0.4,0.9-0.7c0.7-1,1.3-2,1.7-3.1c0.8-2.1,0.8-4.3,0.8-6.5c0-5.2-0.1-10.4-0.8-15.5
		c4.4-0.5,7.8-2.4,11.3-4.9c2.2-1.6,4.4-3.1,6.3-5.1c1.7-1.8,3-4,4.2-6.1c2.6-4.5,4.7-9,6.8-13.7c8.7-3,17.6-6,26.8-6.3
		c1.1,0,2.3,0,3.4-0.2c2.4-0.3,4.7-1.2,6.8-2.5c0.5-0.3,1-0.7,1.3-1.1c0.3-0.5,0.4-1.2,0.4-1.8c0.1-2-0.1-4-0.7-5.9
		c-0.8-2.9-2.4-5.5-3-8.4c-0.5-2-0.5-4-0.5-6c-0.1-6.4,0.3-12.9-0.3-19.2c-0.6-5.7-4-10.7-6.3-16c-3.8-8.8-4.4-18.6-6.7-27.9
		c-3.2-12.9-9.7-25.4-8.7-38.6c0.2-3.2,0.9-6.4,0.1-9.4c-0.5-2.1-1.7-3.9-2.6-5.9c-4.5-9.7-2.3-21.2-4.2-31.8
		c-1.4-7.8-4.9-15.3-5.1-23.2c-0.1-4.2,1.6-8.6-1.9-11c-2-5.8-2.7-12.1-2-18.2c0.2-1.9,0.4-4.2-1.3-5.2c-0.5-0.3-1-0.4-1.4-0.6
		c-2.9-1.3-2.4-5.5-3.2-8.6c-1.2-5-6.4-7.8-10.2-11.2c-3.8-3.4-6.5-7.7-8.9-12.1c-1.4-2.6-2.8-5.3-4.8-7.5c-2-2.2-4.5-4-7-5.6
		c-6.3-4.2-12.7-8.2-19.1-12.1c-2.4-1.5-4.9-2.9-7.7-3.5c-2.1-0.5-4.4-0.4-6.5-0.4c-10.8-0.1-22.2-2-32.4-5.8
		c0.1-7.9-0.8-15.8-2.5-23.6c-0.7-3.2-1.6-6.4-1.8-9.7c-0.3-4.6,0.5-9.1,0.9-13.7c0.9-11-0.7-22-2.3-32.9c-0.6-4.4-1.3-8.8-2.6-13.1
		c-1.2-4-2.9-7.9-3.8-11.9c-1.1-4.5-1.2-9.1-2.1-13.6c-0.9-4.7-2.6-9.2-4.4-13.6c-3.6-8.7-8-17.2-15.5-22.8c0.5-4.8,0.8-9.6,0.7-14.4
		c1.7-2.1,4.9-1.6,7.6-1.6c3.8,0.1,7.5-1.3,10.4-3.7c1-0.8,1.9-2.5,0.9-3.3c-0.2-0.2-0.6-0.3-0.7-0.7c-0.1-0.3,0-0.6,0.1-0.8
		c0.8-2.4,1.7-4.9,3.7-6.3c2.6-1.9,6.3-1.5,9.2-2.9c3.2-1.5,5.1-4.9,6.7-8.1c0.7-1.3,1.3-2.5,1.5-3.9c0.2-1.2,0-2.5,0.1-3.8
		c0.3-3.3,2.7-6,3.7-9.2c1-3.4,0.1-7.2-2.3-9.8c-0.2-0.2-0.4-0.5-0.5-0.7c-0.4-1,0.7-2,1.6-2.6c1.6-0.9,3.4-2.2,3.4-4
		c0.1-3.2-4.9-4.5-5.2-7.7c-0.1-0.9,0.2-1.8-0.1-2.6c-0.2-0.5-0.5-0.8-0.9-1.2c-3.3-3.2-7.6-5.7-12.1-6.9c-0.8-0.8-0.5-2.2,0.1-3.2
		c0.6-1,1.6-1.7,2.1-2.7c0.7-1.2,0.8-2.7,0.7-4.2c-0.2-2.8-0.9-5.5-2.2-8c-0.4-0.7-0.8-1.4-1.5-1.9c-0.9-0.6-2-0.7-3.1-0.8
		c-2.4-0.1-4.8-0.3-7.1,0.3s-4.5,2.1-5.3,4.4c-0.5,1.4-0.9,3.4-2.3,3.4c-1.2,0-1.9-1.4-2.3-2.6c-0.8-2.6-1.5-5.2-2.2-7.8
		c-0.1-0.3-0.2-0.7-0.5-0.9c-0.4-0.3-0.9-0.4-1.4-0.4c-3.5-0.1-7.2-0.2-10.4,1.1c-2.2,0.9-4.6,2.5-6.8,1.6c-0.8-0.3-1.5-0.9-2.4-1.1
		c-1.8-0.3-3.7,1.7-5.2,0.8c0.3-3.6-0.1-7.2-1-10.6c-0.2-0.8-0.7-1.8-1.5-1.9c-0.5,0-1,0.4-1.4,0.8c-3.1,2.9-6.2,5.8-9.2,8.8
		c-0.5,0.5-1.1,1-1.8,0.9c-0.4,0-0.7-0.2-1-0.4c-2.2-1.5-4.1-3.4-5.5-5.5c-1.9-2.9-3.5-6.6-6.9-7.6c-1-0.3-2.1-0.3-3-0.9
		c-0.6-0.4-0.9-1-1.3-1.6c-2.6-3.4-8.1-3.9-11.5-1.3c-1.6-2-3.2-4.1-5.5-5.2s-5.4-1-7,1c-1.9,2.4-0.7,5.9-1.7,8.7
		c-1.7,0.3-3.3-0.9-4.5-2.2c-1.1-1.3-2.2-2.8-3.7-3.5s-3.9,0-4.1,1.7c-3-1.5-5.9-3.1-8.9-4.6c-1.1-0.5-2.3-1.1-3.4-0.8
		c-1.5,0.4-3.1,2.3-4.2,1.2c-0.4-0.4-0.5-1-0.8-1.5c-0.9-1.2-2.8-0.5-3.9,0.4c-1.7,1.4-3,3.1-3.9,5.1c-0.3,0.7-0.6,1.5-1.2,2
		c-0.6,0.5-1.4,0.6-2.2,0.7c-1.6,0.2-3.2,0.4-4.8,0.5c-0.4,0-0.8,0.1-1.2-0.1c-1.4-0.6-0.5-2.7,0.1-4.1c1-2,1-4.5,0.1-6.6
		c-4,0-7.9,1.7-10.5,4.6c-0.9,1.1-1.8,2.3-3,3c-1.3,0.7-2.9,0.8-4.4,0.7c-4.9-0.3-10.7-1.4-14.1,2.2c-1.4,1.5-2.2,3.7-3.9,4.8
		c-1,0.7-2.4,1-3.1,2.1c-1.2,1.9,0.9,4.1,2.7,5.4c-2.1-0.5-4.5-0.9-6.2,0.5c-0.4,0.3-0.7,0.8-1.2,1c-1.1,0.5-2.3-0.6-3.4-1
		c-2.6-0.7-4.5,2.4-5.1,5.1c-1.5,6.5-0.9,13.5,1.7,19.6c-1.3-0.7-2.9-0.1-3.9,1c-1,1.1-1.5,2.5-1.9,3.9c-1.4,5-2.3,10.4-0.5,15.3
		c1.3,3.7,4,6.7,6.7,9.6c0.8,0.9,1.5,1.4,2.3,2.3c-0.8,2.9,0.4,6.1,2.4,8.4s4.6,3.9,7.2,5.5c2.7,1.6,5.3,3.2,8,4.9
		c0.7,0.4,1.5,1.1,1.2,1.9c-0.3,0.7-1.2,0.8-2,0.8c-1.6,0-3.3-0.1-4.4-1.2c-0.9-0.8-1.6-2.3-2.9-2.3c-1,0-1.7,1.2-1.5,2.2
		s0.8,1.8,1.5,2.5c1.8,1.7,3.9,3,5.9,4.6c1.9,1.6,3.7,3.5,4.2,6c0.3,1.4,0.2,2.9,0.3,4.3c0.6,4.7,5.4,8.4,10.2,7.8
		c-0.1,2.9-0.2,5.9,0.4,8.8c-7.8,8.5-11.8,19.8-15.5,30.7c-1.2,3.5-2.4,7-3.3,10.6c-0.9,3.3-1.5,6.7-2.2,10
		c-4.7,24.3-9.4,48.6-14.1,72.8c-0.5,2.6-1,5.1-1.5,7.7c-2,10.1-5.1,20.7-7,30.8c-13.9,2-27.7,5.5-40,12.2
		c-12.3,6.7-23,16.9-28.7,29.7c-4.1,9.2-5.6,19.6-11.6,27.6c-2.4,3.2-5.4,6-7.5,9.4c-2.3,3.8-3.4,8.1-4.8,12.3
		c-3.3,9.7-8.7,18.5-13.3,27.6c-6.2,12.4-9.1,25.7-11.9,39.2c-1.4,6.8-2.8,13.6-4.3,20.3c-1.3,6.1-0.9,12.4-2.5,18.5
		c-1.2,4.5-3.4,8.8-5.2,13.1c-3.4,8.1-4.8,17.2-5.7,25.9c-0.8,7.8-6.6,14.1-8.9,21.6c-0.6,1.8-0.9,3.7-1.1,5.6
		c-0.4,2.7-0.5,5.4,0.3,8c2.2,7.4,10.6,12.3,14.3,19c3.7,6.7,4.3,14.8,9.4,20.7c4.5,5.3,11.3,8.7,18.3,8.6c7,0,14-1.6,20.9-2.7
		c1.5-0.2,6.5-1.5,7.5-0.1c0.6,0.9,0,4,0,5.1c-5.9,10.7-4.3,43.7-4.3,43.7c9.8,0,13.3-11.2,21.6-16.4c8.7-5.4,19.8-4.6,30-6.1
		c13.7-2.1,26.8-8.8,40.6-8c6.4,0.4,12.5,2.3,18.6,4.3c16.5,5.3,33,10.5,49.4,15.8c14.1,4.5,28.6,9.1,43.3,7.9
		c14.2-1.1,28.3-7.6,42.3-4.9c7.7,1.5,14.9,5.7,22.7,5.1c8.3-0.7,15-6.8,22.2-11c3.5-2.1,7.6-3.8,11.6-2.7c1.6,0.4,3,1.2,4.5,1.8
		c4.6,1.7,9.6,0.9,14.5,0.5c2.4-0.2,4.8-0.3,7.2-0.3c2.2,0,4.8-0.3,6.9,0.3c3.9,1,8.2,0.3,12.1,1.5c3.3,1,5.9,3.4,8.8,5.3
		c3,1.9,6.5,3.3,10,3.9c1.7,0.3,3.5,0.5,5.3,0.4C3258.2,2724.4,3259.9,2724.6,3261,2724.1z"/>
	<path id="guahibos" class="st0" d="M3621.1,2473.4c-7.6-14.3-7.8-31.3-7.8-47.6c0-56.6-0.1-113.2-0.1-169.8c0-25.1-0.3-46.8,4.1-71.9
		c4.8-27.9,10.8-55.6,17.8-83c3.2-12.6,6.7-25.2,9-38c5.9-33.5,3.3-68.3,11.7-101.3c3.5-13.6,8.8-26.7,15.8-38.9
		c3.5-6.2,7.5-12.1,11.8-17.7c4.6-6,9.5-10.5,15.4-15.3c0.6-0.5,1.3-1,1.9-1.5c1.6-1.3,3.3-2.6,5.2-3.3c2.3-0.8,4.9-0.8,7-2.1
		c0.3-0.2,0.6-0.4,0.7-0.7c0.4-0.8-0.2-1.7-0.9-2.3c-2.5-2.4-5.6-3.9-8.7-5.4c-3-1.4-6-2.8-9-4.1c2.2-1.7,5.2-2.1,8-2.1
		s5.6,0.4,8.4-0.1c2.7-0.4,5.2-1.5,7.7-2.6c3.2-1.4,6.5-2.9,9.7-4.3c2.6-1.1,5.1-2.3,7.5-3.6c12-6.8,20.1-18.9,25.4-31.6
		c0.6-1.4-0.4-3.5-1.5-4.5c-1.1-1.1-2.4-2.1-2.7-3.5c-0.3-1.1,0.1-2.3,0.4-3.4c0.8-2.7,1.6-5.4,2.4-8.1c2.8-9.4,5.6-18.8,9.4-27.9
		c2.9-6.9,6.5-13.9,6.4-21.3c0-4.3,0.4-10.4,0.4-14.7c0-1,0-1.9,0.2-2.9c0.4-1.9,1.5-3.6,2.4-5.4c3.8-7.5,3.9-16.9,9.1-23.6
		c0,0-8.9-22.9,12.9-85.8c21.9-62.9,26.7-62.9,26.7-62.9s8.8,0.8,10.9,8.5l5.6-2.9l8.8,7.5c0,0,1.1-8.3-4.5-28.5s5.6-47.7,8-65.3
		c2.4-17.6,3.7-22.1,4-37.3c0.3-15.2,10.1-21.6,10.1-21.6s0.8,6.4,3.6,8.7c2.8,2.3-1.3,4.4,0,8.1c1.3,3.7,3.5,9.5,4.9,11.3
		c1.5,1.9,6.4,16.3,7.6,23.7s3.7,24.8,3.2,37.7c-0.5,12.9-9.7,46.3-9.7,46.3s5.9,0.3,7.3-4.3c1.5-4.5,4-10,10.3-0.7
		c6.3,9.3,9.3,14.4,9.3,14.4s3.2-6.1,7.7-3.2c4.5,2.9,6.4,9.9,8,15.5c1.6,5.6,5.9,10.9,17.6,30.4c11.7,19.5,16.3,32.3,21.3,42.7
		s8.3,30.4,9.3,36.8c1.1,6.4,3.2,30.1,3.2,30.1s30.4,27.7,29.6,71.5l-2.9,28.3l16,56c0,0,21.9,1.6,45.9,14.4s41.1,39.5,48.5,64
		c7.5,24.5,4.3,65.6,2.7,78.4c-1.6,12.8-8,40.5-1.6,73.6c6.4,33.1,7.5,44.8,8.5,70.9c1.1,26.1,4.3,115.7,4.3,115.7s4.3,104.5,0,122.1
		c-4.3,17.6-4.3,65.6-4.3,65.6c-1-11.1-9-19.4-17.4-26.7c-8.4-7.3-18.2-13-26.6-20.3c-11.9-10.4-21.1-24.1-35.2-31.3
		c-3.6-1.9-7.6-3.3-10.6-6.1c-5.6-5.3-6.1-13.9-9.6-20.9c-4.2-8.5-12.8-14.2-21.9-17c-9.1-2.8-18.7-3.2-28.2-3.4
		c-7.6-0.2-15.4-0.4-22.8,1.7c-6.1,1.8-11.8,5.1-18,6.6c-5.8,1.4-11.8,1-17.7,1.1c-20.5,0.4-40.8,6.3-58.3,17
		c-4.3,9.7-14.5,15.3-24.6,18.7c-9,3.1-18.8,2.7-28.3,3.6c-9.5,0.9-19.6,3.6-25.6,11.1c-4.1,5.1-6.1,12.1-11.7,15.4
		c-3.3,2-7.2,2.3-11,3c-16.5,3-30.8,12.9-46.3,19.3C3680.2,2463.3,3648.5,2462.5,3621.1,2473.4z"/>
	<path id="cubeo" class="st0" d="M4379.7,3103.3c0,0-52.8-104-33.6-193.6c19.2-89.6,41.6-105.6,67.2-108.8c25.6-3.2,103.6-40,137.2-62.8
		c33.6-22.8,95.1-72.4,95.1-72.4s-5.9-28.8,25.6-34.1c0,0,12.8-20.5,14.9-33.3s-16-20.5-24.4-67.7c0,0-23.6,6.4-46-14
		c-22.4-20.4-33.6-55.2-34.8-73.2c-1.2-18,3.2-45.2,20.8-52c17.6-6.8,8-26.8,8-28c0-9,4.2-17.5,4.5-26.6c0.2-7.3-4.2-14.6-2-21.5
		c0.7-2.1,1.9-4,2.8-6c1.3-2.9,1.8-6,2.4-9c2.3-12.6,4.7-25.3,7-37.9c0.4-2.4,0.9-4.8,1.2-7.2c0.9-6.3,0.9-12.9-1.1-19
		c-0.6-1.9-1.5-3.8-1.4-5.9c0.1-4.4,4.1-7.6,7.6-10.3c14-11.1,24.1-26.2,36.9-38.7c7.9-7.7,16.8-14.3,25.7-20.8
		c16.5-12.2,33.1-24.3,51.2-34c17.6-9.4,39-14.4,58.9-14.7c16.7-0.3,33.9,3.7,47.6,13.2c0.7,0.5,1.5,1.1,2.4,1.2
		c0.9,0.1,1.8-0.2,2.6-0.4c12.8-3.7,23.7,5,34,10.9c1.4,0.8,2.9,1.7,4.2,2.7c1.9,1.5,3.4,3.4,4.9,5.3c3.9,4.9,7.8,9.8,11.7,14.6
		c3.8-8.9,4.3-19,2-28.3c2.2,3.6,3.8,7.6,4.8,11.7c0.4,1.6,0.7,3.2,0.6,4.9c-0.1,5.6-3.6,10.5-6.9,15c3.4,3.4,6.3,8.4,7.9,12.9
		c5,1.8,9.3,5.4,12.6,9.6c3.3,4.2,5.8,9,8.3,13.7c1.9-3.6,6.6-5.6,10.5-4.4c-0.5,2.1-1.8,4-3.6,5.2c-5.6,3.6-7.9,11.4-6.1,17.8
		c0.3,1.2,0.8,2.4,1.5,3.3c1.8,2.2,5.2,3.6,5.1,6.4c2,0.5,3.7-1.3,5.1-2.7c4.5-4.2,11.2-5.6,17.3-4.7c6.1,0.9,11.8,3.8,17,7.2
		c1.3,0.9,2.8,2.4,2,3.7c-2.3-0.1-4.2-1.8-6.1-3c-5.9-3.8-13.4-4-20.4-4.1c-3.2-0.1-6.8,0.1-8.7,2.7c2.6-0.2,5.1-0.4,7.7-0.6
		c0.7-0.1,1.5-0.1,2.2,0.1c1,0.3,1.7,1.2,2.3,2c2.4,3,4.9,6.1,7.3,9.1c1.6,2,3.3,4.2,3.5,6.8c-7.6-7.4-17.6-13.5-28.1-12.4
		c1.3,3.8,2.2,7.4,3.5,11.2c0.5,1.3,0.9,2.6,1.2,3.9c0.4,2,0.4,4.1,0.4,6.1c0,5.8,0,11.6,0,17.4c5.7,6.5,12.5,13.9,17.8,20.7
		c3.3,4.3,6.5,8.8,8.7,13.8c1.7,3.9,2.7,8.1,3.7,12.2c2.1,8.7,4.1,17.4,6.2,26.1c1,4.1,1.9,8.2,2.2,12.4c0.9,12.4-3.9,24.4-8.6,35.9
		c0,0,19.2,130.5-45.2,211.7c0,0,18-2.8,18.4,21.6c0.4,24.4,3.2,70.4,3.2,70.4s36,13.2,53.2,19.6c17.2,6.4,58.8,14.4,72,44.8
		c13.2,30.4,12.8,49.2,17.6,65.2c4.8,16,8.4,46,14,75.6c5.6,29.6,16.4,52.4,22.8,80.8s30,118.4,30,118.4c-27.5-8.4-53.1-20.5-69-44.4
		c-2.7-4-4.9-8.3-7.8-12.1c-8.7-11.6-22.7-18.3-36.9-21.1c-14.2-2.8-28.9-2-43.4-1.2c-5.1,0.3-10.4,0.6-15.1,2.5
		c-12.3,5-18,19.4-28.8,27.1c-12.6,9-30.5-0.5-45.4-4.7c-20.7-5.8-43.3-4.8-63.2,3.2c-7.4,3-14.6,7-22.5,8.4
		c-16.8,3-33.2-6-49.7-10.3c-14.4-3.7-29.4-3.8-44.3-3.9c-12.6-0.1-25.3-0.1-37.5,3c-16.4,4.3-31.9,14.3-48.8,13
		c-5.9-0.4-11.5-2.2-17.2-3.8c-36.6-9.9-76.2-8.6-112.2,3.6c-11.7,3.9-23.5,9.1-35.8,7.8c-6.1-0.7-11.9-2.9-17.9-3.7
		C4440.1,3057.8,4414.5,3103.3,4379.7,3103.3z"/>
	<path id="piapoco" class="st0" d="M4377.7,3684.3c0,0,1.2-31,0-37.4c-1.2-6.4-3.2-15.2-2.2-30.4s-6-25.4-10.4-48.2s-9-19.2-9.8-40.8
		c-0.8-21.6-13.4-39.4-24.4-61.8c-11-22.4-15.6-44.2-20.6-63.2s-20.2-57.2-20.2-57.2s-10.8-45-29.2-65.6
		c-18.4-20.6-70.8-24.2-70.8-24.2s-1.4-4-6.4-24s-2-29.8-15.2-64.8s-10.6-35.2-14.4-63.2c-3.8-28-13-33-12.8-49.8
		c0.2-16.8-4.2-11.6-7.8-19.2s-16.8-23.6-27.4-33s-27.4-15.8-43-16.4c-15.6-0.6-28.6-0.8-40,2.8c-11.4,3.6-28.8,12.6-44.8,25.8
		s-14,31.6-14,31.6c-8.8,7.2-5,16-5,16s0,2-6,23.2s-10,64.4-16,88s-10,81.6-40,89.6s-31.2,10-46.4,22c-15.2,12-26.4,66.4-32,92
		c-5.1,23.5-7.8,47.6-10.7,71.4c-1.6,12.7-2.7,24.1-6,36.7c-4.8,18.3-9.6,36.7-14.4,55c-8.5,32.6-17.1,65.5-18.3,99.1
		c-0.2,6.2-0.3,12.8-4.1,17.7c-0.5,5.1,8.1,6.1,13.1,4.9s9-4.8,13.9-6.3c5.9-1.8,12.4-0.4,18.5-1.7c5.9-1.2,10.9-4.7,15.9-8
		c25.5-17,54.6-30.6,85.3-30.7c10.9,0,21.9,1.7,32.8,1.1c15.1-0.8,29.7-6,44.5-9c30-6.2,61.7-3.8,90.4,7c6.8,2.6,13.9,5.6,21.1,5
		c7.8-0.6,14.7-5.4,22.3-7.4c13.7-3.5,28,2.3,40,9.8c11.9,7.5,22.9,17,36.1,22c9.1,3.4,18.9,4.6,28.6,6c13.1,2,26.2,4.6,39.1,7.4
		c6.6,1.4,13.2,3,19.7,4.5c2.4,0.6,5.8,0.4,8,1.7c1.9,1.2,2.7,3.6,4.5,5.2c4.2,4,10.1,6,15.7,6.8c6.3,0.9,12.7,0.4,19.1,0.6
		c5.7,0.2,10.2,0.6,15.7,2.1C4352.2,3677.8,4377.7,3683.6,4377.7,3684.3z"/>
	<path id="muisca" class="st0" d="M3148.5,3576.9c0,0-4.8-11.2-5.6-68c-0.8-56.8-1.6-71.2-4-115.2c-2.4-44-10.1-48.8,12.3-96.3
		c0,0,23.5-20.8,46.7-30.9c23.2-10.1,17.1-9.3,17.1-9.3s-4.5-145.6-1.9-174.9c2.7-29.3-5.3-56.5,11.5-134.5v-1.6c0,0-5.3-5.5,0-21.6
		s11.9-24.4,20.8-33.6c8.9-9.2,26.4-20.9,51.7-25.2c25.3-4.3,48.3-0.5,57.1,1.9c8.8,2.4,32,4.3,46.9,7.5
		c14.9,3.2,28.5,10.9,36.5,27.2c8,16.3,13.6,21.3,16.8,31.7c3.2,10.4,13.1,18.4,8,25.3c0,0,0,6.9,2.7,8.5c2.7,1.6-4.5,4.5-4.5,4.5
		s11.7,43.5,9.3,80.3c-2.4,36.8,5.3,32,5.9,75.5c0.5,43.5,0,47.2,0,47.2s6.9-12.3,14.7-10.9s6.1,23.5,6.1,23.5s3.2-16.3,19.7-14.9
		c16.5,1.3,22.9,4.3,13.6,11.2c-9.3,6.9-20.3,19.7-23.5,27.5s-4.5,4.3-4.5,4.3l3.2,21.1c0,0,34.1,6.1,60.8,55.7
		c26.7,49.6,19.7,57.1,17.6,80.5c-2.1,23.5,4.8,9.6,2.4,50.1c-2.4,40.5,0.2,34.1,0.5,54.4s8.3,51.7,4,72s-0.5,34.1-5.9,45.9
		s-1.6,36.8-1.6,36.8c-3.6-13-15.1-23.7-28.2-26.8c-5-1.2-10.2-1.3-15-3.2c-4.2-1.7-7.8-4.6-11.6-7c-13.4-8.5-30.3-11.6-41.5-22.8
		c-4.2-4.3-7.4-9.5-11.5-13.8c-13.9-14.8-36.4-18.1-52.4-30.7c-8.1-6.4-14.6-15.2-24.3-18.6c-14-4.9-28.8,3-42.4,9.1
		c-20.2,9.1-42,14.3-64.1,15.4c-22.5,1.1-44.9-2-67.4-3.2c-3.7-0.2-7.6-0.3-10.9,1.2c-2.7,1.2-4.8,3.3-7,5.4
		C3189.3,3553.8,3172.4,3576.9,3148.5,3576.9z"/>
	<path id="rrom" class="st0" d="M2409.3,3308.1c0,0-49.3-50.7-54.7-74.7l40.5,9.1c0,0-3.2-25.1-6.9-39.5c-3.7-14.4-44.8-37.9-51.7-82.1
		c-6.9-44.3,14.4-80,27.2-92.8c0,0,4-4.5,0.3-19.7c-3.7-15.2-11.5-24.3-10.7-46.4c0.8-22.1-4-20.8,4.8-34.4
		c8.8-13.6,19.2-21.1,24.5-30.7c5.3-9.6,7.7-8,4.8-29.6c-2.9-21.6,6.9-34.4,6.9-34.4s-24-15.7-45.1-22.4c0,0-3.7-4.3,4.5-10.1
		c8.3-5.9,6.1-8.5,18.4-10.4c12.3-1.9,12.3-1.9,12.3-1.9s-21.1-27.5-12.3-39.2c8.8-11.7,46.1,21.6,44,38.9c0,0,20.3-34.7,52.8-38.1
		c32.5-3.5,56.8,2.1,69.6,4.3c12.8,2.1,27.2,2.7,41.3,23.2c14.1,20.5,11.2,36.5,17.3,43.5s2.1,13.1,2.1,15.2s2.4,18.4-1.1,29.6
		c-3.5,11.2-0.8,21.6-1.6,36s9.6,28.5,10.7,40.5s4.3,24.8-9.6,46.7c0,0,18.9,35.7,16,52s-6.7,32.8-10.1,37.9
		c-3.5,5.1-18.4,27.2-32,29.9l-2.9,12.5c0,0,39.5,33.1,46.9,48.3c7.5,15.2,10.9,30.9,10.9,30.9s16.3,4.8,31.7,24
		c15.5,19.2,16.5-0.8,25.3-11.5s14.7-21.6,26.4-34.4c11.7-12.8,30.1-35.5,43.2-53.1c13.1-17.6,15.7-14.1,20-30.1s1.3-19.2,8-33.3
		c6.7-14.1,11.5-21.3,14.4-36.8c2.9-15.5,1.6-30.4,16.8-35.7c0,0,8.3,2.1,10.1,13.6c1.9,11.5,8.3,15.5,4.8,30.1
		c-3.5,14.7,1,12.8,1,12.8s16.1-8,17.1-15.7c1.1-7.7,4-20.8,0-29.6s-25.6-13.3-24.5-28.5c1.1-15.2,15.7-15.7,22.9-9.6
		c7.2,6.1,30.1,29.6,29.9,44.5c-0.3,14.9,4,25.6,0,37.1c-4,11.5-23.7,47.7-34.1,52.8c-10.4,5.1-1.1,7.7-16.8,19.2
		c-15.7,11.5-13.3,14.7-13.3,14.7s-8,18.1-13.3,22.9c0,0-2.7,19.2-8,29.9c-5.3,10.7-13.9,30.4-17.6,46.4s-30.4,44.3-30.4,44.3
		s-23.5,44.3-30.9,44.3l14.7,5.6c0,0-44.8,34.1-82.1,44.3c0,0,56.5,38,69.9,57.4c0,0-31.2-0.5-45.3,0s-66.9-5.1-96-34.5
		c0,0-21.6,13.6-35.2-24.3c0,0,16.5,36-9.6,42.9s-29.1-14.1-27.5-22.4c1.6-8.3,7.2-24.5,7.2-24.5s-9.6,23.7-18.1,27.7
		c-8.5,4-19.7,1.1-19.7,1.1s-30.4,41.6-137.1,32.3c0,0,31.5-36.3,66.1-56c0,0-70.9-28.5-82.7-43.5c0,0,49.6-16.5,96.8-12.8
		L2409.3,3308.1z"/>
	<path id="afrocolombianos" class="st0" d="M1725.5,2995.5c0,0,6.6,44.2,1.2,46.6c-5.4,2.4-19.6-18-19.6-18s-3.8,23-8.4,22c-4.6-1-16-21-18-42.2
		c0,0-26,36.2-30.8,33.2c-4.8-3-1.6-25-1.6-25s-16.6,10.4-21,8.7c-4.4-1.7,2.8-17.1,2.8-17.1s-47,34.2-102.6,22.8c0,0,1.2-5.6,9-19
		s40.2-32.6,40.2-32.6s-63.4-14.6-67.8-24c0,0,25.4-18.8,48.2-21.6l3-15.4c0,0-35.2-31.2-33.4-38.2c1.8-7,44-1.4,44-1.4
		s11.6-40,14.8-44s38.6-22.2,70.4-34.2c31.8-12,80.2-26.2,80.2-26.2s25-27.4,32.8-30v-6.8c0,0-15.9,12.6-24.4-13.5
		c0,0,2.7,18.4-10.7,15.7c-13.3-2.7-15.5-9.6-13.6-20.8c0,0-17.6,8.8-28.8-7.7l-1.9-13.9c0,0-11.7,10.4-24.3-4
		c-12.5-14.4-3.2-20-3.2-20s-36-4.5-35.5-30.4c0,0-0.8-10.7,18.7-7.7l-6.4-5.3c0,0-9.1-8-9.9-22.7c0,0-27.5-5.6-15.7-31.7
		c0,0,7.5-12.5,18.1-14.4c0,0-7.7-14.4-2.1-23.5c0,0-23.7-17.6,3.7-42.7c0,0,10.7-10.7,32-7.2c0,0-12.5-6.1-10.7-17.3
		c1.9-11.2,9.3-6.7,9.3-6.7s-11.7-16,5.6-27.2c17.3-11.2,23.7,0,23.7,0s4.3-19.2,20.3-16.5c0,0-3.2-20,20.5-22.1
		c0,0,5.1-16,20.8-10.9c0,0,19.2-28,39.7,0.8l3.7-1.9h6.4c0,0-2.4-25.3,22.7-24.5c0,0,14.7-1.1,19.2,16.5c0,0,14.7-20.8,29.1,4
		c0,0,19.2-14.4,24.3,12.5c0,0,24.3-8,22.7,20.8c0,0,10.1-13.9,22.9-2.7c12.8,11.2,1.6,16.5,1.6,16.5s17.3-8.5,24,3.5
		c6.7,12,0,16.8,0,16.8s21.6,3.5,15.7,25.1c0,0,11.5-5.1,14.1,5.1c2.7,10.1-5.6,7.7-5.6,7.7s8.3,7.7,4.8,17.1c0,0,23.5,2.4,13.9,25.6
		c0,0,5.4,6.1,2.3,16.3c-3.1,10.1-6,13.6-6,13.6l2.9,9.1c0,0,17.3,2.4,17.9,21.6c0.5,19.2-17.1,23.5-17.1,23.5s3.3,1.9,2.4,5.9
		c0,0,9.2,0.9,5.3,10.4c-3.9,9.5-10.1,4-10.1-1.3l-10.3,6.3c0,0,16.9-1.7,17.1,4.1c0.1,5.9-8.8,17.3-8.8,17.3s-0.1,14.7-20.5,16.3
		c0,0-4.3,15.3-11.2,16.7c0,0,11.5,0.5,9.6,3.6c-1.9,3.1-8.3,15.7-30.3,6.9c0,0-1.1,18.1-15.5,22.4c-14.4,4.3-19.1-2.3-19.1-2.3
		s-7.1,4-10.5,1.6c0,0,6.5,13.1-6.7,16.5c-13.2,3.5-14.5-6.8-14.5-6.8s-7.1,10.8-19.2,8l0.7,7.1c0,0,14.9,11.3,24.9,27.2
		c0,0,52.1,16.4,73.3,24c21.2,7.6,60.4,26.8,69.2,30.4c8.8,3.6,8-0.8,15.2,21.2c7.2,22,11.2,29.6,11.2,29.6s26.4-5.2,44.8,0.8
		c0,0-26.4,33.8-36.4,37.6l4.8,16.4c0,0,41.4,10.2,45,22.4c3.6,12.2-69.2,22.4-69.2,22.4s54.8,41.8,52,51.8c-2.8,10-77-2-95-17.2
		l1.2,5.4c0,0-35.6-5.4-44.2-18.2c0,0,8,44.8,2.4,45.4c-5.6,0.6-19.4-17.2-19.4-17.2s-3.4,19.9-8.4,22c-5,2.2-16.8-18.8-17.6-41.8
		c0,0-27.4,36.6-31.8,33c-4.4-3.6-1.6-25.8-1.6-25.8s-11,8.8-17.8,11.2c-6.8,2.4-19.6,6.8-27.4-8.4s-8.4-19.6-8.4-19.6
		s9.6,26.8,5.8,33.8c-3.8,7-12.4,16.2-25.6,12c-13.2-4.2-17.4-11.4-13.2-23c4.2-11.6,8.3-24.6,8.3-24.6s-9.4,23-15,27.2
		c-5.6,4.2-22.4,11-32.5-7.6C1766.9,3012.5,1747,3015.7,1725.5,2995.5z"/>
	<path id="nasa" class="st0" d="M1661.1,3778.2c9.4-6.5,13.8-17.9,18.3-28.4c4.5-10.5,10.7-21.5,21.4-25.4c9.4-3.4,20.1-0.4,29.7-3
		c12-3.2,20.7-14.6,32.9-16.9c7.8-1.5,15.9,0.9,23.9,0.2c10.5-0.9,20-7.3,30.5-8c9.4-0.7,18.6,3.2,28,3.4c8.9,0.2,17.6-2.9,26-6
		c2.3-0.9,4.7-1.7,6.5-3.4c2-1.8,3.2-4.3,4.7-6.5c7.8-11.8,27.9-17.4,41.4-18c13.8-0.7,27.2,4.2,40.2,9.1c13,4.9,26.3,9.8,40.2,9.3
		c14.8-0.6,28.8-7.4,43.6-7.9c15.1-0.4,29.5,5.8,43.3,11.9c23.4,10.3,47.7,21.4,63.7,41.3c6.1,7.6,11,16.3,19,22.1
		c4.6,3.4,7.9,1.9,13.4,2.2c5.8,0.4,11.5,2,17,3.6c5.5,1.6,11.1,3.3,15.6,6.8c2.9,2.3,5.3,5.4,8.8,6.9c1.8,0.8,3.7,1,5.6,1.4
		c7,1.5,13.5,5.1,18.4,10.4c1.5,1.5,8.3,11.6,10.9,9.2c1.2-1.1-0.6-8.2-0.8-9.7c-1-8.9-2.1-17.8-2.7-26.7c-0.8-11.6-6-39.6-12.4-61.6
		c-6.4-22-14.8-46.4-18.8-74.4s-7.2-50.4-11.2-71.2c-4-20.8-6-49.2-18.8-76c-12.8-26.8-6.8-41.6-22.4-58.4
		c-15.6-16.8-26.4-10.4-26.4-10.4s-4.4-31.6-10-45.6s-12.4-54-12.4-54c30.4-21.2,43.6-54,43.6-54c16-16.8,15.2-22.4,15.2-41.6
		c0-19.2-5.2-33.2-17.2-55.2s-17.2-25.6-34-44.4s-30.8-28.8-54-34.8s-34.4-6.4-75.6-6.4c-41.2,0-64,16.8-81.2,18.8
		c-17.2,2-33.2,8.4-44.8,20c-11.6,11.6-81.2,32.8-76.4,104.4c4.8,71.6,55.6,93.2,55.6,93.2l-6.4,23.6l-13.6,40.4l18-26l-2.2,42.8
		c0,0-28.8,14-38.2,15.8c-9.4,1.8-23,4.4-27.8,6.8c-4.8,2.4-26.2,14.6-26.2,14.6l-3.6-1.2c-8,2.8-20.4,1.6-20.4,1.6
		c-1.8,4.6-2,46.4-2,46.4c-7,7.8-25.2,67.6-30,104.4c-4.8,36.8-16.8,99.2-28.8,128.8c-9.9,24.4-11.8,50.5-18.1,75.7
		C1661.3,3778.6,1659.7,3777.8,1661.1,3778.2z"/>
	<path id="pijaos" class="st0" d="M2478.1,4037.7c0,0,9.3-45.3,11.5-71.5s6.9-33.6,9.1-58.1c2.1-24.5,5.9-38.9,7.5-61.9
		c1.6-22.9,13.3-36.3,36.8-44.8c23.5-8.5,33.1-8.6,33.1-8.6s19.2-40,20.3-55.4c1.1-15.5,4.3-37.9,14.9-78.4
		c10.7-40.5,11.2-73.1,28.3-101.3c0,0,11.7-26.7,22.4-44.3c10.7-17.6,53.9-69.3,85.9-51.2c0,0,50.1-20.3,88,27.7
		s37.3,96.5,49.1,130.7c11.7,34.1,22.4,73.1,25.1,90.1c2.7,17.1,28.8,50.7,41.1,69.9c12.3,19.2,10.7,3.7,29.9,23.5
		c19.2,19.7,30.9,50.1,34.7,77.3s5.9,90.1,10.1,119.5c4.3,29.3,3.2,89.6,3.2,89.6c-9.2-4.4-17.6-11.7-26.9-16
		c-16.2-7.5-37.7-0.9-51.1-12.6c-6.1-5.3-9-13.3-13.7-19.9c-8.4-11.7-21.9-18.3-34.9-24.4c-13.2-6.2-26.3-12.4-39.5-18.6
		c-13-6.1-26.6-12.4-41-11.9c-17,0.6-33,10.7-50,9.3c-16-1.3-29.2-12.5-44.5-17.4c-17.8-5.7-38.2-2.1-53,9.3
		c-9.4,7.3-17.7,17.9-29.5,18.8c-6,0.4-11.9-1.8-17.9-2.5c-18.8-2-36,12.1-54.8,12.2c-10.3,0-21.3-4.1-30.7,0.2
		c-4.6,2.1-8.2,6-12.3,9.1C2514.5,4037.2,2496.5,4037.7,2478.1,4037.7z"/>
	<path id="quillacinga" class="st0" d="M1474,4153.3c0.5,3.4,1.3,6.9,2.3,9.2c2.7,6.1-3.7,21.9-4.8,28s-4,18.9-16,27.2c0,0-4.3,22.7-8.3,33.1
		c0,0,5.6,6.9,17.3,16c11.7,9.1,24.3,15.7,29.9,16.3c5.6,0.5,1.6,19.5,1.6,19.5s14.7,11.5,26.7,19.7s28,11.5,34.7,12
		c6.7,0.5,42.7,17.3,49.1,25.1c6.4,7.7,44.3,25.3,48.8,30.1c4.5,4.8,32.3,17.6,41.9,27.2s23.2,29.6,36.3,53.6
		c13.1,24,33.1,51.2,37.1,64.3c-14.2-12.1-29.4-24.1-42.4-37.4c-6.6-6.8-13.4-13.9-22.3-17.2c-5.9-2.2-12.3-2.4-18.5-2.9
		c-16.2-1.3-32.7-4.4-46.7-12.8c-19.9-12-44.2-6.2-66.9-10.4c-24.1-4.5-47.4-13.7-68-26.9c-9-5.8-18.1-12.6-28.8-13.3
		c-13.7-0.9-26.3,8.5-40.1,8.7c-10.6,0.1-20.4-5.2-30.3-9.1c-25.3-10.1-53.9-11.6-80.1-4.1c-8.7,2.5-17.1,5.9-26,7.2
		c-26.2,3.9-55.3-10.4-78.4,2.7c-4.3,2.4-8.2,5.8-12.7,7.8c-5.6,2.6-11.9,3.1-17.9,4.6c-15.8,4-28.9,14.7-41.4,25.2
		c-8.1-4.1-17.7-8.2-25.7-4.1c-2.5,1.3-4.5,3.2-6.8,4.7c-8,5.5-19.1,6-27.6,1.2c-5.5,12.4-18.1,21.4-31.6,22.7
		c-5.3,0.5-10.7-0.2-16,0.4c-19.8,2.2-33.6,20.1-44.9,36.6c-4.3-3.9-29.4-26.3-38.2-31.4c-9.6-5.6-19.6-19.2-16.8-31.6
		s11.9-22.8,27.6-34c15.6-11.2,14.8-18.4,40.4-30.4s60.4-29.6,75.6-37.6c15.2-8,51.2-21.2,69.2-34.4c0,0-1.2-17.6,42-40
		c0,0-18.4-45.6-18.4-65.2c0,0-12-10.8-10.4-22.8s4.4-37.6,4.4-37.6s-15.6-20.8-28.4-30.8s-42.8-24-39.2-56c3.6-32,67.6-44,67.6-44
		s24.8-61.2,24.4-71.6c-0.4-10.4,2.8-21.6,22.4-39.2c19.6-17.6,54-31.6,103.6-35.6c49.6-4,86.4,13.6,102,37.6
		c15.6,24,9.6,62,22.4,79.2c12.8,17.2,8,31.6,8,31.6s50,3.6,66,27.2c16,23.6,6,58-8.4,67.6c-14.4,9.6-40.5,22.8-40.5,22.8
		S1473.1,4147.5,1474,4153.3z"/>
	<path id="ingas" class="st0" d="M1730.9,4726.5c0,0,16.8-31.2,26.4-49.6c9.6-18.4,27.2-61.6,44.8-76s12-27.2,28.8-48
		c16.8-20.8,29.6-28.8,44-60.8s60.8-40,78.4-68.8c17.6-28.8,43.2-71.2,44-92c0.8-20.8,3.2-71.6,3.2-76.4c0,0-18-6.8-30.8-25.6
		c-12.8-18.8-12-36.8-17.2-53.2s-11.6-29.2-10.4-55.6c1.2-26.4,1.2-46.8,22.4-83.6c21.2-36.8,45.6-52.4,64.4-60.8
		c18.8-8.4,44-24,81.6-24s50,8.4,70.8,11.6s75.6,38,94.8,56.4c19.2,18.4,25.2,30.4,46,67.2c20.8,36.8,26.4,70.4,28,87.6
		c1.6,17.2,0.4,49.2-4.4,64.4c-4.8,15.2-20.8,47.2-36.8,55.6c0,0-6.8,22.8-23.2,35.6c0,0,21.6,45.2,29.2,48.4
		c7.6,3.2,20.4,12,34,30.8c13.6,18.8,40.8,41.2,55.6,60c14.8,18.8,58,80,64.4,96.4c6.4,16.4,1.2,19.6,9.2,33.6s22.8,41.2,32.8,71.2
		s16,98,14.8,112.4c-1.2,14.4-22.4,14-22.4,14c-21.6-15.4-46.4-33.5-61.9-55c-6.4-8.9-12.3-19.2-22.6-23c-4.1-1.5-8.6-1.8-13-2.1
		c-7.5-0.4-14.9-0.9-22.4-1.3c-8.1-0.5-16.3-1-24-3.5c-7.9-2.5-15-7-22.7-10c-14.9-5.6-31.3-5.1-47.2-6.8c-29-3.1-57-14.1-80.3-31.6
		c-3.7-2.8-7.3-5.7-11.6-7.5c-13.4-5.7-28.5,1.5-41.3,8.5c-27.5-13.6-60.2-17.6-90.8-19.4c-8.9-0.5-18-1-26.8,0.5
		c-9.4,1.6-18.3,5.3-27.4,8c-19.3,5.7-40,6.5-59.7,2.4c-3.2-0.7-6.5-1.5-9.7-0.9c-5.5,1-9.4,5.6-14,8.7c-14.7,10.1-36.6,5.6-50,17.3
		c-4.7,4.1-8,9.9-13.5,12.8c-9.3,4.8-20.9-0.6-31.1,2.1c-4.5,1.2-8.5,4.1-13.2,4.7c-3.4,0.5-6.8-0.3-10.2-0.1
		c-13,0.8-21.5,14.3-33.6,19C1762.1,4725.7,1746.3,4726.5,1730.9,4726.5z"/>
	<path id="nukak" class="st0" d="M3684.1,4013.5c0.1-0.2,0.2-0.5,0.5-0.7c0.4-0.3,0.9-0.5,1.3-0.9c0.5-0.7,0.3-1.6,0.4-2.5
		c0.1-1,0.8-1.8,1.4-2.6c2.1-3.1,2.7-7.2,1.5-10.7c-0.3-0.8-0.6-1.5-0.6-2.4c0.1-2.4,3-3.6,3.9-5.8c0.8-2-0.3-4.3-1-6.4
		c-1-3.2-0.9-6.8,0.8-9.7c0.4-0.7,1-1.4,1.2-2.1c1.1-3.3-3-6.1-3.5-9.6c-0.3-2.1,0.8-4.1,1.4-6c0.7-2,0.9-4.2-0.7-5.6
		c-3.1-10.2-2.5-21.5,1.5-31.4c0.7-1.6,1.4-3.3,1.6-5.1c0.1-1.7-0.3-3.3-0.8-4.9c-4-13.9-8-27.9-14.5-40.8s-15.8-24.8-28.3-32.1
		c-4.9-2.9-10.2-5-14.6-8.6c-2.7-2.2-5-5-7.9-7c-2.7-1.9-5.8-3.1-8.9-4.2c-4.7-1.7-9.4-3.5-14.1-5.2c-14.2-5.3-28.7-10.6-43.7-12.3
		c-1.4-0.2-2.9-0.3-4.3-0.1c-1.8,0.3-3.5,1-5.2,0.6c-1.4-0.3-2.4-1.3-3.7-2c-2.2-1.1-4.7-1.1-7.1-1.1c-18.2,0.1-37.4-1.9-55.5-0.1
		c-9.3,0.9-18.4,3.9-26.4,8.8c-1,0.6-1.9,1.2-3,1.5c-1.8,0.5-3.7,0.2-5.5,0.6c-3,0.6-5.7,3.2-8.7,2.7c-1-0.2-2-0.7-3.1-0.7
		c-2.8-0.2-4.9,2.5-7.7,2.8c-1.3,0.1-2.7-0.4-4-0.3c-3.8,0.3-5.3,5-8,7.7c-1.9,1.9-4.6,3-7.3,2.9c-1.1-0.1-2.3-0.3-3.3,0.2
		c-0.9,0.4-1.4,1.4-2,2.2c-2.4,3.9-6.2,5.9-9.2,9.2c-3.2,3.5-6.5,6.8-9.9,10.1c-1.9,1.8-3.8,3.7-5,6.1c-2.1,4.3-2.3,10.7-6.9,12
		c-1.8,4-3.7,8-5.5,12c-0.7,1.4-1.3,2.9-1.6,4.4c-0.3,1.7-0.2,3.4-0.5,5.1c-0.5,2.9-2.1,5.5-4.5,7.3c-0.6,0.5-1.4,0.9-1.7,1.6
		c-0.9,1.9,1.5,3.8,1.8,6c0.2,1.4-0.6,2.7-0.8,4.1c-0.5,2.6,0.8,5.1,1.5,7.6c1.7,6.3-0.2,12.9-2.1,19.1c-1.4,4.5-2.8,8.9-4.1,13.4
		c-0.8,2.5-1.9,5.4-4.4,6.2c3.2,3.7-2,9.5-0.5,14.2c0.5,1.8,2,3.1,3.1,4.7c1.1,1.5,1.7,3.7,0.7,5.2c-0.7,1-1.9,1.4-2.6,2.3
		c-0.8,1-0.9,2.3-0.9,3.5c-0.1,5,2.6,10.2,4.5,14.8c0,0-5.2-5.6-13.2-1.8s-6.2,24.8-6.2,33.8s-1.4,25.2,1,32.6
		c2.4,7.4,10.4,11.2,16.8,29.4c6.4,18.2,23.6,14.2,23.6,14.2c14.4,58.8,43.5,78.8,43.5,78.8s9.3,25.7,6.5,39.5s-19.7,25.9-19.7,25.9
		s-0.4-4.5-7.3-4c-6.9,0.5-5.2,8.1-6.7,11.9c-1.5,3.7-29.9,13.9-29.9,13.9c-4.9-9.1-19.1-0.3-23.6,2c-4.5,2.3-3.5,8-3.5,8
		c-43.2,11.2-67.2,36.8-67.2,36.8c-21.3,31.5-34.1,80-31.5,116.8c2.7,36.8-5.9,60.8-5.9,60.8s0,0,0,0c9.2-0.7,18.8-2,25.5-8.2
		c6.3-5.7,8.7-14.3,12.1-22.1c4.4-10.3,10.6-19.7,16.8-29c2-3.1,4.2-6.2,7.4-8.1c5.4-3.1,12.1-1.7,18.2-2.9
		c8.2-1.6,14.6-7.9,21.7-12.4c10.7-6.7,23.6-9.5,36.2-9.3c5.3,0.1,10.8,0.6,15.8-1c4.6-1.5,8.6-4.6,13.1-6.4
		c15.3-6,32.9,2.3,46.6-10.3c2.7-2.5,5.7-2.9,8.5-4.9c2.9-2.1,4.9-5.2,8-7.2c5.6-3.7,12.7-4.1,19.4-4.5c13.4-0.7,27.5-1.3,39.4,4.7
		c3.4,1.7,6.6,3.9,10.1,5.2c15,5.6,30.7-5.8,46.6-8c13.6-1.9,27.2,3.2,40,8.2c11.2,4.4,22.4,8.7,33.7,13.1
		c13.8,5.4,28.8,11.8,35.3,25.1c1.6,3.2,2.6,6.9,5.2,9.3c2.2,2.1,5.2,3,8.1,3.9c5.8,1.7,11.6,3.3,17.6,4.2c5.5,0.8,11.1,1.1,16.5,2.3
		c7,1.6,13.5,4.6,20,7.7c5.6,2.7,11.4,5.4,15.6,10c3.6,3.8,5.9,8.7,9.4,12.5s10.7,7.5,15.4,5.4c6.2,5.3,15.9,11.1,23.8,13v-2.7
		c0,0,0-1.6-1.6-42.7c-1.6-41.1-21.9-118.9-21.9-118.9s-11.2-25.1-26.7-34.1c-15.5-9.1-40-18.1-49.1-19.7c-9.1-1.6-17.3-2.1-17.3-2.1
		c1.6-3.6-10.3-4.9-16-6.8s-10,3.1-10,3.1l-18.9-5.9c0,0-1.9,1.3-0.8-2.5c1.1-3.9-4.9-8.7-10.4-12.5c-5.5-3.9-9.2,1.5-9.2,1.5
		c-11.7-7.7-28.3-50.9-28.3-50.9c28.3-21.1,40.5-63.7,40.5-63.7c15.7,0,18.9-6.7,20.5-10.9c1.6-4.3,8.3-15.7,8.3-15.7
		c12.3-8.3,18.9-22.7,20.5-45.3c1.6-22.7,5.1-24.3,0-31.7c-5.1-7.5-14.6-2.4-14.6-2.4C3684.3,4015.9,3683.7,4014.5,3684.1,4013.5z"/>
	<path id="puinave" class="st0" d="M5130.9,4279.7c1.6-7.3,1.9-15.6,0.7-22.9c-1.4-8.3-1.1-16.7-0.7-25.2c0.7-15.9,2.3-32.1-0.2-47.9
		c-1.3-8.1,1.7-17.2,2.3-25.5c1.1-17.5,1.9-36.3-0.9-53.7c-2-12.4-3.6-46.4-6.4-59.2c-2.8-12.8,7.2-28.8,3.2-42s-8-45.6-14.4-61.2
		c-6.4-15.6-12.8-32.8-39.6-47.2c-26.8-14.4-50.8-20.4-58-23.2c-7.2-2.8-17.6-3.2-25.6-9.2s-6-26.8-2.4-40.8s7.6-52,6.4-69.2
		c-1.2-17.2-4.9-25.7-6.8-35.9s2.1-42.1,2.1-42.1c8-4,8-40.8,9.6-57.6c1.6-16.8-3.7-28-3.7-28l-4-1.6c0-16-12-43.2-20.4-57.6
		c-8.4-14.4-28-23.6-28-23.6c-25.2-23.2-48.4-24-48.4-24c-50.8-9.6-85.6,6.8-85.6,6.8l-6-6.8c-39.2,5.6-65.2,50.8-65.2,50.8l4.8,3.2
		c0,0-13.6,17.6-23.2,41.2c-9.6,23.6-6.4,47.2-9.2,61.2c-2.8,14,6.4,8.4,6.4,8.4c-14.8,43.6,14,118.4,14,118.4
		c-0.4,14-17.2,22-28,34.4c-10.8,12.4-21.6,19.2-34.8,29.6c-13.2,10.4-36.4,46-36.4,46h-15.2c-23.2,1.6-49.2,26.4-52,52.8
		c-2.8,26.4-8.4,68.8-8.4,101.2c0,32.4-0.4,81.6-1.6,102c-1.2,20.4-11.6,50.4-15.2,73.6c-3.6,23.2-6.4,19.2-13.2,44.8
		c-6.8,25.6-10.8,53.6-10.8,53.6c16.2,0,22.5-20.6,29.5-35.3c6.9-14.7,16.2-30.6,31.9-34.7c5.9-1.6,12-1.3,18-2.2
		c15.4-2.5,23.3-13,37.2-18.5c8.6-3.4,18.1-3.7,27.4-4.1c21.3-0.9,42.6-2.5,63.8-4.8c10.7-1.1,21.6-2.5,31.5-6.7
		c16.8-7.1,30.3-22.2,48.3-25c27.8-4.2,52.5,22.7,80.6,20.8c14.9-1,28.6-10.1,43.6-9.8c6.7,0.1,13.2,2.2,19.6,4.2
		c24.4,7.8,48.8,15.6,72.1,26.1c12.7,5.7,25.8,13.1,31.8,25.7c3.6,7.5,4.8,17,11.7,21.6c2.6,1.7,5.8,2.5,8.8,3.2
		c19.5,4.6,39.1,9.2,58.6,13.8"/>
	<path id="tukano" class="st0" d="M3867.7,4968.9c0,0-0.8-73.2-5.2-98c-4.4-24.8,6.8-60.4,10.4-81.2c3.6-20.8,12-31.6,12-54
		c0-22.4,5.2-88,5.6-100.8c0.4-12.8-14.8-74,14.4-114c29.2-40,49.6-35.6,68.8-38s66.8-18.4,76.8-30l-2.4-28.2c0,0-8.2-19.4-7.6-32.2
		c0,0-12,6.6-18-5.4s-5.8-28.6-5.8-28.6s-20.2-13.8-23.2-31.6c0,0-17.6,11.4-45.2,2c-27.6-9.4-58.6-6.2-63-27
		c-4.4-20.8,33-11,35.8-6.4c2.8,4.6,6.6,1.4,13.2,3.8c6.6,2.4,7.6,6.4,15.2,5.6c7.6-0.8,5.6-1.6,17.4,1.8c11.8,3.4,25.4,11,25.4,11
		l-1-16.4c0,0-34.6-3.2-51-9.4c-16.4-6.2-40-8.4-56.2-16.4c-16.2-8-19.8-9-16.8-18.8c3-9.8,26.8,1.6,31.4,4.8
		c4.6,3.2,12.6,4.2,14.8-2s6.8-1,18.6,5c11.8,6,51.4,23.8,54.4,25.2c3,1.4,5.6,3.8,5.6,3.8l3.4-18.2c0,0-16,0-47.6-17.6
		c-31.6-17.6-41.4-18.8-58.8-31c-17.4-12.2-19-16-15.2-22.6c3.8-6.6,19.6-0.6,26.2,0c6.6,0.6,13.4,10.6,16.4,11.6s1.4-4.6,9.2-4.6
		s17.4,14.6,22.8,16.4s14,7.4,17,10.6c3,3.2,1.2,7.8,6.8,8c5.6,0.2,24.8,16.8,26,23.2c0,0,9.6-17.6,16.8-24.4c0,0-23.8-6.6-38-16.6
		c-14.2-10-15.6-20.2-28.4-25.4c0,0-5-3-4.6-10c0.4-7-11.6-7.2-14.2-14c-2.6-6.8-0.6-10-0.6-10s-22.2-14.8-16.6-36.4
		c0,0,24-2.2,33.6,6.8c9.6,9,10.8,18.2,10.8,18.2s2-6.6,7-5.4c5,1.2,13,22,16,22s4-1.6,11.6,2.6c7.6,4.2,19.2,16.6,26.4,23.8
		c7.2,7.2,14.8,30.8,14.8,30.8s11-9,20.1-11.3c0,0-10.7-8.8-11.8-15.1s0.7-4.5-10.9-14.7c-11.6-10.1-7.6-18.7-16-27.5
		c-8.4-8.8-15.6-23.6-19.2-36c-3.6-12.4-11.1-30.9-3.9-37.9c7.2-6.9,20.7,6.7,28.3,11.2c7.6,4.5,24.1,31.6,26.7,36.4
		c2.5,4.8,13.7,24.4,12.8,30.9c-0.9,6.5-1.5,12,5.3,16.7c6.8,4.7,15.2,26.1,15.2,26.1l24.5-3.2c0,0-12.7-24.3-16.4-44.4
		s-19.1-51.6-20.1-69.6c-1.1-18-11.2-42.5-11.2-64.9c0-22.4-6.4-50.9-5.9-62.7c0.5-11.7-2.4-27.2-5.6-34.4c-3.2-7.2-7.2-4.5-6.1-13.6
		s-0.3-42.7,12.5-42.9c12.8-0.3,23.2,20.3,25.9,28.5c2.7,8.3,0.3,30.4,0.3,30.4s10.7,24.3,15.5,34.9c4.8,10.7,2.9,38.9,5.6,43.2
		c2.7,4.3,11.7,15.2,11.5,22.7c-0.3,7.5-2.4,22.9,3.7,31.2c6.1,8.3,7.5,30.7,5.9,34.9c-1.6,4.3-1.1,10.4,5.1,17.3
		c6.1,6.9,8,18.4,5.6,23.7c-2.4,5.3-4.1,9.1,1,10.7c5.1,1.6,9.4,11.7,7.5,16.8c-1.9,5.1-10.9,38.7-10.9,38.7s28.4,2.9,36.4,8.3
		c0,0,9.8-25.2,15-35c5.2-9.8,25.4-40.2,32.8-53.6c7.4-13.4,31.8-38.4,42.2-35.2c10.4,3.2,18.2,5.2,11,22.2c-7.2,17-12,20.8-10,25.8
		s-3.6,17.6-8.6,25s-19.6,21.8-24.4,30c-4.8,8.2-29.8,35.6-29.8,35.6l13.2,9.6c0,0,9.8-21.4,25-29.4s20-14.8,26.4-14.2
		c6.4,0.6,7.2,0.2,7.6-0.8s12.8-19.2,17.2-18.6c4.4,0.6,4.4,6,5.4,5.4c1-0.6,9-15.2,15-16.2s32.2-4,33.6,0c1.4,4,2.8,16.6-20.6,32.2
		c0,0-2.4,17.8-17.6,18c0,0-4.4,3.6-3,6.4c1.4,2.8,0.8,7.6-8,7.8c-8.8,0.2-10.4,11.8-20,15.8s-30.8,18.2-45.2,14.8
		c0,0,9.8,12.6,9.6,24.2c0,0,3.6-7,10.4-9.8c6.8-2.8,13.6-0.4,19.8-6.8c6.2-6.4,16.4-10.6,23.2-13.8c6.8-3.2,22.6-15,25-14.2
		c2.4,0.8,6.8,3.2,8.2,6.2s5.2-4.4,11-7.4s28.2-2.8,32.4,1.2c4.2,4,4.6,12-2.6,15.6c-7.2,3.6-17.8,12.2-37.6,16.4
		c-19.8,4.2-40,11.8-50.2,15.2c-10.2,3.4-37.2,6.8-37.2,6.8l2.2,18.6c0,0,20.4-9.6,43.6-12.6c23.2-3,23.6-13.6,31-12.6
		s7,8.8,12.6,8.6c5.6-0.2,26.6-9.4,34.2-6s8.6,10,1.4,15.6c-7.2,5.6-24.2,7.6-43.2,10.4c-19,2.8-81.4,5.2-81.4,5.2l-4.2,16
		c0,0,10.8-7.2,27.2-6.4c0,0,13-3.2,19.2,0.6c0,0,15.2-8.6,20.4-3c0,0,6.6-7.2,18.6-6.2s24.6,2.6,24.2,6.8c-0.4,4.2,1.6,8.4-1.8,12
		c-3.4,3.6-21.8,9.4-33,10.2c-11.2,0.8-37.4,4-47.8,3.2s-30.6-9.4-30.6-9.4s-11.2,15.2-19.8,20.2c0,0,1,23.6-20.2,23.4
		c0,0,5.6,27.2-15.4,42.4v16.2c0,0,1,11.2,12.2,14.6c11.2,3.4,35.6,19.6,46.6,22.4c11,2.8,16.2,8.2,25.4,7c9.2-1.2,29.4,4.8,44,20.6
		c14.6,15.8,18.4,22.4,19.8,37.6s4.6,32.6,3.6,45s-0.4,15.2,0,23.6s0,24.2-1.6,33.2s0,29.6,1.2,41.2c1.2,11.6,3.8,31.8,7.4,43.8
		s-1.4,17,5.8,33.2c7.2,16.2,6.8,27.4,9.2,32.8c2.4,5.4,6.6,43.4,7.2,60.4c0.6,17-3,31.4-2.2,41.2c0.8,9.8-0.4,37-0.6,52.2
		c-0.2,15.2,1.2,43.8,1.2,43.8c-14.5-17.1-35.9-27.6-58.1-30.8c-3.1-0.5-6.4-0.8-9.2-2.3c-2.2-1.2-4-3.1-6-4.7
		c-4.8-3.8-15.2-6.2-16.8-12.5c-0.8-3.1-0.7-6.6-2.7-9.2c-1.3-1.7-3.2-2.7-5.1-3.7c-4.5-2.3-9-4.7-13.5-7c-5.4-2.8-10.8-5.6-16.3-8.4
		c-4-2.1-8.1-4.2-12.2-6c-5.9-2.6-12.1-4.6-18.4-5.9c-4-4.9-10.2-6.7-16.5-7.2c-11.5-0.9-23.2,0-34.4,2.7c-7,1.7-14.3,4.1-21.3,2.2
		c-3.4-0.9-6.5-2.8-9.7-4.5c-14.3-7.6-30.9-10.7-46.9-8.7c-2.5,0.3-5,0.7-7.2,1.7c-2.9,1.3-5.3,3.4-7.7,5.5
		c-7.1,6-15.1,11.4-24.1,13.5c-8.2,1.9-16.8,1.1-25.1,2.3c-9.1,1.4-17.7,5.4-26.8,6.3c-11.1,1-22.9-2.5-33.2,1.8
		c-5,2.1-9.1,5.9-13.9,8.6c-9.9,5.5-22,5.6-32.6,9.6c-1.8,0.7-3.6,1.5-5,2.9c-1.9,2-2.7,4.7-3.7,7.3
		C3880.8,4961.1,3874.9,4968.9,3867.7,4968.9z"/>
	<path id="coreguaje" class="st0" d="M3078.9,4553.8c-4.9-4-11-9.5-14.2-13.7c-4-5.2-10.3-36-10.3-36c1.6-0.8,3.3-10.8,5.3-16.8s7.7-11.7,7.7-11.7
		c13.3-8.1,19.6-31.2,20.1-34.9c0.5-3.7-0.8-4.3-2.5-19.6c-1.7-15.3-9.8-13.5-9.8-13.5s-0.6-7.5-0.1-21.9c0.5-14.4-1.1-25.9-5.9-44
		s-15.2-32.3-24.5-41.6c-9.3-9.3-39.7-25.9-78.9-21.6c-39.2,4.3-49.3,20-56.8,25.3c-7.5,5.3-13.3,9.9-24.5,31.5
		c-11.2,21.6-12.4,50.7-10.4,62.7s13.2,32.1,13.2,32.1c-2.7-4.9-8.3-1.5-8.3-1.5c-8.8,5.9-4.9,13.9-1.2,29.6
		c3.7,15.7,21.5,44.9,23.5,54.7c2,9.8,24.4,37.6,24.4,37.6s-14.4,5.8-29.2-0.4c-14.8-6.2-25.2-2.4-27.6,7.4
		c-2.4,9.8,9.6,16.8,9.6,16.8l-1.6,3.8c0,0-26.4,8-33.6,15.2c-7.2,7.2-54.4,21.6-62,25.6c-7.6,4-21.2,14-25.6,26
		c-4.4,12-4.4,30-13.2,46s-11.2,31.2-19.6,50.8c-8.4,19.6-12,35.6-12,35.6c4,11.2,21.6,10,21.6,10s0.4,4.4-4.4,18.4
		c-4.8,14-11.2,56.8-11.2,56.8c-18.8,31.2-14.4,57.6-23.2,85.6s-10,56.8-8,77.6c2,20.8,1.6,71.2-1.2,80c-2.8,8.8-12,21.2-10.8,37.6
		c1.2,16.4,13.2,11.6,0.4,39.6c-12.3,26.8,5.6,77.5,7.1,81.7c2.3-1.3,5.1-2.4,7.1-4.1c1.6-1.4,2.9-3.5,4.1-5.2
		c2.5-3.8,4.5-7.9,6.5-12c3.9-8.1,7.8-16.8,14.7-22.8c2.4-2.1,5.3-4,6.3-7c0.8-2.1,0.5-4.5,1.1-6.7c1.3-4.5,6-7.1,10.6-7.7
		c4.6-0.6,9.2,0.2,13.9,0.1c10.2-0.2,19.6-4.8,28.7-9.3c5.9-2.9,11.8-5.8,17.7-8.8c2.8-1.4,5.7-2.8,8.7-3.5c3.9-0.9,8-0.7,12-0.6
		c9.8,0.2,19.7-0.7,29.1-3.7c3.1-1,6.2-2.2,9.4-2.8c4.3-0.8,8.7-0.4,13.1-0.1c7.1,0.4,14.2,0.4,21.3-0.1c8.2-0.5,16.9-1.8,23.2-7.3
		c2.1-1.8,3.8-4.1,6-5.9c6.7-5.7,15.8-6.3,23.6-9.7c8.5-3.7,14.3-9.5,24.5-8c4.5,0.7,8.5,3,12.3,5.2c5.6,3.3,11.1,6.5,16.7,9.8
		c3.8,2.2,7.7,4.5,12,5.5c4.4,1.1,9,0.7,13.5,0.4c14.2-1,29.8-0.8,43.4-4.8c11.4-3.4,24.9-5.6,35.2,1.9c2.4,1.8,4.5,4,7,5.6
		c3,1.9,6.4,2.8,9.8,3.7c20,5.6,39.2,13.7,57.2,24.2c8.2,4.7,16.2,10.1,21.6,17.9c4.4,6.3,6.9,13.9,12.4,19.1
		c7.6,7.1,19,8.1,29.4,7.7c5-0.2,10.3-0.6,14.9,1.4c3.2,1.4,5.8,3.8,8.7,5.8c7.6,5.5,16.8,8.5,23.9,14.6c6.6,5.8,10.8,13.8,16.9,20.2
		c12.6,13.3,26.7,9.3,37.9-2.5c10.2-10.8,17-42.4,16.8-43.8s3.6-46.2-4.6-68c-8.2-21.8-6-40.6-8.6-54.4c-2.6-13.8-4.6-22.4-3.8-29.4
		s0.8-45,0.8-45c3-29.4-2-65.6-6.6-85.2c-4.6-19.6-13.2-37.8-21.8-57.8c-8.6-20-7.6-20-7.6-29.2c0-9.2-22.6-63.2-25.1-72.4
		c-2.5-9.2-6-9.1,2.7-13.7c8.7-4.7,6.1-9.3,5.3-13.9c-0.8-4.5-8.4-18-15.1-32c-6.7-14-17.6-27.6-21.7-41.3s-7.3-24.1-13.1-37.3
		c-5.7-13.2-9.5-12.1-14.1-21.5c-4.7-9.3-16.1-17.2-24.7-20.7c-8.5-3.5-34.4-15.7-45.5-23.3c-11.1-7.6-22.9-7.9-30.7-10.1
		s-31.3-15.6-36.3-19.5C3081.1,4555.6,3080,4554.7,3078.9,4553.8z"/>
	<path id="yagua" class="st0" d="M3415.7,5988.9c0,0-5.2-10-4.8-34.4c0.4-24.4,0.8-117.2,2.4-138.4c1.6-21.2,0.8-112.8,0-131.2
		s-1.6-69.6-0.4-89.6c1.2-20,0.8-53.6,2.8-74.4c2-20.8,11.2-63.6,12.4-92.4c1.2-28.8,28.4-68,55.6-79.6s60.8-15.2,60.8-15.2
		s-7.6-98.8,0-121.2s5.6-49.2,11.2-58.4c5.6-9.2,9.2-27.6,21.2-45.6s18-33.2,23.6-42.4c5.6-9.2,31.2-27.2,46.8-27.2
		c15.6,0,38-6.8,48.8,0c10.8,6.8,24.4,8.8,41.2,18.8c0,0,25.2,21.6,32,28.8s12.8,22.4,14.4,31.2c1.6,8.8,4,31.2,9.6,48.4
		c5.6,17.2,7.6,41.6,4.8,52c-2.8,10.4-6,22.8-5.2,31.2c0.8,8.4-13.6,27.2-9.6,45.6s4,61.2,10.8,66.4c6.8,5.2,18.8,7.6,14.4,24
		c0,0,20.4,16.8,28.8,37.6c8.4,20.8,27.2,44.8,30.4,59.6s11.2,26,12,40.8c0.8,14.8,9.6,19.2,8.8,43.2s4,53.2,4,53.2
		c-8.4,8.9-14.1,21.5-16.6,33.4c-0.9,4.2-1.4,8.6-3.4,12.5c-2,3.8-5.2,6.8-8.3,9.7c-13.6,13-25.7,27.9-41.6,38.1
		c-7.3,4.6-15.2,8.2-23.2,11.5c-31.9,13.2-65.7,23.4-93.9,43.4c-16.8,11.9-32.1,27.5-52.1,32.7c-5.4,1.4-11,2-16.4,3.6
		c-12.1,3.6-22.2,11.8-33.5,17.5c-12.4,6.2-26.6,9.6-36.4,19.4c-11.5,11.5-29.2,12.9-42.3,22.6c-9.3,6.9-16.1,16.5-22.3,26.2
		c-13.4,21.2-24.6,43.8-39.2,64.2c-5.8,8-12.1,15.8-20,21.8C3433.9,5983.7,3427.8,5988.9,3415.7,5988.9z"/>
	<path id="raizales" class="st0" d="M800.5,653.3c0,0,6.8,33.2,14.4,42c7.6,8.8,18.4,24.4,20.4,27.2s8.6,1.2,21.4,21.2s25.4,24.6,34.8,24.4
		c9.4-0.2,76,1.2,88.8-0.8s24.8-10.6,36.4-23.4c11.6-12.8,35-38.6,43.2-51.2c8.2-12.6,6-12.4,6-12.4s10.4,29,8,44.8
		c-2.4,15.8,1.2,32-3.2,43.3c-4.4,11.3-5.9,66.5,3.6,73.1s28.2-9.2,34-30c0,0,4.8,7.6,6.6,12.4c1.8,4.8,11.4,17.2,18.2,15.4
		c6.8-1.8,14.4-11.4,15.2-22.2c0.8-10.8-3-32.2,0-36.4s10.4-9.2,12.8-7.8c2.4,1.4,5.2,9.6,4.8,22.8s2.2,29,10.4,31.4
		c8.2,2.4,19.2-0.8,25.8-9c6.6-8.2,11.2-35.2,12.4-44c1.2-8.8,15.6-53.8,14.6-69c-1-15.2,4.8-23.6-11-46.2
		c-15.8-22.6-2.2-6.4,7.4-5.6s14.2-1.8,16.8-18.8c2.6-17-0.2-33.2-16.4-48c-16.2-14.8-28.8-33-33.8-47.8s-12.2-27.6-14-39
		c-1.8-11.4-8.6-19-4.8-29.8c3.8-10.8,13-16.4,7.4-48c0,0,14.6-0.8,23.6-21.2c0,0-2.4-5.8,1.2-11c3.6-5.2,9.4-8.6,11.4-17.8
		c2-9.2,6.4-21,4.8-34.6c-1.6-13.6-1-18.8-10.2-32c-9.2-13.2-22.4-18.6-44.6-20c0,0-5.6-28.8-23.2-44c-17.6-15.2-36.4-14.4-69.2-40
		c0,0-10-7.6-28.4-14c-18.4-6.4-37.6-17.6-52.4-22.8s-70-9.2-82-12.4c-12-3.2-82.4-6-130,21.6c-47.6,27.6-66.4,50.4-86,74.4
		c0,0-12.4,36-20.4,41.2c-8,5.2-19.2,42.8-19.6,58.8c-0.4,16-11.6,48.8,9.2,65.6c0,0-29.6,82.8-18.4,120s26,27.6,26,27.6
		s-2.2,15.6-15.4,25.6c-13.2,10-21.8,24.4-20.6,31.4s0.6,17.4,21.4,15.8c20.8-1.6,21.4-8.8,21.4-8.8s-2.2,37.2-4.2,45
		s-7.2,26-7.8,47.2c-0.6,21.2-2.8,41.4,3.2,57.2s11.2,40.4,27.2,40.4s18.6-21.8,17.8-35.4c-0.8-13.6-5.8-43-5-55.8
		c0.8-12.8,1.6-20.4,8.4-32c6.8-11.6,10.6-17.2,13.2-30.4c0,0-0.8,24.8-7.8,34.8s-5,57-3.4,70.4c1.6,13.4,0.2,36.2,7,50.8
		c6.8,14.6,4,28.2,16.8,27s13.2-24,15.2-34.8s6.4-26.6,7.8-36.6c0,0,4.6,64.2,29,64.6c24.4,0.4,13.2-41.4,13.2-54.6
		c0-13.2-8-36.6-8.2-55.6S799.9,656.9,800.5,653.3z"/>
	</g>
</svg>
