<?xml version="1.0" encoding="utf-8"?>
<!-- Generator: Adobe Illustrator 27.7.0, SVG Export Plug-In . SVG Version: 6.00 Build 0)  -->
<svg version="1.1" id="Capa_1" xmlns="http://www.w3.org/2000/svg" xmlns:xlink="http://www.w3.org/1999/xlink" x="0px" y="0px"
	 viewBox="0 0 1920 1080" style="enable-background:new 0 0 1920 1080;" xml:space="preserve">
<style type="text/css">
	.st0{fill:none;stroke-width:3;stroke-linejoin:round;stroke-miterlimit:10;}
	.st1{fill:url(#SVGID_1_);}
	.st2{fill:url(#SVGID_00000178893334467718088480000001497891233398545553_);}
	.st3{fill:url(#SVGID_00000032630888104183532870000007576846049117509256_);}
	.st4{fill:url(#SVGID_00000103263779328929220640000010581695447752654222_);}
	.st5{opacity:0.3;}
	.st6{fill:#79C1ED;}
	.st7{fill:#9BE0F8;}
	.st8{fill:#AE592B;}
	.st9{fill:#003961;}
	.st10{fill:#893D20;}
	.st11{fill:#FFB239;}
	.st12{fill:#FF989C;}
	.st13{fill:#FF6776;}
	.st14{fill:#004F87;}
	.st15{fill:#F52314;}
	.st16{fill:#CC0000;}
	.st17{fill:#FFDB88;}
	.st18{fill:url(#SVGID_00000038401288841377812480000001390443768723600530_);}
	.st19{fill:url(#SVGID_00000001638596851412821230000011328131288405124237_);}
	.st20{fill:#D8C09B;}
	.st21{fill:#AA987B;}
	.st22{fill:#665B4A;}
	.st23{fill:#83755F;}
	.st24{fill:#80432D;}
	.st25{fill:url(#SVGID_00000132798542370472213300000006590044659186816422_);}
	.st26{fill:url(#SVGID_00000079474989313928687630000009221460955488870529_);}
	.st27{fill:#E9E9EC;}
	.st28{fill:#CCCCCC;}
	.st29{opacity:0.65;fill:#B3B3BD;}
	.st30{fill:url(#SVGID_00000178925909420764594800000006606605267907583125_);}
	.st31{fill:url(#SVGID_00000103945876075673447090000001490296080982632372_);}
	.st32{fill:#FA5244;}
	.st33{fill:#C2C0C0;}
	.st34{fill:#DADADA;}
	.st35{fill:#5A5550;}
	.st36{fill:#A8A8A8;}
	
		.st37{clip-path:url(#SVGID_00000101062596767671360860000015395103140196141237_);fill:url(#SVGID_00000034052752911406047480000009229905219069823927_);}
	.st38{opacity:0.5;clip-path:url(#SVGID_00000101062596767671360860000015395103140196141237_);}
	.st39{fill:#D7E8EF;}
	.st40{fill:#F7FAFB;}
	.st41{clip-path:url(#SVGID_00000101062596767671360860000015395103140196141237_);}
	.st42{opacity:0.5;fill:#3AA9B0;}
	.st43{fill:url(#SVGID_00000013157077646810051270000002157711914759694525_);}
	.st44{fill:#3AA9B0;}
	.st45{fill:url(#SVGID_00000107589935627095367300000011504716771304459403_);}
	.st46{fill:#F9CA48;}
	.st47{fill:url(#SVGID_00000116223153982603898770000008017105349778230973_);}
	.st48{filter:url(#Adobe_OpacityMaskFilter);}
	.st49{clip-path:url(#SVGID_00000163790226526095721190000010858049622677426569_);}
	
		.st50{clip-path:url(#SVGID_00000112597082909832194210000007230568363383266985_);fill:url(#SVGID_00000098924549561269905080000008191806595785382822_);}
	
		.st51{mask:url(#SVGID_00000165954519485394039750000015799978626180676525_);fill:url(#SVGID_00000124142633626467461230000006613369834234952890_);}
	.st52{opacity:0.53;fill:url(#SVGID_00000044875940810328923030000003587798850370284466_);enable-background:new    ;}
	.st53{opacity:0.39;}
	.st54{fill:url(#SVGID_00000054947128676641522130000004594188325305907135_);}
	.st55{fill:url(#SVGID_00000088832277647330521610000005333471463298994857_);}
	.st56{opacity:0.21;}
	.st57{fill:url(#SVGID_00000029748362716679109320000005605747378452776579_);}
	.st58{fill:url(#SVGID_00000008836431161197913840000004262953018336351104_);}
	.st59{fill:url(#SVGID_00000083789610471241344110000012040162240876251010_);}
	.st60{fill:url(#SVGID_00000103249232083989467880000010158431504581385367_);}
	.st61{fill:url(#SVGID_00000052786001033371162880000005119545141782587049_);}
	.st62{fill:url(#SVGID_00000073698745711695977630000008572241998414376629_);}
	.st63{fill:url(#SVGID_00000152236037863669561230000012172369626036863671_);}
	.st64{fill:url(#SVGID_00000095315926689047457880000001164628932372084898_);}
	.st65{fill:url(#SVGID_00000162329778773224477510000013665866867235226277_);}
	.st66{fill:url(#SVGID_00000008147275230219950270000018278799891076073128_);}
	.st67{fill:url(#SVGID_00000155143931959388711250000000068976170976885891_);}
	.st68{fill:url(#SVGID_00000064348112216306961030000016817022300364437149_);}
	.st69{fill:url(#SVGID_00000034808829716186612600000011141117094120176044_);}
	.st70{fill:url(#SVGID_00000026144834624733583540000005659620054123013543_);}
	.st71{opacity:0.52;fill:url(#SVGID_00000053547618335513652730000009199087011058262455_);enable-background:new    ;}
	.st72{opacity:0.52;fill:url(#SVGID_00000026883697119565163380000017798408472315882627_);enable-background:new    ;}
	.st73{fill:#D58C1D;}
	.st74{fill:#99CD00;}
	.st75{opacity:0.31;fill:#B4E000;enable-background:new    ;}
	.st76{opacity:0.29;fill:#854A00;enable-background:new    ;}
	.st77{opacity:0.29;}
	.st78{opacity:0.56;fill:#854A00;enable-background:new    ;}
	.st79{opacity:0.18;fill:#469500;enable-background:new    ;}
	.st80{fill:#DCEC00;}
	.st81{opacity:0.18;}
	.st82{fill:#469500;}
	.st83{opacity:0.54;fill:#A7CE00;enable-background:new    ;}
	.st84{fill:#9A8667;}
	.st85{fill:#CFB389;}
	.st86{fill:#7E6E54;}
	.st87{fill:#2A2A29;}
	.st88{fill:#202020;}
	.st89{fill:#161616;}
	.st90{opacity:0.2;}
	.st91{fill:#1D1D1B;}
	.st92{fill:#895850;}
	.st93{fill:#66382F;}
	.st94{fill:#724438;}
	.st95{fill:#9B6762;}
	.st96{fill:#D39275;}
	.st97{fill:#FFF03B;}
	.st98{fill:#DA7122;}
	.st99{opacity:0.2;fill:#1D1D1B;}
	.st100{fill:#938C8E;}
	.st101{fill:#9E989D;}
	.st102{fill:#BFB8BE;}
	.st103{fill:#E8DAA0;}
	.st104{fill:#FFF4C5;}
	.st105{fill:#D86A4C;}
	.st106{fill:#847C7F;}
	.st107{fill:#D69C7F;}
	.st108{fill:#C68467;}
	.st109{fill:url(#SVGID_00000111168265200705167980000000240885524960186271_);}
	.st110{filter:url(#Adobe_OpacityMaskFilter_00000097465360307389392930000008394089075201767092_);}
	.st111{clip-path:url(#SVGID_00000109029696625885061700000008608373663005619389_);}
	
		.st112{clip-path:url(#SVGID_00000170252857145328511920000004368064324712727701_);fill:url(#SVGID_00000132070395620566921510000009958434852423751325_);}
	
		.st113{mask:url(#SVGID_00000061445146077755437720000018046647898401282193_);fill:url(#SVGID_00000062152895081687942780000009904007682239447201_);}
	.st114{opacity:0.53;fill:url(#SVGID_00000169520924304799503720000013252488472769235329_);enable-background:new    ;}
	.st115{fill:url(#SVGID_00000021102169015192476240000017063336324632738471_);}
	.st116{fill:url(#SVGID_00000078748237270736418300000001567134838900201897_);}
	.st117{fill:url(#SVGID_00000000915281870103851160000012144054828614086310_);}
	.st118{fill:url(#SVGID_00000033342388584058259150000001380773998209027986_);}
	.st119{fill:url(#SVGID_00000026145873597319281680000012718793871784527550_);}
	.st120{fill:url(#SVGID_00000163043585305007596320000004191489379981068455_);}
	.st121{fill:url(#SVGID_00000158022589119956489070000010316546565882590863_);}
	.st122{fill:url(#SVGID_00000001647831994096061210000017309113188888625077_);}
	.st123{fill:url(#SVGID_00000159446001329650482330000003703753643167111050_);}
	.st124{fill:url(#SVGID_00000122696906785964760820000009416451029566185355_);}
	.st125{fill:url(#SVGID_00000034792216712729109660000013307617759544305317_);}
	.st126{fill:url(#SVGID_00000049904621355148433020000014432508903635650437_);}
	.st127{fill:url(#SVGID_00000008126925259413567260000015040058690099473035_);}
	.st128{fill:url(#SVGID_00000080175655884920644020000007234726270217379512_);}
	.st129{fill:url(#SVGID_00000106853738865825773910000013396396281156449165_);}
	.st130{fill:url(#SVGID_00000120537162212237905940000016569404515698259635_);}
	.st131{opacity:0.52;fill:url(#SVGID_00000011712877335812116670000011919015819249031101_);enable-background:new    ;}
	.st132{opacity:0.52;fill:url(#SVGID_00000170249521800846915260000001538478178818458016_);enable-background:new    ;}
	.st133{fill:#A54C1E;}
	.st134{fill:#9A3B32;}
	.st135{fill:#803028;}
	.st136{fill:#FF9A56;}
	.st137{fill:#FC8413;}
	.st138{fill:#B84430;}
	.st139{fill:#FFD372;}
	.st140{fill:#FFEFBB;}
	.st141{opacity:0.63;fill:#B84430;}
	.st142{opacity:0.33;fill:#A54C1E;}
	.st143{fill:#F8B845;}
	.st144{fill:#FFDEAE;}
	.st145{opacity:0.5;fill:#803028;}
	.st146{fill:#FFF8D3;}
	.st147{fill:#CF6437;}
	.st148{fill:#FFC67B;}
	.st149{fill:#FAFAFE;}
	.st150{fill:#E6E6EC;}
	.st151{fill:#3B1F1F;}
	.st152{fill:#7F6364;}
	.st153{opacity:0.5;fill:#7F6364;}
	.st154{fill:#ECA866;}
	.st155{fill:#A17D7E;}
	.st156{fill:#B6CDF4;}
	.st157{fill:#9D696B;}
	.st158{fill:#FF9226;}
	.st159{opacity:0.2;fill:#9D696B;}
	.st160{fill:#939EB1;}
	.st161{fill:#A6AFBF;}
	.st162{fill:#888DAA;}
	.st163{fill:#585D6C;}
	.st164{opacity:0.4;fill:#A6AFBF;}
	.st165{fill:url(#SVGID_00000150088570910767378450000001937281423331638656_);}
	.st166{filter:url(#Adobe_OpacityMaskFilter_00000037687672895977311520000015942678087421395365_);}
	.st167{clip-path:url(#SVGID_00000097465878439397818320000017715597337799953819_);}
	
		.st168{clip-path:url(#SVGID_00000024692367057785249850000000137209079131784636_);fill:url(#SVGID_00000155825219863429511820000000889671624116613261_);}
	
		.st169{mask:url(#SVGID_00000021841284580208968230000013515246297850038927_);fill:url(#SVGID_00000177446675227725110150000000709800016058493105_);}
	.st170{opacity:0.53;fill:url(#SVGID_00000039100212560486556850000005647720926826301836_);enable-background:new    ;}
	.st171{fill:url(#SVGID_00000146500757419057333560000015228608531367942816_);}
	.st172{fill:url(#SVGID_00000150818583904996628620000012001253126719514017_);}
	.st173{fill:url(#SVGID_00000181081979260089939500000004794866971552815276_);}
	.st174{fill:url(#SVGID_00000173160955496469733300000005833007661841333422_);}
	.st175{fill:url(#SVGID_00000146497936389756025630000010004211868920215206_);}
	.st176{fill:url(#SVGID_00000105390833182420181880000017885860508436191407_);}
	.st177{fill:url(#SVGID_00000062895264220093588620000009082143645414929575_);}
	.st178{fill:url(#SVGID_00000036941116995235100940000001346419027783664017_);}
	.st179{fill:url(#SVGID_00000169552083350496935330000013780663254837284016_);}
	.st180{fill:url(#SVGID_00000119100172982272611770000004559952195235063686_);}
	.st181{fill:url(#SVGID_00000163055732305969082140000000988583770846216857_);}
	.st182{fill:url(#SVGID_00000132050360261043133890000004551546875676109188_);}
	.st183{fill:url(#SVGID_00000008114086244282028100000011872806320675705489_);}
	.st184{fill:url(#SVGID_00000132049763905608199330000015974938020788436105_);}
	.st185{fill:url(#SVGID_00000150791092238485395480000005034583199873887881_);}
	.st186{fill:url(#SVGID_00000116952595133501934650000015339318137448831377_);}
	.st187{opacity:0.52;fill:url(#SVGID_00000023969180216515978380000002317213150101884288_);enable-background:new    ;}
	.st188{opacity:0.52;fill:url(#SVGID_00000000193753234343587330000015085496319419915652_);enable-background:new    ;}
	.st189{fill:#FF8DA0;}
	.st190{fill:#FFD79C;}
	.st191{fill:#F9DDD2;}
	.st192{fill:#EDC7B2;}
	.st193{fill:#724139;}
	.st194{fill:#EF5252;}
	.st195{fill:#D3404E;}
	.st196{fill:#B06B00;}
	.st197{fill:#DBAA91;}
	.st198{fill:#683226;}
	.st199{fill:#B22B3B;}
	.st200{fill:#EAD3D7;}
	.st201{fill:#C9A9AF;}
	.st202{fill:#DDBFC3;}
	.st203{fill:#B78A92;}
	.st204{fill:#B27F6B;}
	.st205{fill:#92DBF4;}
	.st206{fill:#56251D;}
	.st207{fill:#EABDA9;}
	.st208{fill:#CE9B84;}
	.st209{fill:#B5745D;}
	.st210{fill:#6B3B2C;}
	.st211{fill:#C18A74;}
	.st212{fill:#CC9881;}
	.st213{fill:#FF5F5F;}
	.st214{fill:#AA725E;}
	.st215{fill:#932134;}
	.st216{fill:#F4D5C6;}
	.st217{fill:#FFC064;}
	.st218{fill:#51231B;}
	.st219{fill:#824634;}
	.st220{fill:#7F3F32;}
	.st221{fill:#F4B54E;}
	.st222{fill:#5185A5;}
	.st223{fill:#E5C3BE;}
	.st224{opacity:0.5;fill:#BC5642;}
	.st225{fill:#8CAAA7;}
	.st226{fill:#CCE5E2;}
	.st227{fill:#A5C4BF;}
	.st228{fill:#B2CCCA;}
	.st229{opacity:0.6;fill:#535E5D;}
	.st230{fill:#DCE6E4;}
	.st231{fill:#B0CCC6;}
	.st232{fill:#96A8A6;}
	.st233{fill:#5B325B;}
	.st234{fill:#8E4221;}
	.st235{fill:#AF6837;}
	.st236{fill:#A85248;}
	.st237{fill:#965326;}
	.st238{fill:#703B18;}
	.st239{fill:#BF703A;}
	.st240{fill:#CC8656;}
	.st241{fill:#6D442D;}
	.st242{fill:#DB9565;}
	.st243{fill:#E8A070;}
	.st244{opacity:0.5;}
	.st245{fill:#BC5642;}
	.st246{fill:#7F4426;}
	.st247{fill:#93532F;}
	.st248{fill:#B5619F;}
	.st249{fill:#9B4E8B;}
	.st250{fill:#CE814D;}
	.st251{fill:#A55925;}
	.st252{fill:#6D351D;}
	.st253{fill:#E089CE;}
	.st254{fill:#663036;}
	.st255{fill:#DB97A1;}
	.st256{fill:#5E3636;}
	.st257{fill:#CCDFDD;}
	.st258{fill:#C1DBD9;}
	.st259{fill:#A2AAA9;}
	.st260{fill:#778986;}
	.st261{fill:#B6CECA;}
	.st262{fill:#DDEDEB;}
	.st263{fill:#A7C1BF;}
	.st264{fill:#DFEFED;}
	.st265{fill:#8C9997;}
	.st266{fill:#455653;}
	.st267{fill:#5A6B68;}
	.st268{fill:#C5DDDA;}
	.st269{fill:#725D61;}
	.st270{fill:#49383B;}
	.st271{fill:#B699C9;}
	.st272{fill:#BFD8D5;}
	.st273{fill:#3F4745;}
	.st274{fill:#88A5A2;}
	.st275{fill:#749692;}
	.st276{fill:#ADC9C7;}
	.st277{fill:#A5C4C1;}
	.st278{fill:#9F80B7;}
	.st279{fill:#E0CEED;}
	.st280{fill:#84699E;}
	.st281{fill:#F0FFFD;}
	.st282{fill:#96B2AF;}
	.st283{fill:#65726F;}
	.st284{fill:#BF6F2E;}
	.st285{fill:#CC8652;}
	.st286{fill:#C4916A;}
	.st287{fill:#A55C25;}
	.st288{fill:#F2E2D5;}
	.st289{fill:#998576;}
	.st290{opacity:0.5;fill:#934F21;enable-background:new    ;}
	.st291{opacity:0.13;}
	.st292{fill:#934F21;}
	.st293{opacity:0.3;fill:#934F21;enable-background:new    ;}
	.st294{fill:#A25722;}
	.st295{fill:#754C29;}
	.st296{opacity:0.12;fill:#934F21;enable-background:new    ;}
	.st297{fill:#B5682D;}
	.st298{fill:#C47D47;}
	.st299{fill:#FFD738;}
	.st300{fill:#82412D;}
	.st301{fill:#8F4933;}
	.st302{fill:#DEB833;}
	.st303{fill:#FFFFFF;}
	.st304{fill:#8C5D43;}
	.st305{opacity:0.5;fill:#775441;}
	.st306{fill:#C6CED1;}
	.st307{fill:#F2F2F2;}
	.st308{fill:#775441;}
	.st309{fill:#8C634D;}
	.st310{fill:#996C54;}
	.st311{fill:#A67C52;}
	.st312{fill:#42210B;}
	.st313{fill:url(#SVGID_00000113328859692227508860000011857461796222015386_);}
	.st314{filter:url(#Adobe_OpacityMaskFilter_00000055692331160325929070000018370259688491765642_);}
	.st315{clip-path:url(#SVGID_00000127723593785990047660000014125024227929798820_);}
	
		.st316{clip-path:url(#SVGID_00000092429913917380285080000005087085840654651266_);fill:url(#SVGID_00000132801873097531083770000017081398352040122550_);}
	
		.st317{mask:url(#SVGID_00000092438035209985297370000008271546523610642842_);fill:url(#SVGID_00000030482923502425931050000018165781036767473795_);}
	.st318{opacity:0.53;fill:url(#SVGID_00000163756140390630396180000000616369963015400365_);enable-background:new    ;}
	.st319{fill:url(#SVGID_00000074442829710850384350000012871981860850544289_);}
	.st320{fill:url(#SVGID_00000002361597442058517800000004416154268679676607_);}
	.st321{fill:url(#SVGID_00000044871443293290306030000015535101848742172603_);}
	.st322{fill:url(#SVGID_00000127754490731151577960000000897853463353270917_);}
	.st323{fill:url(#SVGID_00000111908785094640128900000000885468011951805104_);}
	.st324{fill:url(#SVGID_00000038399962799136133910000015001770841525290370_);}
	.st325{fill:url(#SVGID_00000096053487452237824950000001156857808473363900_);}
	.st326{fill:url(#SVGID_00000065773804506767422200000017705080111275028096_);}
	.st327{fill:url(#SVGID_00000057106951395163483970000007738541594919778957_);}
	.st328{fill:url(#SVGID_00000106120864746795100780000003493162421845383066_);}
	.st329{fill:url(#SVGID_00000120522898508137660750000000608503504643574717_);}
	.st330{fill:url(#SVGID_00000131356996149954551030000017557883602337542534_);}
	.st331{fill:url(#SVGID_00000161606158097294116530000011043727742055222436_);}
	.st332{fill:url(#SVGID_00000143582180827357454280000001307960160574754463_);}
	.st333{fill:url(#SVGID_00000023996128129741636810000002383700721046102430_);}
	.st334{fill:url(#SVGID_00000142144952210711991590000009560202619946636959_);}
	.st335{opacity:0.52;fill:url(#SVGID_00000089549057494075151820000003910328256545084822_);enable-background:new    ;}
	.st336{opacity:0.52;fill:url(#SVGID_00000099658892876496477050000000034346114864375945_);enable-background:new    ;}
	.st337{fill-rule:evenodd;clip-rule:evenodd;fill:#ECBE6C;}
	.st338{fill-rule:evenodd;clip-rule:evenodd;fill:url(#SVGID_00000036931392244782196030000001364938864920798901_);}
	.st339{fill-rule:evenodd;clip-rule:evenodd;fill:url(#SVGID_00000032615224847827669640000010179388353669886629_);}
	.st340{fill-rule:evenodd;clip-rule:evenodd;fill:#ECCE8D;}
	.st341{fill-rule:evenodd;clip-rule:evenodd;fill:#EC763B;}
	.st342{fill-rule:evenodd;clip-rule:evenodd;fill:url(#SVGID_00000085933618612701338900000002763289622402302895_);}
	.st343{fill-rule:evenodd;clip-rule:evenodd;fill:url(#SVGID_00000002369654191532910710000018441839849423037349_);}
	.st344{fill-rule:evenodd;clip-rule:evenodd;fill:url(#SVGID_00000125595387037282497400000006130145457992104347_);}
	.st345{fill-rule:evenodd;clip-rule:evenodd;fill:url(#SVGID_00000129193911313365687340000000675934643972746889_);}
	.st346{fill-rule:evenodd;clip-rule:evenodd;fill:#96372B;}
	.st347{fill-rule:evenodd;clip-rule:evenodd;fill:url(#SVGID_00000044889612148883874400000017200225780777418677_);}
	.st348{fill-rule:evenodd;clip-rule:evenodd;fill:url(#SVGID_00000025408225421596570430000016465324215980171443_);}
	.st349{fill-rule:evenodd;clip-rule:evenodd;fill:url(#SVGID_00000158712214789819208380000005717857344555420844_);}
	.st350{fill-rule:evenodd;clip-rule:evenodd;fill:url(#SVGID_00000111900958680701819130000008195698684611632008_);}
	.st351{fill-rule:evenodd;clip-rule:evenodd;fill:url(#SVGID_00000125570459316860753010000006531281569961729724_);}
	.st352{fill-rule:evenodd;clip-rule:evenodd;fill:url(#SVGID_00000005257644779785700630000011714189542271558334_);}
	.st353{fill-rule:evenodd;clip-rule:evenodd;fill:#5A1828;}
	.st354{fill-rule:evenodd;clip-rule:evenodd;fill:url(#SVGID_00000052074154445353412460000009023936383616766376_);}
	.st355{fill-rule:evenodd;clip-rule:evenodd;fill:url(#SVGID_00000113340676963298445620000017599091958313273784_);}
	.st356{fill-rule:evenodd;clip-rule:evenodd;fill:url(#SVGID_00000099660217090280963790000017504116528477672839_);}
	.st357{opacity:0.2;fill-rule:evenodd;clip-rule:evenodd;fill:url(#SVGID_00000134229812237276702690000008696067257735476620_);}
	.st358{fill-rule:evenodd;clip-rule:evenodd;fill:#EC903B;}
	.st359{fill-rule:evenodd;clip-rule:evenodd;fill:#ECA950;}
	.st360{fill-rule:evenodd;clip-rule:evenodd;fill:url(#SVGID_00000183943763705938801740000012725969293084818105_);}
	.st361{fill-rule:evenodd;clip-rule:evenodd;fill:url(#SVGID_00000034088001252658607850000009592893303299911602_);}
	.st362{fill-rule:evenodd;clip-rule:evenodd;fill:url(#SVGID_00000181060897346323886070000018217792887803833276_);}
	.st363{fill-rule:evenodd;clip-rule:evenodd;fill:url(#SVGID_00000055690740610344486940000011174691502329281979_);}
	.st364{fill-rule:evenodd;clip-rule:evenodd;fill:url(#SVGID_00000097475806390091647870000001934067938145785241_);}
	.st365{fill-rule:evenodd;clip-rule:evenodd;fill:url(#SVGID_00000080205173655321978760000001502835597397911941_);}
	.st366{fill-rule:evenodd;clip-rule:evenodd;fill:url(#SVGID_00000088848258216618092450000002034728234002342044_);}
	.st367{fill-rule:evenodd;clip-rule:evenodd;fill:url(#SVGID_00000060720063131998811170000018036095802144758934_);}
	.st368{fill-rule:evenodd;clip-rule:evenodd;fill:url(#SVGID_00000098220680005428786100000005861231164155158959_);}
	.st369{fill-rule:evenodd;clip-rule:evenodd;fill:url(#SVGID_00000153665597662501509890000007541396714821719723_);}
	.st370{fill-rule:evenodd;clip-rule:evenodd;fill:url(#SVGID_00000116194564674231273230000005568035676394147996_);}
	.st371{fill-rule:evenodd;clip-rule:evenodd;fill:url(#SVGID_00000155141193164033199230000016926512535930215579_);}
	.st372{fill-rule:evenodd;clip-rule:evenodd;fill:url(#SVGID_00000041295100656467945450000004459214471178570922_);}
	.st373{fill-rule:evenodd;clip-rule:evenodd;fill:url(#SVGID_00000005243643844347531580000004009182150967057588_);}
	.st374{fill:#544224;}
	.st375{fill:#9E7C42;}
	.st376{fill:#CFA256;}
	.st377{fill:#82502A;}
	.st378{fill:#5E3A1E;}
	.st379{fill:#FFECCC;}
	.st380{fill:#53A4BD;}
	.st381{clip-path:url(#SVGID_00000065045426572289929900000016438632465926277004_);}
	.st382{fill:#73D2F0;}
	.st383{fill:#A3E9FF;}
	.st384{fill:#453314;}
	.st385{fill:#FFD999;}
	.st386{fill:#BF3E26;}
	.st387{fill:#50947A;}
	.st388{fill:#4A2A15;}
	.st389{fill:#FCB3A6;}
	.st390{fill:#9C582D;}
	.st391{fill:#0B4B61;}
	.st392{fill:#1A7591;}
	.st393{fill:#75201C;}
	.st394{fill:#125063;}
	.st395{fill:#9E5549;}
	.st396{fill:#8C541A;}
	.st397{fill:#DE842A;}
	.st398{fill:#4D2E17;}
	.st399{fill:#D4A44F;}
	.st400{fill:#5C1916;}
	.st401{fill:#7D4C34;}
	.st402{fill-rule:evenodd;clip-rule:evenodd;fill:#9A5700;}
	.st403{fill-rule:evenodd;clip-rule:evenodd;fill:#381D00;}
	.st404{fill-rule:evenodd;clip-rule:evenodd;fill:#623500;}
	.st405{fill-rule:evenodd;clip-rule:evenodd;fill:#7E4500;}
	.st406{fill-rule:evenodd;clip-rule:evenodd;fill:#DC7C00;}
	.st407{fill-rule:evenodd;clip-rule:evenodd;fill:#BA6900;}
	.st408{fill-rule:evenodd;clip-rule:evenodd;fill:#FFBA61;}
	.st409{fill:#EBE9E8;}
	.st410{fill:#C4C1C0;}
	.st411{fill:#66392C;}
	.st412{fill:#A3A2A2;}
	.st413{fill:#855141;}
	.st414{fill:#E6CFC8;}
	.st415{fill:#BA7059;}
	.st416{fill:#DE9078;}
	.st417{fill:#D4A090;}
	.st418{fill:#704031;}
	.st419{fill:#D48F7B;}
	.st420{opacity:0.4196;fill:#702711;}
	.st421{fill:#A17B4D;}
	.st422{fill:#733E2E;}
	.st423{fill:#AD865E;}
	.st424{fill:#857F7F;}
	.st425{fill:none;stroke:#B0997B;stroke-width:5;stroke-linecap:round;stroke-linejoin:round;stroke-miterlimit:10;}
	.st426{fill:#B0997B;}
	.st427{fill:#9E553F;}
	.st428{fill:#AB5F48;}
	.st429{fill:#BFB1AC;}
	.st430{fill:#8C432D;}
	.st431{fill:#944E38;}
	.st432{fill:#A65A42;}
	.st433{fill:#C49C6A;}
	.st434{fill:#D4A87D;}
	.st435{opacity:0.2706;fill:#702711;}
	.st436{fill:#702711;}
	.st437{fill:#9E8F8A;}
	.st438{fill:#918B89;}
	.st439{fill:none;stroke:#69645F;stroke-width:4;stroke-miterlimit:10;}
	.st440{fill:#DECFCA;}
	.st441{opacity:0.4314;fill:#633424;}
	.st442{opacity:0.549;fill:#613325;}
	.st443{fill:#BFA686;}
	.st444{fill:url(#SVGID_00000007397124976074259280000015984553270435737746_);}
	.st445{filter:url(#Adobe_OpacityMaskFilter_00000149363483969508188570000004718519635744783757_);}
	.st446{clip-path:url(#SVGID_00000147932716314151482950000018222069880689282717_);}
	
		.st447{clip-path:url(#SVGID_00000003069127179441180960000012089574135618175135_);fill:url(#SVGID_00000038414877705039329430000004166263740777396878_);}
	
		.st448{mask:url(#SVGID_00000041985269736960939030000013644788028425521286_);fill:url(#SVGID_00000041988143263140459270000005947563130479500199_);}
	.st449{opacity:0.53;fill:url(#SVGID_00000083777423923769947260000010833345376726884270_);enable-background:new    ;}
	.st450{fill:url(#SVGID_00000145754000302905570220000005832596877316880517_);}
	.st451{fill:url(#SVGID_00000042002036169835807650000014467479496044329610_);}
	.st452{fill:url(#SVGID_00000092452891857183351980000007823743000068980631_);}
	.st453{fill:url(#SVGID_00000010312222673501459850000018405754961009052086_);}
	.st454{fill:url(#SVGID_00000041999535421785486440000012858546878338482567_);}
	.st455{fill:url(#SVGID_00000112621936462247772480000001214469031494057857_);}
	.st456{fill:url(#SVGID_00000018231959348997568940000015180367262355318146_);}
	.st457{fill:url(#SVGID_00000025417230474945412750000003840328624184866445_);}
	.st458{fill:url(#SVGID_00000141429366168514806910000014530118940152923782_);}
	.st459{fill:url(#SVGID_00000181766452615333573770000003488715258437119166_);}
	.st460{fill:url(#SVGID_00000057110614756961317050000015352581361575122104_);}
	.st461{fill:url(#SVGID_00000093856106751458808240000007094666456086319505_);}
	.st462{fill:url(#SVGID_00000114073176707812076260000000506964453392604826_);}
	.st463{fill:url(#SVGID_00000134949348016844736160000003325496785164933511_);}
	.st464{fill:url(#SVGID_00000148652545518779615450000017071461107000589476_);}
	.st465{fill:url(#SVGID_00000070840465509572246440000008790205437599756182_);}
	.st466{opacity:0.52;fill:url(#SVGID_00000155130532644612659000000015618062920050074754_);enable-background:new    ;}
	.st467{opacity:0.52;fill:url(#SVGID_00000115509128680540892530000017971726231048463786_);enable-background:new    ;}
	.st468{fill-rule:evenodd;clip-rule:evenodd;fill:#BEC8D4;}
	.st469{fill-rule:evenodd;clip-rule:evenodd;fill:#A4ACBB;}
	.st470{fill-rule:evenodd;clip-rule:evenodd;fill:#FACA64;}
	.st471{fill-rule:evenodd;clip-rule:evenodd;fill:#D4A258;}
	.st472{fill-rule:evenodd;clip-rule:evenodd;fill:#3D4558;}
	.st473{fill-rule:evenodd;clip-rule:evenodd;fill:#4D5568;}
	.st474{fill-rule:evenodd;clip-rule:evenodd;fill:#989FB1;}
	.st475{fill-rule:evenodd;clip-rule:evenodd;fill:#A5A5A5;}
	.st476{fill-rule:evenodd;clip-rule:evenodd;fill:#BEBDB9;}
	.st477{fill-rule:evenodd;clip-rule:evenodd;fill:#D1D1C9;}
	.st478{fill-rule:evenodd;clip-rule:evenodd;fill:#E8E7E3;}
	.st479{fill-rule:evenodd;clip-rule:evenodd;fill:#7F8698;}
	.st480{fill:#606060;}
	.st481{fill:#222222;}
	.st482{fill:#3D46A2;}
	.st483{fill:#F4F4F4;}
	.st484{opacity:0.4;fill:#D5D5D5;}
	.st485{fill:#919191;}
	.st486{fill:#797979;}
	.st487{fill:#424242;}
	.st488{clip-path:url(#SVGID_00000042734092952237006800000016601019011872997790_);fill:#A8A8A8;}
	.st489{clip-path:url(#SVGID_00000042734092952237006800000016601019011872997790_);fill:#424242;}
	.st490{clip-path:url(#SVGID_00000042734092952237006800000016601019011872997790_);fill:#919191;}
	.st491{clip-path:url(#SVGID_00000042734092952237006800000016601019011872997790_);fill:#D5D5D5;}
	.st492{fill:#C8D5DB;}
	.st493{fill:url(#SVGID_00000012434751683519257190000008489153530924510346_);}
	.st494{opacity:0.18;fill:#FFFFFF;}
	.st495{fill:#BFBFBF;}
	.st496{fill:url(#SVGID_00000140706636862314265050000003750689666965323179_);}
	.st497{fill:#F9A326;}
	.st498{opacity:0.5;fill:#7A44A1;}
	.st499{fill:#F2352F;}
	.st500{fill:#FCBC4B;}
	.st501{fill:#42BD5C;}
	.st502{fill:#94AFBD;}
	.st503{fill:none;stroke:#A9D7EE;stroke-width:0.8094;stroke-miterlimit:10;}
	.st504{fill:#FCA326;}
	.st505{fill:#FBE56F;}
	.st506{fill:#002265;}
	.st507{opacity:0.26;fill:#FFFFFF;}
	.st508{fill:#003798;}
	.st509{opacity:0.6;}
	.st510{opacity:0.6;fill:#FFFFFF;}
	.st511{fill:url(#SVGID_00000170255908417379264280000004121916872202858942_);}
	.st512{fill:url(#SVGID_00000183235832198299539790000015825587745430866606_);}
	.st513{fill:url(#SVGID_00000170997631116305435900000009826575850057632173_);}
	.st514{fill:url(#SVGID_00000128486579763325367110000008165885867954121115_);}
	.st515{fill:#D2530D;}
	.st516{fill:#F5712E;}
	.st517{fill:#E17D32;}
	.st518{fill:#D27E5A;}
	.st519{fill:url(#SVGID_00000084502262800309376890000007557581279166901645_);}
	.st520{fill:url(#SVGID_00000150074421277842483300000008777645077058702261_);}
	.st521{fill:url(#SVGID_00000098933744637929821210000000051191773173889186_);}
	.st522{fill:url(#SVGID_00000043417685836768237730000012672147963572247986_);}
	.st523{fill:#364766;}
	.st524{fill:url(#SVGID_00000084503162533003162850000017595391957123649422_);}
	.st525{fill:url(#SVGID_00000057143891119811671590000016306563777984511138_);}
	.st526{fill:url(#SVGID_00000170277480223434659700000002934243998645158533_);}
	.st527{fill:#ABB3C4;}
	.st528{fill:url(#SVGID_00000099653229125810980490000005808611233044702622_);}
	.st529{fill:url(#SVGID_00000004547594633426887860000008273881715674389644_);}
	.st530{fill:#50658B;}
	.st531{fill:url(#SVGID_00000109006479417068467930000014148986030431355059_);}
	.st532{fill:url(#SVGID_00000155144677036258776700000018022894754765389499_);}
	.st533{fill:url(#SVGID_00000070829169419006767520000015783035629750778543_);}
	.st534{fill:url(#SVGID_00000061464703008540908050000017482637981602934701_);}
	.st535{opacity:0.68;}
	.st536{filter:url(#Adobe_OpacityMaskFilter_00000156550226398110279880000011421723521809870482_);}
	.st537{mask:url(#SVGID_00000067214701018098013540000008465962880371048350_);}
	.st538{filter:url(#Adobe_OpacityMaskFilter_00000033343711387369655300000012576338220568080017_);}
	.st539{mask:url(#SVGID_00000064330229772151554470000010654691878703851924_);}
	.st540{filter:url(#Adobe_OpacityMaskFilter_00000128462494275013518950000001857475842373967513_);}
	.st541{mask:url(#SVGID_00000078043534555521061990000018445600990995933072_);}
	.st542{filter:url(#Adobe_OpacityMaskFilter_00000030477429375598920590000016102503300569776036_);}
	.st543{mask:url(#SVGID_00000028317603089285708360000008716444241140980652_);}
	.st544{filter:url(#Adobe_OpacityMaskFilter_00000156568621181064860780000016203475099614938516_);}
	.st545{mask:url(#SVGID_00000127745749958749621610000001751343352244557987_);}
	.st546{filter:url(#Adobe_OpacityMaskFilter_00000046338368412726670170000005292974111374921365_);}
	.st547{mask:url(#SVGID_00000097461036189013754040000000512655458090367401_);}
	.st548{filter:url(#Adobe_OpacityMaskFilter_00000003097637268278612020000006186482875695708596_);}
	.st549{mask:url(#SVGID_00000178196925491333609130000013363328821671043495_);}
	.st550{filter:url(#Adobe_OpacityMaskFilter_00000123429633478187476240000009617319729883913109_);}
	.st551{mask:url(#SVGID_00000014596522451939299130000002827033964801718415_);}
	.st552{filter:url(#Adobe_OpacityMaskFilter_00000142158777951177302940000006359198734279280281_);}
	.st553{mask:url(#SVGID_00000034058766193280948570000002635055731844512167_);}
	.st554{filter:url(#Adobe_OpacityMaskFilter_00000134224283355435603780000015723408916077093771_);}
	.st555{mask:url(#SVGID_00000062912039244291134930000016348493642107824777_);}
	.st556{opacity:0.74;}
	.st557{opacity:0.43;}
	.st558{filter:url(#Adobe_OpacityMaskFilter_00000132064616354748974350000013282911952652948872_);}
	.st559{mask:url(#SVGID_00000173133199732398815420000001969061363754591620_);}
	.st560{filter:url(#Adobe_OpacityMaskFilter_00000047773231981064540320000005611728092719286656_);}
	.st561{mask:url(#SVGID_00000046298035277430782370000006026570907713461419_);}
	.st562{filter:url(#Adobe_OpacityMaskFilter_00000058548905391514707840000005358690279026256319_);}
	.st563{mask:url(#SVGID_00000049214629869563558800000011280155916230520228_);}
	.st564{filter:url(#Adobe_OpacityMaskFilter_00000007398635251393039110000005363327456369471659_);}
	.st565{mask:url(#SVGID_00000101812940078542736630000008788338301732243886_);}
	.st566{filter:url(#Adobe_OpacityMaskFilter_00000165205198491864010810000003568344130116051097_);}
	.st567{mask:url(#SVGID_00000017495056239124823130000012493788245279014839_);}
	.st568{filter:url(#Adobe_OpacityMaskFilter_00000145020519910860605550000009011554878861341069_);}
	.st569{mask:url(#SVGID_00000005985476023459228900000009028727407318064009_);}
	.st570{filter:url(#Adobe_OpacityMaskFilter_00000168829502366672051250000013385125072612380347_);}
	.st571{opacity:0.26;mask:url(#SVGID_00000013881756886225441830000004824287411775554969_);}
	.st572{filter:url(#Adobe_OpacityMaskFilter_00000134960831079930634130000015989027367586313373_);}
	.st573{opacity:0.68;mask:url(#SVGID_00000052105725590470293230000007167696266316660400_);}
	.st574{filter:url(#Adobe_OpacityMaskFilter_00000026880927414189446360000005605818533450291874_);}
	.st575{opacity:0.68;mask:url(#SVGID_00000106846038913531237370000016278112433107735206_);}
	.st576{filter:url(#Adobe_OpacityMaskFilter_00000182504324512835842850000009459647106485738126_);}
	.st577{opacity:0.68;mask:url(#SVGID_00000093880091307176285100000006787753743133594244_);}
	.st578{filter:url(#Adobe_OpacityMaskFilter_00000090283285696189020690000007675114925853686705_);}
	.st579{mask:url(#SVGID_00000060003903805614624830000013268508910784821689_);}
	.st580{filter:url(#Adobe_OpacityMaskFilter_00000140702884534914818510000003051224702296967330_);}
	.st581{mask:url(#SVGID_00000132088009977684570890000000125709747364064906_);}
	.st582{filter:url(#Adobe_OpacityMaskFilter_00000170250901455064938980000013163512701100907435_);}
	.st583{mask:url(#SVGID_00000179639649640416102280000006733485774901668255_);}
	.st584{filter:url(#Adobe_OpacityMaskFilter_00000123410308560592787990000014094128380802927802_);}
	.st585{mask:url(#SVGID_00000126305160331336402560000017916248178976319411_);}
	.st586{filter:url(#Adobe_OpacityMaskFilter_00000072965340436348880910000016112500676199391676_);}
	.st587{opacity:0.68;mask:url(#SVGID_00000026127509484885642640000017517146521964823231_);}
	.st588{filter:url(#Adobe_OpacityMaskFilter_00000058546843180494160610000010817313135687708341_);}
	.st589{opacity:0.68;mask:url(#SVGID_00000107560135466875374610000015213950454855871163_);}
	.st590{filter:url(#Adobe_OpacityMaskFilter_00000047772931839254728300000002831509358338591416_);}
	.st591{filter:url(#Adobe_OpacityMaskFilter_00000146498022845331924840000015442893043172464279_);}
	.st592{filter:url(#Adobe_OpacityMaskFilter_00000183209522655937778030000017226860184035186607_);}
	.st593{filter:url(#Adobe_OpacityMaskFilter_00000150083817221659903770000009382383153942212798_);}
	.st594{filter:url(#Adobe_OpacityMaskFilter_00000085954154263675383080000015067584684796181419_);}
	.st595{filter:url(#Adobe_OpacityMaskFilter_00000140720019295199009860000014313190331625095318_);}
	.st596{filter:url(#Adobe_OpacityMaskFilter_00000077307704618997501740000001346970393392204424_);}
	.st597{mask:url(#SVGID_00000087406783553073421310000007212677842213616529_);}
	.st598{filter:url(#Adobe_OpacityMaskFilter_00000011710616137573687230000005970395324877998012_);}
	.st599{mask:url(#SVGID_00000087387353794958522160000016449104187381849763_);}
	.st600{filter:url(#Adobe_OpacityMaskFilter_00000138573746075721099910000009005302757487957413_);}
	.st601{mask:url(#SVGID_00000038410216092443268850000005131469467142621620_);}
	.st602{filter:url(#Adobe_OpacityMaskFilter_00000026142896747309590150000012296205569697298344_);}
	.st603{mask:url(#SVGID_00000130626760524212202420000017094814610849324990_);}
	.st604{filter:url(#Adobe_OpacityMaskFilter_00000015346127670778991990000006400464964993723315_);}
	.st605{mask:url(#SVGID_00000094612098087100875740000002760164106769784984_);}
	.st606{filter:url(#Adobe_OpacityMaskFilter_00000157308833472720432590000001561430713664553906_);}
	.st607{mask:url(#SVGID_00000000939123090154347230000006366743340659173554_);}
	.st608{filter:url(#Adobe_OpacityMaskFilter_00000011029698899067884780000018240652440315750808_);}
	.st609{mask:url(#SVGID_00000103235069251669121400000001210077975240942512_);}
	.st610{filter:url(#Adobe_OpacityMaskFilter_00000156582953719206829290000003882196423696348607_);}
	.st611{mask:url(#SVGID_00000047037030637177914770000011027839775076292267_);}
	.st612{filter:url(#Adobe_OpacityMaskFilter_00000088124638826436344870000009318372279266390404_);}
	.st613{mask:url(#SVGID_00000000933321145463916390000000525434947662082210_);}
	.st614{filter:url(#Adobe_OpacityMaskFilter_00000068650037797032126050000015844125656265302169_);}
	.st615{mask:url(#SVGID_00000106143522724813216820000007482508937549631418_);}
	.st616{filter:url(#Adobe_OpacityMaskFilter_00000103238874897302588350000018155765347029131655_);}
	.st617{mask:url(#SVGID_00000115496541308457783780000007973282842133977249_);}
	.st618{filter:url(#Adobe_OpacityMaskFilter_00000181798799197954822930000008790297439660968583_);}
	.st619{mask:url(#SVGID_00000129203950958443771810000000479276515584320443_);}
	.st620{filter:url(#Adobe_OpacityMaskFilter_00000090999208510438990290000017393185786348209821_);}
	.st621{mask:url(#SVGID_00000175324879412504975910000001303063325561659068_);}
	.st622{filter:url(#Adobe_OpacityMaskFilter_00000023977823732872391160000015604670215666682552_);}
	.st623{mask:url(#SVGID_00000155146919701341879790000006284321086713945742_);}
	.st624{filter:url(#Adobe_OpacityMaskFilter_00000137098691144143175020000000132168673888880569_);}
	.st625{mask:url(#SVGID_00000073698023256477442130000000403056520652525500_);}
	.st626{filter:url(#Adobe_OpacityMaskFilter_00000173139866209048613040000002436965456924018091_);}
	.st627{mask:url(#SVGID_00000177484183912757162660000010496425535528930469_);}
	.st628{filter:url(#Adobe_OpacityMaskFilter_00000007396893201658268980000013222368859107262854_);}
	.st629{opacity:0.26;mask:url(#SVGID_00000023995654833842693060000017416772737834976189_);}
	.st630{filter:url(#Adobe_OpacityMaskFilter_00000158746797017992946440000003549668994084365199_);}
	.st631{opacity:0.68;mask:url(#SVGID_00000054969000000088049000000004842964318729958558_);}
	.st632{filter:url(#Adobe_OpacityMaskFilter_00000154421098278431754670000003723488402318591624_);}
	.st633{opacity:0.68;mask:url(#SVGID_00000070810038819322992760000008895384479612045480_);}
	.st634{filter:url(#Adobe_OpacityMaskFilter_00000163793017795903106220000011946624099762920352_);}
	.st635{opacity:0.68;mask:url(#SVGID_00000010274626039028568700000006731956881864948610_);}
	.st636{filter:url(#Adobe_OpacityMaskFilter_00000066494956632195205450000008388606275255709571_);}
	.st637{mask:url(#SVGID_00000101069084004457513340000005391685741424043907_);}
	.st638{filter:url(#Adobe_OpacityMaskFilter_00000059267721815904913340000005715172332115832962_);}
	.st639{mask:url(#SVGID_00000037687403863286540090000008852542336966353591_);}
	.st640{filter:url(#Adobe_OpacityMaskFilter_00000090287088029728262030000000229215410752312961_);}
	.st641{mask:url(#SVGID_00000083071408893413042800000017803568725587241123_);}
	.st642{filter:url(#Adobe_OpacityMaskFilter_00000102511409421575700430000005250023154448262582_);}
	.st643{mask:url(#SVGID_00000095328164378469538510000000444384724528902588_);}
	.st644{filter:url(#Adobe_OpacityMaskFilter_00000061438782089184827560000001839767935040298902_);}
	.st645{opacity:0.68;mask:url(#SVGID_00000093139590975027441540000002040528361494041773_);}
	.st646{filter:url(#Adobe_OpacityMaskFilter_00000051381901698685288200000010658847522996991105_);}
	.st647{opacity:0.68;mask:url(#SVGID_00000160152034993585883780000004651253737799450282_);}
	.st648{filter:url(#Adobe_OpacityMaskFilter_00000173140277064745862880000003365247803931281087_);}
	.st649{filter:url(#Adobe_OpacityMaskFilter_00000023257637193285870960000013449400879389495472_);}
	.st650{filter:url(#Adobe_OpacityMaskFilter_00000116932353896109444980000000914685007327836837_);}
	.st651{filter:url(#Adobe_OpacityMaskFilter_00000106128326905518401430000000117296686090781586_);}
	.st652{filter:url(#Adobe_OpacityMaskFilter_00000107577185883119200120000012964988824027557792_);}
	.st653{filter:url(#Adobe_OpacityMaskFilter_00000113314122457704280160000003746312195425625481_);}
	.st654{fill:#FEEC6F;}
	.st655{fill:#D7E2F3;}
	.st656{fill:#E4C644;}
	.st657{fill:#F8E363;}
	.st658{fill:#F6DF5E;}
	.st659{fill:#2E4C78;}
	.st660{fill:#E7CC49;}
	.st661{fill:#F2DA52;}
	.st662{fill:#D5B339;}
	.st663{fill:#E8CE4A;}
	.st664{fill:#3A6191;}
	.st665{fill:#4974AB;}
	.st666{fill:#2F4D79;}
	.st667{fill:#30507D;}
	.st668{fill:#EED64F;}
	.st669{fill:#F3DB50;}
	.st670{fill:#25436B;}
	.st671{fill:#304D7D;}
	.st672{fill:#26446A;}
	.st673{fill:#2E4C7B;}
	.st674{fill:#354F90;}
	.st675{fill:#D3DEEE;}
	.st676{fill:#334E8F;}
	.st677{fill:#FEED6F;}
	.st678{fill:#E1C23F;}
	.st679{fill:#EDD551;}
	.st680{fill:#FCE868;}
	.st681{fill:#E5C945;}
	.st682{fill:#CB9F29;}
	.st683{fill:#091B40;}
	.st684{fill:#385685;}
	.st685{fill:#304E7A;}
	.st686{fill:#A8BFE1;}
	.st687{fill:#466EA5;}
	.st688{fill:#20497F;}
	.st689{fill:#E1C341;}
	.st690{fill:#F5DE55;}
	.st691{fill:#F1D94F;}
	.st692{fill:#FCE86A;}
	.st693{fill:#ECD44E;}
	.st694{fill:#FDEF6B;}
	.st695{fill:#E2C442;}
	.st696{fill:#E5CA43;}
	.st697{fill:none;stroke-width:3;stroke-linecap:round;stroke-linejoin:round;stroke-miterlimit:10;}
	.st698{fill-rule:evenodd;clip-rule:evenodd;fill:none;stroke-width:3;stroke-linejoin:round;stroke-miterlimit:10;}
</style>
<g id="revolucion_industrial">
	<path class="st0" d="M1115.8,525.2h7.3l0,0l0,0v-0.3v-0.6v-0.4h0.2c0.2,0,0.4-0.2,0.3-0.4c0-0.1,0-0.2-0.1-0.3
		c-0.1-0.2-0.1-0.4-0.2-0.6c0-0.1-0.1-0.1-0.1-0.2c-0.1-0.1-0.1-0.2-0.2-0.3c-0.1-0.1-0.1-0.2-0.2-0.2c-0.1-0.1-0.1-0.1-0.2-0.2
		c-0.1-0.1-0.2-0.2-0.2-0.3c0,0-0.1-0.1-0.1-0.1c-0.5-0.5-1.2-0.8-1.9-1c0,0,0,0,0,0c0-0.3-0.1-0.5-0.3-0.7c0,0,0,0,0,0
		c-0.1-0.1-0.2-0.1-0.3-0.2c-0.1,0-0.2-0.1-0.3-0.1c0,0-0.1,0-0.1,0c0,0,0,0,0,0c-0.1,0-0.2,0-0.4,0.1c-0.1,0-0.2,0.1-0.2,0.2
		c0,0-0.1,0-0.1,0.1c-0.2,0.2-0.3,0.4-0.3,0.7c0,0,0,0,0,0c-0.2,0.1-0.4,0.1-0.7,0.2c-0.8,0.3-1.5,0.9-1.9,1.6
		c-0.1,0.1-0.2,0.3-0.3,0.4c-0.2,0.3-0.3,0.6-0.4,1c0,0.1,0,0.2,0.1,0.3c0.1,0.1,0.2,0.1,0.3,0.1h0.2v0.4V525.2z"/>
	<path class="st0" d="M1102.4,522.8L1102.4,522.8v3.2l0,0h0.1c0.5,0,0.9-0.4,0.9-0.9v-1.3c0-0.1,0-0.3-0.1-0.4
		C1103.2,523,1102.9,522.8,1102.4,522.8L1102.4,522.8z"/>
	<path class="st0" d="M1084.9,522.8c-0.4,0-0.7,0.3-0.9,0.6c0,0.1-0.1,0.2-0.1,0.3v1.3c0,0.5,0.4,0.9,0.9,0.9h0.1L1084.9,522.8
		L1084.9,522.8L1084.9,522.8L1084.9,522.8z"/>
	<path class="st0" d="M1228.2,573.8h-52.9c0,0,0,0,0,0c0.1-0.1,0.2-0.2,0.3-0.3c0,0,0.1-0.1,0.1-0.1c0,0,0-0.1,0.1-0.1
		c0-0.1,0.1-0.2,0.1-0.4c0,0,0,0,0,0l0,0h0l0,0l0,0l-1.4-0.7l-17.7-9.2l-0.1-0.1v-1.1v0h-0.9c0,0,0,0,0,0c0.2-0.1,0.5-0.3,0.8-0.5
		c0,0,0,0,0,0c0.3-0.2,0.5-0.4,0.8-0.6c0,0,0,0,0,0c0.3-0.2,0.5-0.4,0.8-0.7c0,0,0.1-0.1,0.1-0.1c0.3-0.3,0.5-0.6,0.8-0.9
		c0,0,0.1-0.1,0.1-0.1c0.2-0.3,0.5-0.6,0.7-0.9c0.1-0.1,0.1-0.2,0.2-0.2c0.2-0.3,0.5-0.7,0.7-1.1c0,0,0-0.1,0.1-0.1
		c0.2-0.4,0.4-0.7,0.6-1.1c0.1-0.1,0.1-0.2,0.2-0.3c0.2-0.4,0.4-0.9,0.6-1.3c0.8-2,1.3-4.4,1.3-7c0-6.6-3-11.2-5.8-13.7
		c-0.2-0.2-0.4-0.3-0.6-0.5c0,0-0.1,0-0.1-0.1c-0.2-0.1-0.3-0.2-0.5-0.4c0,0,0,0-0.1,0c-0.2-0.1-0.3-0.2-0.5-0.3c0,0,0,0,0,0
		c-0.2-0.1-0.3-0.2-0.5-0.3c0,0,0,0,0,0c0,0,0,0,0,0c-0.1-0.1-0.1-0.2-0.2-0.2c0,0,0,0,0,0c0,0,0,0,0,0c0,0,0,0,0,0
		c-0.1-0.1-0.3-0.2-0.4-0.3c0,0,0,0,0,0c0,0,0,0,0,0c0,0-0.1-0.1-0.1-0.1c0,0,0,0,0,0c0,0,0,0,0,0c-0.1-0.1-0.2-0.1-0.3-0.2
		c0,0-0.1,0-0.1,0c-0.1,0-0.3-0.1-0.4-0.1c0,0,0,0,0,0h-1c0,0,0,0,0,0c0.1-1.2,0.3-2.1,0.7-2.8c0,0,0,0,0,0v1.8l0,0h2.9h5l0,0v-1.5
		c0,0,0,0,0,0c0.2-0.1,0.3-0.3,0.4-0.5c0,0,0,0,0,0c0.1-0.2,0.2-0.3,0.3-0.5c0,0,0-0.1,0.1-0.1c0.1-0.2,0.1-0.4,0.2-0.6
		c0-0.1,0-0.1,0.1-0.2c0.1-0.3,0.1-0.5,0.1-0.9l0,0l0,0c0-0.5-0.1-1-0.2-1.4c-0.1-0.2-0.2-0.4-0.3-0.6c0-0.1-0.1-0.2-0.2-0.2
		c0-0.1-0.1-0.1-0.1-0.2c-0.1-0.1-0.2-0.3-0.3-0.4v-1.4h-5l0,0h-2.9v2.7c0,0,0,0,0,0c-0.3,0-0.6,0.1-0.9,0.1c0,0,0,0-0.1,0
		c-0.3,0.1-0.6,0.1-0.8,0.2c0,0,0,0,0,0c-0.8,0.3-1.5,0.7-2.1,1.2c0,0-0.1,0.1-0.1,0.1c-0.1,0.1-0.3,0.3-0.4,0.4
		c0,0.1-0.1,0.1-0.1,0.2c-0.1,0.2-0.2,0.3-0.3,0.5c0,0.1-0.1,0.1-0.1,0.2c-0.1,0.2-0.2,0.5-0.4,0.7c0,0,0,0,0,0h-0.5l0.1-0.6
		l0.2-1.9h0.9c0.3,0,0.5-0.2,0.5-0.5l0.4-3.9l1.7-15.5l0,0c0,0,0,0,0,0c0,0,0,0,0,0l0,0l0,0l0.2-1.5l0.3-2.6h0.4
		c0.1,0,0.2-0.1,0.3-0.1c0.1-0.1,0.1-0.2,0.1-0.3c0-0.2-0.2-0.5-0.5-0.5h-1v-2.8h0.2c0.2,0,0.3-0.1,0.4-0.3c0-0.1,0.1-0.1,0.1-0.2
		l0,0l0,0c0,0,0,0,0,0c0,0,0-0.1,0-0.1c0-0.1-0.1-0.1-0.1-0.1c-0.1-0.1-0.2-0.1-0.3-0.1h-0.7c0,0,0,0,0,0c0.3-0.2,0.6-0.4,0.9-0.6
		c0.1,0,0.1-0.1,0.2-0.1c0.3-0.2,0.5-0.5,0.8-0.7c1.1-1.2,1.8-2.8,1.9-4.4c0,0,0,0,0,0c0-1-0.1-2-0.5-3c-1.5-3.7-5.7-5.6-9.5-4.2
		c-0.7-1-1.7-1.7-2.8-2.2c-1.9-0.8-4.1-0.9-6,0c-0.2,0.1-0.4,0.2-0.6,0.3c-0.5-0.7-1-1.2-1.6-1.8c-0.3-0.3-0.7-0.6-1.1-0.9
		c-0.7-0.5-1.6-0.9-2.4-1.2c-0.8-0.3-1.6-0.5-2.4-0.5c-1-0.1-2.1,0-3.1,0.2c-0.3-0.2-0.5-0.5-0.8-0.7c-0.1-0.1-0.2-0.1-0.3-0.2
		c-0.2-0.1-0.3-0.3-0.5-0.4c-0.1-0.1-0.2-0.2-0.3-0.2c-0.2-0.1-0.3-0.2-0.5-0.3c-0.1-0.1-0.2-0.1-0.3-0.2c-0.1-0.1-0.3-0.2-0.4-0.3
		c-0.1-0.1-0.2-0.1-0.3-0.2c-0.1-0.1-0.3-0.2-0.4-0.2c-0.1-0.1-0.2-0.1-0.3-0.2c-0.1-0.1-0.3-0.1-0.4-0.2c-0.1-0.1-0.2-0.1-0.3-0.2
		c-0.1-0.1-0.3-0.1-0.4-0.2c-0.1,0-0.2-0.1-0.3-0.1c-0.2-0.1-0.3-0.1-0.5-0.2c-0.2-0.1-0.4-0.1-0.6-0.2c-0.1,0-0.3-0.1-0.4-0.1
		c-0.1,0-0.3-0.1-0.4-0.1c-0.1,0-0.2-0.1-0.3-0.1c-0.1,0-0.3-0.1-0.4-0.1c-0.1,0-0.2,0-0.3-0.1c-0.1,0-0.3-0.1-0.4-0.1
		c-0.1,0-0.2,0-0.3-0.1c-0.1,0-0.3,0-0.4-0.1c-0.1,0-0.2,0-0.3,0c-0.2,0-0.3,0-0.5-0.1c-0.1,0-0.2,0-0.2,0c-0.2,0-0.3,0-0.5,0
		c0,0,0,0,0,0c0,0,0,0,0,0c-0.7-0.2-1.4-0.3-2-0.3c0,0,0,0,0,0c-0.2,0-0.4,0-0.5,0c0,0,0,0-0.1,0c-0.1,0-0.3,0-0.4,0
		c0,0-0.1,0-0.1,0c-0.1,0-0.2,0-0.2,0c-0.1,0-0.1,0-0.1,0c0,0-0.1,0-0.1,0c-0.1,0-0.1,0.1-0.1,0.1c0,0,0,0,0,0.1c-0.2,0-0.4,0-0.6,0
		c-0.1,0-0.3,0-0.4,0c-0.1,0-0.3,0-0.4,0c-0.4,0-0.7,0-1.1,0c-0.1,0-0.1,0-0.2,0c-0.4,0-0.7,0-1.1,0c-0.1,0-0.1,0-0.2,0
		c-0.4,0-0.8-0.1-1.1-0.1c-0.1,0-0.2,0-0.2,0c-0.4,0-0.8-0.1-1.2-0.1c0,0-0.1,0-0.1,0c-0.4-0.1-0.7-0.1-1.1-0.2c-0.1,0-0.1,0-0.2,0
		c-0.4-0.1-0.8-0.2-1.2-0.3c-0.1,0-0.2,0-0.2-0.1c-0.4-0.1-0.8-0.3-1.2-0.4c-7.2-2.8-14.4-5.6-22.4-6.5c-1.1-0.1-2.2-0.2-3.3-0.3
		c0,0,0,0,0,0c0,0,0,0,0,0c0,0,0,0,0,0c-0.2-0.2-0.4-0.3-0.6-0.5c-0.1-0.1-0.2-0.2-0.4-0.3c-0.2-0.2-0.4-0.3-0.6-0.4
		c-0.1-0.1-0.3-0.2-0.4-0.2c-0.7-0.5-1.5-0.9-2.3-1.2c-0.1-0.1-0.3-0.1-0.4-0.2c-0.2-0.1-0.5-0.2-0.7-0.3c-0.1,0-0.3-0.1-0.4-0.1
		c-0.8-0.3-1.7-0.4-2.5-0.6c-0.1,0-0.3,0-0.4-0.1c-0.3,0-0.5-0.1-0.8-0.1c-0.1,0-0.3,0-0.4,0c-0.9,0-1.8,0-2.7,0.1
		c-0.1,0-0.3,0-0.4,0.1c-0.3,0-0.5,0.1-0.8,0.2c-0.1,0-0.3,0.1-0.4,0.1c-0.6,0.1-1.2,0.3-1.8,0.6c0,0-0.1,0-0.1,0
		c-0.2-0.1-0.3-0.1-0.5-0.2c0,0,0,0,0,0c-1.8-1.9-4.1-3.3-6.5-4h0c-0.4-0.1-0.8-0.2-1.2-0.3c0,0,0,0-0.1,0c-0.4-0.1-0.8-0.2-1.2-0.2
		c0,0-0.1,0-0.1,0c-0.4,0-0.7-0.1-1.1-0.1c-0.1,0-0.2,0-0.2,0c-0.3,0-0.7,0-1,0c-0.1,0-0.2,0-0.3,0c-0.3,0-0.6,0-0.9,0.1
		c-0.1,0-0.3,0-0.4,0.1c-0.3,0-0.6,0.1-0.8,0.1c-0.2,0-0.4,0.1-0.5,0.1c-0.2,0.1-0.5,0.1-0.7,0.2c-0.2,0.1-0.4,0.1-0.6,0.2
		c-0.2,0.1-0.4,0.1-0.6,0.2c-0.3,0.1-0.5,0.2-0.8,0.4c-0.1,0.1-0.3,0.1-0.4,0.2c-0.4,0.2-0.8,0.4-1.2,0.7c-0.3-0.3-0.6-0.6-0.8-1
		c-1.4-1.6-3.1-2.9-4.9-4c-3.3-1.9-7.1-2.9-11-2.9c-1.8,0-3.5,0.3-5.3,0.8c-9.9-6.6-18.7-10.4-30.6-9.7c-7.2,0.4-14.4,3.2-21.5,0.7
		c-14-5-28-8.7-42.6-9.1c-3.4-0.1-6.9-0.1-10.5,0.2c-1.8,0.1-3.5,0.3-5.3,0.5c-6.6,0.7-13.1,1.4-19.6-0.3c-1.3-0.4-2.7-0.8-4-1.4
		c-0.1,0-0.1-0.1-0.2-0.1c-0.9-0.4-1.9-0.7-3.2-1.1c-9.9-2.5-29.4-5.9-35.9,0.7c-0.2,0.2-0.6,0.5-0.9,0.6c-0.7,0.3-1.5,0.4-2.2,0
		c-0.7-0.4-1.5-0.8-2.2-1.2c-2.9-1.4-5.9-2.3-9.1-2.7c-4.9-0.7-9.9,0-14.6,1.8c-0.2,0.1-0.3,0.1-0.5,0.2c-0.1,0-0.2,0-0.3,0.1
		c-4.3,0.8-7.9,3.3-10,7c-1.1,1.9-1.6,3.9-1.7,6c0,0,0,0,0,0c-0.1,2.1,0.3,4.1,1.1,6.1c-10-5.3-22.9-6.5-33.4-1.5
		c-1.3,0-2.5,0.3-3.7,0.8c-2.2,0.9-4,2.7-5,4.9c-0.5,1.3-0.8,2.6-0.7,3.9c0.1,2.2,1,4.4,2.7,6c2.6,2.6,6.6,3.5,10.1,2.3
		c0.1,0.3,0.3,0.7,0.4,1c0.1,0.1,0.1,0.2,0.1,0.4c0.5,1.2,1.2,2.3,1.9,3.3c0.3,0.5,0.7,0.9,1,1.3c1.5,1.7,3.2,3.1,5.2,4.1
		c2.4,1.3,5.1,2,7.9,2.1c0.4,0,0.9,0,1.3,0c0.7,0,1.3-0.1,2-0.2c4.4-0.5,9.1-3.4,12-7.2c0.9-1.2,1.6-2.4,2-3.6
		c0.2,1.4,0.6,2.9,1.1,4.3c0.5,1.5,1.1,2.9,1.8,4.4c1.4,2.8,3.2,5.5,5.2,7.6c1.4,1.6,3,3.1,4.8,4.4c0.6,0.4,1.2,0.9,1.8,1.3
		c1.7,1.2,3.6,2.2,5.5,3c0.4,0.1,0.7,0.3,1.1,0.4c7,2.3,13.1,2.5,19.7,1c0.6-0.1,1.2-0.3,1.8-0.5c2.4-0.7,4.9-1.6,7.5-2.7
		c0.6-0.3,1.1-0.7,1.6-1c0.2-0.2,0.5-0.3,0.7-0.5c0.5-0.3,1-0.6,1.4-1c1.1,1.9,2.3,3.5,3.8,5c2.2,2.2,4.8,4,7.7,5.3
		c1.4,0.6,2.9,1.1,4.5,1.5c1,0.2,2,0.4,2.9,0.5c0.6,0.1,1.2,0.1,1.8,0.1c0,0,0,0,0,0c0,0,0,0,0,0c0,0,0,0,0,0c2.9,0,5.7-0.4,8.3-1.3
		c2-0.7,3.8-1.6,5.6-2.7c2.9-1.9,5.4-4.4,7.3-7.5c0.7,2,2.2,3.5,4.1,4.4c0.5,0.2,0.9,0.4,1.4,0.5c0.6,0.1,1.3,0.2,1.9,0.2
		c1.9,0,3.8-0.8,5.2-2.1c3.1,1.7,6.8,2,10.2,0.7c0.5-0.2,1-0.5,1.5-0.7c2.6-1.4,4.6-3.7,5.5-6.5c6.3,5.3,15.5,6.9,23.4,4.5
		c1-0.3,2.1-0.7,3.1-1.2c0.1,0,0.2-0.1,0.3-0.1c2-1,3.8-2.2,5.4-3.8c5.9,4.8,11.6,9,19,11.1c0.9,0.3,1.9,0.5,2.8,0.8
		c0.4,0.1,0.8,0.2,1.3,0.3c0.5,0.1,1.1,0.2,1.6,0.3c0.6,0.1,1.1,0.2,1.7,0.2c0.4,0.1,0.8,0.1,1.2,0.2c0.7,0.1,1.3,0.1,2,0.2
		c0.3,0,0.6,0.1,0.9,0.1c0.8,0,1.5,0,2.3,0c0.2,0,0.4,0,0.6,0c0.8,0,1.7-0.1,2.5-0.1c0.1,0,0.2,0,0.3,0c0.9-0.1,1.8-0.2,2.7-0.3
		c0,0,0.1,0,0.1,0c8.6-1.1,16.8-4.5,23.6-10c0.2,0.1,0.3,0.2,0.5,0.3c0.2,0.2,0.4,0.5,0.6,0.7c0,0,0,0,0,0c0.2,0.2,0.4,0.4,0.7,0.6
		c0,0,0,0,0,0c0.2,0.2,0.4,0.3,0.7,0.5c0,0,0.1,0,0.1,0.1c0.2,0.1,0.4,0.2,0.7,0.3c0.1,0,0.1,0.1,0.2,0.1c0.2,0.1,0.4,0.2,0.6,0.2
		c0.1,0,0.2,0.1,0.3,0.1c0.2,0,0.4,0.1,0.5,0.1c0.2,0,0.3,0,0.5,0.1c0.1,0,0.3,0,0.4,0c0.3,0,0.6,0,0.9,0c0,0,0,0,0,0
		c0.1,0,0.1,0,0.2,0c0.4,0.1,0.8,0.1,1.2,0.2c0,0,0,0,0,0c0.7,0.1,1.4,0.1,2.2,0.1c0.2,0,0.3,0,0.5,0c0.3,0,0.6,0,0.9-0.1
		c0.3,0,0.6-0.1,1-0.1c0.3,0,0.5-0.1,0.8-0.1c0.4-0.1,0.8-0.2,1.2-0.3c0.2,0,0.3-0.1,0.5-0.1c0.5-0.2,1-0.3,1.5-0.6c0,0,0,0,0,0
		c0.1-0.1,0.2-0.1,0.4-0.2c0.4,0.2,0.9,0.5,1.3,0.7c0.1,0,0.2,0.1,0.3,0.1c0.4,0.2,0.8,0.4,1.3,0.5l0,0c0,0,0,0,0,0
		c0.9,1.3,2.1,2.4,3.4,3.3c0.1,0.1,0.2,0.1,0.3,0.2c0.2,0.1,0.5,0.3,0.7,0.4c0.2,0.1,0.4,0.2,0.6,0.3c0.2,0.1,0.4,0.2,0.6,0.3
		c0.3,0.1,0.6,0.2,0.8,0.3c0.2,0.1,0.3,0.1,0.5,0.2c0.5,0.1,0.9,0.2,1.4,0.3c0,0,0,0,0,0c0,0,0,0,0,0c0,0,0,0,0,0c0,0,0,0,0,0
		c0.5,0.1,1.1,0.1,1.6,0.1c1.9,0,3.7-0.5,5.3-1.3c1.6-0.8,3.1-2,4.3-3.5c0.1,0.3,0.2,0.6,0.4,0.9c0.5,0.8,1.2,1.5,2.1,1.8
		c1.2,0.4,2.6,0.2,3.6-0.6c1.5,1,3.3,1.3,5,0.8c0.6-0.2,1.2-0.5,1.8-0.8c0.9-0.6,1.6-1.5,2.1-2.5c3.6,3.5,8.8,4.5,13.3,2.7
		c1-0.4,1.9-0.9,2.7-1.5c2.6,2.9,5.7,5,9,6.3l0,0l0,0l0,0c1.5,0.6,3.1,1,4.7,1.3c0.7,0.1,1.4,0.2,2.2,0.3c0.1,0,0.2,0,0.4,0
		c3.5,0.2,7.1-0.4,10.4-1.7c1.6-0.7,3.1-1.5,4.6-2.5c0.2,0.4,0.6,0.8,0.9,1c0.5,0.4,1.1,0.6,1.7,0.7c0.2,0,0.4,0,0.6,0
		c0.1,0,0.2,0,0.2,0c1.2-0.1,2.3-0.8,2.9-1.9c0,0,0,0,0,0c0.2,0.2,0.4,0.4,0.5,0.5c0.2,0.2,0.3,0.3,0.5,0.4c0,0,0,0,0,0
		c-0.1,0-0.1,0-0.1,0.1c0,0,0,0,0,0c0,0-0.1,0.1-0.1,0.1c0,0,0,0,0,0c0,0,0,0.1-0.1,0.1c0,0.1,0,0.1,0,0.2l0,0l0,0c0,0,0,0.1,0,0.1
		c0,0.2,0.2,0.4,0.4,0.4h0.2v2.8h-1c-0.2,0-0.5,0.2-0.5,0.5c0,0.1,0.1,0.3,0.2,0.3c0.1,0.1,0.2,0.1,0.3,0.1h0.4l0.9,8l1.3,11.4
		l0.4,4.1c0,0.3,0.3,0.5,0.6,0.5h0h0.9l0.1,1.1l0,0.3l0.1,1h-1.5c-0.3,0-0.5,0.1-0.7,0.4l0,0l0,0c-0.1,0.1-0.2,0.3-0.2,0.5l0,0v2.2
		l0,0h1.8c0,0,0,0,0,0s0,0,0,0c-0.3,0-0.6,0-0.9,0c-2.7,0-7.2,0-9.9,0c-0.3,0-0.6,0-0.9,0c0,0,0,0,0,0h-0.4h-0.9h-2.8v-0.2v-4.2h0.7
		c0.2,0,0.4-0.2,0.4-0.4s-0.2-0.4-0.4-0.4h-10.1c-0.1,0-0.2,0-0.3,0.1c-0.1,0.1-0.1,0.1-0.1,0.2c0,0.1,0,0.2,0.1,0.3
		c0.1,0.1,0.2,0.1,0.3,0.1h0.7v4.4h-1.5c0,0,0,0,0,0s0,0,0,0c-0.1,0-0.3,0-0.5,0l-10.2,0c-0.1,0-0.3,0-0.4,0h7.3l0,0l-1.3-1.3
		c-0.2-0.2-0.4-0.3-0.5-0.5c-0.6-0.4-1.3-0.6-2-0.6h-3.7v-1v0v-5.8h0l0,0v-0.4h0.3c0.3,0,0.6-0.3,0.6-0.6c0-0.2-0.1-0.3-0.2-0.4
		c-0.1-0.1-0.2-0.2-0.4-0.2h-0.2c-0.2-0.4-0.4-0.9-0.6-1.3c0,0,0,0,0,0c-0.2-0.3-0.4-0.5-0.6-0.8c-0.1-0.1-0.2-0.2-0.3-0.3
		c-0.1-0.1-0.3-0.3-0.4-0.4c-0.1-0.1-0.3-0.2-0.4-0.3c-0.1-0.1-0.3-0.2-0.4-0.3c-0.2-0.1-0.3-0.2-0.5-0.3c-0.1-0.1-0.2-0.1-0.4-0.2
		c-0.2-0.1-0.4-0.2-0.6-0.3c-0.1,0-0.2-0.1-0.3-0.1c-0.2-0.1-0.5-0.2-0.8-0.3c-0.1,0-0.2,0-0.3-0.1c-0.3-0.1-0.6-0.2-0.9-0.2
		c-0.1,0-0.1,0-0.2,0c-0.3-0.1-0.7-0.1-1-0.1c0-0.1-0.1-0.2-0.1-0.3c0,0,0,0,0,0c-0.1-0.1-0.1-0.2-0.2-0.2c0,0-0.1-0.1-0.1-0.1
		c-0.1,0-0.1-0.1-0.2-0.1c-0.1,0-0.3-0.1-0.4-0.1c-0.1,0-0.3,0-0.4,0.1c-0.1,0-0.1,0.1-0.2,0.1c0,0-0.1,0.1-0.1,0.1
		c-0.1,0.1-0.1,0.1-0.2,0.2c0,0,0,0,0,0c-0.1,0.1-0.1,0.2-0.1,0.3c-0.2,0-0.3,0-0.5,0c-0.9,0.1-1.7,0.3-2.4,0.6c0,0,0,0-0.1,0
		c0,0-0.1,0-0.1,0.1c-2.2,0.9-3.9,2.4-4.6,4.3h-0.2c-0.2,0-0.5,0.2-0.5,0.4c0,0.1,0,0.1,0,0.2c0,0.3,0.3,0.6,0.6,0.6h0.3v0.4l0,0
		l0,0h0v6.8h-3.7c-0.7,0-1.4,0.2-2,0.6c-0.2,0.1-0.4,0.3-0.5,0.5l-1.3,1.3l0,0l0,0h10.3c0,0,0,0,0,0s0,0,0,0c-0.1,0-0.3,0-0.5,0
		l-5,0c-0.1,0-0.3,0-0.4,0h-2.3c-0.4,0-0.9,0-1.3,0h-0.8c-1.6,0-2.8,0-2.8,0c0,0,0,0,0,0c0,0,0,0,0,0c-0.3,0-0.6,0-0.9,0
		c-0.3,0-0.7,0-1.1,0c-0.2,0-0.4,0-0.6,0c-0.3,0-0.7,0-1,0c-0.5,0-1,0-1.6,0c0,0-0.1,0-0.1,0c-1.5,0-2.9,0-4.2,0h1.2h2h1.1h0.6h0.3
		h1.1v-10.1h0.6l0,0c0,0,0,0,0,0c0.2,0,0.3,0,0.4-0.1c0.1,0,0.1,0,0.2-0.1c0.4-0.2,0.8-0.7,0.8-1.2v-2.7c0-0.3-0.1-0.6-0.3-0.8
		c-0.2-0.4-0.7-0.6-1.1-0.6h-0.8h-8.6h-0.8h-40.1v0v0.6v0v4.2v0.6v0h4.8v0.5c0,0,3.5,0.1,5.2,4.1c0,0,0,0,0,0c0.6,1.4,1,3.2,1,5.5
		v27.1h-3.1c0-0.2,0-0.4-0.1-0.5c0,0,0,0,0,0c-0.1-0.5-0.2-0.9-0.4-1.2c0,0,0-0.1,0-0.1c0-0.1-0.1-0.1-0.1-0.2
		c0-0.1-0.1-0.1-0.1-0.2c0,0-0.1-0.1-0.1-0.1c0-0.1-0.1-0.1-0.1-0.1c0,0-0.1,0-0.1-0.1c-0.1,0-0.2-0.1-0.2-0.1c-0.1,0-0.2,0-0.3,0.1
		c0,0,0,0,0,0c-0.1,0.1-0.1,0.1-0.2,0.2c0,0,0,0,0,0c-0.2,0.2-0.3,0.5-0.4,0.9c0,0,0,0,0,0c-0.1-0.4-0.3-0.7-0.4-0.9c0,0,0,0,0,0
		c-0.1-0.1-0.1-0.2-0.2-0.2c0,0,0,0,0,0c-0.1-0.1-0.2-0.1-0.3-0.1c0,0,0,0,0,0l0,0l0,0c0,0,0,0,0,0c-0.1,0-0.2,0-0.2,0.1
		c0,0-0.1,0-0.1,0.1c0,0-0.1,0.1-0.1,0.1c0,0-0.1,0.1-0.1,0.1c0,0-0.1,0.1-0.1,0.2c0,0.1-0.1,0.1-0.1,0.2c0,0,0,0.1,0,0.1
		c-0.1,0.3-0.3,0.8-0.4,1.2c0,0,0,0,0,0c0,0.2-0.1,0.4-0.1,0.5h-1.9v-1.2l0,0v-25h1.7h0.8c0.5,0,0.9-0.2,1.1-0.6
		c0.1-0.2,0.2-0.5,0.2-0.8v0v-2.7l0,0c0-0.7-0.5-1.2-1.1-1.3c-0.1,0-0.2,0-0.3,0h-0.8h-8.6h0h-0.8l0,0h-70l0,0v0.6v4.2v0.6v0l0,0
		l0,0h2.6v25v1.2h-4.1c0-0.2,0-0.4-0.1-0.5c0,0,0,0,0,0c-0.1-0.5-0.2-0.9-0.4-1.3c0,0,0-0.1,0-0.1c0-0.1-0.1-0.1-0.1-0.2
		c0-0.1-0.1-0.1-0.1-0.2c0,0-0.1-0.1-0.1-0.1c0-0.1-0.1-0.1-0.1-0.1c0,0-0.1,0-0.1-0.1c-0.1,0-0.2-0.1-0.2-0.1c0,0,0,0,0,0h0l0,0
		c0,0,0,0,0,0c-0.1,0-0.2,0-0.3,0.1c0,0,0,0,0,0c-0.1,0.1-0.1,0.1-0.2,0.2c0,0,0,0,0,0c-0.2,0.2-0.3,0.5-0.4,0.9c0,0,0,0,0,0
		c0,0,0,0,0,0c-0.1-0.4-0.3-0.7-0.4-0.9c0,0,0,0,0,0c-0.1-0.1-0.1-0.2-0.2-0.2c0,0,0,0,0,0c-0.1-0.1-0.2-0.1-0.3-0.1
		c-0.1,0-0.2,0-0.2,0.1c0,0-0.1,0-0.1,0.1c0,0-0.1,0.1-0.1,0.1c-0.1,0.1-0.2,0.2-0.3,0.4c0,0,0,0,0,0v-3.2v-30.5h2h0.9
		c0.9,0,1.7-0.7,1.7-1.7v-3.2v0c0-0.2,0-0.5-0.1-0.7c-0.1-0.2-0.2-0.4-0.4-0.5c-0.3-0.3-0.7-0.5-1.2-0.5h-0.9h-10.4h-0.9h-84.9
		c0,0,0,0,0,0h-0.9h-10.4h-0.9h-84.9c0,0,0,0,0,0h-0.9H738H737h-85.2v0.8v5.1v0.8v0h0l0,0h3.2v30.5l0,0v2.5h-1.7v0h0v1h0l0,0h0.7
		l-0.7,0v5.1h0l0,0h1.5l1.6-1.6l1.2-1.2c0.3,0.3,0.5,0.5,0.7,0.7c0.2,0.2,0.5,0.5,0.7,0.7c0,0,0,0,0,0c-0.1,0.1-0.2,0.2-0.2,0.3
		c0,0,0,0,0,0c0,0,0,0,0,0c-0.1,0.1-0.2,0.3-0.3,0.4c0,0,0,0,0,0c0,0,0,0,0,0c-0.1,0.1-0.2,0.2-0.2,0.3c-0.1,0.1-0.2,0.3-0.3,0.4
		c-0.1,0.1-0.1,0.2-0.2,0.3c0,0,0,0,0,0s0,0,0,0c-0.1,0.1-0.1,0.3-0.2,0.4c0,0,0,0,0,0c0,0,0,0,0,0c-0.1,0.1-0.1,0.2-0.2,0.3
		c-0.1,0.2-0.1,0.3-0.2,0.5c0,0,0,0,0,0c0,0,0,0,0,0c0,0.1-0.1,0.2-0.1,0.3c0,0,0,0,0,0c0,0,0,0,0,0c-0.1,0.2-0.1,0.4-0.1,0.5
		c0,0,0,0,0,0c0,0,0,0,0,0c0,0.1-0.1,0.2-0.1,0.3c0,0.2-0.1,0.5-0.1,0.7c0,0,0,0,0,0c0,0,0,0,0,0c0,0,0,0.1,0,0.1c0,0,0,0,0,0
		c0,0,0,0,0,0c0,0.3,0,0.6,0,0.9c0,0,0,0,0,0l0,0l0,0l0,0c0,0.4,0,0.9,0.1,1.3c0,0.1,0,0.2,0,0.3c0,0.1,0,0.2,0,0.3
		c0.1,0.3,0.1,0.6,0.2,0.9c0,0,0,0,0,0c0.1,0.2,0.2,0.5,0.2,0.7c0.1,0.2,0.2,0.4,0.3,0.6c0.1,0.2,0.2,0.5,0.4,0.7c0,0,0,0,0,0
		c0.3,0.4,0.6,0.9,0.9,1.3c0.2,0.2,0.3,0.4,0.5,0.5c0,0,0,0,0,0c0,0,0,0,0,0c0.1,0.1,0.3,0.3,0.4,0.4c0.2,0.1,0.3,0.3,0.5,0.4
		c0.1,0,0.1,0.1,0.2,0.1c0.3,0.2,0.6,0.4,0.9,0.6c0,0,0,0,0,0c0,0,0,0,0,0h-10.7h0h-86.6h-1c0,0,18.9,12.9,9.7,26.2l7.4,3l0.3-0.2
		c3.9-3.6,8.3-6.6,13.1-9c2.9-1.5,5.9-2.8,9.1-3.8c4.2,1.4,8.2,3.2,12,5.4c0.3,0.2,0.5,0.3,0.8,0.5c0.7,0.4,1.3,0.8,2,1.2
		c0.3,0.2,0.5,0.4,0.8,0.6c0.6,0.4,1.3,0.9,1.9,1.3c0.5,0.4,1.1,0.8,1.6,1.3c0.3,0.3,0.7,0.5,1,0.8c0.5,0.4,1,0.8,1.4,1.2
		c0.3,0.3,0.7,0.6,1,0.9c0.5,0.4,0.9,0.9,1.3,1.3c0.3,0.3,0.7,0.6,1,1c4.5,4.6,8.3,9.9,11.2,15.7c0.1,0.1,0.1,0.3,0.2,0.4
		c0.4,0.9,0.9,1.8,1.3,2.7c0,0.1,0.1,0.2,0.1,0.3v3.6l20.9,9.2v-12.9c3.1-7.2,7.5-13.7,12.8-19.1c0,0,0,0,0,0
		c0.7-0.8,1.5-1.5,2.3-2.2c0.1-0.1,0.1-0.1,0.2-0.2c0.7-0.7,1.5-1.3,2.3-2c0.1-0.1,0.2-0.2,0.3-0.2c0.7-0.6,1.5-1.2,2.3-1.8
		c0.2-0.1,0.4-0.3,0.6-0.4c0.7-0.5,1.4-1,2.1-1.4c0.3-0.2,0.6-0.3,0.8-0.5c0.6-0.4,1.3-0.8,1.9-1.2c0.4-0.2,0.8-0.5,1.3-0.7
		c0.5-0.3,1.1-0.6,1.6-0.9c0.6-0.3,1.3-0.6,1.9-0.9c0.3-0.2,0.7-0.3,1-0.5c0.9-0.4,1.8-0.8,2.7-1.1c0.1,0,0.2-0.1,0.4-0.1
		c1-0.4,2.1-0.8,3.1-1.1c4.2,1.4,8.2,3.2,12,5.4c0.2,0.1,0.4,0.2,0.5,0.3c1.7,1,3.3,2.1,4.9,3.3c0.2,0.2,0.5,0.4,0.7,0.6
		c0.6,0.5,1.2,0.9,1.8,1.4c0.3,0.2,0.5,0.5,0.8,0.7c0.6,0.5,1.1,1,1.7,1.5c0.1,0.1,0.2,0.2,0.2,0.2c0.7,0.7,1.4,1.4,2.1,2.1
		c0.5,0.5,0.9,0.9,1.3,1.4c0.3,0.3,0.6,0.6,0.9,1c0.6,0.6,1.1,1.3,1.6,1.9c0.2,0.2,0.3,0.4,0.5,0.6c0.5,0.6,0.9,1.2,1.3,1.8
		c0.2,0.3,0.4,0.6,0.7,0.9c0.3,0.5,0.7,1,1,1.5c0.3,0.4,0.6,0.8,0.8,1.3c0.3,0.5,0.6,0.9,0.8,1.4c0.3,0.5,0.6,0.9,0.9,1.4
		c0.2,0.4,0.5,0.9,0.7,1.3c0.3,0.6,0.6,1.1,0.9,1.7c0.2,0.4,0.3,0.7,0.5,1.1c0.3,0.6,0.6,1.3,0.9,1.9v48.4l20.9,10.7v-59
		c0.1-0.2,0.2-0.4,0.3-0.6c0.4-0.8,0.7-1.7,1.1-2.5c0.1-0.2,0.2-0.3,0.2-0.5c0.4-0.8,0.9-1.7,1.3-2.5c0.1-0.3,0.3-0.5,0.5-0.8
		c0.4-0.7,0.8-1.4,1.2-2.1c0.2-0.3,0.4-0.7,0.7-1c0.4-0.6,0.8-1.2,1.2-1.8c0.2-0.3,0.5-0.7,0.7-1c0.4-0.6,0.8-1.1,1.2-1.7
		c0.2-0.3,0.5-0.6,0.8-0.9c0.4-0.5,0.9-1.1,1.3-1.6c0.3-0.3,0.6-0.7,0.9-1c0.4-0.5,0.8-0.9,1.3-1.4c0.6-0.6,1.1-1.1,1.7-1.7
		c0.2-0.2,0.4-0.4,0.6-0.6c0.7-0.6,1.3-1.2,2-1.8c0.1-0.1,0.3-0.3,0.4-0.4c5.9-4.9,12.7-8.6,20-11c3.2,1,6.2,2.3,9.1,3.8
		c0.4,0.2,0.8,0.5,1.3,0.7c0.5,0.3,1.1,0.6,1.6,0.9c1.7,1,3.3,2,4.8,3.2c0.2,0.2,0.4,0.3,0.6,0.4c0.7,0.5,1.4,1.1,2.1,1.7
		c0.1,0.1,0.3,0.2,0.4,0.3c0.7,0.6,1.3,1.1,2,1.7c0.2,0.2,0.3,0.3,0.5,0.4c1.5,1.3,2.8,2.8,4.2,4.2c0.1,0.1,0.3,0.3,0.4,0.4
		c0.6,0.6,1.1,1.3,1.6,1.9c0.2,0.2,0.3,0.4,0.5,0.6c0.6,0.8,1.2,1.6,1.8,2.4c0.1,0.1,0.1,0.1,0.2,0.2c2.5,3.6,4.7,7.5,6.5,11.6v99.8
		l20.9,13.2v-113c0,0,0,0,0,0c4-9.3,10.1-17.3,17.6-23.5c0,0,0,0,0,0c0.8-0.7,1.7-1.4,2.6-2c0.1-0.1,0.2-0.1,0.2-0.2
		c0.8-0.6,1.6-1.2,2.4-1.7c0,0,0.1,0,0.1-0.1c0.9-0.6,1.8-1.1,2.7-1.7c0.2-0.1,0.4-0.2,0.6-0.3c0.8-0.4,1.5-0.9,2.3-1.3
		c0.8-0.4,1.6-0.8,2.4-1.1c0.2-0.1,0.4-0.2,0.6-0.3c2-0.9,4.1-1.7,6.2-2.4c4.2,1.4,8.2,3.2,12,5.4c0.6,0.4,1.2,0.8,1.8,1.1
		c0.3,0.2,0.6,0.4,1,0.6c0.6,0.4,1.2,0.8,1.8,1.3c0.3,0.2,0.6,0.4,0.9,0.6c0.7,0.5,1.4,1.1,2.1,1.7c0.1,0.1,0.3,0.2,0.4,0.3
		c0.7,0.6,1.3,1.1,2,1.7c0.2,0.2,0.3,0.3,0.5,0.4c6.4,5.8,11.5,13,15.1,21.2c0,0.1,0.1,0.2,0.1,0.3v77.5l20.9-13.1l0-0.2v-64.2
		c5.8-13.4,15.9-24.3,28.6-30.8c2.9-1.5,6-2.8,9.1-3.8c4.2,1.4,8.2,3.2,12,5.4c0.5,0.3,1,0.6,1.5,0.9c0.4,0.3,0.8,0.5,1.3,0.8
		c0.4,0.3,0.9,0.6,1.3,0.9c0.5,0.3,0.9,0.6,1.4,1c0.7,0.5,1.4,1.1,2.1,1.7c0.1,0.1,0.3,0.2,0.4,0.3c0.5,0.4,1,0.8,1.4,1.2
		c0.3,0.3,0.7,0.6,1,0.9c0.5,0.4,0.9,0.9,1.3,1.3c0.3,0.3,0.7,0.6,1,1c0.6,0.6,1.1,1.2,1.7,1.8c0.2,0.2,0.4,0.4,0.6,0.6
		c1.4,1.6,2.7,3.3,4,5c0,0.1,0.1,0.1,0.1,0.2c0.5,0.7,1,1.4,1.5,2.2c0.1,0.2,0.3,0.4,0.4,0.6c0.5,0.7,0.9,1.5,1.3,2.2
		c0.1,0.2,0.3,0.4,0.4,0.6c0.4,0.6,0.7,1.3,1,1.9c0.2,0.3,0.4,0.7,0.5,1c0.3,0.6,0.6,1.3,0.9,1.9c0.2,0.4,0.4,0.8,0.5,1.1v22.9
		l20.9-10v-12.9c0.9-2.1,1.9-4.1,3-6c0,0,0,0,0,0c1.1-1.9,2.3-3.8,3.5-5.6c0,0,0.1-0.1,0.1-0.1c0.6-0.9,1.2-1.7,1.9-2.5
		c0,0,0.1-0.1,0.1-0.1c0.7-0.8,1.3-1.6,2-2.4c0.1-0.1,0.2-0.3,0.4-0.4c0.6-0.7,1.2-1.4,1.9-2c0.2-0.2,0.3-0.3,0.5-0.5
		c0.6-0.6,1.2-1.2,1.9-1.8c0.3-0.2,0.5-0.5,0.8-0.7c0.6-0.5,1.1-1,1.7-1.5c0.3-0.3,0.7-0.6,1.1-0.8c0.5-0.4,1-0.8,1.5-1.2
		c0.4-0.3,0.9-0.6,1.3-0.9c0.5-0.3,0.9-0.7,1.4-1c0.6-0.4,1.1-0.7,1.7-1.1c0.4-0.2,0.7-0.4,1.1-0.7c0.8-0.5,1.7-1,2.5-1.4
		c0.1-0.1,0.2-0.1,0.3-0.2c2.9-1.5,6-2.8,9.1-3.8c7.4,2.4,14.2,6.1,20,11c0.1,0,0.1,0.1,0.2,0.1c0.8,0.7,1.6,1.3,2.3,2
		c0.1,0.1,0.2,0.2,0.2,0.2c0.7,0.7,1.4,1.4,2.1,2.1c0.2,0.2,0.4,0.4,0.6,0.6c0.6,0.6,1.1,1.2,1.6,1.8c0.1,0.2,0.3,0.3,0.4,0.5
		c0.6,0.7,0.3,1.7,1.1,1.3C1149.6,592.2,1228.2,573.8,1228.2,573.8z"/>
</g>
<g id="guerra_mundial">
	<path class="st698" d="M1919.9,734.9c-6.3,7.8-11.2,16.8-17.9,24.2c0-8.5-5.6-14.5-13.6-16.8c-16.9-5-33.3,1.6-46.6,11
		c-0.8-0.3-1.7-2.6-2.6-3.9c-1.4-2-4.5-3.8-7.3-5.2c-2.8-2.5-6.7-4.5-11.7-5.9c-10.5-2.8-20.4-3.6-29.8-2.7
		c-1.9-7.5-6.7-13.5-15.3-16.7c-4.6-1.7-9.1-2.8-13.4-3.4l-0.6-6.4h0l-9.1-2.8h-80.9l-49.1,4.6h-19.6v-4.3h8.6l0-0.9h0.2v0.9
		l56.3-4.9l17.1-6.5l2.1-18.8h4.5c0.5,0,0.9-0.4,0.9-0.8c0-0.5-0.4-0.8-0.9-0.8h-4.3l1.5-13.1h0v-0.3l0.1-1.2h2.2l-1.5-3.7h-77v3.7
		h0.7v1.5v3.9h-1.8l0-9.2l-7.8-2.1v-1.7v-1.2c0-1.1-0.9-2-2-2h-0.3V647h2.2v-8.1c0-0.2,0-0.4,0-0.5c0,0,0,0,0,0
		c-0.2-1.5-1.2-2.6-2.5-2.6H1588c0-0.2,0-0.3,0-0.5v-3.9c0-1.7-1-3-2.2-3h-5.8v-6.6l-10.3-9.1h-8.3v15.7h-7.4c-1.2,0-2.2,1.4-2.2,3
		v3.9c0,0.2,0,0.3,0,0.5h-12.5c-1.2,0-2.2,1-2.5,2.4h0c0,0,0,0,0,0.1c0,0.2-0.1,0.5-0.1,0.7v3.6h-50.3c-0.5,0-0.9,0.4-0.9,0.9
		c0,0.5,0.4,0.9,0.9,0.9h0l-1.8,3.1l-2.5-4c-0.2-0.3-0.5-0.5-0.8-0.5h-20.6c-0.5,0-1,0.4-1,1v0.5v10c-0.5,0-1,0-1.5,0l-35.6,12.1
		l-1.7-2.7c-0.2-0.3-0.4-0.4-0.8-0.4l-18.5,0.1c-0.5,0-0.9,0.4-0.9,0.9l0,3.2l-7.6,0c-0.5,0-0.9,0.4-0.9,0.9l0,0.5c0,0,0,0,0,0
		l0,7.9l-12,4.1l-12.6,0l-0.2,0v0h-0.8c-0.1,0-0.3,0.1-0.6,0.2c-1.3,0.7-3.9,2.8-3.9,3.4l-37.1,0l0-0.7c0-0.3-0.1-0.5-0.3-0.7
		c-0.2-0.2-0.4-0.3-0.7-0.3l-0.8,0c0,0,0,0,0,0l-3.3,0l0-0.1l-0.5,0l0,0.1l-3.4,0l0-0.2l-0.5,0l0,0.2l-55.7,0.1l0,0l-0.5,0l0,0
		l-0.7,0c-0.1,0-0.1,0-0.2,0l-1,0c-0.5,0-1,0.4-1,1l0,0.6l-124.5,0l-0.9,1.2l-22.2,0l0,0.1l-0.9,0.6l0,7.4l0.9,0.6l22.2,0.2l0.8,1.7
		l124.4,1.3l0,0.7c0,0.3,0.1,0.5,0.3,0.7c0.2,0.2,0.4,0.3,0.7,0.3l1.9,0l0,0.1l0.5,0l0-0.1l64.3,0.6c0.5,0,1-0.4,1-1l0-0.6l37,0.4
		l0,0.1c0,0.8,3.7,5.1,4.5,5.1l0.8,0l0.5,0v0l31.8,0.3l5.6,2.7v4.3l-67.9,6.1l-48.1,4l-12.8,12.8l3.7,1.6l0,0l13.9,6.1
		c-0.6,1.2-1,2.4-1.3,3.5c-2.1,8.1,1.7,16.1,9.5,20.4l81.6,44.4l292,0.1l0.7-0.3h243.8L1919.9,734.9z"/>
</g>
<path id="internet" class="st0" d="M904.3,797.9h22.9c3,0,5.4-2.4,5.4-5.4c0-0.3,0-0.6-0.1-1c0-0.1,0-0.2-0.1-0.3c-0.1-0.3-0.1-0.5-0.2-0.8
	c0-0.1-0.1-0.1-0.1-0.2c-0.1-0.2-0.1-0.3-0.2-0.5c0,0,0,0,0,0c-0.9-1.6-2.6-2.7-4.6-2.7h-80.9c0.2-0.2,1.4-1.4,1.3-3.4l5.8-59.7
	c0.3-3.3-2.1-6.2-5.3-6.2h-1.4h-85.1h-1.4c-2.7,0-5,2.1-5.3,4.8l-4.2,40.8l-19.9-0.5c0,0-15.2-39.7-19.1-46.9
	c-1.7-3.2-4.3-6.2-7.5-8.1c-3.9-3-8-5.3-12.3-7.1c0,0,0,0,0,0l-0.5-5.9l0,0c0.3-2.5,0.6-4.9,0.6-4.9l-0.1-0.1
	c5.8-0.4,10-2.9,12.3-7.5c2.6-5.2,0.6-8.1,2.8-19.8c1.1-0.4,2.1-1.1,2.8-2.1c4-5.6-0.9-11.7-0.9-11.7c-0.5-16.4-33.6-20.2-43.1-0.1
	c-11.5,24.6,2.6,32.4,2.6,32.4l0,0l-0.8,8.7l0,0l-1.9,5.2c0.2,0.1,0.4,0.2,0.6,0.2c-8.6,0.3-16.6,4.3-21.9,10.8h-32.2
	c-3.4,0-6.2,2.8-6.2,6.1V724c0,0.5,0.1,0.9,0.2,1.4c0.3,1.4,1.1,2.6,2.1,3.4c-2.8,0.3-5.1,0.6-6.5,0.8c-5.8,0.8-7.3,5.2-7.5,8.9v0
	l0,1.2c0,2.2,0.5,3.9,0.5,3.9l3.2,43.7h-32.4c-2,0-3.7,1.1-4.6,2.7c0,0,0,0,0,0c-0.1,0.1-0.2,0.3-0.2,0.5c0,0.1-0.1,0.1-0.1,0.2
	c-0.1,0.3-0.2,0.5-0.2,0.8c0,0.1,0,0.2-0.1,0.3c-0.1,0.3-0.1,0.6-0.1,1c0,3,2.4,5.4,5.4,5.4l24,0v4.3c0,3,2.4,5.5,5.5,5.5h4.5
	l0.6,8.3l-16.6,136.4c-27.6,2.5-44.1,5.6-44.1,9c0,8,91.7,14.5,204.8,14.5c77.9,0,145.6-3.1,180.3-7.6c18.8,4.5,58.4,7.6,104.3,7.6
	c64,0,115.9-6.1,115.9-13.5c0-3.7-12.4-7-32.6-9.4l-9.6-68.8c14.8-10.9,23.7-28.1,23.7-54.4c0-1.2,0-2.3-0.1-3.5c0-0.2,0-0.3,0-0.5
	c0-1.1-0.1-2.1-0.1-3.2c0-0.1,0-0.2,0-0.2c0,0,0,0,0,0c-2.9-47.6-32.4-106.7-71.7-125.1c-0.8-11.3-4.1-22.3-23.1-22.3
	c-22.1,0-20.6,14.2-20.6,14.2c0.1,0.1,0.2,0.3,0.3,0.4c-0.8,1.9-1.4,3.9-1.6,6c-43.4,16.9-76,84-76,134.2c0,19.4,4.8,33.8,13.3,44.4
	c0.1,0.1,0.1,0.1,0.2,0.2c1.1,1.3,2.2,2.6,3.3,3.8c0,0,0,0,0,0c0.6,0.6,1.1,1.1,1.7,1.7c0.1,0.1,0.1,0.1,0.2,0.2
	c1.2,1.1,2.5,2.2,3.8,3.2c0.1,0,0.1,0.1,0.2,0.1c0.5,0.4,1.1,0.8,1.6,1.2l-9.5,68.2c-6.8,0.8-12.9,1.7-17.9,2.6
	c-7.1-1.1-16.2-2.1-26.7-3l-17.6-144.5h7.5c3,0,5.5-2.4,5.5-5.5v-4.3L904.3,797.9z"/>
<g id="muro">
	<path class="st0" d="M1920.1,586.4h-32.2h-4.8l0,0l-182,43v-4.7h-108.8v228.7c-2.9-2-6.3-3.2-9.7-3.3c-1.1,0-2,0.1-3-0.2
		c-1.1-0.4-2-0.7-3.1-0.9c-0.8-0.2-1.6-0.3-2.4-0.4c-4.7-0.6-9.8,0.1-13.8,2.7c-4,2.6-6.6,7.6-5.7,12.3c0.1,0,0.2,0,0.3,0
		c-0.6,5.8-3.1,18.2,0.7,24.5c-1,2.1-2,4.2-2.9,6.4c-1.6,3.9-2.6,8.4-2.2,12.5c-3.8,1-6.6,4-7.7,7.6c-8,8-14.1,17.8-21.4,26.6
		c-12.2-5.9-25.6-9.7-39.1-11.2l0.2-0.6l-6.7-1.9l-0.3,1.4c-2.2-1.8-4.9-3.3-7.1-3.9c-0.8-0.2-1.6-0.3-2.3-0.4l4.9-25.2
		c6.1,4,12.7,7.6,19.9,8.3c10.1,1,20.1-3.7,30.1-2.6c3.4,0.4,7,1.7,8.8,4.6l2.2-11.1l2.4-12.3l2.1-10.8c-1.8-2.9-5.4-4.2-8.8-4.6
		c-10.1-1.1-20.1,3.6-30.1,2.6c-7.3-0.7-13.9-4.3-20-8.4l0.1-0.4c1.5-0.5,2.5-1.8,2.6-3.5c0-2.1-1.6-3.7-3.7-3.8s-3.7,1.6-3.8,3.7
		c0,1.1,0.5,2.2,1.3,2.9l-11.6,59.8c-0.6-0.2-1.2-0.4-1.8-0.5c-0.7-0.1-1.5,0.2-1.9,0.7c-0.4,0.6-0.6,1.7-0.1,2.2c0,0,0,0,0,0
		c0,0,0,0,0,0c0,0,0,0,0,0c-0.9-0.1-1.3,0.3-1.8,1.1s-0.5,2.1,0.3,2.7c-0.8,0.4-1.3,1.3-1.3,2.1c0,0.9,0.4,1.7,1.1,2.2c0,0,0,0,0,0
		c0,0-0.1,0-0.1,0c0,0,0.1,0,0.1,0c-0.9,0.2-1.5,1.2-1.5,2.1c0,0.9,0.6,1.8,1.4,2.4c0.7,0.6,1.6,0.9,2.5,1.2l-1.4,7.1l3.6,0.7
		l1.3-6.8c0.5,0.1,1,0.2,1.5,0.3c0.1,0.2,0.4,0.2,0.7,0.1c2.4,0.4,4.9,0.7,7.4,0.8l-0.3,1.2l4.2,3.8l0.2-0.5
		c29.2,23.1,48.8,26.9,72.1,5.5l0.3,1.8c0.1,0,1.2,8.6,1.2,9.3c0.1,3.7-0.4,7.4-1.2,11c-0.3,1.4-0.7,2.7-0.8,4.1
		c-0.1,1.4,0.2,2.9,1.1,4c1.1,1.2,2.8,1.7,4.5,1.7c0.2,0,0.3,0,0.5,0c-17.3,42.2-17,52.1-28.6,95.9l394.4,0L1920.1,586.4z"/>
	<path class="st0" d="M0.1,1013.3c14.9,2,42.9,3.3,75.1,3.3c43.6,0,79.7-2.4,85.5-5.6h17.6c0,0-8-9-16.3-12l2.3,0
		c0,0,0.6-7.1,0.7-10.2l31.1,2.3l-5.4,8l0.4,0.1l2.4,13.9l54.5,14.4l29.9-17.5l0.1-0.8l27.3,7.5c1.4,0.4,2.9-0.5,3.3-1.9
		s-0.5-2.9-1.9-3.3l-28-7.2l1.9-12.9l-1.4-16.1l-0.1,0l0-0.2l-13.8-0.7v-51.4l-17.3-12.4v-23.5c0-1.1-0.9-2.1-2.1-2.1
		c-1.1,0-2.1,0.9-2.1,2.1v20.6l-11.2-8h-0.1v-27.6h0.1l11.8-10v-12.6l15.5-0.2c1-0.1,1.7-0.9,1.7-1.8c0-1-0.9-1.9-1.9-1.8l-15.3,0.2
		V833l-11.8-13.1h-0.1V649.5l13-0.8c1-0.1,1.7-0.9,1.7-1.8c0-1-0.9-1.9-1.9-1.8l-12.8,0.8v-13.1v-4.8v0h6.2v-12.3v-20.3l-14.6-16.9
		H202h-3.3L0,625.4v30.8v6.4v301.4v12.3l30.1,2.3c-1.1,2.6-2.1,5.3-3.1,8l-2.2-0.3l-2.7,12.3l1,0c-0.6,1.9-1.2,4.2-1.7,6.3
		c-8.7,0.5-16,1.2-21.5,1.9L0.1,1013.3z"/>
</g>
<g id="cohete">
	<polygon class="st0" points="401.2,235.5 388.4,235.5 309.1,235.5 309.1,313.2 309.1,314.8 309.1,390.9 309.1,392.5 309.1,468.6 
		309.1,470.2 309.1,547.9 316.5,547.9 317.2,547.9 324.6,547.9 326.8,547.9 363.6,547.9 368.1,547.9 388.4,547.9 388.4,530.4 
		401.2,530.4 401.2,547.9 402.8,547.9 402.8,530.4 402.8,528.8 402.8,509.5 402.8,507.9 402.8,488.5 402.8,486.9 402.8,467.6 
		402.8,466 402.8,446.6 402.8,445 402.8,425.7 402.8,424.1 402.8,404.7 402.8,403.1 402.8,383.8 402.8,382.2 402.8,362.8 
		402.8,361.2 402.8,341.9 402.8,340.3 402.8,320.9 402.8,319.3 402.8,300 402.8,298.4 402.8,279 402.8,277.4 402.8,258.1 
		402.8,256.4 402.8,237.1 402.8,235.5 	"/>
	<path class="st0" d="M301.9,460.2l-3.4-32.3c0,0,0,0,0,0c-0.2-0.3-0.4-0.6-0.6-0.9c0,0-0.1-0.1-0.1-0.1c-0.1-0.1-0.1-0.2-0.2-0.3
		c-0.1-0.1-0.1-0.2-0.2-0.3c-0.1-0.2-0.2-0.3-0.4-0.5c0,0,0,0,0,0c0,0,0,0,0-0.1c-0.2-0.2-0.4-0.5-0.5-0.7c0,0,0-0.1-0.1-0.1
		c0-0.1-0.1-0.1-0.1-0.2c0,0,0,0,0,0c-0.1-0.1-0.1-0.2-0.2-0.2c0-0.1-0.1-0.1-0.1-0.2c0,0-0.1-0.1-0.1-0.1c-0.2-0.2-0.3-0.4-0.5-0.6
		c-0.1-0.1-0.2-0.3-0.3-0.4c0,0-0.1-0.1-0.1-0.1c-0.2-0.3-0.5-0.6-0.7-0.9c-0.1-0.1-0.2-0.3-0.3-0.4c-0.2-0.2-0.4-0.5-0.6-0.7
		c-0.2-0.2-0.4-0.4-0.5-0.7c0,0,0,0-0.1-0.1c-0.2-0.2-0.4-0.5-0.6-0.8c-0.2-0.2-0.3-0.4-0.5-0.6c0,0-0.1-0.1-0.1-0.1
		c-0.2-0.2-0.4-0.5-0.6-0.7c0,0,0,0-0.1-0.1c-0.1-0.1-0.1-0.1-0.2-0.2c-0.1-0.1-0.2-0.2-0.3-0.3c-0.1-0.1-0.1-0.1-0.2-0.2
		c-0.2-0.2-0.3-0.4-0.5-0.6c-0.1-0.1-0.2-0.2-0.3-0.3c-0.1-0.1-0.2-0.3-0.3-0.4c0,0-0.1-0.1-0.1-0.1c0-0.1-0.1-0.1-0.1-0.2
		c-0.1-0.1-0.2-0.3-0.3-0.4c-0.1-0.1-0.2-0.3-0.3-0.4c-0.1-0.1-0.2-0.2-0.3-0.4c0,0-0.1-0.1-0.1-0.1c-0.1-0.1-0.2-0.2-0.3-0.4
		c0,0,0,0,0,0c-0.2-0.3-0.5-0.5-0.7-0.8c0,0,0,0,0,0c0,0,0,0-0.1-0.1c-0.2-0.2-0.4-0.5-0.6-0.7c0,0,0,0,0,0c0,0,0,0,0,0
		c-0.2-0.2-0.4-0.5-0.6-0.7c-0.3-0.3-0.5-0.6-0.8-0.9c0,0-0.1-0.1-0.1-0.1c0,0-0.1-0.1-0.1-0.1c0,0-0.1-0.1-0.1-0.1
		c-0.1-0.1-0.2-0.2-0.2-0.3c-0.2-0.2-0.4-0.4-0.6-0.7v-18.1v-2.8v-29.5v-2.8v-29.5v-2.8v-29.5v-2.8v-11.4v-4.1v-5H283
		c0-0.7,0-1.3-0.1-2c0-0.1,0-0.1,0-0.2h0c-0.4-6.1-2.6-12.3-4.8-17.3c-2.6-5.8-5.4-9.9-5.4-9.9h0h0h-3.1h0c0,0-9.3,13.8-10.2,27.2h0
		c0,0.1,0,0.1,0,0.2c0,0.7-0.1,1.3-0.1,2h-0.6v0v5h0v4.1h0v7.5h0v0.8h0v3.1v2.8v11.8h-1.9v-2.2v-50.3v-2.5c0-0.8,0-1.6,0-2.4
		c0,0,0-0.1,0-0.1c-0.7-20.3-9.2-36.5-17.8-47.8c-0.6-0.8-1.3-1.6-1.9-2.4c-0.4-0.4-0.7-0.9-1.1-1.3h0c-8-9.5-15.2-14.7-15.2-14.7
		c0,0,0,0,0,0c0,0,0,0,0,0c0,0,0,0,0,0c0,0-0.1,0.1-0.2,0.1c-1.2,0.9-7.8,5.9-15,14.5h0c-0.4,0.4-0.7,0.9-1.1,1.3l-0.6,0.7
		c-0.2,0.2-0.4,0.5-0.6,0.7c-0.3,0.4-0.6,0.7-0.9,1.1c-0.3,0.4-0.6,0.8-0.9,1.2c-0.3,0.4-0.6,0.8-0.8,1.1c-0.3,0.4-0.6,0.8-0.9,1.3
		c-0.3,0.4-0.5,0.8-0.8,1.2c-0.3,0.4-0.6,0.9-0.9,1.4c-0.3,0.4-0.5,0.8-0.8,1.2c-0.3,0.5-0.6,1-0.9,1.5c-0.2,0.4-0.5,0.8-0.7,1.3
		c-0.3,0.5-0.6,1-0.9,1.5c-0.2,0.4-0.5,0.9-0.7,1.3c-0.3,0.5-0.5,1.1-0.8,1.6c-0.2,0.4-0.5,0.9-0.7,1.3c-0.3,0.6-0.5,1.1-0.8,1.7
		c-0.2,0.5-0.4,0.9-0.6,1.4c-0.3,0.6-0.5,1.2-0.7,1.8c-0.2,0.5-0.4,0.9-0.6,1.4c-0.2,0.6-0.5,1.2-0.7,1.9c-0.2,0.5-0.4,1-0.5,1.5
		c-0.2,0.6-0.4,1.3-0.6,1.9c-0.2,0.5-0.3,1-0.5,1.5c-0.2,0.7-0.4,1.4-0.5,2c-0.1,0.5-0.3,1-0.4,1.5c-0.2,0.7-0.3,1.4-0.5,2.2
		c-0.1,0.5-0.2,1-0.3,1.5c-0.1,0.8-0.3,1.5-0.4,2.3c-0.1,0.5-0.2,1-0.2,1.4c-0.1,0.9-0.2,1.8-0.3,2.7c0,0.4-0.1,0.8-0.1,1.2
		c-0.1,1.3-0.2,2.6-0.2,4c0,0.8,0,1.7,0,2.5h0v0v0.8v51.9v0.8v1.4h-2v-25.9v-4.1v-5h-0.6c0-0.7,0-1.3-0.1-2c0-0.1,0-0.1,0-0.2
		c0-0.1,0-0.1,0-0.2c0-0.3,0-0.5-0.1-0.8c0-0.2,0-0.4-0.1-0.5c0-0.3-0.1-0.5-0.1-0.8c0-0.2,0-0.4-0.1-0.5c0-0.2-0.1-0.5-0.1-0.7
		c0-0.2-0.1-0.4-0.1-0.5c0-0.2-0.1-0.5-0.1-0.7c0-0.2-0.1-0.4-0.1-0.5c-0.1-0.2-0.1-0.5-0.2-0.7c0-0.2-0.1-0.4-0.1-0.5
		c-0.1-0.2-0.1-0.5-0.2-0.7c0-0.2-0.1-0.4-0.1-0.5c-0.1-0.2-0.1-0.5-0.2-0.7c-0.1-0.2-0.1-0.4-0.2-0.5c-0.1-0.2-0.1-0.5-0.2-0.7
		c-0.1-0.2-0.1-0.3-0.2-0.5c-0.1-0.2-0.2-0.5-0.2-0.7c-0.1-0.2-0.1-0.3-0.2-0.5c-0.1-0.2-0.2-0.5-0.3-0.7c-0.1-0.1-0.1-0.3-0.2-0.4
		c-0.1-0.3-0.2-0.5-0.3-0.8c0-0.1-0.1-0.2-0.1-0.3c-0.4-1-0.8-1.9-1.2-2.9c0,0,0-0.1-0.1-0.1c-0.1-0.3-0.2-0.5-0.3-0.7
		c0-0.1-0.1-0.2-0.1-0.3c-0.1-0.2-0.2-0.5-0.3-0.7c-0.1-0.1-0.1-0.2-0.2-0.3c-0.1-0.2-0.2-0.4-0.3-0.6c-0.1-0.1-0.1-0.2-0.2-0.3
		c-0.1-0.2-0.2-0.4-0.3-0.6c-0.1-0.1-0.1-0.2-0.2-0.3c-0.1-0.2-0.2-0.4-0.3-0.6c0-0.1-0.1-0.2-0.1-0.3c-0.1-0.2-0.2-0.4-0.3-0.6
		c0-0.1-0.1-0.2-0.1-0.3c-0.1-0.2-0.2-0.4-0.3-0.5c0-0.1-0.1-0.2-0.1-0.2c-0.1-0.2-0.2-0.3-0.3-0.5c0-0.1-0.1-0.1-0.1-0.2
		c-0.1-0.2-0.2-0.3-0.3-0.5c0,0-0.1-0.1-0.1-0.1c-0.1-0.2-0.2-0.3-0.3-0.5c0,0,0-0.1-0.1-0.1c-0.1-0.2-0.2-0.3-0.3-0.5c0,0,0,0,0,0
		c-0.7-1.2-1.1-1.8-1.1-1.8h-3.1c0,0-0.1,0.1-0.2,0.3c0,0,0,0,0,0.1c0,0-0.1,0.1-0.1,0.1c0,0-0.1,0.1-0.1,0.1c0,0.1-0.1,0.1-0.1,0.2
		c0,0.1-0.1,0.1-0.1,0.2c0,0.1-0.1,0.1-0.1,0.2c-0.1,0.1-0.1,0.2-0.2,0.3c0,0.1-0.1,0.1-0.1,0.2c-0.1,0.1-0.1,0.2-0.2,0.3
		c0,0.1-0.1,0.2-0.1,0.3c-0.1,0.1-0.1,0.2-0.2,0.3c-0.1,0.1-0.1,0.2-0.2,0.3c-0.1,0.1-0.1,0.2-0.2,0.4c-0.1,0.1-0.1,0.2-0.2,0.3
		c-0.1,0.1-0.1,0.3-0.2,0.4c-0.1,0.1-0.1,0.2-0.2,0.3c-0.1,0.1-0.2,0.3-0.2,0.4c-0.1,0.1-0.1,0.2-0.2,0.3c-0.1,0.2-0.2,0.3-0.3,0.5
		c-0.1,0.1-0.1,0.2-0.2,0.3c-0.1,0.2-0.2,0.3-0.3,0.5c-0.1,0.1-0.1,0.2-0.2,0.4c-0.1,0.2-0.2,0.4-0.3,0.6c-0.1,0.1-0.1,0.2-0.2,0.4
		c-0.1,0.2-0.2,0.4-0.3,0.6c-0.1,0.1-0.1,0.2-0.2,0.4c-0.1,0.2-0.2,0.4-0.3,0.7c-0.1,0.1-0.1,0.2-0.2,0.3c-0.1,0.3-0.2,0.5-0.4,0.8
		c0,0.1-0.1,0.2-0.1,0.3c-0.1,0.3-0.3,0.7-0.4,1c0,0,0,0,0,0c-0.2,0.4-0.3,0.7-0.5,1.1c0,0,0,0.1-0.1,0.1c-0.1,0.3-0.3,0.7-0.4,1
		c0,0.1-0.1,0.3-0.1,0.4c-0.1,0.3-0.2,0.5-0.3,0.8c-0.1,0.2-0.1,0.3-0.2,0.5c-0.1,0.2-0.2,0.5-0.3,0.7c-0.1,0.2-0.1,0.3-0.2,0.5
		c-0.1,0.2-0.2,0.5-0.2,0.7c-0.1,0.2-0.1,0.4-0.2,0.5c-0.1,0.2-0.1,0.5-0.2,0.7c-0.1,0.2-0.1,0.4-0.2,0.6c-0.1,0.2-0.1,0.5-0.2,0.7
		c-0.1,0.2-0.1,0.4-0.1,0.6c-0.1,0.2-0.1,0.4-0.2,0.7c0,0.2-0.1,0.4-0.1,0.6c0,0.2-0.1,0.4-0.1,0.7c0,0.2-0.1,0.4-0.1,0.6
		c0,0.2-0.1,0.4-0.1,0.6c0,0.2-0.1,0.4-0.1,0.6c0,0.2-0.1,0.4-0.1,0.6c0,0.2-0.1,0.4-0.1,0.7c0,0.2,0,0.4-0.1,0.6
		c0,0.2,0,0.4-0.1,0.7c0,0.1,0,0.1,0,0.2c0,0.1,0,0.1,0,0.2c0,0.7-0.1,1.3-0.1,2c0,0,0,0,0,0h-0.6v0h0v5h0v4.1h0v7.5h0v0.8h0v3.1
		v2.8v25.7h0v0.8h0v3.1v2.8v25.7h0v0.8h0v3.1v2.8v25.7h0v0.8h0v3.1v2.8v18.2c-3.8,4.5-7.5,8.9-10.5,12.6c0,0,0,0,0,0
		c-0.8,1-1.6,2-2.3,2.9c-0.1,0.1-0.2,0.2-0.2,0.3c-0.2,0.2-0.3,0.5-0.5,0.7c-0.1,0.1-0.2,0.2-0.3,0.4c-0.2,0.2-0.3,0.4-0.4,0.6
		c-0.1,0.1-0.2,0.3-0.3,0.4c-0.1,0.1-0.2,0.3-0.3,0.4l-3.4,32.3l-0.3,3h0v3.9l18.5,4.4v20.8h0v0.8h0v3.1v2.8v20.1h0
		c-0.2,0-0.5,0.1-0.6,0.3c-0.2,0.2-0.3,0.4-0.3,0.6c0,0.4,0.3,0.8,0.7,0.9c-0.3,1-0.7,2.8-1.2,4.9c0,0,0,0,0,0
		c-0.1,0.3-0.1,0.6-0.2,1c0,0.1,0,0.1,0,0.2c-0.1,0.3-0.1,0.6-0.2,0.9c0,0.1,0,0.2-0.1,0.3c-0.1,0.3-0.1,0.5-0.2,0.8
		c0,0.1,0,0.2-0.1,0.3c0,0.2-0.1,0.5-0.1,0.7c0,0.1-0.1,0.3-0.1,0.4c0,0.2-0.1,0.4-0.1,0.6c0,0.2-0.1,0.3-0.1,0.5
		c0,0.2-0.1,0.3-0.1,0.5c0,0.2-0.1,0.3-0.1,0.5c0,0.1,0,0.2,0,0.3c0,0.1,0,0.1,0,0.2c0,0.1,0,0.2,0,0.3c0,0.2,0,0.3-0.1,0.5
		c0,0.1,0,0.2,0,0.3c0,0.2,0,0.3,0,0.5c0,0.1,0,0.2,0,0.2c0,0.2,0,0.4,0,0.6h1.8l-1,4.7h29.1l-1-4.7h1.9c0-0.7-0.1-1.6-0.2-2.7
		c-0.5-3.8-1.9-9.2-2.4-11.5c0-0.1,0-0.2-0.1-0.2c0.2,0,0.3-0.1,0.4-0.2c0.2-0.2,0.3-0.4,0.3-0.6c0-0.5-0.4-0.9-0.9-0.9h-0.1v0h0.1
		l-0.1-36.4v-5.2l6.4,1.5l3.4,0.8c-1.1,4.9-2,10.4-2.3,16.3c-0.1,1-0.1,2.1-0.1,3.1c0,0.1,0,0.3,0,0.4c0,0,0,0.1,0,0.1
		c0,0.4,0,0.8,0,1.2h3.5c-0.4,1-0.9,2.2-1.3,3.3l-1.3,0v4.7h27.6V505l-0.7,0c-0.3-1.3-1-2.9-1.5-4.2h2.7c0,0.1,0,0.2,0,0.2
		c0,0.3,0.1,0.5,0.1,0.8c0,0.2,0,0.3,0.1,0.5c0,0.2,0.1,0.4,0.1,0.6c0,0.2,0.1,0.3,0.1,0.4c0,0.2,0.1,0.4,0.1,0.5
		c0,0.1,0.1,0.3,0.1,0.4c0,0.1,0.1,0.3,0.1,0.4c0,0.1,0.1,0.2,0.1,0.4c0,0.1,0.1,0.2,0.1,0.3c0,0.1,0.1,0.2,0.1,0.3
		c0,0.1,0.1,0.2,0.1,0.2c0,0.1,0.1,0.1,0.1,0.2c0,0,0.1,0.1,0.1,0.1c0.1,0.1,0.2,0.1,0.2,0.1c0,0,0,0,0,0c0,0,0,0,0,0s0,0,0,0
		c0.1,0,0.2,0,0.3-0.1c0,0,0-0.1,0.1-0.1c0.1-0.1,0.1-0.1,0.2-0.2c0,0,0-0.1,0.1-0.2c0.1-0.1,0.1-0.2,0.2-0.3c0-0.1,0.1-0.2,0.1-0.2
		c0-0.1,0.1-0.3,0.1-0.4c0-0.1,0.1-0.2,0.1-0.3c0-0.2,0.1-0.3,0.1-0.5c0-0.1,0-0.2,0.1-0.4c0-0.2,0.1-0.4,0.1-0.6
		c0-0.1,0-0.3,0.1-0.4c0-0.2,0.1-0.5,0.1-0.7c0-0.2,0-0.3,0.1-0.5c0-0.1,0-0.3,0.1-0.4h2.7c-0.6,1.3-1.2,2.9-1.5,4.2l-0.7,0v3.8
		h27.6v-4.7l-1.3,0c-0.3-1.1-0.8-2.3-1.3-3.3h3.5c0-0.6,0-1.2,0-1.9c0-0.5,0-0.9,0-1.3c0-0.4,0-0.8,0-1.1c0-0.2,0-0.3,0-0.5l0,0
		c-0.3-5.9-1.1-11.4-2.3-16.2l9.7-2.3v0v14.9h0v0.8h0v3.1v2.8v20.1h0c-0.2,0-0.5,0.1-0.6,0.3c-0.2,0.2-0.3,0.4-0.3,0.6
		c0,0.4,0.3,0.8,0.7,0.8c-0.5,1.9-1.6,6.5-2.2,10.2c-0.3,1.7-0.5,3.2-0.5,4.2h1.8l-1,4.7h29.1l-1-4.7h1.9c0-0.3,0-0.5,0-0.9
		c0-0.1,0-0.2,0-0.3c0-0.2,0-0.5-0.1-0.8c0-0.1,0-0.1,0-0.1c0,0,0-0.1,0-0.1c0-0.2-0.1-0.4-0.1-0.6c0-0.1,0-0.2-0.1-0.3
		c0-0.2-0.1-0.4-0.1-0.7c0-0.1,0-0.2-0.1-0.3c0-0.2-0.1-0.5-0.1-0.7c0-0.1,0-0.2-0.1-0.3c0-0.2-0.1-0.5-0.1-0.8c0-0.1,0-0.2-0.1-0.3
		c-0.1-0.3-0.1-0.5-0.2-0.8c0-0.1,0-0.2-0.1-0.3c-0.1-0.3-0.1-0.6-0.2-0.9c0-0.1,0-0.1,0-0.2c-0.1-0.3-0.1-0.7-0.2-1c0,0,0,0,0-0.1
		c-0.5-2.1-0.9-3.9-1.2-4.9c0.2,0,0.3-0.1,0.4-0.2c0.2-0.2,0.3-0.4,0.3-0.6c0-0.5-0.4-0.9-0.9-0.9h-0.1V499v-2.8v-20.9v-3.8
		l18.6-4.5v-3.9h0L301.9,460.2z"/>
	<path class="st0" d="M140.7,521.9c0.1-0.2,0.1-0.4,0-0.5c-0.8-1.7-1.8-3.6-2.8-5.1c0,0,0,0,0,0l0.2-0.1c0.1-0.1,0.2-0.2,0.3-0.3
		c0.1-0.4-0.1-0.8-0.4-1.1l-0.8-0.6l0,0c-0.2-0.2-0.4-0.3-0.6-0.4l-0.9-0.3c-0.1-0.1-0.2-0.2-0.3-0.2c0-0.1,0-0.2,0-0.2
		c0-0.1,0-0.2-0.1-0.3c-0.4-0.3-0.9-0.6-1.4-1c-0.1-0.1-0.1-0.2-0.1-0.2s0.3-3.3,0.2-6.6c0.4-1.6,0-3.5,0-3.5l-0.2,0
		c-0.2-0.8-0.4-1.6-0.9-2.3v0c0,0,0-0.1,0-0.1c0,0-0.1,0-0.1,0c0,0,0,0,0,0c0,0,0.1,0,0.1,0c0,0,0.1,0,0.1,0c0,0,0.1,0.1,0.1,0.1
		c0,0,0.1,0,0.3-0.1c0.1,0,0.2-0.1,0.2-0.1c0,0,0,0,0.1,0c0.1,0,0.2-0.1,0.2-0.1c0,0,0.1,0,0.1-0.1c0.1-0.1,0.2-0.1,0.3-0.2
		c0,0,0.1,0,0.1-0.1c0.3-0.2,0.7-0.5,1-0.8c0,0,0,0,0,0c0.2-0.2,0.4-0.4,0.5-0.7c0,0,0,0,0,0c0,0,0,0,0,0c0.1-0.1,0.1-0.2,0.2-0.3
		c0,0,0.1-0.1,0.1-0.1c0,0,0,0,0,0c0-0.1,0.1-0.1,0.1-0.2c0-0.1,0.1-0.2,0.1-0.3c0,0,0-0.1,0-0.1c0,0,0-0.1,0-0.1
		c0-0.1,0.1-0.2,0.1-0.4c0,0,0-0.1,0-0.1c0,0,0,0,0,0c0,0,0,0,0-0.1c0-0.2,0.1-0.4,0.1-0.5c0,0,0-0.1,0-0.1c0,0,0,0,0,0
		c0,0,0-0.1,0-0.1c0-0.1,0-0.2,0-0.3c0-0.1,0-0.1,0-0.2c0-0.1,0-0.2,0-0.3c0,0,0,0,0-0.1c0,0,0-0.1,0-0.1c0-0.1,0-0.1,0-0.2
		c0-0.2-0.1-0.4-0.2-0.6c0,0,0,0,0,0c0,0,0,0,0,0c0-0.1,0-0.2-0.1-0.2c-0.1,0-0.2,0-0.2-0.1c0-0.1-0.1-0.2-0.1-0.3
		c-0.1-0.2-0.1-0.3-0.2-0.5c-0.1-0.1-0.1-0.2-0.2-0.3c-0.1-0.1-0.2-0.3-0.3-0.4c-0.1-0.1-0.2-0.2-0.3-0.3c-0.1-0.1-0.2-0.2-0.3-0.3
		c-0.1-0.1-0.2-0.2-0.4-0.3c-0.1-0.1-0.2-0.2-0.3-0.2c-0.1,0-0.1-0.1-0.2-0.1c-0.4-0.2-0.8-0.4-1.2-0.5v-18.6v-1.6v-76.1v-1.6v-76.1
		v-1.6v-77.7H53.2H40.4h-1.6v1.6v19.3v1.6v19.3v1.6v19.3v1.6v19.3v1.6v19.3v1.6v19.3v1.6v19.3v1.6v19.3v1.6v19.3v1.6V445v1.6V466
		v1.6v19.3v1.6v19.3v1.6v19.3v1.6v17.5h1.6v-17.5h12.8v17.5h20.3H78h36.8h2.1h0.3c0,0.1,0,0.1,0,0.2c0,0.4,0.1,0.7,0.1,1
		c0,0,0,0.1,0,0.1c0.1,0.3,0.1,0.6,0.2,0.9c0,0,0,0.1,0,0.1c0.1,0.3,0.2,0.5,0.2,0.8c0,0,0,0.1,0.1,0.1c0.1,0.2,0.2,0.5,0.3,0.7
		c0,0,0,0,0,0.1c0.1,0.2,0.2,0.4,0.4,0.5c0,0,0,0,0,0l-0.1,4.2c-1.2-0.1-2.3,0.8-2.4,2.1h0c-0.1,0-0.3,0.1-0.3,0.3s0.1,0.3,0.3,0.3
		h4.8c0.1,0,0.2-0.1,0.2-0.2h0l0-0.1c0,0,0,0,0,0c0-0.1,0-0.1-0.1-0.1l-0.4-1.6l0.8-4.1l0.1-0.4c0.9-0.7,1.6-2.2,2.2-4.7h0.7h0.7
		h6.2c0,0,0,0.1,0,0.1c0.2,0.9,0.4,1.8,0.6,2.7c0,0,0,0,0,0c0,0.1,0.1,0.2,0.1,0.3c0,0,0,0.1,0,0.1c0,0.1,0.1,0.2,0.2,0.3
		c0,0,0,0,0,0c0.1,0.1,0.1,0.2,0.2,0.4c0,0,0,0.1,0.1,0.1c0.1,0.1,0.2,0.2,0.3,0.3c0,0,0,0,0,0l0.2,4.7c0,0-0.5,1-0.6,1.7
		c0,0,0,0,0,0c-0.1,0-0.3,0.1-0.3,0.3c0,0.1,0.1,0.3,0.3,0.3h8.1c0.1,0,0.3-0.1,0.3-0.3s-0.1-0.3-0.3-0.3h0c0.1-0.2,0.3-0.6,0.1-1
		c-0.3-0.6-4-0.3-4.7-1.4c-0.2-0.8-0.2-1.9-0.2-3c0-0.2,0-0.4,0-0.5c0,0,0,0,0,0c0-0.2,0-0.3,0-0.5c0,0,0,0,0,0
		c0.6-0.3,1.1-0.7,1.2-1.3c0.6-5.5,0.3-10.9,0.5-14.9c0.1-1.1,0-2.2,0-3.3c0.3-0.3,0.6-0.7,0.7-1.3c0.2-0.6,0.2-1.3,0.1-1.9
		c-0.2-1-0.7-1.6-1.3-1.9c-0.1,0-0.2-0.1-0.3-0.1c0,0-0.1,0-0.1,0c0,0,0,0,0,0c-0.7-3.2-2-6.3-3.5-9.3c1.6,2,3.1,3.4,4,4.3
		c0.2,0.2,0.4,0.3,0.6,0.3l0.4,0.8c0.2,0.3,0.3,0.7,0.4,1l0.5,1.9c0,0.1,0.1,0.2,0.2,0.2c0.2,0,0.3-0.1,0.3-0.3l-0.4-2l0.7,2.4
		c0,0.1,0.1,0.2,0.2,0.2c0.1,0,0.2-0.1,0.2-0.3l-0.6-2.6l1,2.9c0,0.1,0.2,0.2,0.3,0.1c0.1,0,0.2-0.1,0.2-0.3l-0.6-2.9l1,2.6
		c0,0.1,0.1,0.2,0.3,0.1c0.1,0,0.2-0.1,0.2-0.3l-0.4-2c0.2,0.1,0.4,0.1,0.5,0c0,0,0.1-0.1,0-0.1L140.7,521.9z"/>
</g>
</svg>
