<?xml version="1.0" encoding="utf-8"?>
<!-- Generator: Adobe Illustrator 27.7.0, SVG Export Plug-In . SVG Version: 6.00 Build 0)  -->
<svg version="1.1" id="Capa_1" xmlns="http://www.w3.org/2000/svg" xmlns:xlink="http://www.w3.org/1999/xlink" x="0px" y="0px"
	 viewBox="0 0 5228 6483.2" style="enable-background:new 0 0 5228 6483.2;" xml:space="preserve">
<g xmlns="http://www.w3.org/2000/svg" id="nopointer_1_">
	<image style="overflow: visible; transform: matrix(1.332, 0, 0, 1.34, -629, -225)" id="nopointer_2_" xmlns:xlink="http://www.w3.org/1999/xlink" xlink:href="maps_climatico/climatico.webp"></image>
</g>
<g id="landmarks-departments" style="transform: translateX(-237px) translateY(-24px);">
	<g id="caribe">
		<path class="st7" d="M3126.5,519.6l95.5-175.2l84-20.6c0.3,0,0.6-0.1,0.8-0.2l40.4-14.1l94.5-28.4c2.3-0.7,4.2-2.3,5.3-4.4
			c0.9-1.8,1.2-3.8,0.9-5.8l9.4-4.7l5.8-2.1c3.7-1.4,6.1-5.1,5.9-9.1l-0.1-1.3l2.2-1.8c0.7-0.6,1.4-1.4,1.9-2.3l0.9-1.6
			c0,0,0.2-0.1,0.4-0.2l3.7-2.1c0.8-0.5,1.6-1.1,2.2-1.8l3.6-4c1.6-1.8,2.4-4.1,2.3-6.4V232l7-6.2l14.5-5c1.6-0.6,3-1.5,4-2.8
			l4.5-5.6l13.7-3.2c2.7-0.6,5-2.5,6.1-5.1l3.2-7.3l2.5-1.9c2.2-1.7,3.5-4.2,3.6-6.9l0.2-9.6c0-0.8-0.1-1.7-0.3-2.4l-4.6-17.5
			c-0.3-1-0.7-1.9-1.3-2.8l-11.8-17.2l-18.3-29.2L3499,82.3c-0.6-1.7-1.8-3.1-3.2-4.2l-18.7-13.3l-4.4-4.6c-1.5-1.5-3.4-2.5-5.5-2.7
			l-13.6-1.4l-15.3-9.5c-1.2-0.7-2.5-1.2-4-1.3l-15.5-1.3l-28.5-15.7c-0.8-0.5-1.7-0.8-2.6-0.9l-21.5-4.2c-1.1-0.2-2.2-0.2-3.3,0
			l-10.7,1.9l-7.4-2.7l-0.5-0.7c-1.7-2.6-4.5-4.1-7.5-4.1h-13.9c-1,0-1.9,0.2-2.9,0.5l-9.4,3.2c-1.8,0.6-3.3,1.7-4.3,3.2l-0.6,0.2
			c-2.6,0.4-4.8,1.8-6.3,4l-2.8,4.3c-3.7,1.2-6.2,4.6-6.2,8.5v2.9c-0.4,0.3-0.7,0.6-1.1,1l-4.7,4.8c-1.4,1.4-2.3,3.2-2.5,5.1
			c-0.6-1.2-1.5-2.4-2.7-3.2l-3.4-2.5c-3.4-2.5-8.1-2.3-11.3,0.6l-6.8,6.1l-8.3-0.1c-3,0-5.7,1.3-7.3,3.7l-10.3,14.4l-15.2,9.7
			c-1.1,0.7-2.1,1.7-2.8,2.8l-4.8,7.6c-0.4,0.6-0.7,1.2-0.9,1.8h-6.1c-1.2,0-2.3,0.2-3.3,0.6L3181,104l-29.1-0.2l-1.5-1.7
			c-1.7-1.8-4-2.8-6.4-2.9c-2.4,0-4.8,0.9-6.5,2.6l-2.7,2.7h-0.5c-2.9,0-5.7,1.4-7.3,3.8l-6.8,9.7c-1.6,2.3-2,5.3-1.2,7.9
			c0.9,2.7,3,4.8,5.7,5.7l4.5,1.5c1.1,0.4,2.2,0.5,3.3,0.4l1.2-0.1l0.1,24.9c0,2.8,1.3,5.4,3.4,7l-6.6,15.6l-9.3,13.5
			c-0.4,0.6-0.7,1.2-1,1.9l-10.8,29l-13.3,15.7c0,0,0,0-0.1,0.1l-4,0.4c-1.8,0.2-3.5,0.9-4.8,2.1l-14.9,12.7l-22.2,9.7
			c0,0-0.4,0.2-0.6,0.3l-25.4,13.3l-17.9,3.1l-11.4-0.1c-4.3-0.2-8.1,3-8.9,7.3l-4.7,3.4l-11.3,0.1c-1.8,0-3.5,0.6-5,1.6l-16.1,10.9
			l-20.4,5.8l-10.2,0.5c-0.9,0-1.8,0.2-2.6,0.5l-14.8,5.3c-1.1,0.4-2,0.9-2.9,1.7l-16.1,14l-7.3,3.6c-1.1,0.6-2,1.3-2.8,2.2
			l-25.3,29.7l-14.5,4.6c-0.7,0.2-1.4,0.6-2.1,1l-29.1,18.7l-4.1,1c-2,0.5-3.7,1.6-5,3.3l-15.8,20.7l-9.2,4.5
			c-1.2,0.6-2.1,1.3-2.9,2.2l-8.8,1.2c-4.7,0.6-8.1,4.8-7.7,9.6l0.1,1.3l-2.3,2.1l-3.6,0.1c-2.9,0-5.6,1.5-7.2,3.9l-3.6,5.1
			c-1.1,1.6-1.6,3.5-1.6,5.3l-22.4,18.1l-30.9,10.3l-54,1c-0.7,0-1.3,0.1-2,0.3l-12.5,3.1l-4.7-2.1c-0.4-0.2-0.7-0.3-1.1-0.4l-3.9-2
			c-0.7-0.4-1.5-0.6-2.3-0.8L2584,479c-2.6-0.6-5.3,0-7.4,1.7l-4.1,3.2l-28.1-0.6l-8.8-4.1c-2.7-1.2-5.8-1.1-8.3,0.4l-6.1,3.6
			l-6.7,0.5l-14.9-6.9c-0.6-0.3-1.3-0.5-2.1-0.6l-11.6-2.2l-3.8-5.8c-1.3-2.1-3.5-3.5-5.9-3.9l-12-2.1l-3-3.8c-1.1-1.4-2.6-2.4-4.3-3
			l-11.8-3.7c-0.9-0.3-1.8-0.4-2.7-0.4h-2.3c-1.7-2.5-4.4-4-7.4-4h-8.7c-0.7,0-1.4,0.1-2,0.2c-1.1-0.5-2.4-0.8-3.6-0.8l-9.4-0.1
			c-2.7,0-5.2,1.1-6.8,3c-1.2-1.5-2.8-2.6-4.8-3c-4.1-1.1-8.4,0.9-10.3,4.8l-1.2,2.4c-0.9-0.2-1.8-0.4-2.8-0.3l-6.2,0.3
			c-3.8,0.2-7.1,2.8-8.1,6.4l-0.2,0.7c-1.9,0.2-3.8,1.1-5.2,2.5l-1.5,1.5l-1.4,0.2c-4.3,0.7-7.5,4.4-7.5,8.8v2.5l-2.8,2.8
			c-1.6,1.6-2.4,3.6-2.6,5.7c-2.7,1.3-4.7,4-5,7.1c-1.8,1.6-3,3.9-3,6.5v0.4c-2.7,1.3-4.6,3.9-4.9,6.9l-0.5,3.4
			c-0.3,2,0.2,3.9,1.1,5.6c-0.5,1.2-0.6,2.4-0.6,3.6l0.3,5.7c0.1,2.1,0.9,4.1,2.4,5.6l1.2,1.3l0.2,17.5c0,2.6,1.2,5,3.1,6.7l0.6,12.1
			c-0.7,0.8-1.3,1.7-1.7,2.7l-2,5.1l-17.3,11.4l-5.9,3l-14.5,1.6c0,0-0.3,0-0.5,0l-16.4,2.7l-10,0.1l-29.3-6l-40.3-10.7l-34.3-13.9
			l-32.8-15.2c-0.8-0.4-1.7-0.6-2.6-0.7l-20.3-2.5l-1.5-0.8l-1.1-2.3c-1.8-3.7-6-5.8-10-4.9s-7,4.5-7,8.6v4.1
			c-1.9,1.5-3.1,3.8-3.3,6.3v0.3c-1.9,1-3.4,2.6-4.2,4.7l-0.4,1c-1.1,0.2-2.1,0.6-3,1.1c0-3.5-2-6.7-5.2-8.1
			c-3.4-1.6-7.4-0.9-10.1,1.8l-4.3,4.2l-7,3.5c-2.5,1.2-4.2,3.6-4.8,6.2l-0.6,3c-0.7,3.5,0.7,7.1,3.6,9.1c2.8,1.9,6.4,2.1,9.3,0.6
			l-0.4,1.9l-15.2,9.7c-2,1.2-3.4,3.2-3.9,5.5l-0.3,1.3h-3.6c-1.9,0-3.7,0.6-5.3,1.7l-9.7,7.1c-2.4,1.7-3.7,4.5-3.7,7.4l0.1,7.6
			l-2.4,6.4l-11.3,2.5c-2,0.4-3.7,1.5-5,3.1l-6.6,8.1l-12.9,2.3c-3.2,0.6-5.9,2.8-6.9,5.9l-1.8,5.1h-2.6c-1.4,0-2.7,0.3-3.9,0.9
			c-1.6-1.4-3.6-2.3-6-2.3h-3.7c-3.7,0-7.1,2.4-8.4,5.9l-2.8,7.7c-0.4,1-0.6,2-0.6,3.1v3.3l-6.6,13.6c-0.4,0.8-0.6,1.7-0.8,2.6
			l-0.9,5.8l-14.1,2.7c-1.2,0.2-2.4,0.7-3.5,1.5l-8,5.6l-8.4,0.9c-2.2,0.2-4.2,1.3-5.7,3l-13.1,14.9l-7.7,3.9c-2.3,1.2-4,3.2-4.6,5.7
			l-1.8,7l-7.4,0.3c-2.1,0.1-4.1,0.9-5.6,2.3l-8.7,7.8c-1.9,1.7-3,4.2-3,6.7v3c0,4.4,3.2,8.2,7.5,8.8v1.1c-0.1,3,1.3,5.8,3.6,7.5v0.2
			c0,1.7,0.5,3.2,1.3,4.6c-1.4,0.8-2.5,2-3.3,3.3l-0.6,0.2c-2.3,0.8-4.2,2.5-5.1,4.8l-1.6,3.6l-10.6,5.9c-2.4,1.3-4.1,3.7-4.5,6.4
			l-0.6,3.5c-1.5,0.8-2.7,2-3.5,3.5c0,0-0.1,0-0.2,0c-4.1,0.7-7.1,4.2-7.3,8.3l-0.5,7.9l-2.8,4.9c-0.9,1.7-1.3,3.6-1.1,5.5l1.4,10.9
			c0.2,1.6,0.8,3.1,1.8,4.3l-0.5,0.8c-0.9,1.4-1.3,3-1.3,4.6v4l-0.4,0.4c-1.1,0.1-2.2,0.5-3.2,1l-5.1,2.8c-3.3,1.8-5.1,5.4-4.6,9.1
			c0.3,2.3,1.5,4.3,3.2,5.7c0,1.6,0.3,3.2,1.2,4.6l0.9,1.7c-1.2,0.7-2.2,1.7-3,2.9l-3.7,5.6l-6.4,4.2l-7.7,2.5
			c-1.2,0.4-2.3,1.1-3.2,1.9l-4.7,4.2c0,0-0.4-0.5-0.6-0.6l0.1-0.1c3.4-2.5,4.6-7.1,2.9-10.9s-6-6-10.2-5l-1.8,0.4l-0.8-0.1
			c-0.3,0-0.6-0.1-0.8-0.1l-6.2-0.5c-2.2-0.2-4.4,0.5-6.2,1.8c-2.8-1.9-6.5-2.1-9.5-0.4l-3,1.8c-1.4,0.8-2.4,1.9-3.2,3.2
			c-2.4,0.5-4.5,2-5.8,4.2c-1.7,2.9-1.7,6.5,0.1,9.3l3.4,5.3c2.4,3.7,7.1,5.2,11.2,3.4l2.2-1c2.4-1.1,4.2-3,4.9-5.4
			c0.6-0.1,1.2-0.4,1.7-0.6c0.6,0.4,1.4,0.6,2.1,0.8c-0.1,0.3-0.1,0.6-0.2,0.9c-0.4,2.9,0.7,5.7,2.8,7.7l1.8,1.6
			c2.1,1.9,4.9,2.7,7.7,2.2c1.9-0.4,3.6-1.3,4.8-2.6l0.4,1c1.6,4.2,6.1,6.5,10.5,5.4l0.7-0.2l2.1,0.8c4.2,1.6,8.9-0.1,11-4.1l0.2-0.4
			l3.2-0.3c4.2-0.4,7.5-3.6,8-7.8l0.5-3.5l9.2-8.7h2.2c3.9,0.1,7.4-2.4,8.6-6.2l1.6-4.9h3c1,0,1.9-0.2,2.8-0.6l1.1,7.9
			c-2.5,0.7-4.6,2.4-5.7,4.8l-1.8,3.7l-2.1,2.4c-3-2-6.9-2.1-10,0l-5.4,3.6c-3,2-4.4,5.5-3.8,9c0.6,3.1,2.8,5.8,5.7,6.8l-1.2,7.2
			c-0.4,2.2,0.1,4.3,1.2,6.1c-2.7,1.5-4.5,4.4-4.6,7.7l-0.1,8.1c0,2,0.6,4,1.9,5.6c-1.6,1.9-2.4,4.5-1.9,7.1l0.8,5.3
			c-0.9,0.9-1.6,2-2.1,3.2l-1.3,3.6c-1.1,2.8-0.6,6,1.1,8.4c0,0.2-0.1,0.5-0.2,0.7l-1.8,8.9c-0.4,2.1-0.1,4.2,0.9,6l-1.5,3.9
			l-6.6,5.4c-2.1,1.7-3.2,4.2-3.2,6.9v2.5c0,2.1,0.7,4.1,2,5.7c-0.8,1.3-1.3,2.9-1.4,4.5l-0.3,12.3l-3.4,2.8
			c-2.2,1.8-3.4,4.4-3.3,7.2l0.1,4.8l-9.1,5.5c-0.5,0.3-0.9,0.6-1.3,1l-6,5.3c-1,0.8-1.7,1.9-2.2,3l-4.3,9.5
			c-1.7,3.8-0.6,8.4,2.8,10.9c3.4,2.5,8,2.4,11.2-0.4l2.8-2.4h8.6l2.2,3.1c1.3,1.8,3.2,3,5.4,3.5l3.8,0.8c0.9,0.2,1.8,0.2,2.6,0.1
			l0.5,2.8c0.5,2.7,2.2,5.1,4.7,6.3l2.9,1.5v4.6c0,3.3,1.8,6.4,4.8,7.9l0.1,13.9l-6.7,12.8c-0.3,0.6-0.6,1.2-0.7,1.8l-3.6,13.6
			l-5,6.2c-0.2,0.3-0.5,0.6-0.7,1l-6.7,10.9l-9.3,3.6c-0.7,0.3-1.4,0.6-2,1.1c-1.3-0.9-2.9-1.4-4.5-1.5l-6.6-0.3l-0.2-0.4
			c-1.5-2.8-4.4-4.6-7.7-4.7l-5.9-0.1c-2.4,0-4.5,0.8-6.2,2.3c-2.2,0.1-4.2,1.1-5.8,2.6l-1.1-2.4c-1.4-2.9-4.2-4.8-7.3-5.1l-8.8-0.7
			c-1.4-0.1-2.7,0.1-4,0.6l-3.8,1.5l-15.6-0.2c-1.2,0-2.3,0.2-3.3,0.6l-1.9,0.7l-0.6-1.9c-1.1-3.3-4.1-5.7-7.6-6.1l-4.8-0.5
			c-1.9-0.2-3.8,0.2-5.4,1.2l-9.4,5.6c-1.7,1-3,2.5-3.7,4.3l-3.6,9c-1,2.4-0.8,5.2,0.3,7.4l-11.9,4.6c-0.7,0.3-1.4,0.7-2.1,1.2
			l-6.3,4.7l-5,1.2l-0.2-0.1c-2-0.8-4.3-0.9-6.4-0.1l-5.9,2.2c-2.7,1-4.8,3.2-5.6,6l-0.9,3.1l-5.9,4.6c-2.4-0.1-4.8,0.7-6.6,2.4
			c-1.8,1.7-2.8,4.1-2.8,6.6v2.1c0,2.2,0.8,4.2,2.2,5.8c-0.1,1.4,0.1,2.9,0.7,4.2l-14.5,5.4c-1.2,0.5-2.3,1.2-3.2,2l-5.6,5.6
			c-2.2,2.2-3.1,5.3-2.4,8.3l1,4.6l-1.5,2.6c-1.7,2.8-1.7,6.2,0,9.1l0.3,0.5c-0.1,0.4-0.1,0.8-0.1,1.2l-0.6,11.5l-2,6.7
			c-0.4,0.2-0.8,0.5-1.2,0.8l-13.3,10.3c-0.8,0.6-1.5,1.4-2.1,2.3c-0.9,0.3-1.7,0.7-2.4,1.3l-4,3c-2.3,1.7-3.6,4.3-3.6,7.2v6.8
			l-4.2,12.2l-2,1.2c0,0-0.4,0.3-0.6,0.5l-12.7,9.7c-1.6,1.2-2.8,3-3.3,5l-1.4,5.9l-1.8,3.5l-3.3,1.2c-2.5,0.9-4.6,2.9-5.4,5.4
			l-3.7,1.8l-4.6-0.6c-1.1-0.1-2.3-0.1-3.4,0.2l-9.1,2.2c-0.4,0.1-0.7,0.2-1.1,0.4l-7.7,3c-3.8,1.5-6.1,5.3-5.6,9.3
			c0.3,3.1,2.3,5.7,4.9,7l-0.3,0.4l-18.9,9.2c-0.9,0.4-1.7,1-2.4,1.7l-11.7,11.7c-1,1-1.8,2.3-2.2,3.6l-1.6,5.1l-9.8,3.3
			c-0.9,0.3-1.8,0.7-2.6,1.3l-7.3,5.5l-16.9,2c-2.9,0.3-5.5,2.1-6.8,4.7l-3.6,6.7c-0.9,1.8-1.2,3.7-0.9,5.7l1.3,8l-1.1,1.8l-18.2,3.3
			l-31.7,6.6c-1,0.2-1.9,0.6-2.8,1.1l-4.9,2.9l-24.8,0.1c-3,0-5.7,1.5-7.3,3.9l-9.5,13.9l-13.1,9.7c-1.5,1.2-2.7,2.8-3.2,4.6
			l-2.9,9.7c-0.7,2.4-0.4,5.1,0.9,7.3l3.4,5.6c2.2,3.6,6.7,5.2,10.7,3.7c1.5-0.6,2.8-1.5,3.8-2.7l2.5,0.9c1.4,0.5,2.8,0.7,4.3,0.5
			l3.2-0.4l12,5.9c0,0,0.3,0.2,0.5,0.2l8.6,3.6l6,15.9c0.1,0.4,0.3,0.7,0.5,1.1l6,11c0.6,1.2,1.5,2.2,2.6,3l6.5,4.7
			c-1.2,1.6-1.9,3.5-1.9,5.5v7.7c0,3,1.4,5.6,3.8,7.3l0.1,2.4l-2,2.3c-1.2,1.5-2,3.3-2.1,5.2l-0.3,4.7l-1.1,1.3c-1.3,1.6-2,3.6-2,5.7
			v3.6c0,3,1.5,5.8,4,7.4l0.2,3.2c0,0.7,0.2,1.5,0.4,2.2l5.5,17.2l1.1,48.2c0,1.7,0.6,3.3,1.5,4.7c0,0,3.6,5.4,3.6,5.5l-1,2.6
			c-0.4,0.9-0.6,1.8-0.6,2.8l-0.8,15.6l-1.9,1c-2.9,1.5-4.8,4.4-4.9,7.7l-0.1,2.7c-0.1,3.1,1.3,5.9,3.7,7.6l-2.5,2.1l-11.5,0.8
			c-2,0.1-4,1-5.4,2.4l-1.9,1.8h-11.5l-8.8-3.6c-1.1-0.5-2.3-0.7-3.5-0.6h-2.3c0,0-5-5-5.1-5.1l-0.6-11.7c1.7-1.2,3-2.9,3.6-4.8
			l1.3-4.3c0.6,1.6,1.7,3,3.1,4.1c2.1,1.5,4.8,2,7.3,1.4l3.6-0.8c2.5-0.6,4.5-2.2,5.7-4.3h2.1c4.9,0,9-4,9-9v-3c0-1.4-0.3-2.8-0.9-4
			c0.4-0.9,0.7-1.9,0.8-3l0.3-3.6c0.1-1.1,0-2.1-0.3-3.1c1.6-1.2,2.8-3,3.4-5l1.2-4.9c0.7-2.8,0-5.7-1.8-7.9
			c-1.1-1.3-2.6-2.3-4.2-2.8c1.1-1.7,1.6-3.8,1.3-6l-0.5-4c-0.6-4.3-4.2-7.6-8.5-7.8l-8.1-0.3c-3-0.1-5.9,1.3-7.6,3.7h-7.5
			c-1.3,0-2.6,0.3-3.8,0.8l3.4-5.7c0.9-1.4,1.3-3.1,1.2-4.8l-0.1-4.6c-0.1-3.7-2.4-6.9-5.8-8.2c0-1.3-0.2-2.5-0.8-3.7
			c-1-2.3-3-4-5.3-4.8c0-0.2-0.1-0.4-0.1-0.6c0.1-0.3,0.2-0.6,0.3-1l1.6-6.4c0.6-2.5,0.1-5.2-1.4-7.3c-1.5-2.1-3.9-3.5-6.5-3.7
			l-10.4-0.9c-1.3-0.1-2.5,0.1-3.7,0.5c-0.3,0.8-0.7,1.8-1.1,2.5c-1.2,3-2.4,6-3.7,9c-0.8,2-1.7,4-2.8,5.9c-0.6,1.1-1.4,2.1-2.1,3.1
			c-2.6,3.6-5.2,7.3-8.1,10.7c-6.8,2.2-11.8,9.4-11.4,16.6c-2.4,6.4-9.7,9.8-12.9,15.8c-3.2,6-2.1,13.3,0.1,19.7
			c2.2,6.4,5.4,12.6,6.1,19.3c0.8,7.7-1.8,15.2-4.3,22.5c-0.9,2.5-1.8,5.2-3.6,7.2c-2.4,2.6-5.9,3.9-8.1,6.7c-2.2,2.9-2.5,7-4.8,9.8
			c-1.2,1.5-3,2.6-4.5,3.9c-3.4,3.1-5,7.6-6.6,11.9c-0.4,1.2-0.8,2.4-0.7,3.6c0.2,1.9,1.6,3.4,2.8,4.8c6,7.3,7.9,17.3,8.2,26.7
			c0.3,9.5-0.7,19,0.4,28.4c0.2,1.8,0.5,3.5,1.3,5c1.2,2.1,3.1,3.6,5,5c12.8,10.2,21.4,25.6,23.5,41.8c0.4,3.5,0.6,7.2,2.7,9.9
			c2.2,2.9,5.8,4.2,8.9,6c3.1,1.8,6,5.3,4.9,8.8c2.5,4.4,2.6,9.6,3.8,14.5c3.5,14.1,16.9,24.6,18.8,39c0.8,6.4-0.7,13,0.3,19.3
			c1.2,7.3,5.7,13.7,10.1,19.7c5.2,7.2,10.3,14.3,15.5,21.4c5.9,8.1,12.2,16.6,21.3,20.7c4.6,2.1,11.2,2.3,13.6-2.2
			c1.2-2.4,0.9-5.6,2.5-7.7c1.2-1.6,3.3-2.2,4.8-3.4c5.7-4.4,2.6-13.5-1.3-19.6c-3.9-6-8.4-13.9-4.2-19.8c3.8-5.5,12.6-4.6,18.1-0.7
			c5.4,3.9,9.2,9.8,14.5,13.9c2.9,2.2,6.7,3.9,10.1,2.6c8.3-3.1,5.9-19.1,14.5-20.7c4.3-0.8,7.9,2.9,10.9,6
			c17.8,18.9,41.8,31.7,67.4,36c6,1,12.4,1.5,17.9-1.2s9.3-9.4,6.9-15c-1.9-4.2-6.5-6.3-10.3-9c-12.3-9-15.7-25.6-24.2-38.2
			c-4.7-6.9-11-12.7-14.4-20.3c-5.5-12.2-2.5-26.6-6.3-39.5c-3-10.3-10.1-19-13.3-29.3c-3.7-12.4-1.2-25.8,2.4-38.2
			c1.9-6.4,4.1-12.8,8-18.2c3.9-5.4,9.7-9.7,16.3-10.5c10.8-1.2,21.1-4.9,29.8-11.4c8.7-6.5,16.2-14.5,24.9-21
			c5.4-4.1,11.5-7.5,15.9-12.6c8.2-9.3,10.1-22.4,12.8-34.6c2.7-12.1,7.6-25.3,18.7-30.8c1.7-0.8,3.5-1.5,5.4-1.2
			c6.4,1.1,8,12.2,14.5,11.8c1.7-0.1,3.2-1.1,4.6-2c14.1-9.2,28.2-18.5,42.3-27.8c6.1-4,12.3-8.1,18.4-12.1c2.8-1.8,6.2-3.7,9.1-2.2
			c1.8,0.9,2.9,2.9,4.3,4.4c4.4,4.5,11.8,3.6,18.1,3.4c22.5-0.4,44.3,16,50,37.8c1.9,7.2,2.3,15,5.9,21.5c2.7,4.8,7.1,8.5,10.6,12.8
			c9.8,11.9,13.2,28.8,8.6,43.5c4.4,3,10.4,1.2,14.8-1.9s7.9-7.2,12.7-9.4c6.4-3,13.8-2.1,20.8-2.9c7-0.8,14.8-4.8,15.6-11.8
			c0.2-2.1,0.6-5.1,2.7-5c0.9,0,1.6,0.7,2.2,1.4c3.7,4,7.4,8.1,11.1,12.1c9,9.8,24.5,9.6,37.2,5.6c5-1.6,9.7-4.1,14.5-6.2
			c13.4-5.9,29.5-8.2,42.4-1.4c3.5,1.8,6.7,4.2,10.3,5.8c4.8,2.1,10.2,2.5,15.4,2.7c18.7,0.5,37.6-2.6,55.3-9
			c11.9-4.3,23.3-10.2,35.5-13.5c2.8-0.7,5.9-1.3,8.4,0.1c1.3,0.8,2.3,2.1,3.6,3c2.7,1.9,6.2,1.8,9.4,2.4c7.4,1.1,14.3,5.4,18.6,11.5
			c4.2,6.1,5.7,13.7,7,21c2.2,12.3,4.1,25,1.5,37.2c-2.6,12.6-9.8,23.8-18.7,33.1c4.5,8.2,2.4,19.3-2.9,27.1
			c-1.6,2.4-3.6,4.5-4.6,7.2c-0.7,2.1-0.7,4.4-1.2,6.6c-0.6,2.7-1.9,5.1-2.5,7.8c-0.6,2.7-0.2,5.8,1.9,7.5c3.4,2.7,8.4,0,11.2-3.3
			c2.8-3.3,5.4-7.5,9.7-8.3c0.6-0.1,1.2-0.1,1.6-0.5c0.6-0.5,0.7-1.3,0.8-2c0.6-3.1,2.1-6,3.9-8.6c8-12.2,19.9-21.9,33.4-27.3
			c5.6-2.2,11.6-3.8,16.6-7.2c1-0.7,2-1.4,2.6-2.5c0.7-1.2,1-2.6,1.2-4.1c1.5-9.7,3.7-19.3,5.9-28.8c1.4-6.2,2.9-12.4,4.3-18.6
			c1.7-7.4,3.5-14.9,5.4-22.3c1.2-4.4,2.4-9,2.3-13.6c-0.4-8.6-6.5-16.6-14.7-19.2c-2.5-0.8-5.3-1.2-7.6-2.5
			c-5.7-3.3-6.7-11-7.2-17.5c-0.3-5.6,1.3-10.3-0.7-15.6c-1.8-4.6-5.4-8.3-7.4-12.8c-2.1-4.8-2.2-10.5-0.8-15.6
			c1.3-5.1,3.9-9.8,7-14.2c2.1-3,4.6-6,8-7.3c5.6-2.1,12.1,1,17.9-0.8c4.5-1.4,7.4-5.5,11.2-8.3c4.8-3.5,10.9-5,16.8-4
			c2.9,0.5,5-0.1,7.6-1.5c2.5-1.4,4.6-3.6,6.6-5.7c4.7-5,9.4-10.1,14-15.1c1.2-1.3,2.5-2.7,4.2-3.4c2.6-1.1,5.5-0.5,8.3-0.5
			c7.4,0,14.5-5.1,16.9-12c2-5.6,1.2-11.7,1.1-17.6c-0.1-5.9,1-12.5,5.5-16.2c1.8-1.5,4.1-2.4,5.5-4.3c1.2-1.6,1.6-3.7,1.9-5.7
			c0.8-4.6,1.9-9.1,4-13.3c2.1-4.1,5.4-7.8,9.6-9.7c2.3-1,3.8-2.4,4.6-4.7c0.7-2.3,0.6-4.8,0.5-7.3c-0.2-5.4-0.5-10.9-0.7-16.3
			c-0.1-2.7-0.2-5.5,0.7-8c1.4-3.6,4.7-6,7.9-8.1c3-2,6.2-3.8,9.8-4.7c4.3-1,8.8-0.4,13.2-0.7c9.2-0.6,17.7-5.4,25.4-10.5
			c3.1-6.8,3.9-14.4,3.8-21.8c-0.2-11.6-0.4-23.2-0.6-34.9c-0.1-4.4-0.1-9,0.9-13.3c3-12.6,14.5-21,24.8-28.9
			c5.1-3.9,10.3-8.1,12.9-13.9c1.3-3,2-6.3,3.1-9.3c3.5-8.9,12.2-15.5,21.7-16c9.5-0.5,19.1,5.4,22.5,14.3c1.8,4.6,2,9.7,4.7,13.9
			c2.2,3.3,5.7,5.5,8.2,8.6c6.5,8.1,4.5,20,0.3,29.4c-4.2,9.4-10.4,18.3-11.7,28.5c-0.6,4.6-0.1,9.2,0.5,13.9c1.7,12,4.8,23.8,9.4,35
			c0.4,1.1,0.9,2.2,1.9,2.8c1.5,1,3.6,0.2,4.9-1c1.3-1.2,2.3-2.8,3.6-4c1.7-1.5,4-2.3,5.8-3.8c2.6-2.3,3.6-5.9,4.5-9.2
			c2.2-8.5,5.5-17.8,13.4-21.5c8.6-4,20,0,27.3-6c1.5-1.2,2.7-2.9,4.4-3.8c2.6-1.5,5.9-1.1,8.9-0.9c4.7,0.4,9.6,0.2,13.9-1.7
			s7.9-6,8.2-10.7c-1.2-1.6-1.1-2.1-0.1-3.8c1-1.7,2.4-3.1,3.3-4.9c1.4-2.6,1.4-5.7,1.4-8.7c0-4.5,0.1-9.1,0.2-13.6
			c0.3-10.9,1.1-22.4,7.3-31.4c2.6-3.8,6.2-7.1,7.8-11.5c1-2.9,1-6,0.9-9.1c-0.2-14.6-0.3-29.3-0.5-44c-0.1-8-0.1-16.5,3.7-23.6
			c4.4-8.1,12.9-12.9,19.9-19c6.9-6,12.5-13.4,16.3-21.8c2-4.4,4.5-8.1,8.1-11.3c2.6-2.4,6.1-3.5,9.1-5.3c5.4-3.1,9.3-8.2,13.1-13.2
			c6.1-8.1,12.4-16.8,13-26.9c0.2-2.6-0.1-5.4-1.3-7.7c-0.9-1.7-2.4-3-3.5-4.6c-3-4.2-3.6-9.8-2.7-14.9s3.3-9.8,5.7-14.4
			c6.2-11.6,13.4-22.8,21.5-33.3c2-2.6,4-5.1,6.7-7.1c5.5-4.1,12.8-4.9,19.3-7.4c8.1-3,14.9-8.6,21.6-14.1c4.1-3.4,8.4-7,9.9-12.1
			c1.1-3.6,0.6-7.6,2-11.1c1.3-3.3,4.1-5.8,6.2-8.7s3.7-6.7,2.2-9.9c1.2-6.6-2.2-13.6-4.4-20c-4.8-13.9-6.7-28.7-6.7-43.5
			c0-6.8,0.4-13.7-0.6-20.4c-2.8-19.5-16.5-36.8-16.1-56.4c0.2-8.3,1.6-14.7,2.6-23c0.7-5.7,1.2-12.3-2.9-16.4
			c-1.7-1.7-3.9-2.7-5.4-4.5c-1.8-2.2-2.1-5.2-2-8c0.1-4.5,1-9,2.7-13.3c0.9-2.3,2.1-4.6,4.2-5.9c1.4-0.9,3-1.2,4.7-1.5
			c4.9-0.9,9.8-1.5,14.8-1.8c1.7-0.1,3.5-0.1,4.9-0.9c2.3-1.2,3.5-3.7,4.8-6c4.9-8.5,13.3-15,22.9-17.4c9.4-2.4,14.8-12.4,20.1-20.6
			c2.4-3.6,4.2-7.5,6.6-11.2c2.8-4.5,6.2-8.6,9.7-12.7c3.8-4.5,7.5-9,11.3-13.5c2.7-3.2,5.4-6.4,8.8-8.8c4-2.8,8.8-4.3,13.3-6.3
			c4.2-1.8,8.3-4.1,12.1-6.8c2.1-1.5,4.2-3.2,5.5-5.5c2.3-4.2,1.2-9.3,0.6-14c-2.4-20.3,8.2-41.5,25.8-52c4.4-2.6,9.1-4.6,13.1-7.8
			c5.5-4.4,9-10.9,12.3-17.1c4.2-1.8,8.5-4,10.9-7.9c4.2-6.7,0.4-15.8,3.3-23.2c1.7-4.4,5.6-7.5,9.3-10.5c3.9-3.1,7.9-6.3,12.6-8.3
			c3.9-1.7,8.1-2.5,11.7-4.8c5.4-3.4,8.5-9.6,11.3-15.4c2.6-5.6,5.3-11.3,6-17.4c1.1-9.2-2.3-19.4,2.2-27.6c2.9-5.3,8.5-8.5,12.7-13
			c5.8-6.3,8.7-15.2,15.7-20.2c4.5-3.2,10.2-4.3,15.2-6.7c6.7-3.1,12.1-8.5,18.4-12.1c11.9-6.8,27.3-7.3,39.6-1.1
			c0.5,3.3,2.4,4.8,5.4,6.4c3,1.6,6.4,2.2,9.7,2.8c12.1,2.2,24.3,3.3,35,9.4L3126.5,519.6z"/>
	</g>
	<g id="andina">
		<path class="st7" d="M1154.5,4720.2l-8.5-3.3l-10.2-2.8l-9.3-2.6l-6-1.4c-1.8-0.4-3.5-1.4-4.8-2.9l-9.9-11.5c0,0-0.1-0.2-0.2-0.2
			l-0.8,0.9c-0.9,1-2,1.8-3.2,2.3l-16.7,6.8l-2.5,2.3c-2.5,2.2-6,2.9-9.1,1.7c-3.1-1.2-5.3-4-5.7-7.3l-0.8-6.6
			c-0.3-2.5,0.4-4.9,2-6.9l-2.4-22.5c-0.3-2.7,0.6-5.4,2.6-7.3c0.3-0.3,0.6-0.5,0.8-0.7c-0.2-3.3-0.6-7.8-1-11
			c-0.1-1.4,0-2.8,0.6-4.1l5.8-14.8c1-2.5,3-4.4,5.5-5.3l0.8-0.3l2.2-6.3l-1.1-5.2l-3.6-0.4l-0.2,0.2c-1.6,1.6-3.6,2.5-5.9,2.6
			l-15.6,0.8c-3.1,0.2-6-1.3-7.8-3.8l-7.4-10.6l-16.7-9.1h-6c-3.8,0-7.2-2.4-8.5-6l-2.9-8.5c-1.8-0.7-3.4-2-4.4-3.6
			c-1.2-2-1.7-4.5-1.1-6.9l2.9-11.5c0.7-3,3-5.4,5.9-6.3l0.6-0.2l0.8-2.8c-2.7-0.6-5-2.4-6.2-4.9l-2-4.2l-5.8-0.9l-5.4,2.7
			c-1.2,0.6-2.4,0.9-3.7,0.9l-8.9,0.2c-0.7,0-1.5,0-2.2-0.2l-3.5,1.2c-0.5,0.2-0.9,0.3-1.4,0.4l-4.5,0.8l-1.6,2.2
			c-0.7,1-1.7,1.9-2.7,2.5l-1.6,0.9c-0.5,0.3-1.1,0.6-1.7,0.7l-10.8,3.7c-0.6,0.2-1.1,0.3-1.7,0.4l-1.8,0.2c-0.9,0.1-1.9,0.1-2.8,0
			l-7.9-1.5l-12.1-1.3c0,0-0.4,0-0.6-0.1l-12.1-2.1l-12.2-2.5c-2.8-0.6-5.1-2.4-6.3-5.1l-2.4-5.4l-8.1-2.5c-2.3-0.7-4.2-2.3-5.3-4.4
			c-0.5-1-0.8-2-0.9-3l-1.5-1.2l-12.1-0.3c-2,0-4-0.8-5.5-2.1l-8.2-7c-2.2-1.9-3.4-4.7-3.1-7.6v-0.2l-2.4-2.4c-1.8,2.8-5,4.4-8.5,4.1
			l-8.2-0.8c-2.4-0.2-4.5-1.4-6-3.2h-1.7c-2.7,0-5.2-1.2-6.9-3.2l-6.2-7.4c-2.2-2.7-2.7-6.4-1.2-9.5c0.6-1.3,1.5-2.4,2.6-3.3l0.2-2
			l-1.2-0.6c-1-0.5-1.8-1.2-2.6-1.9l-3-3.3l-11.9-4.2c-3.1-1.1-5.4-3.8-5.9-7.1l-0.1-0.8l-7.9-4.1c-2.9-1.5-4.8-4.5-4.8-7.8
			c0-3.3,1.7-6.4,4.6-7.9l0.2-0.1l0.8-3.5c0.2-0.9,0.5-1.7,0.9-2.4c-0.2-0.2-0.3-0.5-0.5-0.8l-4.9-9.1c-0.7-1.3-1.1-2.8-1.1-4.3v-3.1
			l-1.4-1.6c-1.7-1.8-2.5-4.3-2.3-6.8c-0.2-0.4-0.4-0.6-0.6-1l-0.5,0.3c-1.7,1.1-3.6,1.5-5.5,1.4l-6.5-0.5l-10.3,9.1
			c-2.4,2.2-5.9,2.8-9,1.7l-1.8-0.6l-0.9,1.2c-2,2.4-5.1,3.7-8.2,3.3c-3.1-0.4-5.8-2.5-7-5.4l-3.2-7.7c5.2,0.5,9.7-2.8,13.1-6.7
			c3.5-3.9,6.1-8.6,10.2-12c6-5,14.3-6.2,21.5-9.3c5.9-2.6,11.2-6.5,16.5-10.1c7-4.7,14.3-9.1,21.8-12.9c4.7-2.4,9.7-4.7,14.9-4.8
			c5.1-0.1,10,1.8,15.1,2.8c5,1,10.8,0.9,14.5-2.6c1.8-1.6,2.8-3.7,3.9-5.9c4.2-8.3,8.4-16.5,12.6-24.8c2.1-4.2,4.7-8.8,9.2-10.3
			c3-1,6.3-0.3,9.5-0.3c8.4,0.2,16.7-4.1,21.4-11c4.8-6.9,5.7-16.2,2.6-23.9c-0.9-2.1-2-4.2-2.1-6.5c-0.1-2.8,1.3-5.4,3-7.7
			c3.8-5.4,8.8-9.9,14.5-13.3c3-1.8,6.3-3.3,8.8-5.7c5.2-4.9,6.3-13,4.7-20c-1.6-6.9-5.6-13.1-9.5-19.1c5.8,0.5,11.4-2.9,15-7.5
			c3.6-4.6,5.6-10.2,7.6-15.7c1.6-4.6,3.2-9.1,4.8-13.7c0.9-2.5,1.8-5.3,1.2-7.9c-0.9-4.2-5-6.7-8.8-8.8c-8.8-4.8-15.3-14.4-25.3-15
			c-6.1-0.4-12.2-0.8-18.3-1.2c-1.6-0.1-3.4-0.3-4.5-1.5c-1.5-1.6-1.2-4.3-2.8-5.9c-1.1-1-2.6-1.2-4.1-1.3
			c-8.1-0.8-16.1-2.5-23.9-5.1c-0.9-0.3-1.8-0.6-2.2-1.5c-0.5-0.9-0.1-1.9,0.2-2.9c2.1-5.7,4.2-11.5,6.4-17.2
			c3.4-9.1,7.6-19.1,16.4-22.9c1.1-0.5,2.3-0.9,3-1.9c1.2-1.7,0.3-3.9-0.5-5.8c-1.3-3.5-1.8-7.2-1.4-10.9c0.1-1.2,0.4-2.4,1.2-3.2
			c0.7-0.6,1.6-0.9,2.5-1.1c10-1.9,19.3,4.7,28.9,8.2c21.2,7.9,45.8,0.9,66.5,9.8c5.9,2.5,11.2,6.2,17.1,8.5c6,2.3,13.1,2.9,18.4-0.6
			c5.5-3.6,7.7-10.8,7.2-17.3c-0.6-6.5-3.4-12.6-6.1-18.5c-1.9-4.2-3.9-8.3-5.9-12.5c-1-2.1-2-4.2-2.4-6.6c-1-6,2.8-12.1,7.7-15.7
			c4.9-3.7,10.9-5.6,16.5-7.9c8.6-3.5,17.5-8.8,20.2-17.7c1-3.2,1-6.6,2-9.7c2.3-7.2,9.1-11.9,13.1-18.4c9.7-15.6,4.7-35.1,9.1-52.9
			c4-15.9,20.8-27.6,37.1-25.6c7.9,1,15.2,4.6,23,6c7.8,1.4,17.2-0.2,21.2-7.1c1.5-2.5,2.1-5.5,3.9-7.8c1.5-1.8,3.6-3,5.4-4.4
			c7.5-6.1,8.3-18.7,1.6-25.7c-2.5-2.6-5.7-4.3-8.3-6.8c-2.6-2.4-4.6-6-3.6-9.5c0.9-3.3,4.2-5.3,7.2-7c6.4-3.6,12.9-7.2,20.1-8.1
			c6-0.8,12.8,0.2,17.8-3.4c2.8-2,4.5-5.3,6-8.4c1.5-3,3-6,4.6-9c0.8-1.7,1.7-3.4,1.8-5.2c0.1-2.1-0.7-4.2-1.5-6.1
			c-3.1-7.7-5.8-15.6-7.9-23.6c-1.6-6.3-2.3-14.4,3.3-17.8c1.8-1.2,4.1-1.5,6.2-2c11.1-2.9,19.9-13.1,21.2-24.4
			c0.3-2.4,0.2-4.8,1.2-7c1.6-3.7,5.5-5.7,8.5-8.4c8.8-8,9.2-21.7,7.3-33.4c-2-11.7-4.8-22.7-3.2-34.5c1.2-9.4,2.2-20.1-3.9-27.4
			c-3.9-4.7-10.4-7.6-11.9-13.6c-0.6-2.5-0.1-5.2,0.4-7.8c1-4.6,2.4-9.2,5.3-12.9c7.5-9.6,21.8-9.8,32.2-16.1
			c0.9-0.6,1.8-1.2,2.4-2.1c0.6-1.1,0.7-2.4,0.7-3.6c0.4-14.5,0.8-29,0-43.5c-0.1-2.3-0.3-4.6-1.2-6.7c-0.9-2.2-2.6-3.9-3.9-5.9
			c-3.8-5.7-4-14.4,1.4-18.6c6.2-4.8,15.7-1.3,23-4.4c5.3-2.3,8.9-7.9,14.5-9.1c2-0.5,4.2-0.3,6-1.5c2.5-1.8,2.4-5.5,2-8.6
			c-0.8-6.3-2-13.3-6.9-17.4c-1.7-1.3-3.7-2.4-4.8-4.2c-2-3.3,0.1-7.7,2.8-10.5c2.6-2.9,6-5.5,6.7-9.4c1.4-6.8-5.9-12.1-8.1-18.7
			c-2.2-6.5,0.9-13.8,5.4-18.9c2.5-2.9,5.7-6.1,4.7-9.8c-0.7-2.5-2.9-3.3-5.1-4.6c-1.9-4.2-2.9-8.8-2.9-13.4c0-1.6,0.2-3.4,1.3-4.5
			c0.9-0.9,2.3-1.2,3.5-1.5c9.8-1.8,20.1-0.4,29.2,3.8c8.6,4.1,18.2,10.8,26.6,6.2c-2.6-7.1-0.7-15.6,4.7-20.8
			c2.8-2.7,6.7-5.3,6.6-9.2c-0.2-5.2-7-6.7-11.1-9.9c-6.1-4.8-7.1-15-14.3-17.9c-3.4-1.3-7.3-0.6-10.9-0.5s-8-1.1-9.3-4.5
			c-1.6-3.9,1.6-8,4.8-10.6c9.7-7.8,23.9-13.1,26.2-25.3c1.5-8.2-2.7-18.2,3.3-24.1c1.5-1.5,3.6-2.5,4.7-4.3c1.9-3,0.5-7.1,1.6-10.5
			c1.4-4.6,6.7-6.7,8.9-11c3-5.7-0.6-12.9,1.8-18.8c0.5-1.2,1.2-2.5,1.3-3.8c0.1-2.3-1.8-4.1-3.6-5.5c-3.5-2.8-7.2-5.7-9-9.8
			c-1.8-4.1-0.5-9.9,3.7-11.3c1.6-0.6,3.5-0.4,5-1.2c1.8-1,2.5-3,3.4-4.8c5.7-11.9,20-17.9,33.2-17c7.2,0.5,16,2.1,20.4-3.6
			c1.7-2.1,2.3-4.9,4-7c1.3-1.6,3.2-2.7,4.2-4.5c3-5-2.3-10.9-7.6-13.5c-6.1-3-13.3-4.9-17.1-10.5c-1.8-2.7-2.8-6.3-5.5-8
			c-1.7-1.1-3.8-1.3-5.2-2.8c-3-3.2,2.2-7.7,4.9-11.1c4-5,8-10,12-15.1c2.3-2.9,4.6-5.8,5.6-9.3c1.2-4.1,0.4-8.4-0.6-12.5
			c-3.2-12.8-8.8-25-16.4-35.8c-2.2-3.2-4.8-6.6-4.7-10.4c0.2-7.8,9.9-11.4,13.6-18.2c3.8-7.2,0.2-16.1,1.8-24.1
			c1.4-7,6.6-12.6,11.6-17.7c17.8-17.9,36.3-35.1,55.6-51.5c1.4-1.2,2.9-2.4,3.7-4.1c2.8-5.2-1.4-11.4-5.9-15.3
			c-6.6-5.9-14.3-10.7-22.4-14.1c-2.2-0.9-4.5-1.8-6.3-3.4c-6.4-5.7-2.4-16.9-7.1-24.2c-1.8-2.9-4.9-4.8-7.3-7.3
			c-2.4-2.5-4-6.4-2.3-9.4c1.3-2.2,3.9-3.2,6.4-4c3.7-1.2,7.4-2.4,11.1-3.6c12.7-4.1,25.9-8.4,35.3-17.8c9.1-9.1,10.6-23.6,12.7-36.3
			c1.1-6.8,1.7-13.7,1.7-20.6c0-1.3,0-2.6-0.7-3.8c-1.1-1.9-3.6-2.4-5.8-2.3c-3.1,0.3-6.1,1.7-8.2,4c-1.5,1.6-2.6,3.6-4.3,4.9
			c-3.2,2.4-7.9,2-11.2-0.3c-3.3-2.3-5.3-6-6.6-9.8c-1-3-1.5-6.3-0.6-9.4c0.6-2.2,1.9-4.2,3.2-6.1c5-7.8,9.4-15.9,13.2-24.3
			c1.4-3.2,2.8-6.5,3.1-10c0.6-5.1-0.6-11.1,3.2-14.5c2.4-2.1,6.2-2.4,7.8-5.2c0.8-1.5,0.8-3.3,0.7-5c-0.2-4.2-0.8-9.1-4.3-11.4
			c-4.5-2.9-11.1,0.2-15.6-2.7c-2.7-1.8-3.8-5.3-4-8.5c-0.2-3.3,0.3-6.6-0.4-9.7c-0.6-3.2-2.3-5.3-4.9-7.3
			c-6.8-5.1-11.5-13-12.7-21.4s1.2-17.3,6.4-24.1c1.1-1.4,2.4-2.8,3-4.5c0.6-1.6,0.6-3.4,0.6-5.1c-0.5-10.8-4.1-21.3-10.3-30.1
			c-1.2-1.7-2.4-3.3-4-4.7c-3.5-3.1-8-4.8-11.5-7.9c-5.5-4.9-7.7-12.7-7.9-20.1s1.3-14.7,1.6-22.1c0.3-7.4-0.7-15.2-5.2-21.1
			c-4.8-6.4-13.6-9.1-18.8-15.2c-4.4-5.2-9.1-11.2-8.6-18c0.3-3.9,2.2-7.5,3.7-11.2c2.8-6.8,4.2-14.2,4-21.6
			c-0.1-4.4-0.1-10.1,4-11.8c2.7-1.2,5.9,0.1,8.5-1.2c3.4-1.8,3.4-6.6,2.6-10.3c-1.8-8.9-5-17.5-9.4-25.4c-4-7.1-9-13.9-10.4-21.9
			c-0.6-3.3-0.6-6.7-0.5-10.1c0-1.7,0-3.3,0.7-4.8c0.7-1.7,2.2-3,3.7-4.2c5.1-4.1,10.5-7.6,16.3-10.5c2.8-1.4,5.7-2.7,8-4.8
			c4.6-4.1,6.8-11,4.7-16.8c1.7-4.6,5.5-8.2,7.7-12.6c3.8-7.9,1.5-18.2-5.3-23.7c-2.1-1.7-4.6-2.9-7.2-2.8
			c-5.2,0.3-8.6,5.5-10.2,10.4c-1.5,4.9-2.2,10.4-5.6,14.3c-1.9,2.2-4.5,3.6-7.1,4.7c-4.5,1.9-9.8,3.1-14.3,1.1
			c-2.3-1-4.1-2.7-5.8-4.6c-6-6.7-10.1-15.1-11.5-24.1c-0.6-4-0.7-8-0.8-12.1c-0.7-25.7-3.1-51.9-12.8-75.7c-1.2-3.1-2.7-6.2-4.9-8.7
			c-4-4.3-10.8-6.9-14.3-11.7c2-0.4,3.8-1.5,4.8-3.4c1.2-2.4,0.9-5.6,2.5-7.7c1.2-1.6,3.3-2.2,4.8-3.4c5.7-4.4,2.6-13.5-1.3-19.6
			s-8.4-13.9-4.2-19.8c3.8-5.5,12.6-4.6,18.1-0.7c5.4,3.9,9.2,9.8,14.5,13.9c2.9,2.2,6.7,3.9,10.1,2.6c8.3-3.1,5.9-19.1,14.5-20.7
			c4.3-0.8,7.9,2.9,10.9,6c17.8,18.9,41.8,31.7,67.4,36c6,1,12.4,1.5,17.9-1.2s9.3-9.4,6.9-15c-1.9-4.2-6.5-6.3-10.3-9
			c-12.3-9-15.7-25.6-24.2-38.2c-4.7-6.9-11-12.7-14.4-20.3c-5.5-12.2-2.5-26.6-6.3-39.5c-3-10.3-10.1-19-13.3-29.3
			c-3.7-12.4-1.2-25.8,2.4-38.2c1.9-6.4,4.1-12.8,8-18.2c3.9-5.4,9.7-9.7,16.3-10.5c10.8-1.2,21.1-4.9,29.8-11.4
			c8.7-6.5,16.2-14.5,24.9-21c5.4-4.1,11.5-7.5,15.9-12.6c8.2-9.3,10.1-22.4,12.8-34.6c2.7-12.1,7.6-25.3,18.7-30.8
			c1.7-0.8,3.5-1.5,5.4-1.2c6.4,1.1,8,12.2,14.5,11.8c1.7-0.1,3.2-1.1,4.6-2c14.1-9.2,28.2-18.5,42.3-27.8c6.1-4,12.3-8.1,18.4-12.1
			c2.8-1.8,6.2-3.7,9.1-2.2c1.8,0.9,2.9,2.9,4.3,4.4c4.4,4.5,11.8,3.6,18.1,3.4c22.5-0.4,44.3,16,50,37.8c1.9,7.2,2.3,15,5.9,21.5
			c2.7,4.8,7.1,8.5,10.6,12.8c9.8,11.9,13.2,28.8,8.6,43.5c4.4,3,10.4,1.2,14.8-1.9c4.3-3,7.9-7.2,12.7-9.4c6.4-3,13.8-2.1,20.8-2.9
			s14.8-4.8,15.6-11.8c0.2-2.1,0.6-5.1,2.7-5c0.9,0,1.6,0.7,2.2,1.4c3.7,4,7.4,8.1,11.1,12.1c9,9.8,24.5,9.6,37.2,5.6
			c5-1.6,9.7-4.1,14.5-6.2c13.4-5.9,29.5-8.2,42.4-1.4c3.5,1.8,6.7,4.2,10.3,5.8c4.8,2.1,10.2,2.5,15.4,2.7c18.7,0.5,37.6-2.6,55.3-9
			c11.9-4.3,23.3-10.2,35.5-13.5c2.8-0.7,5.9-1.3,8.4,0.1c1.3,0.8,2.3,2.1,3.6,3c2.7,1.9,6.2,1.8,9.4,2.4c7.4,1.1,14.3,5.4,18.6,11.5
			c4.2,6.1,5.7,13.7,7,21c2.2,12.3,4.1,25,1.5,37.2c-2.6,12.6-9.8,23.8-18.7,33.1c4.5,8.2,2.4,19.3-2.9,27.1
			c-1.6,2.4-3.6,4.5-4.6,7.2c-0.7,2.1-0.7,4.4-1.2,6.6c-0.6,2.7-1.9,5.1-2.5,7.8s-0.2,5.8,1.9,7.5c3.4,2.7,8.4,0,11.2-3.3
			c2.8-3.3,5.4-7.5,9.7-8.3c0.6-0.1,1.2-0.1,1.6-0.5c0.6-0.5,0.7-1.3,0.8-2c0.6-3.1,2.1-6,3.9-8.6c8-12.2,19.9-21.9,33.4-27.3
			c5.6-2.2,11.6-3.8,16.6-7.2c1-0.7,2-1.4,2.6-2.5c0.7-1.2,1-2.6,1.2-4.1c1.5-9.7,3.7-19.3,5.9-28.8c1.4-6.2,2.9-12.4,4.3-18.6
			c1.7-7.4,3.5-14.9,5.4-22.3c1.2-4.4,2.4-9,2.3-13.6c-0.4-8.6-6.5-16.6-14.7-19.2c-2.5-0.8-5.3-1.2-7.6-2.5
			c-5.7-3.3-6.7-11-7.2-17.5c-0.3-5.6,1.3-10.3-0.7-15.6c-1.8-4.6-5.4-8.3-7.4-12.8c-2.1-4.8-2.2-10.5-0.8-15.6
			c1.3-5.1,3.9-9.8,7-14.2c2.1-3,4.6-6,8-7.3c5.6-2.1,12.1,1,17.9-0.8c4.5-1.4,7.4-5.5,11.2-8.3c4.8-3.5,10.9-5,16.8-4
			c2.9,0.5,5-0.1,7.6-1.5s4.6-3.6,6.6-5.7c4.7-5,9.4-10.1,14-15.1c1.2-1.3,2.5-2.7,4.2-3.4c2.6-1.1,5.5-0.5,8.3-0.5
			c7.4,0,14.5-5.1,16.9-12c2-5.6,1.2-11.7,1.1-17.6c-0.1-5.9,1-12.5,5.5-16.2c1.8-1.5,4.1-2.4,5.5-4.3c1.2-1.6,1.6-3.7,1.9-5.7
			c0.8-4.6,1.9-9.1,4-13.3c2.1-4.1,5.4-7.8,9.6-9.7c2.3-1,3.8-2.4,4.6-4.7c0.7-2.3,0.6-4.8,0.5-7.3c-0.2-5.4-0.5-10.9-0.7-16.3
			c-0.1-2.7-0.2-5.5,0.7-8c1.4-3.6,4.7-6,7.9-8.1c3-2,6.2-3.8,9.8-4.7c4.3-1,8.8-0.4,13.2-0.7c9.2-0.6,17.7-5.4,25.4-10.5
			c3.1-6.8,3.9-14.4,3.8-21.8c-0.2-11.6-0.4-23.2-0.6-34.9c-0.1-4.4-0.1-9,0.9-13.3c3-12.6,14.5-21,24.8-28.9
			c5.1-3.9,10.3-8.1,12.9-13.9c1.3-3,2-6.3,3.1-9.3c3.5-8.9,12.2-15.5,21.7-16s19.1,5.4,22.5,14.3c1.8,4.6,2,9.7,4.7,13.9
			c2.2,3.3,5.7,5.5,8.2,8.6c6.5,8.1,4.5,20,0.3,29.4c-4.2,9.4-10.4,18.3-11.7,28.5c-0.6,4.6-0.1,9.2,0.5,13.9c1.7,12,4.8,23.8,9.4,35
			c0.4,1.1,0.9,2.2,1.9,2.8c1.5,1,3.6,0.2,4.9-1c1.3-1.2,2.3-2.8,3.6-4c1.7-1.5,4-2.3,5.8-3.8c2.6-2.3,3.6-5.9,4.5-9.2
			c2.2-8.5,5.5-17.8,13.4-21.5c8.6-4,20,0,27.3-6c1.5-1.2,2.7-2.9,4.4-3.8c2.6-1.5,5.9-1.1,8.9-0.9c4.7,0.4,9.6,0.2,13.9-1.7
			c4.3-1.9,7.9-6,8.2-10.7c-1.2-1.6-1.1-2.1-0.1-3.8s2.4-3.1,3.3-4.9c1.4-2.6,1.4-5.7,1.4-8.7c0-4.5,0.1-9.1,0.2-13.6
			c0.3-10.9,1.1-22.4,7.3-31.4c2.6-3.8,6.2-7.1,7.8-11.5c1-2.9,1-6,0.9-9.1c-0.2-14.6-0.3-29.3-0.5-44c-0.1-8-0.1-16.5,3.7-23.6
			c4.4-8.1,12.9-12.9,19.9-19c6.9-6,12.5-13.4,16.3-21.8c2-4.4,4.5-8.1,8.1-11.3c2.6-2.4,6.1-3.5,9.1-5.3c5.4-3.1,9.3-8.2,13.1-13.2
			c6.1-8.1,12.4-16.8,13-26.9c0.2-2.6-0.1-5.4-1.3-7.7c-0.9-1.7-2.4-3-3.5-4.6c-3-4.2-3.6-9.8-2.7-14.9s3.3-9.8,5.7-14.4
			c6.2-11.6,13.4-22.8,21.5-33.3c2-2.6,4-5.1,6.7-7.1c5.5-4.1,12.8-4.9,19.3-7.4c8.1-3,14.9-8.6,21.6-14.1c4.1-3.4,8.4-7,9.9-12.1
			c1.1-3.6,0.6-7.6,2-11.1c1.3-3.3,4.1-5.8,6.2-8.7c2.1-2.9,3.7-6.7,2.2-9.9c1.2-6.6-2.2-13.6-4.4-20c-4.8-13.9-6.7-28.7-6.7-43.5
			c0-6.8,0.4-13.7-0.6-20.4c-2.8-19.5-16.5-36.8-16.1-56.4c0.2-8.3,1.6-14.7,2.6-23c0.7-5.7,1.2-12.3-2.9-16.4
			c-1.7-1.7-3.9-2.7-5.4-4.5c-1.8-2.2-2.1-5.2-2-8c0.1-4.5,1-9,2.7-13.3c0.9-2.3,2.1-4.6,4.2-5.9c1.4-0.9,3-1.2,4.7-1.5
			c4.9-0.9,9.8-1.5,14.8-1.8c1.7-0.1,3.5-0.1,4.9-0.9c2.3-1.2,3.5-3.7,4.8-6c4.9-8.5,13.3-15,22.9-17.4c9.4-2.4,14.8-12.4,20.1-20.6
			c2.4-3.6,4.2-7.5,6.6-11.2c2.8-4.5,6.2-8.6,9.7-12.7c3.8-4.5,7.5-9,11.3-13.5c2.7-3.2,5.4-6.4,8.8-8.8c4-2.8,8.8-4.3,13.3-6.3
			c4.2-1.8,8.3-4.1,12.1-6.8c2.1-1.5,4.2-3.2,5.5-5.5c2.3-4.2,1.2-9.3,0.6-14c-2.4-20.3,8.2-41.5,25.8-52c4.4-2.6,9.1-4.6,13.1-7.8
			c5.5-4.4,9-10.9,12.3-17.1c4.2-1.8,8.5-4,10.9-7.9c4.2-6.7,0.4-15.8,3.3-23.2c1.7-4.4,5.6-7.5,9.3-10.5c3.9-3.1,7.9-6.3,12.6-8.3
			c3.9-1.7,8.1-2.5,11.7-4.8c5.4-3.4,8.5-9.6,11.3-15.4c2.6-5.6,5.3-11.3,6-17.4c1.1-9.2-2.3-19.4,2.2-27.6c2.9-5.3,8.5-8.5,12.7-13
			c5.8-6.3,8.7-15.2,15.7-20.2c4.5-3.2,10.2-4.3,15.2-6.7c6.6-3.1,12.1-8.5,18.4-12.1c11.9-6.8,27.3-7.3,39.6-1.1
			c0.5,3.3,2.4,4.8,5.4,6.4c3,1.6,6.4,2.2,9.7,2.8c12.1,2.2,24.3,3.3,35,9.4l-9.9,18.1c-1.6,3-4.8,4.8-8.2,4.7l-27.4-1.2
			c-1.6,0-3.1-0.6-4.5-1.4l-0.4-0.3l-33.6,12.4c-2.1,0.8-4.4,0.7-6.5-0.1l-7.7,6.3l1.7,5.7c0.8,2.8,0.3,5.8-1.5,8.1l-9.8,12.5
			l-21.3,34.5c-0.4,0.6-0.8,1.2-1.3,1.6l-18.8,18.8c-1.9,1.9-4.5,2.8-7.2,2.6l-2.1-0.2l-11.5,21.1l-2.6,15.7c-0.3,1.9-1.2,3.7-2.7,5
			l-7.9,7.4l-1.6,14.4c-0.1,1.2-0.6,2.5-1.2,3.6l-16.5,27.9c-0.7,1.2-1.6,2.1-2.7,2.9l-9.8,6.5l-3.9,8.4c-0.7,1.6-1.9,2.9-3.3,3.8
			l-7.8,4.9l-3.7,7.7l-1,16.3c-0.1,2.3-1.2,4.5-2.9,6l-14.3,12.9l0.6,16.4c1.1,2.4,1.1,5.2-0.1,7.6l-5,10.1l-0.6,23.6l1.2,31.7
			c0.1,2.8-1.1,5.4-3.2,7.3l-0.4,0.4l-0.7,9.4c-0.1,1-0.3,1.9-0.7,2.9l-1.8,4.3l0.9,16.3c0.1,1.8-0.3,3.6-1.2,5.1l-13.9,23.1
			l-2.5,17.4c-0.1,1-0.5,1.9-0.9,2.8l-6.8,13.3l-2.8,10l1.2,7.1l1,1.6c1.4,2.3,1.7,5.1,0.9,7.6l7.4,5c1.5,1,2.6,2.4,3.3,4l1.4,3.5
			c1.2,3,0.7,6.6-1.4,9.1l-14.8,17.7l-6.6,19.3c-0.4,1.2-1,2.2-1.8,3.1l-4.6,5.1l-10,14.8l-2.6,10.3c-0.2,0.6-0.4,1.3-0.7,1.9
			l-5.4,10.3l0.7,3.7c0.2,1.2,0.2,2.3,0,3.4l-3.2,15.1c-0.8,3.9-4.1,6.8-8.1,7.1l-10.7,0.8l-16.8,16.8l-0.6,5.7
			c-0.3,2.5-1.6,4.8-3.7,6.4l-1.8,1.3l-2.4,11.9c-0.5,2.2-1.7,4.2-3.5,5.4l-13.5,9.8l-1.9,5.6c-0.4,1.2-1.1,2.3-1.9,3.3l-2.4,2.5
			l-4.1,11.9c-0.1,0.2-0.2,0.5-0.3,0.7l-18.3,41c-0.4,0.9-1,1.8-1.7,2.5l-6.4,6.7l7.5,1c0.5,0,1,0.2,1.4,0.3l14.6,4.4l10.3-7
			c1.7-1.2,3.7-1.7,5.7-1.5l6.7,0.5l1.2-1.5c0.6-0.7,1.3-1.3,2.1-1.8l12.4-8.1l1.4-3c1.5-3.4,5-5.4,8.6-5.2l10.1,0.6
			c0.5-0.5,1-1,1.6-1.3l0.7-2.9c0.6-2.3,2-4.2,3.9-5.4l15.5-9.7c0.8-0.5,1.8-0.9,2.7-1.2l2.9-0.7l2.4-1.3c2.3-1.2,5-1.4,7.4-0.4
			l3.2,1.2c3,1.2,5,3.7,5.5,6.7c2.5,1.8,3.9,4.7,3.7,7.7c1.8,1.7,2.8,4.1,2.8,6.6v8.2l2,1.3c1.8,1.1,3,2.8,3.6,4.8l2.9,9
			c0.7,2.2,0.5,4.6-0.5,6.7l-5.5,11.1l10.8,10.9c0.8,0.8,1.4,1.7,1.8,2.7c1-0.5,2-0.9,3.1-1l6-10.1c1.8-3.2,5.5-4.8,9.1-4.3l12.9,2
			l0.1-0.4c1.2-2.7,3.5-4.6,6.4-5.2c2.9-0.6,5.8,0.2,7.9,2.2l4.8,4.4c1.2,1.1,2,2.4,2.4,3.9c1.9-0.6,3.9-0.4,5.8,0.3
			c2.4,1,4.2,2.8,5,5.2l2,5.4l2.6,5.9c0.2,0.5,0.4,1,0.5,1.5l43.2,178c1.8,0.4,3.5,1.4,4.8,2.8l3.8,4.3l3.2,2.3
			c0.6,0.5,1.2,1,1.8,1.6l5.7,6.9l58.7,67.7c2.6-0.3,5.4,0.5,7.4,2.5l3.1,3c1.4,1.4,2.3,3.2,2.6,5.2c1.3,0.4,2.5,1,3.6,2
			c1.9,1.7,3,4.2,3,6.7v9.1l0.3,0.1c3.8,1.6,6,5.6,5.4,9.6l-1.4,8.9c-0.2,1.4-0.8,2.7-1.6,3.9l-0.6,0.9l-0.5,5.7
			c0.8,0.9,1.4,1.9,1.8,3l6.4,17.4c0.7,1.8,0.7,3.9,0.1,5.7l-1,3l4.2,23.6c0.5,2.7-0.3,5.4-2.1,7.4l-0.2,0.2l3.1,3.4
			c1.3,1.4,2.1,3.2,2.3,5.1l1.6,14.7c0,0.5,0,1.1,0,1.6l-1,14.7c-0.2,2.7-1.5,5.1-3.6,6.6c-1.1,2.6-3.3,4.6-6.1,5.3
			c-3.7,0.9-7.5-0.6-9.7-3.7l-4.8-7.2l-1.2-0.3l-0.4,4.3c-0.2,2.4-1.4,4.6-3.2,6l-5.4,4.4l-0.1,0.9c-0.3,1.7-1,3.2-2.1,4.5
			c-0.3,4.1-3.3,7.5-7.4,8.2l-1.7,0.3l0.4,0.3c1.2,1,2.2,2.3,2.8,3.7l3.7,9.2c0.5,1.1,0.6,2.2,0.6,3.4v19.6c0,2.4-0.9,4.7-2.6,6.3
			l-4.9,4.9l0.7,17.5c0.1,2.8-1.1,5.4-3.2,7.2l-2.2,1.8l0.5,36.1l1.5,1.3c2,1.7,3.1,4.2,3.1,6.8v4.5c2,1.6,3.2,4.1,3.3,6.7l0.4,11.7
			c0.1,2-0.6,4-1.7,5.6c0.9,1.4,1.4,3,1.5,4.8l0.3,13.1l6.9,5.5c2.1,1.7,3.4,4.2,3.4,6.9l0.2,14.8l1.4,1.9c1.6,0.6,4.7,1,6,2.1
			c1.9,1.7,0.8,5.6,0.7,8.1c-0.2,7,0.2,14.1,2.8,20.6c3.1,8.3,9.4,15.1,12.3,23.5c0.8,2.3,1.3,4.7,2.4,6.9c2.1,4.2,6.1,7.2,10,9.9
			c5.2,3.7,10.3,7.4,15.5,11c1,0.7,2.1,1.5,2.8,2.5c0.7,1,1.1,2.3,1.5,3.5c3.3,10.3,7.9,20.2,13.7,29.4c2,3.2,4.2,6.3,6.7,9.1
			c4.8,5.3,11,9.4,17.8,11.7c13.2,4.6,21.9,16.4,24,30.2c0.5,3,0.8,6.2,3,8.4c1.5,1.6,3.7,2.3,5.3,3.7c4.1,3.5,3.7,10.1,1.5,15.1
			c-2.3,4.9-6,9.1-7.7,14.3c-0.6,1.7-0.9,3.7,0.1,5.2c0.7,1,1.8,1.6,3,2.1c8.4,3.7,17.9,5,27,3.6c4.2-0.6,8.7-1.8,12.7-0.2
			c2.2,0.9,3.9,2.6,5.9,3.9c3.4,2.1,7.5,3,11.4,2.2c4.7-0.8,9.1-3.8,13.9-3.6c5.5,0.2,10.3,5,11.1,10.4s-1.7,11.1-6,14.5
			c-1.6,1.2-3.4,2.4-4.2,4.2c-1.8,4.3,3.2,8.1,6.8,11.1c5.3,4.4,8.5,10.7,12.7,16.2c4.2,5.5,10,10.6,16.9,10.6
			c-4,0-9.5,7.7-11.3,10.6c-3.5,5.8-2.7,8.5-1.3,14.8c3,13.4,1.1,27.2,1.8,40.8c0.3,5.3,0.1,9.3-1.7,14.3
			c-5,13.9-16.3,24.5-27.8,33.9c-8.7,7.1-17.6,13.9-26.9,20.2c-2.9,2-6,4.1-7.5,7.3c-1,1.9-1.3,4-2,6c-1.8,5-6,8.9-8.3,13.7
			c-1.7,3.6-2.3,7.6-2.9,11.6c-1.5,9.7-3,19.5-4.4,29.2c-1.5,9.7-2.8,20.1,1.8,28.6c3,5.6,8.4,9.7,11.7,15.1
			c7.2,11.4,4.8,26.4-0.9,38.6c-5.7,12.2-14.2,22.8-19.6,35.1c-6.8,15.5-8.7,33.8-20.2,46.1c-19.1,20.6-19.3,51.3-31.4,76.6
			c-2.5,5.3-5.2,10.7-9.9,14.1c-4.8,3.5-11.2,4.5-15.6,8.5c-5.4,4.9-6.1,12.9-8.1,20c-6.7,24.3-29,40.6-50.9,53
			c-21.9,12.4-45.8,23.9-60,44.7c-4,5.8-7.1,12.8-5.3,19.6c1.6,5.8,6.4,10,10,14.7c3.6,4.8,6.1,11.7,2.5,16.5
			c-9.7,2.9-19.6,5.8-29.7,4.9c-10.1-0.8-20.4-6.3-24.1-15.7c-2-5.2-1.8-11-4-16.2c-2.1-5.1-8.3-9.5-13.1-6.7
			c-4.2,2.4-4.4,8.4-6.4,12.8c-3.3,7.4-11.6,10.9-19.3,13.8c-7.7,2.8-16,6.2-19.4,13.6s3.4,18.6,10.9,15.5
			c-4.5,8.5,5.9,17.4,7.1,26.9c0.4,3.5-0.4,7-1.2,10.4c-5.4,22-10.9,43.9-16.3,65.9c-1.6,6.6-3.3,13.2-5.3,19.7
			c-6.5,21.2-16.7,41.2-30,58.9c-6.2,8.2-13.9,16.4-24,18.2c-6.3,1.1-12.8-0.5-19.1,0.5c-9.8,1.5-17.6,8.9-24.6,16
			c-7,7.1-14.5,14.6-24.2,16.7c-9.7,2.1-21.9-4.4-21.6-14.4c0.4-12,17.4-21.1,12.7-32.1c-1.1-2.7-3.4-4.7-5.6-6.5
			c-7.9-6.2-17.6-10.9-27.6-9.7c-9.9,1.1-19.4,9.7-18.7,19.7c-4.2,0.8-6.2-0.5-10.4,0.3c-2.4,0.5-5,1-6.9,2.5
			c-1.6,1.3-2.6,3.3-3.5,5.2c-4.1,8.6-8.1,17.3-12.2,25.9c-6.2,13.2-13.7,27.7-27.4,32.7c-4.7,1.8-9.8,2.2-14.4,4.3
			c-12,5.6-16.4,20.7-15.9,33.9s4.3,26.4,2.8,39.6c-1.6,14.3-9.2,27.1-16.7,39.3c-1.5,2.4-3.1,5-5.7,6.4c-3.6,1.8-7.9,0.7-11.8,0.2
			c-7.6-1-15.3,0.3-22.6,2.6c-36.5,11.6-61.5,47.3-69.2,84.8c-0.4,1.9-0.7,4,0.2,5.8c1.1,2.2,3.7,3,5.6,4.5
			c5.1,4.1,4.4,11.9,3.2,18.4c-1.8,9.7-3.6,19.5-5.4,29.3c-1.5,8.2-8.4,15.2-8.3,23.6c0,2.9,1.1,5.7,1.1,8.5
			c0,10.3-11.8,16.4-15.6,26c-3.2,8.3,0.2,17.7,4.8,25.4c4.6,7.7,10.5,14.8,12.7,23.5c1.5,5.9,1.2,12.2,2.5,18.1
			c1.9,8.9,7.3,16.6,12.6,24.1c1.5,2.1,3.1,4.3,5.5,5.1c2.9,1,6.6,0.1,8.5,2.4c0.8,1,1,2.4,1.1,3.7c2.9,26.8,5.9,53.7,5.8,80.7
			c0,14.3-1.2,29.6-9.8,41c-3.3,4.4-7.9,8.4-9,13.8c-1.2,5.8,1.7,11.6,4.3,16.9c10.9,22,18.4,45.6,22.4,69.8
			c1.5,9.5,2.5,19.2,6.3,28.1c4.3,10.3,12.2,19,14.4,29.9c0.6,3.3,0.7,6.6,1.8,9.8c1.8,5.7,6.4,10,9.9,14.8c3.5,4.8,6,11.4,3.2,16.7
			c-11.1,20.8-18.4,44.3-13.9,67.4c0.6,3.1,1.3,6.4,0.2,9.3c-1,2.5-3.2,4.4-5.6,5.8c-18.1,11.1-45.4,0-50.7-20.5
			c-1.3-5-1.6-10.6-5-14.5c-2.6-2.9-6.4-4.2-9.7-6.3c-11.1-7.2-13.9-22.2-13.5-35.4s2.7-27-2.1-39.3c-5.1-13.1-17.7-22.1-31.2-26.1
			c-13.4-4-27.8-3.6-41.8-2.4c-10.7,0.8-21.6,2.1-32-0.3c-10.5-2.4-20.6-9.1-23.8-19.4c-1.7-5.4-1.2-11.2-2.3-16.7
			c-1.4-7.4-5.7-14.3-11.7-18.8c-16.6-12.7-42.3-5-55.5,11.2c-13.2,16.2-16.8,38-18.7,58.8c-1.8,20.8-2.5,42.3-11.2,61.3
			c-4.4,9.6-11.9,19-22.3,20.9c-6.1,1.2-12.4-0.4-18.5,0c-21.8,1.3-34.6,24.1-46.7,42.3c-12.4,18.7-27.9,35.2-44.2,50.8
			c-6.1,5.8-12.5,11.7-15.5,19.6c-1.8,4.8-2.3,10.2-5.1,14.5c-5.9,9.2-18.8,9.6-29.7,10.5c-10.9,0.9-24.2,6.1-24.5,17.1
			c-0.2,8.9,8.9,15.8,9.3,24.8c0.5,10.4-11,17.4-21.3,18.7c-10.3,1.2-21.2-0.8-31,2.7c-21,7.5-25.9,34.5-27.4,56.8
			c-13.7,7.3-20.9,20.8-27.6,34.8c-2.3,4.8-4.6,9.7-5.3,15c-0.6,5.4,0.3,11.7-3.6,15.6c-2.6,2.7-6.7,3.2-10.4,3.6
			c-11.4,1.1-24.2,1.8-32.7-5.9c-7.3-6.6-10.2-18.4-19.6-21.2c-4.7-1.4-9.7,0-14.6-0.7c-4.9-0.6-9.5-3.5-12.2-7.6
			c-1.3-1.9-2.3-4.2-4.2-5.6c-5.3-4-12.7,1.9-14.6,8.2c-1.8,6.3-1.2,13.4-4.5,19.1c-2.4,4.1-6.7,6.7-9.7,10.5
			c-3,3.7-4.3,9.7-0.8,12.9c3.7,3.3,10.9,1.7,13.3,6c0.7,1.3,0.8,2.9,1.7,4.1c1.9,2.8,6,2.2,9.3,2.4c3.3,0.2,7.1,4,4.7,6.3
			c-3.3,4.6-10.5,3-15.7,0.8c-5.2-2.2-12.3-4.1-15.8,0.4c-1.3,1.6-2,4-4.1,4.4c-4,0.9-7.3-7-10.4-4.4c-2.9,10.3-4.7,23.8,4.2,29.7
			c1.4,0.9,3.1,1.7,3.8,3.2c1,1.9,0,4.2-1,6.1c-2.9,5.8-7.9,12.6-14,10.7c-7.6-2.4-5.6-13.6-8.9-20.8c-2.8,7-6.1,14.4-12.6,18.2
			c-7.3,4.3-16.9,2.6-24.1-1.9c-7.2-4.6-12.4-11.5-17.5-18.2c-5.4,6.5-7.3,15.8-4.8,23.9c3.6-0.1,5.9,4.6,4.6,8.1
			c-1.2,3.5-4.5,5.6-7.8,7.4s-6.7,3.5-8.6,6.6c-1.1,1.8-1.6,3.9-2.4,5.9c-3.1,7.8-10.8,13-18.9,15.1c-8.1,2.1-16.6,1.5-24.9,0.4
			c-3.6-0.5-7.2-1.1-10.9-0.8c-3.7,0.3-7.3,1.6-10.9,2.8c-16.8,5.9-33.5,11.8-50.2,17.7c-13.2-2.8-25.2,3.6-36.2,11.5
			s-21.2,17.3-33.9,21.6c-12.4,4.2-26.9,3.5-37,11.7c-5.1,4.2-11.2,10.8-16.7,7.2c-2-1.3-3.1-3.8-5.1-5.2c-4.5-3-10.5,1-14.1,5.1
			c-3.7,4.1-8.5,8.9-13.8,7.1c2.4-3.9-3-9-7.4-7.8c-4.4,1.2-6.9,6.1-7.4,10.7c-0.6,4.7,0.3,9.7,2.4,13.9c1.5,3,3.7,5.8,4.2,9.1
			c0.9,5.5-3.1,10.6-7.6,13.9s-9.8,5.3-14,9c-7.1,6.3-9.7,16.2-16.2,23.1c-7.5,8-19.3,11.2-26.3,19.6c-4.5,5.4-7.7,13.3-14.7,14.1
			c-3.2,0.4-6.7-1-9.7,0.2c-1.9,0.7-3.3,2.4-4.5,4c-9.3,12.2-16.9,27.7-31.4,32.8c-5.7,2-12.2,2.3-16.9,6.1c-2.8,2.3-4.6,5.5-7.3,7.8
			c-6.8,5.6-16.9,3.5-25.6,4.9c-32.5,5.4-37.6,63.4-70.5,63.4L1154.5,4720.2z"/>
	</g>
	<g id="orinoquia">
		<path class="st7" d="M2949.8,2902.7c-5.6-2.6-10.4-6.9-12.7-12.7c-2-5.2-1.8-11-4-16.2c-2.1-5.1-8.3-9.5-13.1-6.7
			c-4.2,2.4-4.4,8.4-6.4,12.8c-3.3,7.4-11.6,10.9-19.3,13.8s-16,6.2-19.4,13.6c-3.4,7.4,3.4,18.6,10.9,15.5
			c-4.5,8.5,5.9,17.4,7.1,26.9c0.4,3.5-0.4,7-1.2,10.4c-5.4,22-10.9,43.9-16.3,65.9c-1.6,6.6-3.3,13.2-5.3,19.7
			c-6.5,21.2-16.7,41.2-30,58.9c-6.2,8.2-13.9,16.4-24,18.2c-6.3,1.1-12.8-0.5-19.1,0.5c-9.8,1.5-17.6,8.9-24.6,16
			c-7,7.1-14.5,14.6-24.2,16.7s-21.9-4.4-21.6-14.4c0.4-12,17.4-21.1,12.7-32.1c-1.1-2.7-3.4-4.7-5.6-6.5
			c-7.9-6.2-17.6-10.9-27.6-9.7c-9.9,1.1-19.4,9.7-18.7,19.7c-4.2,0.8-6.2-0.5-10.4,0.3c-2.4,0.5-5,1-6.9,2.5
			c-1.6,1.3-2.6,3.3-3.5,5.2c-4.1,8.6-8.1,17.3-12.2,25.9c-6.2,13.2-13.7,27.7-27.4,32.7c-4.7,1.8-9.8,2.2-14.4,4.3
			c-12,5.6-16.4,20.7-15.9,33.9c0.5,13.3,4.3,26.4,2.8,39.6c-1.6,14.3-9.2,27.1-16.7,39.3c-1.5,2.4-3.1,5-5.7,6.4
			c-3.6,1.8-7.9,0.7-11.8,0.2c-7.6-1-15.3,0.3-22.6,2.6c-36.5,11.6-61.5,47.3-69.2,84.8c-0.4,1.9-0.7,4,0.2,5.8
			c1.1,2.2,3.7,3,5.6,4.5c5.1,4.1,4.4,11.9,3.2,18.4c-1.8,9.7-3.6,19.5-5.4,29.3c-1.5,8.2-8.4,15.2-8.3,23.6c0,2.9,1.1,5.7,1.1,8.5
			c0,10.3-11.8,16.4-15.6,26c-3.3,8.5,0.4,18.3,5.3,26c0,0,14-14.8,18.9-17.8c6.9-4.2,14.3-8,22.3-9.5c8-1.4,16.7-0.3,23.2,4.5
			c22,16.3,47.5,23.6,69.6,39.7c6.6,4.8,13.7,11,13.5,19.2c-0.1,5-3,9.7-2.6,14.7c0.6,7.3,7.7,11.9,13.9,15.7
			c38.7,24.2,70.2,64.9,70.8,110.6c0,4.8-0.2,9.8,1.2,14.5c2.9,10,12.4,16.4,21.5,21.3c11.6,6.2,23.7,11.4,35.9,16.6
			c12.8,5.4,25.5,10.9,38.3,16.3c11.4,4.8,22.9,9.7,35,12.5c20.8,4.7,42.5,2.8,63.8,0.7c14.7-1.4,29.9-3,42.9-10.1
			c13.2-7.2,22.9-19.3,31.4-31.6c13.5-19.3,25.3-39.9,35-61.3c5.1-11.2,10.3-23.4,21.1-29.4c10.7-6,28.1-0.3,28,12
			c-0.1,11.6-15.2,22.2-9.3,32.2c3.1,5.3,10.2,6.2,16.3,6.6c8.7,0.5,17.5,1.1,26.2,1.6c6.9,0.4,14,0.8,20.4-1.7
			c6.5-2.4,11.5-7.5,16.9-11.8c26-20.8,60.7-26.2,93.6-30.8c14.1-2,28.3-4,42.4-6c24.8-3.5,47.6,14.5,72.1,19.5
			c38.2,7.9,76.7-10.7,115.6-13.6c12.2-0.9,24.8-0.4,36-5.3c6-2.6,11.4-6.7,17.7-8.1c22.6-4.8,41.4,26,64,21c8-1.8,14.5-7.9,22.4-9.8
			c7.7-1.9,15.7,0.4,23.7,0c14.5-0.7,27-9.9,39-18c29.9-20,63.1-35,97.8-44.1c15.1-4,26-6.7,37.5-17.5c11.6-10.8,22.8-22,33.7-33.5
			c21.4-22.7,41.3-46.8,59.7-72c4.1-5.6,8.2-11.6,8.6-18.5c0.5-7.3-3-15.8,1.8-21.2c2.5-2.9,6.6-3.7,10.1-5.2
			c16.3-7,20.6-27.5,27-44.1c7.7-20,20.9-37.3,33.9-54.4c10.9-14.1,22-28.6,37.4-37.7c3.9-2.4,8.2-4.4,11-8c2.5-3.2,3.7-7.3,5-11.2
			c7.9-23,26.1-42.3,48.6-51.6c22.7-9.4,40.6-24.5,64.1-31.9c36.9-11.6,75-23.4,113.6-20c39.2,3.5,76.8,22.6,115.9,19.1
			c11.2-1,22.2-3.9,33-7.3c12.5-3.9,24.7-8.6,36.6-14c17.2-7.8,33.6-16.9,50.1-26.1c8.9-5,18.1-10.2,24.2-18.3
			c9.4-12.5,10.4-30,20.6-41.9c11.7-13.6,34.9-15,48.1-3c-9.1,27.7-29.1,50.2-49.7,70.8c-5,5-10.2,10.2-12.4,16.9
			c-1.3,4.1-1.4,8.5-2.2,12.8c-3,18.5-17.1,33.1-32,44.4s-31.5,20.7-43.8,34.8c-5.9,6.7-10.8,16.4-6.6,24.3
			c4.1,3.1,10.1,1.2,14.2-1.8c4.2-3,7.7-7.1,12.6-8.6c4.7-1.5,9.8-0.4,14.8-0.3c20.2,0.2,35.8-17,54.5-24.4c8.3-3.3,17.3-4.7,26.1-6
			c34-5.1,68-10.2,102-15.3c13.1-1.9,23.9-5.5,37.1-5.2c13.2,0.3,26.7,3.4,37.4,11.2c3.4,2.5,6.5,5.4,10.3,7.1
			c3.1,1.4,6.6,1.8,10,2.2c6.3,0.8,12.7,1.6,19,2.4c4,0.5,8.1,1,12.1,0.7c10.3-0.7,19.7-6.5,26.2-14.5c6.5-8,10-18,11.5-28.2
			c0.6-4.5,1-9,2.2-13.3c2-7.1,6.3-13.3,10.9-19.1c11.9-14.6,28.4-28.8,44.7-38.1c-0.1-2.1-0.9-4.2-2.4-5.7l-9.1-9.8l-2.8-15.9
			c-0.4-2.3-1.7-4.4-3.6-5.7l-24.7-17.7l-0.2-9.1c0-1.8-0.6-3.6-1.8-5.2l-1.6-2.2l0.3-8.5l2.4-2.2c1.5-1.4,2.4-3.2,2.7-5.2l3.7-24
			l10.2-25.3c0.4-1.1,0.6-2.2,0.6-3.4v-13c0-0.7-0.1-1.5-0.3-2.2l-6.8-27.3l-0.5-13.6l11-10.5c1.6-1.5,2.6-3.6,2.7-5.8l1.8-23.9
			c0.2-2.3-0.6-4.6-2-6.4l-2.4-2.8l2.9-2.5c1.9-1.6,3.1-3.9,3.3-6.3l0.6-8.5c0.3-3.9-2-7.5-5.6-8.9v-6.4c0-2.3-0.9-4.5-2.5-6.2
			l-7.3-7.6l0.6-2.4c0.1-0.5,0.2-1.1,0.3-1.6l0.8-8.6l0.2-0.1c2.5-1.6,4-4.4,4.1-7.3l0.2-12.5c0-2.8-1.2-5.5-3.5-7.2l-0.8-0.6v-2.4
			c0-3.3-1.8-6.3-4.7-7.9l-0.7-0.4c2.7-1.7,4.4-4.6,4.2-7.9l-0.2-5.7l5-4.3c1.8-1.6,3-3.8,3.1-6.1l8.1-1.9c2.2-0.6,4.2-1.9,5.4-3.8
			l4.6-7.1l13.1-3.3c2.4-0.6,4.3-2.1,5.5-4.2l6-10.3l29.3-20.1c2.4-1.7,3.9-4.4,3.9-7.4v-10.5l5.6-3.3c2.5-1.5,4.2-4.2,4.4-7.1
			l0.6-9.4c0.2-3-1.2-6-3.6-7.9l-6.3-4.6l0.2-0.3c1.7-2.8,1.7-6.4,0-9.2c0.6-1.2,0.9-2.6,0.9-4v-4.7c0-2.8-1.3-5.4-3.5-7.1l-4.2-3.3
			l0.3-6.2l3.8-1.8c2.1-1,3.7-2.8,4.5-5l2.6-7.3c1.3-3.6,0.2-7.6-2.8-10l-0.9-0.7l1.7-1.5c2-1.8,3.2-4.4,3-7.1l-0.7-17.3l6.5-9.2
			c3.6,0.6,7.3-1,9.2-4.2l1.8-3c1-1.7,1.4-3.6,1.2-5.4l5.8-4.8l9.2-3.6c2.4-0.9,4.3-2.9,5.2-5.4l3-8.7l19.1-16.7
			c0.6-0.5,1.1-1.1,1.5-1.8l3.9-5.9c0.5-0.7,0.9-1.6,1.2-2.4l3.1-10.5c0.7-2.4,0.4-5-0.9-7.2l-7.7-12.8c-0.8-1.4-2-2.5-3.4-3.3
			l-12.6-6.8l0.5-14.2c0-1.9-0.5-3.8-1.6-5.4l-2.2-3.2l5.4-1.7c4.2-1.3,6.9-5.6,6.1-10l-1.8-10.6c-0.6-3.4-3.1-6.2-6.4-7.2l-0.7-0.2
			l0.1-6.9c0.1-4.8-3.6-8.9-8.4-9.1l-5-0.3c-2.1-0.1-4.2,0.5-5.8,1.7l-2.7,2l-8.3-11.5c-1.8-2.6-4.9-4-8.1-3.7l-9.2,0.9l-5.4-4.1
			c-1.7-1.3-3.8-1.9-5.9-1.8l-10.4,0.6l-0.6-0.8c-1.7-2.1-4.2-3.4-7-3.4h-10.6c-2.1,0-4.2,0.8-5.9,2.2l-3.4,3
			c-1.7-2.9-4.8-4.8-8.2-4.6l-7.1,0.3c-1.1,0-2.1,0.3-3.1,0.7l-2.6-3.1c-1.7-2-4.2-3.2-6.8-3.2h-6.5c-2.2,0-4.3,0.8-5.9,2.2l-2.5,2.3
			l-10,0.2c-2.6,0-5.1,1.2-6.7,3.3l-4.4,5.4l-1.9-0.3c-3-0.5-6,0.6-8.1,2.8l-13.6,15h-0.4c-2.4,0-4.7,1-6.4,2.7l-13,13.2l-0.2-0.3
			c-1.6-2.5-4.3-4.1-7.3-4.2l-19.8-0.5l-14.2-8.5c-1.4-0.8-3-1.3-4.6-1.3h-9.1c-1.8,0-3.5,0.5-4.9,1.5l-14.2,9.4l-8.9-2.1
			c-2.6-0.6-5.3,0-7.4,1.6l-3,2.3l-2.6-0.5c-2.8-0.5-5.7,0.4-7.8,2.4l-12.9,12.4l-15.8-0.4l-3.6-2.7c-1.6-1.2-3.6-1.8-5.7-1.8
			l-13.3,0.4l-4.3-5.7c-1.7-2.3-4.3-3.6-7.2-3.6h-4.1c-4.7,0-8.5,3.6-8.9,8.3v0.9l-15.1,2.9l-4.2-1.5c-4-1.4-8.4,0.1-10.7,3.7
			l-4.7,7.6l-1.1-1.9c-1.6-2.8-4.6-4.6-7.8-4.6h-11.8c-2.3,0-4.4,0.9-6.1,2.4l-13.7,12.7l-9-1.9c-1.5-0.3-3.1-0.3-4.6,0.2l-6.7,2.1
			l-9.1-13c-1.6-2.3-4.1-3.6-6.9-3.8l-22.1-1.1c-1.3,0-2.5,0.1-3.6,0.6c-1.5-1.3-3.4-2.1-5.4-2.3l-10.6-0.6c-2.4-0.1-4.8,0.7-6.6,2.4
			l-4.5,4.1h-5l-0.9-1.2c-1.9-2.5-5-3.9-8.1-3.5l-5.3,0.6c-1.6,0.2-3.1,0.8-4.3,1.7l-13.3-10.4c-1.6-1.2-3.5-1.9-5.5-1.9h-7.1
			c-1.6,0-3.1,0.4-4.5,1.2l-7.7,4.5l-2.5-0.8l-3-3.8c-1.6-2-4.1-3.3-6.7-3.4l-17.1-0.6c-3,0-5.9,1.3-7.7,3.8l-2.8,4
			c-2.9,0.6-5.4,2.7-6.5,5.5l-6,15.5h-5.1c-3.1,0-6,1.6-7.6,4.2l-11.1,17.8l-7.1,0.4c-2.2,0.1-4.3,1.1-5.9,2.6l-3.4,3.4l-1.6-3.6
			c-1.1-2.5-3.3-4.4-6-5.1l-2.2-0.6l-2.6-8.2c-0.6-1.9-1.8-3.6-3.5-4.7l-9.4-6.5c-4-2.8-9.5-1.8-12.3,2.1l-7.9,10.9h-4.7l-266.8-332
			c-1.8-2.2-4.4-3.4-7.2-3.3l-17,0.4c-0.6,0-1.1,0.1-1.6,0.2l-11.5,2.4l-10-0.7c-1.8-0.1-3.7,0.3-5.3,1.3l-26.4,16.4h-3.9l-4.3-4.8
			c-0.4-0.5-0.9-0.9-1.4-1.2l-22-15.9c-2.1-1.5-4.8-2-7.3-1.4l-5.4,1.3l-6.6-5.4c-1.8-1.4-4-2.1-6.2-1.9l-19.3,1.2l-8.8-8.3l-0.2-5.7
			c-0.1-2.4-1.2-4.8-3.1-6.4l-5.8-5c-1.6-1.4-3.7-2.2-5.9-2.2h-7.3c-2.4,0-4.7,0.9-6.3,2.6l-1.6,1.6h-15.9l-12.9-12.2
			c-1.7-1.6-3.9-2.4-6.1-2.4h-5.4c-2.6,0-5.1,1.2-6.8,3.1l-3.7,4.4l-6.1-0.2c-1.6,0-3.1,0.3-4.5,1l-4.6,2.4h-15.1
			c-1.8,0-3.5,0.5-4.9,1.5c-1.7-1.9-4.1-3-6.7-3h-4.6c-3.7,0-7.1,2.4-8.4,5.9l-0.3,0.7c-1-0.4-2-0.7-3.1-0.8
			c-2.5-0.2-4.9,0.7-6.7,2.4l-11.5,10.8l-16.9,6.7c-0.9,0.4-1.8,0.9-2.5,1.5l-17,14.6l-5.4,0.3l-0.2-0.2c-1.7-1.9-4.2-3-6.7-3h-14
			l-10.5-14.5c-1.3-1.8-3.3-3.1-5.5-3.6l-8.1-1.6c-2.6-0.5-5.3,0.2-7.4,1.8l-1.8,1.5h-17.7c-2.3,0-4.5,0.9-6.2,2.5l-1.8-2.8
			c-1.7-2.5-4.4-4-7.4-4h-5c-2.7,0-5.4,1.2-7,3.4l-1.6,2h-7.3c-2.1,0-4.1,0.7-5.7,2l-1.8,1.5l-11.5,0.2l-7.3-9
			c-1.8-2.2-4.6-3.5-7.4-3.3l-6.2,0.4c-4.1,0.2-7.5,3.2-8.3,7.3l-0.5,2.4l-0.8,0.5c-0.3-3.8-3.1-7.1-6.9-8l-3.5-0.8
			c-3.6-0.8-7.4,0.6-9.4,3.7c-0.9-0.4-1.9-0.7-3-0.8l-21.2-1.9c-1.8-0.2-3.5,0.2-5,1l-0.1-0.8c-0.5-2.6-2.1-4.8-4.4-6
			c-2.3-1.3-5-1.5-7.5-0.6l-5.3,1.9l-2.2-2c-1.7-1.5-3.8-2.4-6.1-2.4h-6.2c-3.8,0-7.2,2.4-8.4,5.9l-1.8,5.2l-8.5-0.4l-3-5.9
			c-1.5-3-4.6-4.8-7.9-4.8h-3.5c-1.5,0-3,0.4-4.3,1.1l-1.5-1.3c-2.2-1.9-5.2-2.6-7.9-1.9l-6.2,1.5c-1.4,0.4-2.7,1.1-3.8,2l-15.2,13.6
			h-7.8c-1.7,0-3.4,0.5-4.8,1.4l-2.1,1.3l-0.3-0.3c-1.7-2.2-4.3-3.6-7.2-3.6h-5.8c-3.2,0-6.2,1.7-7.8,4.5l-0.4,0.7l-4.4-0.1
			c-0.3-0.1-0.7-0.2-1-0.2l-20.2-1.7l-11.5-6.1l-43.4-75.3l-0.1-6.2l0.1-0.4c0.4-1.1,0.5-2.2,0.5-3.4l-1.2-20.2
			c-0.2-3-1.8-5.6-4.2-7.1l-1.2-9.4c-0.3-2.4-1.5-4.5-3.4-6l-10.6-8.1c-1.6-1.2-3.6-1.8-5.6-1.8l-14.2,0.2c-1.9,0-3.7,0.6-5.3,1.8
			l-2.8,2.1h-12.2c-1.8,0-3.6,0.6-5.1,1.6l-29.6-3.3c0,0-0.2,0-0.6-0.1c1.7,1.8,0.6,5.5,0.6,7.9c-0.2,7,0.2,14.1,2.8,20.6
			c3.1,8.3,9.4,15.1,12.3,23.5c0.8,2.3,1.3,4.7,2.4,6.9c2.1,4.2,6.1,7.2,10,9.9c5.2,3.7,10.3,7.4,15.5,11c1,0.7,2.1,1.5,2.8,2.5
			c0.7,1,1.1,2.3,1.5,3.5c3.3,10.3,7.9,20.2,13.7,29.4c2,3.2,4.2,6.3,6.7,9.1c4.8,5.3,11,9.4,17.8,11.7c13.2,4.6,21.9,16.4,24,30.2
			c0.5,3,0.8,6.2,3,8.4c1.5,1.6,3.7,2.3,5.3,3.7c4.1,3.5,3.7,10.1,1.5,15.1c-2.3,4.9-6,9.1-7.7,14.3c-0.6,1.7-0.9,3.7,0.1,5.2
			c0.7,1,1.8,1.6,3,2.1c8.4,3.7,17.9,5,27,3.6c4.2-0.6,8.7-1.8,12.7-0.2c2.2,0.9,3.9,2.6,5.9,3.9c3.4,2.1,7.5,3,11.4,2.2
			c4.7-0.8,9.1-3.8,13.9-3.6c5.5,0.2,10.3,5,11.1,10.4c0.9,5.4-1.7,11.1-6,14.5c-1.6,1.2-3.4,2.4-4.2,4.2c-1.8,4.3,3.2,8.1,6.8,11.1
			c5.3,4.4,8.5,10.7,12.7,16.2c4.2,5.5,10,10.6,16.9,10.6c-4,0-9.5,7.7-11.3,10.6c-3.5,5.8-2.7,8.5-1.3,14.8
			c3,13.4,1.1,27.2,1.8,40.8c0.3,5.3,0.1,9.3-1.7,14.3c-5,13.9-16.3,24.5-27.8,33.9c-8.7,7.1-17.6,13.9-26.9,20.2
			c-2.9,2-6,4.1-7.5,7.3c-1,1.9-1.3,4-2,6c-1.8,5-6,8.9-8.3,13.7c-1.7,3.6-2.3,7.6-2.9,11.6c-1.5,9.7-3,19.5-4.4,29.2
			c-1.5,9.7-2.8,20.1,1.8,28.6c3,5.6,8.4,9.7,11.7,15.1c7.2,11.4,4.8,26.4-0.9,38.6c-5.7,12.2-14.2,22.8-19.6,35.1
			c-6.8,15.5-8.7,33.8-20.2,46.1c-19.1,20.6-19.3,51.3-31.4,76.6c-2.5,5.3-5.2,10.7-9.9,14.1c-4.8,3.5-11.2,4.5-15.6,8.5
			c-5.4,4.9-6.1,12.9-8.1,20c-6.7,24.3-29,40.6-50.9,53c-21.9,12.4-45.8,23.9-60,44.7c-4,5.8-7.1,12.8-5.3,19.6
			c1.6,5.8,6.4,10,10,14.7c3.6,4.8,6.1,11.7,2.5,16.5c-9.7,2.9-19.6,5.8-29.7,4.9c-3.9-0.3-7.9-1.3-11.4-3L2949.8,2902.7z"/>
	</g>
	<g id="amazonia">
		<path class="st7" d="M4857.6,3138.3l0.8,21.5c0.1,3.2-1.5,6.3-4.2,8l-2,1.2l-4.1,20l-0.7,12.7l1.7,2c1.1,1.3,1.8,3,2,4.7l1.4,12.7
			l20.1,19.3c1.5,1.4,2.4,3.3,2.7,5.4l2.2,17.4l1.3,1c2.3,1.7,3.6,4.4,3.6,7.2v3.3l1.1,0.5c3.3,1.5,5.3,4.9,5.2,8.5l-0.8,18.9
			c-0.1,1.8-0.7,3.6-1.8,5l4.1,6c0.7,1.1,1.2,2.3,1.4,3.5l1.8,10.6l5.7,5c1.1,0.9,1.8,2,2.4,3.3l4.1,9.8l0.9,0.6
			c3.5,2.2,5,6.4,3.8,10.3l-2.1,6.7c-0.3,0.8-0.6,1.6-1.1,2.3c0.3,0.3,0.6,0.7,0.8,1.1l9,14.2l4.1,0.2c1.8,0.1,3.5,0.7,4.8,1.7
			c1.2-1,2.6-1.6,4.2-1.8l4.3-0.6l1.3-3.6c1.1-3,3.8-5.3,7-5.8l6.6-1.1c4.6-0.7,9,2.2,10.1,6.7l0.4,1.6l3.1,2c2.3,1.5,3.8,4,4,6.7
			l1.2,13l12.5,13.6c1.5,1.6,2.3,3.7,2.4,5.9l0.1,4.7l1.5,1c2.7,1.8,4.2,4.8,4,8l-0.6,11.3c-0.1,1.9-0.8,3.8-2.1,5.3l0.9,0.5
			c2.8,1.5,4.6,4.4,4.8,7.6l0.1,4.4l6.6,9.5c1.1,1.6,1.7,3.4,1.6,5.4l-0.3,12.7l1.5,2.4l7.1,0.8c1.3,0.1,2.5,0.6,3.6,1.2l11,6.7
			c1.8,1.1,3.1,2.8,3.8,4.7l3.3,9.5l6.6,6.4c1.8,1.7,2.7,4.1,2.7,6.6l-0.2,10.2c0,2.9-1.5,5.6-3.9,7.2l-3,2l-0.3,6.8
			c-0.1,1.9-0.8,3.8-2,5.4l-6.2,7.5c-1,1.2-2.2,2-3.6,2.6l-7.1,2.8l-1.5,2l1,8.7c0.5,4.5-2.4,8.7-6.9,9.7l-12.2,2.8l-156.9,147.5
			l11.8,0.4l1-1.2c1.6-2,4.1-3.2,6.7-3.3l6.5-0.2c3.7-0.1,7.1,2,8.5,5.4l2.2,5.2l13,4.8h11l3.8-4.1c1.9-2,4.6-3,7.3-2.8l7.3,0.6
			c2.4,0.2,4.6,1.4,6.1,3.2l7.5,9.1c1.6,1.9,2.3,4.4,1.9,6.9l-0.6,3.9l3.8,9.7l6.9,6.6c2,1.9,3,4.6,2.8,7.3l-0.8,8.3h7.3
			c2.8,0,5.4,1.2,7,3.4l2.6,0.5c2.1,0.4,4.1,1.5,5.4,3.2l21.8,26.9l6.3,2.4c1.9,0.7,3.5,2.1,4.5,3.9l5.3,9.1l17.3,12
			c1.7,1.2,3,3,3.6,5l3.2,11.8l10.7,16.7l8,0.8c2.4,0.2,4.7,1.5,6.2,3.5l13.1,17l12.2,8.6c2.3,1.6,3.7,4.2,3.8,7l0.4,10.9
			c0.1,2.4-0.8,4.7-2.4,6.5l-7.1,7.6c0.5,1.3,0.7,2.8,0.5,4.2l-0.8,6.9c-0.2,1.6-0.8,3.1-1.8,4.4c0.3,0.4,0.6,0.8,0.9,1.2l4.6,7.3
			c0.7,1.1,1.2,2.4,1.3,3.6l1.8,14.5l2.1,0.8c2.4,0.9,4.2,2.8,5.2,5.2l2.6,6.7c1.3-0.9,2.8-1.4,4.4-1.4l3.9-0.2
			c2.3-0.1,4.5,0.6,6.3,2.1l5.9,5c2,1.7,3.1,4.2,3.1,6.8l0.1,9.8c3.5,1.4,5.7,4.8,5.7,8.5l-0.2,11.7c0,2.8-1.4,5.4-3.7,7.1l-0.7,0.6
			l-2.1,13.3c-0.2,1-0.5,2-1,2.9c1.5,0.7,2.9,1.8,3.8,3.2l13.3,20c0.7,1.1,1.2,2.3,1.4,3.6l2.1,13.2l9.5,11.5
			c1.8,2.2,2.5,5.1,1.8,7.9l-1.1,4.4c-0.2,0.8-0.5,1.6-1,2.4c1.2,1.4,1.9,3.2,2,5l0.6,8.4l6.2,7.4c0.9,1.1,1.5,2.4,1.9,3.7l5.4,23
			l2,1.4c2,1.4,3.4,3.6,3.7,6l1.6,10.3l3.9,3c1.6,1.2,2.7,3,3.2,4.9l1.2,5c0.6,2.4,0.1,5-1.2,7.1c1.2,1.3,1.9,2.9,2.2,4.7l0.3,2
			l2.5,1.8c1.7,1.2,2.9,2.9,3.5,4.9l4.2,15.1l5.4,3.2c2.4,1.4,4.1,4,4.4,6.8l1.2,12.1c0.3,2.8-0.7,5.5-2.7,7.4l-1.6,1.5l-0.1,1.8
			l2.1,4.1l14.8,12.3c1.7,1.4,2.8,3.3,3.1,5.5l1.3,8.2c2.4,1.7,3.8,4.4,3.8,7.3v4.2c0,2.6-1.1,5-3,6.7l-0.6,0.5
			c-0.1,1.4-0.6,2.8-1.3,4l-4.1,6.6l0.1,18l1.6,1.5c1.9,1.8,2.9,4.3,2.8,6.9l-0.4,8.5c-0.2,3.9-2.9,7.2-6.6,8.2l-72.7,19.8
			c-0.8,0.2-1.6,0.3-2.4,0.3c-2.4,0-4.7-1-6.4-2.7c-2.3-2.3-3.1-5.7-2.2-8.8l0.7-2.3l-2.6-3.7c-1.6-2.3-2-5.3-1.2-7.9l1.5-4.7
			l-3.4-2.8c-1.4-1.2-2.4-2.8-3-4.7l-4.5-17.4l-4.9-4.5c-1.4-1.2-2.3-2.9-2.7-4.7l-3.4-15.4c-0.4-1.8-0.2-3.6,0.4-5.2l5.1-13.2
			c1.2-3,3.7-5,6.9-5.5l4-0.6l2.3-2.3c-1.1-1.4-1.7-3.1-1.8-4.8l-0.6-10.3c-0.1-2.2,0.6-4.4,2-6.2l1.5-1.8l-19.4-13.5
			c-1.8-1.2-3-3-3.6-5l-1.3-5.1l-2.6-1.6c-2.4-1.5-4-4-4.3-6.8c-0.3-2.8,0.8-5.6,2.9-7.5l2.9-2.6l0.3-8.9l-0.1-0.1
			c-2.7-2.7-3.4-6.9-1.7-10.3l1.1-2.2l-11.1-8.4c-1.5-1.2-2.6-2.7-3.1-4.5l-3.6-11.9c-0.7-2.5-0.4-5.3,1.1-7.4l4.3-6.7l-1.1-17.7
			l-3.1-6.3c-1.9-0.1-3.8-0.8-5.3-2.1l-0.1-0.1c-1.7,1-3.7,1.5-5.7,1.2l-11-1.4c-1.5-0.2-3-0.8-4.2-1.7l-23.8-17.9
			c-1.8-1.3-3-3.3-3.4-5.5l-0.9-5l-9.5-11c-1.8-2.1-2.5-4.9-2-7.7l1.3-6.4l-3-1.6c-2.9-1.4-4.8-4.3-4.9-7.6l-0.2-3.8
			c-1.7-1.4-2.8-3.5-3-5.8c-0.4-3.5,1.3-6.9,4.3-8.7l2.9-1.7l-0.4-4.4c-0.2-2.3,0.5-4.5,1.8-6.2l-8.3-5.4c-2.3-1.5-3.7-3.9-4-6.6
			l-0.9-8.3c-0.4-3.2,1.1-6.3,3.6-8.1c0-0.1-0.1-0.2-0.1-0.4l-3.6-8.7c-0.5-1.2-0.7-2.4-0.7-3.7l0.3-9.8l-5.9-3l-3.2,1.3l0.5,3.7
			c0.3,2.3-0.3,4.6-1.6,6.4l-7.3,10.1c-1.6,2.2-4,3.5-6.7,3.6l-11.1,0.7l-9.7,10.6l0.2,4.5c0.1,1.4-0.2,2.8-0.7,4.1l-6,13.7
			c-0.5,1.2-1.3,2.3-2.3,3.2l-15.1,13.3c-1.3,1.2-2.9,1.9-4.7,2.1l-16,2.3c-1.2,0.2-2.5,0.1-3.7-0.2l-8.5-2.4h-9.7l-4.8,8
			c-1.3,2.2-3.5,3.7-6,4.2l-11.3,2.3l-2.9,2.6l-12.1,12.6c-0.7,0.8-1.6,1.4-2.6,1.9l-17.1,8.1l-2.8,5.1c-0.8,1.5-2.1,2.8-3.6,3.6
			c1.6,1.7,2.4,3.9,2.4,6.3l-0.1,3.9l2.3,2.3c2,2,2.9,4.8,2.5,7.7l-0.8,5.2c-0.3,2.1-1.4,4.1-3,5.4l-1.7,11c-0.6,4.2-4.3,7.4-8.6,7.6
			l-14.8,0.4c-1.5,0-3-0.3-4.4-1l-35.2-18.3c-0.8-0.5-1.6-1-2.3-1.7l-25.4-26c-1.3-1.3-2.2-3-2.4-4.9l-0.8-5.5l-13.9-15.6l-7.4-2
			c-1.4-0.4-2.7-1.1-3.7-2l-13.2-12.1h-1.6l-2.2,5.9c-0.3,0.8-0.7,1.6-1.3,2.3l-8.6,11l-0.1,8.5c0,1.4-0.4,2.9-1.1,4.1l-2.5,4.6h1.1
			c4.8,0.4,8.5,4.4,8.4,9.2l-0.2,7.8l8.9,0.3c4.2,0.2,7.7,3.2,8.5,7.3l0.5,2.6c1.4,1.3,2.3,3.1,2.7,5l1.5,0.5
			c3.9,1.2,6.5,4.8,6.3,8.9l-0.4,10.6c-0.2,4.8-4.2,8.6-9,8.6h-457.7c-2.4,0-4.7-0.9-6.3-2.6l-3.1-3.1l-5.4,0.1
			c-2.7,0.1-5.2-1.1-7-3.1l-4.3-4.9l-10.9-0.9c-1.5-0.1-3-0.6-4.3-1.5l-1.7-1.2h-7.7c-2.9,0-5.6-1.4-7.3-3.7l-0.3-0.4l-12.7-3.7
			c-1.1-0.3-2-0.8-2.9-1.5l-1.1-0.8h-2l-1.8,2.3c-1.2,1.5-2.9,2.6-4.8,3.1l-10,2.6l-8.6,9.5c-1.7,1.8-4.1,2.9-6.6,2.9h-23.1
			c-2.3,0-4.5-0.9-6.2-2.5l-1.8-1.8l-2.8,0.4l-1.9,1.8c-1.7,1.5-3.8,2.3-6,2.3h-3.2l-5.1,4.7c-1.6,1.5-3.6,2.3-5.8,2.4l-12.1,0.4
			v217.4l2.6-2.4c1.7-1.5,3.9-2.4,6.1-2.3h3.6l0.1,0c1.7-2.4,4.4-3.9,7.3-3.9l16.2-0.1c4.1,0,7.8,2.8,8.8,6.8l1.8,7.1l3.3-1.7
			c1.6-0.8,3.4-1.1,5.1-0.9l1.1,0.1c1.7-2.7,4.7-4.2,7.9-4.2l8.8,0.3c2.9,0.1,5.4,1.5,7.1,3.9l2.5,3.6h2.2c1.9,0,3.7,0.6,5.3,1.7
			l4.4,3.2l8.4-0.6l2.5-2c1.5-1.2,3.3-1.9,5.3-2l17.2-0.7c2.9-0.1,5.8,1.2,7.5,3.6l0.2,0.2l1.2-0.2c2.4-0.5,4.9,0,6.9,1.5
			c1.8,1.3,3.1,3.2,3.6,5.4l4.4-6.6c1.7-2.6,4.6-4.1,7.8-4l11.9,0.4c1.1-1.1,2.4-2,3.9-2.4l2.5-0.7c4.2-1.2,8.7,0.7,10.6,4.7l2.8,5.7
			l0.8,0.6l2.6-0.1c3.1-0.2,6,1.3,7.7,3.7l7.8,0.2c2.5,0.1,4.8,1.2,6.5,3.1l3,3.4c1.1,1.3,1.8,2.9,2.1,4.6l3.4,1.6
			c1.2,0.6,2.3,1.4,3.2,2.4l4.1,5c1.3,1.7,2.1,3.7,2,5.9l-0.1,7.9c0,0.8-0.1,1.7-0.4,2.4c0.2,0.3,0.5,0.6,0.6,0.9h1.2
			c1.9,0.1,3.8,0.8,5.3,2.1l4.8,4c1.9,1.5,3,3.8,3.2,6.2l0.3,3.6c0.3,3.9-2,7.6-5.6,9.1c0.6,1,0.9,2,1.1,3.1l0.2,1.4l4.5-0.5
			c2.5-0.3,5,0.5,6.9,2.2c1.9,1.7,3,4.1,3,6.6l0.1,11.4c0,4.9-3.8,9-8.8,9.1h-1.3c1,1.2,1.7,2.6,1.9,4.2c3,1.5,4.9,4.6,4.8,8
			l-0.1,15.2c0,4.2-3,7.9-7.3,8.7l-4.2,0.8c0.3,0.6,0.6,1.2,0.8,1.8l0.1,0.3l5.4,1.5c3.1,0.9,5.4,3.3,6.2,6.4l2.6,10.4l6.7,4.8
			c3.8,2.8,4.8,8.1,2.2,12.1l-4.8,7.5c-1.5,2.3-4,3.8-6.8,4.1c-2.8,0.2-5.5-0.8-7.3-2.9l-1.8-1.9l-3.5,0.1c-2.6,0.1-5-0.9-6.8-2.7
			c0.4,2.8-0.6,5.6-2.7,7.6l-11.6,11.2c-1.6,1.5-3.6,2.4-5.7,2.5l-5.7,0.3c-3,0.1-5.9-1.2-7.7-3.6l-11.8-0.8c-4.4-0.3-8-3.8-8.3-8.3
			l-0.1-1.4h-4.2c0,0-0.2,0.2-0.3,0.4l-4.3,4.4c-1.8,1.8-4.2,2.8-6.7,2.7l-4.4-0.1c-2.6-0.1-5.1-1.3-6.7-3.4c-1.6-2-2.3-4.7-1.8-7.3
			l0.6-3.2l-15.4-10.7c-0.6-0.4-1.1-0.8-1.5-1.3l-10.9-12.1c-1.5-1.7-2.4-3.9-2.3-6.2v-0.9l-2.7-1.4c-0.6,0.5-1.2,0.8-1.9,1.1l-8,3.2
			l-6.6,11.5c-0.8,1.4-1.9,2.5-3.3,3.3l-7.2,4.1c-2,1.2-4.3,1.5-6.5,0.9l-1.1,1.1c0.1,2.3-0.6,4.6-2.2,6.4l-8.4,9.7
			c-2,2.4-5.2,3.5-8.3,3l-5.2-0.9c-3.8-0.6-6.7-3.7-7.3-7.4l-2.7-1c-2.7-1-4.6-3.2-5.4-5.9l-1.7-0.5c-0.6,0.6-1.2,1.2-1.9,1.8l-9,6
			l-3.4,6.7c-1.1,2.1-2.9,3.7-5.2,4.5l-15.3,5.1l-4.2,4.8c-1.5,1.7-3.6,2.8-5.8,3l-11.2,1.2c-3.3,0.3-6.6-1.2-8.4-4l-0.4-0.6
			l-7.6,3.2c-1.5,0.6-3.2,0.8-4.8,0.6l-12.3-1.8l-3.7,5.4c-1.6,2.3-4.1,3.7-6.8,3.8l-7.7,0.5c-2.5,0.1-5-0.8-6.8-2.5l-3.3,3.3
			c-1.8,1.8-4.2,2.7-6.7,2.6l-2.5-0.1v250.7l5.1,6.6c1.3,1.7,2,3.8,1.8,6l-0.3,5.3c-0.1,2-0.9,4-2.3,5.5l-1.7,1.8l1.7,1.4
			c1.2,1,2,2.3,2.6,3.7l3.4,9l13.5,14.7l7.7,3.1c1.4,0.6,2.7,1.5,3.6,2.7l9,11.2l20.5,2.9c2.5,0.4,4.8,1.8,6.1,3.8l6.1,9.1l16.4,6.5
			c1,0.4,1.8,0.9,2.6,1.6l21.5,19.1l16.6,8.5l12.6,3.1c2.4,0.6,4.6,2.3,5.7,4.5l2.4,4.5l1.2,0.4c1.7,0.5,3.2,1.5,4.3,2.9l3.1,3.8
			c1.6,2,2.3,4.7,1.8,7.2c-0.1,0.8-0.4,1.7-0.8,2.4l1.2,0.9c2.3,1.6,3.7,4.2,3.8,7.1l0.3,10.6c0,1.7-0.4,3.2-1.2,4.7l6.7,4.8
			c2.2,1.6,3.5,4,3.7,6.7l0.7,11.8c0.2,3.2-1.3,6.3-4.1,8.1l-0.6,0.4v0.7c-0.1,2.5-1.2,4.9-3.2,6.6l-6.6,5.6v6.6c0,2.7-1.2,5.3-3.4,7
			l-0.9,0.7c0.5,0.6,1,1.2,1.3,1.8l8,14.8l9.5,7.7c2.2,1.8,3.4,4.4,3.3,7.3l-0.1,4.1l7.7,5.3c2.2,1.5,3.5,3.8,3.8,6.4l0.2,0.1
			c3.6,1.8,5.6,5.7,4.9,9.7l-1,5.4c-0.3,1.6-1,3-2.1,4.2l4.4,6.1l4.7,0.4c3.1,0.3,5.9,2.1,7.3,4.9l4.5,8.9l0.5-0.1
			c2.7-0.7,5.6-0.1,7.9,1.6l6.8,5.3c3.1,2.4,4.3,6.7,2.8,10.4l-1.6,4c0,0-0.1,0.4-0.2,0.5c0.7,1.2,1.1,2.7,1.1,4.2v1.8l1.6,1.3
			c3.3,2.7,4.2,7.5,2.2,11.3l-1.1,2c0.8,0.5,1.6,1.1,2.2,1.8l9.3,11.5c2,2.4,2.5,5.8,1.4,8.7l-1.5,4c-1,2.8-3.4,4.8-6.2,5.6
			c-0.1,0-3.3,3.9-3.3,3.9l-0.9,15.9c-0.1,2.5-1.3,4.7-3.1,6.3c0.8,1.5,1.2,3.2,1.2,5l-0.1,2.6l3,2.4c2.1,1.7,3.3,4.2,3.4,6.8
			l0.4,20.4l0.6,0.5c2.9,2.1,4.3,5.8,3.5,9.3l-2.2,9.4c-0.9,3.7-4,6.5-7.8,6.8l-1.9,0.2l-0.4,0.5l-1.9,28.1c-0.2,2.6-1.5,5.1-3.6,6.6
			l-3.2,2.4l1.1,2.9l0.4,0.3c2.7,2,4,5.4,3.4,8.7L4024,6463.7c-0.6,3.4-3.1,6.1-6.4,7c-0.8,0.2-1.6,0.3-2.4,0.3c-2.5,0-5-1.1-6.7-3
			l-7.6-8.6c-3.2,1.8-7.3,1.6-10.2-0.8l-4.2-3.6c-1.7-1.4-2.8-3.4-3.1-5.5l-0.6-4.2l-2.2-1.6c-3.2-2.4-4.4-6.6-3-10.3l1.1-3l-7.9-8.4
			c-1.3-1.4-2.2-3.2-2.4-5.1l-0.4-3.5l-2.4-1.4c-2.1-1.2-3.6-3.2-4.2-5.5l-1.1-4.3l-9.5-10.4l-4.2-1.1c-1.9-0.5-3.6-1.6-4.8-3.1
			l-13.3-16.8c-0.7-1-1.3-2-1.6-3.2l-1.8-6.8l-4.2-6c-1.8,0-3.6-0.4-5.1-1.4l-5-3.2c-1.7-1.1-2.9-2.6-3.6-4.5l-1.1-3l-6.3-3.5
			c-1.1-0.6-2.1-1.5-2.9-2.5l-4.6-6.2l-3.5-0.8c-1.2-0.3-2.4-0.9-3.4-1.6c-1.8,1.2-4,1.8-6.2,1.5l-11.8-1.5l-6.7,7.3
			c-0.5,0.5-0.9,0.9-1.5,1.3v8.1c0,4.7-3.6,8.6-8.4,8.9l-6.5,0.5c-4,0.3-7.7-2.1-9-5.9h-7.3c-1.8,0-3.6-0.6-5-1.6l-6.9-4.7
			c-1.3-0.9-2.3-2.1-3-3.4l-6.5-0.3l-16.8-0.9c-0.9,0-1.8-0.2-2.7-0.6c-1.2,3.8-4.9,6.4-9,6.1l-7.7-0.5c-2-0.1-3.9-0.9-5.4-2.3
			l-3-2.7l-1.5-0.1c-3.9-0.2-7.2-3-8.1-6.7l-1.7,0.1c-4.3,0.2-8.1-2.7-9.1-6.9c-2-0.6-3.8-2-4.9-3.9l-7.8-12.7l-0.8-0.4l-5.7,1.8
			c-3.6,1.1-7.4-0.1-9.7-3c-2.3-3-2.5-7-0.6-10.2l241.6-392.5c-1.8-1.7-2.8-4.2-2.7-6.6l0.2-7.3c0-2.2,0.9-4.2,2.3-5.7
			c-0.1-0.2-0.1-0.4-0.2-0.5l-4.6,9.9c-1.2,2.4-3.3,4.2-6,4.9l-10,2.5c-2.5,0.6-5.1,0.1-7.3-1.3c-2.1-1.4-3.5-3.7-3.8-6.3l-0.2-1.5
			l-3.8-3.1c-3-2.6-4-6.8-2.5-10.3l-2.3,1c-2.9,1.3-6.2,1-8.8-0.8l-6.2-4.4c-2-1.4-3.3-3.6-3.7-6c-0.2-1.3-0.1-2.6,0.2-3.8
			c-1.3-1.6-2-3.7-2-5.8l0.3-18l-4.8-4l-12.6,10.3c-1.9,1.6-4.3,2.3-6.8,1.9l-14.8-1.9c-3.3-0.4-6.1-2.6-7.3-5.8l-3.3-9
			c-1.5-4.1,0.1-8.7,3.9-10.9l4.9-2.9c-0.6-0.3-1.1-0.7-1.6-1.2l-1.8-1.7l-1,2.2c-0.7,1.6-1.8,2.9-3.3,3.8l-9.4,6
			c-1.6,1-3.4,1.5-5.3,1.4l-9-0.4c-2.1-0.1-4.1-0.9-5.6-2.4l-5.4-5c-2.2-2-3.2-4.9-2.8-7.9l0.7-5.1c-2.1,1.7-4.9,2.4-7.6,1.8
			l-9.1-2.1c-1.9-0.5-3.6-1.5-4.9-3c-1.2,1.4-2.8,2.4-4.6,2.9l-8,2.1l-2.9,2c-1.5,1.1-3.3,1.6-5.1,1.6h-6.2c-2,0-4-0.7-5.6-1.9
			l-12.5-10c-2-1.6-3.2-4-3.4-6.6l-0.4-9.2c0-0.7,0-1.4,0.1-2l-1.8,0.1c-1.8,0.1-3.7-0.3-5.3-1.3l-5.4-3.3c-2.3-1.4-3.9-3.8-4.2-6.6
			l-0.8-7.1c-0.3-2.5,0.5-5,2-6.8c-1.8-0.3-3.6-1.2-4.9-2.5l-2-2h-9.2c-3,0-5.9-1.6-7.5-4.1l-8-12.5c-1.9,2.1-4.7,3.1-7.5,2.8
			l-7.9-0.8c-2.2-0.2-4.2-1.2-5.6-2.8l-9.6-10.4c-1.8-2-2.7-4.8-2.3-7.5l0.9-5.6l-3.6-3.8l-6.4,0.4l-9.7,9.1c-2,1.8-4.7,2.7-7.3,2.3
			l-9.1-1.2c-0.8-0.1-1.5-0.3-2.3-0.6l1.3,4.9c0.7,2.9,0,6-2,8.2l-6.7,7.5c-1.6,1.8-4,2.9-6.4,3c-2.5,0-4.8-0.9-6.6-2.6l-13.6-13.6
			l-14.4,1.6l-3.6,4.1c-0.8,0.9-1.7,1.6-2.7,2.1c0.7,1.2,1.1,2.5,1.2,3.9l0.1,1.9l4.3,3c2.3,1.6,3.8,4.2,3.9,7l0.4,10
			c0.1,2.6-0.9,5.2-2.9,6.9l-11.3,10.4c-1.5,1.4-3.5,2.2-5.5,2.4l-4.5,0.3l-4.4,2.6c-2.5,1.5-5.6,1.7-8.3,0.5l-4.6-2.1
			c-2.9-1.3-4.8-4-5.2-7.2l-0.6-5c-1.2-0.4-2.3-1-3.2-1.8l-7.5-6.8l-6.3,10.6c-1.4,2.4-3.8,3.9-6.6,4.3l-6.7,0.8
			c-4.2,0.6-8.2-2-9.6-6c-0.3,0.1-0.6,0.2-0.9,0.3l-12.5,3.3c-1.1,0.3-2.2,0.4-3.2,0.2l-9.4,6.4c-2.7,1.8-6.1,2-9.1,0.6l-5-2.5
			c-3-1.5-4.9-4.6-4.9-8v-10c0-2.9,1.4-5.6,3.7-7.3v-1.6l-8.4-3.2c-1.9-0.7-3.5-2.1-4.6-3.9l-7-12.2l0.5,5.4l1.9,1.9
			c2,2,2.9,4.8,2.5,7.6l-0.8,5.8c-0.5,3.7-3.3,6.6-6.9,7.5l-7.5,1.7c-3.4,0.7-6.7-0.5-8.9-3c-0.6-0.7-1.1-1.5-1.4-2.4l-2.7-6.8
			l-4.2-2.6c-3-1.8-4.6-5.2-4.2-8.7l0.4-3.3c0.3-2.4,1.5-4.5,3.4-6l2.4-1.9l1.1-8.8l-1.4-1.4l-13.8,0.6c-1.6,0-3.1-0.3-4.5-1
			l-13.8-7.1l-10.8-3.1c-2.1-0.6-4-2-5.1-3.9l-1.2-1.9h-0.6l-16.1,10.5c-1.7,1.1-3.6,1.6-5.6,1.4l-5.4-0.4c-3.8-0.3-7-3-7.9-6.6
			l-3.3-12.5c-0.1-0.5-0.2-1.1-0.3-1.6l-6.5,3.1l-1,3.6c-1,3.5-4,6.1-7.6,6.5l-3.7,0.4c-1.3,0.1-2.7,0-3.9-0.4l-0.6,2.1
			c-0.2,0.8-0.5,1.5-0.9,2.2l-7.7,13.4l-3.5,15.4c-0.8,3.5-3.6,6.1-7.1,6.8l-8.7,1.7c-2.1,0.4-4.2,0-6-1c-0.1,0,4,4.2,4,4.2
			c1.4,1.4,2.4,3.4,2.6,5.4l0.8,7.9c0.5,4.5-2.5,8.7-7,9.7l-7.5,1.7c-4.6,1-9.1-1.7-10.5-6.1l-0.9-2.8l-3.4,2.7
			c-1.8,1.5-4.2,2.2-6.6,1.9l-11.3-1.2c-2.4-0.3-4.7-1.5-6.1-3.5l-6.3-8.4l-9.4,12.5c-0.6,0.8-1.4,1.5-2.2,2.1l-14.7,9.7
			c1.2,1.5,1.9,3.3,2.1,5.3l0.4,7.9c0.1,2.6-0.9,5.2-2.8,7l-7.9,7.5c-2.1,2-5.1,2.9-8,2.3l-5.8-1.2c-4.1-0.9-7.1-4.5-7.1-8.7v-0.9
			l-10.1,2.5c-0.7,0.2-1.3,0.3-2,0.3c-0.1,0.8-0.3,1.6-0.6,2.4l-2.1,5c-1.3,3.2-4.3,5.3-7.8,5.5l-7.5,0.4c-2.8,0.1-5.6-1.1-7.4-3.2
			c-0.5-0.5-0.8-1.1-1.1-1.7l-17.6,2.4l-2.5,2.3c-1.7,1.5-3.8,2.3-6,2.3h-5.8c-2.8,0-5.4-1.3-7.1-3.5c-1.7-2.2-2.3-5.1-1.6-7.8
			l0.9-3.5l-2.6-6.7c-1.6-0.6-2.9-1.6-3.9-3l-0.8,1.2c-1.7,2.5-4.4,4-7.4,4h-3.7c-2.7,0-5.2-1.2-6.9-3.2l-3.8-4.3l-4.5,7.7
			c-2,3.4-6,5.1-9.9,4.2l-3.3-0.8c-3.3-0.8-5.9-3.5-6.6-6.9l-0.5-2.4l-18.5,1.2c-3,0.2-6-1.2-7.8-3.6l-7.2-9.8v2.4
			c0,2.9-1.4,5.6-3.7,7.3l-7.6,5.4l-1.8,9.1c-0.7,3.7-3.8,6.6-7.6,7.1l-9.2,1.2c-2.6,0.4-5.3-0.5-7.3-2.3l-5-4.6
			c-1-0.9-1.7-2-2.2-3.1c-0.3,0.1-0.6,0.2-0.9,0.3l-8.7,2.1c-2.7,0.6-5.4,0-7.6-1.7c-2.1-1.7-3.4-4.3-3.4-7v-2l-23.5,14.2
			c-1.3,0.8-2.9,1.2-4.4,1.3l-14.7,0.3l-10,10c-1.7,1.7-4,2.6-6.3,2.6c-2.4,0-4.7-0.9-6.3-2.6l-3.3-3.3c-1.8-1.8-2.8-4.3-2.6-6.8
			l0.4-7.5c0.1-2.4,1.2-4.5,2.9-6.1l-6.8-4.1c-1.8-1.1-3.2-2.8-3.9-4.8l-2.2-6.6c-1.3,0.7-2.8,1.1-4.3,1.1h-4.6
			c-2.7,0-5.3-1.2-6.9-3.3l-5.2,4.4c-1.8,1.6-4.3,2.4-6.7,2.1c-2.4-0.3-4.7-1.5-6.2-3.5l-5.4-7.1c-0.9-1.2-1.5-2.7-1.8-4.2l-6,1.8
			c-2.8,0.9-5.9,0.3-8.2-1.6l-6.2-5c-2.1-1.7-3.4-4.2-3.4-7v-3.7c0-3.3,1.8-6.3,4.6-7.8l-6.6-6.4l-5.9-1.8c-3.6-1.2-6.1-4.5-6.2-8.3
			l-0.3-10.2c-1.5-1.5-2.4-3.5-2.6-5.6l-0.4-5.4c-0.3-3.6,1.6-7,4.8-8.6l11.3-5.8c1.3-0.6,2.7-1,4.1-1h1.2l1.2-10.4
			c0.3-2.3,1.3-4.3,3.1-5.8l7.7-6.6l-7-6.2c-2.3-2-3.4-5-3-8l0.8-5.8c0.2-1.2,0.6-2.4,1.2-3.4c-1.4-0.7-2.5-1.9-3.4-3.3l-6.7-11.3
			c-1.2-1.9-1.5-4.2-1.1-6.4l1.2-5.8c0.5-2.4,1.9-4.4,4-5.7c1.5-0.9,3.2-1.4,4.9-1.3v-5.1l-0.9-0.5c-3-1.5-4.9-4.6-4.9-8v-3.7
			c0-1.9,0.6-3.8,1.8-5.3c-1.4-0.2-2.7-0.7-3.9-1.6l-6.2-4.6c-2.3-1.7-3.6-4.4-3.6-7.2v-9.6c0-1.1,0.2-2.2,0.6-3.2
			c-0.4,0-0.8,0.1-1.2,0.1h-5.8c-4,0-7.4-2.6-8.5-6.2l-5.2,4.5c-1.8,1.5-4.1,2.3-6.4,2.1l-6.2-0.4c-2.6-0.2-5-1.5-6.6-3.6
			c0,0,0-0.1-0.1-0.1v2.7c0,3.8-2.4,7.2-6,8.5l-7.1,2.5c-2.4,0.9-5.2,0.6-7.4-0.7c-2.3-1.3-3.8-3.5-4.3-6.1l-0.5-2.7l-2.8-1.7
			c-1-0.6-1.8-1.3-2.5-2.3l-2.2-2.9c-4,2-8.7,0.8-11.3-2.8c0-0.1-6.6,3.7-6.6,3.7c-3.2,1.9-7.2,1.6-10.1-0.7l-6.2-5
			c-2.5-2-3.7-5.2-3.2-8.4l0.6-3.8l-3.3-3.8h-15.1c-2.2,0-4.4-0.8-6-2.3l-13.8-12.5c-2.1-1.8-3.1-4.6-2.9-7.3l0.4-5
			c0.3-3.5,2.5-6.4,5.8-7.6l0.9-0.3l2.7-3.6c-1.7-1.5-2.9-3.6-3.1-5.8l-0.4-3.7c-0.3-2.4,0.4-4.8,1.9-6.6s3.7-3,6.1-3.3h0.6l5.1-6.8
			c-1.1-1.2-1.8-2.7-2.1-4.4c-2.6-1.8-4.1-4.8-3.9-7.9l0.4-7.1c0.1-2.4,1.2-4.6,3-6.1c-0.2-0.3-0.5-0.6-0.6-0.9l-1.7-2.5
			c-0.9-1.4-1.4-3-1.5-4.6c-0.9-0.2-1.8-0.6-2.6-1.2l-8.3-5.4c-2.3-1.5-3.8-4-4.1-6.8c-0.2-2.8,0.8-5.5,2.9-7.3l0.3-0.2l-0.6-1.8
			l-9.9,0.5c-2.8,0.1-5.6-1.1-7.4-3.3l-3.7-4.6c-3-3.7-2.6-9.1,0.9-12.3l4.5-4.2l-2.4-2.2c-2-1.8-3-4.4-2.9-7.1
			c0.1-1.4,0.5-2.7,1.2-3.9c-4.1-0.3-7.5-3.4-8.1-7.6l-1-6.3l-2.5-1.2c-3.6-1.8-5.5-5.8-4.8-9.7l0.2-1h-6c-3.8,0-7.2-2.4-8.4-5.9
			l-1.2-3.5l-1.1,1c-1.6,1.4-3.7,2.2-5.9,2.2h-9.1c-2.3,0-4.3-0.8-5.9-2.3c-1.3,1.9-3.3,3.3-5.6,3.7l-6.2,1.2
			c-3.9,0.8-7.9-1.1-9.7-4.6l-0.2-0.3c-0.3,0-0.6,0.1-0.9,0.1l-6.2,0.4c-3.4,0.2-6.7-1.5-8.4-4.5l-2.4-4.2h-10.6
			c-2.5,0-4.9-1.1-6.7-3s-2.5-4.4-2.3-6.9l0.7-7.4l-2.3-7.8l-2.7-1.6c-2.8-1.6-4.5-4.6-4.5-7.8v-7.6c-0.3,0.2-0.6,0.4-0.8,0.6l-7.9,5
			c-2.9,1.8-6.6,1.8-9.5,0l-5.4-3.3c-1-0.6-1.8-1.3-2.4-2.2c-1,0.4-2.1,0.6-3.3,0.6h-2.9c-3.5,0-6.6-2-8.1-5.1l-2.4-5.1l-3.7-2.9
			c-1-0.8-1.8-1.8-2.4-2.9l-3.6-6.6c-1.1,0.5-2.2,0.8-3.4,0.9l-12.9,0.8c-2.6,0.2-5.2-0.8-7-2.7l-10.4-10.8l-7.1-1.2
			c-2.8-0.5-5.3-2.3-6.5-4.8l-1.4-2.5l-1.9,2.1c-1.6,1.8-3.8,2.8-6.2,2.9l-10.4,0.4c-3,0.1-6-1.3-7.7-3.8l-7.1-10.2l-3.6-0.2
			c-3.6-0.2-6.7-2.5-7.9-5.8l-2.9-7.9c-1.5-4,0-8.4,3.6-10.7l0.7-0.5l0.4-6.3l-3.6-3.4h-6c-2.8,0-5.4-1.3-7.2-3.6l-3.7-5
			c-2.5-3.4-2.4-8,0.4-11.2l5.4-6.2c1.6-1.8,3.8-3,6.3-3.1l2-0.1c-0.3-0.5-0.5-0.9-0.7-1.4l-3.7-9.6c-0.2-0.5-0.3-1-0.4-1.4
			c-3-0.3-5.6-2-7-4.6l-2.5-4.6c-0.8-1.6-1.2-3.2-1.1-4.9h-1.1c-2.4,0-4.7-0.9-6.3-2.6l-11.3-11.3c-2.6-2.6-3.4-6.6-1.8-10l3.6-7.9
			c1-2.3,2.9-4,5.1-4.8l-5.4-8c-0.9-1.3-1.4-3-1.5-4.6l-0.4-8.7c-0.1-2.4,0.7-4.6,2.1-6.2l-4-2c-2.7-1.3-4.6-3.9-4.9-6.9l-0.6-4.6
			l-1-0.1c-4.1-0.3-7.4-3.3-8.1-7.3l-1.4-1.1c-2.1-1.7-3.3-4.1-3.4-6.7l-0.2-7.5c0-1.1,0.1-2.1,0.5-3.1l-2.6,0.3
			c-2.6,0.3-5.1-0.6-6.9-2.3c-1.9,0.6-4.1,0.6-6-0.2l-4.2-1.7c-2.1-0.8-3.8-2.4-4.8-4.4c-1.8,0.2-3.6-0.2-5.2-1.1l-4.2-2.3
			c-2.6-1.4-4.3-4-4.6-7l-0.7-7l-5.8-4.9c-1.7-1.4-2.7-3.4-3-5.5l-0.6-4.6l-5.6-3.5l-6.7,0.1c-3,0.1-5.8-1.4-7.4-3.7
			c-1.2,0.8-2.7,1.3-4.2,1.4l-5.8,0.4c-3.7,0.3-7.2-1.8-8.7-5.1l-0.4-0.7l-3.9-1.9c-0.7-0.4-1.3-0.8-1.9-1.3c-1.1,0.2-2.3,0.2-3.5,0
			l-4.4-0.8c-3.2-0.6-5.8-2.9-6.8-6l-1.6-0.7c-2.8-1.2-4.8-3.8-5.2-6.8l-0.8-5.4c-0.4-2.7,0.5-5.5,2.3-7.4l-2.8-1.8
			c-2.8-1.7-4.3-4.8-4.2-8l0.4-7.8l-1.8-1.5c-1.6-1.4-2.7-3.4-3-5.5l-1-7.2l-3.3-5l-5.8-2.1c-0.6-0.2-1.2-0.5-1.8-0.9
			c-0.6,0.9-1.5,1.7-2.4,2.3l-5.6,3.6l-0.3,4.1c-0.3,4.4-3.9,7.9-8.3,8.3l-9,0.6c-3.2,0.2-6.3-1.3-8.1-4l-1-1.5
			c-2.7-0.7-5-2.6-6.1-5.3l-0.5-1.2c-1.4,0.9-3,1.4-4.8,1.4h-2.7c-2.6,0-5-1.1-6.7-3.1l-4.2-4.8c-1.2-1.3-1.9-3-2.1-4.7l-0.3-2.3
			h-0.9c-4,0.1-7.6-2.4-8.8-6.2l-1.9-5.9l-6-0.4c-2.3-0.1-4.4-1.2-6-2.9l-7.7-8.3l-5.4-0.5c-4.6-0.4-8.1-4.3-8.1-8.9v-4.5l-3.2-0.3
			c-2.2-0.2-4.3-1.3-5.8-3l-9.1-0.1c-1.2,0-2.4-0.3-3.5-0.8l-11.3-5c-1.8-0.8-3.3-2.2-4.2-4l-1.3-2.4l-3.6-0.4l-3.7,2.8l-2.9,10.6
			c-0.6,2.1-1.9,3.9-3.7,5.1l-3.7,2.4l-0.6,2.8c-0.9,4-4.5,6.8-8.6,6.9l-14.2,0.2c-3.2,0-6.1-1.6-7.8-4.3l-1.7,0.5
			c-0.9,0.3-1.9,0.4-2.9,0.3l-6.5-0.4c-2.7-0.2-5.2-1.6-6.7-3.7l-2.8-3.9l-1.8,0.1c-1.3,3-4.3,5.1-7.6,5.3l-3.6,0.2
			c-2,0.1-4-0.4-5.6-1.6l-10.6-7.3c-1-0.6-1.8-1.5-2.4-2.5l-3.2-4.9l-6.7-5.6l-16.8-4.5c-2.3-0.6-4.3-2.1-5.4-4.2l-3.8-6.6l-3.1-1.8
			l-6.2,1c-2.9,0.5-5.8-0.5-7.8-2.6l-16-16.5c-1.8,1.7-4.2,2.5-6.7,2.4l-22.4-1.6l-0.8,1c-1.8,2.1-4.4,3.4-7.1,3.3l-9.4-0.2
			c-2.7,0-5.2-1.3-6.9-3.5l-2.2-2.8l-18.5-4.1c-2.1-0.5-4.1-1.7-5.3-3.5l-12.1-16.9l-2.8,0.1c-3.1,0.1-6-1.3-7.8-3.8l-1.5-2.2
			l-11.8-3.5c-1.5-0.5-2.9-1.2-3.9-2.4l-13.8-14.4c-1.2-1.3-2.1-2.9-2.4-4.7l-1.4-8.1l-8.5-8.2c-0.7-0.6-1.2-1.4-1.7-2.3l-2.2-4.1
			l-5.6-2.1c-3.5-1.3-5.8-4.7-5.8-8.4v-2.9c0-2.5,1.1-4.9,2.9-6.6l-3-3.6l-5.1,0.4c-3,0.3-6-1.1-7.9-3.5l-6.2-8
			c-1.1,3.8-4.5,6.4-8.4,6.5l-6.9,0.2c-4.8,0.1-8.9-3.6-9.2-8.5l-0.4-7.5c-0.1-1.7,0.3-3.3,1-4.7l-1.2-1.7h-2.2
			c-0.5,0.9-1.1,1.8-1.8,2.5c-1.8,1.7-4.2,2.6-6.6,2.4l-8.5-0.4c-1.8-0.1-3.6-0.7-5-1.8c-1.9,0.4-4,0.1-5.8-0.7l-5.4-2.7
			c-1.5-0.7-2.7-1.9-3.6-3.2c-3.3,2.2-7.8,1.9-10.8-0.7l-10-8.7c-1.2-1.1-2.1-2.5-2.6-4l-0.6,0.6l-0.5,9.2c-0.1,2.4-1.2,4.6-3,6.2
			c-1.8,1.6-4.1,2.4-6.5,2.3l-7.7-0.4c-2.4-0.1-4.5-1.2-6.1-2.9c-1,1.2-2.3,2.1-3.6,2.7l0.9,48.1c0,2.4-0.9,4.8-2.6,6.5l-2.2,2.3
			c-1.5,1.6-3.6,2.5-5.8,2.6l-9.1,0.6c-2.7,0.2-5.3-0.9-7.2-2.8c-0.5,0.1-1,0.2-1.5,0.2l-10.7,0.6l-7.8,1.4c-0.6,0.1-1.2,0.2-1.8,0.1
			h-1.3c-1.1,0-2.1-0.3-3.1-0.7l-7.6-3l-3.6-0.4l-2.8,0.7l-14.1,8c-2.7,1.6-6,1.6-8.8,0l-9.7-5.3c-0.8-0.4-1.5-0.9-2.1-1.5l-0.7-0.7
			c-0.7-0.7-1.3-1.5-1.8-2.4c-1.8,1-3.8,1.4-5.8,1.1l-1.1-0.2c-1.6-0.3-3.1-1-4.4-2l-1-0.8c-0.5-0.5-1-0.9-1.4-1.5l-2.2-3l-6.2-1.5
			l-10.2-1.6l-1.4,0.6c0,1.4-0.3,2.8-0.9,4.2l-0.8,1.6c-1.4,2.8-4.2,4.7-7.3,4.9l-12,1c-3.4,0.3-6.5-1.3-8.3-4h-0.2l-2.4,1.8
			c-1,0.7-2.1,1.2-3.3,1.5l-1.6,1.9c-1.9,2.3-4.8,3.5-7.8,3.1l-3.5-0.4l-6.9-1c-0.7-0.1-1.5-0.3-2.2-0.6l-0.5-0.2l-10.9-0.3
			c-0.8,0-1.6-0.1-2.3-0.3l-7.6-2.2c-0.6-0.2-1.2-0.4-1.7-0.7l-4.1-2.1l-6.9-1.8l-10.4-0.3c-1.4,0-2.8-0.4-4.1-1.2l-5.9-3.3l-4.4,1.7
			c-2.7,1-5.7,0.7-8.1-0.9l-4.5-3c-0.5,0-1-0.1-1.5-0.2l-8.9-1.8c-2.4-0.5-4.6-2-5.9-4.2l-1.8-3.1c-1.3-2.3-1.6-5-0.8-7.5l0.4-1.2
			l-1.2-1.2c-0.6-0.6-1-1.2-1.4-1.9l-3-5.6l-3-4.7c-0.3-0.5-0.5-1-0.6-1.4l-1.5-2.1l-6.4-0.5l-9,0.3l-1.2,1.1c-0.9,0.9-2,1.6-3.2,2
			l-1.7,0.6c-0.3,0.1-0.6,0.2-0.9,0.3l-11,2.6l-10.6,2.2c-0.6,0.1-1.2,0.2-1.8,0.2c-1,0-2-0.2-2.9-0.5l-6.9-2.4l-10.5-2.5
			c-0.4-0.1-0.8-0.2-1.2-0.4c32.9,0,38.1-58,70.5-63.4c8.7-1.4,18.7,0.7,25.6-4.9c2.8-2.3,4.6-5.5,7.3-7.8c4.7-3.8,11.2-4.1,16.9-6.1
			c14.5-5.1,22-20.6,31.4-32.8c1.2-1.6,2.6-3.3,4.5-4c3-1.2,6.4,0.2,9.7-0.2c7-0.8,10.2-8.7,14.7-14.1c7-8.5,18.8-11.6,26.3-19.6
			c6.4-6.9,9.1-16.9,16.2-23.1c4.2-3.7,9.5-5.7,14-9c4.5-3.2,8.5-8.4,7.6-13.9c-0.5-3.3-2.7-6.1-4.2-9.1c-2.2-4.2-3-9.1-2.4-13.9
			c0.6-4.6,3-9.4,7.4-10.7s9.8,3.8,7.4,7.8c5.2,1.8,10.1-3,13.8-7.1s9.6-8.2,14.1-5.1c2,1.4,3.1,3.9,5.1,5.2c5.5,3.6,11.6-3,16.7-7.2
			c10.1-8.3,24.7-7.6,37-11.7c12.7-4.3,23-13.8,33.9-21.6c10.9-7.9,23-14.2,36.2-11.5c16.8-6,33.5-11.8,50.2-17.7
			c3.6-1.2,7.2-2.5,10.9-2.8c3.6-0.3,7.3,0.3,10.9,0.8c8.3,1.1,16.9,1.8,24.9-0.4c8.1-2.1,15.7-7.3,18.9-15.1c0.8-2,1.3-4.1,2.4-5.9
			c1.9-3.1,5.4-4.8,8.6-6.6c3.2-1.8,6.5-4,7.8-7.4c1.2-3.4-1-8.2-4.6-8.1c-2.4-8.1-0.6-17.4,4.8-23.9c5.1,6.8,10.3,13.7,17.5,18.2
			s16.8,6.2,24.1,1.9c6.5-3.8,9.8-11.2,12.6-18.2c3.3,7.2,1.3,18.5,8.9,20.8c6.1,1.9,11.2-4.9,14-10.7c1-1.9,1.9-4.2,1-6.1
			c-0.7-1.5-2.4-2.3-3.8-3.2c-9-6-7.1-19.4-4.2-29.7c3.2-2.6,6.4,5.3,10.4,4.4c2-0.4,2.8-2.8,4.1-4.4c3.6-4.4,10.6-2.6,15.8-0.4
			c5.3,2.2,12.4,3.8,15.7-0.8c2.4-2.3-1.4-6.1-4.7-6.3c-3.3-0.2-7.4,0.4-9.3-2.4c-0.8-1.2-0.9-2.8-1.7-4.1c-2.4-4.4-9.6-2.7-13.3-6
			c-3.6-3.1-2.2-9.2,0.8-12.9c3-3.7,7.3-6.4,9.7-10.5c3.4-5.6,2.6-12.8,4.5-19.1c1.9-6.3,9.4-12.1,14.6-8.2c1.9,1.4,2.9,3.7,4.2,5.6
			c2.8,4.1,7.3,7,12.2,7.6c4.8,0.6,9.9-0.7,14.6,0.7c9.4,2.8,12.3,14.7,19.6,21.2c8.5,7.7,21.3,7,32.7,5.9c3.7-0.4,7.8-0.9,10.4-3.6
			c3.8-3.9,2.9-10.2,3.6-15.6c0.6-5.3,3-10.2,5.3-15c6.7-14,13.9-27.5,27.6-34.8c1.5-22.3,6.3-49.3,27.4-56.8
			c9.8-3.5,20.6-1.5,31-2.7c10.3-1.2,21.8-8.3,21.3-18.7c-0.4-8.9-9.5-15.8-9.3-24.8c0.3-10.9,13.6-16.2,24.5-17.1
			c10.9-0.9,23.8-1.3,29.7-10.5c2.8-4.3,3.3-9.7,5.1-14.5c3-7.9,9.4-13.8,15.5-19.6c16.3-15.5,31.9-32,44.2-50.8
			c12.1-18.2,24.8-41,46.7-42.3c6.2-0.4,12.5,1.2,18.5,0c10.4-2,17.9-11.3,22.3-20.9c8.7-19,9.4-40.5,11.2-61.3
			c1.8-20.8,5.4-42.6,18.7-58.8c13.2-16.2,38.9-23.9,55.5-11.2c6,4.6,10.3,11.4,11.7,18.8c1.1,5.5,0.6,11.4,2.3,16.7
			c3.1,10.3,13.3,17,23.8,19.4c10.4,2.4,21.3,1.2,32,0.3c14-1.1,28.4-1.5,41.8,2.4c13.4,4,26.1,13,31.2,26.1
			c4.8,12.3,2.4,26,2.1,39.3s2.4,28.2,13.5,35.4c3.2,2.1,7.1,3.4,9.7,6.3c3.4,3.9,3.7,9.5,5,14.5c5.3,20.5,32.6,31.6,50.7,20.5
			c2.3-1.4,4.6-3.3,5.6-5.8c1.2-3,0.4-6.2-0.2-9.3c-4.5-23.1,2.8-46.6,13.9-67.4c2.8-5.3,0.3-11.9-3.2-16.7
			c-3.5-4.8-8.1-9.1-9.9-14.8c-1-3.2-1.2-6.6-1.8-9.8c-2.2-10.9-10.1-19.7-14.4-29.9c-3.7-8.9-4.8-18.6-6.3-28.1
			c-3.9-24.2-11.5-47.8-22.4-69.8c-2.6-5.3-5.5-11.1-4.3-16.9c1.2-5.4,5.7-9.4,9-13.8c8.6-11.5,9.8-26.7,9.8-41
			c0-27-2.9-53.8-5.8-80.7c-0.1-1.3-0.3-2.7-1.1-3.7c-1.9-2.4-5.6-1.4-8.5-2.4c-2.4-0.8-4-3-5.5-5.1c-5.3-7.4-10.7-15.1-12.6-24.1
			c-1.3-6-1-12.2-2.5-18.1c-1.8-7.1-12.2-22.9-12.2-22.9s14-14.8,18.9-17.8c6.9-4.2,14.3-8,22.3-9.5c8-1.4,16.7-0.3,23.2,4.5
			c22,16.3,47.5,23.6,69.6,39.7c6.6,4.8,13.7,11,13.5,19.2c-0.1,5-3,9.7-2.6,14.7c0.6,7.3,7.7,11.9,13.9,15.7
			c38.7,24.2,70.2,64.9,70.8,110.6c0,4.8-0.2,9.8,1.2,14.5c2.9,10,12.4,16.4,21.5,21.3c11.6,6.2,23.7,11.4,35.9,16.6
			c12.8,5.4,25.5,10.9,38.3,16.3c11.4,4.8,22.9,9.7,35,12.5c20.8,4.7,42.5,2.8,63.8,0.7c14.7-1.4,29.9-3,42.9-10.1
			c13.2-7.2,22.9-19.3,31.4-31.6c13.5-19.3,25.3-39.9,35-61.3c5.1-11.2,10.3-23.4,21.1-29.4c10.7-6,28.1-0.3,28,12
			c-0.1,11.6-15.2,22.2-9.3,32.2c3.1,5.3,10.2,6.2,16.3,6.6c8.7,0.5,17.5,1.1,26.2,1.6c6.9,0.4,14,0.8,20.4-1.7
			c6.5-2.4,11.5-7.5,16.9-11.8c26-20.8,60.7-26.2,93.6-30.8c14.1-2,28.3-4,42.4-6c24.8-3.5,47.6,14.5,72.1,19.5
			c38.2,7.9,76.7-10.7,115.6-13.6c12.2-0.9,24.8-0.4,36-5.3c6-2.6,11.4-6.7,17.7-8.1c22.6-4.8,41.4,26,64,21c8-1.8,14.5-7.9,22.4-9.8
			c7.7-1.9,15.7,0.4,23.7,0c14.5-0.7,27-9.9,39-18c29.9-20,63.1-35,97.8-44.1c15.1-4,26-6.7,37.5-17.5c11.6-10.8,22.8-22,33.7-33.5
			c21.4-22.7,41.3-46.8,59.7-72c4.1-5.6,8.2-11.6,8.6-18.5c0.5-7.3-3-15.8,1.8-21.2c2.5-2.9,6.6-3.7,10.1-5.2
			c16.3-7,20.6-27.5,27-44.1c7.7-20,20.9-37.3,33.9-54.4c10.9-14.1,22-28.6,37.4-37.7c3.9-2.4,8.2-4.4,11-8c2.5-3.2,3.7-7.3,5-11.2
			c7.9-23,26.1-42.3,48.6-51.6c22.7-9.4,40.6-24.5,64.1-31.9c36.9-11.6,75-23.4,113.6-20c39.2,3.5,76.8,22.6,115.9,19.1
			c11.2-1,22.2-3.9,33-7.3c12.5-3.9,24.7-8.6,36.6-14c17.2-7.8,33.6-16.9,50.1-26.1c8.9-5,18.1-10.2,24.2-18.3
			c9.4-12.5,10.4-30,20.6-41.9c11.7-13.6,34.9-15,48.1-3c-9.1,27.7-29.1,50.2-49.7,70.8c-5,5-10.2,10.2-12.4,16.9
			c-1.3,4.1-1.4,8.5-2.2,12.8c-3,18.5-17.1,33.1-32,44.4s-31.5,20.7-43.8,34.8c-5.9,6.7-10.8,16.4-6.6,24.3
			c4.1,3.1,10.1,1.2,14.2-1.8c4.2-3,7.7-7.1,12.6-8.6c4.7-1.5,9.8-0.4,14.8-0.3c20.2,0.2,35.8-17,54.5-24.4c8.3-3.3,17.3-4.7,26.1-6
			c34-5.1,68-10.2,102-15.3c13.1-1.9,23.9-5.5,37.1-5.2c13.2,0.3,26.7,3.4,37.4,11.2c3.4,2.5,6.5,5.4,10.3,7.1
			c3.1,1.4,6.6,1.8,10,2.2c6.3,0.8,12.7,1.6,19,2.4c4,0.5,8.1,1,12.1,0.7c10.3-0.7,19.7-6.5,26.2-14.5s10-18,11.5-28.2
			c0.6-4.5,1-9,2.2-13.3c2-7.1,6.3-13.3,10.9-19.1C4824.7,3161.7,4841.3,3147.6,4857.6,3138.3L4857.6,3138.3z"/>
	</g>
	<g id="pacifica">
		<path class="st7" d="M712.9,4409.6c-1.2-0.1-2.4-0.5-3.5-1l-3.6-1.9l-7.8-0.3c-3.4-0.1-6.3-2.2-7.7-5c-2-0.3-3.9-1.3-5.2-2.9
			c-1.6-1.8-2.4-4.1-2.2-6.5c0,0-1.3-0.6-1.3-0.6c-1.4-0.6-2.6-1.4-3.6-2.5l-7.3-8.5l-9.6-0.2l-1,1.1c-2.6,2.9-6.8,3.8-10.4,2.1
			l-10.7-4.9c-1.4-0.6-2.7-1.7-3.6-3l-6.6-9.5c-1.2-1.8-1.8-4-1.5-6.2l0.8-6.2l-3.8-0.2c-1.8-0.1-3.6-0.7-5-1.8l-5.4-4.1
			c-1.5-1.2-2.5-2.7-3.1-4.4l-4.2-1c-1.8-0.4-3.5-1.4-4.8-2.9l-8.1-9.3c-1.7-1.9-2.4-4.5-2.1-7.1l0.3-2c-1.8-0.2-3.6-1-4.9-2.2
			l-9.7-8.6c-0.9-0.8-1.7-1.9-2.2-3l-0.4-0.9l-1.9-0.9c-2.5-1.2-4.2-3.4-4.9-6l-5-1.2c-1.9-0.5-3.6-1.6-4.8-3.1l-2.4-3l-3.1-0.6
			c-4-0.7-7-4-7.3-8l-0.5-6.1c-0.2-1.9,0.3-3.9,1.3-5.4c-1.5-1.2-2.5-2.9-3-4.8l-0.2-0.7c-1.2,0.6-2.5,0.9-3.8,0.9h-4.8
			c-0.4,0-0.8,0-1.2-0.1c-1.7,0.7-3.6,1-5.5,0.6l-14.3-3.1c-2-0.5-3.9-1.6-5.2-3.2l-2.2-2.9c-1.7-2.2-2.3-5-1.6-7.6
			c-1.8,0.4-3.7,0.2-5.4-0.5l-8.1-3.4c-3.2-1.3-5.4-4.5-5.5-8v-1.4l-0.7-1l-1.9-0.9c-3-1.5-4.9-4.5-5-7.9l-0.1-4.7
			c0-2.4,0.8-4.7,2.5-6.4c0.5-0.6,1.1-1,1.8-1.4c-0.1-2.8,1.2-5.5,3.4-7.3c0-2.3,0.9-4.4,2.4-6l4.2-4.8c0.1-2.6,1.2-5,3.3-6.6
			l7.9-6.5l1-5.9c0.3-1.7,1.1-3.2,2.2-4.5l10.1-11.1c0.6-0.6,1.2-1.1,1.8-1.5l0.8-2.8c0.8-2.9,3-5.2,5.8-6.1l6-2l3-3.7
			c1.3-1.6,3.1-2.7,5.1-3.1l3-0.6l0.8-0.7l0.4-3.4c0.6-4.3,4.1-7.6,8.4-7.8l6.3-0.4l4.9-4.1c0.4-0.4,0.9-0.7,1.4-1l10.9-6
			c1.2-0.7,2.6-1.1,4.1-1.1l6.6-0.2c3,0,5.9,1.3,7.6,3.8c1.2,1.7,1.7,3.6,1.6,5.6c0.5-0.6,1.1-1.2,1.8-1.6l6.7-4.5
			c3.9-2.6,9.1-1.8,12,1.9l2.3,2.9c1.6,2,2.2,4.6,1.8,7.1c-0.1,0.8-0.4,1.7-0.8,2.4c1.1,0.7,1.9,1.7,2.6,2.7h1.3
			c1.8-3.1,5.3-5,9.1-4.5l3.6,0.5c1.2,0.2,2.3,0.6,3.2,1.2c0.3-0.1,0.7-0.1,1-0.1l16.4-1.5c4-0.4,7.7,2,9.1,5.7
			c0.3,0.8,0.5,1.7,0.6,2.6l3.1-4.5c0.7-1,1.6-1.8,2.6-2.4l-0.7-4.4c-0.5-3,0.6-6,2.7-8c-1.8-1.1-3-2.8-3.6-4.8l-4.2-0.2
			c-4.1-0.2-7.5-3.1-8.4-7.1l-2.8-13.7c-0.3-1.5-0.2-3,0.2-4.4l2.5-8.3c0.6-1.9,1.8-3.6,3.3-4.7l-0.2-2.8c-0.2-2.2,0.5-4.3,1.7-6
			c-0.6,0.4-1.3,0.6-2,0.8l-1.8,0.5l-0.6,0.9c-1.7,2.9-4.8,4.5-8.1,4.4l-4.8-0.2c-4.4-0.2-8-3.6-8.5-8l-1.2-10.5
			c-0.3-2.4,0.5-4.9,2.1-6.7c0.5-0.6,1-1.1,1.6-1.5v-0.9c-2.1-1.6-3.4-4.1-3.5-6.7l-0.1-2.5c-0.1-2.6,0.9-5.1,2.8-6.8
			c-1.7-1.6-2.7-3.8-2.8-6.2l-0.2-7.7c-1.3-1.2-2.3-2.7-2.7-4.4c-0.4-0.2-0.8-0.5-1.2-0.8l-4.2-3.3c-3.6-2.8-4.5-7.8-2.2-11.6
			l0.1-0.3l-0.9-2.6c-1.5-4.2,0.4-8.7,4.2-10.8v-3.4c0-3.1,1.6-6,4.2-7.6c0.3-1.9,1.2-3.7,2.6-5.1l4.1-4l-0.2-8.5
			c0-2.2,0.7-4.3,2.1-6l4.8-5.8v-6.4c-0.1-3,1.4-5.9,4-7.6l4.4-2.9c0.1-0.5,0.3-0.9,0.6-1.3l3.1-6.4c0.6-1.1,1.3-2.1,2.3-2.9
			l-0.1-2.6c-0.2-3.4,1.6-6.6,4.5-8.3l0.5-4.2c0.3-2.7,1.8-5.1,4.1-6.6l2.8-1.8c-0.1-2.6,0.8-5.1,2.7-6.9l9.6-9.2l9.7-12.1
			c1.4-1.8,3.4-2.9,5.6-3.2l4.7-0.9l2-6c0.7-2.1,2.2-3.9,4.2-5l0.2-0.1l0.4-1.8c0.6-3.1,2.9-5.6,5.9-6.6l1-0.3v-3.3
			c0-4.7,3.6-8.5,8.1-8.9c0.5-2.1,1.6-4,3.4-5.3l5-3.7c2.1-1.6,4.8-2.2,7.4-1.6l0.3,0.1l1.1-1.2c0.4-0.5,0.9-0.9,1.4-1.2l4.9-3.5
			c1.4-3.2,4.6-5.2,8.1-5.2h1.1c1.4-2,3.6-3.4,6.2-3.7l3.3-0.4c1.3-0.2,2.7,0,3.9,0.4c1.5-0.7,3.2-1,4.9-0.8l3.8,0.5
			c1.6-1.8,3.9-2.9,6.3-3l3.3-0.1c1.6-2.4,4.4-4,7.5-4h3.3c0.3,0,0.6,0,0.8,0c1.1-0.4,2.2-0.5,3.4-0.4l12.6,0.8
			c1.5-1.8,3.6-3,5.9-3.2c1.7-2.4,4.4-3.8,7.3-3.8h1.1c1.2-1.6,2.9-2.9,4.8-3.4l2.9-0.8c2.7-0.8,5.6-0.2,7.9,1.5
			c2.2,1.7,3.6,4.3,3.6,7.2v5c1.2,1.2,2,2.8,2.4,4.6c0.3-0.1,0.6-0.1,0.9-0.2l3.3-0.4c2.5-0.3,5.1,0.5,7,2.2c0.9,0.8,1.6,1.8,2.1,2.8
			l0.6,0.1c1.5,0.3,2.9,0.9,4,1.8l0.4-0.3c1.4-1.2,3.2-1.9,5.1-2h0.6l1.1-2.4c1.5-3.2,4.7-5,8.2-5.1c2,0,4,0.7,5.5,2l0.9-0.9
			c2.7-2.4,6.5-3,9.8-1.5l0.5,0.2l3.4-0.6c4.8-0.8,9.3,2.3,10.3,6.9l0.5,2.4c0.3,0.2,0.5,0.5,0.8,0.7c0.4-0.3,0.8-0.6,1.3-0.8
			c-0.2-0.8-0.3-1.7-0.3-2.5c0.1-2.4,1.1-4.7,2.9-6.3l3.7-3.5c1.6-1.4,3.6-2.3,5.7-2.4c0,0,0.1-0.1,0.2-0.2l4.1-4.1l1.6-3.5
			c2-4.3,7.1-6.3,11.5-4.4l2.4,1c1.3-0.6,2.8-0.8,4.3-0.6l8.7,0.9c0,0,0.1-0.2,0.2-0.4c-0.8-1-1.4-2.1-1.8-3.4l-1-3.7
			c-1.2-4.2,0.8-8.5,4.7-10.4l10.5-5.1c0.9-0.5,1.9-0.7,2.9-0.8c0-0.2,0-0.5,0-0.8l0.1-3.3c0.1-3.3,2-6.3,5-7.8l5.1-2.5l5.4-6.4
			c1-1.2,2.2-2,3.6-2.5c0.5-0.3,0.9-0.6,1.4-0.8l0.1-1.2c0.2-2.9,1.8-5.4,4.2-6.9c-1-1.3-1.7-3-1.8-4.7l-0.3-4.3
			c-0.2-2.4,0.6-4.8,2.3-6.6c0.5-0.5,1-1,1.5-1.3v-3.6c0.1-1.7,0.6-3.3,1.4-4.7h-0.2c-4.3-0.2-7.8-3.5-8.4-7.8l-0.6-4.7
			c-0.4-3,0.7-6,3-8l5.3-4.5c-1.8-4.2-0.1-9,3.8-11.2l0.1-2.8c0-2.5,1.2-4.9,3.2-6.6l5.4-4.6c1.8-1.6,4.2-2.3,6.7-2.1l0.9,0.1
			l6.5-10.8c0.8-1.4,2-2.5,3.4-3.2l2.9-1.6l0.3-3.4c0.3-3.1,2.2-5.9,5-7.3l6.7-3.3l4.8-8l-0.3-4.7c-0.1-2.7,1-5.4,3-7.2l4.9-4.3
			c-0.8-1.3-1.2-2.9-1.2-4.5l0.1-11.3c0-3.1,1.7-6,4.4-7.6l8.8-5.2l7.8-12c0.8-1.3,2-2.3,3.3-3l2.4-1.3c0.1-1.9,0.8-3.8,2.2-5.3
			l3.6-4.2c2-2.4,5.1-3.5,8.2-3l2.2,0.4l2-4.2c1.5-3.1,4.6-5.2,8.1-5.2h3.6c0,0,0.2,0,0.2,0c0.4-0.1,0.8-0.3,1.2-0.4v-5.5
			c0-1.8,0.6-3.6,1.7-5.1l5.3-7.6l1.8-3.2c0.6-1.2,1.6-2.2,2.6-3l0.1-0.8c0.1-0.8,0.4-1.7,0.7-2.4c-0.3-0.7-0.6-1.4-0.7-2.2l-0.5-2.9
			c-0.6-3.3,0.7-6.6,3.3-8.6l0.7-0.6l0.3-1.4c0.7-3.4,3.2-6,6.5-6.9l4.9-1.3c0.2-0.7,0.6-1.5,1-2.2c0-0.1,0-0.3,0-0.5
			c0.2-2.7,1.5-5.2,3.7-6.7l4-2.9l1.1-5.2c0.6-3,2.7-5.5,5.6-6.6c2.5-0.9,5.2-0.7,7.5,0.6l0.6-1.2c1.5-3.1,4.7-5.2,8.2-5.1l8.2,0.1
			l8.3-7.6l0.2-2.4c0.1-1.6,0.6-3.1,1.5-4.3c-2.9-1.5-4.8-4.5-4.8-7.9v-5.8c0-2.8,1.2-5.3,3.3-7v-25.2c0-3.9,2.6-7.4,6.3-8.5l2.6-0.8
			l-0.6-8.3c-0.1-1.6,0.2-3.2,0.9-4.6c-0.4-0.4-0.7-0.9-1-1.4l-0.4-0.6l-11-0.1l-2.3,2.2c-1.8,1.7-4.1,2.6-6.6,2.5l-2.9-0.1
			c-3-0.1-5.7-1.7-7.3-4.2l-1.2-0.1c-2-0.2-3.9-1-5.4-2.4l-4.2-4.1c-1.2-1.2-2.1-2.6-2.5-4.2c-3-1.5-4.8-4.6-4.8-7.9v-3.6
			c0-1.1,0.2-2.2,0.6-3.2c-1-0.6-1.8-1.5-2.4-2.4c-0.4-0.6-0.7-1.2-1-1.9c-0.3-0.2-0.6-0.5-0.8-0.8c-1.4-1.5-2.2-3.4-2.4-5.4
			c-0.7,0.2-1.5,0.3-2.3,0.3h-6.1c-3.8,0-7-2.4-8.3-5.6c-2.1-1.5-3.6-3.8-3.8-6.5l-0.5-4.8c-2.6,0.7-5.4,0.2-7.6-1.3
			c-2.2-1.6-3.6-4.1-3.8-6.8l-0.1-2l-5.1-2.4c-2.9-1.4-4.9-4.2-5.1-7.5l-0.1-1.5l-3.2-1.9c-2.7-1.6-4.4-4.5-4.4-7.7v-1.2
			c-0.7-0.3-1.4-0.6-2-1.1l-4.8-3.6c-1.6-1.2-2.8-2.8-3.3-4.8l-2.7-9.1l-4.3-4.2c-4.1-0.8-7.2-4.3-7.3-8.5l-0.1-2.9
			c-2.1-1.7-3.5-4.3-3.4-7.2l0.3-14.9c-1.6-1.2-2.7-3-3.1-5.1l-1.4-6.7c-0.8-3.8,0.9-7.6,4.1-9.5l0.5-14.6c0.1-3.3,2-6.3,5-7.7
			l2.1-1.2c0.8-4.3,4.6-7.4,9.1-7.4l2.9,0.1c3,0.1,5.5,1.6,7.1,3.8c0.5-3.5,3-6.4,6.5-7.4l3.1-0.9c0.2-2,1.1-3.9,2.5-5.4l3.5-3.6
			v-1.8c0-2.3,0.9-4.5,2.4-6.1l8.5-9c1.1-1.2,2.5-2,4-2.4c0.3-0.4,0.7-0.8,1.1-1.2l9.6-8.5c0,0,0.3-0.3,0.5-0.4l-0.5-2.4
			c-0.1-0.6-0.2-1.3-0.2-2l0.5-25.4c0-3,1.6-5.8,4.2-7.4l1.1-0.7c-0.9-1.4-1.5-3.1-1.5-4.8l-0.1-8c0-2.9,1.3-5.5,3.6-7.2v-0.2
			l-0.6-25.7c0-1.8,0.5-3.6,1.4-5c-0.9-1.4-1.3-3-1.3-4.7l-0.1-24.6c0-3.3,1.8-6.2,4.5-7.8c0-0.3,0-0.5,0-0.8c0-0.3,0-0.6,0.1-1
			c-0.3-0.3-0.6-0.6-0.9-0.9l-2.2-2.6c0,0-0.1-0.2-0.2-0.3h-3.3c-2.4,0-4.7-0.9-6.3-2.6c-1.7-1.7-2.6-4-2.6-6.3l0.1-24.6
			c0-0.6,0-1.2,0.2-1.8c-2.3-1.7-3.6-4.3-3.6-7.1l-0.1-8l-1.7-1c-2.7-1.6-4.4-4.5-4.4-7.7v-4.9c-2.4-1.6-3.8-4.3-3.8-7.3l-0.5-37.1
			c-1.5-1.6-2.4-3.6-2.4-5.8l-0.8-19.2c-0.1-3,1.2-5.7,3.4-7.4c-0.6-0.4-1.2-0.9-1.7-1.4c-2-2.2-2.8-5.3-2.1-8.2l1.6-6.4
			c-0.8-1.4-1.2-2.9-1.2-4.5l0.3-27.2c0-2.4,1-4.6,2.6-6.2l3.5-3.5c0.4-0.4,0.8-0.7,1.2-1l-1.2-1.5h-3.6c-3,0-5.9-1.5-7.5-4.1
			l-2.1-3.3c-1.5-2.3-1.8-5.1-1-7.7c0.6-1.6,1.5-3,2.8-4c-3.7-1.1-6.4-4.5-6.5-8.5l-0.1-8.7c0-2,0.6-3.9,1.7-5.4
			c-0.2-0.4-0.3-0.8-0.4-1.2l-1.3-4.8c-0.6-2.1-0.4-4.3,0.6-6.3c-1.8-0.5-3.4-1.5-4.6-3l-6.4-7.8c-0.3,0-0.7,0.1-1.1,0.1l-1.7,0.1
			l-0.6,1.8c-1.1,3.2-3.8,5.5-7.2,6c-3.3,0.5-6.7-0.9-8.6-3.6l-2.3-3.2h-7.9c-3.6,0-6.9-2.3-8.3-5.7l-1.4-3.6
			c-1.5-3.9-0.2-8.3,3.2-10.7l1.9-1.3l2.4-7.9c0.6-2,2-3.8,3.8-4.9v-10.7c0-2.1,0.6-4.1,1.9-5.7l4.8-5.9c0-2.4,1-4.6,2.7-6.2
			c1.7-1.7,4-2.5,6.4-2.6l5.3,0.1c1.8,0,3.6,0.6,5.1,1.7c0.1-0.1,0.2-0.1,0.4-0.2l4.9-2.4c1.1-2.7,3.4-4.8,6.4-5.4l4.5-1l0.7-0.8
			c1.6-1.8,3.8-2.9,6.3-3l8.8-0.5c2.4-0.1,4.7,0.7,6.5,2.3c1.6,1.5,2.6,3.5,2.9,5.7l3-1.2v-3.4c0.1-2.8,1.4-5.4,3.7-7.1l2.1-1.6
			c0.1-2.1,0.9-4.1,2.4-5.6c1.7-1.8,4.2-2.9,6.7-2.9h5.1l2.1-11.4c0.6-3,2.6-5.5,5.4-6.7l2.4-1v-0.4c0.4-2.4,1.8-4.6,3.7-6l0.7-0.6
			v-2c0-1,0.1-2,0.4-2.9l-2-2.5c-1-1.2-1.6-2.6-1.8-4.1l-0.3-1.6l-7.1-7.7c-1.2-1.3-2-3-2.3-4.8l-0.5-3.6l-0.7-0.4
			c-2.6-1.2-4.4-3.6-4.9-6.5l-3.8-21.5l-5.4-6.3c-1.2-1.4-2-3.2-2.1-5l-0.9-10.1c-1.3-1.6-2.1-3.7-2.1-5.8l0.1-9.7
			c-1-1.2-1.7-2.5-1.9-4.2l-1.8-9.7l-7-9l-8.1-4.6c-2.2-1.2-3.7-3.3-4.3-5.7l-1.1-4.5l-8.2-9.3l-3.6-2.4c-1.9-1.3-3.2-3.3-3.7-5.5
			l-2.3-10.8l-2.4-2.3c-1.7-1.6-2.6-3.8-2.7-6.1l-0.5-11.2c-0.1-3.2,1.5-6.3,4.2-8l-0.1-24.5c0-4.2,2.9-7.9,7-8.8l2.3-0.5
			c4.8-1.1,9.6,1.9,10.7,6.7l1.2,5l2.4,0.1c3,0.1,5.7,1.7,7.3,4.2l1.8,2.8l1.7-3.1c0.4-0.8,0.9-1.4,1.5-2l-0.4-15.1l-0.7-1.3h-3.1
			c-3,0-5.7-1.4-7.4-3.8c-1.1,0.1-2.1,0-3.2-0.2c-4-1-6.8-4.7-6.7-8.8l0.1-6.2c0-4.2,3-7.9,7.2-8.7l8.4-1.7l-0.7-3.6
			c-0.6-2.6,0.1-5.3,1.7-7.3c1.2-1.5,2.7-2.5,4.4-3l1-3.9c0.3-1.1,0.7-2,1.3-2.9c-0.4-1-0.6-2.1-0.7-3.2l-0.1-5.7
			c-0.1-2.9,1.3-5.7,3.6-7.4l4.2-3.1l2.5-9.9c0.2-0.8,0.5-1.5,0.8-2.1l-1-0.7l-6.2-0.6c-1.5-0.1-2.9-0.6-4.1-1.4l-5-3.3
			c-3.3-2.2-4.8-6.3-3.6-10c-0.9-0.4-1.7-1-2.4-1.6l-5.1-4.7c-1.6-1.5-2.5-3.4-2.8-5.5c-1.5-1.6-2.4-3.6-2.4-5.9l-0.1-3.6
			c0-1.2,0.2-2.3,0.6-3.3c-1.2,0-2.4-0.3-3.5-0.8c-2.5-1.2-4.3-3.5-4.9-6.2h-0.6c0.7,1.1,1.2,2.3,1.4,3.6c0.6,3.5-1,7-4,8.9l-7.3,4.7
			c-0.6,0.4-1.3,0.7-2,0.9c-1.6,2.9-4.6,4.7-7.9,4.7h-2.4c-3.6,0-6.9-2.2-8.3-5.6l-1.4-3.5l-1.6-2.4c-1.8-2.6-2-5.9-0.7-8.8
			c0-0.1,0.1-0.3,0.2-0.4c-1-1.7-1.4-3.7-1.2-5.7l0.5-3.5c0.1-0.6,0.2-1.2,0.4-1.8c-2.2-1.5-3.7-3.8-4-6.5l-1-9.1l-9.7-18.1
			l-13.9-15.2h-1.3c-1.6,0-3.1-0.4-4.5-1.2l-6.7-3.9c-0.6,1.4-1.6,2.7-2.8,3.6v0.7c0,3.4-1.9,6.4-4.9,8c-3,1.5-6.6,1.2-9.3-0.7
			l-3.7-2.7c-2.1-1.5-3.4-3.8-3.6-6.3l-1.5-1.3c-2.3-1.9-3.4-4.9-3-7.9c0.2-1.7,0.9-3.3,2-4.6c-1.1-1.5-1.7-3.4-1.7-5.3l0.1-11
			c0-1.8,0.6-3.6,1.6-5.1c-0.3-0.9-0.4-1.8-0.4-2.8v-3.2c0-4.6,3.5-8.4,8-8.9l1.9-0.2l1-1.6c1.1-1.8,2.7-3.1,4.5-3.8
			c-1.2-1.6-1.8-3.7-1.7-5.8l0.2-4.5l-6.8-4.9c-2-1.5-3.3-3.7-3.6-6.1c-1.1-0.6-2-1.5-2.8-2.5l-4.3-6.1l-9.6-7.5h-3.6
			c-4.1-0.1-7.6-2.9-8.5-6.8l-2.8-11.1l-12.8-5.2c-2-0.8-3.6-2.3-4.6-4.1l-5.5-10.4l-7.3-1.8c-3.8-0.9-6.6-4.2-6.8-8.1l-0.2-3.7
			l-2.5-1.8c-3.2-2.2-4.6-6.2-3.5-10l21.9-72.6l1.9-17.2c0.3-2.7,1.8-5.2,4.2-6.6l11.9-7.3c3.1-1.9,7-1.8,9.9,0.4
			c1.5-1.7,3.6-2.7,5.8-2.9l7.9-0.7l3.9-7.5l-6.3-7.3c-0.8-0.9-1.3-1.9-1.7-3l-9.4-28.2c-0.2-0.7-0.4-1.4-0.4-2.2l-1.6-22.2
			c-0.1-1.2,0-2.4,0.4-3.5l4.9-14.7c0.6-1.8,1.8-3.4,3.4-4.5l6.6-4.5c2.9-2,6.7-2.1,9.7-0.3l20.5,12.3c1.3,0.8,2.4,1.9,3.1,3.2
			l12.7,22.1c0.3,0.6,0.6,1.2,0.8,1.9l10.9,36l7.9,8.1l3.1-4.2l2.8-9.2c0.5-1.6,1.4-3,2.7-4.1l6.6-5.7c1.9-1.7,4.3-2.4,6.8-2.2
			l5.3-7.3l1.3-8.9c0.3-1.9,1.2-3.6,2.5-5l4.1-4.1c1.7-1.7,4-2.6,6.3-2.6h0.4l2.1-1.5l1.8-10c0.3-1.7,1.1-3.3,2.3-4.6l7.4-7.8
			c1.5-1.5,3.4-2.5,5.5-2.7l13.8-1.5l5.3-2.3c1.9-0.8,4-1,6-0.4l5.2,1.4l0.1-1.7l-2.9-9.1l-3.6-3.3c-0.9-0.9-1.7-1.9-2.2-3.1
			l-5.3-12.7c-0.9-2.3-0.9-4.8,0-7l2.1-4.8v-5.1c0-1.9,0.6-3.7,1.7-5.2l8.6-11.9c2.2-3,6-4.4,9.7-3.4l2.5,0.7l7.4-1.3l18.5-4
			c0.3,0,0.6-0.1,0.8-0.1l10.6-1.2c0.8-0.1,1.6-0.1,2.4,0l-0.6-2.7c-0.2-0.9-0.3-1.8-0.2-2.7l0.2-2.4l-2.3-4.6l-5.6-2.4
			c-2.9-1.2-4.8-3.9-5.3-6.9c-1.6-0.9-2.9-2.2-3.6-3.8l-3.7-7.4c-1.2-2.5-1.2-5.5,0-8l3.4-6.8l0.4-3.1c-1.3-0.9-2.4-2.2-3.1-3.6
			l-2-4.5c-0.9-1.9-1.1-4.1-0.5-6.1l1.2-4.2c-2.4-1.2-4.3-3.3-4.9-6c-0.7-2.9,0-5.9,1.9-8l0.1-0.1l-0.6-4.1l-3.2-3.9
			c-2,0.1-4-0.4-5.7-1.5l-7.8-5.3c-1.7-1.1-2.9-2.8-3.5-4.7l-2.4-7.8c-0.3-0.9-0.4-1.8-0.4-2.7v-2.4l-3-1.8
			c-3.5-2.1-5.1-6.3-3.9-10.2l0.2-0.7l-6.6-13.2c-0.3-0.6-0.6-1.4-0.7-2.1l-2-9.4c-0.3-1.5-0.3-3.1,0.2-4.6l1.8-5.6l-11.2-22.4
			l-6.7-6.4l-7.5,0.6c-2.6,0.2-5.2-0.7-7-2.6l-2.4-2.4c-2.5-2.5-3.3-6.4-1.9-9.7l1.5-3.6l-2.5-1.1c-2.5-1.1-4.3-3.2-5-5.8
			c-0.7-2.6-0.2-5.4,1.3-7.6l3.3-4.6l4.1-13c0.6-1.9,1.9-3.6,3.6-4.8l1.7-1.2c0-1.4,0.3-2.8,1-4.1l8.6-16.8c0.8-1.5,1.9-2.7,3.4-3.6
			l6.3-3.8c-0.1-1,0-2.1,0.3-3l3.4-12.7c1.1-4.2,5.1-7,9.4-6.6c4.3,0.4,7.8,3.8,8.2,8.1l0.9,9.6c1.9,1.3,3.3,3.3,3.7,5.7l0.8,4.3
			l4.4,5.9l3,0.6c2.3,0.4,4.3,1.7,5.6,3.6l10.1,13.9c0.6,0.8,1,1.7,1.3,2.6l3.9,12.5l6,5.8c1.8,1.7,2.8,4,2.8,6.5v6
			c0,1.2-0.2,2.4-0.7,3.5c3.2,1.2,5.4,4,5.9,7.4l0.1,0.7l8,5.7l12.2,2.1c1.8,0.3,3.5,1.2,4.8,2.4l9.8,9.7l12.2,9
			c1.4,1,2.4,2.4,3.1,4.1l9.5,25.4l10.5,8.3c1,0.8,1.8,1.8,2.4,2.9l6.6,12.5c1.5-1.7,3.6-2.7,5.9-2.9l2.8-0.2c2.2-0.2,4.3,0.6,6,1.8
			c-0.3,0.8-0.7,1.8-1.1,2.5c-1.2,3-2.4,6-3.7,9c-0.8,2-1.7,4-2.8,5.9c-0.6,1.1-1.4,2.1-2.1,3.1c-2.6,3.6-5.2,7.3-8.1,10.7
			c-6.8,2.2-11.8,9.4-11.4,16.6c-2.4,6.4-9.7,9.8-12.9,15.8c-3.2,6-2.1,13.3,0.1,19.7c2.2,6.4,5.4,12.6,6.1,19.3
			c0.8,7.7-1.8,15.2-4.3,22.5c-0.9,2.5-1.8,5.2-3.6,7.2c-2.4,2.6-5.9,3.9-8.1,6.7c-2.2,2.9-2.5,7-4.8,9.8c-1.2,1.5-3,2.6-4.5,3.9
			c-3.4,3.1-5,7.6-6.6,11.9c-0.4,1.2-0.8,2.4-0.7,3.6c0.2,1.9,1.6,3.4,2.8,4.8c6,7.3,7.9,17.3,8.2,26.7c0.3,9.5-0.7,19,0.4,28.4
			c0.2,1.8,0.5,3.5,1.3,5c1.2,2.1,3.1,3.6,5,5c12.8,10.2,21.4,25.6,23.5,41.8c0.4,3.5,0.6,7.2,2.7,9.9c2.2,2.9,5.8,4.2,8.9,6
			c3.1,1.8,6,5.3,4.9,8.8c2.5,4.4,2.6,9.6,3.8,14.5c3.5,14.1,16.9,24.6,18.8,39c0.8,6.4-0.7,13,0.3,19.3c1.2,7.3,5.7,13.7,10.1,19.7
			c5.2,7.2,10.3,14.3,15.5,21.4c5.9,8.1,12.2,16.6,21.3,20.7c2.7,1.2,6,1.8,8.8,1.2c3.5,4.8,10.3,7.3,14.3,11.7
			c2.3,2.4,3.7,5.6,4.9,8.7c9.7,23.8,12.1,50,12.8,75.7c0.1,4,0.2,8.1,0.8,12.1c1.3,8.9,5.4,17.4,11.5,24.1c1.7,1.8,3.5,3.6,5.8,4.6
			c4.5,2,9.8,0.8,14.3-1.1c2.6-1.2,5.2-2.6,7.1-4.7c3.4-3.9,4.1-9.4,5.6-14.3c1.5-4.9,5-10.2,10.2-10.4c2.6-0.1,5.2,1.1,7.2,2.8
			c6.8,5.4,9.1,15.8,5.3,23.7c-2.2,4.4-6,7.9-7.7,12.6c2.1,5.7-0.2,12.7-4.7,16.8c-2.3,2.1-5.2,3.4-8,4.8c-5.8,3-11.3,6.5-16.3,10.5
			c-1.5,1.2-3,2.4-3.7,4.2c-0.6,1.5-0.7,3.2-0.7,4.8c0,3.4-0.1,6.7,0.5,10.1c1.4,8,6.5,14.8,10.4,21.9c4.4,7.9,7.6,16.5,9.4,25.4
			c0.7,3.7,0.8,8.6-2.6,10.3c-2.6,1.3-5.9,0-8.5,1.2c-4.1,1.8-4.1,7.4-4,11.8c0.2,7.4-1.2,14.8-4,21.6c-1.5,3.6-3.5,7.3-3.7,11.2
			c-0.5,6.8,4.1,12.8,8.6,18c5.2,6.1,14,8.8,18.8,15.2c4.5,5.9,5.5,13.7,5.2,21.1c-0.3,7.4-1.8,14.7-1.6,22.1s2.3,15.2,7.9,20.1
			c3.5,3.1,8.1,4.8,11.5,7.9c1.5,1.4,2.8,3,4,4.7c6.2,8.8,9.8,19.4,10.3,30.1c0.1,1.8,0,3.5-0.6,5.1c-0.6,1.7-1.9,3.1-3,4.5
			c-5.2,6.7-7.6,15.6-6.4,24.1s5.9,16.3,12.7,21.4c2.6,1.9,4.3,4.1,4.9,7.3s0.2,6.5,0.4,9.7c0.2,3.2,1.2,6.7,4,8.5
			c4.5,3,11.1-0.2,15.6,2.7c3.6,2.3,4.2,7.2,4.3,11.4c0.1,1.7,0.1,3.5-0.7,5c-1.6,2.8-5.4,3.1-7.8,5.2c-3.8,3.4-2.6,9.4-3.2,14.5
			c-0.4,3.5-1.7,6.8-3.1,10c-3.7,8.4-8.2,16.6-13.2,24.3c-1.2,1.9-2.5,3.9-3.2,6.1c-0.9,3.1-0.3,6.4,0.6,9.4c1.2,3.8,3.3,7.5,6.6,9.8
			c3.3,2.3,8,2.7,11.2,0.3c1.8-1.3,2.8-3.3,4.3-4.9c2.1-2.3,5.1-3.7,8.2-4c2.2-0.2,4.7,0.4,5.8,2.3c0.6,1.1,0.7,2.5,0.7,3.8
			c0,6.9-0.6,13.8-1.7,20.6c-2,12.7-3.6,27.2-12.7,36.3c-9.4,9.4-22.6,13.8-35.3,17.8c-3.7,1.2-7.4,2.4-11.1,3.6
			c-2.4,0.8-5.1,1.7-6.4,4c-1.7,3,0,6.8,2.3,9.4c2.4,2.5,5.4,4.4,7.3,7.3c4.7,7.2,0.7,18.4,7.1,24.2c1.8,1.6,4.1,2.4,6.3,3.4
			c8.2,3.4,15.8,8.2,22.4,14.1c4.4,3.9,8.6,10.1,5.9,15.3c-0.9,1.6-2.3,2.9-3.7,4.1c-19.3,16.4-37.8,33.6-55.6,51.5
			c-5,5.1-10.3,10.7-11.6,17.7c-1.6,8,2,16.9-1.8,24.1c-3.6,6.8-13.3,10.4-13.6,18.2c-0.1,3.9,2.4,7.3,4.7,10.4
			c7.6,10.8,13.2,23,16.4,35.8c1,4.1,1.8,8.4,0.6,12.5c-1,3.5-3.3,6.5-5.6,9.3c-4,5-8,10-12,15.1c-2.8,3.5-7.9,7.9-4.9,11.1
			c1.3,1.4,3.6,1.8,5.2,2.8c2.8,1.8,3.7,5.3,5.5,8c3.7,5.6,11,7.6,17.1,10.5c5.2,2.5,10.5,8.5,7.6,13.5c-1.1,1.8-3,2.9-4.2,4.5
			c-1.7,2.1-2.4,4.9-4,7c-4.4,5.7-13.2,4.1-20.4,3.6c-13.2-0.9-27.4,5.1-33.2,17c-0.9,1.8-1.7,3.9-3.4,4.8c-1.5,0.8-3.4,0.7-5,1.2
			c-4.2,1.4-5.5,7.2-3.7,11.3c1.8,4.1,5.5,6.9,9,9.8c1.8,1.4,3.6,3.3,3.6,5.5c0,1.3-0.8,2.6-1.3,3.8c-2.4,5.9,1.2,13.2-1.8,18.8
			c-2.2,4.2-7.5,6.4-8.9,11c-1.1,3.4,0.3,7.4-1.6,10.5c-1.2,1.8-3.2,2.8-4.7,4.3c-6,5.8-1.7,15.9-3.3,24.1
			c-2.3,12.2-16.4,17.5-26.2,25.3c-3.2,2.6-6.4,6.7-4.8,10.6c1.4,3.4,5.7,4.5,9.3,4.5c3.6,0,7.5-0.9,10.9,0.5
			c7.2,2.9,8.2,13.1,14.3,17.9c4.1,3.2,10.9,4.8,11.1,9.9c0.2,3.9-3.8,6.5-6.6,9.2c-5.4,5.3-7.3,13.8-4.7,20.8
			c-8.3,4.6-18-2.1-26.6-6.2c-9-4.2-19.3-5.6-29.2-3.8c-1.3,0.2-2.6,0.6-3.5,1.5c-1.2,1.2-1.3,2.9-1.3,4.5c0,4.6,1,9.2,2.9,13.4
			c2.2,1.3,4.4,2.2,5.1,4.6c1,3.6-2.2,6.9-4.7,9.8c-4.5,5.2-7.6,12.4-5.4,18.9c2.2,6.6,9.5,11.9,8.1,18.7c-0.8,3.8-4.1,6.5-6.7,9.4
			c-2.6,2.9-4.8,7.2-2.8,10.5c1.1,1.8,3.1,2.8,4.8,4.2c4.9,4,6.1,11,6.9,17.4c0.4,3.1,0.6,6.8-2,8.6c-1.7,1.2-3.9,1.1-6,1.5
			c-5.6,1.2-9.2,6.8-14.5,9.1c-7.3,3.1-16.7-0.5-23,4.4c-5.4,4.2-5.2,12.9-1.4,18.6c1.3,2,3,3.7,3.9,5.9c0.9,2.1,1.1,4.4,1.2,6.7
			c0.8,14.5,0.4,29,0,43.5c0,1.2-0.1,2.5-0.7,3.6c-0.6,0.9-1.5,1.5-2.4,2.1c-10.4,6.2-24.8,6.5-32.2,16.1c-2.9,3.7-4.2,8.4-5.3,12.9
			c-0.6,2.5-1.1,5.2-0.4,7.8c1.4,5.9,7.9,8.9,11.9,13.6c6,7.3,5.1,18,3.9,27.4c-1.6,11.8,1.2,22.7,3.2,34.5c2,11.7,1.6,25.4-7.3,33.4
			c-3,2.7-6.9,4.7-8.5,8.4c-0.9,2.2-0.9,4.7-1.2,7c-1.2,11.4-10.1,21.6-21.2,24.4c-2.1,0.6-4.3,0.9-6.2,2c-5.5,3.4-4.9,11.5-3.3,17.8
			c2.1,8,4.8,15.9,7.9,23.6c0.8,2,1.7,4,1.5,6.1c-0.1,1.8-1,3.6-1.8,5.2c-1.5,3-3,6-4.6,9c-1.6,3.1-3.2,6.3-6,8.4
			c-4.9,3.6-11.7,2.6-17.8,3.4c-7.2,0.9-13.8,4.6-20.1,8.1c-3,1.7-6.2,3.7-7.2,7c-1,3.4,1.1,7.1,3.6,9.5c2.6,2.4,5.8,4.2,8.3,6.8
			c6.7,7,5.9,19.6-1.6,25.7c-1.8,1.5-4,2.6-5.4,4.4c-1.8,2.3-2.4,5.3-3.9,7.8c-4,6.9-13.4,8.5-21.2,7.1c-7.8-1.4-15.1-5.1-23-6
			c-16.3-2-33.2,9.7-37.1,25.6c-4.4,17.8,0.5,37.3-9.1,52.9c-4,6.5-10.8,11.2-13.1,18.4c-1,3.2-1.1,6.6-2,9.7
			c-2.7,8.9-11.6,14.2-20.2,17.7c-5.7,2.3-11.6,4.2-16.5,7.9c-4.9,3.7-8.6,9.7-7.7,15.7c0.4,2.3,1.4,4.4,2.4,6.6
			c1.9,4.2,3.9,8.3,5.9,12.5c2.8,5.9,5.6,12,6.1,18.5s-1.7,13.7-7.2,17.3c-5.3,3.5-12.4,2.9-18.4,0.6c-6-2.3-11.3-6-17.1-8.5
			c-20.7-8.9-45.4-1.9-66.5-9.8c-9.5-3.6-18.9-10.1-28.9-8.2c-0.9,0.2-1.9,0.5-2.5,1.1c-0.8,0.8-1.1,2-1.2,3.2
			c-0.4,3.6,0.1,7.4,1.4,10.9c0.7,1.9,1.6,4.2,0.5,5.8c-0.7,1-1.9,1.4-3,1.9c-8.9,3.9-13.1,13.9-16.4,22.9
			c-2.1,5.7-4.2,11.5-6.4,17.2c-0.4,0.9-0.7,2-0.2,2.9c0.4,0.8,1.4,1.2,2.2,1.5c7.8,2.6,15.7,4.3,23.9,5.1c1.4,0.1,3,0.3,4.1,1.3
			c1.6,1.5,1.2,4.3,2.8,5.9c1.1,1.2,2.9,1.3,4.5,1.5c6.1,0.4,12.2,0.8,18.3,1.2c10,0.6,16.5,10.2,25.3,15c3.7,2,7.9,4.6,8.8,8.8
			c0.6,2.6-0.4,5.4-1.2,7.9c-1.6,4.6-3.2,9.1-4.8,13.7c-1.9,5.5-4,11.1-7.6,15.7s-9.2,8-15,7.5c3.9,6,7.9,12.1,9.5,19.1
			c1.6,7,0.5,15-4.7,20c-2.5,2.4-5.8,3.9-8.8,5.7c-5.7,3.4-10.6,7.9-14.5,13.3c-1.6,2.3-3.1,4.9-3,7.7c0.1,2.3,1.3,4.3,2.1,6.5
			c3.1,7.8,2.2,17-2.6,23.9s-13.1,11.2-21.4,11c-3.2,0-6.5-0.7-9.5,0.3c-4.5,1.5-7,6-9.2,10.3c-4.2,8.3-8.4,16.5-12.6,24.8
			c-1.1,2.1-2.2,4.2-3.9,5.9c-3.7,3.5-9.5,3.6-14.5,2.6s-9.9-2.9-15.1-2.8c-5.3,0.1-10.2,2.4-14.9,4.8c-7.5,3.8-14.8,8.1-21.8,12.9
			c-5.4,3.6-10.6,7.5-16.5,10.1c-7.2,3.1-15.5,4.3-21.5,9.3c-4.1,3.3-6.7,8-10.2,12c-3.5,3.9-7.9,7.3-13.1,6.7L712.9,4409.6z"/>
	</g>
	<g id="insular">
		<path class="st8" d="M560,315.5l-15.6,0.7l-4.3,5.7l-3.5-1.4l-5.6-7.8l-5.5-12.5l-8.7-2.4v-4.3l-5.7-5.7l0.7-12.1l3.5-4.3l5-7.8
			h7.8l4.3-4.3l8.5-10.1l18.5,3l5.7-2.8l11.4-1.5l3.5,2.1l-1.4,5l-5.7,1.4l-1.4,4.3l-5,3.6l-0.2,9.6l4.1,3.4l-2.5,8.5l4.2,1.2
			l2.8,2.1l5,0.7v6.3l2.8,0.7l-3.5,2.1v7.8l-5.7,1.5l-5.7,4.9L560,315.5z M624.4,334.1l-9.2-2.1l-5-9.2v-10.6l-2.8-7.8l-8.5-5.7
			l-2.1-6.4l-7.8,9.2v4.3l2.1,3.5l-0.7,6.4h-6.4l-5.7,3.5h-6.4l-2.8,5l4.3,20.6l-2.1,21.3l-5,1.4l-0.7,7.8l-5,2.8l-9.2,5l-5,7.1v-6.3
			l-16.5,0.2l-0.6-7.2l-9.9-11.2l-4,2.3l-3.9,7.3h-7.1l-10.6,7.1l-2.8,8.5l-7.1,5l-12.1,12l-3.5,9.2l-4.3,6.4l-2.8,6.4l-1.4,8.5
			l-7.1,6.6v8.5l-5,4.2l1.6,27.1l0.7,13.5l-4.3,7.8l-2.1,9.9l-2.8,4.3l0.7,4.3l-4.3-0.7l-2.8,5.7l-2.1,4.3l-3.5,0.7l-1.6,13.1
			l7.8,2.1l0.7,3.5l5,2.1l3.6,4.3l1.4,9.2l3.5,2.1l0.7,8.5l3.5,5.7v16.3l-3.5,9.9v6.4l-4.3,2.1l-0.7,4.3l4.3,2.9l3.5,7.8l5,4.3
			l1.4,6.4l5,4.3l1.4,3.6l12.8-1.5l6.4,0.7l4.3-3.5l5.7-4.3h5.7l2.8-4.3h7.8l3.5-4.3l9.9,0.7l5.7-4.3l6.4-0.7l11.4-9.2l10.6-12.8
			l16.3-11.3l11.1,0.2l5-1.5l5-3.5h5.7l9.7-9.7l11.3,1.5l5-5l1.4-7.1l0.5-14.2l10-14.5l6.1-2.5l-1.1-16.8l-3.5-0.7l4.3-3.5v-5l5-2.9
			l-7.3,0.9l-6.4-9.2l0.3-10.1l7-4.3l1-13.8l-6.9-3l10.8-5.9h7.1l4.7-4.9l7.1-2.9l1.4-4.3l5-0.7l5.2-6.4l0.4-21.1l-8.2,0.2l-4.9,6.8
			h-7.8l-5.7,2.1h-5.7l-5-1.4l2.1-4.3l3.6,2.1l6.3-3.3l0.9-11.5l-7.6-2.3l-1-6.3l-3.5-3.5V398l-3.5-3.6l-6.9-0.9l-2.1-5.9l6.9-3
			l1.5-4.1l-8.2-3.7l10.2-9.1l5.7-3.5v-5l9.1-5.1v-5.7l-5-4.9l-4.3-0.7l-1.4-3.5h-13.5L624.4,334.1z"/>
		<path class="st8" d="M322.7,231.9l-3.4,4.1l-3.6,5.1l-5.6,1.5l-1.4-12.6l6.5-1.4L322.7,231.9z M235.8,568.1l-2.3,2.6l6.9,4h2.6
			L235.8,568.1z M320.6,509.7l0.7-12.5l-5.9-3.3v-4.6l8.6-3.3l4,10.2l-0.3,7.3L320.6,509.7z M162.8,306.2l-7.1,10l-7.8,1.5l-8.6,5.7
			l-7.8,5l-7.8,10.7l-0.7,7.8l-5.7,6.4l-0.7,3.5l-6.4,5l-0.7,15l2.1,17.1l-2.1,25.7l-4.3,4.3l-1.1,14.4l-5.7,6.4l-6.4,7.1l-9.3,0.7
			l-5,3.5v5h-5.7h-5l-7.1,11.4l-5.7,5v6.4l-5.7,3.6l-0.7,16.4l7.1,5l-2.9,9.2l3.6,7.1l2.1,9.2l7.1,5l5,5.7l-5,2.1l-1.4,7.1l-8.9,9.2
			L52.2,575l-5.7,5.7l-2.1,7.1l-4.3,9.3v8.6l2.9,15.3l-15.2,9.9l-4.9,15.4l11.3,7.8l12.7,1.4l5.6,10.8l10.7,4l6.9-9.9l6.2-0.1
			l1.1,10.4L65,675l0.3,14l7.3,7.9l0.5,9.8l-7.6,8.7l-0.4,6.8l0.7,10l-7.1,3.5l2.5,12.2l5,7.1v5l-6.9,7.1l4.2,23.9l-5,8.6l-2.8,14.2
			l-4.3,7.8l-13.6,14l-2.9,10l-3.6,7.8l-3.6,0.7l-1.5,27.3l-3.6,7.1l2.1,3.5l1.4,9.3l4.3,6.4l5,11.4l6.4,11.4l8.6,8.6l10,3.5l1.4,3.6
			l4.3-5l9.3-0.7l7.8-8.6l17.7-21.1l7.5-30.7l10.6-27.3l12.8-22.1l6.4-17.1l8.6-25.7l5-15.7l4.3-22.8l2.1-30l8.6-15l5-6.4v-13.6
			l-5.7-3.5h4.3v-8.6l7.8-6.4l5-9.3l7.8-9.2l4.3-7.9l4.3-3.5l1.4-34.9l-7.8-7.1v-5l5.7-4.3l0.7-7.8l5-7.8l5.7-1.5l0.7-4.3l6.4-5.7
			l2.9-5l-2.1-25.7l-5.7-5.7l2.8-13.5l0.4-12l6.5-4.7l-1.2-8.9l-3.6-4.2l1.5-11.6l-7.3-0.5l-6.4-5l-6.4-5l0.7-5l5-0.7l3.6-3.5h7.8
			l4.3,3.5l11.4-2.1l3.7-6.6l3.6-0.7v-5.7l-8.6-5.7l-3.6-2.1l-5.7-0.7l-4.3-2.1l-10.7-7.1h-2.9v-4.2l-5.7-1.5v-12.8h4.3l1.4,4.3
			l5.7,1.5l7.1,3.5l4.3,5l1.4,3.5l6.4-0.7l2.1,3.5l6.4-4.2v-6.4l-6.4-2.9l-3.6-6.4l-5.7-1.4l-4.3-7.1l-5-0.7l-1.4-5h-5l2.9-3.6
			l2.8-4.3l4.3-0.7l7.1-5h9.3l6.4-4.3l7.8-1.4l9.3-10.7l3.7-3.2l22.4-0.7l7.8,2.9h5l2.4,4.5l7.4,0.3l6.7-6.8l-0.5-11.1l-10.9-9.7
			l-10.7-2.9l-9.3-6.4l-9.3-1.4l-7.7-4.3l-9.3-1.4l-7.8-8.6l-2-6.9L239,287l-13.5-14.2l-6.4-6.4h-5.7l-5.7,5.7l-12.8,7.1l-7.8,9.2
			l-8.6,5l-8.6,10L162.8,306.2z"/>
	</g>
</g>
</svg>
